{
  "header": {
    "keySignatures": [],
    "meta": [],
    "name": "",
    "ppq": 96,
    "tempos": [
      {
        "bpm": 154.99990958338608,
        "ticks": 0
      }
    ],
    "timeSignatures": [
      {
        "ticks": 0,
        "timeSignature": [
          4,
          4
        ],
        "measures": 0
      }
    ]
  },
  "tracks": [
    {
      "channel": 0,
      "controlChanges": {},
      "pitchBends": [],
      "instrument": {
        "family": "piano",
        "name": "acoustic grand piano",
        "number": 0
      },
      "name": "",
      "notes": []
    },
    {
      "channel": 0,
      "controlChanges": {
        "6": [
          {
            "number": 6,
            "ticks": 0,
            "time": 0,
            "value": 0.09448818897637795
          }
        ],
        "7": [
          {
            "number": 7,
            "ticks": 0,
            "time": 0,
            "value": 0.9448818897637795
          },
          {
            "number": 7,
            "ticks": 0,
            "time": 0,
            "value": 0.9448818897637795
          }
        ],
        "10": [
          {
            "number": 10,
            "ticks": 0,
            "time": 0,
            "value": 0.5039370078740157
          },
          {
            "number": 10,
            "ticks": 0,
            "time": 0,
            "value": 0.5039370078740157
          }
        ],
        "100": [
          {
            "number": 100,
            "ticks": 0,
            "time": 0,
            "value": 0
          }
        ],
        "101": [
          {
            "number": 101,
            "ticks": 0,
            "time": 0,
            "value": 0
          }
        ]
      },
      "pitchBends": [
        {
          "ticks": 0,
          "time": 0,
          "value": 0
        },
        {
          "ticks": 0,
          "time": 0,
          "value": 0
        }
      ],
      "instrument": {
        "family": "piano",
        "name": "acoustic grand piano",
        "number": 0
      },
      "name": "Bright Piano",
      "notes": []
    },
    {
      "channel": 6,
      "controlChanges": {
        "6": [
          {
            "number": 6,
            "ticks": 0,
            "time": 0,
            "value": 0.09448818897637795
          },
          {
            "number": 6,
            "ticks": 0,
            "time": 0,
            "value": 0.09448818897637795
          },
          {
            "number": 6,
            "ticks": 30336,
            "time": 122.32265199999999,
            "value": 0.09448818897637795
          },
          {
            "number": 6,
            "ticks": 30336,
            "time": 122.32265199999999,
            "value": 0.09448818897637795
          },
          {
            "number": 6,
            "ticks": 30336,
            "time": 122.32265199999999,
            "value": 0.09448818897637795
          }
        ],
        "7": [
          {
            "number": 7,
            "ticks": 0,
            "time": 0,
            "value": 0.9448818897637795
          },
          {
            "number": 7,
            "ticks": 0,
            "time": 0,
            "value": 0.9448818897637795
          },
          {
            "number": 7,
            "ticks": 30336,
            "time": 122.32265199999999,
            "value": 0.9448818897637795
          },
          {
            "number": 7,
            "ticks": 30336,
            "time": 122.32265199999999,
            "value": 0.9448818897637795
          },
          {
            "number": 7,
            "ticks": 30336,
            "time": 122.32265199999999,
            "value": 0.9448818897637795
          }
        ],
        "10": [
          {
            "number": 10,
            "ticks": 0,
            "time": 0,
            "value": 0.5039370078740157
          },
          {
            "number": 10,
            "ticks": 0,
            "time": 0,
            "value": 0.5039370078740157
          },
          {
            "number": 10,
            "ticks": 30336,
            "time": 122.32265199999999,
            "value": 0.5039370078740157
          },
          {
            "number": 10,
            "ticks": 30336,
            "time": 122.32265199999999,
            "value": 0.5039370078740157
          },
          {
            "number": 10,
            "ticks": 30336,
            "time": 122.32265199999999,
            "value": 0.5039370078740157
          }
        ],
        "100": [
          {
            "number": 100,
            "ticks": 0,
            "time": 0,
            "value": 0
          },
          {
            "number": 100,
            "ticks": 0,
            "time": 0,
            "value": 0
          },
          {
            "number": 100,
            "ticks": 30336,
            "time": 122.32265199999999,
            "value": 0
          },
          {
            "number": 100,
            "ticks": 30336,
            "time": 122.32265199999999,
            "value": 0
          },
          {
            "number": 100,
            "ticks": 30336,
            "time": 122.32265199999999,
            "value": 0
          }
        ],
        "101": [
          {
            "number": 101,
            "ticks": 0,
            "time": 0,
            "value": 0
          },
          {
            "number": 101,
            "ticks": 0,
            "time": 0,
            "value": 0
          },
          {
            "number": 101,
            "ticks": 30336,
            "time": 122.32265199999999,
            "value": 0
          },
          {
            "number": 101,
            "ticks": 30336,
            "time": 122.32265199999999,
            "value": 0
          },
          {
            "number": 101,
            "ticks": 30336,
            "time": 122.32265199999999,
            "value": 0
          }
        ]
      },
      "pitchBends": [
        {
          "ticks": 0,
          "time": 0,
          "value": 0
        },
        {
          "ticks": 0,
          "time": 0,
          "value": 0
        },
        {
          "ticks": 30336,
          "time": 122.32265199999999,
          "value": 0
        },
        {
          "ticks": 30336,
          "time": 122.32265199999999,
          "value": 0
        },
        {
          "ticks": 30336,
          "time": 122.32265199999999,
          "value": 0
        }
      ],
      "instrument": {
        "family": "piano",
        "name": "bright acoustic piano",
        "number": 1
      },
      "name": "",
      "notes": [
        {
          "duration": 0.19354850000000035,
          "durationTicks": 48,
          "midi": 65,
          "name": "F4",
          "ticks": 3840,
          "time": 15.48388,
          "velocity": 0.7874015748031497
        },
        {
          "duration": 0.19354850000000035,
          "durationTicks": 48,
          "midi": 61,
          "name": "C#4",
          "ticks": 3936,
          "time": 15.870976999999998,
          "velocity": 0.7874015748031497
        },
        {
          "duration": 0.19354850000000212,
          "durationTicks": 48,
          "midi": 64,
          "name": "E4",
          "ticks": 4032,
          "time": 16.258073999999997,
          "velocity": 0.7874015748031497
        },
        {
          "duration": 0.19354850000000212,
          "durationTicks": 48,
          "midi": 60,
          "name": "C4",
          "ticks": 4128,
          "time": 16.645170999999998,
          "velocity": 0.7874015748031497
        },
        {
          "duration": 0.19354849999999857,
          "durationTicks": 48,
          "midi": 67,
          "name": "G4",
          "ticks": 4224,
          "time": 17.032268,
          "velocity": 0.7874015748031497
        },
        {
          "duration": 0.19354849999999857,
          "durationTicks": 48,
          "midi": 64,
          "name": "E4",
          "ticks": 4320,
          "time": 17.419365,
          "velocity": 0.7874015748031497
        },
        {
          "duration": 0.19354849999999857,
          "durationTicks": 48,
          "midi": 63,
          "name": "D#4",
          "ticks": 4416,
          "time": 17.806462,
          "velocity": 0.7874015748031497
        },
        {
          "duration": 0.19354850000000212,
          "durationTicks": 48,
          "midi": 66,
          "name": "F#4",
          "ticks": 4512,
          "time": 18.193558999999997,
          "velocity": 0.7874015748031497
        },
        {
          "duration": 0.19354850000000212,
          "durationTicks": 48,
          "midi": 65,
          "name": "F4",
          "ticks": 4608,
          "time": 18.580655999999998,
          "velocity": 0.7874015748031497
        },
        {
          "duration": 0.19354849999999857,
          "durationTicks": 48,
          "midi": 61,
          "name": "C#4",
          "ticks": 4704,
          "time": 18.967753,
          "velocity": 0.7874015748031497
        },
        {
          "duration": 0.19354849999999857,
          "durationTicks": 48,
          "midi": 64,
          "name": "E4",
          "ticks": 4800,
          "time": 19.35485,
          "velocity": 0.7874015748031497
        },
        {
          "duration": 0.19354849999999857,
          "durationTicks": 48,
          "midi": 60,
          "name": "C4",
          "ticks": 4896,
          "time": 19.741947,
          "velocity": 0.7874015748031497
        },
        {
          "duration": 0.19354850000000212,
          "durationTicks": 48,
          "midi": 67,
          "name": "G4",
          "ticks": 4992,
          "time": 20.129043999999997,
          "velocity": 0.7874015748031497
        },
        {
          "duration": 0.19354850000000212,
          "durationTicks": 48,
          "midi": 64,
          "name": "E4",
          "ticks": 5088,
          "time": 20.516140999999998,
          "velocity": 0.7874015748031497
        },
        {
          "duration": 0.7741940000000014,
          "durationTicks": 192,
          "midi": 63,
          "name": "D#4",
          "ticks": 5184,
          "time": 20.903237999999998,
          "velocity": 0.7874015748031497
        },
        {
          "duration": 0.19354849999999857,
          "durationTicks": 48,
          "midi": 65,
          "name": "F4",
          "ticks": 5376,
          "time": 21.677432,
          "velocity": 0.7874015748031497
        },
        {
          "duration": 0.19354850000000212,
          "durationTicks": 48,
          "midi": 61,
          "name": "C#4",
          "ticks": 5472,
          "time": 22.064528999999997,
          "velocity": 0.7874015748031497
        },
        {
          "duration": 0.19354850000000212,
          "durationTicks": 48,
          "midi": 64,
          "name": "E4",
          "ticks": 5568,
          "time": 22.451625999999997,
          "velocity": 0.7874015748031497
        },
        {
          "duration": 0.19354849999999857,
          "durationTicks": 48,
          "midi": 60,
          "name": "C4",
          "ticks": 5664,
          "time": 22.838722999999998,
          "velocity": 0.7874015748031497
        },
        {
          "duration": 0.19354849999999857,
          "durationTicks": 48,
          "midi": 67,
          "name": "G4",
          "ticks": 5760,
          "time": 23.22582,
          "velocity": 0.7874015748031497
        },
        {
          "duration": 0.19354849999999857,
          "durationTicks": 48,
          "midi": 64,
          "name": "E4",
          "ticks": 5856,
          "time": 23.612917,
          "velocity": 0.7874015748031497
        },
        {
          "duration": 0.19354850000000212,
          "durationTicks": 48,
          "midi": 63,
          "name": "D#4",
          "ticks": 5952,
          "time": 24.000013999999997,
          "velocity": 0.7874015748031497
        },
        {
          "duration": 0.19354850000000212,
          "durationTicks": 48,
          "midi": 66,
          "name": "F#4",
          "ticks": 6048,
          "time": 24.387110999999997,
          "velocity": 0.7874015748031497
        },
        {
          "duration": 0.19354849999999857,
          "durationTicks": 48,
          "midi": 65,
          "name": "F4",
          "ticks": 6144,
          "time": 24.774207999999998,
          "velocity": 0.7874015748031497
        },
        {
          "duration": 0.19354849999999857,
          "durationTicks": 48,
          "midi": 61,
          "name": "C#4",
          "ticks": 6240,
          "time": 25.161305,
          "velocity": 0.7874015748031497
        },
        {
          "duration": 0.19354849999999857,
          "durationTicks": 48,
          "midi": 64,
          "name": "E4",
          "ticks": 6336,
          "time": 25.548402,
          "velocity": 0.7874015748031497
        },
        {
          "duration": 0.19354850000000212,
          "durationTicks": 48,
          "midi": 60,
          "name": "C4",
          "ticks": 6432,
          "time": 25.935498999999997,
          "velocity": 0.7874015748031497
        },
        {
          "duration": 0.19354850000000212,
          "durationTicks": 48,
          "midi": 79,
          "name": "G5",
          "ticks": 6528,
          "time": 26.322595999999997,
          "velocity": 0.7874015748031497
        },
        {
          "duration": 0.19354849999999857,
          "durationTicks": 48,
          "midi": 76,
          "name": "E5",
          "ticks": 6624,
          "time": 26.709692999999998,
          "velocity": 0.7874015748031497
        },
        {
          "duration": 0.7741939999999978,
          "durationTicks": 192,
          "midi": 75,
          "name": "D#5",
          "ticks": 6720,
          "time": 27.09679,
          "velocity": 0.7874015748031497
        },
        {
          "duration": 0.12903233333334185,
          "durationTicks": 32,
          "midi": 82,
          "name": "A#5",
          "ticks": 13056,
          "time": 52.645191999999994,
          "velocity": 0.7874015748031497
        },
        {
          "duration": 0.12903233333332054,
          "durationTicks": 32,
          "midi": 77,
          "name": "F5",
          "ticks": 13088,
          "time": 52.774224333333336,
          "velocity": 0.7874015748031497
        },
        {
          "duration": 0.12903233333334185,
          "durationTicks": 32,
          "midi": 75,
          "name": "D#5",
          "ticks": 13120,
          "time": 52.90325666666666,
          "velocity": 0.7874015748031497
        },
        {
          "duration": 0.12903233333333475,
          "durationTicks": 32,
          "midi": 82,
          "name": "A#5",
          "ticks": 13152,
          "time": 53.032289,
          "velocity": 0.7874015748031497
        },
        {
          "duration": 0.12903233333332764,
          "durationTicks": 32,
          "midi": 77,
          "name": "F5",
          "ticks": 13184,
          "time": 53.16132133333333,
          "velocity": 0.7874015748031497
        },
        {
          "duration": 0.12903233333333475,
          "durationTicks": 32,
          "midi": 75,
          "name": "D#5",
          "ticks": 13216,
          "time": 53.29035366666666,
          "velocity": 0.7874015748031497
        },
        {
          "duration": 0.12903233333333475,
          "durationTicks": 32,
          "midi": 82,
          "name": "A#5",
          "ticks": 13248,
          "time": 53.419385999999996,
          "velocity": 0.7874015748031497
        },
        {
          "duration": 0.12903233333332764,
          "durationTicks": 32,
          "midi": 77,
          "name": "F5",
          "ticks": 13280,
          "time": 53.54841833333333,
          "velocity": 0.7874015748031497
        },
        {
          "duration": 0.12903233333333475,
          "durationTicks": 32,
          "midi": 75,
          "name": "D#5",
          "ticks": 13312,
          "time": 53.67745066666666,
          "velocity": 0.7874015748031497
        },
        {
          "duration": 0.12903233333334185,
          "durationTicks": 32,
          "midi": 82,
          "name": "A#5",
          "ticks": 13344,
          "time": 53.80648299999999,
          "velocity": 0.7874015748031497
        },
        {
          "duration": 0.12903233333332054,
          "durationTicks": 32,
          "midi": 77,
          "name": "F5",
          "ticks": 13376,
          "time": 53.935515333333335,
          "velocity": 0.7874015748031497
        },
        {
          "duration": 0.12903233333334185,
          "durationTicks": 32,
          "midi": 75,
          "name": "D#5",
          "ticks": 13408,
          "time": 54.064547666666655,
          "velocity": 0.7874015748031497
        },
        {
          "duration": 0.12903233333333475,
          "durationTicks": 32,
          "midi": 82,
          "name": "A#5",
          "ticks": 13440,
          "time": 54.19358,
          "velocity": 0.7874015748031497
        },
        {
          "duration": 0.12903233333332764,
          "durationTicks": 32,
          "midi": 77,
          "name": "F5",
          "ticks": 13472,
          "time": 54.32261233333333,
          "velocity": 0.7874015748031497
        },
        {
          "duration": 0.12903233333333475,
          "durationTicks": 32,
          "midi": 75,
          "name": "D#5",
          "ticks": 13504,
          "time": 54.45164466666666,
          "velocity": 0.7874015748031497
        },
        {
          "duration": 0.12903233333333475,
          "durationTicks": 32,
          "midi": 82,
          "name": "A#5",
          "ticks": 13536,
          "time": 54.580676999999994,
          "velocity": 0.7874015748031497
        },
        {
          "duration": 0.12903233333332764,
          "durationTicks": 32,
          "midi": 77,
          "name": "F5",
          "ticks": 13568,
          "time": 54.70970933333333,
          "velocity": 0.7874015748031497
        },
        {
          "duration": 0.12903233333334185,
          "durationTicks": 32,
          "midi": 75,
          "name": "D#5",
          "ticks": 13600,
          "time": 54.83874166666666,
          "velocity": 0.7874015748031497
        },
        {
          "duration": 0.12903233333333475,
          "durationTicks": 32,
          "midi": 82,
          "name": "A#5",
          "ticks": 13632,
          "time": 54.967774,
          "velocity": 0.7874015748031497
        },
        {
          "duration": 0.12903233333332764,
          "durationTicks": 32,
          "midi": 77,
          "name": "F5",
          "ticks": 13664,
          "time": 55.09680633333333,
          "velocity": 0.7874015748031497
        },
        {
          "duration": 0.12903233333333475,
          "durationTicks": 32,
          "midi": 75,
          "name": "D#5",
          "ticks": 13696,
          "time": 55.22583866666666,
          "velocity": 0.7874015748031497
        },
        {
          "duration": 0.12903233333333475,
          "durationTicks": 32,
          "midi": 82,
          "name": "A#5",
          "ticks": 13728,
          "time": 55.354870999999996,
          "velocity": 0.7874015748031497
        },
        {
          "duration": 0.12903233333332764,
          "durationTicks": 32,
          "midi": 77,
          "name": "F5",
          "ticks": 13760,
          "time": 55.48390333333333,
          "velocity": 0.7874015748031497
        },
        {
          "duration": 0.12903233333333475,
          "durationTicks": 32,
          "midi": 75,
          "name": "D#5",
          "ticks": 13792,
          "time": 55.61293566666666,
          "velocity": 0.7874015748031497
        },
        {
          "duration": 0.12903233333334185,
          "durationTicks": 32,
          "midi": 81,
          "name": "A5",
          "ticks": 13824,
          "time": 55.74196799999999,
          "velocity": 0.7874015748031497
        },
        {
          "duration": 0.12903233333332054,
          "durationTicks": 32,
          "midi": 77,
          "name": "F5",
          "ticks": 13856,
          "time": 55.871000333333335,
          "velocity": 0.7874015748031497
        },
        {
          "duration": 0.12903233333334185,
          "durationTicks": 32,
          "midi": 74,
          "name": "D5",
          "ticks": 13888,
          "time": 56.000032666666655,
          "velocity": 0.7874015748031497
        },
        {
          "duration": 0.12903233333333475,
          "durationTicks": 32,
          "midi": 81,
          "name": "A5",
          "ticks": 13920,
          "time": 56.129065,
          "velocity": 0.7874015748031497
        },
        {
          "duration": 0.12903233333332764,
          "durationTicks": 32,
          "midi": 77,
          "name": "F5",
          "ticks": 13952,
          "time": 56.25809733333333,
          "velocity": 0.7874015748031497
        },
        {
          "duration": 0.12903233333333475,
          "durationTicks": 32,
          "midi": 74,
          "name": "D5",
          "ticks": 13984,
          "time": 56.38712966666666,
          "velocity": 0.7874015748031497
        },
        {
          "duration": 0.12903233333333475,
          "durationTicks": 32,
          "midi": 81,
          "name": "A5",
          "ticks": 14016,
          "time": 56.516161999999994,
          "velocity": 0.7874015748031497
        },
        {
          "duration": 0.12903233333332764,
          "durationTicks": 32,
          "midi": 77,
          "name": "F5",
          "ticks": 14048,
          "time": 56.64519433333333,
          "velocity": 0.7874015748031497
        },
        {
          "duration": 0.12903233333334185,
          "durationTicks": 32,
          "midi": 74,
          "name": "D5",
          "ticks": 14080,
          "time": 56.77422666666666,
          "velocity": 0.7874015748031497
        },
        {
          "duration": 0.12903233333333475,
          "durationTicks": 32,
          "midi": 81,
          "name": "A5",
          "ticks": 14112,
          "time": 56.903259,
          "velocity": 0.7874015748031497
        },
        {
          "duration": 0.12903233333332764,
          "durationTicks": 32,
          "midi": 77,
          "name": "F5",
          "ticks": 14144,
          "time": 57.03229133333333,
          "velocity": 0.7874015748031497
        },
        {
          "duration": 0.12903233333333475,
          "durationTicks": 32,
          "midi": 74,
          "name": "D5",
          "ticks": 14176,
          "time": 57.16132366666666,
          "velocity": 0.7874015748031497
        },
        {
          "duration": 0.12903233333333475,
          "durationTicks": 32,
          "midi": 81,
          "name": "A5",
          "ticks": 14208,
          "time": 57.290355999999996,
          "velocity": 0.7874015748031497
        },
        {
          "duration": 0.12903233333332764,
          "durationTicks": 32,
          "midi": 77,
          "name": "F5",
          "ticks": 14240,
          "time": 57.41938833333333,
          "velocity": 0.7874015748031497
        },
        {
          "duration": 0.12903233333333475,
          "durationTicks": 32,
          "midi": 74,
          "name": "D5",
          "ticks": 14272,
          "time": 57.54842066666666,
          "velocity": 0.7874015748031497
        },
        {
          "duration": 0.12903233333334185,
          "durationTicks": 32,
          "midi": 81,
          "name": "A5",
          "ticks": 14304,
          "time": 57.67745299999999,
          "velocity": 0.7874015748031497
        },
        {
          "duration": 0.12903233333332054,
          "durationTicks": 32,
          "midi": 77,
          "name": "F5",
          "ticks": 14336,
          "time": 57.806485333333335,
          "velocity": 0.7874015748031497
        },
        {
          "duration": 0.12903233333334185,
          "durationTicks": 32,
          "midi": 74,
          "name": "D5",
          "ticks": 14368,
          "time": 57.935517666666655,
          "velocity": 0.7874015748031497
        },
        {
          "duration": 0.12903233333333475,
          "durationTicks": 32,
          "midi": 81,
          "name": "A5",
          "ticks": 14400,
          "time": 58.06455,
          "velocity": 0.7874015748031497
        },
        {
          "duration": 0.12903233333332764,
          "durationTicks": 32,
          "midi": 77,
          "name": "F5",
          "ticks": 14432,
          "time": 58.19358233333333,
          "velocity": 0.7874015748031497
        },
        {
          "duration": 0.12903233333333475,
          "durationTicks": 32,
          "midi": 74,
          "name": "D5",
          "ticks": 14464,
          "time": 58.32261466666666,
          "velocity": 0.7874015748031497
        },
        {
          "duration": 0.12903233333333475,
          "durationTicks": 32,
          "midi": 81,
          "name": "A5",
          "ticks": 14496,
          "time": 58.451646999999994,
          "velocity": 0.7874015748031497
        },
        {
          "duration": 0.12903233333332764,
          "durationTicks": 32,
          "midi": 77,
          "name": "F5",
          "ticks": 14528,
          "time": 58.58067933333333,
          "velocity": 0.7874015748031497
        },
        {
          "duration": 0.12903233333334185,
          "durationTicks": 32,
          "midi": 74,
          "name": "D5",
          "ticks": 14560,
          "time": 58.70971166666666,
          "velocity": 0.7874015748031497
        },
        {
          "duration": 0.12903233333333475,
          "durationTicks": 32,
          "midi": 81,
          "name": "A5",
          "ticks": 14592,
          "time": 58.838744,
          "velocity": 0.7874015748031497
        },
        {
          "duration": 0.12903233333332764,
          "durationTicks": 32,
          "midi": 77,
          "name": "F5",
          "ticks": 14624,
          "time": 58.96777633333333,
          "velocity": 0.7874015748031497
        },
        {
          "duration": 0.12903233333333475,
          "durationTicks": 32,
          "midi": 74,
          "name": "D5",
          "ticks": 14656,
          "time": 59.09680866666666,
          "velocity": 0.7874015748031497
        },
        {
          "duration": 0.12903233333333475,
          "durationTicks": 32,
          "midi": 81,
          "name": "A5",
          "ticks": 14688,
          "time": 59.225840999999996,
          "velocity": 0.7874015748031497
        },
        {
          "duration": 0.12903233333332764,
          "durationTicks": 32,
          "midi": 77,
          "name": "F5",
          "ticks": 14720,
          "time": 59.35487333333333,
          "velocity": 0.7874015748031497
        },
        {
          "duration": 0.12903233333333475,
          "durationTicks": 32,
          "midi": 74,
          "name": "D5",
          "ticks": 14752,
          "time": 59.48390566666666,
          "velocity": 0.7874015748031497
        },
        {
          "duration": 0.12903233333334185,
          "durationTicks": 32,
          "midi": 79,
          "name": "G5",
          "ticks": 14784,
          "time": 59.61293799999999,
          "velocity": 0.7874015748031497
        },
        {
          "duration": 0.12903233333332054,
          "durationTicks": 32,
          "midi": 76,
          "name": "E5",
          "ticks": 14816,
          "time": 59.741970333333335,
          "velocity": 0.7874015748031497
        },
        {
          "duration": 0.12903233333334185,
          "durationTicks": 32,
          "midi": 72,
          "name": "C5",
          "ticks": 14848,
          "time": 59.871002666666655,
          "velocity": 0.7874015748031497
        },
        {
          "duration": 0.12903233333333475,
          "durationTicks": 32,
          "midi": 79,
          "name": "G5",
          "ticks": 14880,
          "time": 60.000035,
          "velocity": 0.7874015748031497
        },
        {
          "duration": 0.12903233333332764,
          "durationTicks": 32,
          "midi": 76,
          "name": "E5",
          "ticks": 14912,
          "time": 60.12906733333333,
          "velocity": 0.7874015748031497
        },
        {
          "duration": 0.12903233333333475,
          "durationTicks": 32,
          "midi": 72,
          "name": "C5",
          "ticks": 14944,
          "time": 60.25809966666666,
          "velocity": 0.7874015748031497
        },
        {
          "duration": 0.12903233333333475,
          "durationTicks": 32,
          "midi": 77,
          "name": "F5",
          "ticks": 14976,
          "time": 60.387131999999994,
          "velocity": 0.7874015748031497
        },
        {
          "duration": 0.12903233333332764,
          "durationTicks": 32,
          "midi": 74,
          "name": "D5",
          "ticks": 15008,
          "time": 60.51616433333333,
          "velocity": 0.7874015748031497
        },
        {
          "duration": 0.12903233333334185,
          "durationTicks": 32,
          "midi": 69,
          "name": "A4",
          "ticks": 15040,
          "time": 60.645196666666656,
          "velocity": 0.7874015748031497
        },
        {
          "duration": 0.12903233333333475,
          "durationTicks": 32,
          "midi": 76,
          "name": "E5",
          "ticks": 15072,
          "time": 60.774229,
          "velocity": 0.7874015748031497
        },
        {
          "duration": 0.12903233333332764,
          "durationTicks": 32,
          "midi": 77,
          "name": "F5",
          "ticks": 15104,
          "time": 60.90326133333333,
          "velocity": 0.7874015748031497
        },
        {
          "duration": 0.12903233333333475,
          "durationTicks": 32,
          "midi": 79,
          "name": "G5",
          "ticks": 15136,
          "time": 61.03229366666666,
          "velocity": 0.7874015748031497
        },
        {
          "duration": 0.12903233333333475,
          "durationTicks": 32,
          "midi": 69,
          "name": "A4",
          "ticks": 15168,
          "time": 61.161325999999995,
          "velocity": 0.7874015748031497
        },
        {
          "duration": 0.12903233333333475,
          "durationTicks": 32,
          "midi": 74,
          "name": "D5",
          "ticks": 15168,
          "time": 61.161325999999995,
          "velocity": 0.7874015748031497
        },
        {
          "duration": 0.12903233333332054,
          "durationTicks": 32,
          "midi": 69,
          "name": "A4",
          "ticks": 15296,
          "time": 61.677455333333334,
          "velocity": 0.7874015748031497
        },
        {
          "duration": 0.12903233333334185,
          "durationTicks": 32,
          "midi": 72,
          "name": "C5",
          "ticks": 15328,
          "time": 61.806487666666655,
          "velocity": 0.7874015748031497
        },
        {
          "duration": 0.12903233333333475,
          "durationTicks": 32,
          "midi": 74,
          "name": "D5",
          "ticks": 15360,
          "time": 61.93552,
          "velocity": 0.7874015748031497
        },
        {
          "duration": 0.12903233333332764,
          "durationTicks": 32,
          "midi": 70,
          "name": "A#4",
          "ticks": 15392,
          "time": 62.06455233333333,
          "velocity": 0.7874015748031497
        },
        {
          "duration": 0.12903233333333475,
          "durationTicks": 32,
          "midi": 65,
          "name": "F4",
          "ticks": 15424,
          "time": 62.19358466666666,
          "velocity": 0.7874015748031497
        },
        {
          "duration": 0.12903233333333475,
          "durationTicks": 32,
          "midi": 74,
          "name": "D5",
          "ticks": 15456,
          "time": 62.322616999999994,
          "velocity": 0.7874015748031497
        },
        {
          "duration": 0.12903233333332764,
          "durationTicks": 32,
          "midi": 70,
          "name": "A#4",
          "ticks": 15488,
          "time": 62.45164933333333,
          "velocity": 0.7874015748031497
        },
        {
          "duration": 0.12903233333334185,
          "durationTicks": 32,
          "midi": 65,
          "name": "F4",
          "ticks": 15520,
          "time": 62.580681666666656,
          "velocity": 0.7874015748031497
        },
        {
          "duration": 0.12903233333333475,
          "durationTicks": 32,
          "midi": 76,
          "name": "E5",
          "ticks": 15552,
          "time": 62.709714,
          "velocity": 0.7874015748031497
        },
        {
          "duration": 0.12903233333332764,
          "durationTicks": 32,
          "midi": 72,
          "name": "C5",
          "ticks": 15584,
          "time": 62.83874633333333,
          "velocity": 0.7874015748031497
        },
        {
          "duration": 0.12903233333333475,
          "durationTicks": 32,
          "midi": 67,
          "name": "G4",
          "ticks": 15616,
          "time": 62.96777866666666,
          "velocity": 0.7874015748031497
        },
        {
          "duration": 0.12903233333333475,
          "durationTicks": 32,
          "midi": 76,
          "name": "E5",
          "ticks": 15648,
          "time": 63.096810999999995,
          "velocity": 0.7874015748031497
        },
        {
          "duration": 0.12903233333332764,
          "durationTicks": 32,
          "midi": 72,
          "name": "C5",
          "ticks": 15680,
          "time": 63.22584333333333,
          "velocity": 0.7874015748031497
        },
        {
          "duration": 0.12903233333333475,
          "durationTicks": 32,
          "midi": 67,
          "name": "G4",
          "ticks": 15712,
          "time": 63.35487566666666,
          "velocity": 0.7874015748031497
        },
        {
          "duration": 0.12903233333334185,
          "durationTicks": 32,
          "midi": 76,
          "name": "E5",
          "ticks": 15744,
          "time": 63.48390799999999,
          "velocity": 0.7874015748031497
        },
        {
          "duration": 0.12903233333332054,
          "durationTicks": 32,
          "midi": 73,
          "name": "C#5",
          "ticks": 15776,
          "time": 63.612940333333334,
          "velocity": 0.7874015748031497
        },
        {
          "duration": 0.12903233333334185,
          "durationTicks": 32,
          "midi": 69,
          "name": "A4",
          "ticks": 15808,
          "time": 63.741972666666655,
          "velocity": 0.7874015748031497
        },
        {
          "duration": 0.12903233333334185,
          "durationTicks": 32,
          "midi": 76,
          "name": "E5",
          "ticks": 15840,
          "time": 63.871005,
          "velocity": 0.7874015748031497
        },
        {
          "duration": 0.12903233333331343,
          "durationTicks": 32,
          "midi": 77,
          "name": "F5",
          "ticks": 15872,
          "time": 64.00003733333334,
          "velocity": 0.7874015748031497
        },
        {
          "duration": 0.12903233333334185,
          "durationTicks": 32,
          "midi": 79,
          "name": "G5",
          "ticks": 15904,
          "time": 64.12906966666665,
          "velocity": 0.7874015748031497
        },
        {
          "duration": 0.12903233333334185,
          "durationTicks": 32,
          "midi": 81,
          "name": "A5",
          "ticks": 15936,
          "time": 64.258102,
          "velocity": 0.7874015748031497
        },
        {
          "duration": 0.12903233333334185,
          "durationTicks": 32,
          "midi": 77,
          "name": "F5",
          "ticks": 15936,
          "time": 64.258102,
          "velocity": 0.7874015748031497
        },
        {
          "duration": 0.12903233333334185,
          "durationTicks": 32,
          "midi": 81,
          "name": "A5",
          "ticks": 16128,
          "time": 65.03229599999999,
          "velocity": 0.7874015748031497
        },
        {
          "duration": 0.12903233333332764,
          "durationTicks": 32,
          "midi": 77,
          "name": "F5",
          "ticks": 16160,
          "time": 65.16132833333333,
          "velocity": 0.7874015748031497
        },
        {
          "duration": 0.12903233333334185,
          "durationTicks": 32,
          "midi": 74,
          "name": "D5",
          "ticks": 16192,
          "time": 65.29036066666666,
          "velocity": 0.7874015748031497
        },
        {
          "duration": 0.12903233333332764,
          "durationTicks": 32,
          "midi": 81,
          "name": "A5",
          "ticks": 16224,
          "time": 65.419393,
          "velocity": 0.7874015748031497
        },
        {
          "duration": 0.12903233333332764,
          "durationTicks": 32,
          "midi": 77,
          "name": "F5",
          "ticks": 16256,
          "time": 65.54842533333333,
          "velocity": 0.7874015748031497
        },
        {
          "duration": 0.12903233333334185,
          "durationTicks": 32,
          "midi": 74,
          "name": "D5",
          "ticks": 16288,
          "time": 65.67745766666665,
          "velocity": 0.7874015748031497
        },
        {
          "duration": 0.12903233333334185,
          "durationTicks": 32,
          "midi": 79,
          "name": "G5",
          "ticks": 16320,
          "time": 65.80649,
          "velocity": 0.7874015748031497
        },
        {
          "duration": 0.12903233333331343,
          "durationTicks": 32,
          "midi": 76,
          "name": "E5",
          "ticks": 16352,
          "time": 65.93552233333334,
          "velocity": 0.7874015748031497
        },
        {
          "duration": 0.12903233333334185,
          "durationTicks": 32,
          "midi": 72,
          "name": "C5",
          "ticks": 16384,
          "time": 66.06455466666665,
          "velocity": 0.7874015748031497
        },
        {
          "duration": 0.12903233333334185,
          "durationTicks": 32,
          "midi": 79,
          "name": "G5",
          "ticks": 16416,
          "time": 66.193587,
          "velocity": 0.7874015748031497
        },
        {
          "duration": 0.12903233333332764,
          "durationTicks": 32,
          "midi": 76,
          "name": "E5",
          "ticks": 16448,
          "time": 66.32261933333334,
          "velocity": 0.7874015748031497
        },
        {
          "duration": 0.12903233333332764,
          "durationTicks": 32,
          "midi": 72,
          "name": "C5",
          "ticks": 16480,
          "time": 66.45165166666666,
          "velocity": 0.7874015748031497
        },
        {
          "duration": 0.12903233333334185,
          "durationTicks": 32,
          "midi": 77,
          "name": "F5",
          "ticks": 16512,
          "time": 66.58068399999999,
          "velocity": 0.7874015748031497
        },
        {
          "duration": 0.12903233333332764,
          "durationTicks": 32,
          "midi": 74,
          "name": "D5",
          "ticks": 16544,
          "time": 66.70971633333333,
          "velocity": 0.7874015748031497
        },
        {
          "duration": 0.12903233333332764,
          "durationTicks": 32,
          "midi": 69,
          "name": "A4",
          "ticks": 16576,
          "time": 66.83874866666666,
          "velocity": 0.7874015748031497
        },
        {
          "duration": 0.12903233333334185,
          "durationTicks": 32,
          "midi": 76,
          "name": "E5",
          "ticks": 16608,
          "time": 66.96778099999999,
          "velocity": 0.7874015748031497
        },
        {
          "duration": 0.12903233333332764,
          "durationTicks": 32,
          "midi": 77,
          "name": "F5",
          "ticks": 16640,
          "time": 67.09681333333333,
          "velocity": 0.7874015748031497
        },
        {
          "duration": 0.12903233333334185,
          "durationTicks": 32,
          "midi": 79,
          "name": "G5",
          "ticks": 16672,
          "time": 67.22584566666666,
          "velocity": 0.7874015748031497
        },
        {
          "duration": 0.12903233333332764,
          "durationTicks": 32,
          "midi": 74,
          "name": "D5",
          "ticks": 16704,
          "time": 67.354878,
          "velocity": 0.7874015748031497
        },
        {
          "duration": 0.12903233333332764,
          "durationTicks": 32,
          "midi": 69,
          "name": "A4",
          "ticks": 16704,
          "time": 67.354878,
          "velocity": 0.7874015748031497
        },
        {
          "duration": 0.12903233333331343,
          "durationTicks": 32,
          "midi": 69,
          "name": "A4",
          "ticks": 16832,
          "time": 67.87100733333334,
          "velocity": 0.7874015748031497
        },
        {
          "duration": 0.12903233333334185,
          "durationTicks": 32,
          "midi": 72,
          "name": "C5",
          "ticks": 16864,
          "time": 68.00003966666665,
          "velocity": 0.7874015748031497
        },
        {
          "duration": 0.12903233333334185,
          "durationTicks": 32,
          "midi": 74,
          "name": "D5",
          "ticks": 16896,
          "time": 68.129072,
          "velocity": 0.7874015748031497
        },
        {
          "duration": 0.12903233333332764,
          "durationTicks": 32,
          "midi": 70,
          "name": "A#4",
          "ticks": 16928,
          "time": 68.25810433333334,
          "velocity": 0.7874015748031497
        },
        {
          "duration": 0.12903233333332764,
          "durationTicks": 32,
          "midi": 65,
          "name": "F4",
          "ticks": 16960,
          "time": 68.38713666666666,
          "velocity": 0.7874015748031497
        },
        {
          "duration": 0.12903233333334185,
          "durationTicks": 32,
          "midi": 74,
          "name": "D5",
          "ticks": 16992,
          "time": 68.51616899999999,
          "velocity": 0.7874015748031497
        },
        {
          "duration": 0.12903233333332764,
          "durationTicks": 32,
          "midi": 70,
          "name": "A#4",
          "ticks": 17024,
          "time": 68.64520133333333,
          "velocity": 0.7874015748031497
        },
        {
          "duration": 0.12903233333332764,
          "durationTicks": 32,
          "midi": 65,
          "name": "F4",
          "ticks": 17056,
          "time": 68.77423366666666,
          "velocity": 0.7874015748031497
        },
        {
          "duration": 0.12903233333334185,
          "durationTicks": 32,
          "midi": 76,
          "name": "E5",
          "ticks": 17088,
          "time": 68.90326599999999,
          "velocity": 0.7874015748031497
        },
        {
          "duration": 0.12903233333332764,
          "durationTicks": 32,
          "midi": 72,
          "name": "C5",
          "ticks": 17120,
          "time": 69.03229833333333,
          "velocity": 0.7874015748031497
        },
        {
          "duration": 0.12903233333334185,
          "durationTicks": 32,
          "midi": 67,
          "name": "G4",
          "ticks": 17152,
          "time": 69.16133066666666,
          "velocity": 0.7874015748031497
        },
        {
          "duration": 0.12903233333332764,
          "durationTicks": 32,
          "midi": 76,
          "name": "E5",
          "ticks": 17184,
          "time": 69.290363,
          "velocity": 0.7874015748031497
        },
        {
          "duration": 0.12903233333332764,
          "durationTicks": 32,
          "midi": 72,
          "name": "C5",
          "ticks": 17216,
          "time": 69.41939533333333,
          "velocity": 0.7874015748031497
        },
        {
          "duration": 0.12903233333334185,
          "durationTicks": 32,
          "midi": 67,
          "name": "G4",
          "ticks": 17248,
          "time": 69.54842766666665,
          "velocity": 0.7874015748031497
        },
        {
          "duration": 0.12903233333334185,
          "durationTicks": 32,
          "midi": 76,
          "name": "E5",
          "ticks": 17280,
          "time": 69.67746,
          "velocity": 0.7874015748031497
        },
        {
          "duration": 0.12903233333331343,
          "durationTicks": 32,
          "midi": 73,
          "name": "C#5",
          "ticks": 17312,
          "time": 69.80649233333334,
          "velocity": 0.7874015748031497
        },
        {
          "duration": 0.12903233333334185,
          "durationTicks": 32,
          "midi": 69,
          "name": "A4",
          "ticks": 17344,
          "time": 69.93552466666665,
          "velocity": 0.7874015748031497
        },
        {
          "duration": 0.12903233333334185,
          "durationTicks": 32,
          "midi": 76,
          "name": "E5",
          "ticks": 17376,
          "time": 70.064557,
          "velocity": 0.7874015748031497
        },
        {
          "duration": 0.12903233333332764,
          "durationTicks": 32,
          "midi": 73,
          "name": "C#5",
          "ticks": 17408,
          "time": 70.19358933333334,
          "velocity": 0.7874015748031497
        },
        {
          "duration": 0.12903233333332764,
          "durationTicks": 32,
          "midi": 69,
          "name": "A4",
          "ticks": 17440,
          "time": 70.32262166666666,
          "velocity": 0.7874015748031497
        },
        {
          "duration": 0.12903233333334185,
          "durationTicks": 32,
          "midi": 81,
          "name": "A5",
          "ticks": 17472,
          "time": 70.45165399999999,
          "velocity": 0.7874015748031497
        },
        {
          "duration": 0.12903233333334185,
          "durationTicks": 32,
          "midi": 79,
          "name": "G5",
          "ticks": 17472,
          "time": 70.45165399999999,
          "velocity": 0.7874015748031497
        },
        {
          "duration": 0.12903233333334185,
          "durationTicks": 32,
          "midi": 81,
          "name": "A5",
          "ticks": 17544,
          "time": 70.74197674999999,
          "velocity": 0.7874015748031497
        },
        {
          "duration": 0.12903233333334185,
          "durationTicks": 32,
          "midi": 79,
          "name": "G5",
          "ticks": 17544,
          "time": 70.74197674999999,
          "velocity": 0.7874015748031497
        },
        {
          "duration": 0.12903233333334185,
          "durationTicks": 32,
          "midi": 81,
          "name": "A5",
          "ticks": 17616,
          "time": 71.0322995,
          "velocity": 0.7874015748031497
        },
        {
          "duration": 0.12903233333334185,
          "durationTicks": 32,
          "midi": 79,
          "name": "G5",
          "ticks": 17616,
          "time": 71.0322995,
          "velocity": 0.7874015748031497
        },
        {
          "duration": 0.19354850000000567,
          "durationTicks": 48,
          "midi": 65,
          "name": "F4",
          "ticks": 20736,
          "time": 83.61295199999999,
          "velocity": 0.7874015748031497
        },
        {
          "duration": 0.19354850000000567,
          "durationTicks": 48,
          "midi": 61,
          "name": "C#4",
          "ticks": 20832,
          "time": 84.00004899999999,
          "velocity": 0.7874015748031497
        },
        {
          "duration": 0.19354850000000567,
          "durationTicks": 48,
          "midi": 64,
          "name": "E4",
          "ticks": 20928,
          "time": 84.38714599999999,
          "velocity": 0.7874015748031497
        },
        {
          "duration": 0.19354849999999146,
          "durationTicks": 48,
          "midi": 60,
          "name": "C4",
          "ticks": 21024,
          "time": 84.774243,
          "velocity": 0.7874015748031497
        },
        {
          "duration": 0.19354849999999146,
          "durationTicks": 48,
          "midi": 67,
          "name": "G4",
          "ticks": 21120,
          "time": 85.16134,
          "velocity": 0.7874015748031497
        },
        {
          "duration": 0.19354850000000567,
          "durationTicks": 48,
          "midi": 64,
          "name": "E4",
          "ticks": 21216,
          "time": 85.54843699999999,
          "velocity": 0.7874015748031497
        },
        {
          "duration": 0.19354850000000567,
          "durationTicks": 48,
          "midi": 63,
          "name": "D#4",
          "ticks": 21312,
          "time": 85.93553399999999,
          "velocity": 0.7874015748031497
        },
        {
          "duration": 0.19354850000000567,
          "durationTicks": 48,
          "midi": 66,
          "name": "F#4",
          "ticks": 21408,
          "time": 86.32263099999999,
          "velocity": 0.7874015748031497
        },
        {
          "duration": 0.19354849999999146,
          "durationTicks": 48,
          "midi": 65,
          "name": "F4",
          "ticks": 21504,
          "time": 86.709728,
          "velocity": 0.7874015748031497
        },
        {
          "duration": 0.19354849999999146,
          "durationTicks": 48,
          "midi": 61,
          "name": "C#4",
          "ticks": 21600,
          "time": 87.096825,
          "velocity": 0.7874015748031497
        },
        {
          "duration": 0.19354850000000567,
          "durationTicks": 48,
          "midi": 64,
          "name": "E4",
          "ticks": 21696,
          "time": 87.48392199999999,
          "velocity": 0.7874015748031497
        },
        {
          "duration": 0.19354850000000567,
          "durationTicks": 48,
          "midi": 60,
          "name": "C4",
          "ticks": 21792,
          "time": 87.87101899999999,
          "velocity": 0.7874015748031497
        },
        {
          "duration": 0.19354850000000567,
          "durationTicks": 48,
          "midi": 67,
          "name": "G4",
          "ticks": 21888,
          "time": 88.25811599999999,
          "velocity": 0.7874015748031497
        },
        {
          "duration": 0.19354849999999146,
          "durationTicks": 48,
          "midi": 64,
          "name": "E4",
          "ticks": 21984,
          "time": 88.645213,
          "velocity": 0.7874015748031497
        },
        {
          "duration": 0.7741939999999943,
          "durationTicks": 192,
          "midi": 63,
          "name": "D#4",
          "ticks": 22080,
          "time": 89.03231,
          "velocity": 0.7874015748031497
        },
        {
          "duration": 0.19354850000000567,
          "durationTicks": 48,
          "midi": 65,
          "name": "F4",
          "ticks": 22272,
          "time": 89.80650399999999,
          "velocity": 0.7874015748031497
        },
        {
          "duration": 0.19354850000000567,
          "durationTicks": 48,
          "midi": 61,
          "name": "C#4",
          "ticks": 22368,
          "time": 90.19360099999999,
          "velocity": 0.7874015748031497
        },
        {
          "duration": 0.19354849999999146,
          "durationTicks": 48,
          "midi": 64,
          "name": "E4",
          "ticks": 22464,
          "time": 90.580698,
          "velocity": 0.7874015748031497
        },
        {
          "duration": 0.19354849999999146,
          "durationTicks": 48,
          "midi": 60,
          "name": "C4",
          "ticks": 22560,
          "time": 90.967795,
          "velocity": 0.7874015748031497
        },
        {
          "duration": 0.19354850000000567,
          "durationTicks": 48,
          "midi": 67,
          "name": "G4",
          "ticks": 22656,
          "time": 91.35489199999999,
          "velocity": 0.7874015748031497
        },
        {
          "duration": 0.19354850000000567,
          "durationTicks": 48,
          "midi": 64,
          "name": "E4",
          "ticks": 22752,
          "time": 91.74198899999999,
          "velocity": 0.7874015748031497
        },
        {
          "duration": 0.19354850000000567,
          "durationTicks": 48,
          "midi": 63,
          "name": "D#4",
          "ticks": 22848,
          "time": 92.12908599999999,
          "velocity": 0.7874015748031497
        },
        {
          "duration": 0.19354849999999146,
          "durationTicks": 48,
          "midi": 66,
          "name": "F#4",
          "ticks": 22944,
          "time": 92.516183,
          "velocity": 0.7874015748031497
        },
        {
          "duration": 0.19354849999999146,
          "durationTicks": 48,
          "midi": 65,
          "name": "F4",
          "ticks": 23040,
          "time": 92.90328,
          "velocity": 0.7874015748031497
        },
        {
          "duration": 0.19354850000000567,
          "durationTicks": 48,
          "midi": 61,
          "name": "C#4",
          "ticks": 23136,
          "time": 93.29037699999999,
          "velocity": 0.7874015748031497
        },
        {
          "duration": 0.19354850000000567,
          "durationTicks": 48,
          "midi": 64,
          "name": "E4",
          "ticks": 23232,
          "time": 93.67747399999999,
          "velocity": 0.7874015748031497
        },
        {
          "duration": 0.19354850000000567,
          "durationTicks": 48,
          "midi": 60,
          "name": "C4",
          "ticks": 23328,
          "time": 94.06457099999999,
          "velocity": 0.7874015748031497
        },
        {
          "duration": 0.19354849999999146,
          "durationTicks": 48,
          "midi": 79,
          "name": "G5",
          "ticks": 23424,
          "time": 94.451668,
          "velocity": 0.7874015748031497
        },
        {
          "duration": 0.19354849999999146,
          "durationTicks": 48,
          "midi": 76,
          "name": "E5",
          "ticks": 23520,
          "time": 94.838765,
          "velocity": 0.7874015748031497
        },
        {
          "duration": 0.7741939999999943,
          "durationTicks": 192,
          "midi": 75,
          "name": "D#5",
          "ticks": 23616,
          "time": 95.22586199999999,
          "velocity": 0.7874015748031497
        }
      ]
    },
    {
      "channel": 0,
      "controlChanges": {
        "6": [
          {
            "number": 6,
            "ticks": 0,
            "time": 0,
            "value": 0.09448818897637795
          }
        ],
        "7": [
          {
            "number": 7,
            "ticks": 0,
            "time": 0,
            "value": 1
          },
          {
            "number": 7,
            "ticks": 0,
            "time": 0,
            "value": 1
          }
        ],
        "10": [
          {
            "number": 10,
            "ticks": 0,
            "time": 0,
            "value": 0.5039370078740157
          },
          {
            "number": 10,
            "ticks": 0,
            "time": 0,
            "value": 0.5039370078740157
          }
        ],
        "100": [
          {
            "number": 100,
            "ticks": 0,
            "time": 0,
            "value": 0
          }
        ],
        "101": [
          {
            "number": 101,
            "ticks": 0,
            "time": 0,
            "value": 0
          }
        ]
      },
      "pitchBends": [
        {
          "ticks": 0,
          "time": 0,
          "value": 0
        },
        {
          "ticks": 0,
          "time": 0,
          "value": 0
        }
      ],
      "instrument": {
        "family": "piano",
        "name": "acoustic grand piano",
        "number": 0
      },
      "name": "Celesta",
      "notes": []
    },
    {
      "channel": 5,
      "controlChanges": {
        "6": [
          {
            "number": 6,
            "ticks": 0,
            "time": 0,
            "value": 0.09448818897637795
          },
          {
            "number": 6,
            "ticks": 0,
            "time": 0,
            "value": 0.09448818897637795
          },
          {
            "number": 6,
            "ticks": 30336,
            "time": 122.32265199999999,
            "value": 0.09448818897637795
          },
          {
            "number": 6,
            "ticks": 30336,
            "time": 122.32265199999999,
            "value": 0.09448818897637795
          },
          {
            "number": 6,
            "ticks": 30336,
            "time": 122.32265199999999,
            "value": 0.09448818897637795
          }
        ],
        "7": [
          {
            "number": 7,
            "ticks": 0,
            "time": 0,
            "value": 1
          },
          {
            "number": 7,
            "ticks": 0,
            "time": 0,
            "value": 1
          },
          {
            "number": 7,
            "ticks": 30336,
            "time": 122.32265199999999,
            "value": 1
          },
          {
            "number": 7,
            "ticks": 30336,
            "time": 122.32265199999999,
            "value": 1
          },
          {
            "number": 7,
            "ticks": 30336,
            "time": 122.32265199999999,
            "value": 1
          }
        ],
        "10": [
          {
            "number": 10,
            "ticks": 0,
            "time": 0,
            "value": 0.5039370078740157
          },
          {
            "number": 10,
            "ticks": 0,
            "time": 0,
            "value": 0.5039370078740157
          },
          {
            "number": 10,
            "ticks": 30336,
            "time": 122.32265199999999,
            "value": 0.5039370078740157
          },
          {
            "number": 10,
            "ticks": 30336,
            "time": 122.32265199999999,
            "value": 0.5039370078740157
          },
          {
            "number": 10,
            "ticks": 30336,
            "time": 122.32265199999999,
            "value": 0.5039370078740157
          }
        ],
        "100": [
          {
            "number": 100,
            "ticks": 0,
            "time": 0,
            "value": 0
          },
          {
            "number": 100,
            "ticks": 0,
            "time": 0,
            "value": 0
          },
          {
            "number": 100,
            "ticks": 30336,
            "time": 122.32265199999999,
            "value": 0
          },
          {
            "number": 100,
            "ticks": 30336,
            "time": 122.32265199999999,
            "value": 0
          },
          {
            "number": 100,
            "ticks": 30336,
            "time": 122.32265199999999,
            "value": 0
          }
        ],
        "101": [
          {
            "number": 101,
            "ticks": 0,
            "time": 0,
            "value": 0
          },
          {
            "number": 101,
            "ticks": 0,
            "time": 0,
            "value": 0
          },
          {
            "number": 101,
            "ticks": 30336,
            "time": 122.32265199999999,
            "value": 0
          },
          {
            "number": 101,
            "ticks": 30336,
            "time": 122.32265199999999,
            "value": 0
          },
          {
            "number": 101,
            "ticks": 30336,
            "time": 122.32265199999999,
            "value": 0
          }
        ]
      },
      "pitchBends": [
        {
          "ticks": 0,
          "time": 0,
          "value": 0
        },
        {
          "ticks": 0,
          "time": 0,
          "value": 0
        },
        {
          "ticks": 30336,
          "time": 122.32265199999999,
          "value": 0
        },
        {
          "ticks": 30336,
          "time": 122.32265199999999,
          "value": 0
        },
        {
          "ticks": 30336,
          "time": 122.32265199999999,
          "value": 0
        }
      ],
      "instrument": {
        "family": "chromatic percussion",
        "name": "celesta",
        "number": 8
      },
      "name": "",
      "notes": [
        {
          "duration": 0.19354850000000035,
          "durationTicks": 48,
          "midi": 77,
          "name": "F5",
          "ticks": 3840,
          "time": 15.48388,
          "velocity": 0.7874015748031497
        },
        {
          "duration": 0.19354850000000035,
          "durationTicks": 48,
          "midi": 73,
          "name": "C#5",
          "ticks": 3936,
          "time": 15.870976999999998,
          "velocity": 0.7874015748031497
        },
        {
          "duration": 0.19354850000000212,
          "durationTicks": 48,
          "midi": 76,
          "name": "E5",
          "ticks": 4032,
          "time": 16.258073999999997,
          "velocity": 0.7874015748031497
        },
        {
          "duration": 0.19354850000000212,
          "durationTicks": 48,
          "midi": 72,
          "name": "C5",
          "ticks": 4128,
          "time": 16.645170999999998,
          "velocity": 0.7874015748031497
        },
        {
          "duration": 0.19354849999999857,
          "durationTicks": 48,
          "midi": 79,
          "name": "G5",
          "ticks": 4224,
          "time": 17.032268,
          "velocity": 0.7874015748031497
        },
        {
          "duration": 0.19354849999999857,
          "durationTicks": 48,
          "midi": 76,
          "name": "E5",
          "ticks": 4320,
          "time": 17.419365,
          "velocity": 0.7874015748031497
        },
        {
          "duration": 0.19354849999999857,
          "durationTicks": 48,
          "midi": 75,
          "name": "D#5",
          "ticks": 4416,
          "time": 17.806462,
          "velocity": 0.7874015748031497
        },
        {
          "duration": 0.19354850000000212,
          "durationTicks": 48,
          "midi": 78,
          "name": "F#5",
          "ticks": 4512,
          "time": 18.193558999999997,
          "velocity": 0.7874015748031497
        },
        {
          "duration": 0.19354850000000212,
          "durationTicks": 48,
          "midi": 77,
          "name": "F5",
          "ticks": 4608,
          "time": 18.580655999999998,
          "velocity": 0.7874015748031497
        },
        {
          "duration": 0.19354849999999857,
          "durationTicks": 48,
          "midi": 73,
          "name": "C#5",
          "ticks": 4704,
          "time": 18.967753,
          "velocity": 0.7874015748031497
        },
        {
          "duration": 0.19354849999999857,
          "durationTicks": 48,
          "midi": 76,
          "name": "E5",
          "ticks": 4800,
          "time": 19.35485,
          "velocity": 0.7874015748031497
        },
        {
          "duration": 0.19354849999999857,
          "durationTicks": 48,
          "midi": 72,
          "name": "C5",
          "ticks": 4896,
          "time": 19.741947,
          "velocity": 0.7874015748031497
        },
        {
          "duration": 0.19354850000000212,
          "durationTicks": 48,
          "midi": 79,
          "name": "G5",
          "ticks": 4992,
          "time": 20.129043999999997,
          "velocity": 0.7874015748031497
        },
        {
          "duration": 0.19354850000000212,
          "durationTicks": 48,
          "midi": 76,
          "name": "E5",
          "ticks": 5088,
          "time": 20.516140999999998,
          "velocity": 0.7874015748031497
        },
        {
          "duration": 0.7741940000000014,
          "durationTicks": 192,
          "midi": 75,
          "name": "D#5",
          "ticks": 5184,
          "time": 20.903237999999998,
          "velocity": 0.7874015748031497
        },
        {
          "duration": 0.19354849999999857,
          "durationTicks": 48,
          "midi": 77,
          "name": "F5",
          "ticks": 5376,
          "time": 21.677432,
          "velocity": 0.7874015748031497
        },
        {
          "duration": 0.19354850000000212,
          "durationTicks": 48,
          "midi": 73,
          "name": "C#5",
          "ticks": 5472,
          "time": 22.064528999999997,
          "velocity": 0.7874015748031497
        },
        {
          "duration": 0.19354850000000212,
          "durationTicks": 48,
          "midi": 76,
          "name": "E5",
          "ticks": 5568,
          "time": 22.451625999999997,
          "velocity": 0.7874015748031497
        },
        {
          "duration": 0.19354849999999857,
          "durationTicks": 48,
          "midi": 72,
          "name": "C5",
          "ticks": 5664,
          "time": 22.838722999999998,
          "velocity": 0.7874015748031497
        },
        {
          "duration": 0.19354849999999857,
          "durationTicks": 48,
          "midi": 79,
          "name": "G5",
          "ticks": 5760,
          "time": 23.22582,
          "velocity": 0.7874015748031497
        },
        {
          "duration": 0.19354849999999857,
          "durationTicks": 48,
          "midi": 76,
          "name": "E5",
          "ticks": 5856,
          "time": 23.612917,
          "velocity": 0.7874015748031497
        },
        {
          "duration": 0.19354850000000212,
          "durationTicks": 48,
          "midi": 75,
          "name": "D#5",
          "ticks": 5952,
          "time": 24.000013999999997,
          "velocity": 0.7874015748031497
        },
        {
          "duration": 0.19354850000000212,
          "durationTicks": 48,
          "midi": 78,
          "name": "F#5",
          "ticks": 6048,
          "time": 24.387110999999997,
          "velocity": 0.7874015748031497
        },
        {
          "duration": 0.19354849999999857,
          "durationTicks": 48,
          "midi": 77,
          "name": "F5",
          "ticks": 6144,
          "time": 24.774207999999998,
          "velocity": 0.7874015748031497
        },
        {
          "duration": 0.19354849999999857,
          "durationTicks": 48,
          "midi": 73,
          "name": "C#5",
          "ticks": 6240,
          "time": 25.161305,
          "velocity": 0.7874015748031497
        },
        {
          "duration": 0.19354849999999857,
          "durationTicks": 48,
          "midi": 76,
          "name": "E5",
          "ticks": 6336,
          "time": 25.548402,
          "velocity": 0.7874015748031497
        },
        {
          "duration": 0.19354850000000212,
          "durationTicks": 48,
          "midi": 72,
          "name": "C5",
          "ticks": 6432,
          "time": 25.935498999999997,
          "velocity": 0.7874015748031497
        },
        {
          "duration": 0.19354850000000212,
          "durationTicks": 48,
          "midi": 91,
          "name": "G6",
          "ticks": 6528,
          "time": 26.322595999999997,
          "velocity": 0.7874015748031497
        },
        {
          "duration": 0.19354849999999857,
          "durationTicks": 48,
          "midi": 88,
          "name": "E6",
          "ticks": 6624,
          "time": 26.709692999999998,
          "velocity": 0.7874015748031497
        },
        {
          "duration": 0.7741939999999978,
          "durationTicks": 192,
          "midi": 87,
          "name": "D#6",
          "ticks": 6720,
          "time": 27.09679,
          "velocity": 0.7874015748031497
        },
        {
          "duration": 0.12903233333334185,
          "durationTicks": 32,
          "midi": 94,
          "name": "A#6",
          "ticks": 13056,
          "time": 52.645191999999994,
          "velocity": 0.7874015748031497
        },
        {
          "duration": 0.12903233333332054,
          "durationTicks": 32,
          "midi": 89,
          "name": "F6",
          "ticks": 13088,
          "time": 52.774224333333336,
          "velocity": 0.7874015748031497
        },
        {
          "duration": 0.12903233333334185,
          "durationTicks": 32,
          "midi": 87,
          "name": "D#6",
          "ticks": 13120,
          "time": 52.90325666666666,
          "velocity": 0.7874015748031497
        },
        {
          "duration": 0.12903233333333475,
          "durationTicks": 32,
          "midi": 94,
          "name": "A#6",
          "ticks": 13152,
          "time": 53.032289,
          "velocity": 0.7874015748031497
        },
        {
          "duration": 0.12903233333332764,
          "durationTicks": 32,
          "midi": 89,
          "name": "F6",
          "ticks": 13184,
          "time": 53.16132133333333,
          "velocity": 0.7874015748031497
        },
        {
          "duration": 0.12903233333333475,
          "durationTicks": 32,
          "midi": 87,
          "name": "D#6",
          "ticks": 13216,
          "time": 53.29035366666666,
          "velocity": 0.7874015748031497
        },
        {
          "duration": 0.12903233333333475,
          "durationTicks": 32,
          "midi": 94,
          "name": "A#6",
          "ticks": 13248,
          "time": 53.419385999999996,
          "velocity": 0.7874015748031497
        },
        {
          "duration": 0.12903233333332764,
          "durationTicks": 32,
          "midi": 89,
          "name": "F6",
          "ticks": 13280,
          "time": 53.54841833333333,
          "velocity": 0.7874015748031497
        },
        {
          "duration": 0.12903233333333475,
          "durationTicks": 32,
          "midi": 87,
          "name": "D#6",
          "ticks": 13312,
          "time": 53.67745066666666,
          "velocity": 0.7874015748031497
        },
        {
          "duration": 0.12903233333334185,
          "durationTicks": 32,
          "midi": 94,
          "name": "A#6",
          "ticks": 13344,
          "time": 53.80648299999999,
          "velocity": 0.7874015748031497
        },
        {
          "duration": 0.12903233333332054,
          "durationTicks": 32,
          "midi": 89,
          "name": "F6",
          "ticks": 13376,
          "time": 53.935515333333335,
          "velocity": 0.7874015748031497
        },
        {
          "duration": 0.12903233333334185,
          "durationTicks": 32,
          "midi": 87,
          "name": "D#6",
          "ticks": 13408,
          "time": 54.064547666666655,
          "velocity": 0.7874015748031497
        },
        {
          "duration": 0.12903233333333475,
          "durationTicks": 32,
          "midi": 94,
          "name": "A#6",
          "ticks": 13440,
          "time": 54.19358,
          "velocity": 0.7874015748031497
        },
        {
          "duration": 0.12903233333332764,
          "durationTicks": 32,
          "midi": 89,
          "name": "F6",
          "ticks": 13472,
          "time": 54.32261233333333,
          "velocity": 0.7874015748031497
        },
        {
          "duration": 0.12903233333333475,
          "durationTicks": 32,
          "midi": 87,
          "name": "D#6",
          "ticks": 13504,
          "time": 54.45164466666666,
          "velocity": 0.7874015748031497
        },
        {
          "duration": 0.12903233333333475,
          "durationTicks": 32,
          "midi": 94,
          "name": "A#6",
          "ticks": 13536,
          "time": 54.580676999999994,
          "velocity": 0.7874015748031497
        },
        {
          "duration": 0.12903233333332764,
          "durationTicks": 32,
          "midi": 89,
          "name": "F6",
          "ticks": 13568,
          "time": 54.70970933333333,
          "velocity": 0.7874015748031497
        },
        {
          "duration": 0.12903233333334185,
          "durationTicks": 32,
          "midi": 87,
          "name": "D#6",
          "ticks": 13600,
          "time": 54.83874166666666,
          "velocity": 0.7874015748031497
        },
        {
          "duration": 0.12903233333333475,
          "durationTicks": 32,
          "midi": 94,
          "name": "A#6",
          "ticks": 13632,
          "time": 54.967774,
          "velocity": 0.7874015748031497
        },
        {
          "duration": 0.12903233333332764,
          "durationTicks": 32,
          "midi": 89,
          "name": "F6",
          "ticks": 13664,
          "time": 55.09680633333333,
          "velocity": 0.7874015748031497
        },
        {
          "duration": 0.12903233333333475,
          "durationTicks": 32,
          "midi": 87,
          "name": "D#6",
          "ticks": 13696,
          "time": 55.22583866666666,
          "velocity": 0.7874015748031497
        },
        {
          "duration": 0.12903233333333475,
          "durationTicks": 32,
          "midi": 94,
          "name": "A#6",
          "ticks": 13728,
          "time": 55.354870999999996,
          "velocity": 0.7874015748031497
        },
        {
          "duration": 0.12903233333332764,
          "durationTicks": 32,
          "midi": 89,
          "name": "F6",
          "ticks": 13760,
          "time": 55.48390333333333,
          "velocity": 0.7874015748031497
        },
        {
          "duration": 0.12903233333333475,
          "durationTicks": 32,
          "midi": 87,
          "name": "D#6",
          "ticks": 13792,
          "time": 55.61293566666666,
          "velocity": 0.7874015748031497
        },
        {
          "duration": 0.12903233333334185,
          "durationTicks": 32,
          "midi": 93,
          "name": "A6",
          "ticks": 13824,
          "time": 55.74196799999999,
          "velocity": 0.7874015748031497
        },
        {
          "duration": 0.12903233333332054,
          "durationTicks": 32,
          "midi": 89,
          "name": "F6",
          "ticks": 13856,
          "time": 55.871000333333335,
          "velocity": 0.7874015748031497
        },
        {
          "duration": 0.12903233333334185,
          "durationTicks": 32,
          "midi": 86,
          "name": "D6",
          "ticks": 13888,
          "time": 56.000032666666655,
          "velocity": 0.7874015748031497
        },
        {
          "duration": 0.12903233333333475,
          "durationTicks": 32,
          "midi": 93,
          "name": "A6",
          "ticks": 13920,
          "time": 56.129065,
          "velocity": 0.7874015748031497
        },
        {
          "duration": 0.12903233333332764,
          "durationTicks": 32,
          "midi": 89,
          "name": "F6",
          "ticks": 13952,
          "time": 56.25809733333333,
          "velocity": 0.7874015748031497
        },
        {
          "duration": 0.12903233333333475,
          "durationTicks": 32,
          "midi": 86,
          "name": "D6",
          "ticks": 13984,
          "time": 56.38712966666666,
          "velocity": 0.7874015748031497
        },
        {
          "duration": 0.12903233333333475,
          "durationTicks": 32,
          "midi": 93,
          "name": "A6",
          "ticks": 14016,
          "time": 56.516161999999994,
          "velocity": 0.7874015748031497
        },
        {
          "duration": 0.12903233333332764,
          "durationTicks": 32,
          "midi": 89,
          "name": "F6",
          "ticks": 14048,
          "time": 56.64519433333333,
          "velocity": 0.7874015748031497
        },
        {
          "duration": 0.12903233333334185,
          "durationTicks": 32,
          "midi": 86,
          "name": "D6",
          "ticks": 14080,
          "time": 56.77422666666666,
          "velocity": 0.7874015748031497
        },
        {
          "duration": 0.12903233333333475,
          "durationTicks": 32,
          "midi": 93,
          "name": "A6",
          "ticks": 14112,
          "time": 56.903259,
          "velocity": 0.7874015748031497
        },
        {
          "duration": 0.12903233333332764,
          "durationTicks": 32,
          "midi": 89,
          "name": "F6",
          "ticks": 14144,
          "time": 57.03229133333333,
          "velocity": 0.7874015748031497
        },
        {
          "duration": 0.12903233333333475,
          "durationTicks": 32,
          "midi": 86,
          "name": "D6",
          "ticks": 14176,
          "time": 57.16132366666666,
          "velocity": 0.7874015748031497
        },
        {
          "duration": 0.12903233333333475,
          "durationTicks": 32,
          "midi": 93,
          "name": "A6",
          "ticks": 14208,
          "time": 57.290355999999996,
          "velocity": 0.7874015748031497
        },
        {
          "duration": 0.12903233333332764,
          "durationTicks": 32,
          "midi": 89,
          "name": "F6",
          "ticks": 14240,
          "time": 57.41938833333333,
          "velocity": 0.7874015748031497
        },
        {
          "duration": 0.12903233333333475,
          "durationTicks": 32,
          "midi": 86,
          "name": "D6",
          "ticks": 14272,
          "time": 57.54842066666666,
          "velocity": 0.7874015748031497
        },
        {
          "duration": 0.12903233333334185,
          "durationTicks": 32,
          "midi": 93,
          "name": "A6",
          "ticks": 14304,
          "time": 57.67745299999999,
          "velocity": 0.7874015748031497
        },
        {
          "duration": 0.12903233333332054,
          "durationTicks": 32,
          "midi": 89,
          "name": "F6",
          "ticks": 14336,
          "time": 57.806485333333335,
          "velocity": 0.7874015748031497
        },
        {
          "duration": 0.12903233333334185,
          "durationTicks": 32,
          "midi": 86,
          "name": "D6",
          "ticks": 14368,
          "time": 57.935517666666655,
          "velocity": 0.7874015748031497
        },
        {
          "duration": 0.12903233333333475,
          "durationTicks": 32,
          "midi": 93,
          "name": "A6",
          "ticks": 14400,
          "time": 58.06455,
          "velocity": 0.7874015748031497
        },
        {
          "duration": 0.12903233333332764,
          "durationTicks": 32,
          "midi": 89,
          "name": "F6",
          "ticks": 14432,
          "time": 58.19358233333333,
          "velocity": 0.7874015748031497
        },
        {
          "duration": 0.12903233333333475,
          "durationTicks": 32,
          "midi": 86,
          "name": "D6",
          "ticks": 14464,
          "time": 58.32261466666666,
          "velocity": 0.7874015748031497
        },
        {
          "duration": 0.12903233333333475,
          "durationTicks": 32,
          "midi": 93,
          "name": "A6",
          "ticks": 14496,
          "time": 58.451646999999994,
          "velocity": 0.7874015748031497
        },
        {
          "duration": 0.12903233333332764,
          "durationTicks": 32,
          "midi": 89,
          "name": "F6",
          "ticks": 14528,
          "time": 58.58067933333333,
          "velocity": 0.7874015748031497
        },
        {
          "duration": 0.12903233333334185,
          "durationTicks": 32,
          "midi": 86,
          "name": "D6",
          "ticks": 14560,
          "time": 58.70971166666666,
          "velocity": 0.7874015748031497
        },
        {
          "duration": 0.12903233333333475,
          "durationTicks": 32,
          "midi": 93,
          "name": "A6",
          "ticks": 14592,
          "time": 58.838744,
          "velocity": 0.7874015748031497
        },
        {
          "duration": 0.12903233333332764,
          "durationTicks": 32,
          "midi": 89,
          "name": "F6",
          "ticks": 14624,
          "time": 58.96777633333333,
          "velocity": 0.7874015748031497
        },
        {
          "duration": 0.12903233333333475,
          "durationTicks": 32,
          "midi": 86,
          "name": "D6",
          "ticks": 14656,
          "time": 59.09680866666666,
          "velocity": 0.7874015748031497
        },
        {
          "duration": 0.12903233333333475,
          "durationTicks": 32,
          "midi": 93,
          "name": "A6",
          "ticks": 14688,
          "time": 59.225840999999996,
          "velocity": 0.7874015748031497
        },
        {
          "duration": 0.12903233333332764,
          "durationTicks": 32,
          "midi": 89,
          "name": "F6",
          "ticks": 14720,
          "time": 59.35487333333333,
          "velocity": 0.7874015748031497
        },
        {
          "duration": 0.12903233333333475,
          "durationTicks": 32,
          "midi": 86,
          "name": "D6",
          "ticks": 14752,
          "time": 59.48390566666666,
          "velocity": 0.7874015748031497
        },
        {
          "duration": 0.12903233333334185,
          "durationTicks": 32,
          "midi": 91,
          "name": "G6",
          "ticks": 14784,
          "time": 59.61293799999999,
          "velocity": 0.7874015748031497
        },
        {
          "duration": 0.12903233333332054,
          "durationTicks": 32,
          "midi": 88,
          "name": "E6",
          "ticks": 14816,
          "time": 59.741970333333335,
          "velocity": 0.7874015748031497
        },
        {
          "duration": 0.12903233333334185,
          "durationTicks": 32,
          "midi": 84,
          "name": "C6",
          "ticks": 14848,
          "time": 59.871002666666655,
          "velocity": 0.7874015748031497
        },
        {
          "duration": 0.12903233333333475,
          "durationTicks": 32,
          "midi": 91,
          "name": "G6",
          "ticks": 14880,
          "time": 60.000035,
          "velocity": 0.7874015748031497
        },
        {
          "duration": 0.12903233333332764,
          "durationTicks": 32,
          "midi": 88,
          "name": "E6",
          "ticks": 14912,
          "time": 60.12906733333333,
          "velocity": 0.7874015748031497
        },
        {
          "duration": 0.12903233333333475,
          "durationTicks": 32,
          "midi": 84,
          "name": "C6",
          "ticks": 14944,
          "time": 60.25809966666666,
          "velocity": 0.7874015748031497
        },
        {
          "duration": 0.12903233333333475,
          "durationTicks": 32,
          "midi": 89,
          "name": "F6",
          "ticks": 14976,
          "time": 60.387131999999994,
          "velocity": 0.7874015748031497
        },
        {
          "duration": 0.12903233333332764,
          "durationTicks": 32,
          "midi": 86,
          "name": "D6",
          "ticks": 15008,
          "time": 60.51616433333333,
          "velocity": 0.7874015748031497
        },
        {
          "duration": 0.12903233333334185,
          "durationTicks": 32,
          "midi": 81,
          "name": "A5",
          "ticks": 15040,
          "time": 60.645196666666656,
          "velocity": 0.7874015748031497
        },
        {
          "duration": 0.12903233333333475,
          "durationTicks": 32,
          "midi": 88,
          "name": "E6",
          "ticks": 15072,
          "time": 60.774229,
          "velocity": 0.7874015748031497
        },
        {
          "duration": 0.12903233333332764,
          "durationTicks": 32,
          "midi": 89,
          "name": "F6",
          "ticks": 15104,
          "time": 60.90326133333333,
          "velocity": 0.7874015748031497
        },
        {
          "duration": 0.12903233333333475,
          "durationTicks": 32,
          "midi": 91,
          "name": "G6",
          "ticks": 15136,
          "time": 61.03229366666666,
          "velocity": 0.7874015748031497
        },
        {
          "duration": 0.12903233333333475,
          "durationTicks": 32,
          "midi": 86,
          "name": "D6",
          "ticks": 15168,
          "time": 61.161325999999995,
          "velocity": 0.7874015748031497
        },
        {
          "duration": 0.12903233333333475,
          "durationTicks": 32,
          "midi": 81,
          "name": "A5",
          "ticks": 15168,
          "time": 61.161325999999995,
          "velocity": 0.7874015748031497
        },
        {
          "duration": 0.12903233333332054,
          "durationTicks": 32,
          "midi": 81,
          "name": "A5",
          "ticks": 15296,
          "time": 61.677455333333334,
          "velocity": 0.7874015748031497
        },
        {
          "duration": 0.12903233333334185,
          "durationTicks": 32,
          "midi": 84,
          "name": "C6",
          "ticks": 15328,
          "time": 61.806487666666655,
          "velocity": 0.7874015748031497
        },
        {
          "duration": 0.12903233333333475,
          "durationTicks": 32,
          "midi": 86,
          "name": "D6",
          "ticks": 15360,
          "time": 61.93552,
          "velocity": 0.7874015748031497
        },
        {
          "duration": 0.12903233333332764,
          "durationTicks": 32,
          "midi": 82,
          "name": "A#5",
          "ticks": 15392,
          "time": 62.06455233333333,
          "velocity": 0.7874015748031497
        },
        {
          "duration": 0.12903233333333475,
          "durationTicks": 32,
          "midi": 77,
          "name": "F5",
          "ticks": 15424,
          "time": 62.19358466666666,
          "velocity": 0.7874015748031497
        },
        {
          "duration": 0.12903233333333475,
          "durationTicks": 32,
          "midi": 86,
          "name": "D6",
          "ticks": 15456,
          "time": 62.322616999999994,
          "velocity": 0.7874015748031497
        },
        {
          "duration": 0.12903233333332764,
          "durationTicks": 32,
          "midi": 82,
          "name": "A#5",
          "ticks": 15488,
          "time": 62.45164933333333,
          "velocity": 0.7874015748031497
        },
        {
          "duration": 0.12903233333334185,
          "durationTicks": 32,
          "midi": 77,
          "name": "F5",
          "ticks": 15520,
          "time": 62.580681666666656,
          "velocity": 0.7874015748031497
        },
        {
          "duration": 0.12903233333333475,
          "durationTicks": 32,
          "midi": 88,
          "name": "E6",
          "ticks": 15552,
          "time": 62.709714,
          "velocity": 0.7874015748031497
        },
        {
          "duration": 0.12903233333332764,
          "durationTicks": 32,
          "midi": 84,
          "name": "C6",
          "ticks": 15584,
          "time": 62.83874633333333,
          "velocity": 0.7874015748031497
        },
        {
          "duration": 0.12903233333333475,
          "durationTicks": 32,
          "midi": 79,
          "name": "G5",
          "ticks": 15616,
          "time": 62.96777866666666,
          "velocity": 0.7874015748031497
        },
        {
          "duration": 0.12903233333333475,
          "durationTicks": 32,
          "midi": 88,
          "name": "E6",
          "ticks": 15648,
          "time": 63.096810999999995,
          "velocity": 0.7874015748031497
        },
        {
          "duration": 0.12903233333332764,
          "durationTicks": 32,
          "midi": 84,
          "name": "C6",
          "ticks": 15680,
          "time": 63.22584333333333,
          "velocity": 0.7874015748031497
        },
        {
          "duration": 0.12903233333333475,
          "durationTicks": 32,
          "midi": 79,
          "name": "G5",
          "ticks": 15712,
          "time": 63.35487566666666,
          "velocity": 0.7874015748031497
        },
        {
          "duration": 0.12903233333334185,
          "durationTicks": 32,
          "midi": 88,
          "name": "E6",
          "ticks": 15744,
          "time": 63.48390799999999,
          "velocity": 0.7874015748031497
        },
        {
          "duration": 0.12903233333332054,
          "durationTicks": 32,
          "midi": 85,
          "name": "C#6",
          "ticks": 15776,
          "time": 63.612940333333334,
          "velocity": 0.7874015748031497
        },
        {
          "duration": 0.12903233333334185,
          "durationTicks": 32,
          "midi": 81,
          "name": "A5",
          "ticks": 15808,
          "time": 63.741972666666655,
          "velocity": 0.7874015748031497
        },
        {
          "duration": 0.12903233333334185,
          "durationTicks": 32,
          "midi": 88,
          "name": "E6",
          "ticks": 15840,
          "time": 63.871005,
          "velocity": 0.7874015748031497
        },
        {
          "duration": 0.12903233333331343,
          "durationTicks": 32,
          "midi": 89,
          "name": "F6",
          "ticks": 15872,
          "time": 64.00003733333334,
          "velocity": 0.7874015748031497
        },
        {
          "duration": 0.12903233333334185,
          "durationTicks": 32,
          "midi": 91,
          "name": "G6",
          "ticks": 15904,
          "time": 64.12906966666665,
          "velocity": 0.7874015748031497
        },
        {
          "duration": 0.12903233333334185,
          "durationTicks": 32,
          "midi": 89,
          "name": "F6",
          "ticks": 15936,
          "time": 64.258102,
          "velocity": 0.7874015748031497
        },
        {
          "duration": 0.12903233333334185,
          "durationTicks": 32,
          "midi": 93,
          "name": "A6",
          "ticks": 15936,
          "time": 64.258102,
          "velocity": 0.7874015748031497
        },
        {
          "duration": 0.12903233333334185,
          "durationTicks": 32,
          "midi": 93,
          "name": "A6",
          "ticks": 16128,
          "time": 65.03229599999999,
          "velocity": 0.7874015748031497
        },
        {
          "duration": 0.12903233333332764,
          "durationTicks": 32,
          "midi": 89,
          "name": "F6",
          "ticks": 16160,
          "time": 65.16132833333333,
          "velocity": 0.7874015748031497
        },
        {
          "duration": 0.12903233333334185,
          "durationTicks": 32,
          "midi": 86,
          "name": "D6",
          "ticks": 16192,
          "time": 65.29036066666666,
          "velocity": 0.7874015748031497
        },
        {
          "duration": 0.12903233333332764,
          "durationTicks": 32,
          "midi": 93,
          "name": "A6",
          "ticks": 16224,
          "time": 65.419393,
          "velocity": 0.7874015748031497
        },
        {
          "duration": 0.12903233333332764,
          "durationTicks": 32,
          "midi": 89,
          "name": "F6",
          "ticks": 16256,
          "time": 65.54842533333333,
          "velocity": 0.7874015748031497
        },
        {
          "duration": 0.12903233333334185,
          "durationTicks": 32,
          "midi": 86,
          "name": "D6",
          "ticks": 16288,
          "time": 65.67745766666665,
          "velocity": 0.7874015748031497
        },
        {
          "duration": 0.12903233333334185,
          "durationTicks": 32,
          "midi": 91,
          "name": "G6",
          "ticks": 16320,
          "time": 65.80649,
          "velocity": 0.7874015748031497
        },
        {
          "duration": 0.12903233333331343,
          "durationTicks": 32,
          "midi": 88,
          "name": "E6",
          "ticks": 16352,
          "time": 65.93552233333334,
          "velocity": 0.7874015748031497
        },
        {
          "duration": 0.12903233333334185,
          "durationTicks": 32,
          "midi": 84,
          "name": "C6",
          "ticks": 16384,
          "time": 66.06455466666665,
          "velocity": 0.7874015748031497
        },
        {
          "duration": 0.12903233333334185,
          "durationTicks": 32,
          "midi": 91,
          "name": "G6",
          "ticks": 16416,
          "time": 66.193587,
          "velocity": 0.7874015748031497
        },
        {
          "duration": 0.12903233333332764,
          "durationTicks": 32,
          "midi": 88,
          "name": "E6",
          "ticks": 16448,
          "time": 66.32261933333334,
          "velocity": 0.7874015748031497
        },
        {
          "duration": 0.12903233333332764,
          "durationTicks": 32,
          "midi": 84,
          "name": "C6",
          "ticks": 16480,
          "time": 66.45165166666666,
          "velocity": 0.7874015748031497
        },
        {
          "duration": 0.12903233333334185,
          "durationTicks": 32,
          "midi": 89,
          "name": "F6",
          "ticks": 16512,
          "time": 66.58068399999999,
          "velocity": 0.7874015748031497
        },
        {
          "duration": 0.12903233333332764,
          "durationTicks": 32,
          "midi": 86,
          "name": "D6",
          "ticks": 16544,
          "time": 66.70971633333333,
          "velocity": 0.7874015748031497
        },
        {
          "duration": 0.12903233333332764,
          "durationTicks": 32,
          "midi": 81,
          "name": "A5",
          "ticks": 16576,
          "time": 66.83874866666666,
          "velocity": 0.7874015748031497
        },
        {
          "duration": 0.12903233333334185,
          "durationTicks": 32,
          "midi": 88,
          "name": "E6",
          "ticks": 16608,
          "time": 66.96778099999999,
          "velocity": 0.7874015748031497
        },
        {
          "duration": 0.12903233333332764,
          "durationTicks": 32,
          "midi": 89,
          "name": "F6",
          "ticks": 16640,
          "time": 67.09681333333333,
          "velocity": 0.7874015748031497
        },
        {
          "duration": 0.12903233333334185,
          "durationTicks": 32,
          "midi": 91,
          "name": "G6",
          "ticks": 16672,
          "time": 67.22584566666666,
          "velocity": 0.7874015748031497
        },
        {
          "duration": 0.12903233333332764,
          "durationTicks": 32,
          "midi": 81,
          "name": "A5",
          "ticks": 16704,
          "time": 67.354878,
          "velocity": 0.7874015748031497
        },
        {
          "duration": 0.12903233333332764,
          "durationTicks": 32,
          "midi": 86,
          "name": "D6",
          "ticks": 16704,
          "time": 67.354878,
          "velocity": 0.7874015748031497
        },
        {
          "duration": 0.12903233333331343,
          "durationTicks": 32,
          "midi": 81,
          "name": "A5",
          "ticks": 16832,
          "time": 67.87100733333334,
          "velocity": 0.7874015748031497
        },
        {
          "duration": 0.12903233333334185,
          "durationTicks": 32,
          "midi": 84,
          "name": "C6",
          "ticks": 16864,
          "time": 68.00003966666665,
          "velocity": 0.7874015748031497
        },
        {
          "duration": 0.12903233333334185,
          "durationTicks": 32,
          "midi": 86,
          "name": "D6",
          "ticks": 16896,
          "time": 68.129072,
          "velocity": 0.7874015748031497
        },
        {
          "duration": 0.12903233333332764,
          "durationTicks": 32,
          "midi": 82,
          "name": "A#5",
          "ticks": 16928,
          "time": 68.25810433333334,
          "velocity": 0.7874015748031497
        },
        {
          "duration": 0.12903233333332764,
          "durationTicks": 32,
          "midi": 77,
          "name": "F5",
          "ticks": 16960,
          "time": 68.38713666666666,
          "velocity": 0.7874015748031497
        },
        {
          "duration": 0.12903233333334185,
          "durationTicks": 32,
          "midi": 86,
          "name": "D6",
          "ticks": 16992,
          "time": 68.51616899999999,
          "velocity": 0.7874015748031497
        },
        {
          "duration": 0.12903233333332764,
          "durationTicks": 32,
          "midi": 82,
          "name": "A#5",
          "ticks": 17024,
          "time": 68.64520133333333,
          "velocity": 0.7874015748031497
        },
        {
          "duration": 0.12903233333332764,
          "durationTicks": 32,
          "midi": 77,
          "name": "F5",
          "ticks": 17056,
          "time": 68.77423366666666,
          "velocity": 0.7874015748031497
        },
        {
          "duration": 0.12903233333334185,
          "durationTicks": 32,
          "midi": 88,
          "name": "E6",
          "ticks": 17088,
          "time": 68.90326599999999,
          "velocity": 0.7874015748031497
        },
        {
          "duration": 0.12903233333332764,
          "durationTicks": 32,
          "midi": 84,
          "name": "C6",
          "ticks": 17120,
          "time": 69.03229833333333,
          "velocity": 0.7874015748031497
        },
        {
          "duration": 0.12903233333334185,
          "durationTicks": 32,
          "midi": 79,
          "name": "G5",
          "ticks": 17152,
          "time": 69.16133066666666,
          "velocity": 0.7874015748031497
        },
        {
          "duration": 0.12903233333332764,
          "durationTicks": 32,
          "midi": 88,
          "name": "E6",
          "ticks": 17184,
          "time": 69.290363,
          "velocity": 0.7874015748031497
        },
        {
          "duration": 0.12903233333332764,
          "durationTicks": 32,
          "midi": 84,
          "name": "C6",
          "ticks": 17216,
          "time": 69.41939533333333,
          "velocity": 0.7874015748031497
        },
        {
          "duration": 0.12903233333334185,
          "durationTicks": 32,
          "midi": 79,
          "name": "G5",
          "ticks": 17248,
          "time": 69.54842766666665,
          "velocity": 0.7874015748031497
        },
        {
          "duration": 0.12903233333334185,
          "durationTicks": 32,
          "midi": 88,
          "name": "E6",
          "ticks": 17280,
          "time": 69.67746,
          "velocity": 0.7874015748031497
        },
        {
          "duration": 0.12903233333331343,
          "durationTicks": 32,
          "midi": 85,
          "name": "C#6",
          "ticks": 17312,
          "time": 69.80649233333334,
          "velocity": 0.7874015748031497
        },
        {
          "duration": 0.12903233333334185,
          "durationTicks": 32,
          "midi": 81,
          "name": "A5",
          "ticks": 17344,
          "time": 69.93552466666665,
          "velocity": 0.7874015748031497
        },
        {
          "duration": 0.12903233333334185,
          "durationTicks": 32,
          "midi": 88,
          "name": "E6",
          "ticks": 17376,
          "time": 70.064557,
          "velocity": 0.7874015748031497
        },
        {
          "duration": 0.12903233333332764,
          "durationTicks": 32,
          "midi": 85,
          "name": "C#6",
          "ticks": 17408,
          "time": 70.19358933333334,
          "velocity": 0.7874015748031497
        },
        {
          "duration": 0.12903233333332764,
          "durationTicks": 32,
          "midi": 81,
          "name": "A5",
          "ticks": 17440,
          "time": 70.32262166666666,
          "velocity": 0.7874015748031497
        },
        {
          "duration": 0.12903233333334185,
          "durationTicks": 32,
          "midi": 91,
          "name": "G6",
          "ticks": 17472,
          "time": 70.45165399999999,
          "velocity": 0.7874015748031497
        },
        {
          "duration": 0.12903233333334185,
          "durationTicks": 32,
          "midi": 93,
          "name": "A6",
          "ticks": 17472,
          "time": 70.45165399999999,
          "velocity": 0.7874015748031497
        },
        {
          "duration": 0.12903233333334185,
          "durationTicks": 32,
          "midi": 91,
          "name": "G6",
          "ticks": 17544,
          "time": 70.74197674999999,
          "velocity": 0.7874015748031497
        },
        {
          "duration": 0.12903233333334185,
          "durationTicks": 32,
          "midi": 93,
          "name": "A6",
          "ticks": 17544,
          "time": 70.74197674999999,
          "velocity": 0.7874015748031497
        },
        {
          "duration": 0.12903233333334185,
          "durationTicks": 32,
          "midi": 91,
          "name": "G6",
          "ticks": 17616,
          "time": 71.0322995,
          "velocity": 0.7874015748031497
        },
        {
          "duration": 0.12903233333334185,
          "durationTicks": 32,
          "midi": 93,
          "name": "A6",
          "ticks": 17616,
          "time": 71.0322995,
          "velocity": 0.7874015748031497
        },
        {
          "duration": 0.19354850000000567,
          "durationTicks": 48,
          "midi": 77,
          "name": "F5",
          "ticks": 20736,
          "time": 83.61295199999999,
          "velocity": 0.7874015748031497
        },
        {
          "duration": 0.19354850000000567,
          "durationTicks": 48,
          "midi": 73,
          "name": "C#5",
          "ticks": 20832,
          "time": 84.00004899999999,
          "velocity": 0.7874015748031497
        },
        {
          "duration": 0.19354850000000567,
          "durationTicks": 48,
          "midi": 76,
          "name": "E5",
          "ticks": 20928,
          "time": 84.38714599999999,
          "velocity": 0.7874015748031497
        },
        {
          "duration": 0.19354849999999146,
          "durationTicks": 48,
          "midi": 72,
          "name": "C5",
          "ticks": 21024,
          "time": 84.774243,
          "velocity": 0.7874015748031497
        },
        {
          "duration": 0.19354849999999146,
          "durationTicks": 48,
          "midi": 79,
          "name": "G5",
          "ticks": 21120,
          "time": 85.16134,
          "velocity": 0.7874015748031497
        },
        {
          "duration": 0.19354850000000567,
          "durationTicks": 48,
          "midi": 76,
          "name": "E5",
          "ticks": 21216,
          "time": 85.54843699999999,
          "velocity": 0.7874015748031497
        },
        {
          "duration": 0.19354850000000567,
          "durationTicks": 48,
          "midi": 75,
          "name": "D#5",
          "ticks": 21312,
          "time": 85.93553399999999,
          "velocity": 0.7874015748031497
        },
        {
          "duration": 0.19354850000000567,
          "durationTicks": 48,
          "midi": 78,
          "name": "F#5",
          "ticks": 21408,
          "time": 86.32263099999999,
          "velocity": 0.7874015748031497
        },
        {
          "duration": 0.19354849999999146,
          "durationTicks": 48,
          "midi": 77,
          "name": "F5",
          "ticks": 21504,
          "time": 86.709728,
          "velocity": 0.7874015748031497
        },
        {
          "duration": 0.19354849999999146,
          "durationTicks": 48,
          "midi": 73,
          "name": "C#5",
          "ticks": 21600,
          "time": 87.096825,
          "velocity": 0.7874015748031497
        },
        {
          "duration": 0.19354850000000567,
          "durationTicks": 48,
          "midi": 76,
          "name": "E5",
          "ticks": 21696,
          "time": 87.48392199999999,
          "velocity": 0.7874015748031497
        },
        {
          "duration": 0.19354850000000567,
          "durationTicks": 48,
          "midi": 72,
          "name": "C5",
          "ticks": 21792,
          "time": 87.87101899999999,
          "velocity": 0.7874015748031497
        },
        {
          "duration": 0.19354850000000567,
          "durationTicks": 48,
          "midi": 79,
          "name": "G5",
          "ticks": 21888,
          "time": 88.25811599999999,
          "velocity": 0.7874015748031497
        },
        {
          "duration": 0.19354849999999146,
          "durationTicks": 48,
          "midi": 76,
          "name": "E5",
          "ticks": 21984,
          "time": 88.645213,
          "velocity": 0.7874015748031497
        },
        {
          "duration": 0.7741939999999943,
          "durationTicks": 192,
          "midi": 75,
          "name": "D#5",
          "ticks": 22080,
          "time": 89.03231,
          "velocity": 0.7874015748031497
        },
        {
          "duration": 0.19354850000000567,
          "durationTicks": 48,
          "midi": 77,
          "name": "F5",
          "ticks": 22272,
          "time": 89.80650399999999,
          "velocity": 0.7874015748031497
        },
        {
          "duration": 0.19354850000000567,
          "durationTicks": 48,
          "midi": 73,
          "name": "C#5",
          "ticks": 22368,
          "time": 90.19360099999999,
          "velocity": 0.7874015748031497
        },
        {
          "duration": 0.19354849999999146,
          "durationTicks": 48,
          "midi": 76,
          "name": "E5",
          "ticks": 22464,
          "time": 90.580698,
          "velocity": 0.7874015748031497
        },
        {
          "duration": 0.19354849999999146,
          "durationTicks": 48,
          "midi": 72,
          "name": "C5",
          "ticks": 22560,
          "time": 90.967795,
          "velocity": 0.7874015748031497
        },
        {
          "duration": 0.19354850000000567,
          "durationTicks": 48,
          "midi": 79,
          "name": "G5",
          "ticks": 22656,
          "time": 91.35489199999999,
          "velocity": 0.7874015748031497
        },
        {
          "duration": 0.19354850000000567,
          "durationTicks": 48,
          "midi": 76,
          "name": "E5",
          "ticks": 22752,
          "time": 91.74198899999999,
          "velocity": 0.7874015748031497
        },
        {
          "duration": 0.19354850000000567,
          "durationTicks": 48,
          "midi": 75,
          "name": "D#5",
          "ticks": 22848,
          "time": 92.12908599999999,
          "velocity": 0.7874015748031497
        },
        {
          "duration": 0.19354849999999146,
          "durationTicks": 48,
          "midi": 78,
          "name": "F#5",
          "ticks": 22944,
          "time": 92.516183,
          "velocity": 0.7874015748031497
        },
        {
          "duration": 0.19354849999999146,
          "durationTicks": 48,
          "midi": 77,
          "name": "F5",
          "ticks": 23040,
          "time": 92.90328,
          "velocity": 0.7874015748031497
        },
        {
          "duration": 0.19354850000000567,
          "durationTicks": 48,
          "midi": 73,
          "name": "C#5",
          "ticks": 23136,
          "time": 93.29037699999999,
          "velocity": 0.7874015748031497
        },
        {
          "duration": 0.19354850000000567,
          "durationTicks": 48,
          "midi": 76,
          "name": "E5",
          "ticks": 23232,
          "time": 93.67747399999999,
          "velocity": 0.7874015748031497
        },
        {
          "duration": 0.19354850000000567,
          "durationTicks": 48,
          "midi": 72,
          "name": "C5",
          "ticks": 23328,
          "time": 94.06457099999999,
          "velocity": 0.7874015748031497
        },
        {
          "duration": 0.19354849999999146,
          "durationTicks": 48,
          "midi": 91,
          "name": "G6",
          "ticks": 23424,
          "time": 94.451668,
          "velocity": 0.7874015748031497
        },
        {
          "duration": 0.19354849999999146,
          "durationTicks": 48,
          "midi": 88,
          "name": "E6",
          "ticks": 23520,
          "time": 94.838765,
          "velocity": 0.7874015748031497
        },
        {
          "duration": 0.7741939999999943,
          "durationTicks": 192,
          "midi": 87,
          "name": "D#6",
          "ticks": 23616,
          "time": 95.22586199999999,
          "velocity": 0.7874015748031497
        }
      ]
    },
    {
      "channel": 0,
      "controlChanges": {
        "6": [
          {
            "number": 6,
            "ticks": 0,
            "time": 0,
            "value": 0.09448818897637795
          }
        ],
        "7": [
          {
            "number": 7,
            "ticks": 0,
            "time": 0,
            "value": 0.9921259842519685
          },
          {
            "number": 7,
            "ticks": 0,
            "time": 0,
            "value": 0.9921259842519685
          }
        ],
        "10": [
          {
            "number": 10,
            "ticks": 0,
            "time": 0,
            "value": 0.5039370078740157
          },
          {
            "number": 10,
            "ticks": 0,
            "time": 0,
            "value": 0.5039370078740157
          }
        ],
        "100": [
          {
            "number": 100,
            "ticks": 0,
            "time": 0,
            "value": 0
          }
        ],
        "101": [
          {
            "number": 101,
            "ticks": 0,
            "time": 0,
            "value": 0
          }
        ]
      },
      "pitchBends": [
        {
          "ticks": 0,
          "time": 0,
          "value": 0
        },
        {
          "ticks": 0,
          "time": 0,
          "value": 0
        }
      ],
      "instrument": {
        "family": "piano",
        "name": "acoustic grand piano",
        "number": 0
      },
      "name": "Sawtooth Wave",
      "notes": []
    },
    {
      "channel": 4,
      "controlChanges": {
        "6": [
          {
            "number": 6,
            "ticks": 0,
            "time": 0,
            "value": 0.09448818897637795
          },
          {
            "number": 6,
            "ticks": 0,
            "time": 0,
            "value": 0.09448818897637795
          },
          {
            "number": 6,
            "ticks": 30336,
            "time": 122.32265199999999,
            "value": 0.09448818897637795
          },
          {
            "number": 6,
            "ticks": 30336,
            "time": 122.32265199999999,
            "value": 0.09448818897637795
          },
          {
            "number": 6,
            "ticks": 30336,
            "time": 122.32265199999999,
            "value": 0.09448818897637795
          }
        ],
        "7": [
          {
            "number": 7,
            "ticks": 0,
            "time": 0,
            "value": 0.9921259842519685
          },
          {
            "number": 7,
            "ticks": 0,
            "time": 0,
            "value": 0.9921259842519685
          },
          {
            "number": 7,
            "ticks": 30336,
            "time": 122.32265199999999,
            "value": 0.9921259842519685
          },
          {
            "number": 7,
            "ticks": 30336,
            "time": 122.32265199999999,
            "value": 0.9921259842519685
          },
          {
            "number": 7,
            "ticks": 30336,
            "time": 122.32265199999999,
            "value": 0.9921259842519685
          }
        ],
        "10": [
          {
            "number": 10,
            "ticks": 0,
            "time": 0,
            "value": 0.5039370078740157
          },
          {
            "number": 10,
            "ticks": 0,
            "time": 0,
            "value": 0.5039370078740157
          },
          {
            "number": 10,
            "ticks": 30336,
            "time": 122.32265199999999,
            "value": 0.5039370078740157
          },
          {
            "number": 10,
            "ticks": 30336,
            "time": 122.32265199999999,
            "value": 0.5039370078740157
          },
          {
            "number": 10,
            "ticks": 30336,
            "time": 122.32265199999999,
            "value": 0.5039370078740157
          }
        ],
        "100": [
          {
            "number": 100,
            "ticks": 0,
            "time": 0,
            "value": 0
          },
          {
            "number": 100,
            "ticks": 0,
            "time": 0,
            "value": 0
          },
          {
            "number": 100,
            "ticks": 30336,
            "time": 122.32265199999999,
            "value": 0
          },
          {
            "number": 100,
            "ticks": 30336,
            "time": 122.32265199999999,
            "value": 0
          },
          {
            "number": 100,
            "ticks": 30336,
            "time": 122.32265199999999,
            "value": 0
          }
        ],
        "101": [
          {
            "number": 101,
            "ticks": 0,
            "time": 0,
            "value": 0
          },
          {
            "number": 101,
            "ticks": 0,
            "time": 0,
            "value": 0
          },
          {
            "number": 101,
            "ticks": 30336,
            "time": 122.32265199999999,
            "value": 0
          },
          {
            "number": 101,
            "ticks": 30336,
            "time": 122.32265199999999,
            "value": 0
          },
          {
            "number": 101,
            "ticks": 30336,
            "time": 122.32265199999999,
            "value": 0
          }
        ]
      },
      "pitchBends": [
        {
          "ticks": 0,
          "time": 0,
          "value": 0
        },
        {
          "ticks": 0,
          "time": 0,
          "value": 0
        },
        {
          "ticks": 30336,
          "time": 122.32265199999999,
          "value": 0
        },
        {
          "ticks": 30336,
          "time": 122.32265199999999,
          "value": 0
        },
        {
          "ticks": 30336,
          "time": 122.32265199999999,
          "value": 0
        }
      ],
      "instrument": {
        "family": "synth lead",
        "name": "lead 2 (sawtooth)",
        "number": 81
      },
      "name": "",
      "notes": [
        {
          "duration": 0.19354849999999857,
          "durationTicks": 48,
          "midi": 65,
          "name": "F4",
          "ticks": 5376,
          "time": 21.677432,
          "velocity": 0.7874015748031497
        },
        {
          "duration": 0.19354850000000212,
          "durationTicks": 48,
          "midi": 61,
          "name": "C#4",
          "ticks": 5472,
          "time": 22.064528999999997,
          "velocity": 0.7874015748031497
        },
        {
          "duration": 0.19354850000000212,
          "durationTicks": 48,
          "midi": 64,
          "name": "E4",
          "ticks": 5568,
          "time": 22.451625999999997,
          "velocity": 0.7874015748031497
        },
        {
          "duration": 0.19354849999999857,
          "durationTicks": 48,
          "midi": 60,
          "name": "C4",
          "ticks": 5664,
          "time": 22.838722999999998,
          "velocity": 0.7874015748031497
        },
        {
          "duration": 0.19354849999999857,
          "durationTicks": 48,
          "midi": 67,
          "name": "G4",
          "ticks": 5760,
          "time": 23.22582,
          "velocity": 0.7874015748031497
        },
        {
          "duration": 0.19354849999999857,
          "durationTicks": 48,
          "midi": 64,
          "name": "E4",
          "ticks": 5856,
          "time": 23.612917,
          "velocity": 0.7874015748031497
        },
        {
          "duration": 0.19354850000000212,
          "durationTicks": 48,
          "midi": 63,
          "name": "D#4",
          "ticks": 5952,
          "time": 24.000013999999997,
          "velocity": 0.7874015748031497
        },
        {
          "duration": 0.19354850000000212,
          "durationTicks": 48,
          "midi": 66,
          "name": "F#4",
          "ticks": 6048,
          "time": 24.387110999999997,
          "velocity": 0.7874015748031497
        },
        {
          "duration": 0.19354849999999857,
          "durationTicks": 48,
          "midi": 65,
          "name": "F4",
          "ticks": 6144,
          "time": 24.774207999999998,
          "velocity": 0.7874015748031497
        },
        {
          "duration": 0.19354849999999857,
          "durationTicks": 48,
          "midi": 61,
          "name": "C#4",
          "ticks": 6240,
          "time": 25.161305,
          "velocity": 0.7874015748031497
        },
        {
          "duration": 0.19354849999999857,
          "durationTicks": 48,
          "midi": 64,
          "name": "E4",
          "ticks": 6336,
          "time": 25.548402,
          "velocity": 0.7874015748031497
        },
        {
          "duration": 0.19354850000000212,
          "durationTicks": 48,
          "midi": 60,
          "name": "C4",
          "ticks": 6432,
          "time": 25.935498999999997,
          "velocity": 0.7874015748031497
        },
        {
          "duration": 0.19354850000000212,
          "durationTicks": 48,
          "midi": 79,
          "name": "G5",
          "ticks": 6528,
          "time": 26.322595999999997,
          "velocity": 0.7874015748031497
        },
        {
          "duration": 0.19354849999999857,
          "durationTicks": 48,
          "midi": 76,
          "name": "E5",
          "ticks": 6624,
          "time": 26.709692999999998,
          "velocity": 0.7874015748031497
        },
        {
          "duration": 0.7741939999999978,
          "durationTicks": 192,
          "midi": 75,
          "name": "D#5",
          "ticks": 6720,
          "time": 27.09679,
          "velocity": 0.7874015748031497
        },
        {
          "duration": 0.19354850000000567,
          "durationTicks": 48,
          "midi": 65,
          "name": "F4",
          "ticks": 22272,
          "time": 89.80650399999999,
          "velocity": 0.7874015748031497
        },
        {
          "duration": 0.19354850000000567,
          "durationTicks": 48,
          "midi": 61,
          "name": "C#4",
          "ticks": 22368,
          "time": 90.19360099999999,
          "velocity": 0.7874015748031497
        },
        {
          "duration": 0.19354849999999146,
          "durationTicks": 48,
          "midi": 64,
          "name": "E4",
          "ticks": 22464,
          "time": 90.580698,
          "velocity": 0.7874015748031497
        },
        {
          "duration": 0.19354849999999146,
          "durationTicks": 48,
          "midi": 60,
          "name": "C4",
          "ticks": 22560,
          "time": 90.967795,
          "velocity": 0.7874015748031497
        },
        {
          "duration": 0.19354850000000567,
          "durationTicks": 48,
          "midi": 67,
          "name": "G4",
          "ticks": 22656,
          "time": 91.35489199999999,
          "velocity": 0.7874015748031497
        },
        {
          "duration": 0.19354850000000567,
          "durationTicks": 48,
          "midi": 64,
          "name": "E4",
          "ticks": 22752,
          "time": 91.74198899999999,
          "velocity": 0.7874015748031497
        },
        {
          "duration": 0.19354850000000567,
          "durationTicks": 48,
          "midi": 63,
          "name": "D#4",
          "ticks": 22848,
          "time": 92.12908599999999,
          "velocity": 0.7874015748031497
        },
        {
          "duration": 0.19354849999999146,
          "durationTicks": 48,
          "midi": 66,
          "name": "F#4",
          "ticks": 22944,
          "time": 92.516183,
          "velocity": 0.7874015748031497
        },
        {
          "duration": 0.19354849999999146,
          "durationTicks": 48,
          "midi": 65,
          "name": "F4",
          "ticks": 23040,
          "time": 92.90328,
          "velocity": 0.7874015748031497
        },
        {
          "duration": 0.19354850000000567,
          "durationTicks": 48,
          "midi": 61,
          "name": "C#4",
          "ticks": 23136,
          "time": 93.29037699999999,
          "velocity": 0.7874015748031497
        },
        {
          "duration": 0.19354850000000567,
          "durationTicks": 48,
          "midi": 64,
          "name": "E4",
          "ticks": 23232,
          "time": 93.67747399999999,
          "velocity": 0.7874015748031497
        },
        {
          "duration": 0.19354850000000567,
          "durationTicks": 48,
          "midi": 60,
          "name": "C4",
          "ticks": 23328,
          "time": 94.06457099999999,
          "velocity": 0.7874015748031497
        },
        {
          "duration": 0.19354849999999146,
          "durationTicks": 48,
          "midi": 79,
          "name": "G5",
          "ticks": 23424,
          "time": 94.451668,
          "velocity": 0.7874015748031497
        },
        {
          "duration": 0.19354849999999146,
          "durationTicks": 48,
          "midi": 76,
          "name": "E5",
          "ticks": 23520,
          "time": 94.838765,
          "velocity": 0.7874015748031497
        },
        {
          "duration": 0.7741939999999943,
          "durationTicks": 192,
          "midi": 75,
          "name": "D#5",
          "ticks": 23616,
          "time": 95.22586199999999,
          "velocity": 0.7874015748031497
        }
      ]
    },
    {
      "channel": 0,
      "controlChanges": {
        "6": [
          {
            "number": 6,
            "ticks": 0,
            "time": 0,
            "value": 0.09448818897637795
          }
        ],
        "7": [
          {
            "number": 7,
            "ticks": 0,
            "time": 0,
            "value": 0.8661417322834646
          },
          {
            "number": 7,
            "ticks": 0,
            "time": 0,
            "value": 0.8661417322834646
          }
        ],
        "10": [
          {
            "number": 10,
            "ticks": 0,
            "time": 0,
            "value": 0.5039370078740157
          },
          {
            "number": 10,
            "ticks": 0,
            "time": 0,
            "value": 0.5039370078740157
          }
        ],
        "100": [
          {
            "number": 100,
            "ticks": 0,
            "time": 0,
            "value": 0
          }
        ],
        "101": [
          {
            "number": 101,
            "ticks": 0,
            "time": 0,
            "value": 0
          }
        ]
      },
      "pitchBends": [
        {
          "ticks": 0,
          "time": 0,
          "value": 0
        },
        {
          "ticks": 0,
          "time": 0,
          "value": 0
        }
      ],
      "instrument": {
        "family": "piano",
        "name": "acoustic grand piano",
        "number": 0
      },
      "name": "Square High",
      "notes": []
    },
    {
      "channel": 1,
      "controlChanges": {
        "6": [
          {
            "number": 6,
            "ticks": 0,
            "time": 0,
            "value": 0.09448818897637795
          },
          {
            "number": 6,
            "ticks": 0,
            "time": 0,
            "value": 0.09448818897637795
          },
          {
            "number": 6,
            "ticks": 30336,
            "time": 122.32265199999999,
            "value": 0.09448818897637795
          },
          {
            "number": 6,
            "ticks": 30336,
            "time": 122.32265199999999,
            "value": 0.09448818897637795
          },
          {
            "number": 6,
            "ticks": 30336,
            "time": 122.32265199999999,
            "value": 0.09448818897637795
          }
        ],
        "7": [
          {
            "number": 7,
            "ticks": 0,
            "time": 0,
            "value": 0.8661417322834646
          },
          {
            "number": 7,
            "ticks": 0,
            "time": 0,
            "value": 0.8661417322834646
          },
          {
            "number": 7,
            "ticks": 30336,
            "time": 122.32265199999999,
            "value": 0.8661417322834646
          },
          {
            "number": 7,
            "ticks": 30336,
            "time": 122.32265199999999,
            "value": 0.8661417322834646
          },
          {
            "number": 7,
            "ticks": 30336,
            "time": 122.32265199999999,
            "value": 0.8661417322834646
          }
        ],
        "10": [
          {
            "number": 10,
            "ticks": 0,
            "time": 0,
            "value": 0.5039370078740157
          },
          {
            "number": 10,
            "ticks": 0,
            "time": 0,
            "value": 0.5039370078740157
          },
          {
            "number": 10,
            "ticks": 30336,
            "time": 122.32265199999999,
            "value": 0.5039370078740157
          },
          {
            "number": 10,
            "ticks": 30336,
            "time": 122.32265199999999,
            "value": 0.5039370078740157
          },
          {
            "number": 10,
            "ticks": 30336,
            "time": 122.32265199999999,
            "value": 0.5039370078740157
          }
        ],
        "100": [
          {
            "number": 100,
            "ticks": 0,
            "time": 0,
            "value": 0
          },
          {
            "number": 100,
            "ticks": 0,
            "time": 0,
            "value": 0
          },
          {
            "number": 100,
            "ticks": 30336,
            "time": 122.32265199999999,
            "value": 0
          },
          {
            "number": 100,
            "ticks": 30336,
            "time": 122.32265199999999,
            "value": 0
          },
          {
            "number": 100,
            "ticks": 30336,
            "time": 122.32265199999999,
            "value": 0
          }
        ],
        "101": [
          {
            "number": 101,
            "ticks": 0,
            "time": 0,
            "value": 0
          },
          {
            "number": 101,
            "ticks": 0,
            "time": 0,
            "value": 0
          },
          {
            "number": 101,
            "ticks": 30336,
            "time": 122.32265199999999,
            "value": 0
          },
          {
            "number": 101,
            "ticks": 30336,
            "time": 122.32265199999999,
            "value": 0
          },
          {
            "number": 101,
            "ticks": 30336,
            "time": 122.32265199999999,
            "value": 0
          }
        ]
      },
      "pitchBends": [
        {
          "ticks": 0,
          "time": 0,
          "value": 0
        },
        {
          "ticks": 0,
          "time": 0,
          "value": 0
        },
        {
          "ticks": 30336,
          "time": 122.32265199999999,
          "value": 0
        },
        {
          "ticks": 30336,
          "time": 122.32265199999999,
          "value": 0
        },
        {
          "ticks": 30336,
          "time": 122.32265199999999,
          "value": 0
        }
      ],
      "instrument": {
        "family": "synth lead",
        "name": "lead 1 (square)",
        "number": 80
      },
      "name": "",
      "notes": [
        {
          "duration": 0.09677424999999999,
          "durationTicks": 24,
          "midi": 85,
          "name": "C#6",
          "ticks": 0,
          "time": 0,
          "velocity": 0.7874015748031497
        },
        {
          "duration": 0.09677424999999999,
          "durationTicks": 24,
          "midi": 82,
          "name": "A#5",
          "ticks": 24,
          "time": 0.09677424999999999,
          "velocity": 0.7874015748031497
        },
        {
          "duration": 0.09677424999999998,
          "durationTicks": 24,
          "midi": 77,
          "name": "F5",
          "ticks": 48,
          "time": 0.19354849999999998,
          "velocity": 0.7874015748031497
        },
        {
          "duration": 0.09677425,
          "durationTicks": 24,
          "midi": 85,
          "name": "C#6",
          "ticks": 72,
          "time": 0.29032274999999996,
          "velocity": 0.7874015748031497
        },
        {
          "duration": 0.09677425,
          "durationTicks": 24,
          "midi": 82,
          "name": "A#5",
          "ticks": 96,
          "time": 0.38709699999999997,
          "velocity": 0.7874015748031497
        },
        {
          "duration": 0.09677424999999995,
          "durationTicks": 24,
          "midi": 77,
          "name": "F5",
          "ticks": 120,
          "time": 0.48387125,
          "velocity": 0.7874015748031497
        },
        {
          "duration": 0.09677425000000006,
          "durationTicks": 24,
          "midi": 85,
          "name": "C#6",
          "ticks": 144,
          "time": 0.5806454999999999,
          "velocity": 0.7874015748031497
        },
        {
          "duration": 0.09677424999999995,
          "durationTicks": 24,
          "midi": 82,
          "name": "A#5",
          "ticks": 168,
          "time": 0.67741975,
          "velocity": 0.7874015748031497
        },
        {
          "duration": 0.09677424999999995,
          "durationTicks": 24,
          "midi": 77,
          "name": "F5",
          "ticks": 192,
          "time": 0.7741939999999999,
          "velocity": 0.7874015748031497
        },
        {
          "duration": 0.09677425000000006,
          "durationTicks": 24,
          "midi": 85,
          "name": "C#6",
          "ticks": 216,
          "time": 0.8709682499999999,
          "velocity": 0.7874015748031497
        },
        {
          "duration": 0.09677424999999995,
          "durationTicks": 24,
          "midi": 82,
          "name": "A#5",
          "ticks": 240,
          "time": 0.9677425,
          "velocity": 0.7874015748031497
        },
        {
          "duration": 0.09677424999999995,
          "durationTicks": 24,
          "midi": 77,
          "name": "F5",
          "ticks": 264,
          "time": 1.06451675,
          "velocity": 0.7874015748031497
        },
        {
          "duration": 0.09677424999999995,
          "durationTicks": 24,
          "midi": 84,
          "name": "C6",
          "ticks": 288,
          "time": 1.1612909999999999,
          "velocity": 0.7874015748031497
        },
        {
          "duration": 0.09677424999999995,
          "durationTicks": 24,
          "midi": 80,
          "name": "G#5",
          "ticks": 288,
          "time": 1.1612909999999999,
          "velocity": 0.7874015748031497
        },
        {
          "duration": 0.09677424999999995,
          "durationTicks": 24,
          "midi": 84,
          "name": "C6",
          "ticks": 360,
          "time": 1.45161375,
          "velocity": 0.7874015748031497
        },
        {
          "duration": 0.09677424999999995,
          "durationTicks": 24,
          "midi": 80,
          "name": "G#5",
          "ticks": 360,
          "time": 1.45161375,
          "velocity": 0.7874015748031497
        },
        {
          "duration": 0.09677425000000017,
          "durationTicks": 24,
          "midi": 84,
          "name": "C6",
          "ticks": 432,
          "time": 1.7419364999999998,
          "velocity": 0.7874015748031497
        },
        {
          "duration": 0.09677425000000017,
          "durationTicks": 24,
          "midi": 80,
          "name": "G#5",
          "ticks": 432,
          "time": 1.7419364999999998,
          "velocity": 0.7874015748031497
        },
        {
          "duration": 0.09677424999999973,
          "durationTicks": 24,
          "midi": 85,
          "name": "C#6",
          "ticks": 480,
          "time": 1.935485,
          "velocity": 0.7874015748031497
        },
        {
          "duration": 0.09677425000000017,
          "durationTicks": 24,
          "midi": 82,
          "name": "A#5",
          "ticks": 504,
          "time": 2.0322592499999996,
          "velocity": 0.7874015748031497
        },
        {
          "duration": 0.09677425000000017,
          "durationTicks": 24,
          "midi": 77,
          "name": "F5",
          "ticks": 528,
          "time": 2.1290335,
          "velocity": 0.7874015748031497
        },
        {
          "duration": 0.09677424999999973,
          "durationTicks": 24,
          "midi": 85,
          "name": "C#6",
          "ticks": 552,
          "time": 2.22580775,
          "velocity": 0.7874015748031497
        },
        {
          "duration": 0.09677425000000017,
          "durationTicks": 24,
          "midi": 82,
          "name": "A#5",
          "ticks": 576,
          "time": 2.3225819999999997,
          "velocity": 0.7874015748031497
        },
        {
          "duration": 0.09677424999999973,
          "durationTicks": 24,
          "midi": 77,
          "name": "F5",
          "ticks": 600,
          "time": 2.41935625,
          "velocity": 0.7874015748031497
        },
        {
          "duration": 0.09677425000000017,
          "durationTicks": 24,
          "midi": 85,
          "name": "C#6",
          "ticks": 624,
          "time": 2.5161304999999996,
          "velocity": 0.7874015748031497
        },
        {
          "duration": 0.09677425000000017,
          "durationTicks": 24,
          "midi": 82,
          "name": "A#5",
          "ticks": 648,
          "time": 2.6129047499999998,
          "velocity": 0.7874015748031497
        },
        {
          "duration": 0.09677424999999973,
          "durationTicks": 24,
          "midi": 77,
          "name": "F5",
          "ticks": 672,
          "time": 2.709679,
          "velocity": 0.7874015748031497
        },
        {
          "duration": 0.09677425000000017,
          "durationTicks": 24,
          "midi": 85,
          "name": "C#6",
          "ticks": 696,
          "time": 2.8064532499999997,
          "velocity": 0.7874015748031497
        },
        {
          "duration": 0.09677424999999973,
          "durationTicks": 24,
          "midi": 82,
          "name": "A#5",
          "ticks": 720,
          "time": 2.9032275,
          "velocity": 0.7874015748031497
        },
        {
          "duration": 0.09677425000000017,
          "durationTicks": 24,
          "midi": 77,
          "name": "F5",
          "ticks": 744,
          "time": 3.0000017499999996,
          "velocity": 0.7874015748031497
        },
        {
          "duration": 0.09677425000000017,
          "durationTicks": 24,
          "midi": 87,
          "name": "D#6",
          "ticks": 768,
          "time": 3.0967759999999998,
          "velocity": 0.7874015748031497
        },
        {
          "duration": 0.09677425000000017,
          "durationTicks": 24,
          "midi": 84,
          "name": "C6",
          "ticks": 768,
          "time": 3.0967759999999998,
          "velocity": 0.7874015748031497
        },
        {
          "duration": 0.09677424999999973,
          "durationTicks": 24,
          "midi": 87,
          "name": "D#6",
          "ticks": 840,
          "time": 3.38709875,
          "velocity": 0.7874015748031497
        },
        {
          "duration": 0.09677424999999973,
          "durationTicks": 24,
          "midi": 84,
          "name": "C6",
          "ticks": 840,
          "time": 3.38709875,
          "velocity": 0.7874015748031497
        },
        {
          "duration": 0.09677424999999973,
          "durationTicks": 24,
          "midi": 87,
          "name": "D#6",
          "ticks": 912,
          "time": 3.6774215,
          "velocity": 0.7874015748031497
        },
        {
          "duration": 0.09677424999999973,
          "durationTicks": 24,
          "midi": 84,
          "name": "C6",
          "ticks": 912,
          "time": 3.6774215,
          "velocity": 0.7874015748031497
        },
        {
          "duration": 0.09677424999999973,
          "durationTicks": 24,
          "midi": 85,
          "name": "C#6",
          "ticks": 960,
          "time": 3.87097,
          "velocity": 0.7874015748031497
        },
        {
          "duration": 0.09677424999999973,
          "durationTicks": 24,
          "midi": 82,
          "name": "A#5",
          "ticks": 984,
          "time": 3.9677442499999995,
          "velocity": 0.7874015748031497
        },
        {
          "duration": 0.09677425000000017,
          "durationTicks": 24,
          "midi": 77,
          "name": "F5",
          "ticks": 1008,
          "time": 4.064518499999999,
          "velocity": 0.7874015748031497
        },
        {
          "duration": 0.09677425000000017,
          "durationTicks": 24,
          "midi": 85,
          "name": "C#6",
          "ticks": 1032,
          "time": 4.161292749999999,
          "velocity": 0.7874015748031497
        },
        {
          "duration": 0.09677425000000017,
          "durationTicks": 24,
          "midi": 82,
          "name": "A#5",
          "ticks": 1056,
          "time": 4.258067,
          "velocity": 0.7874015748031497
        },
        {
          "duration": 0.09677425000000017,
          "durationTicks": 24,
          "midi": 77,
          "name": "F5",
          "ticks": 1080,
          "time": 4.35484125,
          "velocity": 0.7874015748031497
        },
        {
          "duration": 0.09677424999999928,
          "durationTicks": 24,
          "midi": 85,
          "name": "C#6",
          "ticks": 1104,
          "time": 4.4516155,
          "velocity": 0.7874015748031497
        },
        {
          "duration": 0.09677425000000017,
          "durationTicks": 24,
          "midi": 82,
          "name": "A#5",
          "ticks": 1128,
          "time": 4.548389749999999,
          "velocity": 0.7874015748031497
        },
        {
          "duration": 0.09677425000000017,
          "durationTicks": 24,
          "midi": 77,
          "name": "F5",
          "ticks": 1152,
          "time": 4.645163999999999,
          "velocity": 0.7874015748031497
        },
        {
          "duration": 0.09677425000000017,
          "durationTicks": 24,
          "midi": 85,
          "name": "C#6",
          "ticks": 1176,
          "time": 4.74193825,
          "velocity": 0.7874015748031497
        },
        {
          "duration": 0.09677425000000017,
          "durationTicks": 24,
          "midi": 82,
          "name": "A#5",
          "ticks": 1200,
          "time": 4.8387125,
          "velocity": 0.7874015748031497
        },
        {
          "duration": 0.09677424999999928,
          "durationTicks": 24,
          "midi": 77,
          "name": "F5",
          "ticks": 1224,
          "time": 4.93548675,
          "velocity": 0.7874015748031497
        },
        {
          "duration": 0.09677425000000017,
          "durationTicks": 24,
          "midi": 80,
          "name": "G#5",
          "ticks": 1248,
          "time": 5.032260999999999,
          "velocity": 0.7874015748031497
        },
        {
          "duration": 0.09677425000000017,
          "durationTicks": 24,
          "midi": 84,
          "name": "C6",
          "ticks": 1248,
          "time": 5.032260999999999,
          "velocity": 0.7874015748031497
        },
        {
          "duration": 0.09677425000000017,
          "durationTicks": 24,
          "midi": 80,
          "name": "G#5",
          "ticks": 1320,
          "time": 5.32258375,
          "velocity": 0.7874015748031497
        },
        {
          "duration": 0.09677425000000017,
          "durationTicks": 24,
          "midi": 84,
          "name": "C6",
          "ticks": 1320,
          "time": 5.32258375,
          "velocity": 0.7874015748031497
        },
        {
          "duration": 0.09677425000000017,
          "durationTicks": 24,
          "midi": 80,
          "name": "G#5",
          "ticks": 1392,
          "time": 5.612906499999999,
          "velocity": 0.7874015748031497
        },
        {
          "duration": 0.09677425000000017,
          "durationTicks": 24,
          "midi": 84,
          "name": "C6",
          "ticks": 1392,
          "time": 5.612906499999999,
          "velocity": 0.7874015748031497
        },
        {
          "duration": 0.09677425000000017,
          "durationTicks": 24,
          "midi": 85,
          "name": "C#6",
          "ticks": 1440,
          "time": 5.806455,
          "velocity": 0.7874015748031497
        },
        {
          "duration": 0.09677424999999928,
          "durationTicks": 24,
          "midi": 82,
          "name": "A#5",
          "ticks": 1464,
          "time": 5.90322925,
          "velocity": 0.7874015748031497
        },
        {
          "duration": 0.09677425000000017,
          "durationTicks": 24,
          "midi": 77,
          "name": "F5",
          "ticks": 1488,
          "time": 6.000003499999999,
          "velocity": 0.7874015748031497
        },
        {
          "duration": 0.09677425000000017,
          "durationTicks": 24,
          "midi": 85,
          "name": "C#6",
          "ticks": 1512,
          "time": 6.096777749999999,
          "velocity": 0.7874015748031497
        },
        {
          "duration": 0.09677425000000017,
          "durationTicks": 24,
          "midi": 82,
          "name": "A#5",
          "ticks": 1536,
          "time": 6.1935519999999995,
          "velocity": 0.7874015748031497
        },
        {
          "duration": 0.09677425000000017,
          "durationTicks": 24,
          "midi": 77,
          "name": "F5",
          "ticks": 1560,
          "time": 6.29032625,
          "velocity": 0.7874015748031497
        },
        {
          "duration": 0.09677424999999928,
          "durationTicks": 24,
          "midi": 85,
          "name": "C#6",
          "ticks": 1584,
          "time": 6.3871005,
          "velocity": 0.7874015748031497
        },
        {
          "duration": 0.09677425000000017,
          "durationTicks": 24,
          "midi": 82,
          "name": "A#5",
          "ticks": 1608,
          "time": 6.483874749999999,
          "velocity": 0.7874015748031497
        },
        {
          "duration": 0.09677425000000017,
          "durationTicks": 24,
          "midi": 77,
          "name": "F5",
          "ticks": 1632,
          "time": 6.580648999999999,
          "velocity": 0.7874015748031497
        },
        {
          "duration": 0.09677425000000017,
          "durationTicks": 24,
          "midi": 85,
          "name": "C#6",
          "ticks": 1656,
          "time": 6.6774232499999995,
          "velocity": 0.7874015748031497
        },
        {
          "duration": 0.09677425000000017,
          "durationTicks": 24,
          "midi": 82,
          "name": "A#5",
          "ticks": 1680,
          "time": 6.7741975,
          "velocity": 0.7874015748031497
        },
        {
          "duration": 0.09677424999999928,
          "durationTicks": 24,
          "midi": 77,
          "name": "F5",
          "ticks": 1704,
          "time": 6.87097175,
          "velocity": 0.7874015748031497
        },
        {
          "duration": 0.09677425000000017,
          "durationTicks": 24,
          "midi": 84,
          "name": "C6",
          "ticks": 1728,
          "time": 6.967745999999999,
          "velocity": 0.7874015748031497
        },
        {
          "duration": 0.09677425000000017,
          "durationTicks": 24,
          "midi": 87,
          "name": "D#6",
          "ticks": 1728,
          "time": 6.967745999999999,
          "velocity": 0.7874015748031497
        },
        {
          "duration": 0.09677425000000017,
          "durationTicks": 24,
          "midi": 87,
          "name": "D#6",
          "ticks": 1800,
          "time": 7.25806875,
          "velocity": 0.7874015748031497
        },
        {
          "duration": 0.09677425000000017,
          "durationTicks": 24,
          "midi": 84,
          "name": "C6",
          "ticks": 1800,
          "time": 7.25806875,
          "velocity": 0.7874015748031497
        },
        {
          "duration": 0.09677425000000017,
          "durationTicks": 24,
          "midi": 87,
          "name": "D#6",
          "ticks": 1872,
          "time": 7.548391499999999,
          "velocity": 0.7874015748031497
        },
        {
          "duration": 0.09677425000000017,
          "durationTicks": 24,
          "midi": 84,
          "name": "C6",
          "ticks": 1872,
          "time": 7.548391499999999,
          "velocity": 0.7874015748031497
        },
        {
          "duration": 0.09677425000000017,
          "durationTicks": 24,
          "midi": 85,
          "name": "C#6",
          "ticks": 1920,
          "time": 7.74194,
          "velocity": 0.7874015748031497
        },
        {
          "duration": 0.09677424999999928,
          "durationTicks": 24,
          "midi": 82,
          "name": "A#5",
          "ticks": 1944,
          "time": 7.83871425,
          "velocity": 0.7874015748031497
        },
        {
          "duration": 0.09677425000000017,
          "durationTicks": 24,
          "midi": 77,
          "name": "F5",
          "ticks": 1968,
          "time": 7.935488499999999,
          "velocity": 0.7874015748031497
        },
        {
          "duration": 0.09677424999999928,
          "durationTicks": 24,
          "midi": 85,
          "name": "C#6",
          "ticks": 1992,
          "time": 8.03226275,
          "velocity": 0.7874015748031497
        },
        {
          "duration": 0.09677425000000106,
          "durationTicks": 24,
          "midi": 82,
          "name": "A#5",
          "ticks": 2016,
          "time": 8.129036999999999,
          "velocity": 0.7874015748031497
        },
        {
          "duration": 0.09677424999999928,
          "durationTicks": 24,
          "midi": 77,
          "name": "F5",
          "ticks": 2040,
          "time": 8.22581125,
          "velocity": 0.7874015748031497
        },
        {
          "duration": 0.09677425000000106,
          "durationTicks": 24,
          "midi": 85,
          "name": "C#6",
          "ticks": 2064,
          "time": 8.322585499999999,
          "velocity": 0.7874015748031497
        },
        {
          "duration": 0.09677424999999928,
          "durationTicks": 24,
          "midi": 82,
          "name": "A#5",
          "ticks": 2088,
          "time": 8.41935975,
          "velocity": 0.7874015748031497
        },
        {
          "duration": 0.09677424999999928,
          "durationTicks": 24,
          "midi": 77,
          "name": "F5",
          "ticks": 2112,
          "time": 8.516134,
          "velocity": 0.7874015748031497
        },
        {
          "duration": 0.09677425000000106,
          "durationTicks": 24,
          "midi": 85,
          "name": "C#6",
          "ticks": 2136,
          "time": 8.612908249999998,
          "velocity": 0.7874015748031497
        },
        {
          "duration": 0.09677424999999928,
          "durationTicks": 24,
          "midi": 82,
          "name": "A#5",
          "ticks": 2160,
          "time": 8.7096825,
          "velocity": 0.7874015748031497
        },
        {
          "duration": 0.09677425000000106,
          "durationTicks": 24,
          "midi": 77,
          "name": "F5",
          "ticks": 2184,
          "time": 8.806456749999999,
          "velocity": 0.7874015748031497
        },
        {
          "duration": 0.09677424999999928,
          "durationTicks": 24,
          "midi": 80,
          "name": "G#5",
          "ticks": 2208,
          "time": 8.903231,
          "velocity": 0.7874015748031497
        },
        {
          "duration": 0.09677424999999928,
          "durationTicks": 24,
          "midi": 84,
          "name": "C6",
          "ticks": 2208,
          "time": 8.903231,
          "velocity": 0.7874015748031497
        },
        {
          "duration": 0.09677424999999928,
          "durationTicks": 24,
          "midi": 80,
          "name": "G#5",
          "ticks": 2280,
          "time": 9.19355375,
          "velocity": 0.7874015748031497
        },
        {
          "duration": 0.09677424999999928,
          "durationTicks": 24,
          "midi": 84,
          "name": "C6",
          "ticks": 2280,
          "time": 9.19355375,
          "velocity": 0.7874015748031497
        },
        {
          "duration": 0.09677424999999928,
          "durationTicks": 24,
          "midi": 80,
          "name": "G#5",
          "ticks": 2352,
          "time": 9.4838765,
          "velocity": 0.7874015748031497
        },
        {
          "duration": 0.09677424999999928,
          "durationTicks": 24,
          "midi": 84,
          "name": "C6",
          "ticks": 2352,
          "time": 9.4838765,
          "velocity": 0.7874015748031497
        },
        {
          "duration": 0.09677424999999928,
          "durationTicks": 24,
          "midi": 85,
          "name": "C#6",
          "ticks": 2400,
          "time": 9.677425,
          "velocity": 0.7874015748031497
        },
        {
          "duration": 0.09677425000000106,
          "durationTicks": 24,
          "midi": 82,
          "name": "A#5",
          "ticks": 2424,
          "time": 9.774199249999999,
          "velocity": 0.7874015748031497
        },
        {
          "duration": 0.09677424999999928,
          "durationTicks": 24,
          "midi": 77,
          "name": "F5",
          "ticks": 2448,
          "time": 9.8709735,
          "velocity": 0.7874015748031497
        },
        {
          "duration": 0.09677424999999928,
          "durationTicks": 24,
          "midi": 85,
          "name": "C#6",
          "ticks": 2472,
          "time": 9.96774775,
          "velocity": 0.7874015748031497
        },
        {
          "duration": 0.09677425000000106,
          "durationTicks": 24,
          "midi": 82,
          "name": "A#5",
          "ticks": 2496,
          "time": 10.064521999999998,
          "velocity": 0.7874015748031497
        },
        {
          "duration": 0.09677424999999928,
          "durationTicks": 24,
          "midi": 77,
          "name": "F5",
          "ticks": 2520,
          "time": 10.16129625,
          "velocity": 0.7874015748031497
        },
        {
          "duration": 0.09677425000000106,
          "durationTicks": 24,
          "midi": 85,
          "name": "C#6",
          "ticks": 2544,
          "time": 10.258070499999999,
          "velocity": 0.7874015748031497
        },
        {
          "duration": 0.09677424999999928,
          "durationTicks": 24,
          "midi": 82,
          "name": "A#5",
          "ticks": 2568,
          "time": 10.35484475,
          "velocity": 0.7874015748031497
        },
        {
          "duration": 0.09677424999999928,
          "durationTicks": 24,
          "midi": 77,
          "name": "F5",
          "ticks": 2592,
          "time": 10.451618999999999,
          "velocity": 0.7874015748031497
        },
        {
          "duration": 0.09677425000000106,
          "durationTicks": 24,
          "midi": 85,
          "name": "C#6",
          "ticks": 2616,
          "time": 10.548393249999998,
          "velocity": 0.7874015748031497
        },
        {
          "duration": 0.09677424999999928,
          "durationTicks": 24,
          "midi": 82,
          "name": "A#5",
          "ticks": 2640,
          "time": 10.6451675,
          "velocity": 0.7874015748031497
        },
        {
          "duration": 0.09677425000000106,
          "durationTicks": 24,
          "midi": 77,
          "name": "F5",
          "ticks": 2664,
          "time": 10.741941749999999,
          "velocity": 0.7874015748031497
        },
        {
          "duration": 0.09677424999999928,
          "durationTicks": 24,
          "midi": 87,
          "name": "D#6",
          "ticks": 2688,
          "time": 10.838716,
          "velocity": 0.7874015748031497
        },
        {
          "duration": 0.09677424999999928,
          "durationTicks": 24,
          "midi": 84,
          "name": "C6",
          "ticks": 2688,
          "time": 10.838716,
          "velocity": 0.7874015748031497
        },
        {
          "duration": 0.09677424999999928,
          "durationTicks": 24,
          "midi": 84,
          "name": "C6",
          "ticks": 2760,
          "time": 11.12903875,
          "velocity": 0.7874015748031497
        },
        {
          "duration": 0.09677424999999928,
          "durationTicks": 24,
          "midi": 87,
          "name": "D#6",
          "ticks": 2760,
          "time": 11.12903875,
          "velocity": 0.7874015748031497
        },
        {
          "duration": 0.09677424999999928,
          "durationTicks": 24,
          "midi": 87,
          "name": "D#6",
          "ticks": 2832,
          "time": 11.419361499999999,
          "velocity": 0.7874015748031497
        },
        {
          "duration": 0.09677424999999928,
          "durationTicks": 24,
          "midi": 84,
          "name": "C6",
          "ticks": 2832,
          "time": 11.419361499999999,
          "velocity": 0.7874015748031497
        },
        {
          "duration": 0.09677424999999928,
          "durationTicks": 24,
          "midi": 85,
          "name": "C#6",
          "ticks": 2880,
          "time": 11.61291,
          "velocity": 0.7874015748031497
        },
        {
          "duration": 0.09677425000000106,
          "durationTicks": 24,
          "midi": 82,
          "name": "A#5",
          "ticks": 2904,
          "time": 11.709684249999999,
          "velocity": 0.7874015748031497
        },
        {
          "duration": 0.09677424999999928,
          "durationTicks": 24,
          "midi": 77,
          "name": "F5",
          "ticks": 2928,
          "time": 11.8064585,
          "velocity": 0.7874015748031497
        },
        {
          "duration": 0.09677424999999928,
          "durationTicks": 24,
          "midi": 85,
          "name": "C#6",
          "ticks": 2952,
          "time": 11.903232749999999,
          "velocity": 0.7874015748031497
        },
        {
          "duration": 0.09677425000000106,
          "durationTicks": 24,
          "midi": 82,
          "name": "A#5",
          "ticks": 2976,
          "time": 12.000006999999998,
          "velocity": 0.7874015748031497
        },
        {
          "duration": 0.09677424999999928,
          "durationTicks": 24,
          "midi": 77,
          "name": "F5",
          "ticks": 3000,
          "time": 12.09678125,
          "velocity": 0.7874015748031497
        },
        {
          "duration": 0.09677425000000106,
          "durationTicks": 24,
          "midi": 85,
          "name": "C#6",
          "ticks": 3024,
          "time": 12.193555499999999,
          "velocity": 0.7874015748031497
        },
        {
          "duration": 0.09677424999999928,
          "durationTicks": 24,
          "midi": 82,
          "name": "A#5",
          "ticks": 3048,
          "time": 12.29032975,
          "velocity": 0.7874015748031497
        },
        {
          "duration": 0.09677424999999928,
          "durationTicks": 24,
          "midi": 77,
          "name": "F5",
          "ticks": 3072,
          "time": 12.387103999999999,
          "velocity": 0.7874015748031497
        },
        {
          "duration": 0.09677425000000106,
          "durationTicks": 24,
          "midi": 85,
          "name": "C#6",
          "ticks": 3096,
          "time": 12.483878249999998,
          "velocity": 0.7874015748031497
        },
        {
          "duration": 0.09677424999999928,
          "durationTicks": 24,
          "midi": 82,
          "name": "A#5",
          "ticks": 3120,
          "time": 12.5806525,
          "velocity": 0.7874015748031497
        },
        {
          "duration": 0.09677425000000106,
          "durationTicks": 24,
          "midi": 77,
          "name": "F5",
          "ticks": 3144,
          "time": 12.677426749999999,
          "velocity": 0.7874015748031497
        },
        {
          "duration": 0.09677424999999928,
          "durationTicks": 24,
          "midi": 80,
          "name": "G#5",
          "ticks": 3168,
          "time": 12.774201,
          "velocity": 0.7874015748031497
        },
        {
          "duration": 0.09677424999999928,
          "durationTicks": 24,
          "midi": 84,
          "name": "C6",
          "ticks": 3168,
          "time": 12.774201,
          "velocity": 0.7874015748031497
        },
        {
          "duration": 0.09677424999999928,
          "durationTicks": 24,
          "midi": 80,
          "name": "G#5",
          "ticks": 3240,
          "time": 13.06452375,
          "velocity": 0.7874015748031497
        },
        {
          "duration": 0.09677424999999928,
          "durationTicks": 24,
          "midi": 84,
          "name": "C6",
          "ticks": 3240,
          "time": 13.06452375,
          "velocity": 0.7874015748031497
        },
        {
          "duration": 0.09677424999999928,
          "durationTicks": 24,
          "midi": 80,
          "name": "G#5",
          "ticks": 3312,
          "time": 13.354846499999999,
          "velocity": 0.7874015748031497
        },
        {
          "duration": 0.09677424999999928,
          "durationTicks": 24,
          "midi": 84,
          "name": "C6",
          "ticks": 3312,
          "time": 13.354846499999999,
          "velocity": 0.7874015748031497
        },
        {
          "duration": 0.09677424999999928,
          "durationTicks": 24,
          "midi": 85,
          "name": "C#6",
          "ticks": 3360,
          "time": 13.548395,
          "velocity": 0.7874015748031497
        },
        {
          "duration": 0.09677425000000106,
          "durationTicks": 24,
          "midi": 82,
          "name": "A#5",
          "ticks": 3384,
          "time": 13.645169249999999,
          "velocity": 0.7874015748031497
        },
        {
          "duration": 0.09677424999999928,
          "durationTicks": 24,
          "midi": 77,
          "name": "F5",
          "ticks": 3408,
          "time": 13.7419435,
          "velocity": 0.7874015748031497
        },
        {
          "duration": 0.09677424999999928,
          "durationTicks": 24,
          "midi": 85,
          "name": "C#6",
          "ticks": 3432,
          "time": 13.838717749999999,
          "velocity": 0.7874015748031497
        },
        {
          "duration": 0.09677425000000106,
          "durationTicks": 24,
          "midi": 82,
          "name": "A#5",
          "ticks": 3456,
          "time": 13.935491999999998,
          "velocity": 0.7874015748031497
        },
        {
          "duration": 0.09677424999999928,
          "durationTicks": 24,
          "midi": 77,
          "name": "F5",
          "ticks": 3480,
          "time": 14.03226625,
          "velocity": 0.7874015748031497
        },
        {
          "duration": 0.09677425000000106,
          "durationTicks": 24,
          "midi": 85,
          "name": "C#6",
          "ticks": 3504,
          "time": 14.129040499999999,
          "velocity": 0.7874015748031497
        },
        {
          "duration": 0.09677424999999928,
          "durationTicks": 24,
          "midi": 82,
          "name": "A#5",
          "ticks": 3528,
          "time": 14.22581475,
          "velocity": 0.7874015748031497
        },
        {
          "duration": 0.09677424999999928,
          "durationTicks": 24,
          "midi": 77,
          "name": "F5",
          "ticks": 3552,
          "time": 14.322588999999999,
          "velocity": 0.7874015748031497
        },
        {
          "duration": 0.09677425000000106,
          "durationTicks": 24,
          "midi": 85,
          "name": "C#6",
          "ticks": 3576,
          "time": 14.419363249999998,
          "velocity": 0.7874015748031497
        },
        {
          "duration": 0.09677424999999928,
          "durationTicks": 24,
          "midi": 82,
          "name": "A#5",
          "ticks": 3600,
          "time": 14.5161375,
          "velocity": 0.7874015748031497
        },
        {
          "duration": 0.09677425000000106,
          "durationTicks": 24,
          "midi": 77,
          "name": "F5",
          "ticks": 3624,
          "time": 14.612911749999999,
          "velocity": 0.7874015748031497
        },
        {
          "duration": 0.09677424999999928,
          "durationTicks": 24,
          "midi": 84,
          "name": "C6",
          "ticks": 3648,
          "time": 14.709686,
          "velocity": 0.7874015748031497
        },
        {
          "duration": 0.09677424999999928,
          "durationTicks": 24,
          "midi": 87,
          "name": "D#6",
          "ticks": 3648,
          "time": 14.709686,
          "velocity": 0.7874015748031497
        },
        {
          "duration": 0.09677424999999928,
          "durationTicks": 24,
          "midi": 87,
          "name": "D#6",
          "ticks": 3720,
          "time": 15.00000875,
          "velocity": 0.7874015748031497
        },
        {
          "duration": 0.09677424999999928,
          "durationTicks": 24,
          "midi": 84,
          "name": "C6",
          "ticks": 3720,
          "time": 15.00000875,
          "velocity": 0.7874015748031497
        },
        {
          "duration": 0.09677424999999928,
          "durationTicks": 24,
          "midi": 84,
          "name": "C6",
          "ticks": 3792,
          "time": 15.290331499999999,
          "velocity": 0.7874015748031497
        },
        {
          "duration": 0.09677424999999928,
          "durationTicks": 24,
          "midi": 87,
          "name": "D#6",
          "ticks": 3792,
          "time": 15.290331499999999,
          "velocity": 0.7874015748031497
        },
        {
          "duration": 0.19354850000000035,
          "durationTicks": 48,
          "midi": 77,
          "name": "F5",
          "ticks": 3840,
          "time": 15.48388,
          "velocity": 0.7874015748031497
        },
        {
          "duration": 0.19354850000000035,
          "durationTicks": 48,
          "midi": 73,
          "name": "C#5",
          "ticks": 3936,
          "time": 15.870976999999998,
          "velocity": 0.7874015748031497
        },
        {
          "duration": 0.19354850000000212,
          "durationTicks": 48,
          "midi": 76,
          "name": "E5",
          "ticks": 4032,
          "time": 16.258073999999997,
          "velocity": 0.7874015748031497
        },
        {
          "duration": 0.19354850000000212,
          "durationTicks": 48,
          "midi": 72,
          "name": "C5",
          "ticks": 4128,
          "time": 16.645170999999998,
          "velocity": 0.7874015748031497
        },
        {
          "duration": 0.19354849999999857,
          "durationTicks": 48,
          "midi": 79,
          "name": "G5",
          "ticks": 4224,
          "time": 17.032268,
          "velocity": 0.7874015748031497
        },
        {
          "duration": 0.19354849999999857,
          "durationTicks": 48,
          "midi": 76,
          "name": "E5",
          "ticks": 4320,
          "time": 17.419365,
          "velocity": 0.7874015748031497
        },
        {
          "duration": 0.19354849999999857,
          "durationTicks": 48,
          "midi": 75,
          "name": "D#5",
          "ticks": 4416,
          "time": 17.806462,
          "velocity": 0.7874015748031497
        },
        {
          "duration": 0.19354850000000212,
          "durationTicks": 48,
          "midi": 78,
          "name": "F#5",
          "ticks": 4512,
          "time": 18.193558999999997,
          "velocity": 0.7874015748031497
        },
        {
          "duration": 0.19354850000000212,
          "durationTicks": 48,
          "midi": 77,
          "name": "F5",
          "ticks": 4608,
          "time": 18.580655999999998,
          "velocity": 0.7874015748031497
        },
        {
          "duration": 0.09677424999999928,
          "durationTicks": 24,
          "midi": 82,
          "name": "A#5",
          "ticks": 4656,
          "time": 18.7742045,
          "velocity": 0.7874015748031497
        },
        {
          "duration": 0.09677424999999928,
          "durationTicks": 24,
          "midi": 85,
          "name": "C#6",
          "ticks": 4656,
          "time": 18.7742045,
          "velocity": 0.7874015748031497
        },
        {
          "duration": 0.19354849999999857,
          "durationTicks": 48,
          "midi": 73,
          "name": "C#5",
          "ticks": 4704,
          "time": 18.967753,
          "velocity": 0.7874015748031497
        },
        {
          "duration": 0.09677425000000284,
          "durationTicks": 24,
          "midi": 82,
          "name": "A#5",
          "ticks": 4752,
          "time": 19.161301499999997,
          "velocity": 0.7874015748031497
        },
        {
          "duration": 0.09677425000000284,
          "durationTicks": 24,
          "midi": 85,
          "name": "C#6",
          "ticks": 4752,
          "time": 19.161301499999997,
          "velocity": 0.7874015748031497
        },
        {
          "duration": 0.19354849999999857,
          "durationTicks": 48,
          "midi": 76,
          "name": "E5",
          "ticks": 4800,
          "time": 19.35485,
          "velocity": 0.7874015748031497
        },
        {
          "duration": 0.09677424999999928,
          "durationTicks": 24,
          "midi": 81,
          "name": "A5",
          "ticks": 4848,
          "time": 19.548398499999998,
          "velocity": 0.7874015748031497
        },
        {
          "duration": 0.09677424999999928,
          "durationTicks": 24,
          "midi": 84,
          "name": "C6",
          "ticks": 4848,
          "time": 19.548398499999998,
          "velocity": 0.7874015748031497
        },
        {
          "duration": 0.19354849999999857,
          "durationTicks": 48,
          "midi": 72,
          "name": "C5",
          "ticks": 4896,
          "time": 19.741947,
          "velocity": 0.7874015748031497
        },
        {
          "duration": 0.09677424999999928,
          "durationTicks": 24,
          "midi": 81,
          "name": "A5",
          "ticks": 4944,
          "time": 19.9354955,
          "velocity": 0.7874015748031497
        },
        {
          "duration": 0.09677424999999928,
          "durationTicks": 24,
          "midi": 84,
          "name": "C6",
          "ticks": 4944,
          "time": 19.9354955,
          "velocity": 0.7874015748031497
        },
        {
          "duration": 0.19354850000000212,
          "durationTicks": 48,
          "midi": 79,
          "name": "G5",
          "ticks": 4992,
          "time": 20.129043999999997,
          "velocity": 0.7874015748031497
        },
        {
          "duration": 0.09677424999999928,
          "durationTicks": 24,
          "midi": 84,
          "name": "C6",
          "ticks": 5040,
          "time": 20.3225925,
          "velocity": 0.7874015748031497
        },
        {
          "duration": 0.09677424999999928,
          "durationTicks": 24,
          "midi": 88,
          "name": "E6",
          "ticks": 5040,
          "time": 20.3225925,
          "velocity": 0.7874015748031497
        },
        {
          "duration": 0.19354850000000212,
          "durationTicks": 48,
          "midi": 76,
          "name": "E5",
          "ticks": 5088,
          "time": 20.516140999999998,
          "velocity": 0.7874015748031497
        },
        {
          "duration": 0.09677424999999928,
          "durationTicks": 24,
          "midi": 84,
          "name": "C6",
          "ticks": 5136,
          "time": 20.7096895,
          "velocity": 0.7874015748031497
        },
        {
          "duration": 0.09677424999999928,
          "durationTicks": 24,
          "midi": 88,
          "name": "E6",
          "ticks": 5136,
          "time": 20.7096895,
          "velocity": 0.7874015748031497
        },
        {
          "duration": 0.7741940000000014,
          "durationTicks": 192,
          "midi": 75,
          "name": "D#5",
          "ticks": 5184,
          "time": 20.903237999999998,
          "velocity": 0.7874015748031497
        },
        {
          "duration": 0.09677425000000284,
          "durationTicks": 24,
          "midi": 83,
          "name": "B5",
          "ticks": 5232,
          "time": 21.096786499999997,
          "velocity": 0.7874015748031497
        },
        {
          "duration": 0.09677425000000284,
          "durationTicks": 24,
          "midi": 87,
          "name": "D#6",
          "ticks": 5232,
          "time": 21.096786499999997,
          "velocity": 0.7874015748031497
        },
        {
          "duration": 0.09677424999999928,
          "durationTicks": 24,
          "midi": 83,
          "name": "B5",
          "ticks": 5328,
          "time": 21.483883499999997,
          "velocity": 0.7874015748031497
        },
        {
          "duration": 0.09677424999999928,
          "durationTicks": 24,
          "midi": 87,
          "name": "D#6",
          "ticks": 5328,
          "time": 21.483883499999997,
          "velocity": 0.7874015748031497
        },
        {
          "duration": 0.19354849999999857,
          "durationTicks": 48,
          "midi": 77,
          "name": "F5",
          "ticks": 5376,
          "time": 21.677432,
          "velocity": 0.7874015748031497
        },
        {
          "duration": 0.09677424999999928,
          "durationTicks": 24,
          "midi": 82,
          "name": "A#5",
          "ticks": 5424,
          "time": 21.870980499999998,
          "velocity": 0.7874015748031497
        },
        {
          "duration": 0.09677424999999928,
          "durationTicks": 24,
          "midi": 85,
          "name": "C#6",
          "ticks": 5424,
          "time": 21.870980499999998,
          "velocity": 0.7874015748031497
        },
        {
          "duration": 0.19354850000000212,
          "durationTicks": 48,
          "midi": 73,
          "name": "C#5",
          "ticks": 5472,
          "time": 22.064528999999997,
          "velocity": 0.7874015748031497
        },
        {
          "duration": 0.09677424999999928,
          "durationTicks": 24,
          "midi": 82,
          "name": "A#5",
          "ticks": 5520,
          "time": 22.2580775,
          "velocity": 0.7874015748031497
        },
        {
          "duration": 0.09677424999999928,
          "durationTicks": 24,
          "midi": 85,
          "name": "C#6",
          "ticks": 5520,
          "time": 22.2580775,
          "velocity": 0.7874015748031497
        },
        {
          "duration": 0.19354850000000212,
          "durationTicks": 48,
          "midi": 76,
          "name": "E5",
          "ticks": 5568,
          "time": 22.451625999999997,
          "velocity": 0.7874015748031497
        },
        {
          "duration": 0.09677424999999928,
          "durationTicks": 24,
          "midi": 81,
          "name": "A5",
          "ticks": 5616,
          "time": 22.6451745,
          "velocity": 0.7874015748031497
        },
        {
          "duration": 0.09677424999999928,
          "durationTicks": 24,
          "midi": 84,
          "name": "C6",
          "ticks": 5616,
          "time": 22.6451745,
          "velocity": 0.7874015748031497
        },
        {
          "duration": 0.19354849999999857,
          "durationTicks": 48,
          "midi": 72,
          "name": "C5",
          "ticks": 5664,
          "time": 22.838722999999998,
          "velocity": 0.7874015748031497
        },
        {
          "duration": 0.09677425000000284,
          "durationTicks": 24,
          "midi": 81,
          "name": "A5",
          "ticks": 5712,
          "time": 23.032271499999997,
          "velocity": 0.7874015748031497
        },
        {
          "duration": 0.09677425000000284,
          "durationTicks": 24,
          "midi": 84,
          "name": "C6",
          "ticks": 5712,
          "time": 23.032271499999997,
          "velocity": 0.7874015748031497
        },
        {
          "duration": 0.19354849999999857,
          "durationTicks": 48,
          "midi": 79,
          "name": "G5",
          "ticks": 5760,
          "time": 23.22582,
          "velocity": 0.7874015748031497
        },
        {
          "duration": 0.09677424999999928,
          "durationTicks": 24,
          "midi": 84,
          "name": "C6",
          "ticks": 5808,
          "time": 23.419368499999997,
          "velocity": 0.7874015748031497
        },
        {
          "duration": 0.09677424999999928,
          "durationTicks": 24,
          "midi": 88,
          "name": "E6",
          "ticks": 5808,
          "time": 23.419368499999997,
          "velocity": 0.7874015748031497
        },
        {
          "duration": 0.19354849999999857,
          "durationTicks": 48,
          "midi": 76,
          "name": "E5",
          "ticks": 5856,
          "time": 23.612917,
          "velocity": 0.7874015748031497
        },
        {
          "duration": 0.09677424999999928,
          "durationTicks": 24,
          "midi": 84,
          "name": "C6",
          "ticks": 5904,
          "time": 23.806465499999998,
          "velocity": 0.7874015748031497
        },
        {
          "duration": 0.09677424999999928,
          "durationTicks": 24,
          "midi": 88,
          "name": "E6",
          "ticks": 5904,
          "time": 23.806465499999998,
          "velocity": 0.7874015748031497
        },
        {
          "duration": 0.19354850000000212,
          "durationTicks": 48,
          "midi": 75,
          "name": "D#5",
          "ticks": 5952,
          "time": 24.000013999999997,
          "velocity": 0.7874015748031497
        },
        {
          "duration": 0.09677424999999928,
          "durationTicks": 24,
          "midi": 83,
          "name": "B5",
          "ticks": 6000,
          "time": 24.1935625,
          "velocity": 0.7874015748031497
        },
        {
          "duration": 0.09677424999999928,
          "durationTicks": 24,
          "midi": 87,
          "name": "D#6",
          "ticks": 6000,
          "time": 24.1935625,
          "velocity": 0.7874015748031497
        },
        {
          "duration": 0.19354850000000212,
          "durationTicks": 48,
          "midi": 78,
          "name": "F#5",
          "ticks": 6048,
          "time": 24.387110999999997,
          "velocity": 0.7874015748031497
        },
        {
          "duration": 0.09677424999999928,
          "durationTicks": 24,
          "midi": 83,
          "name": "B5",
          "ticks": 6096,
          "time": 24.5806595,
          "velocity": 0.7874015748031497
        },
        {
          "duration": 0.09677424999999928,
          "durationTicks": 24,
          "midi": 87,
          "name": "D#6",
          "ticks": 6096,
          "time": 24.5806595,
          "velocity": 0.7874015748031497
        },
        {
          "duration": 0.19354849999999857,
          "durationTicks": 48,
          "midi": 77,
          "name": "F5",
          "ticks": 6144,
          "time": 24.774207999999998,
          "velocity": 0.7874015748031497
        },
        {
          "duration": 0.09677425000000284,
          "durationTicks": 24,
          "midi": 82,
          "name": "A#5",
          "ticks": 6192,
          "time": 24.967756499999997,
          "velocity": 0.7874015748031497
        },
        {
          "duration": 0.09677425000000284,
          "durationTicks": 24,
          "midi": 85,
          "name": "C#6",
          "ticks": 6192,
          "time": 24.967756499999997,
          "velocity": 0.7874015748031497
        },
        {
          "duration": 0.19354849999999857,
          "durationTicks": 48,
          "midi": 73,
          "name": "C#5",
          "ticks": 6240,
          "time": 25.161305,
          "velocity": 0.7874015748031497
        },
        {
          "duration": 0.09677424999999928,
          "durationTicks": 24,
          "midi": 82,
          "name": "A#5",
          "ticks": 6288,
          "time": 25.354853499999997,
          "velocity": 0.7874015748031497
        },
        {
          "duration": 0.09677424999999928,
          "durationTicks": 24,
          "midi": 85,
          "name": "C#6",
          "ticks": 6288,
          "time": 25.354853499999997,
          "velocity": 0.7874015748031497
        },
        {
          "duration": 0.19354849999999857,
          "durationTicks": 48,
          "midi": 76,
          "name": "E5",
          "ticks": 6336,
          "time": 25.548402,
          "velocity": 0.7874015748031497
        },
        {
          "duration": 0.09677424999999928,
          "durationTicks": 24,
          "midi": 81,
          "name": "A5",
          "ticks": 6384,
          "time": 25.741950499999998,
          "velocity": 0.7874015748031497
        },
        {
          "duration": 0.09677424999999928,
          "durationTicks": 24,
          "midi": 84,
          "name": "C6",
          "ticks": 6384,
          "time": 25.741950499999998,
          "velocity": 0.7874015748031497
        },
        {
          "duration": 0.19354850000000212,
          "durationTicks": 48,
          "midi": 72,
          "name": "C5",
          "ticks": 6432,
          "time": 25.935498999999997,
          "velocity": 0.7874015748031497
        },
        {
          "duration": 0.09677424999999928,
          "durationTicks": 24,
          "midi": 81,
          "name": "A5",
          "ticks": 6480,
          "time": 26.1290475,
          "velocity": 0.7874015748031497
        },
        {
          "duration": 0.09677424999999928,
          "durationTicks": 24,
          "midi": 84,
          "name": "C6",
          "ticks": 6480,
          "time": 26.1290475,
          "velocity": 0.7874015748031497
        },
        {
          "duration": 0.19354850000000212,
          "durationTicks": 48,
          "midi": 91,
          "name": "G6",
          "ticks": 6528,
          "time": 26.322595999999997,
          "velocity": 0.7874015748031497
        },
        {
          "duration": 0.09677424999999928,
          "durationTicks": 24,
          "midi": 84,
          "name": "C6",
          "ticks": 6576,
          "time": 26.5161445,
          "velocity": 0.7874015748031497
        },
        {
          "duration": 0.09677424999999928,
          "durationTicks": 24,
          "midi": 88,
          "name": "E6",
          "ticks": 6576,
          "time": 26.5161445,
          "velocity": 0.7874015748031497
        },
        {
          "duration": 0.19354849999999857,
          "durationTicks": 48,
          "midi": 88,
          "name": "E6",
          "ticks": 6624,
          "time": 26.709692999999998,
          "velocity": 0.7874015748031497
        },
        {
          "duration": 0.09677425000000284,
          "durationTicks": 24,
          "midi": 84,
          "name": "C6",
          "ticks": 6672,
          "time": 26.903241499999996,
          "velocity": 0.7874015748031497
        },
        {
          "duration": 0.09677425000000284,
          "durationTicks": 24,
          "midi": 88,
          "name": "E6",
          "ticks": 6672,
          "time": 26.903241499999996,
          "velocity": 0.7874015748031497
        },
        {
          "duration": 0.29032274999999785,
          "durationTicks": 72,
          "midi": 87,
          "name": "D#6",
          "ticks": 6720,
          "time": 27.09679,
          "velocity": 0.7874015748031497
        },
        {
          "duration": 0.09677424999999928,
          "durationTicks": 24,
          "midi": 83,
          "name": "B5",
          "ticks": 6768,
          "time": 27.290338499999997,
          "velocity": 0.7874015748031497
        },
        {
          "duration": 0.48387125,
          "durationTicks": 120,
          "midi": 87,
          "name": "D#6",
          "ticks": 6768,
          "time": 27.290338499999997,
          "velocity": 0.7874015748031497
        },
        {
          "duration": 0.09677424999999928,
          "durationTicks": 24,
          "midi": 83,
          "name": "B5",
          "ticks": 6864,
          "time": 27.677435499999998,
          "velocity": 0.7874015748031497
        },
        {
          "duration": 0.19354849999999857,
          "durationTicks": 48,
          "midi": 87,
          "name": "D#6",
          "ticks": 6864,
          "time": 27.677435499999998,
          "velocity": 0.7874015748031497
        },
        {
          "duration": 0.19354850000000212,
          "durationTicks": 48,
          "midi": 82,
          "name": "A#5",
          "ticks": 6912,
          "time": 27.870983999999996,
          "velocity": 0.7874015748031497
        },
        {
          "duration": 0.19354850000000212,
          "durationTicks": 48,
          "midi": 77,
          "name": "F5",
          "ticks": 6912,
          "time": 27.870983999999996,
          "velocity": 0.7874015748031497
        },
        {
          "duration": 0.19354850000000212,
          "durationTicks": 48,
          "midi": 89,
          "name": "F6",
          "ticks": 7008,
          "time": 28.258080999999997,
          "velocity": 0.7874015748031497
        },
        {
          "duration": 0.19354850000000212,
          "durationTicks": 48,
          "midi": 85,
          "name": "C#6",
          "ticks": 7008,
          "time": 28.258080999999997,
          "velocity": 0.7874015748031497
        },
        {
          "duration": 0.19354849999999857,
          "durationTicks": 48,
          "midi": 84,
          "name": "C6",
          "ticks": 7104,
          "time": 28.645177999999998,
          "velocity": 0.7874015748031497
        },
        {
          "duration": 0.19354849999999857,
          "durationTicks": 48,
          "midi": 77,
          "name": "F5",
          "ticks": 7104,
          "time": 28.645177999999998,
          "velocity": 0.7874015748031497
        },
        {
          "duration": 0.19354849999999857,
          "durationTicks": 48,
          "midi": 89,
          "name": "F6",
          "ticks": 7200,
          "time": 29.032275,
          "velocity": 0.7874015748031497
        },
        {
          "duration": 0.19354849999999857,
          "durationTicks": 48,
          "midi": 85,
          "name": "C#6",
          "ticks": 7200,
          "time": 29.032275,
          "velocity": 0.7874015748031497
        },
        {
          "duration": 0.19354849999999857,
          "durationTicks": 48,
          "midi": 85,
          "name": "C#6",
          "ticks": 7296,
          "time": 29.419372,
          "velocity": 0.7874015748031497
        },
        {
          "duration": 0.19354849999999857,
          "durationTicks": 48,
          "midi": 82,
          "name": "A#5",
          "ticks": 7296,
          "time": 29.419372,
          "velocity": 0.7874015748031497
        },
        {
          "duration": 0.19354850000000212,
          "durationTicks": 48,
          "midi": 87,
          "name": "D#6",
          "ticks": 7392,
          "time": 29.806468999999996,
          "velocity": 0.7874015748031497
        },
        {
          "duration": 0.19354850000000212,
          "durationTicks": 48,
          "midi": 84,
          "name": "C6",
          "ticks": 7392,
          "time": 29.806468999999996,
          "velocity": 0.7874015748031497
        },
        {
          "duration": 0.19354849999999857,
          "durationTicks": 48,
          "midi": 89,
          "name": "F6",
          "ticks": 7440,
          "time": 30.0000175,
          "velocity": 0.7874015748031497
        },
        {
          "duration": 0.19354849999999857,
          "durationTicks": 48,
          "midi": 85,
          "name": "C#6",
          "ticks": 7440,
          "time": 30.0000175,
          "velocity": 0.7874015748031497
        },
        {
          "duration": 0.19354850000000212,
          "durationTicks": 48,
          "midi": 87,
          "name": "D#6",
          "ticks": 7488,
          "time": 30.193565999999997,
          "velocity": 0.7874015748031497
        },
        {
          "duration": 0.19354850000000212,
          "durationTicks": 48,
          "midi": 84,
          "name": "C6",
          "ticks": 7488,
          "time": 30.193565999999997,
          "velocity": 0.7874015748031497
        },
        {
          "duration": 0.19354849999999857,
          "durationTicks": 48,
          "midi": 91,
          "name": "G6",
          "ticks": 7584,
          "time": 30.580662999999998,
          "velocity": 0.7874015748031497
        },
        {
          "duration": 0.19354849999999857,
          "durationTicks": 48,
          "midi": 87,
          "name": "D#6",
          "ticks": 7584,
          "time": 30.580662999999998,
          "velocity": 0.7874015748031497
        },
        {
          "duration": 0.19354849999999857,
          "durationTicks": 48,
          "midi": 94,
          "name": "A#6",
          "ticks": 7680,
          "time": 30.96776,
          "velocity": 0.7874015748031497
        },
        {
          "duration": 0.19354849999999857,
          "durationTicks": 48,
          "midi": 89,
          "name": "F6",
          "ticks": 7680,
          "time": 30.96776,
          "velocity": 0.7874015748031497
        },
        {
          "duration": 0.19354850000000212,
          "durationTicks": 48,
          "midi": 89,
          "name": "F6",
          "ticks": 7728,
          "time": 31.161308499999997,
          "velocity": 0.7874015748031497
        },
        {
          "duration": 0.19354850000000212,
          "durationTicks": 48,
          "midi": 85,
          "name": "C#6",
          "ticks": 7728,
          "time": 31.161308499999997,
          "velocity": 0.7874015748031497
        },
        {
          "duration": 0.19354849999999857,
          "durationTicks": 48,
          "midi": 96,
          "name": "C7",
          "ticks": 7776,
          "time": 31.354857,
          "velocity": 0.7874015748031497
        },
        {
          "duration": 0.19354849999999857,
          "durationTicks": 48,
          "midi": 92,
          "name": "G#6",
          "ticks": 7776,
          "time": 31.354857,
          "velocity": 0.7874015748031497
        },
        {
          "duration": 0.09677424999999928,
          "durationTicks": 24,
          "midi": 97,
          "name": "C#7",
          "ticks": 7824,
          "time": 31.548405499999998,
          "velocity": 0.7874015748031497
        },
        {
          "duration": 0.09677424999999928,
          "durationTicks": 24,
          "midi": 94,
          "name": "A#6",
          "ticks": 7824,
          "time": 31.548405499999998,
          "velocity": 0.7874015748031497
        },
        {
          "duration": 0.19354850000000212,
          "durationTicks": 48,
          "midi": 96,
          "name": "C7",
          "ticks": 7872,
          "time": 31.741953999999996,
          "velocity": 0.7874015748031497
        },
        {
          "duration": 0.19354850000000212,
          "durationTicks": 48,
          "midi": 92,
          "name": "G#6",
          "ticks": 7872,
          "time": 31.741953999999996,
          "velocity": 0.7874015748031497
        },
        {
          "duration": 0.09677424999999573,
          "durationTicks": 24,
          "midi": 97,
          "name": "C#7",
          "ticks": 7920,
          "time": 31.9355025,
          "velocity": 0.7874015748031497
        },
        {
          "duration": 0.09677424999999573,
          "durationTicks": 24,
          "midi": 94,
          "name": "A#6",
          "ticks": 7920,
          "time": 31.9355025,
          "velocity": 0.7874015748031497
        },
        {
          "duration": 0.09677425000000284,
          "durationTicks": 24,
          "midi": 96,
          "name": "C7",
          "ticks": 7944,
          "time": 32.032276749999994,
          "velocity": 0.7874015748031497
        },
        {
          "duration": 0.09677425000000284,
          "durationTicks": 24,
          "midi": 92,
          "name": "G#6",
          "ticks": 7944,
          "time": 32.032276749999994,
          "velocity": 0.7874015748031497
        },
        {
          "duration": 0.19354849999999857,
          "durationTicks": 48,
          "midi": 94,
          "name": "A#6",
          "ticks": 7968,
          "time": 32.129051,
          "velocity": 0.7874015748031497
        },
        {
          "duration": 0.19354849999999857,
          "durationTicks": 48,
          "midi": 85,
          "name": "C#6",
          "ticks": 7968,
          "time": 32.129051,
          "velocity": 0.7874015748031497
        },
        {
          "duration": 0.09677425000000284,
          "durationTicks": 24,
          "midi": 92,
          "name": "G#6",
          "ticks": 8016,
          "time": 32.322599499999995,
          "velocity": 0.7874015748031497
        },
        {
          "duration": 0.09677425000000284,
          "durationTicks": 24,
          "midi": 85,
          "name": "C#6",
          "ticks": 8016,
          "time": 32.322599499999995,
          "velocity": 0.7874015748031497
        },
        {
          "duration": 0.19354850000000567,
          "durationTicks": 48,
          "midi": 89,
          "name": "F6",
          "ticks": 8064,
          "time": 32.516147999999994,
          "velocity": 0.7874015748031497
        },
        {
          "duration": 0.19354850000000567,
          "durationTicks": 48,
          "midi": 85,
          "name": "C#6",
          "ticks": 8064,
          "time": 32.516147999999994,
          "velocity": 0.7874015748031497
        },
        {
          "duration": 0.09677424999999573,
          "durationTicks": 24,
          "midi": 92,
          "name": "G#6",
          "ticks": 8112,
          "time": 32.7096965,
          "velocity": 0.7874015748031497
        },
        {
          "duration": 0.09677424999999573,
          "durationTicks": 24,
          "midi": 89,
          "name": "F6",
          "ticks": 8112,
          "time": 32.7096965,
          "velocity": 0.7874015748031497
        },
        {
          "duration": 0.19354849999999857,
          "durationTicks": 48,
          "midi": 87,
          "name": "D#6",
          "ticks": 8160,
          "time": 32.903245,
          "velocity": 0.7874015748031497
        },
        {
          "duration": 0.19354849999999857,
          "durationTicks": 48,
          "midi": 84,
          "name": "C6",
          "ticks": 8160,
          "time": 32.903245,
          "velocity": 0.7874015748031497
        },
        {
          "duration": 0.09677425000000284,
          "durationTicks": 24,
          "midi": 89,
          "name": "F6",
          "ticks": 8208,
          "time": 33.0967935,
          "velocity": 0.7874015748031497
        },
        {
          "duration": 0.09677425000000284,
          "durationTicks": 24,
          "midi": 85,
          "name": "C#6",
          "ticks": 8208,
          "time": 33.0967935,
          "velocity": 0.7874015748031497
        },
        {
          "duration": 0.7741940000000014,
          "durationTicks": 192,
          "midi": 85,
          "name": "C#6",
          "ticks": 8256,
          "time": 33.290341999999995,
          "velocity": 0.7874015748031497
        },
        {
          "duration": 0.7741940000000014,
          "durationTicks": 192,
          "midi": 82,
          "name": "A#5",
          "ticks": 8256,
          "time": 33.290341999999995,
          "velocity": 0.7874015748031497
        },
        {
          "duration": 0.19354849999999857,
          "durationTicks": 48,
          "midi": 82,
          "name": "A#5",
          "ticks": 8448,
          "time": 34.064536,
          "velocity": 0.7874015748031497
        },
        {
          "duration": 0.19354849999999857,
          "durationTicks": 48,
          "midi": 77,
          "name": "F5",
          "ticks": 8448,
          "time": 34.064536,
          "velocity": 0.7874015748031497
        },
        {
          "duration": 0.19354850000000567,
          "durationTicks": 48,
          "midi": 89,
          "name": "F6",
          "ticks": 8544,
          "time": 34.451632999999994,
          "velocity": 0.7874015748031497
        },
        {
          "duration": 0.19354850000000567,
          "durationTicks": 48,
          "midi": 85,
          "name": "C#6",
          "ticks": 8544,
          "time": 34.451632999999994,
          "velocity": 0.7874015748031497
        },
        {
          "duration": 0.19354849999999857,
          "durationTicks": 48,
          "midi": 84,
          "name": "C6",
          "ticks": 8640,
          "time": 34.83873,
          "velocity": 0.7874015748031497
        },
        {
          "duration": 0.19354849999999857,
          "durationTicks": 48,
          "midi": 77,
          "name": "F5",
          "ticks": 8640,
          "time": 34.83873,
          "velocity": 0.7874015748031497
        },
        {
          "duration": 0.19354849999999857,
          "durationTicks": 48,
          "midi": 89,
          "name": "F6",
          "ticks": 8736,
          "time": 35.225826999999995,
          "velocity": 0.7874015748031497
        },
        {
          "duration": 0.19354849999999857,
          "durationTicks": 48,
          "midi": 85,
          "name": "C#6",
          "ticks": 8736,
          "time": 35.225826999999995,
          "velocity": 0.7874015748031497
        },
        {
          "duration": 0.19354849999999857,
          "durationTicks": 48,
          "midi": 85,
          "name": "C#6",
          "ticks": 8832,
          "time": 35.612924,
          "velocity": 0.7874015748031497
        },
        {
          "duration": 0.19354849999999857,
          "durationTicks": 48,
          "midi": 82,
          "name": "A#5",
          "ticks": 8832,
          "time": 35.612924,
          "velocity": 0.7874015748031497
        },
        {
          "duration": 0.19354849999999857,
          "durationTicks": 48,
          "midi": 87,
          "name": "D#6",
          "ticks": 8928,
          "time": 36.000021,
          "velocity": 0.7874015748031497
        },
        {
          "duration": 0.19354849999999857,
          "durationTicks": 48,
          "midi": 84,
          "name": "C6",
          "ticks": 8928,
          "time": 36.000021,
          "velocity": 0.7874015748031497
        },
        {
          "duration": 0.19354849999999857,
          "durationTicks": 48,
          "midi": 89,
          "name": "F6",
          "ticks": 8976,
          "time": 36.193569499999995,
          "velocity": 0.7874015748031497
        },
        {
          "duration": 0.19354849999999857,
          "durationTicks": 48,
          "midi": 85,
          "name": "C#6",
          "ticks": 8976,
          "time": 36.193569499999995,
          "velocity": 0.7874015748031497
        },
        {
          "duration": 0.19354850000000567,
          "durationTicks": 48,
          "midi": 87,
          "name": "D#6",
          "ticks": 9024,
          "time": 36.387117999999994,
          "velocity": 0.7874015748031497
        },
        {
          "duration": 0.19354850000000567,
          "durationTicks": 48,
          "midi": 84,
          "name": "C6",
          "ticks": 9024,
          "time": 36.387117999999994,
          "velocity": 0.7874015748031497
        },
        {
          "duration": 0.19354849999999857,
          "durationTicks": 48,
          "midi": 91,
          "name": "G6",
          "ticks": 9120,
          "time": 36.774215,
          "velocity": 0.7874015748031497
        },
        {
          "duration": 0.19354849999999857,
          "durationTicks": 48,
          "midi": 87,
          "name": "D#6",
          "ticks": 9120,
          "time": 36.774215,
          "velocity": 0.7874015748031497
        },
        {
          "duration": 0.19354849999999857,
          "durationTicks": 48,
          "midi": 94,
          "name": "A#6",
          "ticks": 9216,
          "time": 37.161311999999995,
          "velocity": 0.7874015748031497
        },
        {
          "duration": 0.19354849999999857,
          "durationTicks": 48,
          "midi": 89,
          "name": "F6",
          "ticks": 9216,
          "time": 37.161311999999995,
          "velocity": 0.7874015748031497
        },
        {
          "duration": 0.19354850000000567,
          "durationTicks": 48,
          "midi": 89,
          "name": "F6",
          "ticks": 9264,
          "time": 37.354860499999994,
          "velocity": 0.7874015748031497
        },
        {
          "duration": 0.19354850000000567,
          "durationTicks": 48,
          "midi": 85,
          "name": "C#6",
          "ticks": 9264,
          "time": 37.354860499999994,
          "velocity": 0.7874015748031497
        },
        {
          "duration": 0.19354849999999857,
          "durationTicks": 48,
          "midi": 96,
          "name": "C7",
          "ticks": 9312,
          "time": 37.548409,
          "velocity": 0.7874015748031497
        },
        {
          "duration": 0.19354849999999857,
          "durationTicks": 48,
          "midi": 92,
          "name": "G#6",
          "ticks": 9312,
          "time": 37.548409,
          "velocity": 0.7874015748031497
        },
        {
          "duration": 0.09677424999999573,
          "durationTicks": 24,
          "midi": 97,
          "name": "C#7",
          "ticks": 9360,
          "time": 37.7419575,
          "velocity": 0.7874015748031497
        },
        {
          "duration": 0.09677424999999573,
          "durationTicks": 24,
          "midi": 94,
          "name": "A#6",
          "ticks": 9360,
          "time": 37.7419575,
          "velocity": 0.7874015748031497
        },
        {
          "duration": 0.19354849999999857,
          "durationTicks": 48,
          "midi": 96,
          "name": "C7",
          "ticks": 9408,
          "time": 37.935506,
          "velocity": 0.7874015748031497
        },
        {
          "duration": 0.19354849999999857,
          "durationTicks": 48,
          "midi": 92,
          "name": "G#6",
          "ticks": 9408,
          "time": 37.935506,
          "velocity": 0.7874015748031497
        },
        {
          "duration": 0.09677425000000284,
          "durationTicks": 24,
          "midi": 97,
          "name": "C#7",
          "ticks": 9456,
          "time": 38.129054499999995,
          "velocity": 0.7874015748031497
        },
        {
          "duration": 0.09677425000000284,
          "durationTicks": 24,
          "midi": 94,
          "name": "A#6",
          "ticks": 9456,
          "time": 38.129054499999995,
          "velocity": 0.7874015748031497
        },
        {
          "duration": 0.09677424999999573,
          "durationTicks": 24,
          "midi": 96,
          "name": "C7",
          "ticks": 9480,
          "time": 38.22582875,
          "velocity": 0.7874015748031497
        },
        {
          "duration": 0.09677424999999573,
          "durationTicks": 24,
          "midi": 92,
          "name": "G#6",
          "ticks": 9480,
          "time": 38.22582875,
          "velocity": 0.7874015748031497
        },
        {
          "duration": 0.19354850000000567,
          "durationTicks": 48,
          "midi": 94,
          "name": "A#6",
          "ticks": 9504,
          "time": 38.322602999999994,
          "velocity": 0.7874015748031497
        },
        {
          "duration": 0.19354850000000567,
          "durationTicks": 48,
          "midi": 85,
          "name": "C#6",
          "ticks": 9504,
          "time": 38.322602999999994,
          "velocity": 0.7874015748031497
        },
        {
          "duration": 0.09677424999999573,
          "durationTicks": 24,
          "midi": 92,
          "name": "G#6",
          "ticks": 9552,
          "time": 38.5161515,
          "velocity": 0.7874015748031497
        },
        {
          "duration": 0.09677424999999573,
          "durationTicks": 24,
          "midi": 85,
          "name": "C#6",
          "ticks": 9552,
          "time": 38.5161515,
          "velocity": 0.7874015748031497
        },
        {
          "duration": 1.5483879999999957,
          "durationTicks": 384,
          "midi": 94,
          "name": "A#6",
          "ticks": 9600,
          "time": 38.7097,
          "velocity": 0.7874015748031497
        },
        {
          "duration": 1.5483879999999957,
          "durationTicks": 384,
          "midi": 89,
          "name": "F6",
          "ticks": 9600,
          "time": 38.7097,
          "velocity": 0.7874015748031497
        },
        {
          "duration": 0.19354850000000567,
          "durationTicks": 48,
          "midi": 82,
          "name": "A#5",
          "ticks": 9984,
          "time": 40.258087999999994,
          "velocity": 0.7874015748031497
        },
        {
          "duration": 0.19354850000000567,
          "durationTicks": 48,
          "midi": 77,
          "name": "F5",
          "ticks": 9984,
          "time": 40.258087999999994,
          "velocity": 0.7874015748031497
        },
        {
          "duration": 0.19354849999999857,
          "durationTicks": 48,
          "midi": 89,
          "name": "F6",
          "ticks": 10080,
          "time": 40.645185,
          "velocity": 0.7874015748031497
        },
        {
          "duration": 0.19354849999999857,
          "durationTicks": 48,
          "midi": 85,
          "name": "C#6",
          "ticks": 10080,
          "time": 40.645185,
          "velocity": 0.7874015748031497
        },
        {
          "duration": 0.19354849999999857,
          "durationTicks": 48,
          "midi": 84,
          "name": "C6",
          "ticks": 10176,
          "time": 41.032281999999995,
          "velocity": 0.7874015748031497
        },
        {
          "duration": 0.19354849999999857,
          "durationTicks": 48,
          "midi": 77,
          "name": "F5",
          "ticks": 10176,
          "time": 41.032281999999995,
          "velocity": 0.7874015748031497
        },
        {
          "duration": 0.19354849999999857,
          "durationTicks": 48,
          "midi": 89,
          "name": "F6",
          "ticks": 10272,
          "time": 41.419379,
          "velocity": 0.7874015748031497
        },
        {
          "duration": 0.19354849999999857,
          "durationTicks": 48,
          "midi": 85,
          "name": "C#6",
          "ticks": 10272,
          "time": 41.419379,
          "velocity": 0.7874015748031497
        },
        {
          "duration": 0.19354849999999857,
          "durationTicks": 48,
          "midi": 85,
          "name": "C#6",
          "ticks": 10368,
          "time": 41.806475999999996,
          "velocity": 0.7874015748031497
        },
        {
          "duration": 0.19354849999999857,
          "durationTicks": 48,
          "midi": 82,
          "name": "A#5",
          "ticks": 10368,
          "time": 41.806475999999996,
          "velocity": 0.7874015748031497
        },
        {
          "duration": 0.19354850000000567,
          "durationTicks": 48,
          "midi": 87,
          "name": "D#6",
          "ticks": 10464,
          "time": 42.193572999999994,
          "velocity": 0.7874015748031497
        },
        {
          "duration": 0.19354850000000567,
          "durationTicks": 48,
          "midi": 84,
          "name": "C6",
          "ticks": 10464,
          "time": 42.193572999999994,
          "velocity": 0.7874015748031497
        },
        {
          "duration": 0.19354849999999857,
          "durationTicks": 48,
          "midi": 89,
          "name": "F6",
          "ticks": 10512,
          "time": 42.3871215,
          "velocity": 0.7874015748031497
        },
        {
          "duration": 0.19354849999999857,
          "durationTicks": 48,
          "midi": 85,
          "name": "C#6",
          "ticks": 10512,
          "time": 42.3871215,
          "velocity": 0.7874015748031497
        },
        {
          "duration": 0.19354849999999857,
          "durationTicks": 48,
          "midi": 87,
          "name": "D#6",
          "ticks": 10560,
          "time": 42.58067,
          "velocity": 0.7874015748031497
        },
        {
          "duration": 0.19354849999999857,
          "durationTicks": 48,
          "midi": 84,
          "name": "C6",
          "ticks": 10560,
          "time": 42.58067,
          "velocity": 0.7874015748031497
        },
        {
          "duration": 0.19354849999999857,
          "durationTicks": 48,
          "midi": 91,
          "name": "G6",
          "ticks": 10656,
          "time": 42.967766999999995,
          "velocity": 0.7874015748031497
        },
        {
          "duration": 0.19354849999999857,
          "durationTicks": 48,
          "midi": 87,
          "name": "D#6",
          "ticks": 10656,
          "time": 42.967766999999995,
          "velocity": 0.7874015748031497
        },
        {
          "duration": 0.19354849999999857,
          "durationTicks": 48,
          "midi": 94,
          "name": "A#6",
          "ticks": 10752,
          "time": 43.354864,
          "velocity": 0.7874015748031497
        },
        {
          "duration": 0.19354849999999857,
          "durationTicks": 48,
          "midi": 89,
          "name": "F6",
          "ticks": 10752,
          "time": 43.354864,
          "velocity": 0.7874015748031497
        },
        {
          "duration": 0.19354849999999857,
          "durationTicks": 48,
          "midi": 89,
          "name": "F6",
          "ticks": 10800,
          "time": 43.5484125,
          "velocity": 0.7874015748031497
        },
        {
          "duration": 0.19354849999999857,
          "durationTicks": 48,
          "midi": 85,
          "name": "C#6",
          "ticks": 10800,
          "time": 43.5484125,
          "velocity": 0.7874015748031497
        },
        {
          "duration": 0.19354849999999857,
          "durationTicks": 48,
          "midi": 96,
          "name": "C7",
          "ticks": 10848,
          "time": 43.741960999999996,
          "velocity": 0.7874015748031497
        },
        {
          "duration": 0.19354849999999857,
          "durationTicks": 48,
          "midi": 92,
          "name": "G#6",
          "ticks": 10848,
          "time": 43.741960999999996,
          "velocity": 0.7874015748031497
        },
        {
          "duration": 0.09677425000000284,
          "durationTicks": 24,
          "midi": 97,
          "name": "C#7",
          "ticks": 10896,
          "time": 43.935509499999995,
          "velocity": 0.7874015748031497
        },
        {
          "duration": 0.09677425000000284,
          "durationTicks": 24,
          "midi": 94,
          "name": "A#6",
          "ticks": 10896,
          "time": 43.935509499999995,
          "velocity": 0.7874015748031497
        },
        {
          "duration": 0.19354850000000567,
          "durationTicks": 48,
          "midi": 96,
          "name": "C7",
          "ticks": 10944,
          "time": 44.12905799999999,
          "velocity": 0.7874015748031497
        },
        {
          "duration": 0.19354850000000567,
          "durationTicks": 48,
          "midi": 92,
          "name": "G#6",
          "ticks": 10944,
          "time": 44.12905799999999,
          "velocity": 0.7874015748031497
        },
        {
          "duration": 0.09677424999999573,
          "durationTicks": 24,
          "midi": 97,
          "name": "C#7",
          "ticks": 10992,
          "time": 44.3226065,
          "velocity": 0.7874015748031497
        },
        {
          "duration": 0.09677424999999573,
          "durationTicks": 24,
          "midi": 94,
          "name": "A#6",
          "ticks": 10992,
          "time": 44.3226065,
          "velocity": 0.7874015748031497
        },
        {
          "duration": 0.09677425000000284,
          "durationTicks": 24,
          "midi": 96,
          "name": "C7",
          "ticks": 11016,
          "time": 44.419380749999995,
          "velocity": 0.7874015748031497
        },
        {
          "duration": 0.09677425000000284,
          "durationTicks": 24,
          "midi": 92,
          "name": "G#6",
          "ticks": 11016,
          "time": 44.419380749999995,
          "velocity": 0.7874015748031497
        },
        {
          "duration": 0.19354849999999857,
          "durationTicks": 48,
          "midi": 94,
          "name": "A#6",
          "ticks": 11040,
          "time": 44.516155,
          "velocity": 0.7874015748031497
        },
        {
          "duration": 0.19354849999999857,
          "durationTicks": 48,
          "midi": 85,
          "name": "C#6",
          "ticks": 11040,
          "time": 44.516155,
          "velocity": 0.7874015748031497
        },
        {
          "duration": 0.09677425000000284,
          "durationTicks": 24,
          "midi": 92,
          "name": "G#6",
          "ticks": 11088,
          "time": 44.709703499999996,
          "velocity": 0.7874015748031497
        },
        {
          "duration": 0.09677425000000284,
          "durationTicks": 24,
          "midi": 85,
          "name": "C#6",
          "ticks": 11088,
          "time": 44.709703499999996,
          "velocity": 0.7874015748031497
        },
        {
          "duration": 0.19354849999999857,
          "durationTicks": 48,
          "midi": 89,
          "name": "F6",
          "ticks": 11136,
          "time": 44.903251999999995,
          "velocity": 0.7874015748031497
        },
        {
          "duration": 0.19354849999999857,
          "durationTicks": 48,
          "midi": 85,
          "name": "C#6",
          "ticks": 11136,
          "time": 44.903251999999995,
          "velocity": 0.7874015748031497
        },
        {
          "duration": 0.09677425000000284,
          "durationTicks": 24,
          "midi": 92,
          "name": "G#6",
          "ticks": 11184,
          "time": 45.09680049999999,
          "velocity": 0.7874015748031497
        },
        {
          "duration": 0.09677425000000284,
          "durationTicks": 24,
          "midi": 89,
          "name": "F6",
          "ticks": 11184,
          "time": 45.09680049999999,
          "velocity": 0.7874015748031497
        },
        {
          "duration": 0.19354849999999857,
          "durationTicks": 48,
          "midi": 87,
          "name": "D#6",
          "ticks": 11232,
          "time": 45.290349,
          "velocity": 0.7874015748031497
        },
        {
          "duration": 0.19354849999999857,
          "durationTicks": 48,
          "midi": 84,
          "name": "C6",
          "ticks": 11232,
          "time": 45.290349,
          "velocity": 0.7874015748031497
        },
        {
          "duration": 0.09677424999999573,
          "durationTicks": 24,
          "midi": 89,
          "name": "F6",
          "ticks": 11280,
          "time": 45.4838975,
          "velocity": 0.7874015748031497
        },
        {
          "duration": 0.09677424999999573,
          "durationTicks": 24,
          "midi": 85,
          "name": "C#6",
          "ticks": 11280,
          "time": 45.4838975,
          "velocity": 0.7874015748031497
        },
        {
          "duration": 0.7741940000000014,
          "durationTicks": 192,
          "midi": 85,
          "name": "C#6",
          "ticks": 11328,
          "time": 45.677445999999996,
          "velocity": 0.7874015748031497
        },
        {
          "duration": 0.7741940000000014,
          "durationTicks": 192,
          "midi": 82,
          "name": "A#5",
          "ticks": 11328,
          "time": 45.677445999999996,
          "velocity": 0.7874015748031497
        },
        {
          "duration": 0.19354849999999857,
          "durationTicks": 48,
          "midi": 82,
          "name": "A#5",
          "ticks": 11520,
          "time": 46.45164,
          "velocity": 0.7874015748031497
        },
        {
          "duration": 0.19354849999999857,
          "durationTicks": 48,
          "midi": 77,
          "name": "F5",
          "ticks": 11520,
          "time": 46.45164,
          "velocity": 0.7874015748031497
        },
        {
          "duration": 0.19354849999999857,
          "durationTicks": 48,
          "midi": 89,
          "name": "F6",
          "ticks": 11616,
          "time": 46.838736999999995,
          "velocity": 0.7874015748031497
        },
        {
          "duration": 0.19354849999999857,
          "durationTicks": 48,
          "midi": 85,
          "name": "C#6",
          "ticks": 11616,
          "time": 46.838736999999995,
          "velocity": 0.7874015748031497
        },
        {
          "duration": 0.19354849999999857,
          "durationTicks": 48,
          "midi": 84,
          "name": "C6",
          "ticks": 11712,
          "time": 47.225834,
          "velocity": 0.7874015748031497
        },
        {
          "duration": 0.19354849999999857,
          "durationTicks": 48,
          "midi": 77,
          "name": "F5",
          "ticks": 11712,
          "time": 47.225834,
          "velocity": 0.7874015748031497
        },
        {
          "duration": 0.19354849999999857,
          "durationTicks": 48,
          "midi": 89,
          "name": "F6",
          "ticks": 11808,
          "time": 47.612930999999996,
          "velocity": 0.7874015748031497
        },
        {
          "duration": 0.19354849999999857,
          "durationTicks": 48,
          "midi": 85,
          "name": "C#6",
          "ticks": 11808,
          "time": 47.612930999999996,
          "velocity": 0.7874015748031497
        },
        {
          "duration": 0.19354850000000567,
          "durationTicks": 48,
          "midi": 85,
          "name": "C#6",
          "ticks": 11904,
          "time": 48.00002799999999,
          "velocity": 0.7874015748031497
        },
        {
          "duration": 0.19354850000000567,
          "durationTicks": 48,
          "midi": 82,
          "name": "A#5",
          "ticks": 11904,
          "time": 48.00002799999999,
          "velocity": 0.7874015748031497
        },
        {
          "duration": 0.19354849999999857,
          "durationTicks": 48,
          "midi": 87,
          "name": "D#6",
          "ticks": 12000,
          "time": 48.387125,
          "velocity": 0.7874015748031497
        },
        {
          "duration": 0.19354849999999857,
          "durationTicks": 48,
          "midi": 84,
          "name": "C6",
          "ticks": 12000,
          "time": 48.387125,
          "velocity": 0.7874015748031497
        },
        {
          "duration": 0.19354849999999857,
          "durationTicks": 48,
          "midi": 89,
          "name": "F6",
          "ticks": 12048,
          "time": 48.580673499999996,
          "velocity": 0.7874015748031497
        },
        {
          "duration": 0.19354849999999857,
          "durationTicks": 48,
          "midi": 85,
          "name": "C#6",
          "ticks": 12048,
          "time": 48.580673499999996,
          "velocity": 0.7874015748031497
        },
        {
          "duration": 0.19354849999999857,
          "durationTicks": 48,
          "midi": 87,
          "name": "D#6",
          "ticks": 12096,
          "time": 48.774221999999995,
          "velocity": 0.7874015748031497
        },
        {
          "duration": 0.19354849999999857,
          "durationTicks": 48,
          "midi": 84,
          "name": "C6",
          "ticks": 12096,
          "time": 48.774221999999995,
          "velocity": 0.7874015748031497
        },
        {
          "duration": 0.19354849999999857,
          "durationTicks": 48,
          "midi": 91,
          "name": "G6",
          "ticks": 12192,
          "time": 49.161319,
          "velocity": 0.7874015748031497
        },
        {
          "duration": 0.19354849999999857,
          "durationTicks": 48,
          "midi": 87,
          "name": "D#6",
          "ticks": 12192,
          "time": 49.161319,
          "velocity": 0.7874015748031497
        },
        {
          "duration": 0.19354849999999857,
          "durationTicks": 48,
          "midi": 94,
          "name": "A#6",
          "ticks": 12288,
          "time": 49.548415999999996,
          "velocity": 0.7874015748031497
        },
        {
          "duration": 0.19354849999999857,
          "durationTicks": 48,
          "midi": 89,
          "name": "F6",
          "ticks": 12288,
          "time": 49.548415999999996,
          "velocity": 0.7874015748031497
        },
        {
          "duration": 0.19354849999999857,
          "durationTicks": 48,
          "midi": 89,
          "name": "F6",
          "ticks": 12336,
          "time": 49.741964499999995,
          "velocity": 0.7874015748031497
        },
        {
          "duration": 0.19354849999999857,
          "durationTicks": 48,
          "midi": 85,
          "name": "C#6",
          "ticks": 12336,
          "time": 49.741964499999995,
          "velocity": 0.7874015748031497
        },
        {
          "duration": 0.19354850000000567,
          "durationTicks": 48,
          "midi": 96,
          "name": "C7",
          "ticks": 12384,
          "time": 49.93551299999999,
          "velocity": 0.7874015748031497
        },
        {
          "duration": 0.19354850000000567,
          "durationTicks": 48,
          "midi": 92,
          "name": "G#6",
          "ticks": 12384,
          "time": 49.93551299999999,
          "velocity": 0.7874015748031497
        },
        {
          "duration": 0.09677424999999573,
          "durationTicks": 24,
          "midi": 97,
          "name": "C#7",
          "ticks": 12432,
          "time": 50.1290615,
          "velocity": 0.7874015748031497
        },
        {
          "duration": 0.09677424999999573,
          "durationTicks": 24,
          "midi": 94,
          "name": "A#6",
          "ticks": 12432,
          "time": 50.1290615,
          "velocity": 0.7874015748031497
        },
        {
          "duration": 0.19354849999999857,
          "durationTicks": 48,
          "midi": 96,
          "name": "C7",
          "ticks": 12480,
          "time": 50.32261,
          "velocity": 0.7874015748031497
        },
        {
          "duration": 0.19354849999999857,
          "durationTicks": 48,
          "midi": 92,
          "name": "G#6",
          "ticks": 12480,
          "time": 50.32261,
          "velocity": 0.7874015748031497
        },
        {
          "duration": 0.09677425000000284,
          "durationTicks": 24,
          "midi": 97,
          "name": "C#7",
          "ticks": 12528,
          "time": 50.516158499999996,
          "velocity": 0.7874015748031497
        },
        {
          "duration": 0.09677425000000284,
          "durationTicks": 24,
          "midi": 94,
          "name": "A#6",
          "ticks": 12528,
          "time": 50.516158499999996,
          "velocity": 0.7874015748031497
        },
        {
          "duration": 0.09677424999999573,
          "durationTicks": 24,
          "midi": 96,
          "name": "C7",
          "ticks": 12552,
          "time": 50.61293275,
          "velocity": 0.7874015748031497
        },
        {
          "duration": 0.09677424999999573,
          "durationTicks": 24,
          "midi": 92,
          "name": "G#6",
          "ticks": 12552,
          "time": 50.61293275,
          "velocity": 0.7874015748031497
        },
        {
          "duration": 0.19354849999999857,
          "durationTicks": 48,
          "midi": 94,
          "name": "A#6",
          "ticks": 12576,
          "time": 50.709706999999995,
          "velocity": 0.7874015748031497
        },
        {
          "duration": 0.19354849999999857,
          "durationTicks": 48,
          "midi": 85,
          "name": "C#6",
          "ticks": 12576,
          "time": 50.709706999999995,
          "velocity": 0.7874015748031497
        },
        {
          "duration": 0.09677425000000284,
          "durationTicks": 24,
          "midi": 92,
          "name": "G#6",
          "ticks": 12624,
          "time": 50.90325549999999,
          "velocity": 0.7874015748031497
        },
        {
          "duration": 0.09677425000000284,
          "durationTicks": 24,
          "midi": 85,
          "name": "C#6",
          "ticks": 12624,
          "time": 50.90325549999999,
          "velocity": 0.7874015748031497
        },
        {
          "duration": 1.5483879999999957,
          "durationTicks": 384,
          "midi": 94,
          "name": "A#6",
          "ticks": 12672,
          "time": 51.096804,
          "velocity": 0.7874015748031497
        },
        {
          "duration": 1.5483879999999957,
          "durationTicks": 384,
          "midi": 89,
          "name": "F6",
          "ticks": 12672,
          "time": 51.096804,
          "velocity": 0.7874015748031497
        },
        {
          "duration": 0.19354850000000567,
          "durationTicks": 48,
          "midi": 77,
          "name": "F5",
          "ticks": 20736,
          "time": 83.61295199999999,
          "velocity": 0.7874015748031497
        },
        {
          "duration": 0.19354850000000567,
          "durationTicks": 48,
          "midi": 73,
          "name": "C#5",
          "ticks": 20832,
          "time": 84.00004899999999,
          "velocity": 0.7874015748031497
        },
        {
          "duration": 0.19354850000000567,
          "durationTicks": 48,
          "midi": 76,
          "name": "E5",
          "ticks": 20928,
          "time": 84.38714599999999,
          "velocity": 0.7874015748031497
        },
        {
          "duration": 0.19354849999999146,
          "durationTicks": 48,
          "midi": 72,
          "name": "C5",
          "ticks": 21024,
          "time": 84.774243,
          "velocity": 0.7874015748031497
        },
        {
          "duration": 0.19354849999999146,
          "durationTicks": 48,
          "midi": 79,
          "name": "G5",
          "ticks": 21120,
          "time": 85.16134,
          "velocity": 0.7874015748031497
        },
        {
          "duration": 0.19354850000000567,
          "durationTicks": 48,
          "midi": 76,
          "name": "E5",
          "ticks": 21216,
          "time": 85.54843699999999,
          "velocity": 0.7874015748031497
        },
        {
          "duration": 0.19354850000000567,
          "durationTicks": 48,
          "midi": 75,
          "name": "D#5",
          "ticks": 21312,
          "time": 85.93553399999999,
          "velocity": 0.7874015748031497
        },
        {
          "duration": 0.19354850000000567,
          "durationTicks": 48,
          "midi": 78,
          "name": "F#5",
          "ticks": 21408,
          "time": 86.32263099999999,
          "velocity": 0.7874015748031497
        },
        {
          "duration": 0.19354849999999146,
          "durationTicks": 48,
          "midi": 77,
          "name": "F5",
          "ticks": 21504,
          "time": 86.709728,
          "velocity": 0.7874015748031497
        },
        {
          "duration": 0.09677425000000994,
          "durationTicks": 24,
          "midi": 85,
          "name": "C#6",
          "ticks": 21552,
          "time": 86.90327649999999,
          "velocity": 0.7874015748031497
        },
        {
          "duration": 0.09677425000000994,
          "durationTicks": 24,
          "midi": 82,
          "name": "A#5",
          "ticks": 21552,
          "time": 86.90327649999999,
          "velocity": 0.7874015748031497
        },
        {
          "duration": 0.19354849999999146,
          "durationTicks": 48,
          "midi": 73,
          "name": "C#5",
          "ticks": 21600,
          "time": 87.096825,
          "velocity": 0.7874015748031497
        },
        {
          "duration": 0.09677425000000994,
          "durationTicks": 24,
          "midi": 85,
          "name": "C#6",
          "ticks": 21648,
          "time": 87.29037349999999,
          "velocity": 0.7874015748031497
        },
        {
          "duration": 0.09677425000000994,
          "durationTicks": 24,
          "midi": 82,
          "name": "A#5",
          "ticks": 21648,
          "time": 87.29037349999999,
          "velocity": 0.7874015748031497
        },
        {
          "duration": 0.19354850000000567,
          "durationTicks": 48,
          "midi": 76,
          "name": "E5",
          "ticks": 21696,
          "time": 87.48392199999999,
          "velocity": 0.7874015748031497
        },
        {
          "duration": 0.09677424999999573,
          "durationTicks": 24,
          "midi": 81,
          "name": "A5",
          "ticks": 21744,
          "time": 87.6774705,
          "velocity": 0.7874015748031497
        },
        {
          "duration": 0.09677424999999573,
          "durationTicks": 24,
          "midi": 84,
          "name": "C6",
          "ticks": 21744,
          "time": 87.6774705,
          "velocity": 0.7874015748031497
        },
        {
          "duration": 0.19354850000000567,
          "durationTicks": 48,
          "midi": 72,
          "name": "C5",
          "ticks": 21792,
          "time": 87.87101899999999,
          "velocity": 0.7874015748031497
        },
        {
          "duration": 0.09677424999999573,
          "durationTicks": 24,
          "midi": 84,
          "name": "C6",
          "ticks": 21840,
          "time": 88.0645675,
          "velocity": 0.7874015748031497
        },
        {
          "duration": 0.09677424999999573,
          "durationTicks": 24,
          "midi": 81,
          "name": "A5",
          "ticks": 21840,
          "time": 88.0645675,
          "velocity": 0.7874015748031497
        },
        {
          "duration": 0.19354850000000567,
          "durationTicks": 48,
          "midi": 79,
          "name": "G5",
          "ticks": 21888,
          "time": 88.25811599999999,
          "velocity": 0.7874015748031497
        },
        {
          "duration": 0.09677424999999573,
          "durationTicks": 24,
          "midi": 84,
          "name": "C6",
          "ticks": 21936,
          "time": 88.45166449999999,
          "velocity": 0.7874015748031497
        },
        {
          "duration": 0.09677424999999573,
          "durationTicks": 24,
          "midi": 88,
          "name": "E6",
          "ticks": 21936,
          "time": 88.45166449999999,
          "velocity": 0.7874015748031497
        },
        {
          "duration": 0.19354849999999146,
          "durationTicks": 48,
          "midi": 76,
          "name": "E5",
          "ticks": 21984,
          "time": 88.645213,
          "velocity": 0.7874015748031497
        },
        {
          "duration": 0.09677425000000994,
          "durationTicks": 24,
          "midi": 84,
          "name": "C6",
          "ticks": 22032,
          "time": 88.83876149999999,
          "velocity": 0.7874015748031497
        },
        {
          "duration": 0.09677425000000994,
          "durationTicks": 24,
          "midi": 88,
          "name": "E6",
          "ticks": 22032,
          "time": 88.83876149999999,
          "velocity": 0.7874015748031497
        },
        {
          "duration": 0.7741939999999943,
          "durationTicks": 192,
          "midi": 75,
          "name": "D#5",
          "ticks": 22080,
          "time": 89.03231,
          "velocity": 0.7874015748031497
        },
        {
          "duration": 0.09677425000000994,
          "durationTicks": 24,
          "midi": 83,
          "name": "B5",
          "ticks": 22128,
          "time": 89.22585849999999,
          "velocity": 0.7874015748031497
        },
        {
          "duration": 0.09677425000000994,
          "durationTicks": 24,
          "midi": 87,
          "name": "D#6",
          "ticks": 22128,
          "time": 89.22585849999999,
          "velocity": 0.7874015748031497
        },
        {
          "duration": 0.09677424999999573,
          "durationTicks": 24,
          "midi": 83,
          "name": "B5",
          "ticks": 22224,
          "time": 89.6129555,
          "velocity": 0.7874015748031497
        },
        {
          "duration": 0.09677424999999573,
          "durationTicks": 24,
          "midi": 87,
          "name": "D#6",
          "ticks": 22224,
          "time": 89.6129555,
          "velocity": 0.7874015748031497
        },
        {
          "duration": 0.19354850000000567,
          "durationTicks": 48,
          "midi": 77,
          "name": "F5",
          "ticks": 22272,
          "time": 89.80650399999999,
          "velocity": 0.7874015748031497
        },
        {
          "duration": 0.09677424999999573,
          "durationTicks": 24,
          "midi": 82,
          "name": "A#5",
          "ticks": 22320,
          "time": 90.0000525,
          "velocity": 0.7874015748031497
        },
        {
          "duration": 0.09677424999999573,
          "durationTicks": 24,
          "midi": 85,
          "name": "C#6",
          "ticks": 22320,
          "time": 90.0000525,
          "velocity": 0.7874015748031497
        },
        {
          "duration": 0.19354850000000567,
          "durationTicks": 48,
          "midi": 73,
          "name": "C#5",
          "ticks": 22368,
          "time": 90.19360099999999,
          "velocity": 0.7874015748031497
        },
        {
          "duration": 0.09677424999999573,
          "durationTicks": 24,
          "midi": 85,
          "name": "C#6",
          "ticks": 22416,
          "time": 90.38714949999999,
          "velocity": 0.7874015748031497
        },
        {
          "duration": 0.09677424999999573,
          "durationTicks": 24,
          "midi": 82,
          "name": "A#5",
          "ticks": 22416,
          "time": 90.38714949999999,
          "velocity": 0.7874015748031497
        },
        {
          "duration": 0.19354849999999146,
          "durationTicks": 48,
          "midi": 76,
          "name": "E5",
          "ticks": 22464,
          "time": 90.580698,
          "velocity": 0.7874015748031497
        },
        {
          "duration": 0.09677425000000994,
          "durationTicks": 24,
          "midi": 84,
          "name": "C6",
          "ticks": 22512,
          "time": 90.77424649999999,
          "velocity": 0.7874015748031497
        },
        {
          "duration": 0.09677425000000994,
          "durationTicks": 24,
          "midi": 81,
          "name": "A5",
          "ticks": 22512,
          "time": 90.77424649999999,
          "velocity": 0.7874015748031497
        },
        {
          "duration": 0.19354849999999146,
          "durationTicks": 48,
          "midi": 72,
          "name": "C5",
          "ticks": 22560,
          "time": 90.967795,
          "velocity": 0.7874015748031497
        },
        {
          "duration": 0.09677425000000994,
          "durationTicks": 24,
          "midi": 84,
          "name": "C6",
          "ticks": 22608,
          "time": 91.16134349999999,
          "velocity": 0.7874015748031497
        },
        {
          "duration": 0.09677425000000994,
          "durationTicks": 24,
          "midi": 81,
          "name": "A5",
          "ticks": 22608,
          "time": 91.16134349999999,
          "velocity": 0.7874015748031497
        },
        {
          "duration": 0.19354850000000567,
          "durationTicks": 48,
          "midi": 79,
          "name": "G5",
          "ticks": 22656,
          "time": 91.35489199999999,
          "velocity": 0.7874015748031497
        },
        {
          "duration": 0.09677424999999573,
          "durationTicks": 24,
          "midi": 84,
          "name": "C6",
          "ticks": 22704,
          "time": 91.5484405,
          "velocity": 0.7874015748031497
        },
        {
          "duration": 0.09677424999999573,
          "durationTicks": 24,
          "midi": 88,
          "name": "E6",
          "ticks": 22704,
          "time": 91.5484405,
          "velocity": 0.7874015748031497
        },
        {
          "duration": 0.19354850000000567,
          "durationTicks": 48,
          "midi": 76,
          "name": "E5",
          "ticks": 22752,
          "time": 91.74198899999999,
          "velocity": 0.7874015748031497
        },
        {
          "duration": 0.09677424999999573,
          "durationTicks": 24,
          "midi": 88,
          "name": "E6",
          "ticks": 22800,
          "time": 91.9355375,
          "velocity": 0.7874015748031497
        },
        {
          "duration": 0.09677424999999573,
          "durationTicks": 24,
          "midi": 84,
          "name": "C6",
          "ticks": 22800,
          "time": 91.9355375,
          "velocity": 0.7874015748031497
        },
        {
          "duration": 0.19354850000000567,
          "durationTicks": 48,
          "midi": 75,
          "name": "D#5",
          "ticks": 22848,
          "time": 92.12908599999999,
          "velocity": 0.7874015748031497
        },
        {
          "duration": 0.09677424999999573,
          "durationTicks": 24,
          "midi": 83,
          "name": "B5",
          "ticks": 22896,
          "time": 92.32263449999999,
          "velocity": 0.7874015748031497
        },
        {
          "duration": 0.09677424999999573,
          "durationTicks": 24,
          "midi": 87,
          "name": "D#6",
          "ticks": 22896,
          "time": 92.32263449999999,
          "velocity": 0.7874015748031497
        },
        {
          "duration": 0.19354849999999146,
          "durationTicks": 48,
          "midi": 78,
          "name": "F#5",
          "ticks": 22944,
          "time": 92.516183,
          "velocity": 0.7874015748031497
        },
        {
          "duration": 0.09677425000000994,
          "durationTicks": 24,
          "midi": 83,
          "name": "B5",
          "ticks": 22992,
          "time": 92.70973149999999,
          "velocity": 0.7874015748031497
        },
        {
          "duration": 0.09677425000000994,
          "durationTicks": 24,
          "midi": 87,
          "name": "D#6",
          "ticks": 22992,
          "time": 92.70973149999999,
          "velocity": 0.7874015748031497
        },
        {
          "duration": 0.19354849999999146,
          "durationTicks": 48,
          "midi": 77,
          "name": "F5",
          "ticks": 23040,
          "time": 92.90328,
          "velocity": 0.7874015748031497
        },
        {
          "duration": 0.09677425000000994,
          "durationTicks": 24,
          "midi": 82,
          "name": "A#5",
          "ticks": 23088,
          "time": 93.09682849999999,
          "velocity": 0.7874015748031497
        },
        {
          "duration": 0.09677425000000994,
          "durationTicks": 24,
          "midi": 85,
          "name": "C#6",
          "ticks": 23088,
          "time": 93.09682849999999,
          "velocity": 0.7874015748031497
        },
        {
          "duration": 0.19354850000000567,
          "durationTicks": 48,
          "midi": 73,
          "name": "C#5",
          "ticks": 23136,
          "time": 93.29037699999999,
          "velocity": 0.7874015748031497
        },
        {
          "duration": 0.09677424999999573,
          "durationTicks": 24,
          "midi": 82,
          "name": "A#5",
          "ticks": 23184,
          "time": 93.4839255,
          "velocity": 0.7874015748031497
        },
        {
          "duration": 0.09677424999999573,
          "durationTicks": 24,
          "midi": 85,
          "name": "C#6",
          "ticks": 23184,
          "time": 93.4839255,
          "velocity": 0.7874015748031497
        },
        {
          "duration": 0.19354850000000567,
          "durationTicks": 48,
          "midi": 76,
          "name": "E5",
          "ticks": 23232,
          "time": 93.67747399999999,
          "velocity": 0.7874015748031497
        },
        {
          "duration": 0.09677424999999573,
          "durationTicks": 24,
          "midi": 84,
          "name": "C6",
          "ticks": 23280,
          "time": 93.8710225,
          "velocity": 0.7874015748031497
        },
        {
          "duration": 0.09677424999999573,
          "durationTicks": 24,
          "midi": 81,
          "name": "A5",
          "ticks": 23280,
          "time": 93.8710225,
          "velocity": 0.7874015748031497
        },
        {
          "duration": 0.19354850000000567,
          "durationTicks": 48,
          "midi": 72,
          "name": "C5",
          "ticks": 23328,
          "time": 94.06457099999999,
          "velocity": 0.7874015748031497
        },
        {
          "duration": 0.09677424999999573,
          "durationTicks": 24,
          "midi": 81,
          "name": "A5",
          "ticks": 23376,
          "time": 94.25811949999999,
          "velocity": 0.7874015748031497
        },
        {
          "duration": 0.09677424999999573,
          "durationTicks": 24,
          "midi": 84,
          "name": "C6",
          "ticks": 23376,
          "time": 94.25811949999999,
          "velocity": 0.7874015748031497
        },
        {
          "duration": 0.19354849999999146,
          "durationTicks": 48,
          "midi": 91,
          "name": "G6",
          "ticks": 23424,
          "time": 94.451668,
          "velocity": 0.7874015748031497
        },
        {
          "duration": 0.09677425000000994,
          "durationTicks": 24,
          "midi": 88,
          "name": "E6",
          "ticks": 23472,
          "time": 94.64521649999999,
          "velocity": 0.7874015748031497
        },
        {
          "duration": 0.09677425000000994,
          "durationTicks": 24,
          "midi": 84,
          "name": "C6",
          "ticks": 23472,
          "time": 94.64521649999999,
          "velocity": 0.7874015748031497
        },
        {
          "duration": 0.19354849999999146,
          "durationTicks": 48,
          "midi": 88,
          "name": "E6",
          "ticks": 23520,
          "time": 94.838765,
          "velocity": 0.7874015748031497
        },
        {
          "duration": 0.09677425000000994,
          "durationTicks": 24,
          "midi": 88,
          "name": "E6",
          "ticks": 23568,
          "time": 95.03231349999999,
          "velocity": 0.7874015748031497
        },
        {
          "duration": 0.09677425000000994,
          "durationTicks": 24,
          "midi": 84,
          "name": "C6",
          "ticks": 23568,
          "time": 95.03231349999999,
          "velocity": 0.7874015748031497
        },
        {
          "duration": 0.2903227500000014,
          "durationTicks": 72,
          "midi": 87,
          "name": "D#6",
          "ticks": 23616,
          "time": 95.22586199999999,
          "velocity": 0.7874015748031497
        },
        {
          "duration": 0.48387124999999287,
          "durationTicks": 120,
          "midi": 87,
          "name": "D#6",
          "ticks": 23664,
          "time": 95.4194105,
          "velocity": 0.7874015748031497
        },
        {
          "duration": 0.09677424999999573,
          "durationTicks": 24,
          "midi": 83,
          "name": "B5",
          "ticks": 23664,
          "time": 95.4194105,
          "velocity": 0.7874015748031497
        },
        {
          "duration": 0.19354849999999146,
          "durationTicks": 48,
          "midi": 87,
          "name": "D#6",
          "ticks": 23760,
          "time": 95.8065075,
          "velocity": 0.7874015748031497
        },
        {
          "duration": 0.09677424999999573,
          "durationTicks": 24,
          "midi": 83,
          "name": "B5",
          "ticks": 23760,
          "time": 95.8065075,
          "velocity": 0.7874015748031497
        },
        {
          "duration": 0.19354849999999146,
          "durationTicks": 48,
          "midi": 82,
          "name": "A#5",
          "ticks": 24000,
          "time": 96.77425,
          "velocity": 0.7874015748031497
        },
        {
          "duration": 0.19354849999999146,
          "durationTicks": 48,
          "midi": 77,
          "name": "F5",
          "ticks": 24000,
          "time": 96.77425,
          "velocity": 0.7874015748031497
        },
        {
          "duration": 0.19354850000000567,
          "durationTicks": 48,
          "midi": 89,
          "name": "F6",
          "ticks": 24096,
          "time": 97.16134699999999,
          "velocity": 0.7874015748031497
        },
        {
          "duration": 0.19354850000000567,
          "durationTicks": 48,
          "midi": 85,
          "name": "C#6",
          "ticks": 24096,
          "time": 97.16134699999999,
          "velocity": 0.7874015748031497
        },
        {
          "duration": 0.19354850000000567,
          "durationTicks": 48,
          "midi": 84,
          "name": "C6",
          "ticks": 24192,
          "time": 97.54844399999999,
          "velocity": 0.7874015748031497
        },
        {
          "duration": 0.19354850000000567,
          "durationTicks": 48,
          "midi": 77,
          "name": "F5",
          "ticks": 24192,
          "time": 97.54844399999999,
          "velocity": 0.7874015748031497
        },
        {
          "duration": 0.19354850000000567,
          "durationTicks": 48,
          "midi": 89,
          "name": "F6",
          "ticks": 24288,
          "time": 97.93554099999999,
          "velocity": 0.7874015748031497
        },
        {
          "duration": 0.19354850000000567,
          "durationTicks": 48,
          "midi": 85,
          "name": "C#6",
          "ticks": 24288,
          "time": 97.93554099999999,
          "velocity": 0.7874015748031497
        },
        {
          "duration": 0.19354849999999146,
          "durationTicks": 48,
          "midi": 85,
          "name": "C#6",
          "ticks": 24384,
          "time": 98.322638,
          "velocity": 0.7874015748031497
        },
        {
          "duration": 0.19354849999999146,
          "durationTicks": 48,
          "midi": 82,
          "name": "A#5",
          "ticks": 24384,
          "time": 98.322638,
          "velocity": 0.7874015748031497
        },
        {
          "duration": 0.19354849999999146,
          "durationTicks": 48,
          "midi": 84,
          "name": "C6",
          "ticks": 24480,
          "time": 98.709735,
          "velocity": 0.7874015748031497
        },
        {
          "duration": 0.19354849999999146,
          "durationTicks": 48,
          "midi": 87,
          "name": "D#6",
          "ticks": 24480,
          "time": 98.709735,
          "velocity": 0.7874015748031497
        },
        {
          "duration": 0.19354850000000567,
          "durationTicks": 48,
          "midi": 85,
          "name": "C#6",
          "ticks": 24528,
          "time": 98.90328349999999,
          "velocity": 0.7874015748031497
        },
        {
          "duration": 0.19354850000000567,
          "durationTicks": 48,
          "midi": 89,
          "name": "F6",
          "ticks": 24528,
          "time": 98.90328349999999,
          "velocity": 0.7874015748031497
        },
        {
          "duration": 0.19354850000000567,
          "durationTicks": 48,
          "midi": 84,
          "name": "C6",
          "ticks": 24576,
          "time": 99.09683199999999,
          "velocity": 0.7874015748031497
        },
        {
          "duration": 0.19354850000000567,
          "durationTicks": 48,
          "midi": 87,
          "name": "D#6",
          "ticks": 24576,
          "time": 99.09683199999999,
          "velocity": 0.7874015748031497
        },
        {
          "duration": 0.19354850000000567,
          "durationTicks": 48,
          "midi": 87,
          "name": "D#6",
          "ticks": 24672,
          "time": 99.48392899999999,
          "velocity": 0.7874015748031497
        },
        {
          "duration": 0.19354850000000567,
          "durationTicks": 48,
          "midi": 91,
          "name": "G6",
          "ticks": 24672,
          "time": 99.48392899999999,
          "velocity": 0.7874015748031497
        },
        {
          "duration": 0.19354850000000567,
          "durationTicks": 48,
          "midi": 94,
          "name": "A#6",
          "ticks": 24768,
          "time": 99.87102599999999,
          "velocity": 0.7874015748031497
        },
        {
          "duration": 0.19354850000000567,
          "durationTicks": 48,
          "midi": 89,
          "name": "F6",
          "ticks": 24768,
          "time": 99.87102599999999,
          "velocity": 0.7874015748031497
        },
        {
          "duration": 0.19354850000000567,
          "durationTicks": 48,
          "midi": 89,
          "name": "F6",
          "ticks": 24816,
          "time": 100.06457449999999,
          "velocity": 0.7874015748031497
        },
        {
          "duration": 0.19354850000000567,
          "durationTicks": 48,
          "midi": 85,
          "name": "C#6",
          "ticks": 24816,
          "time": 100.06457449999999,
          "velocity": 0.7874015748031497
        },
        {
          "duration": 0.19354849999999146,
          "durationTicks": 48,
          "midi": 96,
          "name": "C7",
          "ticks": 24864,
          "time": 100.258123,
          "velocity": 0.7874015748031497
        },
        {
          "duration": 0.19354849999999146,
          "durationTicks": 48,
          "midi": 92,
          "name": "G#6",
          "ticks": 24864,
          "time": 100.258123,
          "velocity": 0.7874015748031497
        },
        {
          "duration": 0.09677424999999573,
          "durationTicks": 24,
          "midi": 97,
          "name": "C#7",
          "ticks": 24912,
          "time": 100.45167149999999,
          "velocity": 0.7874015748031497
        },
        {
          "duration": 0.09677424999999573,
          "durationTicks": 24,
          "midi": 94,
          "name": "A#6",
          "ticks": 24912,
          "time": 100.45167149999999,
          "velocity": 0.7874015748031497
        },
        {
          "duration": 0.19354849999999146,
          "durationTicks": 48,
          "midi": 96,
          "name": "C7",
          "ticks": 24960,
          "time": 100.64522,
          "velocity": 0.7874015748031497
        },
        {
          "duration": 0.19354849999999146,
          "durationTicks": 48,
          "midi": 92,
          "name": "G#6",
          "ticks": 24960,
          "time": 100.64522,
          "velocity": 0.7874015748031497
        },
        {
          "duration": 0.09677425000000994,
          "durationTicks": 24,
          "midi": 97,
          "name": "C#7",
          "ticks": 25008,
          "time": 100.83876849999999,
          "velocity": 0.7874015748031497
        },
        {
          "duration": 0.09677425000000994,
          "durationTicks": 24,
          "midi": 94,
          "name": "A#6",
          "ticks": 25008,
          "time": 100.83876849999999,
          "velocity": 0.7874015748031497
        },
        {
          "duration": 0.09677424999999573,
          "durationTicks": 24,
          "midi": 96,
          "name": "C7",
          "ticks": 25032,
          "time": 100.93554275,
          "velocity": 0.7874015748031497
        },
        {
          "duration": 0.09677424999999573,
          "durationTicks": 24,
          "midi": 92,
          "name": "G#6",
          "ticks": 25032,
          "time": 100.93554275,
          "velocity": 0.7874015748031497
        },
        {
          "duration": 0.19354850000000567,
          "durationTicks": 48,
          "midi": 94,
          "name": "A#6",
          "ticks": 25056,
          "time": 101.03231699999999,
          "velocity": 0.7874015748031497
        },
        {
          "duration": 0.19354850000000567,
          "durationTicks": 48,
          "midi": 85,
          "name": "C#6",
          "ticks": 25056,
          "time": 101.03231699999999,
          "velocity": 0.7874015748031497
        },
        {
          "duration": 0.09677424999999573,
          "durationTicks": 24,
          "midi": 92,
          "name": "G#6",
          "ticks": 25104,
          "time": 101.2258655,
          "velocity": 0.7874015748031497
        },
        {
          "duration": 0.09677424999999573,
          "durationTicks": 24,
          "midi": 85,
          "name": "C#6",
          "ticks": 25104,
          "time": 101.2258655,
          "velocity": 0.7874015748031497
        },
        {
          "duration": 0.19354850000000567,
          "durationTicks": 48,
          "midi": 89,
          "name": "F6",
          "ticks": 25152,
          "time": 101.41941399999999,
          "velocity": 0.7874015748031497
        },
        {
          "duration": 0.19354850000000567,
          "durationTicks": 48,
          "midi": 85,
          "name": "C#6",
          "ticks": 25152,
          "time": 101.41941399999999,
          "velocity": 0.7874015748031497
        },
        {
          "duration": 0.09677424999999573,
          "durationTicks": 24,
          "midi": 92,
          "name": "G#6",
          "ticks": 25200,
          "time": 101.6129625,
          "velocity": 0.7874015748031497
        },
        {
          "duration": 0.09677424999999573,
          "durationTicks": 24,
          "midi": 89,
          "name": "F6",
          "ticks": 25200,
          "time": 101.6129625,
          "velocity": 0.7874015748031497
        },
        {
          "duration": 0.19354850000000567,
          "durationTicks": 48,
          "midi": 87,
          "name": "D#6",
          "ticks": 25248,
          "time": 101.80651099999999,
          "velocity": 0.7874015748031497
        },
        {
          "duration": 0.19354850000000567,
          "durationTicks": 48,
          "midi": 84,
          "name": "C6",
          "ticks": 25248,
          "time": 101.80651099999999,
          "velocity": 0.7874015748031497
        },
        {
          "duration": 0.09677424999999573,
          "durationTicks": 24,
          "midi": 89,
          "name": "F6",
          "ticks": 25296,
          "time": 102.00005949999999,
          "velocity": 0.7874015748031497
        },
        {
          "duration": 0.09677424999999573,
          "durationTicks": 24,
          "midi": 85,
          "name": "C#6",
          "ticks": 25296,
          "time": 102.00005949999999,
          "velocity": 0.7874015748031497
        },
        {
          "duration": 0.7741939999999943,
          "durationTicks": 192,
          "midi": 82,
          "name": "A#5",
          "ticks": 25344,
          "time": 102.193608,
          "velocity": 0.7874015748031497
        },
        {
          "duration": 0.7741939999999943,
          "durationTicks": 192,
          "midi": 85,
          "name": "C#6",
          "ticks": 25344,
          "time": 102.193608,
          "velocity": 0.7874015748031497
        },
        {
          "duration": 0.19354850000000567,
          "durationTicks": 48,
          "midi": 82,
          "name": "A#5",
          "ticks": 25536,
          "time": 102.96780199999999,
          "velocity": 0.7874015748031497
        },
        {
          "duration": 0.19354850000000567,
          "durationTicks": 48,
          "midi": 77,
          "name": "F5",
          "ticks": 25536,
          "time": 102.96780199999999,
          "velocity": 0.7874015748031497
        },
        {
          "duration": 0.19354850000000567,
          "durationTicks": 48,
          "midi": 89,
          "name": "F6",
          "ticks": 25632,
          "time": 103.35489899999999,
          "velocity": 0.7874015748031497
        },
        {
          "duration": 0.19354850000000567,
          "durationTicks": 48,
          "midi": 85,
          "name": "C#6",
          "ticks": 25632,
          "time": 103.35489899999999,
          "velocity": 0.7874015748031497
        },
        {
          "duration": 0.19354850000000567,
          "durationTicks": 48,
          "midi": 84,
          "name": "C6",
          "ticks": 25728,
          "time": 103.74199599999999,
          "velocity": 0.7874015748031497
        },
        {
          "duration": 0.19354850000000567,
          "durationTicks": 48,
          "midi": 77,
          "name": "F5",
          "ticks": 25728,
          "time": 103.74199599999999,
          "velocity": 0.7874015748031497
        },
        {
          "duration": 0.19354849999999146,
          "durationTicks": 48,
          "midi": 89,
          "name": "F6",
          "ticks": 25824,
          "time": 104.129093,
          "velocity": 0.7874015748031497
        },
        {
          "duration": 0.19354849999999146,
          "durationTicks": 48,
          "midi": 85,
          "name": "C#6",
          "ticks": 25824,
          "time": 104.129093,
          "velocity": 0.7874015748031497
        },
        {
          "duration": 0.19354849999999146,
          "durationTicks": 48,
          "midi": 85,
          "name": "C#6",
          "ticks": 25920,
          "time": 104.51619,
          "velocity": 0.7874015748031497
        },
        {
          "duration": 0.19354849999999146,
          "durationTicks": 48,
          "midi": 82,
          "name": "A#5",
          "ticks": 25920,
          "time": 104.51619,
          "velocity": 0.7874015748031497
        },
        {
          "duration": 0.19354850000000567,
          "durationTicks": 48,
          "midi": 87,
          "name": "D#6",
          "ticks": 26016,
          "time": 104.90328699999999,
          "velocity": 0.7874015748031497
        },
        {
          "duration": 0.19354850000000567,
          "durationTicks": 48,
          "midi": 84,
          "name": "C6",
          "ticks": 26016,
          "time": 104.90328699999999,
          "velocity": 0.7874015748031497
        },
        {
          "duration": 0.19354849999999146,
          "durationTicks": 48,
          "midi": 89,
          "name": "F6",
          "ticks": 26064,
          "time": 105.0968355,
          "velocity": 0.7874015748031497
        },
        {
          "duration": 0.19354849999999146,
          "durationTicks": 48,
          "midi": 85,
          "name": "C#6",
          "ticks": 26064,
          "time": 105.0968355,
          "velocity": 0.7874015748031497
        },
        {
          "duration": 0.19354850000000567,
          "durationTicks": 48,
          "midi": 84,
          "name": "C6",
          "ticks": 26112,
          "time": 105.29038399999999,
          "velocity": 0.7874015748031497
        },
        {
          "duration": 0.19354850000000567,
          "durationTicks": 48,
          "midi": 87,
          "name": "D#6",
          "ticks": 26112,
          "time": 105.29038399999999,
          "velocity": 0.7874015748031497
        },
        {
          "duration": 0.19354850000000567,
          "durationTicks": 48,
          "midi": 87,
          "name": "D#6",
          "ticks": 26208,
          "time": 105.67748099999999,
          "velocity": 0.7874015748031497
        },
        {
          "duration": 0.19354850000000567,
          "durationTicks": 48,
          "midi": 91,
          "name": "G6",
          "ticks": 26208,
          "time": 105.67748099999999,
          "velocity": 0.7874015748031497
        },
        {
          "duration": 0.19354849999999146,
          "durationTicks": 48,
          "midi": 94,
          "name": "A#6",
          "ticks": 26304,
          "time": 106.064578,
          "velocity": 0.7874015748031497
        },
        {
          "duration": 0.19354849999999146,
          "durationTicks": 48,
          "midi": 89,
          "name": "F6",
          "ticks": 26304,
          "time": 106.064578,
          "velocity": 0.7874015748031497
        },
        {
          "duration": 0.19354850000000567,
          "durationTicks": 48,
          "midi": 89,
          "name": "F6",
          "ticks": 26352,
          "time": 106.25812649999999,
          "velocity": 0.7874015748031497
        },
        {
          "duration": 0.19354850000000567,
          "durationTicks": 48,
          "midi": 85,
          "name": "C#6",
          "ticks": 26352,
          "time": 106.25812649999999,
          "velocity": 0.7874015748031497
        },
        {
          "duration": 0.19354849999999146,
          "durationTicks": 48,
          "midi": 96,
          "name": "C7",
          "ticks": 26400,
          "time": 106.451675,
          "velocity": 0.7874015748031497
        },
        {
          "duration": 0.19354849999999146,
          "durationTicks": 48,
          "midi": 92,
          "name": "G#6",
          "ticks": 26400,
          "time": 106.451675,
          "velocity": 0.7874015748031497
        },
        {
          "duration": 0.09677425000000994,
          "durationTicks": 24,
          "midi": 97,
          "name": "C#7",
          "ticks": 26448,
          "time": 106.64522349999999,
          "velocity": 0.7874015748031497
        },
        {
          "duration": 0.09677425000000994,
          "durationTicks": 24,
          "midi": 94,
          "name": "A#6",
          "ticks": 26448,
          "time": 106.64522349999999,
          "velocity": 0.7874015748031497
        },
        {
          "duration": 0.19354850000000567,
          "durationTicks": 48,
          "midi": 96,
          "name": "C7",
          "ticks": 26496,
          "time": 106.83877199999999,
          "velocity": 0.7874015748031497
        },
        {
          "duration": 0.19354850000000567,
          "durationTicks": 48,
          "midi": 92,
          "name": "G#6",
          "ticks": 26496,
          "time": 106.83877199999999,
          "velocity": 0.7874015748031497
        },
        {
          "duration": 0.09677424999999573,
          "durationTicks": 24,
          "midi": 97,
          "name": "C#7",
          "ticks": 26544,
          "time": 107.0323205,
          "velocity": 0.7874015748031497
        },
        {
          "duration": 0.09677424999999573,
          "durationTicks": 24,
          "midi": 94,
          "name": "A#6",
          "ticks": 26544,
          "time": 107.0323205,
          "velocity": 0.7874015748031497
        },
        {
          "duration": 0.09677424999999573,
          "durationTicks": 24,
          "midi": 96,
          "name": "C7",
          "ticks": 26568,
          "time": 107.12909475,
          "velocity": 0.7874015748031497
        },
        {
          "duration": 0.09677424999999573,
          "durationTicks": 24,
          "midi": 92,
          "name": "G#6",
          "ticks": 26568,
          "time": 107.12909475,
          "velocity": 0.7874015748031497
        },
        {
          "duration": 0.19354850000000567,
          "durationTicks": 48,
          "midi": 94,
          "name": "A#6",
          "ticks": 26592,
          "time": 107.22586899999999,
          "velocity": 0.7874015748031497
        },
        {
          "duration": 0.19354850000000567,
          "durationTicks": 48,
          "midi": 85,
          "name": "C#6",
          "ticks": 26592,
          "time": 107.22586899999999,
          "velocity": 0.7874015748031497
        },
        {
          "duration": 0.09677424999999573,
          "durationTicks": 24,
          "midi": 92,
          "name": "G#6",
          "ticks": 26640,
          "time": 107.4194175,
          "velocity": 0.7874015748031497
        },
        {
          "duration": 0.09677424999999573,
          "durationTicks": 24,
          "midi": 85,
          "name": "C#6",
          "ticks": 26640,
          "time": 107.4194175,
          "velocity": 0.7874015748031497
        },
        {
          "duration": 1.5483880000000028,
          "durationTicks": 384,
          "midi": 94,
          "name": "A#6",
          "ticks": 26688,
          "time": 107.61296599999999,
          "velocity": 0.7874015748031497
        },
        {
          "duration": 1.5483880000000028,
          "durationTicks": 384,
          "midi": 89,
          "name": "F6",
          "ticks": 26688,
          "time": 107.61296599999999,
          "velocity": 0.7874015748031497
        },
        {
          "duration": 0.19354850000000567,
          "durationTicks": 48,
          "midi": 82,
          "name": "A#5",
          "ticks": 27072,
          "time": 109.16135399999999,
          "velocity": 0.7874015748031497
        },
        {
          "duration": 0.19354850000000567,
          "durationTicks": 48,
          "midi": 77,
          "name": "F5",
          "ticks": 27072,
          "time": 109.16135399999999,
          "velocity": 0.7874015748031497
        },
        {
          "duration": 0.19354850000000567,
          "durationTicks": 48,
          "midi": 89,
          "name": "F6",
          "ticks": 27168,
          "time": 109.54845099999999,
          "velocity": 0.7874015748031497
        },
        {
          "duration": 0.19354850000000567,
          "durationTicks": 48,
          "midi": 85,
          "name": "C#6",
          "ticks": 27168,
          "time": 109.54845099999999,
          "velocity": 0.7874015748031497
        },
        {
          "duration": 0.19354849999999146,
          "durationTicks": 48,
          "midi": 84,
          "name": "C6",
          "ticks": 27264,
          "time": 109.935548,
          "velocity": 0.7874015748031497
        },
        {
          "duration": 0.19354849999999146,
          "durationTicks": 48,
          "midi": 77,
          "name": "F5",
          "ticks": 27264,
          "time": 109.935548,
          "velocity": 0.7874015748031497
        },
        {
          "duration": 0.19354849999999146,
          "durationTicks": 48,
          "midi": 89,
          "name": "F6",
          "ticks": 27360,
          "time": 110.322645,
          "velocity": 0.7874015748031497
        },
        {
          "duration": 0.19354849999999146,
          "durationTicks": 48,
          "midi": 85,
          "name": "C#6",
          "ticks": 27360,
          "time": 110.322645,
          "velocity": 0.7874015748031497
        },
        {
          "duration": 0.19354850000000567,
          "durationTicks": 48,
          "midi": 85,
          "name": "C#6",
          "ticks": 27456,
          "time": 110.70974199999999,
          "velocity": 0.7874015748031497
        },
        {
          "duration": 0.19354850000000567,
          "durationTicks": 48,
          "midi": 82,
          "name": "A#5",
          "ticks": 27456,
          "time": 110.70974199999999,
          "velocity": 0.7874015748031497
        },
        {
          "duration": 0.19354850000000567,
          "durationTicks": 48,
          "midi": 87,
          "name": "D#6",
          "ticks": 27552,
          "time": 111.09683899999999,
          "velocity": 0.7874015748031497
        },
        {
          "duration": 0.19354850000000567,
          "durationTicks": 48,
          "midi": 84,
          "name": "C6",
          "ticks": 27552,
          "time": 111.09683899999999,
          "velocity": 0.7874015748031497
        },
        {
          "duration": 0.19354849999999146,
          "durationTicks": 48,
          "midi": 89,
          "name": "F6",
          "ticks": 27600,
          "time": 111.2903875,
          "velocity": 0.7874015748031497
        },
        {
          "duration": 0.19354849999999146,
          "durationTicks": 48,
          "midi": 85,
          "name": "C#6",
          "ticks": 27600,
          "time": 111.2903875,
          "velocity": 0.7874015748031497
        },
        {
          "duration": 0.19354850000000567,
          "durationTicks": 48,
          "midi": 84,
          "name": "C6",
          "ticks": 27648,
          "time": 111.48393599999999,
          "velocity": 0.7874015748031497
        },
        {
          "duration": 0.19354850000000567,
          "durationTicks": 48,
          "midi": 87,
          "name": "D#6",
          "ticks": 27648,
          "time": 111.48393599999999,
          "velocity": 0.7874015748031497
        },
        {
          "duration": 0.19354849999999146,
          "durationTicks": 48,
          "midi": 87,
          "name": "D#6",
          "ticks": 27744,
          "time": 111.871033,
          "velocity": 0.7874015748031497
        },
        {
          "duration": 0.19354849999999146,
          "durationTicks": 48,
          "midi": 91,
          "name": "G6",
          "ticks": 27744,
          "time": 111.871033,
          "velocity": 0.7874015748031497
        },
        {
          "duration": 0.19354849999999146,
          "durationTicks": 48,
          "midi": 94,
          "name": "A#6",
          "ticks": 27840,
          "time": 112.25813,
          "velocity": 0.7874015748031497
        },
        {
          "duration": 0.19354849999999146,
          "durationTicks": 48,
          "midi": 89,
          "name": "F6",
          "ticks": 27840,
          "time": 112.25813,
          "velocity": 0.7874015748031497
        },
        {
          "duration": 0.19354850000000567,
          "durationTicks": 48,
          "midi": 89,
          "name": "F6",
          "ticks": 27888,
          "time": 112.45167849999999,
          "velocity": 0.7874015748031497
        },
        {
          "duration": 0.19354850000000567,
          "durationTicks": 48,
          "midi": 85,
          "name": "C#6",
          "ticks": 27888,
          "time": 112.45167849999999,
          "velocity": 0.7874015748031497
        },
        {
          "duration": 0.19354850000000567,
          "durationTicks": 48,
          "midi": 96,
          "name": "C7",
          "ticks": 27936,
          "time": 112.64522699999999,
          "velocity": 0.7874015748031497
        },
        {
          "duration": 0.19354850000000567,
          "durationTicks": 48,
          "midi": 92,
          "name": "G#6",
          "ticks": 27936,
          "time": 112.64522699999999,
          "velocity": 0.7874015748031497
        },
        {
          "duration": 0.09677424999999573,
          "durationTicks": 24,
          "midi": 97,
          "name": "C#7",
          "ticks": 27984,
          "time": 112.8387755,
          "velocity": 0.7874015748031497
        },
        {
          "duration": 0.09677424999999573,
          "durationTicks": 24,
          "midi": 94,
          "name": "A#6",
          "ticks": 27984,
          "time": 112.8387755,
          "velocity": 0.7874015748031497
        },
        {
          "duration": 0.19354850000000567,
          "durationTicks": 48,
          "midi": 96,
          "name": "C7",
          "ticks": 28032,
          "time": 113.03232399999999,
          "velocity": 0.7874015748031497
        },
        {
          "duration": 0.19354850000000567,
          "durationTicks": 48,
          "midi": 92,
          "name": "G#6",
          "ticks": 28032,
          "time": 113.03232399999999,
          "velocity": 0.7874015748031497
        },
        {
          "duration": 0.09677424999999573,
          "durationTicks": 24,
          "midi": 97,
          "name": "C#7",
          "ticks": 28080,
          "time": 113.2258725,
          "velocity": 0.7874015748031497
        },
        {
          "duration": 0.09677424999999573,
          "durationTicks": 24,
          "midi": 94,
          "name": "A#6",
          "ticks": 28080,
          "time": 113.2258725,
          "velocity": 0.7874015748031497
        },
        {
          "duration": 0.09677424999999573,
          "durationTicks": 24,
          "midi": 96,
          "name": "C7",
          "ticks": 28104,
          "time": 113.32264674999999,
          "velocity": 0.7874015748031497
        },
        {
          "duration": 0.09677424999999573,
          "durationTicks": 24,
          "midi": 92,
          "name": "G#6",
          "ticks": 28104,
          "time": 113.32264674999999,
          "velocity": 0.7874015748031497
        },
        {
          "duration": 0.19354850000000567,
          "durationTicks": 48,
          "midi": 94,
          "name": "A#6",
          "ticks": 28128,
          "time": 113.41942099999999,
          "velocity": 0.7874015748031497
        },
        {
          "duration": 0.19354850000000567,
          "durationTicks": 48,
          "midi": 85,
          "name": "C#6",
          "ticks": 28128,
          "time": 113.41942099999999,
          "velocity": 0.7874015748031497
        },
        {
          "duration": 0.09677424999999573,
          "durationTicks": 24,
          "midi": 92,
          "name": "G#6",
          "ticks": 28176,
          "time": 113.61296949999999,
          "velocity": 0.7874015748031497
        },
        {
          "duration": 0.09677424999999573,
          "durationTicks": 24,
          "midi": 85,
          "name": "C#6",
          "ticks": 28176,
          "time": 113.61296949999999,
          "velocity": 0.7874015748031497
        },
        {
          "duration": 0.19354849999999146,
          "durationTicks": 48,
          "midi": 89,
          "name": "F6",
          "ticks": 28224,
          "time": 113.806518,
          "velocity": 0.7874015748031497
        },
        {
          "duration": 0.19354849999999146,
          "durationTicks": 48,
          "midi": 85,
          "name": "C#6",
          "ticks": 28224,
          "time": 113.806518,
          "velocity": 0.7874015748031497
        },
        {
          "duration": 0.09677424999999573,
          "durationTicks": 24,
          "midi": 92,
          "name": "G#6",
          "ticks": 28272,
          "time": 114.00006649999999,
          "velocity": 0.7874015748031497
        },
        {
          "duration": 0.09677424999999573,
          "durationTicks": 24,
          "midi": 89,
          "name": "F6",
          "ticks": 28272,
          "time": 114.00006649999999,
          "velocity": 0.7874015748031497
        },
        {
          "duration": 0.19354849999999146,
          "durationTicks": 48,
          "midi": 87,
          "name": "D#6",
          "ticks": 28320,
          "time": 114.193615,
          "velocity": 0.7874015748031497
        },
        {
          "duration": 0.19354849999999146,
          "durationTicks": 48,
          "midi": 84,
          "name": "C6",
          "ticks": 28320,
          "time": 114.193615,
          "velocity": 0.7874015748031497
        },
        {
          "duration": 0.09677425000000994,
          "durationTicks": 24,
          "midi": 89,
          "name": "F6",
          "ticks": 28368,
          "time": 114.38716349999999,
          "velocity": 0.7874015748031497
        },
        {
          "duration": 0.09677425000000994,
          "durationTicks": 24,
          "midi": 85,
          "name": "C#6",
          "ticks": 28368,
          "time": 114.38716349999999,
          "velocity": 0.7874015748031497
        },
        {
          "duration": 0.7741939999999943,
          "durationTicks": 192,
          "midi": 82,
          "name": "A#5",
          "ticks": 28416,
          "time": 114.58071199999999,
          "velocity": 0.7874015748031497
        },
        {
          "duration": 0.7741939999999943,
          "durationTicks": 192,
          "midi": 85,
          "name": "C#6",
          "ticks": 28416,
          "time": 114.58071199999999,
          "velocity": 0.7874015748031497
        },
        {
          "duration": 0.19354850000000567,
          "durationTicks": 48,
          "midi": 82,
          "name": "A#5",
          "ticks": 28608,
          "time": 115.35490599999999,
          "velocity": 0.7874015748031497
        },
        {
          "duration": 0.19354850000000567,
          "durationTicks": 48,
          "midi": 77,
          "name": "F5",
          "ticks": 28608,
          "time": 115.35490599999999,
          "velocity": 0.7874015748031497
        },
        {
          "duration": 0.19354849999999146,
          "durationTicks": 48,
          "midi": 89,
          "name": "F6",
          "ticks": 28704,
          "time": 115.742003,
          "velocity": 0.7874015748031497
        },
        {
          "duration": 0.19354849999999146,
          "durationTicks": 48,
          "midi": 85,
          "name": "C#6",
          "ticks": 28704,
          "time": 115.742003,
          "velocity": 0.7874015748031497
        },
        {
          "duration": 0.19354849999999146,
          "durationTicks": 48,
          "midi": 84,
          "name": "C6",
          "ticks": 28800,
          "time": 116.1291,
          "velocity": 0.7874015748031497
        },
        {
          "duration": 0.19354849999999146,
          "durationTicks": 48,
          "midi": 77,
          "name": "F5",
          "ticks": 28800,
          "time": 116.1291,
          "velocity": 0.7874015748031497
        },
        {
          "duration": 0.19354850000000567,
          "durationTicks": 48,
          "midi": 89,
          "name": "F6",
          "ticks": 28896,
          "time": 116.51619699999999,
          "velocity": 0.7874015748031497
        },
        {
          "duration": 0.19354850000000567,
          "durationTicks": 48,
          "midi": 85,
          "name": "C#6",
          "ticks": 28896,
          "time": 116.51619699999999,
          "velocity": 0.7874015748031497
        },
        {
          "duration": 0.19354850000000567,
          "durationTicks": 48,
          "midi": 85,
          "name": "C#6",
          "ticks": 28992,
          "time": 116.90329399999999,
          "velocity": 0.7874015748031497
        },
        {
          "duration": 0.19354850000000567,
          "durationTicks": 48,
          "midi": 82,
          "name": "A#5",
          "ticks": 28992,
          "time": 116.90329399999999,
          "velocity": 0.7874015748031497
        },
        {
          "duration": 0.19354850000000567,
          "durationTicks": 48,
          "midi": 87,
          "name": "D#6",
          "ticks": 29088,
          "time": 117.29039099999999,
          "velocity": 0.7874015748031497
        },
        {
          "duration": 0.19354850000000567,
          "durationTicks": 48,
          "midi": 84,
          "name": "C6",
          "ticks": 29088,
          "time": 117.29039099999999,
          "velocity": 0.7874015748031497
        },
        {
          "duration": 0.19354850000000567,
          "durationTicks": 48,
          "midi": 89,
          "name": "F6",
          "ticks": 29136,
          "time": 117.48393949999999,
          "velocity": 0.7874015748031497
        },
        {
          "duration": 0.19354850000000567,
          "durationTicks": 48,
          "midi": 85,
          "name": "C#6",
          "ticks": 29136,
          "time": 117.48393949999999,
          "velocity": 0.7874015748031497
        },
        {
          "duration": 0.19354849999999146,
          "durationTicks": 48,
          "midi": 84,
          "name": "C6",
          "ticks": 29184,
          "time": 117.677488,
          "velocity": 0.7874015748031497
        },
        {
          "duration": 0.19354849999999146,
          "durationTicks": 48,
          "midi": 87,
          "name": "D#6",
          "ticks": 29184,
          "time": 117.677488,
          "velocity": 0.7874015748031497
        },
        {
          "duration": 0.19354849999999146,
          "durationTicks": 48,
          "midi": 87,
          "name": "D#6",
          "ticks": 29280,
          "time": 118.064585,
          "velocity": 0.7874015748031497
        },
        {
          "duration": 0.19354849999999146,
          "durationTicks": 48,
          "midi": 91,
          "name": "G6",
          "ticks": 29280,
          "time": 118.064585,
          "velocity": 0.7874015748031497
        },
        {
          "duration": 0.19354850000000567,
          "durationTicks": 48,
          "midi": 94,
          "name": "A#6",
          "ticks": 29376,
          "time": 118.45168199999999,
          "velocity": 0.7874015748031497
        },
        {
          "duration": 0.19354850000000567,
          "durationTicks": 48,
          "midi": 89,
          "name": "F6",
          "ticks": 29376,
          "time": 118.45168199999999,
          "velocity": 0.7874015748031497
        },
        {
          "duration": 0.19354849999999146,
          "durationTicks": 48,
          "midi": 89,
          "name": "F6",
          "ticks": 29424,
          "time": 118.6452305,
          "velocity": 0.7874015748031497
        },
        {
          "duration": 0.19354849999999146,
          "durationTicks": 48,
          "midi": 85,
          "name": "C#6",
          "ticks": 29424,
          "time": 118.6452305,
          "velocity": 0.7874015748031497
        },
        {
          "duration": 0.19354850000000567,
          "durationTicks": 48,
          "midi": 92,
          "name": "G#6",
          "ticks": 29472,
          "time": 118.83877899999999,
          "velocity": 0.7874015748031497
        },
        {
          "duration": 0.19354850000000567,
          "durationTicks": 48,
          "midi": 96,
          "name": "C7",
          "ticks": 29472,
          "time": 118.83877899999999,
          "velocity": 0.7874015748031497
        },
        {
          "duration": 0.09677424999999573,
          "durationTicks": 24,
          "midi": 94,
          "name": "A#6",
          "ticks": 29520,
          "time": 119.0323275,
          "velocity": 0.7874015748031497
        },
        {
          "duration": 0.09677424999999573,
          "durationTicks": 24,
          "midi": 97,
          "name": "C#7",
          "ticks": 29520,
          "time": 119.0323275,
          "velocity": 0.7874015748031497
        },
        {
          "duration": 0.19354850000000567,
          "durationTicks": 48,
          "midi": 96,
          "name": "C7",
          "ticks": 29568,
          "time": 119.22587599999999,
          "velocity": 0.7874015748031497
        },
        {
          "duration": 0.19354850000000567,
          "durationTicks": 48,
          "midi": 92,
          "name": "G#6",
          "ticks": 29568,
          "time": 119.22587599999999,
          "velocity": 0.7874015748031497
        },
        {
          "duration": 0.09677424999999573,
          "durationTicks": 24,
          "midi": 97,
          "name": "C#7",
          "ticks": 29616,
          "time": 119.41942449999999,
          "velocity": 0.7874015748031497
        },
        {
          "duration": 0.09677424999999573,
          "durationTicks": 24,
          "midi": 94,
          "name": "A#6",
          "ticks": 29616,
          "time": 119.41942449999999,
          "velocity": 0.7874015748031497
        },
        {
          "duration": 0.09677425000000994,
          "durationTicks": 24,
          "midi": 96,
          "name": "C7",
          "ticks": 29640,
          "time": 119.51619874999999,
          "velocity": 0.7874015748031497
        },
        {
          "duration": 0.09677425000000994,
          "durationTicks": 24,
          "midi": 92,
          "name": "G#6",
          "ticks": 29640,
          "time": 119.51619874999999,
          "velocity": 0.7874015748031497
        },
        {
          "duration": 0.19354849999999146,
          "durationTicks": 48,
          "midi": 94,
          "name": "A#6",
          "ticks": 29664,
          "time": 119.612973,
          "velocity": 0.7874015748031497
        },
        {
          "duration": 0.19354849999999146,
          "durationTicks": 48,
          "midi": 85,
          "name": "C#6",
          "ticks": 29664,
          "time": 119.612973,
          "velocity": 0.7874015748031497
        },
        {
          "duration": 0.09677424999999573,
          "durationTicks": 24,
          "midi": 92,
          "name": "G#6",
          "ticks": 29712,
          "time": 119.80652149999999,
          "velocity": 0.7874015748031497
        },
        {
          "duration": 0.09677424999999573,
          "durationTicks": 24,
          "midi": 85,
          "name": "C#6",
          "ticks": 29712,
          "time": 119.80652149999999,
          "velocity": 0.7874015748031497
        },
        {
          "duration": 1.5483880000000028,
          "durationTicks": 384,
          "midi": 94,
          "name": "A#6",
          "ticks": 29760,
          "time": 120.00007,
          "velocity": 0.7874015748031497
        },
        {
          "duration": 1.5483880000000028,
          "durationTicks": 384,
          "midi": 89,
          "name": "F6",
          "ticks": 29760,
          "time": 120.00007,
          "velocity": 0.7874015748031497
        }
      ]
    },
    {
      "channel": 0,
      "controlChanges": {
        "6": [
          {
            "number": 6,
            "ticks": 0,
            "time": 0,
            "value": 0.09448818897637795
          }
        ],
        "7": [
          {
            "number": 7,
            "ticks": 0,
            "time": 0,
            "value": 0.8661417322834646
          },
          {
            "number": 7,
            "ticks": 0,
            "time": 0,
            "value": 0.8661417322834646
          }
        ],
        "10": [
          {
            "number": 10,
            "ticks": 0,
            "time": 0,
            "value": 0.5039370078740157
          },
          {
            "number": 10,
            "ticks": 0,
            "time": 0,
            "value": 0.5039370078740157
          }
        ],
        "100": [
          {
            "number": 100,
            "ticks": 0,
            "time": 0,
            "value": 0
          }
        ],
        "101": [
          {
            "number": 101,
            "ticks": 0,
            "time": 0,
            "value": 0
          }
        ]
      },
      "pitchBends": [
        {
          "ticks": 0,
          "time": 0,
          "value": 0
        },
        {
          "ticks": 0,
          "time": 0,
          "value": 0
        }
      ],
      "instrument": {
        "family": "piano",
        "name": "acoustic grand piano",
        "number": 0
      },
      "name": "Square Low",
      "notes": []
    },
    {
      "channel": 1,
      "controlChanges": {
        "6": [
          {
            "number": 6,
            "ticks": 0,
            "time": 0,
            "value": 0.09448818897637795
          },
          {
            "number": 6,
            "ticks": 0,
            "time": 0,
            "value": 0.09448818897637795
          },
          {
            "number": 6,
            "ticks": 30336,
            "time": 122.32265199999999,
            "value": 0.09448818897637795
          },
          {
            "number": 6,
            "ticks": 30336,
            "time": 122.32265199999999,
            "value": 0.09448818897637795
          },
          {
            "number": 6,
            "ticks": 30336,
            "time": 122.32265199999999,
            "value": 0.09448818897637795
          }
        ],
        "7": [
          {
            "number": 7,
            "ticks": 0,
            "time": 0,
            "value": 0.8661417322834646
          },
          {
            "number": 7,
            "ticks": 0,
            "time": 0,
            "value": 0.8661417322834646
          },
          {
            "number": 7,
            "ticks": 30336,
            "time": 122.32265199999999,
            "value": 0.8661417322834646
          },
          {
            "number": 7,
            "ticks": 30336,
            "time": 122.32265199999999,
            "value": 0.8661417322834646
          },
          {
            "number": 7,
            "ticks": 30336,
            "time": 122.32265199999999,
            "value": 0.8661417322834646
          }
        ],
        "10": [
          {
            "number": 10,
            "ticks": 0,
            "time": 0,
            "value": 0.5039370078740157
          },
          {
            "number": 10,
            "ticks": 0,
            "time": 0,
            "value": 0.5039370078740157
          },
          {
            "number": 10,
            "ticks": 30336,
            "time": 122.32265199999999,
            "value": 0.5039370078740157
          },
          {
            "number": 10,
            "ticks": 30336,
            "time": 122.32265199999999,
            "value": 0.5039370078740157
          },
          {
            "number": 10,
            "ticks": 30336,
            "time": 122.32265199999999,
            "value": 0.5039370078740157
          }
        ],
        "100": [
          {
            "number": 100,
            "ticks": 0,
            "time": 0,
            "value": 0
          },
          {
            "number": 100,
            "ticks": 0,
            "time": 0,
            "value": 0
          },
          {
            "number": 100,
            "ticks": 30336,
            "time": 122.32265199999999,
            "value": 0
          },
          {
            "number": 100,
            "ticks": 30336,
            "time": 122.32265199999999,
            "value": 0
          },
          {
            "number": 100,
            "ticks": 30336,
            "time": 122.32265199999999,
            "value": 0
          }
        ],
        "101": [
          {
            "number": 101,
            "ticks": 0,
            "time": 0,
            "value": 0
          },
          {
            "number": 101,
            "ticks": 0,
            "time": 0,
            "value": 0
          },
          {
            "number": 101,
            "ticks": 30336,
            "time": 122.32265199999999,
            "value": 0
          },
          {
            "number": 101,
            "ticks": 30336,
            "time": 122.32265199999999,
            "value": 0
          },
          {
            "number": 101,
            "ticks": 30336,
            "time": 122.32265199999999,
            "value": 0
          }
        ]
      },
      "pitchBends": [
        {
          "ticks": 0,
          "time": 0,
          "value": 0
        },
        {
          "ticks": 0,
          "time": 0,
          "value": 0
        },
        {
          "ticks": 30336,
          "time": 122.32265199999999,
          "value": 0
        },
        {
          "ticks": 30336,
          "time": 122.32265199999999,
          "value": 0
        },
        {
          "ticks": 30336,
          "time": 122.32265199999999,
          "value": 0
        }
      ],
      "instrument": {
        "family": "synth lead",
        "name": "lead 1 (square)",
        "number": 80
      },
      "name": "",
      "notes": [
        {
          "duration": 0.09677424999999999,
          "durationTicks": 24,
          "midi": 73,
          "name": "C#5",
          "ticks": 0,
          "time": 0,
          "velocity": 0.7874015748031497
        },
        {
          "duration": 0.09677424999999999,
          "durationTicks": 24,
          "midi": 70,
          "name": "A#4",
          "ticks": 24,
          "time": 0.09677424999999999,
          "velocity": 0.7874015748031497
        },
        {
          "duration": 0.09677424999999998,
          "durationTicks": 24,
          "midi": 65,
          "name": "F4",
          "ticks": 48,
          "time": 0.19354849999999998,
          "velocity": 0.7874015748031497
        },
        {
          "duration": 0.09677425,
          "durationTicks": 24,
          "midi": 73,
          "name": "C#5",
          "ticks": 72,
          "time": 0.29032274999999996,
          "velocity": 0.7874015748031497
        },
        {
          "duration": 0.09677425,
          "durationTicks": 24,
          "midi": 70,
          "name": "A#4",
          "ticks": 96,
          "time": 0.38709699999999997,
          "velocity": 0.7874015748031497
        },
        {
          "duration": 0.09677424999999995,
          "durationTicks": 24,
          "midi": 65,
          "name": "F4",
          "ticks": 120,
          "time": 0.48387125,
          "velocity": 0.7874015748031497
        },
        {
          "duration": 0.09677425000000006,
          "durationTicks": 24,
          "midi": 73,
          "name": "C#5",
          "ticks": 144,
          "time": 0.5806454999999999,
          "velocity": 0.7874015748031497
        },
        {
          "duration": 0.09677424999999995,
          "durationTicks": 24,
          "midi": 70,
          "name": "A#4",
          "ticks": 168,
          "time": 0.67741975,
          "velocity": 0.7874015748031497
        },
        {
          "duration": 0.09677424999999995,
          "durationTicks": 24,
          "midi": 65,
          "name": "F4",
          "ticks": 192,
          "time": 0.7741939999999999,
          "velocity": 0.7874015748031497
        },
        {
          "duration": 0.09677425000000006,
          "durationTicks": 24,
          "midi": 73,
          "name": "C#5",
          "ticks": 216,
          "time": 0.8709682499999999,
          "velocity": 0.7874015748031497
        },
        {
          "duration": 0.09677424999999995,
          "durationTicks": 24,
          "midi": 70,
          "name": "A#4",
          "ticks": 240,
          "time": 0.9677425,
          "velocity": 0.7874015748031497
        },
        {
          "duration": 0.09677424999999995,
          "durationTicks": 24,
          "midi": 65,
          "name": "F4",
          "ticks": 264,
          "time": 1.06451675,
          "velocity": 0.7874015748031497
        },
        {
          "duration": 0.09677424999999995,
          "durationTicks": 24,
          "midi": 68,
          "name": "G#4",
          "ticks": 288,
          "time": 1.1612909999999999,
          "velocity": 0.7874015748031497
        },
        {
          "duration": 0.09677424999999995,
          "durationTicks": 24,
          "midi": 72,
          "name": "C5",
          "ticks": 288,
          "time": 1.1612909999999999,
          "velocity": 0.7874015748031497
        },
        {
          "duration": 0.09677424999999995,
          "durationTicks": 24,
          "midi": 68,
          "name": "G#4",
          "ticks": 360,
          "time": 1.45161375,
          "velocity": 0.7874015748031497
        },
        {
          "duration": 0.09677424999999995,
          "durationTicks": 24,
          "midi": 72,
          "name": "C5",
          "ticks": 360,
          "time": 1.45161375,
          "velocity": 0.7874015748031497
        },
        {
          "duration": 0.09677425000000017,
          "durationTicks": 24,
          "midi": 68,
          "name": "G#4",
          "ticks": 432,
          "time": 1.7419364999999998,
          "velocity": 0.7874015748031497
        },
        {
          "duration": 0.09677425000000017,
          "durationTicks": 24,
          "midi": 72,
          "name": "C5",
          "ticks": 432,
          "time": 1.7419364999999998,
          "velocity": 0.7874015748031497
        },
        {
          "duration": 0.09677424999999973,
          "durationTicks": 24,
          "midi": 73,
          "name": "C#5",
          "ticks": 480,
          "time": 1.935485,
          "velocity": 0.7874015748031497
        },
        {
          "duration": 0.09677425000000017,
          "durationTicks": 24,
          "midi": 70,
          "name": "A#4",
          "ticks": 504,
          "time": 2.0322592499999996,
          "velocity": 0.7874015748031497
        },
        {
          "duration": 0.09677425000000017,
          "durationTicks": 24,
          "midi": 65,
          "name": "F4",
          "ticks": 528,
          "time": 2.1290335,
          "velocity": 0.7874015748031497
        },
        {
          "duration": 0.09677424999999973,
          "durationTicks": 24,
          "midi": 73,
          "name": "C#5",
          "ticks": 552,
          "time": 2.22580775,
          "velocity": 0.7874015748031497
        },
        {
          "duration": 0.09677425000000017,
          "durationTicks": 24,
          "midi": 70,
          "name": "A#4",
          "ticks": 576,
          "time": 2.3225819999999997,
          "velocity": 0.7874015748031497
        },
        {
          "duration": 0.09677424999999973,
          "durationTicks": 24,
          "midi": 65,
          "name": "F4",
          "ticks": 600,
          "time": 2.41935625,
          "velocity": 0.7874015748031497
        },
        {
          "duration": 0.09677425000000017,
          "durationTicks": 24,
          "midi": 73,
          "name": "C#5",
          "ticks": 624,
          "time": 2.5161304999999996,
          "velocity": 0.7874015748031497
        },
        {
          "duration": 0.09677425000000017,
          "durationTicks": 24,
          "midi": 70,
          "name": "A#4",
          "ticks": 648,
          "time": 2.6129047499999998,
          "velocity": 0.7874015748031497
        },
        {
          "duration": 0.09677424999999973,
          "durationTicks": 24,
          "midi": 65,
          "name": "F4",
          "ticks": 672,
          "time": 2.709679,
          "velocity": 0.7874015748031497
        },
        {
          "duration": 0.09677425000000017,
          "durationTicks": 24,
          "midi": 73,
          "name": "C#5",
          "ticks": 696,
          "time": 2.8064532499999997,
          "velocity": 0.7874015748031497
        },
        {
          "duration": 0.09677424999999973,
          "durationTicks": 24,
          "midi": 70,
          "name": "A#4",
          "ticks": 720,
          "time": 2.9032275,
          "velocity": 0.7874015748031497
        },
        {
          "duration": 0.09677425000000017,
          "durationTicks": 24,
          "midi": 65,
          "name": "F4",
          "ticks": 744,
          "time": 3.0000017499999996,
          "velocity": 0.7874015748031497
        },
        {
          "duration": 0.09677425000000017,
          "durationTicks": 24,
          "midi": 72,
          "name": "C5",
          "ticks": 768,
          "time": 3.0967759999999998,
          "velocity": 0.7874015748031497
        },
        {
          "duration": 0.09677425000000017,
          "durationTicks": 24,
          "midi": 75,
          "name": "D#5",
          "ticks": 768,
          "time": 3.0967759999999998,
          "velocity": 0.7874015748031497
        },
        {
          "duration": 0.09677424999999973,
          "durationTicks": 24,
          "midi": 72,
          "name": "C5",
          "ticks": 840,
          "time": 3.38709875,
          "velocity": 0.7874015748031497
        },
        {
          "duration": 0.09677424999999973,
          "durationTicks": 24,
          "midi": 75,
          "name": "D#5",
          "ticks": 840,
          "time": 3.38709875,
          "velocity": 0.7874015748031497
        },
        {
          "duration": 0.09677424999999973,
          "durationTicks": 24,
          "midi": 72,
          "name": "C5",
          "ticks": 912,
          "time": 3.6774215,
          "velocity": 0.7874015748031497
        },
        {
          "duration": 0.09677424999999973,
          "durationTicks": 24,
          "midi": 75,
          "name": "D#5",
          "ticks": 912,
          "time": 3.6774215,
          "velocity": 0.7874015748031497
        },
        {
          "duration": 0.09677424999999973,
          "durationTicks": 24,
          "midi": 73,
          "name": "C#5",
          "ticks": 960,
          "time": 3.87097,
          "velocity": 0.7874015748031497
        },
        {
          "duration": 0.09677424999999973,
          "durationTicks": 24,
          "midi": 70,
          "name": "A#4",
          "ticks": 984,
          "time": 3.9677442499999995,
          "velocity": 0.7874015748031497
        },
        {
          "duration": 0.09677425000000017,
          "durationTicks": 24,
          "midi": 65,
          "name": "F4",
          "ticks": 1008,
          "time": 4.064518499999999,
          "velocity": 0.7874015748031497
        },
        {
          "duration": 0.09677425000000017,
          "durationTicks": 24,
          "midi": 73,
          "name": "C#5",
          "ticks": 1032,
          "time": 4.161292749999999,
          "velocity": 0.7874015748031497
        },
        {
          "duration": 0.09677425000000017,
          "durationTicks": 24,
          "midi": 70,
          "name": "A#4",
          "ticks": 1056,
          "time": 4.258067,
          "velocity": 0.7874015748031497
        },
        {
          "duration": 0.09677425000000017,
          "durationTicks": 24,
          "midi": 65,
          "name": "F4",
          "ticks": 1080,
          "time": 4.35484125,
          "velocity": 0.7874015748031497
        },
        {
          "duration": 0.09677424999999928,
          "durationTicks": 24,
          "midi": 73,
          "name": "C#5",
          "ticks": 1104,
          "time": 4.4516155,
          "velocity": 0.7874015748031497
        },
        {
          "duration": 0.09677425000000017,
          "durationTicks": 24,
          "midi": 70,
          "name": "A#4",
          "ticks": 1128,
          "time": 4.548389749999999,
          "velocity": 0.7874015748031497
        },
        {
          "duration": 0.09677425000000017,
          "durationTicks": 24,
          "midi": 65,
          "name": "F4",
          "ticks": 1152,
          "time": 4.645163999999999,
          "velocity": 0.7874015748031497
        },
        {
          "duration": 0.09677425000000017,
          "durationTicks": 24,
          "midi": 73,
          "name": "C#5",
          "ticks": 1176,
          "time": 4.74193825,
          "velocity": 0.7874015748031497
        },
        {
          "duration": 0.09677425000000017,
          "durationTicks": 24,
          "midi": 70,
          "name": "A#4",
          "ticks": 1200,
          "time": 4.8387125,
          "velocity": 0.7874015748031497
        },
        {
          "duration": 0.09677424999999928,
          "durationTicks": 24,
          "midi": 65,
          "name": "F4",
          "ticks": 1224,
          "time": 4.93548675,
          "velocity": 0.7874015748031497
        },
        {
          "duration": 0.09677425000000017,
          "durationTicks": 24,
          "midi": 72,
          "name": "C5",
          "ticks": 1248,
          "time": 5.032260999999999,
          "velocity": 0.7874015748031497
        },
        {
          "duration": 0.09677425000000017,
          "durationTicks": 24,
          "midi": 68,
          "name": "G#4",
          "ticks": 1248,
          "time": 5.032260999999999,
          "velocity": 0.7874015748031497
        },
        {
          "duration": 0.09677425000000017,
          "durationTicks": 24,
          "midi": 72,
          "name": "C5",
          "ticks": 1320,
          "time": 5.32258375,
          "velocity": 0.7874015748031497
        },
        {
          "duration": 0.09677425000000017,
          "durationTicks": 24,
          "midi": 68,
          "name": "G#4",
          "ticks": 1320,
          "time": 5.32258375,
          "velocity": 0.7874015748031497
        },
        {
          "duration": 0.09677425000000017,
          "durationTicks": 24,
          "midi": 72,
          "name": "C5",
          "ticks": 1392,
          "time": 5.612906499999999,
          "velocity": 0.7874015748031497
        },
        {
          "duration": 0.09677425000000017,
          "durationTicks": 24,
          "midi": 68,
          "name": "G#4",
          "ticks": 1392,
          "time": 5.612906499999999,
          "velocity": 0.7874015748031497
        },
        {
          "duration": 0.09677425000000017,
          "durationTicks": 24,
          "midi": 73,
          "name": "C#5",
          "ticks": 1440,
          "time": 5.806455,
          "velocity": 0.7874015748031497
        },
        {
          "duration": 0.09677424999999928,
          "durationTicks": 24,
          "midi": 70,
          "name": "A#4",
          "ticks": 1464,
          "time": 5.90322925,
          "velocity": 0.7874015748031497
        },
        {
          "duration": 0.09677425000000017,
          "durationTicks": 24,
          "midi": 65,
          "name": "F4",
          "ticks": 1488,
          "time": 6.000003499999999,
          "velocity": 0.7874015748031497
        },
        {
          "duration": 0.09677425000000017,
          "durationTicks": 24,
          "midi": 73,
          "name": "C#5",
          "ticks": 1512,
          "time": 6.096777749999999,
          "velocity": 0.7874015748031497
        },
        {
          "duration": 0.09677425000000017,
          "durationTicks": 24,
          "midi": 70,
          "name": "A#4",
          "ticks": 1536,
          "time": 6.1935519999999995,
          "velocity": 0.7874015748031497
        },
        {
          "duration": 0.09677425000000017,
          "durationTicks": 24,
          "midi": 65,
          "name": "F4",
          "ticks": 1560,
          "time": 6.29032625,
          "velocity": 0.7874015748031497
        },
        {
          "duration": 0.09677424999999928,
          "durationTicks": 24,
          "midi": 73,
          "name": "C#5",
          "ticks": 1584,
          "time": 6.3871005,
          "velocity": 0.7874015748031497
        },
        {
          "duration": 0.09677425000000017,
          "durationTicks": 24,
          "midi": 70,
          "name": "A#4",
          "ticks": 1608,
          "time": 6.483874749999999,
          "velocity": 0.7874015748031497
        },
        {
          "duration": 0.09677425000000017,
          "durationTicks": 24,
          "midi": 65,
          "name": "F4",
          "ticks": 1632,
          "time": 6.580648999999999,
          "velocity": 0.7874015748031497
        },
        {
          "duration": 0.09677425000000017,
          "durationTicks": 24,
          "midi": 73,
          "name": "C#5",
          "ticks": 1656,
          "time": 6.6774232499999995,
          "velocity": 0.7874015748031497
        },
        {
          "duration": 0.09677425000000017,
          "durationTicks": 24,
          "midi": 70,
          "name": "A#4",
          "ticks": 1680,
          "time": 6.7741975,
          "velocity": 0.7874015748031497
        },
        {
          "duration": 0.09677424999999928,
          "durationTicks": 24,
          "midi": 65,
          "name": "F4",
          "ticks": 1704,
          "time": 6.87097175,
          "velocity": 0.7874015748031497
        },
        {
          "duration": 0.09677425000000017,
          "durationTicks": 24,
          "midi": 75,
          "name": "D#5",
          "ticks": 1728,
          "time": 6.967745999999999,
          "velocity": 0.7874015748031497
        },
        {
          "duration": 0.09677425000000017,
          "durationTicks": 24,
          "midi": 72,
          "name": "C5",
          "ticks": 1728,
          "time": 6.967745999999999,
          "velocity": 0.7874015748031497
        },
        {
          "duration": 0.09677425000000017,
          "durationTicks": 24,
          "midi": 72,
          "name": "C5",
          "ticks": 1800,
          "time": 7.25806875,
          "velocity": 0.7874015748031497
        },
        {
          "duration": 0.09677425000000017,
          "durationTicks": 24,
          "midi": 75,
          "name": "D#5",
          "ticks": 1800,
          "time": 7.25806875,
          "velocity": 0.7874015748031497
        },
        {
          "duration": 0.09677425000000017,
          "durationTicks": 24,
          "midi": 72,
          "name": "C5",
          "ticks": 1872,
          "time": 7.548391499999999,
          "velocity": 0.7874015748031497
        },
        {
          "duration": 0.09677425000000017,
          "durationTicks": 24,
          "midi": 75,
          "name": "D#5",
          "ticks": 1872,
          "time": 7.548391499999999,
          "velocity": 0.7874015748031497
        },
        {
          "duration": 0.09677425000000017,
          "durationTicks": 24,
          "midi": 73,
          "name": "C#5",
          "ticks": 1920,
          "time": 7.74194,
          "velocity": 0.7874015748031497
        },
        {
          "duration": 0.09677424999999928,
          "durationTicks": 24,
          "midi": 70,
          "name": "A#4",
          "ticks": 1944,
          "time": 7.83871425,
          "velocity": 0.7874015748031497
        },
        {
          "duration": 0.09677425000000017,
          "durationTicks": 24,
          "midi": 65,
          "name": "F4",
          "ticks": 1968,
          "time": 7.935488499999999,
          "velocity": 0.7874015748031497
        },
        {
          "duration": 0.09677424999999928,
          "durationTicks": 24,
          "midi": 73,
          "name": "C#5",
          "ticks": 1992,
          "time": 8.03226275,
          "velocity": 0.7874015748031497
        },
        {
          "duration": 0.09677425000000106,
          "durationTicks": 24,
          "midi": 70,
          "name": "A#4",
          "ticks": 2016,
          "time": 8.129036999999999,
          "velocity": 0.7874015748031497
        },
        {
          "duration": 0.09677424999999928,
          "durationTicks": 24,
          "midi": 65,
          "name": "F4",
          "ticks": 2040,
          "time": 8.22581125,
          "velocity": 0.7874015748031497
        },
        {
          "duration": 0.09677425000000106,
          "durationTicks": 24,
          "midi": 73,
          "name": "C#5",
          "ticks": 2064,
          "time": 8.322585499999999,
          "velocity": 0.7874015748031497
        },
        {
          "duration": 0.09677424999999928,
          "durationTicks": 24,
          "midi": 70,
          "name": "A#4",
          "ticks": 2088,
          "time": 8.41935975,
          "velocity": 0.7874015748031497
        },
        {
          "duration": 0.09677424999999928,
          "durationTicks": 24,
          "midi": 65,
          "name": "F4",
          "ticks": 2112,
          "time": 8.516134,
          "velocity": 0.7874015748031497
        },
        {
          "duration": 0.09677425000000106,
          "durationTicks": 24,
          "midi": 73,
          "name": "C#5",
          "ticks": 2136,
          "time": 8.612908249999998,
          "velocity": 0.7874015748031497
        },
        {
          "duration": 0.09677424999999928,
          "durationTicks": 24,
          "midi": 70,
          "name": "A#4",
          "ticks": 2160,
          "time": 8.7096825,
          "velocity": 0.7874015748031497
        },
        {
          "duration": 0.09677425000000106,
          "durationTicks": 24,
          "midi": 65,
          "name": "F4",
          "ticks": 2184,
          "time": 8.806456749999999,
          "velocity": 0.7874015748031497
        },
        {
          "duration": 0.09677424999999928,
          "durationTicks": 24,
          "midi": 72,
          "name": "C5",
          "ticks": 2208,
          "time": 8.903231,
          "velocity": 0.7874015748031497
        },
        {
          "duration": 0.09677424999999928,
          "durationTicks": 24,
          "midi": 68,
          "name": "G#4",
          "ticks": 2208,
          "time": 8.903231,
          "velocity": 0.7874015748031497
        },
        {
          "duration": 0.09677424999999928,
          "durationTicks": 24,
          "midi": 72,
          "name": "C5",
          "ticks": 2280,
          "time": 9.19355375,
          "velocity": 0.7874015748031497
        },
        {
          "duration": 0.09677424999999928,
          "durationTicks": 24,
          "midi": 68,
          "name": "G#4",
          "ticks": 2280,
          "time": 9.19355375,
          "velocity": 0.7874015748031497
        },
        {
          "duration": 0.09677424999999928,
          "durationTicks": 24,
          "midi": 72,
          "name": "C5",
          "ticks": 2352,
          "time": 9.4838765,
          "velocity": 0.7874015748031497
        },
        {
          "duration": 0.09677424999999928,
          "durationTicks": 24,
          "midi": 68,
          "name": "G#4",
          "ticks": 2352,
          "time": 9.4838765,
          "velocity": 0.7874015748031497
        },
        {
          "duration": 0.09677424999999928,
          "durationTicks": 24,
          "midi": 73,
          "name": "C#5",
          "ticks": 2400,
          "time": 9.677425,
          "velocity": 0.7874015748031497
        },
        {
          "duration": 0.09677425000000106,
          "durationTicks": 24,
          "midi": 70,
          "name": "A#4",
          "ticks": 2424,
          "time": 9.774199249999999,
          "velocity": 0.7874015748031497
        },
        {
          "duration": 0.09677424999999928,
          "durationTicks": 24,
          "midi": 65,
          "name": "F4",
          "ticks": 2448,
          "time": 9.8709735,
          "velocity": 0.7874015748031497
        },
        {
          "duration": 0.09677424999999928,
          "durationTicks": 24,
          "midi": 73,
          "name": "C#5",
          "ticks": 2472,
          "time": 9.96774775,
          "velocity": 0.7874015748031497
        },
        {
          "duration": 0.09677425000000106,
          "durationTicks": 24,
          "midi": 70,
          "name": "A#4",
          "ticks": 2496,
          "time": 10.064521999999998,
          "velocity": 0.7874015748031497
        },
        {
          "duration": 0.09677424999999928,
          "durationTicks": 24,
          "midi": 65,
          "name": "F4",
          "ticks": 2520,
          "time": 10.16129625,
          "velocity": 0.7874015748031497
        },
        {
          "duration": 0.09677425000000106,
          "durationTicks": 24,
          "midi": 73,
          "name": "C#5",
          "ticks": 2544,
          "time": 10.258070499999999,
          "velocity": 0.7874015748031497
        },
        {
          "duration": 0.09677424999999928,
          "durationTicks": 24,
          "midi": 70,
          "name": "A#4",
          "ticks": 2568,
          "time": 10.35484475,
          "velocity": 0.7874015748031497
        },
        {
          "duration": 0.09677424999999928,
          "durationTicks": 24,
          "midi": 65,
          "name": "F4",
          "ticks": 2592,
          "time": 10.451618999999999,
          "velocity": 0.7874015748031497
        },
        {
          "duration": 0.09677425000000106,
          "durationTicks": 24,
          "midi": 73,
          "name": "C#5",
          "ticks": 2616,
          "time": 10.548393249999998,
          "velocity": 0.7874015748031497
        },
        {
          "duration": 0.09677424999999928,
          "durationTicks": 24,
          "midi": 70,
          "name": "A#4",
          "ticks": 2640,
          "time": 10.6451675,
          "velocity": 0.7874015748031497
        },
        {
          "duration": 0.09677425000000106,
          "durationTicks": 24,
          "midi": 65,
          "name": "F4",
          "ticks": 2664,
          "time": 10.741941749999999,
          "velocity": 0.7874015748031497
        },
        {
          "duration": 0.09677424999999928,
          "durationTicks": 24,
          "midi": 72,
          "name": "C5",
          "ticks": 2688,
          "time": 10.838716,
          "velocity": 0.7874015748031497
        },
        {
          "duration": 0.09677424999999928,
          "durationTicks": 24,
          "midi": 75,
          "name": "D#5",
          "ticks": 2688,
          "time": 10.838716,
          "velocity": 0.7874015748031497
        },
        {
          "duration": 0.09677424999999928,
          "durationTicks": 24,
          "midi": 75,
          "name": "D#5",
          "ticks": 2760,
          "time": 11.12903875,
          "velocity": 0.7874015748031497
        },
        {
          "duration": 0.09677424999999928,
          "durationTicks": 24,
          "midi": 72,
          "name": "C5",
          "ticks": 2760,
          "time": 11.12903875,
          "velocity": 0.7874015748031497
        },
        {
          "duration": 0.09677424999999928,
          "durationTicks": 24,
          "midi": 72,
          "name": "C5",
          "ticks": 2832,
          "time": 11.419361499999999,
          "velocity": 0.7874015748031497
        },
        {
          "duration": 0.09677424999999928,
          "durationTicks": 24,
          "midi": 75,
          "name": "D#5",
          "ticks": 2832,
          "time": 11.419361499999999,
          "velocity": 0.7874015748031497
        },
        {
          "duration": 0.09677424999999928,
          "durationTicks": 24,
          "midi": 73,
          "name": "C#5",
          "ticks": 2880,
          "time": 11.61291,
          "velocity": 0.7874015748031497
        },
        {
          "duration": 0.09677425000000106,
          "durationTicks": 24,
          "midi": 70,
          "name": "A#4",
          "ticks": 2904,
          "time": 11.709684249999999,
          "velocity": 0.7874015748031497
        },
        {
          "duration": 0.09677424999999928,
          "durationTicks": 24,
          "midi": 65,
          "name": "F4",
          "ticks": 2928,
          "time": 11.8064585,
          "velocity": 0.7874015748031497
        },
        {
          "duration": 0.09677424999999928,
          "durationTicks": 24,
          "midi": 73,
          "name": "C#5",
          "ticks": 2952,
          "time": 11.903232749999999,
          "velocity": 0.7874015748031497
        },
        {
          "duration": 0.09677425000000106,
          "durationTicks": 24,
          "midi": 70,
          "name": "A#4",
          "ticks": 2976,
          "time": 12.000006999999998,
          "velocity": 0.7874015748031497
        },
        {
          "duration": 0.09677424999999928,
          "durationTicks": 24,
          "midi": 65,
          "name": "F4",
          "ticks": 3000,
          "time": 12.09678125,
          "velocity": 0.7874015748031497
        },
        {
          "duration": 0.09677425000000106,
          "durationTicks": 24,
          "midi": 73,
          "name": "C#5",
          "ticks": 3024,
          "time": 12.193555499999999,
          "velocity": 0.7874015748031497
        },
        {
          "duration": 0.09677424999999928,
          "durationTicks": 24,
          "midi": 70,
          "name": "A#4",
          "ticks": 3048,
          "time": 12.29032975,
          "velocity": 0.7874015748031497
        },
        {
          "duration": 0.09677424999999928,
          "durationTicks": 24,
          "midi": 65,
          "name": "F4",
          "ticks": 3072,
          "time": 12.387103999999999,
          "velocity": 0.7874015748031497
        },
        {
          "duration": 0.09677425000000106,
          "durationTicks": 24,
          "midi": 73,
          "name": "C#5",
          "ticks": 3096,
          "time": 12.483878249999998,
          "velocity": 0.7874015748031497
        },
        {
          "duration": 0.09677424999999928,
          "durationTicks": 24,
          "midi": 70,
          "name": "A#4",
          "ticks": 3120,
          "time": 12.5806525,
          "velocity": 0.7874015748031497
        },
        {
          "duration": 0.09677425000000106,
          "durationTicks": 24,
          "midi": 65,
          "name": "F4",
          "ticks": 3144,
          "time": 12.677426749999999,
          "velocity": 0.7874015748031497
        },
        {
          "duration": 0.09677424999999928,
          "durationTicks": 24,
          "midi": 72,
          "name": "C5",
          "ticks": 3168,
          "time": 12.774201,
          "velocity": 0.7874015748031497
        },
        {
          "duration": 0.09677424999999928,
          "durationTicks": 24,
          "midi": 68,
          "name": "G#4",
          "ticks": 3168,
          "time": 12.774201,
          "velocity": 0.7874015748031497
        },
        {
          "duration": 0.09677424999999928,
          "durationTicks": 24,
          "midi": 72,
          "name": "C5",
          "ticks": 3240,
          "time": 13.06452375,
          "velocity": 0.7874015748031497
        },
        {
          "duration": 0.09677424999999928,
          "durationTicks": 24,
          "midi": 68,
          "name": "G#4",
          "ticks": 3240,
          "time": 13.06452375,
          "velocity": 0.7874015748031497
        },
        {
          "duration": 0.09677424999999928,
          "durationTicks": 24,
          "midi": 72,
          "name": "C5",
          "ticks": 3312,
          "time": 13.354846499999999,
          "velocity": 0.7874015748031497
        },
        {
          "duration": 0.09677424999999928,
          "durationTicks": 24,
          "midi": 68,
          "name": "G#4",
          "ticks": 3312,
          "time": 13.354846499999999,
          "velocity": 0.7874015748031497
        },
        {
          "duration": 0.09677424999999928,
          "durationTicks": 24,
          "midi": 73,
          "name": "C#5",
          "ticks": 3360,
          "time": 13.548395,
          "velocity": 0.7874015748031497
        },
        {
          "duration": 0.09677425000000106,
          "durationTicks": 24,
          "midi": 70,
          "name": "A#4",
          "ticks": 3384,
          "time": 13.645169249999999,
          "velocity": 0.7874015748031497
        },
        {
          "duration": 0.09677424999999928,
          "durationTicks": 24,
          "midi": 65,
          "name": "F4",
          "ticks": 3408,
          "time": 13.7419435,
          "velocity": 0.7874015748031497
        },
        {
          "duration": 0.09677424999999928,
          "durationTicks": 24,
          "midi": 73,
          "name": "C#5",
          "ticks": 3432,
          "time": 13.838717749999999,
          "velocity": 0.7874015748031497
        },
        {
          "duration": 0.09677425000000106,
          "durationTicks": 24,
          "midi": 70,
          "name": "A#4",
          "ticks": 3456,
          "time": 13.935491999999998,
          "velocity": 0.7874015748031497
        },
        {
          "duration": 0.09677424999999928,
          "durationTicks": 24,
          "midi": 65,
          "name": "F4",
          "ticks": 3480,
          "time": 14.03226625,
          "velocity": 0.7874015748031497
        },
        {
          "duration": 0.09677425000000106,
          "durationTicks": 24,
          "midi": 73,
          "name": "C#5",
          "ticks": 3504,
          "time": 14.129040499999999,
          "velocity": 0.7874015748031497
        },
        {
          "duration": 0.09677424999999928,
          "durationTicks": 24,
          "midi": 70,
          "name": "A#4",
          "ticks": 3528,
          "time": 14.22581475,
          "velocity": 0.7874015748031497
        },
        {
          "duration": 0.09677424999999928,
          "durationTicks": 24,
          "midi": 65,
          "name": "F4",
          "ticks": 3552,
          "time": 14.322588999999999,
          "velocity": 0.7874015748031497
        },
        {
          "duration": 0.09677425000000106,
          "durationTicks": 24,
          "midi": 73,
          "name": "C#5",
          "ticks": 3576,
          "time": 14.419363249999998,
          "velocity": 0.7874015748031497
        },
        {
          "duration": 0.09677424999999928,
          "durationTicks": 24,
          "midi": 70,
          "name": "A#4",
          "ticks": 3600,
          "time": 14.5161375,
          "velocity": 0.7874015748031497
        },
        {
          "duration": 0.09677425000000106,
          "durationTicks": 24,
          "midi": 65,
          "name": "F4",
          "ticks": 3624,
          "time": 14.612911749999999,
          "velocity": 0.7874015748031497
        },
        {
          "duration": 0.09677424999999928,
          "durationTicks": 24,
          "midi": 75,
          "name": "D#5",
          "ticks": 3648,
          "time": 14.709686,
          "velocity": 0.7874015748031497
        },
        {
          "duration": 0.09677424999999928,
          "durationTicks": 24,
          "midi": 72,
          "name": "C5",
          "ticks": 3648,
          "time": 14.709686,
          "velocity": 0.7874015748031497
        },
        {
          "duration": 0.09677424999999928,
          "durationTicks": 24,
          "midi": 72,
          "name": "C5",
          "ticks": 3720,
          "time": 15.00000875,
          "velocity": 0.7874015748031497
        },
        {
          "duration": 0.09677424999999928,
          "durationTicks": 24,
          "midi": 75,
          "name": "D#5",
          "ticks": 3720,
          "time": 15.00000875,
          "velocity": 0.7874015748031497
        },
        {
          "duration": 0.09677424999999928,
          "durationTicks": 24,
          "midi": 75,
          "name": "D#5",
          "ticks": 3792,
          "time": 15.290331499999999,
          "velocity": 0.7874015748031497
        },
        {
          "duration": 0.09677424999999928,
          "durationTicks": 24,
          "midi": 72,
          "name": "C5",
          "ticks": 3792,
          "time": 15.290331499999999,
          "velocity": 0.7874015748031497
        },
        {
          "duration": 0.19354850000000035,
          "durationTicks": 48,
          "midi": 65,
          "name": "F4",
          "ticks": 3840,
          "time": 15.48388,
          "velocity": 0.7874015748031497
        },
        {
          "duration": 0.19354850000000035,
          "durationTicks": 48,
          "midi": 61,
          "name": "C#4",
          "ticks": 3936,
          "time": 15.870976999999998,
          "velocity": 0.7874015748031497
        },
        {
          "duration": 0.19354850000000212,
          "durationTicks": 48,
          "midi": 64,
          "name": "E4",
          "ticks": 4032,
          "time": 16.258073999999997,
          "velocity": 0.7874015748031497
        },
        {
          "duration": 0.19354850000000212,
          "durationTicks": 48,
          "midi": 60,
          "name": "C4",
          "ticks": 4128,
          "time": 16.645170999999998,
          "velocity": 0.7874015748031497
        },
        {
          "duration": 0.19354849999999857,
          "durationTicks": 48,
          "midi": 67,
          "name": "G4",
          "ticks": 4224,
          "time": 17.032268,
          "velocity": 0.7874015748031497
        },
        {
          "duration": 0.19354849999999857,
          "durationTicks": 48,
          "midi": 64,
          "name": "E4",
          "ticks": 4320,
          "time": 17.419365,
          "velocity": 0.7874015748031497
        },
        {
          "duration": 0.19354849999999857,
          "durationTicks": 48,
          "midi": 63,
          "name": "D#4",
          "ticks": 4416,
          "time": 17.806462,
          "velocity": 0.7874015748031497
        },
        {
          "duration": 0.19354850000000212,
          "durationTicks": 48,
          "midi": 66,
          "name": "F#4",
          "ticks": 4512,
          "time": 18.193558999999997,
          "velocity": 0.7874015748031497
        },
        {
          "duration": 0.19354850000000212,
          "durationTicks": 48,
          "midi": 65,
          "name": "F4",
          "ticks": 4608,
          "time": 18.580655999999998,
          "velocity": 0.7874015748031497
        },
        {
          "duration": 0.09677424999999928,
          "durationTicks": 24,
          "midi": 73,
          "name": "C#5",
          "ticks": 4656,
          "time": 18.7742045,
          "velocity": 0.7874015748031497
        },
        {
          "duration": 0.09677424999999928,
          "durationTicks": 24,
          "midi": 70,
          "name": "A#4",
          "ticks": 4656,
          "time": 18.7742045,
          "velocity": 0.7874015748031497
        },
        {
          "duration": 0.19354849999999857,
          "durationTicks": 48,
          "midi": 61,
          "name": "C#4",
          "ticks": 4704,
          "time": 18.967753,
          "velocity": 0.7874015748031497
        },
        {
          "duration": 0.09677425000000284,
          "durationTicks": 24,
          "midi": 73,
          "name": "C#5",
          "ticks": 4752,
          "time": 19.161301499999997,
          "velocity": 0.7874015748031497
        },
        {
          "duration": 0.09677425000000284,
          "durationTicks": 24,
          "midi": 70,
          "name": "A#4",
          "ticks": 4752,
          "time": 19.161301499999997,
          "velocity": 0.7874015748031497
        },
        {
          "duration": 0.19354849999999857,
          "durationTicks": 48,
          "midi": 64,
          "name": "E4",
          "ticks": 4800,
          "time": 19.35485,
          "velocity": 0.7874015748031497
        },
        {
          "duration": 0.09677424999999928,
          "durationTicks": 24,
          "midi": 72,
          "name": "C5",
          "ticks": 4848,
          "time": 19.548398499999998,
          "velocity": 0.7874015748031497
        },
        {
          "duration": 0.09677424999999928,
          "durationTicks": 24,
          "midi": 69,
          "name": "A4",
          "ticks": 4848,
          "time": 19.548398499999998,
          "velocity": 0.7874015748031497
        },
        {
          "duration": 0.19354849999999857,
          "durationTicks": 48,
          "midi": 60,
          "name": "C4",
          "ticks": 4896,
          "time": 19.741947,
          "velocity": 0.7874015748031497
        },
        {
          "duration": 0.09677424999999928,
          "durationTicks": 24,
          "midi": 72,
          "name": "C5",
          "ticks": 4944,
          "time": 19.9354955,
          "velocity": 0.7874015748031497
        },
        {
          "duration": 0.09677424999999928,
          "durationTicks": 24,
          "midi": 69,
          "name": "A4",
          "ticks": 4944,
          "time": 19.9354955,
          "velocity": 0.7874015748031497
        },
        {
          "duration": 0.19354850000000212,
          "durationTicks": 48,
          "midi": 67,
          "name": "G4",
          "ticks": 4992,
          "time": 20.129043999999997,
          "velocity": 0.7874015748031497
        },
        {
          "duration": 0.09677424999999928,
          "durationTicks": 24,
          "midi": 76,
          "name": "E5",
          "ticks": 5040,
          "time": 20.3225925,
          "velocity": 0.7874015748031497
        },
        {
          "duration": 0.09677424999999928,
          "durationTicks": 24,
          "midi": 72,
          "name": "C5",
          "ticks": 5040,
          "time": 20.3225925,
          "velocity": 0.7874015748031497
        },
        {
          "duration": 0.19354850000000212,
          "durationTicks": 48,
          "midi": 64,
          "name": "E4",
          "ticks": 5088,
          "time": 20.516140999999998,
          "velocity": 0.7874015748031497
        },
        {
          "duration": 0.09677424999999928,
          "durationTicks": 24,
          "midi": 76,
          "name": "E5",
          "ticks": 5136,
          "time": 20.7096895,
          "velocity": 0.7874015748031497
        },
        {
          "duration": 0.09677424999999928,
          "durationTicks": 24,
          "midi": 72,
          "name": "C5",
          "ticks": 5136,
          "time": 20.7096895,
          "velocity": 0.7874015748031497
        },
        {
          "duration": 0.7741940000000014,
          "durationTicks": 192,
          "midi": 63,
          "name": "D#4",
          "ticks": 5184,
          "time": 20.903237999999998,
          "velocity": 0.7874015748031497
        },
        {
          "duration": 0.09677425000000284,
          "durationTicks": 24,
          "midi": 75,
          "name": "D#5",
          "ticks": 5232,
          "time": 21.096786499999997,
          "velocity": 0.7874015748031497
        },
        {
          "duration": 0.09677425000000284,
          "durationTicks": 24,
          "midi": 71,
          "name": "B4",
          "ticks": 5232,
          "time": 21.096786499999997,
          "velocity": 0.7874015748031497
        },
        {
          "duration": 0.09677424999999928,
          "durationTicks": 24,
          "midi": 75,
          "name": "D#5",
          "ticks": 5328,
          "time": 21.483883499999997,
          "velocity": 0.7874015748031497
        },
        {
          "duration": 0.09677424999999928,
          "durationTicks": 24,
          "midi": 71,
          "name": "B4",
          "ticks": 5328,
          "time": 21.483883499999997,
          "velocity": 0.7874015748031497
        },
        {
          "duration": 0.19354849999999857,
          "durationTicks": 48,
          "midi": 65,
          "name": "F4",
          "ticks": 5376,
          "time": 21.677432,
          "velocity": 0.7874015748031497
        },
        {
          "duration": 0.09677424999999928,
          "durationTicks": 24,
          "midi": 73,
          "name": "C#5",
          "ticks": 5424,
          "time": 21.870980499999998,
          "velocity": 0.7874015748031497
        },
        {
          "duration": 0.09677424999999928,
          "durationTicks": 24,
          "midi": 70,
          "name": "A#4",
          "ticks": 5424,
          "time": 21.870980499999998,
          "velocity": 0.7874015748031497
        },
        {
          "duration": 0.19354850000000212,
          "durationTicks": 48,
          "midi": 61,
          "name": "C#4",
          "ticks": 5472,
          "time": 22.064528999999997,
          "velocity": 0.7874015748031497
        },
        {
          "duration": 0.09677424999999928,
          "durationTicks": 24,
          "midi": 73,
          "name": "C#5",
          "ticks": 5520,
          "time": 22.2580775,
          "velocity": 0.7874015748031497
        },
        {
          "duration": 0.09677424999999928,
          "durationTicks": 24,
          "midi": 70,
          "name": "A#4",
          "ticks": 5520,
          "time": 22.2580775,
          "velocity": 0.7874015748031497
        },
        {
          "duration": 0.19354850000000212,
          "durationTicks": 48,
          "midi": 64,
          "name": "E4",
          "ticks": 5568,
          "time": 22.451625999999997,
          "velocity": 0.7874015748031497
        },
        {
          "duration": 0.09677424999999928,
          "durationTicks": 24,
          "midi": 72,
          "name": "C5",
          "ticks": 5616,
          "time": 22.6451745,
          "velocity": 0.7874015748031497
        },
        {
          "duration": 0.09677424999999928,
          "durationTicks": 24,
          "midi": 69,
          "name": "A4",
          "ticks": 5616,
          "time": 22.6451745,
          "velocity": 0.7874015748031497
        },
        {
          "duration": 0.19354849999999857,
          "durationTicks": 48,
          "midi": 60,
          "name": "C4",
          "ticks": 5664,
          "time": 22.838722999999998,
          "velocity": 0.7874015748031497
        },
        {
          "duration": 0.09677425000000284,
          "durationTicks": 24,
          "midi": 72,
          "name": "C5",
          "ticks": 5712,
          "time": 23.032271499999997,
          "velocity": 0.7874015748031497
        },
        {
          "duration": 0.09677425000000284,
          "durationTicks": 24,
          "midi": 69,
          "name": "A4",
          "ticks": 5712,
          "time": 23.032271499999997,
          "velocity": 0.7874015748031497
        },
        {
          "duration": 0.19354849999999857,
          "durationTicks": 48,
          "midi": 67,
          "name": "G4",
          "ticks": 5760,
          "time": 23.22582,
          "velocity": 0.7874015748031497
        },
        {
          "duration": 0.09677424999999928,
          "durationTicks": 24,
          "midi": 76,
          "name": "E5",
          "ticks": 5808,
          "time": 23.419368499999997,
          "velocity": 0.7874015748031497
        },
        {
          "duration": 0.09677424999999928,
          "durationTicks": 24,
          "midi": 72,
          "name": "C5",
          "ticks": 5808,
          "time": 23.419368499999997,
          "velocity": 0.7874015748031497
        },
        {
          "duration": 0.19354849999999857,
          "durationTicks": 48,
          "midi": 64,
          "name": "E4",
          "ticks": 5856,
          "time": 23.612917,
          "velocity": 0.7874015748031497
        },
        {
          "duration": 0.09677424999999928,
          "durationTicks": 24,
          "midi": 76,
          "name": "E5",
          "ticks": 5904,
          "time": 23.806465499999998,
          "velocity": 0.7874015748031497
        },
        {
          "duration": 0.09677424999999928,
          "durationTicks": 24,
          "midi": 72,
          "name": "C5",
          "ticks": 5904,
          "time": 23.806465499999998,
          "velocity": 0.7874015748031497
        },
        {
          "duration": 0.19354850000000212,
          "durationTicks": 48,
          "midi": 63,
          "name": "D#4",
          "ticks": 5952,
          "time": 24.000013999999997,
          "velocity": 0.7874015748031497
        },
        {
          "duration": 0.09677424999999928,
          "durationTicks": 24,
          "midi": 75,
          "name": "D#5",
          "ticks": 6000,
          "time": 24.1935625,
          "velocity": 0.7874015748031497
        },
        {
          "duration": 0.09677424999999928,
          "durationTicks": 24,
          "midi": 71,
          "name": "B4",
          "ticks": 6000,
          "time": 24.1935625,
          "velocity": 0.7874015748031497
        },
        {
          "duration": 0.19354850000000212,
          "durationTicks": 48,
          "midi": 66,
          "name": "F#4",
          "ticks": 6048,
          "time": 24.387110999999997,
          "velocity": 0.7874015748031497
        },
        {
          "duration": 0.09677424999999928,
          "durationTicks": 24,
          "midi": 75,
          "name": "D#5",
          "ticks": 6096,
          "time": 24.5806595,
          "velocity": 0.7874015748031497
        },
        {
          "duration": 0.09677424999999928,
          "durationTicks": 24,
          "midi": 71,
          "name": "B4",
          "ticks": 6096,
          "time": 24.5806595,
          "velocity": 0.7874015748031497
        },
        {
          "duration": 0.19354849999999857,
          "durationTicks": 48,
          "midi": 65,
          "name": "F4",
          "ticks": 6144,
          "time": 24.774207999999998,
          "velocity": 0.7874015748031497
        },
        {
          "duration": 0.09677425000000284,
          "durationTicks": 24,
          "midi": 73,
          "name": "C#5",
          "ticks": 6192,
          "time": 24.967756499999997,
          "velocity": 0.7874015748031497
        },
        {
          "duration": 0.09677425000000284,
          "durationTicks": 24,
          "midi": 70,
          "name": "A#4",
          "ticks": 6192,
          "time": 24.967756499999997,
          "velocity": 0.7874015748031497
        },
        {
          "duration": 0.19354849999999857,
          "durationTicks": 48,
          "midi": 61,
          "name": "C#4",
          "ticks": 6240,
          "time": 25.161305,
          "velocity": 0.7874015748031497
        },
        {
          "duration": 0.09677424999999928,
          "durationTicks": 24,
          "midi": 73,
          "name": "C#5",
          "ticks": 6288,
          "time": 25.354853499999997,
          "velocity": 0.7874015748031497
        },
        {
          "duration": 0.09677424999999928,
          "durationTicks": 24,
          "midi": 70,
          "name": "A#4",
          "ticks": 6288,
          "time": 25.354853499999997,
          "velocity": 0.7874015748031497
        },
        {
          "duration": 0.19354849999999857,
          "durationTicks": 48,
          "midi": 64,
          "name": "E4",
          "ticks": 6336,
          "time": 25.548402,
          "velocity": 0.7874015748031497
        },
        {
          "duration": 0.09677424999999928,
          "durationTicks": 24,
          "midi": 72,
          "name": "C5",
          "ticks": 6384,
          "time": 25.741950499999998,
          "velocity": 0.7874015748031497
        },
        {
          "duration": 0.09677424999999928,
          "durationTicks": 24,
          "midi": 69,
          "name": "A4",
          "ticks": 6384,
          "time": 25.741950499999998,
          "velocity": 0.7874015748031497
        },
        {
          "duration": 0.19354850000000212,
          "durationTicks": 48,
          "midi": 60,
          "name": "C4",
          "ticks": 6432,
          "time": 25.935498999999997,
          "velocity": 0.7874015748031497
        },
        {
          "duration": 0.09677424999999928,
          "durationTicks": 24,
          "midi": 72,
          "name": "C5",
          "ticks": 6480,
          "time": 26.1290475,
          "velocity": 0.7874015748031497
        },
        {
          "duration": 0.09677424999999928,
          "durationTicks": 24,
          "midi": 69,
          "name": "A4",
          "ticks": 6480,
          "time": 26.1290475,
          "velocity": 0.7874015748031497
        },
        {
          "duration": 0.19354850000000212,
          "durationTicks": 48,
          "midi": 79,
          "name": "G5",
          "ticks": 6528,
          "time": 26.322595999999997,
          "velocity": 0.7874015748031497
        },
        {
          "duration": 0.09677424999999928,
          "durationTicks": 24,
          "midi": 76,
          "name": "E5",
          "ticks": 6576,
          "time": 26.5161445,
          "velocity": 0.7874015748031497
        },
        {
          "duration": 0.09677424999999928,
          "durationTicks": 24,
          "midi": 72,
          "name": "C5",
          "ticks": 6576,
          "time": 26.5161445,
          "velocity": 0.7874015748031497
        },
        {
          "duration": 0.19354849999999857,
          "durationTicks": 48,
          "midi": 76,
          "name": "E5",
          "ticks": 6624,
          "time": 26.709692999999998,
          "velocity": 0.7874015748031497
        },
        {
          "duration": 0.09677425000000284,
          "durationTicks": 24,
          "midi": 76,
          "name": "E5",
          "ticks": 6672,
          "time": 26.903241499999996,
          "velocity": 0.7874015748031497
        },
        {
          "duration": 0.09677425000000284,
          "durationTicks": 24,
          "midi": 72,
          "name": "C5",
          "ticks": 6672,
          "time": 26.903241499999996,
          "velocity": 0.7874015748031497
        },
        {
          "duration": 0.29032274999999785,
          "durationTicks": 72,
          "midi": 75,
          "name": "D#5",
          "ticks": 6720,
          "time": 27.09679,
          "velocity": 0.7874015748031497
        },
        {
          "duration": 0.48387125,
          "durationTicks": 120,
          "midi": 75,
          "name": "D#5",
          "ticks": 6768,
          "time": 27.290338499999997,
          "velocity": 0.7874015748031497
        },
        {
          "duration": 0.09677424999999928,
          "durationTicks": 24,
          "midi": 71,
          "name": "B4",
          "ticks": 6768,
          "time": 27.290338499999997,
          "velocity": 0.7874015748031497
        },
        {
          "duration": 0.19354849999999857,
          "durationTicks": 48,
          "midi": 75,
          "name": "D#5",
          "ticks": 6864,
          "time": 27.677435499999998,
          "velocity": 0.7874015748031497
        },
        {
          "duration": 0.09677424999999928,
          "durationTicks": 24,
          "midi": 71,
          "name": "B4",
          "ticks": 6864,
          "time": 27.677435499999998,
          "velocity": 0.7874015748031497
        },
        {
          "duration": 0.19354850000000212,
          "durationTicks": 48,
          "midi": 65,
          "name": "F4",
          "ticks": 6912,
          "time": 27.870983999999996,
          "velocity": 0.7874015748031497
        },
        {
          "duration": 0.19354850000000212,
          "durationTicks": 48,
          "midi": 70,
          "name": "A#4",
          "ticks": 6912,
          "time": 27.870983999999996,
          "velocity": 0.7874015748031497
        },
        {
          "duration": 0.19354850000000212,
          "durationTicks": 48,
          "midi": 73,
          "name": "C#5",
          "ticks": 7008,
          "time": 28.258080999999997,
          "velocity": 0.7874015748031497
        },
        {
          "duration": 0.19354850000000212,
          "durationTicks": 48,
          "midi": 77,
          "name": "F5",
          "ticks": 7008,
          "time": 28.258080999999997,
          "velocity": 0.7874015748031497
        },
        {
          "duration": 0.19354849999999857,
          "durationTicks": 48,
          "midi": 65,
          "name": "F4",
          "ticks": 7104,
          "time": 28.645177999999998,
          "velocity": 0.7874015748031497
        },
        {
          "duration": 0.19354849999999857,
          "durationTicks": 48,
          "midi": 72,
          "name": "C5",
          "ticks": 7104,
          "time": 28.645177999999998,
          "velocity": 0.7874015748031497
        },
        {
          "duration": 0.19354849999999857,
          "durationTicks": 48,
          "midi": 73,
          "name": "C#5",
          "ticks": 7200,
          "time": 29.032275,
          "velocity": 0.7874015748031497
        },
        {
          "duration": 0.19354849999999857,
          "durationTicks": 48,
          "midi": 77,
          "name": "F5",
          "ticks": 7200,
          "time": 29.032275,
          "velocity": 0.7874015748031497
        },
        {
          "duration": 0.19354849999999857,
          "durationTicks": 48,
          "midi": 70,
          "name": "A#4",
          "ticks": 7296,
          "time": 29.419372,
          "velocity": 0.7874015748031497
        },
        {
          "duration": 0.19354849999999857,
          "durationTicks": 48,
          "midi": 73,
          "name": "C#5",
          "ticks": 7296,
          "time": 29.419372,
          "velocity": 0.7874015748031497
        },
        {
          "duration": 0.19354850000000212,
          "durationTicks": 48,
          "midi": 72,
          "name": "C5",
          "ticks": 7392,
          "time": 29.806468999999996,
          "velocity": 0.7874015748031497
        },
        {
          "duration": 0.19354850000000212,
          "durationTicks": 48,
          "midi": 75,
          "name": "D#5",
          "ticks": 7392,
          "time": 29.806468999999996,
          "velocity": 0.7874015748031497
        },
        {
          "duration": 0.19354849999999857,
          "durationTicks": 48,
          "midi": 73,
          "name": "C#5",
          "ticks": 7440,
          "time": 30.0000175,
          "velocity": 0.7874015748031497
        },
        {
          "duration": 0.19354849999999857,
          "durationTicks": 48,
          "midi": 77,
          "name": "F5",
          "ticks": 7440,
          "time": 30.0000175,
          "velocity": 0.7874015748031497
        },
        {
          "duration": 0.19354850000000212,
          "durationTicks": 48,
          "midi": 72,
          "name": "C5",
          "ticks": 7488,
          "time": 30.193565999999997,
          "velocity": 0.7874015748031497
        },
        {
          "duration": 0.19354850000000212,
          "durationTicks": 48,
          "midi": 75,
          "name": "D#5",
          "ticks": 7488,
          "time": 30.193565999999997,
          "velocity": 0.7874015748031497
        },
        {
          "duration": 0.19354849999999857,
          "durationTicks": 48,
          "midi": 75,
          "name": "D#5",
          "ticks": 7584,
          "time": 30.580662999999998,
          "velocity": 0.7874015748031497
        },
        {
          "duration": 0.19354849999999857,
          "durationTicks": 48,
          "midi": 79,
          "name": "G5",
          "ticks": 7584,
          "time": 30.580662999999998,
          "velocity": 0.7874015748031497
        },
        {
          "duration": 0.19354849999999857,
          "durationTicks": 48,
          "midi": 77,
          "name": "F5",
          "ticks": 7680,
          "time": 30.96776,
          "velocity": 0.7874015748031497
        },
        {
          "duration": 0.19354849999999857,
          "durationTicks": 48,
          "midi": 82,
          "name": "A#5",
          "ticks": 7680,
          "time": 30.96776,
          "velocity": 0.7874015748031497
        },
        {
          "duration": 0.19354850000000212,
          "durationTicks": 48,
          "midi": 73,
          "name": "C#5",
          "ticks": 7728,
          "time": 31.161308499999997,
          "velocity": 0.7874015748031497
        },
        {
          "duration": 0.19354850000000212,
          "durationTicks": 48,
          "midi": 77,
          "name": "F5",
          "ticks": 7728,
          "time": 31.161308499999997,
          "velocity": 0.7874015748031497
        },
        {
          "duration": 0.19354849999999857,
          "durationTicks": 48,
          "midi": 80,
          "name": "G#5",
          "ticks": 7776,
          "time": 31.354857,
          "velocity": 0.7874015748031497
        },
        {
          "duration": 0.19354849999999857,
          "durationTicks": 48,
          "midi": 84,
          "name": "C6",
          "ticks": 7776,
          "time": 31.354857,
          "velocity": 0.7874015748031497
        },
        {
          "duration": 0.09677424999999928,
          "durationTicks": 24,
          "midi": 82,
          "name": "A#5",
          "ticks": 7824,
          "time": 31.548405499999998,
          "velocity": 0.7874015748031497
        },
        {
          "duration": 0.09677424999999928,
          "durationTicks": 24,
          "midi": 85,
          "name": "C#6",
          "ticks": 7824,
          "time": 31.548405499999998,
          "velocity": 0.7874015748031497
        },
        {
          "duration": 0.19354850000000212,
          "durationTicks": 48,
          "midi": 80,
          "name": "G#5",
          "ticks": 7872,
          "time": 31.741953999999996,
          "velocity": 0.7874015748031497
        },
        {
          "duration": 0.19354850000000212,
          "durationTicks": 48,
          "midi": 84,
          "name": "C6",
          "ticks": 7872,
          "time": 31.741953999999996,
          "velocity": 0.7874015748031497
        },
        {
          "duration": 0.09677424999999573,
          "durationTicks": 24,
          "midi": 82,
          "name": "A#5",
          "ticks": 7920,
          "time": 31.9355025,
          "velocity": 0.7874015748031497
        },
        {
          "duration": 0.09677424999999573,
          "durationTicks": 24,
          "midi": 85,
          "name": "C#6",
          "ticks": 7920,
          "time": 31.9355025,
          "velocity": 0.7874015748031497
        },
        {
          "duration": 0.09677425000000284,
          "durationTicks": 24,
          "midi": 80,
          "name": "G#5",
          "ticks": 7944,
          "time": 32.032276749999994,
          "velocity": 0.7874015748031497
        },
        {
          "duration": 0.09677425000000284,
          "durationTicks": 24,
          "midi": 84,
          "name": "C6",
          "ticks": 7944,
          "time": 32.032276749999994,
          "velocity": 0.7874015748031497
        },
        {
          "duration": 0.19354849999999857,
          "durationTicks": 48,
          "midi": 73,
          "name": "C#5",
          "ticks": 7968,
          "time": 32.129051,
          "velocity": 0.7874015748031497
        },
        {
          "duration": 0.19354849999999857,
          "durationTicks": 48,
          "midi": 82,
          "name": "A#5",
          "ticks": 7968,
          "time": 32.129051,
          "velocity": 0.7874015748031497
        },
        {
          "duration": 0.09677425000000284,
          "durationTicks": 24,
          "midi": 73,
          "name": "C#5",
          "ticks": 8016,
          "time": 32.322599499999995,
          "velocity": 0.7874015748031497
        },
        {
          "duration": 0.09677425000000284,
          "durationTicks": 24,
          "midi": 80,
          "name": "G#5",
          "ticks": 8016,
          "time": 32.322599499999995,
          "velocity": 0.7874015748031497
        },
        {
          "duration": 0.19354850000000567,
          "durationTicks": 48,
          "midi": 73,
          "name": "C#5",
          "ticks": 8064,
          "time": 32.516147999999994,
          "velocity": 0.7874015748031497
        },
        {
          "duration": 0.19354850000000567,
          "durationTicks": 48,
          "midi": 77,
          "name": "F5",
          "ticks": 8064,
          "time": 32.516147999999994,
          "velocity": 0.7874015748031497
        },
        {
          "duration": 0.09677424999999573,
          "durationTicks": 24,
          "midi": 77,
          "name": "F5",
          "ticks": 8112,
          "time": 32.7096965,
          "velocity": 0.7874015748031497
        },
        {
          "duration": 0.09677424999999573,
          "durationTicks": 24,
          "midi": 80,
          "name": "G#5",
          "ticks": 8112,
          "time": 32.7096965,
          "velocity": 0.7874015748031497
        },
        {
          "duration": 0.19354849999999857,
          "durationTicks": 48,
          "midi": 72,
          "name": "C5",
          "ticks": 8160,
          "time": 32.903245,
          "velocity": 0.7874015748031497
        },
        {
          "duration": 0.19354849999999857,
          "durationTicks": 48,
          "midi": 75,
          "name": "D#5",
          "ticks": 8160,
          "time": 32.903245,
          "velocity": 0.7874015748031497
        },
        {
          "duration": 0.09677425000000284,
          "durationTicks": 24,
          "midi": 73,
          "name": "C#5",
          "ticks": 8208,
          "time": 33.0967935,
          "velocity": 0.7874015748031497
        },
        {
          "duration": 0.09677425000000284,
          "durationTicks": 24,
          "midi": 77,
          "name": "F5",
          "ticks": 8208,
          "time": 33.0967935,
          "velocity": 0.7874015748031497
        },
        {
          "duration": 0.7741940000000014,
          "durationTicks": 192,
          "midi": 70,
          "name": "A#4",
          "ticks": 8256,
          "time": 33.290341999999995,
          "velocity": 0.7874015748031497
        },
        {
          "duration": 0.7741940000000014,
          "durationTicks": 192,
          "midi": 73,
          "name": "C#5",
          "ticks": 8256,
          "time": 33.290341999999995,
          "velocity": 0.7874015748031497
        },
        {
          "duration": 0.19354849999999857,
          "durationTicks": 48,
          "midi": 65,
          "name": "F4",
          "ticks": 8448,
          "time": 34.064536,
          "velocity": 0.7874015748031497
        },
        {
          "duration": 0.19354849999999857,
          "durationTicks": 48,
          "midi": 70,
          "name": "A#4",
          "ticks": 8448,
          "time": 34.064536,
          "velocity": 0.7874015748031497
        },
        {
          "duration": 0.19354850000000567,
          "durationTicks": 48,
          "midi": 73,
          "name": "C#5",
          "ticks": 8544,
          "time": 34.451632999999994,
          "velocity": 0.7874015748031497
        },
        {
          "duration": 0.19354850000000567,
          "durationTicks": 48,
          "midi": 77,
          "name": "F5",
          "ticks": 8544,
          "time": 34.451632999999994,
          "velocity": 0.7874015748031497
        },
        {
          "duration": 0.19354849999999857,
          "durationTicks": 48,
          "midi": 65,
          "name": "F4",
          "ticks": 8640,
          "time": 34.83873,
          "velocity": 0.7874015748031497
        },
        {
          "duration": 0.19354849999999857,
          "durationTicks": 48,
          "midi": 72,
          "name": "C5",
          "ticks": 8640,
          "time": 34.83873,
          "velocity": 0.7874015748031497
        },
        {
          "duration": 0.19354849999999857,
          "durationTicks": 48,
          "midi": 73,
          "name": "C#5",
          "ticks": 8736,
          "time": 35.225826999999995,
          "velocity": 0.7874015748031497
        },
        {
          "duration": 0.19354849999999857,
          "durationTicks": 48,
          "midi": 77,
          "name": "F5",
          "ticks": 8736,
          "time": 35.225826999999995,
          "velocity": 0.7874015748031497
        },
        {
          "duration": 0.19354849999999857,
          "durationTicks": 48,
          "midi": 70,
          "name": "A#4",
          "ticks": 8832,
          "time": 35.612924,
          "velocity": 0.7874015748031497
        },
        {
          "duration": 0.19354849999999857,
          "durationTicks": 48,
          "midi": 73,
          "name": "C#5",
          "ticks": 8832,
          "time": 35.612924,
          "velocity": 0.7874015748031497
        },
        {
          "duration": 0.19354849999999857,
          "durationTicks": 48,
          "midi": 72,
          "name": "C5",
          "ticks": 8928,
          "time": 36.000021,
          "velocity": 0.7874015748031497
        },
        {
          "duration": 0.19354849999999857,
          "durationTicks": 48,
          "midi": 75,
          "name": "D#5",
          "ticks": 8928,
          "time": 36.000021,
          "velocity": 0.7874015748031497
        },
        {
          "duration": 0.19354849999999857,
          "durationTicks": 48,
          "midi": 73,
          "name": "C#5",
          "ticks": 8976,
          "time": 36.193569499999995,
          "velocity": 0.7874015748031497
        },
        {
          "duration": 0.19354849999999857,
          "durationTicks": 48,
          "midi": 77,
          "name": "F5",
          "ticks": 8976,
          "time": 36.193569499999995,
          "velocity": 0.7874015748031497
        },
        {
          "duration": 0.19354850000000567,
          "durationTicks": 48,
          "midi": 72,
          "name": "C5",
          "ticks": 9024,
          "time": 36.387117999999994,
          "velocity": 0.7874015748031497
        },
        {
          "duration": 0.19354850000000567,
          "durationTicks": 48,
          "midi": 75,
          "name": "D#5",
          "ticks": 9024,
          "time": 36.387117999999994,
          "velocity": 0.7874015748031497
        },
        {
          "duration": 0.19354849999999857,
          "durationTicks": 48,
          "midi": 75,
          "name": "D#5",
          "ticks": 9120,
          "time": 36.774215,
          "velocity": 0.7874015748031497
        },
        {
          "duration": 0.19354849999999857,
          "durationTicks": 48,
          "midi": 79,
          "name": "G5",
          "ticks": 9120,
          "time": 36.774215,
          "velocity": 0.7874015748031497
        },
        {
          "duration": 0.19354849999999857,
          "durationTicks": 48,
          "midi": 77,
          "name": "F5",
          "ticks": 9216,
          "time": 37.161311999999995,
          "velocity": 0.7874015748031497
        },
        {
          "duration": 0.19354849999999857,
          "durationTicks": 48,
          "midi": 82,
          "name": "A#5",
          "ticks": 9216,
          "time": 37.161311999999995,
          "velocity": 0.7874015748031497
        },
        {
          "duration": 0.19354850000000567,
          "durationTicks": 48,
          "midi": 73,
          "name": "C#5",
          "ticks": 9264,
          "time": 37.354860499999994,
          "velocity": 0.7874015748031497
        },
        {
          "duration": 0.19354850000000567,
          "durationTicks": 48,
          "midi": 77,
          "name": "F5",
          "ticks": 9264,
          "time": 37.354860499999994,
          "velocity": 0.7874015748031497
        },
        {
          "duration": 0.19354849999999857,
          "durationTicks": 48,
          "midi": 80,
          "name": "G#5",
          "ticks": 9312,
          "time": 37.548409,
          "velocity": 0.7874015748031497
        },
        {
          "duration": 0.19354849999999857,
          "durationTicks": 48,
          "midi": 84,
          "name": "C6",
          "ticks": 9312,
          "time": 37.548409,
          "velocity": 0.7874015748031497
        },
        {
          "duration": 0.09677424999999573,
          "durationTicks": 24,
          "midi": 82,
          "name": "A#5",
          "ticks": 9360,
          "time": 37.7419575,
          "velocity": 0.7874015748031497
        },
        {
          "duration": 0.09677424999999573,
          "durationTicks": 24,
          "midi": 85,
          "name": "C#6",
          "ticks": 9360,
          "time": 37.7419575,
          "velocity": 0.7874015748031497
        },
        {
          "duration": 0.19354849999999857,
          "durationTicks": 48,
          "midi": 80,
          "name": "G#5",
          "ticks": 9408,
          "time": 37.935506,
          "velocity": 0.7874015748031497
        },
        {
          "duration": 0.19354849999999857,
          "durationTicks": 48,
          "midi": 84,
          "name": "C6",
          "ticks": 9408,
          "time": 37.935506,
          "velocity": 0.7874015748031497
        },
        {
          "duration": 0.09677425000000284,
          "durationTicks": 24,
          "midi": 82,
          "name": "A#5",
          "ticks": 9456,
          "time": 38.129054499999995,
          "velocity": 0.7874015748031497
        },
        {
          "duration": 0.09677425000000284,
          "durationTicks": 24,
          "midi": 85,
          "name": "C#6",
          "ticks": 9456,
          "time": 38.129054499999995,
          "velocity": 0.7874015748031497
        },
        {
          "duration": 0.09677424999999573,
          "durationTicks": 24,
          "midi": 80,
          "name": "G#5",
          "ticks": 9480,
          "time": 38.22582875,
          "velocity": 0.7874015748031497
        },
        {
          "duration": 0.09677424999999573,
          "durationTicks": 24,
          "midi": 84,
          "name": "C6",
          "ticks": 9480,
          "time": 38.22582875,
          "velocity": 0.7874015748031497
        },
        {
          "duration": 0.19354850000000567,
          "durationTicks": 48,
          "midi": 73,
          "name": "C#5",
          "ticks": 9504,
          "time": 38.322602999999994,
          "velocity": 0.7874015748031497
        },
        {
          "duration": 0.19354850000000567,
          "durationTicks": 48,
          "midi": 82,
          "name": "A#5",
          "ticks": 9504,
          "time": 38.322602999999994,
          "velocity": 0.7874015748031497
        },
        {
          "duration": 0.09677424999999573,
          "durationTicks": 24,
          "midi": 73,
          "name": "C#5",
          "ticks": 9552,
          "time": 38.5161515,
          "velocity": 0.7874015748031497
        },
        {
          "duration": 0.09677424999999573,
          "durationTicks": 24,
          "midi": 80,
          "name": "G#5",
          "ticks": 9552,
          "time": 38.5161515,
          "velocity": 0.7874015748031497
        },
        {
          "duration": 1.5483879999999957,
          "durationTicks": 384,
          "midi": 77,
          "name": "F5",
          "ticks": 9600,
          "time": 38.7097,
          "velocity": 0.7874015748031497
        },
        {
          "duration": 1.5483879999999957,
          "durationTicks": 384,
          "midi": 82,
          "name": "A#5",
          "ticks": 9600,
          "time": 38.7097,
          "velocity": 0.7874015748031497
        },
        {
          "duration": 0.19354850000000567,
          "durationTicks": 48,
          "midi": 65,
          "name": "F4",
          "ticks": 9984,
          "time": 40.258087999999994,
          "velocity": 0.7874015748031497
        },
        {
          "duration": 0.19354850000000567,
          "durationTicks": 48,
          "midi": 70,
          "name": "A#4",
          "ticks": 9984,
          "time": 40.258087999999994,
          "velocity": 0.7874015748031497
        },
        {
          "duration": 0.19354849999999857,
          "durationTicks": 48,
          "midi": 73,
          "name": "C#5",
          "ticks": 10080,
          "time": 40.645185,
          "velocity": 0.7874015748031497
        },
        {
          "duration": 0.19354849999999857,
          "durationTicks": 48,
          "midi": 77,
          "name": "F5",
          "ticks": 10080,
          "time": 40.645185,
          "velocity": 0.7874015748031497
        },
        {
          "duration": 0.19354849999999857,
          "durationTicks": 48,
          "midi": 65,
          "name": "F4",
          "ticks": 10176,
          "time": 41.032281999999995,
          "velocity": 0.7874015748031497
        },
        {
          "duration": 0.19354849999999857,
          "durationTicks": 48,
          "midi": 72,
          "name": "C5",
          "ticks": 10176,
          "time": 41.032281999999995,
          "velocity": 0.7874015748031497
        },
        {
          "duration": 0.19354849999999857,
          "durationTicks": 48,
          "midi": 73,
          "name": "C#5",
          "ticks": 10272,
          "time": 41.419379,
          "velocity": 0.7874015748031497
        },
        {
          "duration": 0.19354849999999857,
          "durationTicks": 48,
          "midi": 77,
          "name": "F5",
          "ticks": 10272,
          "time": 41.419379,
          "velocity": 0.7874015748031497
        },
        {
          "duration": 0.19354849999999857,
          "durationTicks": 48,
          "midi": 70,
          "name": "A#4",
          "ticks": 10368,
          "time": 41.806475999999996,
          "velocity": 0.7874015748031497
        },
        {
          "duration": 0.19354849999999857,
          "durationTicks": 48,
          "midi": 73,
          "name": "C#5",
          "ticks": 10368,
          "time": 41.806475999999996,
          "velocity": 0.7874015748031497
        },
        {
          "duration": 0.19354850000000567,
          "durationTicks": 48,
          "midi": 72,
          "name": "C5",
          "ticks": 10464,
          "time": 42.193572999999994,
          "velocity": 0.7874015748031497
        },
        {
          "duration": 0.19354850000000567,
          "durationTicks": 48,
          "midi": 75,
          "name": "D#5",
          "ticks": 10464,
          "time": 42.193572999999994,
          "velocity": 0.7874015748031497
        },
        {
          "duration": 0.19354849999999857,
          "durationTicks": 48,
          "midi": 73,
          "name": "C#5",
          "ticks": 10512,
          "time": 42.3871215,
          "velocity": 0.7874015748031497
        },
        {
          "duration": 0.19354849999999857,
          "durationTicks": 48,
          "midi": 77,
          "name": "F5",
          "ticks": 10512,
          "time": 42.3871215,
          "velocity": 0.7874015748031497
        },
        {
          "duration": 0.19354849999999857,
          "durationTicks": 48,
          "midi": 72,
          "name": "C5",
          "ticks": 10560,
          "time": 42.58067,
          "velocity": 0.7874015748031497
        },
        {
          "duration": 0.19354849999999857,
          "durationTicks": 48,
          "midi": 75,
          "name": "D#5",
          "ticks": 10560,
          "time": 42.58067,
          "velocity": 0.7874015748031497
        },
        {
          "duration": 0.19354849999999857,
          "durationTicks": 48,
          "midi": 75,
          "name": "D#5",
          "ticks": 10656,
          "time": 42.967766999999995,
          "velocity": 0.7874015748031497
        },
        {
          "duration": 0.19354849999999857,
          "durationTicks": 48,
          "midi": 79,
          "name": "G5",
          "ticks": 10656,
          "time": 42.967766999999995,
          "velocity": 0.7874015748031497
        },
        {
          "duration": 0.19354849999999857,
          "durationTicks": 48,
          "midi": 77,
          "name": "F5",
          "ticks": 10752,
          "time": 43.354864,
          "velocity": 0.7874015748031497
        },
        {
          "duration": 0.19354849999999857,
          "durationTicks": 48,
          "midi": 82,
          "name": "A#5",
          "ticks": 10752,
          "time": 43.354864,
          "velocity": 0.7874015748031497
        },
        {
          "duration": 0.19354849999999857,
          "durationTicks": 48,
          "midi": 73,
          "name": "C#5",
          "ticks": 10800,
          "time": 43.5484125,
          "velocity": 0.7874015748031497
        },
        {
          "duration": 0.19354849999999857,
          "durationTicks": 48,
          "midi": 77,
          "name": "F5",
          "ticks": 10800,
          "time": 43.5484125,
          "velocity": 0.7874015748031497
        },
        {
          "duration": 0.19354849999999857,
          "durationTicks": 48,
          "midi": 80,
          "name": "G#5",
          "ticks": 10848,
          "time": 43.741960999999996,
          "velocity": 0.7874015748031497
        },
        {
          "duration": 0.19354849999999857,
          "durationTicks": 48,
          "midi": 84,
          "name": "C6",
          "ticks": 10848,
          "time": 43.741960999999996,
          "velocity": 0.7874015748031497
        },
        {
          "duration": 0.09677425000000284,
          "durationTicks": 24,
          "midi": 82,
          "name": "A#5",
          "ticks": 10896,
          "time": 43.935509499999995,
          "velocity": 0.7874015748031497
        },
        {
          "duration": 0.09677425000000284,
          "durationTicks": 24,
          "midi": 85,
          "name": "C#6",
          "ticks": 10896,
          "time": 43.935509499999995,
          "velocity": 0.7874015748031497
        },
        {
          "duration": 0.19354850000000567,
          "durationTicks": 48,
          "midi": 80,
          "name": "G#5",
          "ticks": 10944,
          "time": 44.12905799999999,
          "velocity": 0.7874015748031497
        },
        {
          "duration": 0.19354850000000567,
          "durationTicks": 48,
          "midi": 84,
          "name": "C6",
          "ticks": 10944,
          "time": 44.12905799999999,
          "velocity": 0.7874015748031497
        },
        {
          "duration": 0.09677424999999573,
          "durationTicks": 24,
          "midi": 82,
          "name": "A#5",
          "ticks": 10992,
          "time": 44.3226065,
          "velocity": 0.7874015748031497
        },
        {
          "duration": 0.09677424999999573,
          "durationTicks": 24,
          "midi": 85,
          "name": "C#6",
          "ticks": 10992,
          "time": 44.3226065,
          "velocity": 0.7874015748031497
        },
        {
          "duration": 0.09677425000000284,
          "durationTicks": 24,
          "midi": 80,
          "name": "G#5",
          "ticks": 11016,
          "time": 44.419380749999995,
          "velocity": 0.7874015748031497
        },
        {
          "duration": 0.09677425000000284,
          "durationTicks": 24,
          "midi": 84,
          "name": "C6",
          "ticks": 11016,
          "time": 44.419380749999995,
          "velocity": 0.7874015748031497
        },
        {
          "duration": 0.19354849999999857,
          "durationTicks": 48,
          "midi": 73,
          "name": "C#5",
          "ticks": 11040,
          "time": 44.516155,
          "velocity": 0.7874015748031497
        },
        {
          "duration": 0.19354849999999857,
          "durationTicks": 48,
          "midi": 82,
          "name": "A#5",
          "ticks": 11040,
          "time": 44.516155,
          "velocity": 0.7874015748031497
        },
        {
          "duration": 0.09677425000000284,
          "durationTicks": 24,
          "midi": 73,
          "name": "C#5",
          "ticks": 11088,
          "time": 44.709703499999996,
          "velocity": 0.7874015748031497
        },
        {
          "duration": 0.09677425000000284,
          "durationTicks": 24,
          "midi": 80,
          "name": "G#5",
          "ticks": 11088,
          "time": 44.709703499999996,
          "velocity": 0.7874015748031497
        },
        {
          "duration": 0.19354849999999857,
          "durationTicks": 48,
          "midi": 73,
          "name": "C#5",
          "ticks": 11136,
          "time": 44.903251999999995,
          "velocity": 0.7874015748031497
        },
        {
          "duration": 0.19354849999999857,
          "durationTicks": 48,
          "midi": 77,
          "name": "F5",
          "ticks": 11136,
          "time": 44.903251999999995,
          "velocity": 0.7874015748031497
        },
        {
          "duration": 0.09677425000000284,
          "durationTicks": 24,
          "midi": 77,
          "name": "F5",
          "ticks": 11184,
          "time": 45.09680049999999,
          "velocity": 0.7874015748031497
        },
        {
          "duration": 0.09677425000000284,
          "durationTicks": 24,
          "midi": 80,
          "name": "G#5",
          "ticks": 11184,
          "time": 45.09680049999999,
          "velocity": 0.7874015748031497
        },
        {
          "duration": 0.19354849999999857,
          "durationTicks": 48,
          "midi": 72,
          "name": "C5",
          "ticks": 11232,
          "time": 45.290349,
          "velocity": 0.7874015748031497
        },
        {
          "duration": 0.19354849999999857,
          "durationTicks": 48,
          "midi": 75,
          "name": "D#5",
          "ticks": 11232,
          "time": 45.290349,
          "velocity": 0.7874015748031497
        },
        {
          "duration": 0.09677424999999573,
          "durationTicks": 24,
          "midi": 73,
          "name": "C#5",
          "ticks": 11280,
          "time": 45.4838975,
          "velocity": 0.7874015748031497
        },
        {
          "duration": 0.09677424999999573,
          "durationTicks": 24,
          "midi": 77,
          "name": "F5",
          "ticks": 11280,
          "time": 45.4838975,
          "velocity": 0.7874015748031497
        },
        {
          "duration": 0.7741940000000014,
          "durationTicks": 192,
          "midi": 70,
          "name": "A#4",
          "ticks": 11328,
          "time": 45.677445999999996,
          "velocity": 0.7874015748031497
        },
        {
          "duration": 0.7741940000000014,
          "durationTicks": 192,
          "midi": 73,
          "name": "C#5",
          "ticks": 11328,
          "time": 45.677445999999996,
          "velocity": 0.7874015748031497
        },
        {
          "duration": 0.19354849999999857,
          "durationTicks": 48,
          "midi": 65,
          "name": "F4",
          "ticks": 11520,
          "time": 46.45164,
          "velocity": 0.7874015748031497
        },
        {
          "duration": 0.19354849999999857,
          "durationTicks": 48,
          "midi": 70,
          "name": "A#4",
          "ticks": 11520,
          "time": 46.45164,
          "velocity": 0.7874015748031497
        },
        {
          "duration": 0.19354849999999857,
          "durationTicks": 48,
          "midi": 73,
          "name": "C#5",
          "ticks": 11616,
          "time": 46.838736999999995,
          "velocity": 0.7874015748031497
        },
        {
          "duration": 0.19354849999999857,
          "durationTicks": 48,
          "midi": 77,
          "name": "F5",
          "ticks": 11616,
          "time": 46.838736999999995,
          "velocity": 0.7874015748031497
        },
        {
          "duration": 0.19354849999999857,
          "durationTicks": 48,
          "midi": 65,
          "name": "F4",
          "ticks": 11712,
          "time": 47.225834,
          "velocity": 0.7874015748031497
        },
        {
          "duration": 0.19354849999999857,
          "durationTicks": 48,
          "midi": 72,
          "name": "C5",
          "ticks": 11712,
          "time": 47.225834,
          "velocity": 0.7874015748031497
        },
        {
          "duration": 0.19354849999999857,
          "durationTicks": 48,
          "midi": 73,
          "name": "C#5",
          "ticks": 11808,
          "time": 47.612930999999996,
          "velocity": 0.7874015748031497
        },
        {
          "duration": 0.19354849999999857,
          "durationTicks": 48,
          "midi": 77,
          "name": "F5",
          "ticks": 11808,
          "time": 47.612930999999996,
          "velocity": 0.7874015748031497
        },
        {
          "duration": 0.19354850000000567,
          "durationTicks": 48,
          "midi": 70,
          "name": "A#4",
          "ticks": 11904,
          "time": 48.00002799999999,
          "velocity": 0.7874015748031497
        },
        {
          "duration": 0.19354850000000567,
          "durationTicks": 48,
          "midi": 73,
          "name": "C#5",
          "ticks": 11904,
          "time": 48.00002799999999,
          "velocity": 0.7874015748031497
        },
        {
          "duration": 0.19354849999999857,
          "durationTicks": 48,
          "midi": 72,
          "name": "C5",
          "ticks": 12000,
          "time": 48.387125,
          "velocity": 0.7874015748031497
        },
        {
          "duration": 0.19354849999999857,
          "durationTicks": 48,
          "midi": 75,
          "name": "D#5",
          "ticks": 12000,
          "time": 48.387125,
          "velocity": 0.7874015748031497
        },
        {
          "duration": 0.19354849999999857,
          "durationTicks": 48,
          "midi": 73,
          "name": "C#5",
          "ticks": 12048,
          "time": 48.580673499999996,
          "velocity": 0.7874015748031497
        },
        {
          "duration": 0.19354849999999857,
          "durationTicks": 48,
          "midi": 77,
          "name": "F5",
          "ticks": 12048,
          "time": 48.580673499999996,
          "velocity": 0.7874015748031497
        },
        {
          "duration": 0.19354849999999857,
          "durationTicks": 48,
          "midi": 72,
          "name": "C5",
          "ticks": 12096,
          "time": 48.774221999999995,
          "velocity": 0.7874015748031497
        },
        {
          "duration": 0.19354849999999857,
          "durationTicks": 48,
          "midi": 75,
          "name": "D#5",
          "ticks": 12096,
          "time": 48.774221999999995,
          "velocity": 0.7874015748031497
        },
        {
          "duration": 0.19354849999999857,
          "durationTicks": 48,
          "midi": 75,
          "name": "D#5",
          "ticks": 12192,
          "time": 49.161319,
          "velocity": 0.7874015748031497
        },
        {
          "duration": 0.19354849999999857,
          "durationTicks": 48,
          "midi": 79,
          "name": "G5",
          "ticks": 12192,
          "time": 49.161319,
          "velocity": 0.7874015748031497
        },
        {
          "duration": 0.19354849999999857,
          "durationTicks": 48,
          "midi": 77,
          "name": "F5",
          "ticks": 12288,
          "time": 49.548415999999996,
          "velocity": 0.7874015748031497
        },
        {
          "duration": 0.19354849999999857,
          "durationTicks": 48,
          "midi": 82,
          "name": "A#5",
          "ticks": 12288,
          "time": 49.548415999999996,
          "velocity": 0.7874015748031497
        },
        {
          "duration": 0.19354849999999857,
          "durationTicks": 48,
          "midi": 73,
          "name": "C#5",
          "ticks": 12336,
          "time": 49.741964499999995,
          "velocity": 0.7874015748031497
        },
        {
          "duration": 0.19354849999999857,
          "durationTicks": 48,
          "midi": 77,
          "name": "F5",
          "ticks": 12336,
          "time": 49.741964499999995,
          "velocity": 0.7874015748031497
        },
        {
          "duration": 0.19354850000000567,
          "durationTicks": 48,
          "midi": 80,
          "name": "G#5",
          "ticks": 12384,
          "time": 49.93551299999999,
          "velocity": 0.7874015748031497
        },
        {
          "duration": 0.19354850000000567,
          "durationTicks": 48,
          "midi": 84,
          "name": "C6",
          "ticks": 12384,
          "time": 49.93551299999999,
          "velocity": 0.7874015748031497
        },
        {
          "duration": 0.09677424999999573,
          "durationTicks": 24,
          "midi": 82,
          "name": "A#5",
          "ticks": 12432,
          "time": 50.1290615,
          "velocity": 0.7874015748031497
        },
        {
          "duration": 0.09677424999999573,
          "durationTicks": 24,
          "midi": 85,
          "name": "C#6",
          "ticks": 12432,
          "time": 50.1290615,
          "velocity": 0.7874015748031497
        },
        {
          "duration": 0.19354849999999857,
          "durationTicks": 48,
          "midi": 80,
          "name": "G#5",
          "ticks": 12480,
          "time": 50.32261,
          "velocity": 0.7874015748031497
        },
        {
          "duration": 0.19354849999999857,
          "durationTicks": 48,
          "midi": 84,
          "name": "C6",
          "ticks": 12480,
          "time": 50.32261,
          "velocity": 0.7874015748031497
        },
        {
          "duration": 0.09677425000000284,
          "durationTicks": 24,
          "midi": 82,
          "name": "A#5",
          "ticks": 12528,
          "time": 50.516158499999996,
          "velocity": 0.7874015748031497
        },
        {
          "duration": 0.09677425000000284,
          "durationTicks": 24,
          "midi": 85,
          "name": "C#6",
          "ticks": 12528,
          "time": 50.516158499999996,
          "velocity": 0.7874015748031497
        },
        {
          "duration": 0.09677424999999573,
          "durationTicks": 24,
          "midi": 80,
          "name": "G#5",
          "ticks": 12552,
          "time": 50.61293275,
          "velocity": 0.7874015748031497
        },
        {
          "duration": 0.09677424999999573,
          "durationTicks": 24,
          "midi": 84,
          "name": "C6",
          "ticks": 12552,
          "time": 50.61293275,
          "velocity": 0.7874015748031497
        },
        {
          "duration": 0.19354849999999857,
          "durationTicks": 48,
          "midi": 73,
          "name": "C#5",
          "ticks": 12576,
          "time": 50.709706999999995,
          "velocity": 0.7874015748031497
        },
        {
          "duration": 0.19354849999999857,
          "durationTicks": 48,
          "midi": 82,
          "name": "A#5",
          "ticks": 12576,
          "time": 50.709706999999995,
          "velocity": 0.7874015748031497
        },
        {
          "duration": 0.09677425000000284,
          "durationTicks": 24,
          "midi": 73,
          "name": "C#5",
          "ticks": 12624,
          "time": 50.90325549999999,
          "velocity": 0.7874015748031497
        },
        {
          "duration": 0.09677425000000284,
          "durationTicks": 24,
          "midi": 80,
          "name": "G#5",
          "ticks": 12624,
          "time": 50.90325549999999,
          "velocity": 0.7874015748031497
        },
        {
          "duration": 1.5483879999999957,
          "durationTicks": 384,
          "midi": 77,
          "name": "F5",
          "ticks": 12672,
          "time": 51.096804,
          "velocity": 0.7874015748031497
        },
        {
          "duration": 1.5483879999999957,
          "durationTicks": 384,
          "midi": 82,
          "name": "A#5",
          "ticks": 12672,
          "time": 51.096804,
          "velocity": 0.7874015748031497
        },
        {
          "duration": 0.19354850000000567,
          "durationTicks": 48,
          "midi": 65,
          "name": "F4",
          "ticks": 20736,
          "time": 83.61295199999999,
          "velocity": 0.7874015748031497
        },
        {
          "duration": 0.19354850000000567,
          "durationTicks": 48,
          "midi": 61,
          "name": "C#4",
          "ticks": 20832,
          "time": 84.00004899999999,
          "velocity": 0.7874015748031497
        },
        {
          "duration": 0.19354850000000567,
          "durationTicks": 48,
          "midi": 64,
          "name": "E4",
          "ticks": 20928,
          "time": 84.38714599999999,
          "velocity": 0.7874015748031497
        },
        {
          "duration": 0.19354849999999146,
          "durationTicks": 48,
          "midi": 60,
          "name": "C4",
          "ticks": 21024,
          "time": 84.774243,
          "velocity": 0.7874015748031497
        },
        {
          "duration": 0.19354849999999146,
          "durationTicks": 48,
          "midi": 67,
          "name": "G4",
          "ticks": 21120,
          "time": 85.16134,
          "velocity": 0.7874015748031497
        },
        {
          "duration": 0.19354850000000567,
          "durationTicks": 48,
          "midi": 64,
          "name": "E4",
          "ticks": 21216,
          "time": 85.54843699999999,
          "velocity": 0.7874015748031497
        },
        {
          "duration": 0.19354850000000567,
          "durationTicks": 48,
          "midi": 63,
          "name": "D#4",
          "ticks": 21312,
          "time": 85.93553399999999,
          "velocity": 0.7874015748031497
        },
        {
          "duration": 0.19354850000000567,
          "durationTicks": 48,
          "midi": 66,
          "name": "F#4",
          "ticks": 21408,
          "time": 86.32263099999999,
          "velocity": 0.7874015748031497
        },
        {
          "duration": 0.19354849999999146,
          "durationTicks": 48,
          "midi": 65,
          "name": "F4",
          "ticks": 21504,
          "time": 86.709728,
          "velocity": 0.7874015748031497
        },
        {
          "duration": 0.09677425000000994,
          "durationTicks": 24,
          "midi": 70,
          "name": "A#4",
          "ticks": 21552,
          "time": 86.90327649999999,
          "velocity": 0.7874015748031497
        },
        {
          "duration": 0.09677425000000994,
          "durationTicks": 24,
          "midi": 73,
          "name": "C#5",
          "ticks": 21552,
          "time": 86.90327649999999,
          "velocity": 0.7874015748031497
        },
        {
          "duration": 0.19354849999999146,
          "durationTicks": 48,
          "midi": 61,
          "name": "C#4",
          "ticks": 21600,
          "time": 87.096825,
          "velocity": 0.7874015748031497
        },
        {
          "duration": 0.09677425000000994,
          "durationTicks": 24,
          "midi": 70,
          "name": "A#4",
          "ticks": 21648,
          "time": 87.29037349999999,
          "velocity": 0.7874015748031497
        },
        {
          "duration": 0.09677425000000994,
          "durationTicks": 24,
          "midi": 73,
          "name": "C#5",
          "ticks": 21648,
          "time": 87.29037349999999,
          "velocity": 0.7874015748031497
        },
        {
          "duration": 0.19354850000000567,
          "durationTicks": 48,
          "midi": 64,
          "name": "E4",
          "ticks": 21696,
          "time": 87.48392199999999,
          "velocity": 0.7874015748031497
        },
        {
          "duration": 0.09677424999999573,
          "durationTicks": 24,
          "midi": 72,
          "name": "C5",
          "ticks": 21744,
          "time": 87.6774705,
          "velocity": 0.7874015748031497
        },
        {
          "duration": 0.09677424999999573,
          "durationTicks": 24,
          "midi": 69,
          "name": "A4",
          "ticks": 21744,
          "time": 87.6774705,
          "velocity": 0.7874015748031497
        },
        {
          "duration": 0.19354850000000567,
          "durationTicks": 48,
          "midi": 60,
          "name": "C4",
          "ticks": 21792,
          "time": 87.87101899999999,
          "velocity": 0.7874015748031497
        },
        {
          "duration": 0.09677424999999573,
          "durationTicks": 24,
          "midi": 69,
          "name": "A4",
          "ticks": 21840,
          "time": 88.0645675,
          "velocity": 0.7874015748031497
        },
        {
          "duration": 0.09677424999999573,
          "durationTicks": 24,
          "midi": 72,
          "name": "C5",
          "ticks": 21840,
          "time": 88.0645675,
          "velocity": 0.7874015748031497
        },
        {
          "duration": 0.19354850000000567,
          "durationTicks": 48,
          "midi": 67,
          "name": "G4",
          "ticks": 21888,
          "time": 88.25811599999999,
          "velocity": 0.7874015748031497
        },
        {
          "duration": 0.09677424999999573,
          "durationTicks": 24,
          "midi": 76,
          "name": "E5",
          "ticks": 21936,
          "time": 88.45166449999999,
          "velocity": 0.7874015748031497
        },
        {
          "duration": 0.09677424999999573,
          "durationTicks": 24,
          "midi": 72,
          "name": "C5",
          "ticks": 21936,
          "time": 88.45166449999999,
          "velocity": 0.7874015748031497
        },
        {
          "duration": 0.19354849999999146,
          "durationTicks": 48,
          "midi": 64,
          "name": "E4",
          "ticks": 21984,
          "time": 88.645213,
          "velocity": 0.7874015748031497
        },
        {
          "duration": 0.09677425000000994,
          "durationTicks": 24,
          "midi": 76,
          "name": "E5",
          "ticks": 22032,
          "time": 88.83876149999999,
          "velocity": 0.7874015748031497
        },
        {
          "duration": 0.09677425000000994,
          "durationTicks": 24,
          "midi": 72,
          "name": "C5",
          "ticks": 22032,
          "time": 88.83876149999999,
          "velocity": 0.7874015748031497
        },
        {
          "duration": 0.7741939999999943,
          "durationTicks": 192,
          "midi": 63,
          "name": "D#4",
          "ticks": 22080,
          "time": 89.03231,
          "velocity": 0.7874015748031497
        },
        {
          "duration": 0.09677425000000994,
          "durationTicks": 24,
          "midi": 75,
          "name": "D#5",
          "ticks": 22128,
          "time": 89.22585849999999,
          "velocity": 0.7874015748031497
        },
        {
          "duration": 0.09677425000000994,
          "durationTicks": 24,
          "midi": 71,
          "name": "B4",
          "ticks": 22128,
          "time": 89.22585849999999,
          "velocity": 0.7874015748031497
        },
        {
          "duration": 0.09677424999999573,
          "durationTicks": 24,
          "midi": 75,
          "name": "D#5",
          "ticks": 22224,
          "time": 89.6129555,
          "velocity": 0.7874015748031497
        },
        {
          "duration": 0.09677424999999573,
          "durationTicks": 24,
          "midi": 71,
          "name": "B4",
          "ticks": 22224,
          "time": 89.6129555,
          "velocity": 0.7874015748031497
        },
        {
          "duration": 0.19354850000000567,
          "durationTicks": 48,
          "midi": 65,
          "name": "F4",
          "ticks": 22272,
          "time": 89.80650399999999,
          "velocity": 0.7874015748031497
        },
        {
          "duration": 0.09677424999999573,
          "durationTicks": 24,
          "midi": 73,
          "name": "C#5",
          "ticks": 22320,
          "time": 90.0000525,
          "velocity": 0.7874015748031497
        },
        {
          "duration": 0.09677424999999573,
          "durationTicks": 24,
          "midi": 70,
          "name": "A#4",
          "ticks": 22320,
          "time": 90.0000525,
          "velocity": 0.7874015748031497
        },
        {
          "duration": 0.19354850000000567,
          "durationTicks": 48,
          "midi": 61,
          "name": "C#4",
          "ticks": 22368,
          "time": 90.19360099999999,
          "velocity": 0.7874015748031497
        },
        {
          "duration": 0.09677424999999573,
          "durationTicks": 24,
          "midi": 70,
          "name": "A#4",
          "ticks": 22416,
          "time": 90.38714949999999,
          "velocity": 0.7874015748031497
        },
        {
          "duration": 0.09677424999999573,
          "durationTicks": 24,
          "midi": 73,
          "name": "C#5",
          "ticks": 22416,
          "time": 90.38714949999999,
          "velocity": 0.7874015748031497
        },
        {
          "duration": 0.19354849999999146,
          "durationTicks": 48,
          "midi": 64,
          "name": "E4",
          "ticks": 22464,
          "time": 90.580698,
          "velocity": 0.7874015748031497
        },
        {
          "duration": 0.09677425000000994,
          "durationTicks": 24,
          "midi": 69,
          "name": "A4",
          "ticks": 22512,
          "time": 90.77424649999999,
          "velocity": 0.7874015748031497
        },
        {
          "duration": 0.09677425000000994,
          "durationTicks": 24,
          "midi": 72,
          "name": "C5",
          "ticks": 22512,
          "time": 90.77424649999999,
          "velocity": 0.7874015748031497
        },
        {
          "duration": 0.19354849999999146,
          "durationTicks": 48,
          "midi": 60,
          "name": "C4",
          "ticks": 22560,
          "time": 90.967795,
          "velocity": 0.7874015748031497
        },
        {
          "duration": 0.09677425000000994,
          "durationTicks": 24,
          "midi": 69,
          "name": "A4",
          "ticks": 22608,
          "time": 91.16134349999999,
          "velocity": 0.7874015748031497
        },
        {
          "duration": 0.09677425000000994,
          "durationTicks": 24,
          "midi": 72,
          "name": "C5",
          "ticks": 22608,
          "time": 91.16134349999999,
          "velocity": 0.7874015748031497
        },
        {
          "duration": 0.19354850000000567,
          "durationTicks": 48,
          "midi": 67,
          "name": "G4",
          "ticks": 22656,
          "time": 91.35489199999999,
          "velocity": 0.7874015748031497
        },
        {
          "duration": 0.09677424999999573,
          "durationTicks": 24,
          "midi": 76,
          "name": "E5",
          "ticks": 22704,
          "time": 91.5484405,
          "velocity": 0.7874015748031497
        },
        {
          "duration": 0.09677424999999573,
          "durationTicks": 24,
          "midi": 72,
          "name": "C5",
          "ticks": 22704,
          "time": 91.5484405,
          "velocity": 0.7874015748031497
        },
        {
          "duration": 0.19354850000000567,
          "durationTicks": 48,
          "midi": 64,
          "name": "E4",
          "ticks": 22752,
          "time": 91.74198899999999,
          "velocity": 0.7874015748031497
        },
        {
          "duration": 0.09677424999999573,
          "durationTicks": 24,
          "midi": 72,
          "name": "C5",
          "ticks": 22800,
          "time": 91.9355375,
          "velocity": 0.7874015748031497
        },
        {
          "duration": 0.09677424999999573,
          "durationTicks": 24,
          "midi": 76,
          "name": "E5",
          "ticks": 22800,
          "time": 91.9355375,
          "velocity": 0.7874015748031497
        },
        {
          "duration": 0.19354850000000567,
          "durationTicks": 48,
          "midi": 63,
          "name": "D#4",
          "ticks": 22848,
          "time": 92.12908599999999,
          "velocity": 0.7874015748031497
        },
        {
          "duration": 0.09677424999999573,
          "durationTicks": 24,
          "midi": 75,
          "name": "D#5",
          "ticks": 22896,
          "time": 92.32263449999999,
          "velocity": 0.7874015748031497
        },
        {
          "duration": 0.09677424999999573,
          "durationTicks": 24,
          "midi": 71,
          "name": "B4",
          "ticks": 22896,
          "time": 92.32263449999999,
          "velocity": 0.7874015748031497
        },
        {
          "duration": 0.19354849999999146,
          "durationTicks": 48,
          "midi": 66,
          "name": "F#4",
          "ticks": 22944,
          "time": 92.516183,
          "velocity": 0.7874015748031497
        },
        {
          "duration": 0.09677425000000994,
          "durationTicks": 24,
          "midi": 75,
          "name": "D#5",
          "ticks": 22992,
          "time": 92.70973149999999,
          "velocity": 0.7874015748031497
        },
        {
          "duration": 0.09677425000000994,
          "durationTicks": 24,
          "midi": 71,
          "name": "B4",
          "ticks": 22992,
          "time": 92.70973149999999,
          "velocity": 0.7874015748031497
        },
        {
          "duration": 0.19354849999999146,
          "durationTicks": 48,
          "midi": 65,
          "name": "F4",
          "ticks": 23040,
          "time": 92.90328,
          "velocity": 0.7874015748031497
        },
        {
          "duration": 0.09677425000000994,
          "durationTicks": 24,
          "midi": 73,
          "name": "C#5",
          "ticks": 23088,
          "time": 93.09682849999999,
          "velocity": 0.7874015748031497
        },
        {
          "duration": 0.09677425000000994,
          "durationTicks": 24,
          "midi": 70,
          "name": "A#4",
          "ticks": 23088,
          "time": 93.09682849999999,
          "velocity": 0.7874015748031497
        },
        {
          "duration": 0.19354850000000567,
          "durationTicks": 48,
          "midi": 61,
          "name": "C#4",
          "ticks": 23136,
          "time": 93.29037699999999,
          "velocity": 0.7874015748031497
        },
        {
          "duration": 0.09677424999999573,
          "durationTicks": 24,
          "midi": 73,
          "name": "C#5",
          "ticks": 23184,
          "time": 93.4839255,
          "velocity": 0.7874015748031497
        },
        {
          "duration": 0.09677424999999573,
          "durationTicks": 24,
          "midi": 70,
          "name": "A#4",
          "ticks": 23184,
          "time": 93.4839255,
          "velocity": 0.7874015748031497
        },
        {
          "duration": 0.19354850000000567,
          "durationTicks": 48,
          "midi": 64,
          "name": "E4",
          "ticks": 23232,
          "time": 93.67747399999999,
          "velocity": 0.7874015748031497
        },
        {
          "duration": 0.09677424999999573,
          "durationTicks": 24,
          "midi": 69,
          "name": "A4",
          "ticks": 23280,
          "time": 93.8710225,
          "velocity": 0.7874015748031497
        },
        {
          "duration": 0.09677424999999573,
          "durationTicks": 24,
          "midi": 72,
          "name": "C5",
          "ticks": 23280,
          "time": 93.8710225,
          "velocity": 0.7874015748031497
        },
        {
          "duration": 0.19354850000000567,
          "durationTicks": 48,
          "midi": 60,
          "name": "C4",
          "ticks": 23328,
          "time": 94.06457099999999,
          "velocity": 0.7874015748031497
        },
        {
          "duration": 0.09677424999999573,
          "durationTicks": 24,
          "midi": 72,
          "name": "C5",
          "ticks": 23376,
          "time": 94.25811949999999,
          "velocity": 0.7874015748031497
        },
        {
          "duration": 0.09677424999999573,
          "durationTicks": 24,
          "midi": 69,
          "name": "A4",
          "ticks": 23376,
          "time": 94.25811949999999,
          "velocity": 0.7874015748031497
        },
        {
          "duration": 0.19354849999999146,
          "durationTicks": 48,
          "midi": 79,
          "name": "G5",
          "ticks": 23424,
          "time": 94.451668,
          "velocity": 0.7874015748031497
        },
        {
          "duration": 0.09677425000000994,
          "durationTicks": 24,
          "midi": 72,
          "name": "C5",
          "ticks": 23472,
          "time": 94.64521649999999,
          "velocity": 0.7874015748031497
        },
        {
          "duration": 0.09677425000000994,
          "durationTicks": 24,
          "midi": 76,
          "name": "E5",
          "ticks": 23472,
          "time": 94.64521649999999,
          "velocity": 0.7874015748031497
        },
        {
          "duration": 0.19354849999999146,
          "durationTicks": 48,
          "midi": 76,
          "name": "E5",
          "ticks": 23520,
          "time": 94.838765,
          "velocity": 0.7874015748031497
        },
        {
          "duration": 0.09677425000000994,
          "durationTicks": 24,
          "midi": 72,
          "name": "C5",
          "ticks": 23568,
          "time": 95.03231349999999,
          "velocity": 0.7874015748031497
        },
        {
          "duration": 0.09677425000000994,
          "durationTicks": 24,
          "midi": 76,
          "name": "E5",
          "ticks": 23568,
          "time": 95.03231349999999,
          "velocity": 0.7874015748031497
        },
        {
          "duration": 0.2903227500000014,
          "durationTicks": 72,
          "midi": 75,
          "name": "D#5",
          "ticks": 23616,
          "time": 95.22586199999999,
          "velocity": 0.7874015748031497
        },
        {
          "duration": 0.09677424999999573,
          "durationTicks": 24,
          "midi": 71,
          "name": "B4",
          "ticks": 23664,
          "time": 95.4194105,
          "velocity": 0.7874015748031497
        },
        {
          "duration": 0.48387124999999287,
          "durationTicks": 120,
          "midi": 75,
          "name": "D#5",
          "ticks": 23664,
          "time": 95.4194105,
          "velocity": 0.7874015748031497
        },
        {
          "duration": 0.09677424999999573,
          "durationTicks": 24,
          "midi": 71,
          "name": "B4",
          "ticks": 23760,
          "time": 95.8065075,
          "velocity": 0.7874015748031497
        },
        {
          "duration": 0.19354849999999146,
          "durationTicks": 48,
          "midi": 75,
          "name": "D#5",
          "ticks": 23760,
          "time": 95.8065075,
          "velocity": 0.7874015748031497
        },
        {
          "duration": 0.19354849999999146,
          "durationTicks": 48,
          "midi": 65,
          "name": "F4",
          "ticks": 24000,
          "time": 96.77425,
          "velocity": 0.7874015748031497
        },
        {
          "duration": 0.19354849999999146,
          "durationTicks": 48,
          "midi": 70,
          "name": "A#4",
          "ticks": 24000,
          "time": 96.77425,
          "velocity": 0.7874015748031497
        },
        {
          "duration": 0.19354850000000567,
          "durationTicks": 48,
          "midi": 73,
          "name": "C#5",
          "ticks": 24096,
          "time": 97.16134699999999,
          "velocity": 0.7874015748031497
        },
        {
          "duration": 0.19354850000000567,
          "durationTicks": 48,
          "midi": 77,
          "name": "F5",
          "ticks": 24096,
          "time": 97.16134699999999,
          "velocity": 0.7874015748031497
        },
        {
          "duration": 0.19354850000000567,
          "durationTicks": 48,
          "midi": 65,
          "name": "F4",
          "ticks": 24192,
          "time": 97.54844399999999,
          "velocity": 0.7874015748031497
        },
        {
          "duration": 0.19354850000000567,
          "durationTicks": 48,
          "midi": 72,
          "name": "C5",
          "ticks": 24192,
          "time": 97.54844399999999,
          "velocity": 0.7874015748031497
        },
        {
          "duration": 0.19354850000000567,
          "durationTicks": 48,
          "midi": 73,
          "name": "C#5",
          "ticks": 24288,
          "time": 97.93554099999999,
          "velocity": 0.7874015748031497
        },
        {
          "duration": 0.19354850000000567,
          "durationTicks": 48,
          "midi": 77,
          "name": "F5",
          "ticks": 24288,
          "time": 97.93554099999999,
          "velocity": 0.7874015748031497
        },
        {
          "duration": 0.19354849999999146,
          "durationTicks": 48,
          "midi": 70,
          "name": "A#4",
          "ticks": 24384,
          "time": 98.322638,
          "velocity": 0.7874015748031497
        },
        {
          "duration": 0.19354849999999146,
          "durationTicks": 48,
          "midi": 73,
          "name": "C#5",
          "ticks": 24384,
          "time": 98.322638,
          "velocity": 0.7874015748031497
        },
        {
          "duration": 0.19354849999999146,
          "durationTicks": 48,
          "midi": 75,
          "name": "D#5",
          "ticks": 24480,
          "time": 98.709735,
          "velocity": 0.7874015748031497
        },
        {
          "duration": 0.19354849999999146,
          "durationTicks": 48,
          "midi": 72,
          "name": "C5",
          "ticks": 24480,
          "time": 98.709735,
          "velocity": 0.7874015748031497
        },
        {
          "duration": 0.19354850000000567,
          "durationTicks": 48,
          "midi": 77,
          "name": "F5",
          "ticks": 24528,
          "time": 98.90328349999999,
          "velocity": 0.7874015748031497
        },
        {
          "duration": 0.19354850000000567,
          "durationTicks": 48,
          "midi": 73,
          "name": "C#5",
          "ticks": 24528,
          "time": 98.90328349999999,
          "velocity": 0.7874015748031497
        },
        {
          "duration": 0.19354850000000567,
          "durationTicks": 48,
          "midi": 75,
          "name": "D#5",
          "ticks": 24576,
          "time": 99.09683199999999,
          "velocity": 0.7874015748031497
        },
        {
          "duration": 0.19354850000000567,
          "durationTicks": 48,
          "midi": 72,
          "name": "C5",
          "ticks": 24576,
          "time": 99.09683199999999,
          "velocity": 0.7874015748031497
        },
        {
          "duration": 0.19354850000000567,
          "durationTicks": 48,
          "midi": 79,
          "name": "G5",
          "ticks": 24672,
          "time": 99.48392899999999,
          "velocity": 0.7874015748031497
        },
        {
          "duration": 0.19354850000000567,
          "durationTicks": 48,
          "midi": 75,
          "name": "D#5",
          "ticks": 24672,
          "time": 99.48392899999999,
          "velocity": 0.7874015748031497
        },
        {
          "duration": 0.19354850000000567,
          "durationTicks": 48,
          "midi": 77,
          "name": "F5",
          "ticks": 24768,
          "time": 99.87102599999999,
          "velocity": 0.7874015748031497
        },
        {
          "duration": 0.19354850000000567,
          "durationTicks": 48,
          "midi": 82,
          "name": "A#5",
          "ticks": 24768,
          "time": 99.87102599999999,
          "velocity": 0.7874015748031497
        },
        {
          "duration": 0.19354850000000567,
          "durationTicks": 48,
          "midi": 73,
          "name": "C#5",
          "ticks": 24816,
          "time": 100.06457449999999,
          "velocity": 0.7874015748031497
        },
        {
          "duration": 0.19354850000000567,
          "durationTicks": 48,
          "midi": 77,
          "name": "F5",
          "ticks": 24816,
          "time": 100.06457449999999,
          "velocity": 0.7874015748031497
        },
        {
          "duration": 0.19354849999999146,
          "durationTicks": 48,
          "midi": 80,
          "name": "G#5",
          "ticks": 24864,
          "time": 100.258123,
          "velocity": 0.7874015748031497
        },
        {
          "duration": 0.19354849999999146,
          "durationTicks": 48,
          "midi": 84,
          "name": "C6",
          "ticks": 24864,
          "time": 100.258123,
          "velocity": 0.7874015748031497
        },
        {
          "duration": 0.09677424999999573,
          "durationTicks": 24,
          "midi": 82,
          "name": "A#5",
          "ticks": 24912,
          "time": 100.45167149999999,
          "velocity": 0.7874015748031497
        },
        {
          "duration": 0.09677424999999573,
          "durationTicks": 24,
          "midi": 85,
          "name": "C#6",
          "ticks": 24912,
          "time": 100.45167149999999,
          "velocity": 0.7874015748031497
        },
        {
          "duration": 0.19354849999999146,
          "durationTicks": 48,
          "midi": 80,
          "name": "G#5",
          "ticks": 24960,
          "time": 100.64522,
          "velocity": 0.7874015748031497
        },
        {
          "duration": 0.19354849999999146,
          "durationTicks": 48,
          "midi": 84,
          "name": "C6",
          "ticks": 24960,
          "time": 100.64522,
          "velocity": 0.7874015748031497
        },
        {
          "duration": 0.09677425000000994,
          "durationTicks": 24,
          "midi": 82,
          "name": "A#5",
          "ticks": 25008,
          "time": 100.83876849999999,
          "velocity": 0.7874015748031497
        },
        {
          "duration": 0.09677425000000994,
          "durationTicks": 24,
          "midi": 85,
          "name": "C#6",
          "ticks": 25008,
          "time": 100.83876849999999,
          "velocity": 0.7874015748031497
        },
        {
          "duration": 0.09677424999999573,
          "durationTicks": 24,
          "midi": 80,
          "name": "G#5",
          "ticks": 25032,
          "time": 100.93554275,
          "velocity": 0.7874015748031497
        },
        {
          "duration": 0.09677424999999573,
          "durationTicks": 24,
          "midi": 84,
          "name": "C6",
          "ticks": 25032,
          "time": 100.93554275,
          "velocity": 0.7874015748031497
        },
        {
          "duration": 0.19354850000000567,
          "durationTicks": 48,
          "midi": 73,
          "name": "C#5",
          "ticks": 25056,
          "time": 101.03231699999999,
          "velocity": 0.7874015748031497
        },
        {
          "duration": 0.19354850000000567,
          "durationTicks": 48,
          "midi": 82,
          "name": "A#5",
          "ticks": 25056,
          "time": 101.03231699999999,
          "velocity": 0.7874015748031497
        },
        {
          "duration": 0.09677424999999573,
          "durationTicks": 24,
          "midi": 73,
          "name": "C#5",
          "ticks": 25104,
          "time": 101.2258655,
          "velocity": 0.7874015748031497
        },
        {
          "duration": 0.09677424999999573,
          "durationTicks": 24,
          "midi": 80,
          "name": "G#5",
          "ticks": 25104,
          "time": 101.2258655,
          "velocity": 0.7874015748031497
        },
        {
          "duration": 0.19354850000000567,
          "durationTicks": 48,
          "midi": 73,
          "name": "C#5",
          "ticks": 25152,
          "time": 101.41941399999999,
          "velocity": 0.7874015748031497
        },
        {
          "duration": 0.19354850000000567,
          "durationTicks": 48,
          "midi": 77,
          "name": "F5",
          "ticks": 25152,
          "time": 101.41941399999999,
          "velocity": 0.7874015748031497
        },
        {
          "duration": 0.09677424999999573,
          "durationTicks": 24,
          "midi": 77,
          "name": "F5",
          "ticks": 25200,
          "time": 101.6129625,
          "velocity": 0.7874015748031497
        },
        {
          "duration": 0.09677424999999573,
          "durationTicks": 24,
          "midi": 80,
          "name": "G#5",
          "ticks": 25200,
          "time": 101.6129625,
          "velocity": 0.7874015748031497
        },
        {
          "duration": 0.19354850000000567,
          "durationTicks": 48,
          "midi": 72,
          "name": "C5",
          "ticks": 25248,
          "time": 101.80651099999999,
          "velocity": 0.7874015748031497
        },
        {
          "duration": 0.19354850000000567,
          "durationTicks": 48,
          "midi": 75,
          "name": "D#5",
          "ticks": 25248,
          "time": 101.80651099999999,
          "velocity": 0.7874015748031497
        },
        {
          "duration": 0.09677424999999573,
          "durationTicks": 24,
          "midi": 73,
          "name": "C#5",
          "ticks": 25296,
          "time": 102.00005949999999,
          "velocity": 0.7874015748031497
        },
        {
          "duration": 0.09677424999999573,
          "durationTicks": 24,
          "midi": 77,
          "name": "F5",
          "ticks": 25296,
          "time": 102.00005949999999,
          "velocity": 0.7874015748031497
        },
        {
          "duration": 0.7741939999999943,
          "durationTicks": 192,
          "midi": 73,
          "name": "C#5",
          "ticks": 25344,
          "time": 102.193608,
          "velocity": 0.7874015748031497
        },
        {
          "duration": 0.7741939999999943,
          "durationTicks": 192,
          "midi": 70,
          "name": "A#4",
          "ticks": 25344,
          "time": 102.193608,
          "velocity": 0.7874015748031497
        },
        {
          "duration": 0.19354850000000567,
          "durationTicks": 48,
          "midi": 65,
          "name": "F4",
          "ticks": 25536,
          "time": 102.96780199999999,
          "velocity": 0.7874015748031497
        },
        {
          "duration": 0.19354850000000567,
          "durationTicks": 48,
          "midi": 70,
          "name": "A#4",
          "ticks": 25536,
          "time": 102.96780199999999,
          "velocity": 0.7874015748031497
        },
        {
          "duration": 0.19354850000000567,
          "durationTicks": 48,
          "midi": 73,
          "name": "C#5",
          "ticks": 25632,
          "time": 103.35489899999999,
          "velocity": 0.7874015748031497
        },
        {
          "duration": 0.19354850000000567,
          "durationTicks": 48,
          "midi": 77,
          "name": "F5",
          "ticks": 25632,
          "time": 103.35489899999999,
          "velocity": 0.7874015748031497
        },
        {
          "duration": 0.19354850000000567,
          "durationTicks": 48,
          "midi": 65,
          "name": "F4",
          "ticks": 25728,
          "time": 103.74199599999999,
          "velocity": 0.7874015748031497
        },
        {
          "duration": 0.19354850000000567,
          "durationTicks": 48,
          "midi": 72,
          "name": "C5",
          "ticks": 25728,
          "time": 103.74199599999999,
          "velocity": 0.7874015748031497
        },
        {
          "duration": 0.19354849999999146,
          "durationTicks": 48,
          "midi": 73,
          "name": "C#5",
          "ticks": 25824,
          "time": 104.129093,
          "velocity": 0.7874015748031497
        },
        {
          "duration": 0.19354849999999146,
          "durationTicks": 48,
          "midi": 77,
          "name": "F5",
          "ticks": 25824,
          "time": 104.129093,
          "velocity": 0.7874015748031497
        },
        {
          "duration": 0.19354849999999146,
          "durationTicks": 48,
          "midi": 70,
          "name": "A#4",
          "ticks": 25920,
          "time": 104.51619,
          "velocity": 0.7874015748031497
        },
        {
          "duration": 0.19354849999999146,
          "durationTicks": 48,
          "midi": 73,
          "name": "C#5",
          "ticks": 25920,
          "time": 104.51619,
          "velocity": 0.7874015748031497
        },
        {
          "duration": 0.19354850000000567,
          "durationTicks": 48,
          "midi": 72,
          "name": "C5",
          "ticks": 26016,
          "time": 104.90328699999999,
          "velocity": 0.7874015748031497
        },
        {
          "duration": 0.19354850000000567,
          "durationTicks": 48,
          "midi": 75,
          "name": "D#5",
          "ticks": 26016,
          "time": 104.90328699999999,
          "velocity": 0.7874015748031497
        },
        {
          "duration": 0.19354849999999146,
          "durationTicks": 48,
          "midi": 73,
          "name": "C#5",
          "ticks": 26064,
          "time": 105.0968355,
          "velocity": 0.7874015748031497
        },
        {
          "duration": 0.19354849999999146,
          "durationTicks": 48,
          "midi": 77,
          "name": "F5",
          "ticks": 26064,
          "time": 105.0968355,
          "velocity": 0.7874015748031497
        },
        {
          "duration": 0.19354850000000567,
          "durationTicks": 48,
          "midi": 75,
          "name": "D#5",
          "ticks": 26112,
          "time": 105.29038399999999,
          "velocity": 0.7874015748031497
        },
        {
          "duration": 0.19354850000000567,
          "durationTicks": 48,
          "midi": 72,
          "name": "C5",
          "ticks": 26112,
          "time": 105.29038399999999,
          "velocity": 0.7874015748031497
        },
        {
          "duration": 0.19354850000000567,
          "durationTicks": 48,
          "midi": 79,
          "name": "G5",
          "ticks": 26208,
          "time": 105.67748099999999,
          "velocity": 0.7874015748031497
        },
        {
          "duration": 0.19354850000000567,
          "durationTicks": 48,
          "midi": 75,
          "name": "D#5",
          "ticks": 26208,
          "time": 105.67748099999999,
          "velocity": 0.7874015748031497
        },
        {
          "duration": 0.19354849999999146,
          "durationTicks": 48,
          "midi": 77,
          "name": "F5",
          "ticks": 26304,
          "time": 106.064578,
          "velocity": 0.7874015748031497
        },
        {
          "duration": 0.19354849999999146,
          "durationTicks": 48,
          "midi": 82,
          "name": "A#5",
          "ticks": 26304,
          "time": 106.064578,
          "velocity": 0.7874015748031497
        },
        {
          "duration": 0.19354850000000567,
          "durationTicks": 48,
          "midi": 73,
          "name": "C#5",
          "ticks": 26352,
          "time": 106.25812649999999,
          "velocity": 0.7874015748031497
        },
        {
          "duration": 0.19354850000000567,
          "durationTicks": 48,
          "midi": 77,
          "name": "F5",
          "ticks": 26352,
          "time": 106.25812649999999,
          "velocity": 0.7874015748031497
        },
        {
          "duration": 0.19354849999999146,
          "durationTicks": 48,
          "midi": 80,
          "name": "G#5",
          "ticks": 26400,
          "time": 106.451675,
          "velocity": 0.7874015748031497
        },
        {
          "duration": 0.19354849999999146,
          "durationTicks": 48,
          "midi": 84,
          "name": "C6",
          "ticks": 26400,
          "time": 106.451675,
          "velocity": 0.7874015748031497
        },
        {
          "duration": 0.09677425000000994,
          "durationTicks": 24,
          "midi": 82,
          "name": "A#5",
          "ticks": 26448,
          "time": 106.64522349999999,
          "velocity": 0.7874015748031497
        },
        {
          "duration": 0.09677425000000994,
          "durationTicks": 24,
          "midi": 85,
          "name": "C#6",
          "ticks": 26448,
          "time": 106.64522349999999,
          "velocity": 0.7874015748031497
        },
        {
          "duration": 0.19354850000000567,
          "durationTicks": 48,
          "midi": 80,
          "name": "G#5",
          "ticks": 26496,
          "time": 106.83877199999999,
          "velocity": 0.7874015748031497
        },
        {
          "duration": 0.19354850000000567,
          "durationTicks": 48,
          "midi": 84,
          "name": "C6",
          "ticks": 26496,
          "time": 106.83877199999999,
          "velocity": 0.7874015748031497
        },
        {
          "duration": 0.09677424999999573,
          "durationTicks": 24,
          "midi": 82,
          "name": "A#5",
          "ticks": 26544,
          "time": 107.0323205,
          "velocity": 0.7874015748031497
        },
        {
          "duration": 0.09677424999999573,
          "durationTicks": 24,
          "midi": 85,
          "name": "C#6",
          "ticks": 26544,
          "time": 107.0323205,
          "velocity": 0.7874015748031497
        },
        {
          "duration": 0.09677424999999573,
          "durationTicks": 24,
          "midi": 80,
          "name": "G#5",
          "ticks": 26568,
          "time": 107.12909475,
          "velocity": 0.7874015748031497
        },
        {
          "duration": 0.09677424999999573,
          "durationTicks": 24,
          "midi": 84,
          "name": "C6",
          "ticks": 26568,
          "time": 107.12909475,
          "velocity": 0.7874015748031497
        },
        {
          "duration": 0.19354850000000567,
          "durationTicks": 48,
          "midi": 73,
          "name": "C#5",
          "ticks": 26592,
          "time": 107.22586899999999,
          "velocity": 0.7874015748031497
        },
        {
          "duration": 0.19354850000000567,
          "durationTicks": 48,
          "midi": 82,
          "name": "A#5",
          "ticks": 26592,
          "time": 107.22586899999999,
          "velocity": 0.7874015748031497
        },
        {
          "duration": 0.09677424999999573,
          "durationTicks": 24,
          "midi": 73,
          "name": "C#5",
          "ticks": 26640,
          "time": 107.4194175,
          "velocity": 0.7874015748031497
        },
        {
          "duration": 0.09677424999999573,
          "durationTicks": 24,
          "midi": 80,
          "name": "G#5",
          "ticks": 26640,
          "time": 107.4194175,
          "velocity": 0.7874015748031497
        },
        {
          "duration": 1.5483880000000028,
          "durationTicks": 384,
          "midi": 77,
          "name": "F5",
          "ticks": 26688,
          "time": 107.61296599999999,
          "velocity": 0.7874015748031497
        },
        {
          "duration": 1.5483880000000028,
          "durationTicks": 384,
          "midi": 82,
          "name": "A#5",
          "ticks": 26688,
          "time": 107.61296599999999,
          "velocity": 0.7874015748031497
        },
        {
          "duration": 0.19354850000000567,
          "durationTicks": 48,
          "midi": 65,
          "name": "F4",
          "ticks": 27072,
          "time": 109.16135399999999,
          "velocity": 0.7874015748031497
        },
        {
          "duration": 0.19354850000000567,
          "durationTicks": 48,
          "midi": 70,
          "name": "A#4",
          "ticks": 27072,
          "time": 109.16135399999999,
          "velocity": 0.7874015748031497
        },
        {
          "duration": 0.19354850000000567,
          "durationTicks": 48,
          "midi": 73,
          "name": "C#5",
          "ticks": 27168,
          "time": 109.54845099999999,
          "velocity": 0.7874015748031497
        },
        {
          "duration": 0.19354850000000567,
          "durationTicks": 48,
          "midi": 77,
          "name": "F5",
          "ticks": 27168,
          "time": 109.54845099999999,
          "velocity": 0.7874015748031497
        },
        {
          "duration": 0.19354849999999146,
          "durationTicks": 48,
          "midi": 65,
          "name": "F4",
          "ticks": 27264,
          "time": 109.935548,
          "velocity": 0.7874015748031497
        },
        {
          "duration": 0.19354849999999146,
          "durationTicks": 48,
          "midi": 72,
          "name": "C5",
          "ticks": 27264,
          "time": 109.935548,
          "velocity": 0.7874015748031497
        },
        {
          "duration": 0.19354849999999146,
          "durationTicks": 48,
          "midi": 73,
          "name": "C#5",
          "ticks": 27360,
          "time": 110.322645,
          "velocity": 0.7874015748031497
        },
        {
          "duration": 0.19354849999999146,
          "durationTicks": 48,
          "midi": 77,
          "name": "F5",
          "ticks": 27360,
          "time": 110.322645,
          "velocity": 0.7874015748031497
        },
        {
          "duration": 0.19354850000000567,
          "durationTicks": 48,
          "midi": 70,
          "name": "A#4",
          "ticks": 27456,
          "time": 110.70974199999999,
          "velocity": 0.7874015748031497
        },
        {
          "duration": 0.19354850000000567,
          "durationTicks": 48,
          "midi": 73,
          "name": "C#5",
          "ticks": 27456,
          "time": 110.70974199999999,
          "velocity": 0.7874015748031497
        },
        {
          "duration": 0.19354850000000567,
          "durationTicks": 48,
          "midi": 72,
          "name": "C5",
          "ticks": 27552,
          "time": 111.09683899999999,
          "velocity": 0.7874015748031497
        },
        {
          "duration": 0.19354850000000567,
          "durationTicks": 48,
          "midi": 75,
          "name": "D#5",
          "ticks": 27552,
          "time": 111.09683899999999,
          "velocity": 0.7874015748031497
        },
        {
          "duration": 0.19354849999999146,
          "durationTicks": 48,
          "midi": 73,
          "name": "C#5",
          "ticks": 27600,
          "time": 111.2903875,
          "velocity": 0.7874015748031497
        },
        {
          "duration": 0.19354849999999146,
          "durationTicks": 48,
          "midi": 77,
          "name": "F5",
          "ticks": 27600,
          "time": 111.2903875,
          "velocity": 0.7874015748031497
        },
        {
          "duration": 0.19354850000000567,
          "durationTicks": 48,
          "midi": 75,
          "name": "D#5",
          "ticks": 27648,
          "time": 111.48393599999999,
          "velocity": 0.7874015748031497
        },
        {
          "duration": 0.19354850000000567,
          "durationTicks": 48,
          "midi": 72,
          "name": "C5",
          "ticks": 27648,
          "time": 111.48393599999999,
          "velocity": 0.7874015748031497
        },
        {
          "duration": 0.19354849999999146,
          "durationTicks": 48,
          "midi": 79,
          "name": "G5",
          "ticks": 27744,
          "time": 111.871033,
          "velocity": 0.7874015748031497
        },
        {
          "duration": 0.19354849999999146,
          "durationTicks": 48,
          "midi": 75,
          "name": "D#5",
          "ticks": 27744,
          "time": 111.871033,
          "velocity": 0.7874015748031497
        },
        {
          "duration": 0.19354849999999146,
          "durationTicks": 48,
          "midi": 77,
          "name": "F5",
          "ticks": 27840,
          "time": 112.25813,
          "velocity": 0.7874015748031497
        },
        {
          "duration": 0.19354849999999146,
          "durationTicks": 48,
          "midi": 82,
          "name": "A#5",
          "ticks": 27840,
          "time": 112.25813,
          "velocity": 0.7874015748031497
        },
        {
          "duration": 0.19354850000000567,
          "durationTicks": 48,
          "midi": 73,
          "name": "C#5",
          "ticks": 27888,
          "time": 112.45167849999999,
          "velocity": 0.7874015748031497
        },
        {
          "duration": 0.19354850000000567,
          "durationTicks": 48,
          "midi": 77,
          "name": "F5",
          "ticks": 27888,
          "time": 112.45167849999999,
          "velocity": 0.7874015748031497
        },
        {
          "duration": 0.19354850000000567,
          "durationTicks": 48,
          "midi": 80,
          "name": "G#5",
          "ticks": 27936,
          "time": 112.64522699999999,
          "velocity": 0.7874015748031497
        },
        {
          "duration": 0.19354850000000567,
          "durationTicks": 48,
          "midi": 84,
          "name": "C6",
          "ticks": 27936,
          "time": 112.64522699999999,
          "velocity": 0.7874015748031497
        },
        {
          "duration": 0.09677424999999573,
          "durationTicks": 24,
          "midi": 82,
          "name": "A#5",
          "ticks": 27984,
          "time": 112.8387755,
          "velocity": 0.7874015748031497
        },
        {
          "duration": 0.09677424999999573,
          "durationTicks": 24,
          "midi": 85,
          "name": "C#6",
          "ticks": 27984,
          "time": 112.8387755,
          "velocity": 0.7874015748031497
        },
        {
          "duration": 0.19354850000000567,
          "durationTicks": 48,
          "midi": 80,
          "name": "G#5",
          "ticks": 28032,
          "time": 113.03232399999999,
          "velocity": 0.7874015748031497
        },
        {
          "duration": 0.19354850000000567,
          "durationTicks": 48,
          "midi": 84,
          "name": "C6",
          "ticks": 28032,
          "time": 113.03232399999999,
          "velocity": 0.7874015748031497
        },
        {
          "duration": 0.09677424999999573,
          "durationTicks": 24,
          "midi": 82,
          "name": "A#5",
          "ticks": 28080,
          "time": 113.2258725,
          "velocity": 0.7874015748031497
        },
        {
          "duration": 0.09677424999999573,
          "durationTicks": 24,
          "midi": 85,
          "name": "C#6",
          "ticks": 28080,
          "time": 113.2258725,
          "velocity": 0.7874015748031497
        },
        {
          "duration": 0.09677424999999573,
          "durationTicks": 24,
          "midi": 80,
          "name": "G#5",
          "ticks": 28104,
          "time": 113.32264674999999,
          "velocity": 0.7874015748031497
        },
        {
          "duration": 0.09677424999999573,
          "durationTicks": 24,
          "midi": 84,
          "name": "C6",
          "ticks": 28104,
          "time": 113.32264674999999,
          "velocity": 0.7874015748031497
        },
        {
          "duration": 0.19354850000000567,
          "durationTicks": 48,
          "midi": 73,
          "name": "C#5",
          "ticks": 28128,
          "time": 113.41942099999999,
          "velocity": 0.7874015748031497
        },
        {
          "duration": 0.19354850000000567,
          "durationTicks": 48,
          "midi": 82,
          "name": "A#5",
          "ticks": 28128,
          "time": 113.41942099999999,
          "velocity": 0.7874015748031497
        },
        {
          "duration": 0.09677424999999573,
          "durationTicks": 24,
          "midi": 73,
          "name": "C#5",
          "ticks": 28176,
          "time": 113.61296949999999,
          "velocity": 0.7874015748031497
        },
        {
          "duration": 0.09677424999999573,
          "durationTicks": 24,
          "midi": 80,
          "name": "G#5",
          "ticks": 28176,
          "time": 113.61296949999999,
          "velocity": 0.7874015748031497
        },
        {
          "duration": 0.19354849999999146,
          "durationTicks": 48,
          "midi": 73,
          "name": "C#5",
          "ticks": 28224,
          "time": 113.806518,
          "velocity": 0.7874015748031497
        },
        {
          "duration": 0.19354849999999146,
          "durationTicks": 48,
          "midi": 77,
          "name": "F5",
          "ticks": 28224,
          "time": 113.806518,
          "velocity": 0.7874015748031497
        },
        {
          "duration": 0.09677424999999573,
          "durationTicks": 24,
          "midi": 77,
          "name": "F5",
          "ticks": 28272,
          "time": 114.00006649999999,
          "velocity": 0.7874015748031497
        },
        {
          "duration": 0.09677424999999573,
          "durationTicks": 24,
          "midi": 80,
          "name": "G#5",
          "ticks": 28272,
          "time": 114.00006649999999,
          "velocity": 0.7874015748031497
        },
        {
          "duration": 0.19354849999999146,
          "durationTicks": 48,
          "midi": 72,
          "name": "C5",
          "ticks": 28320,
          "time": 114.193615,
          "velocity": 0.7874015748031497
        },
        {
          "duration": 0.19354849999999146,
          "durationTicks": 48,
          "midi": 75,
          "name": "D#5",
          "ticks": 28320,
          "time": 114.193615,
          "velocity": 0.7874015748031497
        },
        {
          "duration": 0.09677425000000994,
          "durationTicks": 24,
          "midi": 73,
          "name": "C#5",
          "ticks": 28368,
          "time": 114.38716349999999,
          "velocity": 0.7874015748031497
        },
        {
          "duration": 0.09677425000000994,
          "durationTicks": 24,
          "midi": 77,
          "name": "F5",
          "ticks": 28368,
          "time": 114.38716349999999,
          "velocity": 0.7874015748031497
        },
        {
          "duration": 0.7741939999999943,
          "durationTicks": 192,
          "midi": 73,
          "name": "C#5",
          "ticks": 28416,
          "time": 114.58071199999999,
          "velocity": 0.7874015748031497
        },
        {
          "duration": 0.7741939999999943,
          "durationTicks": 192,
          "midi": 70,
          "name": "A#4",
          "ticks": 28416,
          "time": 114.58071199999999,
          "velocity": 0.7874015748031497
        },
        {
          "duration": 0.19354850000000567,
          "durationTicks": 48,
          "midi": 65,
          "name": "F4",
          "ticks": 28608,
          "time": 115.35490599999999,
          "velocity": 0.7874015748031497
        },
        {
          "duration": 0.19354850000000567,
          "durationTicks": 48,
          "midi": 70,
          "name": "A#4",
          "ticks": 28608,
          "time": 115.35490599999999,
          "velocity": 0.7874015748031497
        },
        {
          "duration": 0.19354849999999146,
          "durationTicks": 48,
          "midi": 73,
          "name": "C#5",
          "ticks": 28704,
          "time": 115.742003,
          "velocity": 0.7874015748031497
        },
        {
          "duration": 0.19354849999999146,
          "durationTicks": 48,
          "midi": 77,
          "name": "F5",
          "ticks": 28704,
          "time": 115.742003,
          "velocity": 0.7874015748031497
        },
        {
          "duration": 0.19354849999999146,
          "durationTicks": 48,
          "midi": 65,
          "name": "F4",
          "ticks": 28800,
          "time": 116.1291,
          "velocity": 0.7874015748031497
        },
        {
          "duration": 0.19354849999999146,
          "durationTicks": 48,
          "midi": 72,
          "name": "C5",
          "ticks": 28800,
          "time": 116.1291,
          "velocity": 0.7874015748031497
        },
        {
          "duration": 0.19354850000000567,
          "durationTicks": 48,
          "midi": 73,
          "name": "C#5",
          "ticks": 28896,
          "time": 116.51619699999999,
          "velocity": 0.7874015748031497
        },
        {
          "duration": 0.19354850000000567,
          "durationTicks": 48,
          "midi": 77,
          "name": "F5",
          "ticks": 28896,
          "time": 116.51619699999999,
          "velocity": 0.7874015748031497
        },
        {
          "duration": 0.19354850000000567,
          "durationTicks": 48,
          "midi": 70,
          "name": "A#4",
          "ticks": 28992,
          "time": 116.90329399999999,
          "velocity": 0.7874015748031497
        },
        {
          "duration": 0.19354850000000567,
          "durationTicks": 48,
          "midi": 73,
          "name": "C#5",
          "ticks": 28992,
          "time": 116.90329399999999,
          "velocity": 0.7874015748031497
        },
        {
          "duration": 0.19354850000000567,
          "durationTicks": 48,
          "midi": 72,
          "name": "C5",
          "ticks": 29088,
          "time": 117.29039099999999,
          "velocity": 0.7874015748031497
        },
        {
          "duration": 0.19354850000000567,
          "durationTicks": 48,
          "midi": 75,
          "name": "D#5",
          "ticks": 29088,
          "time": 117.29039099999999,
          "velocity": 0.7874015748031497
        },
        {
          "duration": 0.19354850000000567,
          "durationTicks": 48,
          "midi": 73,
          "name": "C#5",
          "ticks": 29136,
          "time": 117.48393949999999,
          "velocity": 0.7874015748031497
        },
        {
          "duration": 0.19354850000000567,
          "durationTicks": 48,
          "midi": 77,
          "name": "F5",
          "ticks": 29136,
          "time": 117.48393949999999,
          "velocity": 0.7874015748031497
        },
        {
          "duration": 0.19354849999999146,
          "durationTicks": 48,
          "midi": 75,
          "name": "D#5",
          "ticks": 29184,
          "time": 117.677488,
          "velocity": 0.7874015748031497
        },
        {
          "duration": 0.19354849999999146,
          "durationTicks": 48,
          "midi": 72,
          "name": "C5",
          "ticks": 29184,
          "time": 117.677488,
          "velocity": 0.7874015748031497
        },
        {
          "duration": 0.19354849999999146,
          "durationTicks": 48,
          "midi": 79,
          "name": "G5",
          "ticks": 29280,
          "time": 118.064585,
          "velocity": 0.7874015748031497
        },
        {
          "duration": 0.19354849999999146,
          "durationTicks": 48,
          "midi": 75,
          "name": "D#5",
          "ticks": 29280,
          "time": 118.064585,
          "velocity": 0.7874015748031497
        },
        {
          "duration": 0.19354850000000567,
          "durationTicks": 48,
          "midi": 77,
          "name": "F5",
          "ticks": 29376,
          "time": 118.45168199999999,
          "velocity": 0.7874015748031497
        },
        {
          "duration": 0.19354850000000567,
          "durationTicks": 48,
          "midi": 82,
          "name": "A#5",
          "ticks": 29376,
          "time": 118.45168199999999,
          "velocity": 0.7874015748031497
        },
        {
          "duration": 0.19354849999999146,
          "durationTicks": 48,
          "midi": 73,
          "name": "C#5",
          "ticks": 29424,
          "time": 118.6452305,
          "velocity": 0.7874015748031497
        },
        {
          "duration": 0.19354849999999146,
          "durationTicks": 48,
          "midi": 77,
          "name": "F5",
          "ticks": 29424,
          "time": 118.6452305,
          "velocity": 0.7874015748031497
        },
        {
          "duration": 0.19354850000000567,
          "durationTicks": 48,
          "midi": 84,
          "name": "C6",
          "ticks": 29472,
          "time": 118.83877899999999,
          "velocity": 0.7874015748031497
        },
        {
          "duration": 0.19354850000000567,
          "durationTicks": 48,
          "midi": 80,
          "name": "G#5",
          "ticks": 29472,
          "time": 118.83877899999999,
          "velocity": 0.7874015748031497
        },
        {
          "duration": 0.09677424999999573,
          "durationTicks": 24,
          "midi": 85,
          "name": "C#6",
          "ticks": 29520,
          "time": 119.0323275,
          "velocity": 0.7874015748031497
        },
        {
          "duration": 0.09677424999999573,
          "durationTicks": 24,
          "midi": 82,
          "name": "A#5",
          "ticks": 29520,
          "time": 119.0323275,
          "velocity": 0.7874015748031497
        },
        {
          "duration": 0.19354850000000567,
          "durationTicks": 48,
          "midi": 80,
          "name": "G#5",
          "ticks": 29568,
          "time": 119.22587599999999,
          "velocity": 0.7874015748031497
        },
        {
          "duration": 0.19354850000000567,
          "durationTicks": 48,
          "midi": 84,
          "name": "C6",
          "ticks": 29568,
          "time": 119.22587599999999,
          "velocity": 0.7874015748031497
        },
        {
          "duration": 0.09677424999999573,
          "durationTicks": 24,
          "midi": 82,
          "name": "A#5",
          "ticks": 29616,
          "time": 119.41942449999999,
          "velocity": 0.7874015748031497
        },
        {
          "duration": 0.09677424999999573,
          "durationTicks": 24,
          "midi": 85,
          "name": "C#6",
          "ticks": 29616,
          "time": 119.41942449999999,
          "velocity": 0.7874015748031497
        },
        {
          "duration": 0.09677425000000994,
          "durationTicks": 24,
          "midi": 80,
          "name": "G#5",
          "ticks": 29640,
          "time": 119.51619874999999,
          "velocity": 0.7874015748031497
        },
        {
          "duration": 0.09677425000000994,
          "durationTicks": 24,
          "midi": 84,
          "name": "C6",
          "ticks": 29640,
          "time": 119.51619874999999,
          "velocity": 0.7874015748031497
        },
        {
          "duration": 0.19354849999999146,
          "durationTicks": 48,
          "midi": 73,
          "name": "C#5",
          "ticks": 29664,
          "time": 119.612973,
          "velocity": 0.7874015748031497
        },
        {
          "duration": 0.19354849999999146,
          "durationTicks": 48,
          "midi": 82,
          "name": "A#5",
          "ticks": 29664,
          "time": 119.612973,
          "velocity": 0.7874015748031497
        },
        {
          "duration": 0.09677424999999573,
          "durationTicks": 24,
          "midi": 73,
          "name": "C#5",
          "ticks": 29712,
          "time": 119.80652149999999,
          "velocity": 0.7874015748031497
        },
        {
          "duration": 0.09677424999999573,
          "durationTicks": 24,
          "midi": 80,
          "name": "G#5",
          "ticks": 29712,
          "time": 119.80652149999999,
          "velocity": 0.7874015748031497
        },
        {
          "duration": 1.5483880000000028,
          "durationTicks": 384,
          "midi": 77,
          "name": "F5",
          "ticks": 29760,
          "time": 120.00007,
          "velocity": 0.7874015748031497
        },
        {
          "duration": 1.5483880000000028,
          "durationTicks": 384,
          "midi": 82,
          "name": "A#5",
          "ticks": 29760,
          "time": 120.00007,
          "velocity": 0.7874015748031497
        }
      ]
    },
    {
      "channel": 0,
      "controlChanges": {
        "6": [
          {
            "number": 6,
            "ticks": 0,
            "time": 0,
            "value": 0.09448818897637795
          }
        ],
        "7": [
          {
            "number": 7,
            "ticks": 0,
            "time": 0,
            "value": 1
          },
          {
            "number": 7,
            "ticks": 0,
            "time": 0,
            "value": 1
          }
        ],
        "10": [
          {
            "number": 10,
            "ticks": 0,
            "time": 0,
            "value": 0.5039370078740157
          },
          {
            "number": 10,
            "ticks": 0,
            "time": 0,
            "value": 0.5039370078740157
          }
        ],
        "100": [
          {
            "number": 100,
            "ticks": 0,
            "time": 0,
            "value": 0
          }
        ],
        "101": [
          {
            "number": 101,
            "ticks": 0,
            "time": 0,
            "value": 0
          }
        ]
      },
      "pitchBends": [
        {
          "ticks": 0,
          "time": 0,
          "value": 0
        },
        {
          "ticks": 0,
          "time": 0,
          "value": 0
        }
      ],
      "instrument": {
        "family": "piano",
        "name": "acoustic grand piano",
        "number": 0
      },
      "name": "Slap Bass",
      "notes": []
    },
    {
      "channel": 2,
      "controlChanges": {
        "6": [
          {
            "number": 6,
            "ticks": 0,
            "time": 0,
            "value": 0.09448818897637795
          },
          {
            "number": 6,
            "ticks": 0,
            "time": 0,
            "value": 0.09448818897637795
          },
          {
            "number": 6,
            "ticks": 30336,
            "time": 122.32265199999999,
            "value": 0.09448818897637795
          },
          {
            "number": 6,
            "ticks": 30336,
            "time": 122.32265199999999,
            "value": 0.09448818897637795
          },
          {
            "number": 6,
            "ticks": 30336,
            "time": 122.32265199999999,
            "value": 0.09448818897637795
          }
        ],
        "7": [
          {
            "number": 7,
            "ticks": 0,
            "time": 0,
            "value": 1
          },
          {
            "number": 7,
            "ticks": 0,
            "time": 0,
            "value": 1
          },
          {
            "number": 7,
            "ticks": 30336,
            "time": 122.32265199999999,
            "value": 1
          },
          {
            "number": 7,
            "ticks": 30336,
            "time": 122.32265199999999,
            "value": 1
          },
          {
            "number": 7,
            "ticks": 30336,
            "time": 122.32265199999999,
            "value": 1
          }
        ],
        "10": [
          {
            "number": 10,
            "ticks": 0,
            "time": 0,
            "value": 0.5039370078740157
          },
          {
            "number": 10,
            "ticks": 0,
            "time": 0,
            "value": 0.5039370078740157
          },
          {
            "number": 10,
            "ticks": 30336,
            "time": 122.32265199999999,
            "value": 0.5039370078740157
          },
          {
            "number": 10,
            "ticks": 30336,
            "time": 122.32265199999999,
            "value": 0.5039370078740157
          },
          {
            "number": 10,
            "ticks": 30336,
            "time": 122.32265199999999,
            "value": 0.5039370078740157
          }
        ],
        "100": [
          {
            "number": 100,
            "ticks": 0,
            "time": 0,
            "value": 0
          },
          {
            "number": 100,
            "ticks": 0,
            "time": 0,
            "value": 0
          },
          {
            "number": 100,
            "ticks": 30336,
            "time": 122.32265199999999,
            "value": 0
          },
          {
            "number": 100,
            "ticks": 30336,
            "time": 122.32265199999999,
            "value": 0
          },
          {
            "number": 100,
            "ticks": 30336,
            "time": 122.32265199999999,
            "value": 0
          }
        ],
        "101": [
          {
            "number": 101,
            "ticks": 0,
            "time": 0,
            "value": 0
          },
          {
            "number": 101,
            "ticks": 0,
            "time": 0,
            "value": 0
          },
          {
            "number": 101,
            "ticks": 30336,
            "time": 122.32265199999999,
            "value": 0
          },
          {
            "number": 101,
            "ticks": 30336,
            "time": 122.32265199999999,
            "value": 0
          },
          {
            "number": 101,
            "ticks": 30336,
            "time": 122.32265199999999,
            "value": 0
          }
        ]
      },
      "pitchBends": [
        {
          "ticks": 0,
          "time": 0,
          "value": 0
        },
        {
          "ticks": 0,
          "time": 0,
          "value": 0
        },
        {
          "ticks": 30336,
          "time": 122.32265199999999,
          "value": 0
        },
        {
          "ticks": 30336,
          "time": 122.32265199999999,
          "value": 0
        },
        {
          "ticks": 30336,
          "time": 122.32265199999999,
          "value": 0
        }
      ],
      "instrument": {
        "family": "bass",
        "name": "slap bass 1",
        "number": 36
      },
      "name": "",
      "notes": [
        {
          "duration": 0.5806454999999999,
          "durationTicks": 144,
          "midi": 34,
          "name": "A#1",
          "ticks": 0,
          "time": 0,
          "velocity": 0.7874015748031497
        },
        {
          "duration": 0.387097,
          "durationTicks": 96,
          "midi": 41,
          "name": "F2",
          "ticks": 144,
          "time": 0.5806454999999999,
          "velocity": 0.7874015748031497
        },
        {
          "duration": 0.1935484999999999,
          "durationTicks": 48,
          "midi": 46,
          "name": "A#2",
          "ticks": 240,
          "time": 0.9677425,
          "velocity": 0.7874015748031497
        },
        {
          "duration": 0.387097,
          "durationTicks": 96,
          "midi": 36,
          "name": "C2",
          "ticks": 288,
          "time": 1.1612909999999999,
          "velocity": 0.7874015748031497
        },
        {
          "duration": 0.387097,
          "durationTicks": 96,
          "midi": 36,
          "name": "C2",
          "ticks": 384,
          "time": 1.5483879999999999,
          "velocity": 0.7874015748031497
        },
        {
          "duration": 0.5806454999999997,
          "durationTicks": 144,
          "midi": 34,
          "name": "A#1",
          "ticks": 480,
          "time": 1.935485,
          "velocity": 0.7874015748031497
        },
        {
          "duration": 0.38709700000000025,
          "durationTicks": 96,
          "midi": 41,
          "name": "F2",
          "ticks": 624,
          "time": 2.5161304999999996,
          "velocity": 0.7874015748031497
        },
        {
          "duration": 0.1935484999999999,
          "durationTicks": 48,
          "midi": 46,
          "name": "A#2",
          "ticks": 720,
          "time": 2.9032275,
          "velocity": 0.7874015748031497
        },
        {
          "duration": 0.3870969999999998,
          "durationTicks": 96,
          "midi": 39,
          "name": "D#2",
          "ticks": 768,
          "time": 3.0967759999999998,
          "velocity": 0.7874015748031497
        },
        {
          "duration": 0.38709700000000025,
          "durationTicks": 96,
          "midi": 39,
          "name": "D#2",
          "ticks": 864,
          "time": 3.4838729999999996,
          "velocity": 0.7874015748031497
        },
        {
          "duration": 0.5806455000000001,
          "durationTicks": 144,
          "midi": 34,
          "name": "A#1",
          "ticks": 960,
          "time": 3.87097,
          "velocity": 0.7874015748031497
        },
        {
          "duration": 0.3870969999999998,
          "durationTicks": 96,
          "midi": 41,
          "name": "F2",
          "ticks": 1104,
          "time": 4.4516155,
          "velocity": 0.7874015748031497
        },
        {
          "duration": 0.19354849999999946,
          "durationTicks": 48,
          "midi": 46,
          "name": "A#2",
          "ticks": 1200,
          "time": 4.8387125,
          "velocity": 0.7874015748031497
        },
        {
          "duration": 0.3870970000000007,
          "durationTicks": 96,
          "midi": 36,
          "name": "C2",
          "ticks": 1248,
          "time": 5.032260999999999,
          "velocity": 0.7874015748031497
        },
        {
          "duration": 0.3870969999999998,
          "durationTicks": 96,
          "midi": 36,
          "name": "C2",
          "ticks": 1344,
          "time": 5.419358,
          "velocity": 0.7874015748031497
        },
        {
          "duration": 0.5806455000000001,
          "durationTicks": 144,
          "midi": 34,
          "name": "A#1",
          "ticks": 1440,
          "time": 5.806455,
          "velocity": 0.7874015748031497
        },
        {
          "duration": 0.3870969999999998,
          "durationTicks": 96,
          "midi": 41,
          "name": "F2",
          "ticks": 1584,
          "time": 6.3871005,
          "velocity": 0.7874015748031497
        },
        {
          "duration": 0.19354849999999946,
          "durationTicks": 48,
          "midi": 46,
          "name": "A#2",
          "ticks": 1680,
          "time": 6.7741975,
          "velocity": 0.7874015748031497
        },
        {
          "duration": 0.3870970000000007,
          "durationTicks": 96,
          "midi": 39,
          "name": "D#2",
          "ticks": 1728,
          "time": 6.967745999999999,
          "velocity": 0.7874015748031497
        },
        {
          "duration": 0.3870969999999998,
          "durationTicks": 96,
          "midi": 39,
          "name": "D#2",
          "ticks": 1824,
          "time": 7.354843,
          "velocity": 0.7874015748031497
        },
        {
          "duration": 0.5806454999999993,
          "durationTicks": 144,
          "midi": 30,
          "name": "F#1",
          "ticks": 1920,
          "time": 7.74194,
          "velocity": 0.7874015748031497
        },
        {
          "duration": 0.3870970000000007,
          "durationTicks": 96,
          "midi": 37,
          "name": "C#2",
          "ticks": 2064,
          "time": 8.322585499999999,
          "velocity": 0.7874015748031497
        },
        {
          "duration": 0.19354850000000035,
          "durationTicks": 48,
          "midi": 42,
          "name": "F#2",
          "ticks": 2160,
          "time": 8.7096825,
          "velocity": 0.7874015748031497
        },
        {
          "duration": 0.3870969999999989,
          "durationTicks": 96,
          "midi": 36,
          "name": "C2",
          "ticks": 2208,
          "time": 8.903231,
          "velocity": 0.7874015748031497
        },
        {
          "duration": 0.3870970000000007,
          "durationTicks": 96,
          "midi": 36,
          "name": "C2",
          "ticks": 2304,
          "time": 9.290327999999999,
          "velocity": 0.7874015748031497
        },
        {
          "duration": 0.5806454999999993,
          "durationTicks": 144,
          "midi": 30,
          "name": "F#1",
          "ticks": 2400,
          "time": 9.677425,
          "velocity": 0.7874015748031497
        },
        {
          "duration": 0.3870970000000007,
          "durationTicks": 96,
          "midi": 37,
          "name": "C#2",
          "ticks": 2544,
          "time": 10.258070499999999,
          "velocity": 0.7874015748031497
        },
        {
          "duration": 0.19354850000000035,
          "durationTicks": 48,
          "midi": 42,
          "name": "F#2",
          "ticks": 2640,
          "time": 10.6451675,
          "velocity": 0.7874015748031497
        },
        {
          "duration": 0.3870969999999989,
          "durationTicks": 96,
          "midi": 45,
          "name": "A2",
          "ticks": 2688,
          "time": 10.838716,
          "velocity": 0.7874015748031497
        },
        {
          "duration": 0.3870970000000007,
          "durationTicks": 96,
          "midi": 45,
          "name": "A2",
          "ticks": 2784,
          "time": 11.225812999999999,
          "velocity": 0.7874015748031497
        },
        {
          "duration": 0.5806454999999993,
          "durationTicks": 144,
          "midi": 34,
          "name": "A#1",
          "ticks": 2880,
          "time": 11.61291,
          "velocity": 0.7874015748031497
        },
        {
          "duration": 0.3870970000000007,
          "durationTicks": 96,
          "midi": 41,
          "name": "F2",
          "ticks": 3024,
          "time": 12.193555499999999,
          "velocity": 0.7874015748031497
        },
        {
          "duration": 0.19354850000000035,
          "durationTicks": 48,
          "midi": 46,
          "name": "A#2",
          "ticks": 3120,
          "time": 12.5806525,
          "velocity": 0.7874015748031497
        },
        {
          "duration": 0.3870969999999989,
          "durationTicks": 96,
          "midi": 36,
          "name": "C2",
          "ticks": 3168,
          "time": 12.774201,
          "velocity": 0.7874015748031497
        },
        {
          "duration": 0.3870970000000007,
          "durationTicks": 96,
          "midi": 36,
          "name": "C2",
          "ticks": 3264,
          "time": 13.161297999999999,
          "velocity": 0.7874015748031497
        },
        {
          "duration": 0.5806454999999993,
          "durationTicks": 144,
          "midi": 34,
          "name": "A#1",
          "ticks": 3360,
          "time": 13.548395,
          "velocity": 0.7874015748031497
        },
        {
          "duration": 0.3870970000000007,
          "durationTicks": 96,
          "midi": 41,
          "name": "F2",
          "ticks": 3504,
          "time": 14.129040499999999,
          "velocity": 0.7874015748031497
        },
        {
          "duration": 0.19354850000000035,
          "durationTicks": 48,
          "midi": 46,
          "name": "A#2",
          "ticks": 3600,
          "time": 14.5161375,
          "velocity": 0.7874015748031497
        },
        {
          "duration": 0.3870969999999989,
          "durationTicks": 96,
          "midi": 39,
          "name": "D#2",
          "ticks": 3648,
          "time": 14.709686,
          "velocity": 0.7874015748031497
        },
        {
          "duration": 0.3870970000000007,
          "durationTicks": 96,
          "midi": 39,
          "name": "D#2",
          "ticks": 3744,
          "time": 15.096782999999999,
          "velocity": 0.7874015748031497
        },
        {
          "duration": 0.19354850000000035,
          "durationTicks": 48,
          "midi": 34,
          "name": "A#1",
          "ticks": 3840,
          "time": 15.48388,
          "velocity": 0.7874015748031497
        },
        {
          "duration": 0.19354849999999857,
          "durationTicks": 48,
          "midi": 41,
          "name": "F2",
          "ticks": 3888,
          "time": 15.6774285,
          "velocity": 0.7874015748031497
        },
        {
          "duration": 0.19354850000000035,
          "durationTicks": 48,
          "midi": 34,
          "name": "A#1",
          "ticks": 3936,
          "time": 15.870976999999998,
          "velocity": 0.7874015748031497
        },
        {
          "duration": 0.19354849999999857,
          "durationTicks": 48,
          "midi": 41,
          "name": "F2",
          "ticks": 3984,
          "time": 16.0645255,
          "velocity": 0.7874015748031497
        },
        {
          "duration": 0.19354850000000212,
          "durationTicks": 48,
          "midi": 33,
          "name": "A1",
          "ticks": 4032,
          "time": 16.258073999999997,
          "velocity": 0.7874015748031497
        },
        {
          "duration": 0.19354849999999857,
          "durationTicks": 48,
          "midi": 40,
          "name": "E2",
          "ticks": 4080,
          "time": 16.4516225,
          "velocity": 0.7874015748031497
        },
        {
          "duration": 0.19354850000000212,
          "durationTicks": 48,
          "midi": 33,
          "name": "A1",
          "ticks": 4128,
          "time": 16.645170999999998,
          "velocity": 0.7874015748031497
        },
        {
          "duration": 0.19354849999999857,
          "durationTicks": 48,
          "midi": 40,
          "name": "E2",
          "ticks": 4176,
          "time": 16.8387195,
          "velocity": 0.7874015748031497
        },
        {
          "duration": 0.19354849999999857,
          "durationTicks": 48,
          "midi": 36,
          "name": "C2",
          "ticks": 4224,
          "time": 17.032268,
          "velocity": 0.7874015748031497
        },
        {
          "duration": 0.19354850000000212,
          "durationTicks": 48,
          "midi": 43,
          "name": "G2",
          "ticks": 4272,
          "time": 17.225816499999997,
          "velocity": 0.7874015748031497
        },
        {
          "duration": 0.19354849999999857,
          "durationTicks": 48,
          "midi": 36,
          "name": "C2",
          "ticks": 4320,
          "time": 17.419365,
          "velocity": 0.7874015748031497
        },
        {
          "duration": 0.19354850000000212,
          "durationTicks": 48,
          "midi": 43,
          "name": "G2",
          "ticks": 4368,
          "time": 17.612913499999998,
          "velocity": 0.7874015748031497
        },
        {
          "duration": 0.19354849999999857,
          "durationTicks": 48,
          "midi": 35,
          "name": "B1",
          "ticks": 4416,
          "time": 17.806462,
          "velocity": 0.7874015748031497
        },
        {
          "duration": 0.19354849999999857,
          "durationTicks": 48,
          "midi": 42,
          "name": "F#2",
          "ticks": 4464,
          "time": 18.0000105,
          "velocity": 0.7874015748031497
        },
        {
          "duration": 0.19354850000000212,
          "durationTicks": 48,
          "midi": 35,
          "name": "B1",
          "ticks": 4512,
          "time": 18.193558999999997,
          "velocity": 0.7874015748031497
        },
        {
          "duration": 0.19354849999999857,
          "durationTicks": 48,
          "midi": 42,
          "name": "F#2",
          "ticks": 4560,
          "time": 18.3871075,
          "velocity": 0.7874015748031497
        },
        {
          "duration": 0.19354850000000212,
          "durationTicks": 48,
          "midi": 34,
          "name": "A#1",
          "ticks": 4608,
          "time": 18.580655999999998,
          "velocity": 0.7874015748031497
        },
        {
          "duration": 0.19354849999999857,
          "durationTicks": 48,
          "midi": 41,
          "name": "F2",
          "ticks": 4656,
          "time": 18.7742045,
          "velocity": 0.7874015748031497
        },
        {
          "duration": 0.19354849999999857,
          "durationTicks": 48,
          "midi": 34,
          "name": "A#1",
          "ticks": 4704,
          "time": 18.967753,
          "velocity": 0.7874015748031497
        },
        {
          "duration": 0.19354850000000212,
          "durationTicks": 48,
          "midi": 41,
          "name": "F2",
          "ticks": 4752,
          "time": 19.161301499999997,
          "velocity": 0.7874015748031497
        },
        {
          "duration": 0.19354849999999857,
          "durationTicks": 48,
          "midi": 33,
          "name": "A1",
          "ticks": 4800,
          "time": 19.35485,
          "velocity": 0.7874015748031497
        },
        {
          "duration": 0.19354850000000212,
          "durationTicks": 48,
          "midi": 40,
          "name": "E2",
          "ticks": 4848,
          "time": 19.548398499999998,
          "velocity": 0.7874015748031497
        },
        {
          "duration": 0.19354849999999857,
          "durationTicks": 48,
          "midi": 33,
          "name": "A1",
          "ticks": 4896,
          "time": 19.741947,
          "velocity": 0.7874015748031497
        },
        {
          "duration": 0.19354849999999857,
          "durationTicks": 48,
          "midi": 40,
          "name": "E2",
          "ticks": 4944,
          "time": 19.9354955,
          "velocity": 0.7874015748031497
        },
        {
          "duration": 0.19354850000000212,
          "durationTicks": 48,
          "midi": 36,
          "name": "C2",
          "ticks": 4992,
          "time": 20.129043999999997,
          "velocity": 0.7874015748031497
        },
        {
          "duration": 0.19354849999999857,
          "durationTicks": 48,
          "midi": 43,
          "name": "G2",
          "ticks": 5040,
          "time": 20.3225925,
          "velocity": 0.7874015748031497
        },
        {
          "duration": 0.19354850000000212,
          "durationTicks": 48,
          "midi": 36,
          "name": "C2",
          "ticks": 5088,
          "time": 20.516140999999998,
          "velocity": 0.7874015748031497
        },
        {
          "duration": 0.19354849999999857,
          "durationTicks": 48,
          "midi": 43,
          "name": "G2",
          "ticks": 5136,
          "time": 20.7096895,
          "velocity": 0.7874015748031497
        },
        {
          "duration": 0.19354849999999857,
          "durationTicks": 48,
          "midi": 35,
          "name": "B1",
          "ticks": 5184,
          "time": 20.903237999999998,
          "velocity": 0.7874015748031497
        },
        {
          "duration": 0.19354850000000212,
          "durationTicks": 48,
          "midi": 42,
          "name": "F#2",
          "ticks": 5232,
          "time": 21.096786499999997,
          "velocity": 0.7874015748031497
        },
        {
          "duration": 0.19354849999999857,
          "durationTicks": 48,
          "midi": 35,
          "name": "B1",
          "ticks": 5280,
          "time": 21.290335,
          "velocity": 0.7874015748031497
        },
        {
          "duration": 0.19354850000000212,
          "durationTicks": 48,
          "midi": 42,
          "name": "F#2",
          "ticks": 5328,
          "time": 21.483883499999997,
          "velocity": 0.7874015748031497
        },
        {
          "duration": 0.19354849999999857,
          "durationTicks": 48,
          "midi": 34,
          "name": "A#1",
          "ticks": 5376,
          "time": 21.677432,
          "velocity": 0.7874015748031497
        },
        {
          "duration": 0.19354849999999857,
          "durationTicks": 48,
          "midi": 41,
          "name": "F2",
          "ticks": 5424,
          "time": 21.870980499999998,
          "velocity": 0.7874015748031497
        },
        {
          "duration": 0.19354850000000212,
          "durationTicks": 48,
          "midi": 34,
          "name": "A#1",
          "ticks": 5472,
          "time": 22.064528999999997,
          "velocity": 0.7874015748031497
        },
        {
          "duration": 0.19354849999999857,
          "durationTicks": 48,
          "midi": 41,
          "name": "F2",
          "ticks": 5520,
          "time": 22.2580775,
          "velocity": 0.7874015748031497
        },
        {
          "duration": 0.19354850000000212,
          "durationTicks": 48,
          "midi": 33,
          "name": "A1",
          "ticks": 5568,
          "time": 22.451625999999997,
          "velocity": 0.7874015748031497
        },
        {
          "duration": 0.19354849999999857,
          "durationTicks": 48,
          "midi": 40,
          "name": "E2",
          "ticks": 5616,
          "time": 22.6451745,
          "velocity": 0.7874015748031497
        },
        {
          "duration": 0.19354849999999857,
          "durationTicks": 48,
          "midi": 33,
          "name": "A1",
          "ticks": 5664,
          "time": 22.838722999999998,
          "velocity": 0.7874015748031497
        },
        {
          "duration": 0.19354850000000212,
          "durationTicks": 48,
          "midi": 40,
          "name": "E2",
          "ticks": 5712,
          "time": 23.032271499999997,
          "velocity": 0.7874015748031497
        },
        {
          "duration": 0.19354849999999857,
          "durationTicks": 48,
          "midi": 36,
          "name": "C2",
          "ticks": 5760,
          "time": 23.22582,
          "velocity": 0.7874015748031497
        },
        {
          "duration": 0.19354850000000212,
          "durationTicks": 48,
          "midi": 43,
          "name": "G2",
          "ticks": 5808,
          "time": 23.419368499999997,
          "velocity": 0.7874015748031497
        },
        {
          "duration": 0.19354849999999857,
          "durationTicks": 48,
          "midi": 36,
          "name": "C2",
          "ticks": 5856,
          "time": 23.612917,
          "velocity": 0.7874015748031497
        },
        {
          "duration": 0.19354849999999857,
          "durationTicks": 48,
          "midi": 43,
          "name": "G2",
          "ticks": 5904,
          "time": 23.806465499999998,
          "velocity": 0.7874015748031497
        },
        {
          "duration": 0.19354850000000212,
          "durationTicks": 48,
          "midi": 35,
          "name": "B1",
          "ticks": 5952,
          "time": 24.000013999999997,
          "velocity": 0.7874015748031497
        },
        {
          "duration": 0.19354849999999857,
          "durationTicks": 48,
          "midi": 42,
          "name": "F#2",
          "ticks": 6000,
          "time": 24.1935625,
          "velocity": 0.7874015748031497
        },
        {
          "duration": 0.19354850000000212,
          "durationTicks": 48,
          "midi": 35,
          "name": "B1",
          "ticks": 6048,
          "time": 24.387110999999997,
          "velocity": 0.7874015748031497
        },
        {
          "duration": 0.19354849999999857,
          "durationTicks": 48,
          "midi": 42,
          "name": "F#2",
          "ticks": 6096,
          "time": 24.5806595,
          "velocity": 0.7874015748031497
        },
        {
          "duration": 0.19354849999999857,
          "durationTicks": 48,
          "midi": 34,
          "name": "A#1",
          "ticks": 6144,
          "time": 24.774207999999998,
          "velocity": 0.7874015748031497
        },
        {
          "duration": 0.19354850000000212,
          "durationTicks": 48,
          "midi": 41,
          "name": "F2",
          "ticks": 6192,
          "time": 24.967756499999997,
          "velocity": 0.7874015748031497
        },
        {
          "duration": 0.19354849999999857,
          "durationTicks": 48,
          "midi": 34,
          "name": "A#1",
          "ticks": 6240,
          "time": 25.161305,
          "velocity": 0.7874015748031497
        },
        {
          "duration": 0.19354850000000212,
          "durationTicks": 48,
          "midi": 41,
          "name": "F2",
          "ticks": 6288,
          "time": 25.354853499999997,
          "velocity": 0.7874015748031497
        },
        {
          "duration": 0.19354849999999857,
          "durationTicks": 48,
          "midi": 33,
          "name": "A1",
          "ticks": 6336,
          "time": 25.548402,
          "velocity": 0.7874015748031497
        },
        {
          "duration": 0.19354849999999857,
          "durationTicks": 48,
          "midi": 40,
          "name": "E2",
          "ticks": 6384,
          "time": 25.741950499999998,
          "velocity": 0.7874015748031497
        },
        {
          "duration": 0.19354850000000212,
          "durationTicks": 48,
          "midi": 33,
          "name": "A1",
          "ticks": 6432,
          "time": 25.935498999999997,
          "velocity": 0.7874015748031497
        },
        {
          "duration": 0.19354849999999857,
          "durationTicks": 48,
          "midi": 40,
          "name": "E2",
          "ticks": 6480,
          "time": 26.1290475,
          "velocity": 0.7874015748031497
        },
        {
          "duration": 0.19354850000000212,
          "durationTicks": 48,
          "midi": 36,
          "name": "C2",
          "ticks": 6528,
          "time": 26.322595999999997,
          "velocity": 0.7874015748031497
        },
        {
          "duration": 0.19354849999999857,
          "durationTicks": 48,
          "midi": 43,
          "name": "G2",
          "ticks": 6576,
          "time": 26.5161445,
          "velocity": 0.7874015748031497
        },
        {
          "duration": 0.19354849999999857,
          "durationTicks": 48,
          "midi": 36,
          "name": "C2",
          "ticks": 6624,
          "time": 26.709692999999998,
          "velocity": 0.7874015748031497
        },
        {
          "duration": 0.19354850000000212,
          "durationTicks": 48,
          "midi": 43,
          "name": "G2",
          "ticks": 6672,
          "time": 26.903241499999996,
          "velocity": 0.7874015748031497
        },
        {
          "duration": 0.19354849999999857,
          "durationTicks": 48,
          "midi": 35,
          "name": "B1",
          "ticks": 6720,
          "time": 27.09679,
          "velocity": 0.7874015748031497
        },
        {
          "duration": 0.19354850000000212,
          "durationTicks": 48,
          "midi": 42,
          "name": "F#2",
          "ticks": 6768,
          "time": 27.290338499999997,
          "velocity": 0.7874015748031497
        },
        {
          "duration": 0.19354849999999857,
          "durationTicks": 48,
          "midi": 35,
          "name": "B1",
          "ticks": 6816,
          "time": 27.483887,
          "velocity": 0.7874015748031497
        },
        {
          "duration": 0.19354849999999857,
          "durationTicks": 48,
          "midi": 42,
          "name": "F#2",
          "ticks": 6864,
          "time": 27.677435499999998,
          "velocity": 0.7874015748031497
        },
        {
          "duration": 0.19354850000000212,
          "durationTicks": 48,
          "midi": 42,
          "name": "F#2",
          "ticks": 6912,
          "time": 27.870983999999996,
          "velocity": 0.7874015748031497
        },
        {
          "duration": 0.19354849999999857,
          "durationTicks": 48,
          "midi": 49,
          "name": "C#3",
          "ticks": 6960,
          "time": 28.0645325,
          "velocity": 0.7874015748031497
        },
        {
          "duration": 0.19354850000000212,
          "durationTicks": 48,
          "midi": 42,
          "name": "F#2",
          "ticks": 7008,
          "time": 28.258080999999997,
          "velocity": 0.7874015748031497
        },
        {
          "duration": 0.19354849999999857,
          "durationTicks": 48,
          "midi": 49,
          "name": "C#3",
          "ticks": 7056,
          "time": 28.4516295,
          "velocity": 0.7874015748031497
        },
        {
          "duration": 0.19354849999999857,
          "durationTicks": 48,
          "midi": 44,
          "name": "G#2",
          "ticks": 7104,
          "time": 28.645177999999998,
          "velocity": 0.7874015748031497
        },
        {
          "duration": 0.19354850000000212,
          "durationTicks": 48,
          "midi": 51,
          "name": "D#3",
          "ticks": 7152,
          "time": 28.838726499999996,
          "velocity": 0.7874015748031497
        },
        {
          "duration": 0.19354849999999857,
          "durationTicks": 48,
          "midi": 44,
          "name": "G#2",
          "ticks": 7200,
          "time": 29.032275,
          "velocity": 0.7874015748031497
        },
        {
          "duration": 0.19354850000000212,
          "durationTicks": 48,
          "midi": 51,
          "name": "D#3",
          "ticks": 7248,
          "time": 29.225823499999997,
          "velocity": 0.7874015748031497
        },
        {
          "duration": 0.19354849999999857,
          "durationTicks": 48,
          "midi": 46,
          "name": "A#2",
          "ticks": 7296,
          "time": 29.419372,
          "velocity": 0.7874015748031497
        },
        {
          "duration": 0.19354849999999857,
          "durationTicks": 48,
          "midi": 53,
          "name": "F3",
          "ticks": 7344,
          "time": 29.612920499999998,
          "velocity": 0.7874015748031497
        },
        {
          "duration": 0.19354850000000212,
          "durationTicks": 48,
          "midi": 46,
          "name": "A#2",
          "ticks": 7392,
          "time": 29.806468999999996,
          "velocity": 0.7874015748031497
        },
        {
          "duration": 0.19354849999999857,
          "durationTicks": 48,
          "midi": 53,
          "name": "F3",
          "ticks": 7440,
          "time": 30.0000175,
          "velocity": 0.7874015748031497
        },
        {
          "duration": 0.19354850000000212,
          "durationTicks": 48,
          "midi": 43,
          "name": "G2",
          "ticks": 7488,
          "time": 30.193565999999997,
          "velocity": 0.7874015748031497
        },
        {
          "duration": 0.19354849999999857,
          "durationTicks": 48,
          "midi": 51,
          "name": "D#3",
          "ticks": 7536,
          "time": 30.3871145,
          "velocity": 0.7874015748031497
        },
        {
          "duration": 0.19354849999999857,
          "durationTicks": 48,
          "midi": 43,
          "name": "G2",
          "ticks": 7584,
          "time": 30.580662999999998,
          "velocity": 0.7874015748031497
        },
        {
          "duration": 0.19354850000000212,
          "durationTicks": 48,
          "midi": 51,
          "name": "D#3",
          "ticks": 7632,
          "time": 30.774211499999996,
          "velocity": 0.7874015748031497
        },
        {
          "duration": 0.19354849999999857,
          "durationTicks": 48,
          "midi": 42,
          "name": "F#2",
          "ticks": 7680,
          "time": 30.96776,
          "velocity": 0.7874015748031497
        },
        {
          "duration": 0.19354850000000212,
          "durationTicks": 48,
          "midi": 49,
          "name": "C#3",
          "ticks": 7728,
          "time": 31.161308499999997,
          "velocity": 0.7874015748031497
        },
        {
          "duration": 0.19354849999999857,
          "durationTicks": 48,
          "midi": 42,
          "name": "F#2",
          "ticks": 7776,
          "time": 31.354857,
          "velocity": 0.7874015748031497
        },
        {
          "duration": 0.19354849999999857,
          "durationTicks": 48,
          "midi": 49,
          "name": "C#3",
          "ticks": 7824,
          "time": 31.548405499999998,
          "velocity": 0.7874015748031497
        },
        {
          "duration": 0.19354850000000212,
          "durationTicks": 48,
          "midi": 44,
          "name": "G#2",
          "ticks": 7872,
          "time": 31.741953999999996,
          "velocity": 0.7874015748031497
        },
        {
          "duration": 0.19354849999999857,
          "durationTicks": 48,
          "midi": 51,
          "name": "D#3",
          "ticks": 7920,
          "time": 31.9355025,
          "velocity": 0.7874015748031497
        },
        {
          "duration": 0.19354849999999857,
          "durationTicks": 48,
          "midi": 44,
          "name": "G#2",
          "ticks": 7968,
          "time": 32.129051,
          "velocity": 0.7874015748031497
        },
        {
          "duration": 0.19354849999999857,
          "durationTicks": 48,
          "midi": 51,
          "name": "D#3",
          "ticks": 8016,
          "time": 32.322599499999995,
          "velocity": 0.7874015748031497
        },
        {
          "duration": 0.19354850000000567,
          "durationTicks": 48,
          "midi": 46,
          "name": "A#2",
          "ticks": 8064,
          "time": 32.516147999999994,
          "velocity": 0.7874015748031497
        },
        {
          "duration": 0.19354849999999857,
          "durationTicks": 48,
          "midi": 53,
          "name": "F3",
          "ticks": 8112,
          "time": 32.7096965,
          "velocity": 0.7874015748031497
        },
        {
          "duration": 0.19354849999999857,
          "durationTicks": 48,
          "midi": 46,
          "name": "A#2",
          "ticks": 8160,
          "time": 32.903245,
          "velocity": 0.7874015748031497
        },
        {
          "duration": 0.19354849999999857,
          "durationTicks": 48,
          "midi": 53,
          "name": "F3",
          "ticks": 8208,
          "time": 33.0967935,
          "velocity": 0.7874015748031497
        },
        {
          "duration": 0.19354849999999857,
          "durationTicks": 48,
          "midi": 46,
          "name": "A#2",
          "ticks": 8256,
          "time": 33.290341999999995,
          "velocity": 0.7874015748031497
        },
        {
          "duration": 0.19354850000000567,
          "durationTicks": 48,
          "midi": 53,
          "name": "F3",
          "ticks": 8304,
          "time": 33.483890499999994,
          "velocity": 0.7874015748031497
        },
        {
          "duration": 0.19354849999999857,
          "durationTicks": 48,
          "midi": 44,
          "name": "G#2",
          "ticks": 8352,
          "time": 33.677439,
          "velocity": 0.7874015748031497
        },
        {
          "duration": 0.19354849999999857,
          "durationTicks": 48,
          "midi": 51,
          "name": "D#3",
          "ticks": 8400,
          "time": 33.8709875,
          "velocity": 0.7874015748031497
        },
        {
          "duration": 0.19354849999999857,
          "durationTicks": 48,
          "midi": 42,
          "name": "F#2",
          "ticks": 8448,
          "time": 34.064536,
          "velocity": 0.7874015748031497
        },
        {
          "duration": 0.19354849999999857,
          "durationTicks": 48,
          "midi": 49,
          "name": "C#3",
          "ticks": 8496,
          "time": 34.258084499999995,
          "velocity": 0.7874015748031497
        },
        {
          "duration": 0.19354850000000567,
          "durationTicks": 48,
          "midi": 42,
          "name": "F#2",
          "ticks": 8544,
          "time": 34.451632999999994,
          "velocity": 0.7874015748031497
        },
        {
          "duration": 0.19354849999999857,
          "durationTicks": 48,
          "midi": 49,
          "name": "C#3",
          "ticks": 8592,
          "time": 34.6451815,
          "velocity": 0.7874015748031497
        },
        {
          "duration": 0.19354849999999857,
          "durationTicks": 48,
          "midi": 44,
          "name": "G#2",
          "ticks": 8640,
          "time": 34.83873,
          "velocity": 0.7874015748031497
        },
        {
          "duration": 0.19354849999999857,
          "durationTicks": 48,
          "midi": 51,
          "name": "D#3",
          "ticks": 8688,
          "time": 35.0322785,
          "velocity": 0.7874015748031497
        },
        {
          "duration": 0.19354849999999857,
          "durationTicks": 48,
          "midi": 44,
          "name": "G#2",
          "ticks": 8736,
          "time": 35.225826999999995,
          "velocity": 0.7874015748031497
        },
        {
          "duration": 0.19354850000000567,
          "durationTicks": 48,
          "midi": 51,
          "name": "D#3",
          "ticks": 8784,
          "time": 35.419375499999994,
          "velocity": 0.7874015748031497
        },
        {
          "duration": 0.19354849999999857,
          "durationTicks": 48,
          "midi": 46,
          "name": "A#2",
          "ticks": 8832,
          "time": 35.612924,
          "velocity": 0.7874015748031497
        },
        {
          "duration": 0.19354849999999857,
          "durationTicks": 48,
          "midi": 53,
          "name": "F3",
          "ticks": 8880,
          "time": 35.8064725,
          "velocity": 0.7874015748031497
        },
        {
          "duration": 0.19354849999999857,
          "durationTicks": 48,
          "midi": 46,
          "name": "A#2",
          "ticks": 8928,
          "time": 36.000021,
          "velocity": 0.7874015748031497
        },
        {
          "duration": 0.19354849999999857,
          "durationTicks": 48,
          "midi": 53,
          "name": "F3",
          "ticks": 8976,
          "time": 36.193569499999995,
          "velocity": 0.7874015748031497
        },
        {
          "duration": 0.19354850000000567,
          "durationTicks": 48,
          "midi": 43,
          "name": "G2",
          "ticks": 9024,
          "time": 36.387117999999994,
          "velocity": 0.7874015748031497
        },
        {
          "duration": 0.19354849999999857,
          "durationTicks": 48,
          "midi": 51,
          "name": "D#3",
          "ticks": 9072,
          "time": 36.5806665,
          "velocity": 0.7874015748031497
        },
        {
          "duration": 0.19354849999999857,
          "durationTicks": 48,
          "midi": 43,
          "name": "G2",
          "ticks": 9120,
          "time": 36.774215,
          "velocity": 0.7874015748031497
        },
        {
          "duration": 0.19354849999999857,
          "durationTicks": 48,
          "midi": 51,
          "name": "D#3",
          "ticks": 9168,
          "time": 36.9677635,
          "velocity": 0.7874015748031497
        },
        {
          "duration": 0.19354849999999857,
          "durationTicks": 48,
          "midi": 42,
          "name": "F#2",
          "ticks": 9216,
          "time": 37.161311999999995,
          "velocity": 0.7874015748031497
        },
        {
          "duration": 0.19354850000000567,
          "durationTicks": 48,
          "midi": 49,
          "name": "C#3",
          "ticks": 9264,
          "time": 37.354860499999994,
          "velocity": 0.7874015748031497
        },
        {
          "duration": 0.19354849999999857,
          "durationTicks": 48,
          "midi": 42,
          "name": "F#2",
          "ticks": 9312,
          "time": 37.548409,
          "velocity": 0.7874015748031497
        },
        {
          "duration": 0.19354849999999857,
          "durationTicks": 48,
          "midi": 49,
          "name": "C#3",
          "ticks": 9360,
          "time": 37.7419575,
          "velocity": 0.7874015748031497
        },
        {
          "duration": 0.19354849999999857,
          "durationTicks": 48,
          "midi": 44,
          "name": "G#2",
          "ticks": 9408,
          "time": 37.935506,
          "velocity": 0.7874015748031497
        },
        {
          "duration": 0.19354849999999857,
          "durationTicks": 48,
          "midi": 51,
          "name": "D#3",
          "ticks": 9456,
          "time": 38.129054499999995,
          "velocity": 0.7874015748031497
        },
        {
          "duration": 0.19354850000000567,
          "durationTicks": 48,
          "midi": 44,
          "name": "G#2",
          "ticks": 9504,
          "time": 38.322602999999994,
          "velocity": 0.7874015748031497
        },
        {
          "duration": 0.19354849999999857,
          "durationTicks": 48,
          "midi": 51,
          "name": "D#3",
          "ticks": 9552,
          "time": 38.5161515,
          "velocity": 0.7874015748031497
        },
        {
          "duration": 0.19354849999999857,
          "durationTicks": 48,
          "midi": 46,
          "name": "A#2",
          "ticks": 9600,
          "time": 38.7097,
          "velocity": 0.7874015748031497
        },
        {
          "duration": 0.19354849999999857,
          "durationTicks": 48,
          "midi": 53,
          "name": "F3",
          "ticks": 9648,
          "time": 38.9032485,
          "velocity": 0.7874015748031497
        },
        {
          "duration": 0.19354849999999857,
          "durationTicks": 48,
          "midi": 46,
          "name": "A#2",
          "ticks": 9696,
          "time": 39.096796999999995,
          "velocity": 0.7874015748031497
        },
        {
          "duration": 0.19354850000000567,
          "durationTicks": 48,
          "midi": 53,
          "name": "F3",
          "ticks": 9744,
          "time": 39.290345499999994,
          "velocity": 0.7874015748031497
        },
        {
          "duration": 0.19354849999999857,
          "durationTicks": 48,
          "midi": 46,
          "name": "A#2",
          "ticks": 9792,
          "time": 39.483894,
          "velocity": 0.7874015748031497
        },
        {
          "duration": 0.19354849999999857,
          "durationTicks": 48,
          "midi": 53,
          "name": "F3",
          "ticks": 9840,
          "time": 39.6774425,
          "velocity": 0.7874015748031497
        },
        {
          "duration": 0.19354849999999857,
          "durationTicks": 48,
          "midi": 46,
          "name": "A#2",
          "ticks": 9888,
          "time": 39.870991,
          "velocity": 0.7874015748031497
        },
        {
          "duration": 0.19354849999999857,
          "durationTicks": 48,
          "midi": 53,
          "name": "F3",
          "ticks": 9936,
          "time": 40.064539499999995,
          "velocity": 0.7874015748031497
        },
        {
          "duration": 0.19354850000000567,
          "durationTicks": 48,
          "midi": 42,
          "name": "F#2",
          "ticks": 9984,
          "time": 40.258087999999994,
          "velocity": 0.7874015748031497
        },
        {
          "duration": 0.19354849999999857,
          "durationTicks": 48,
          "midi": 49,
          "name": "C#3",
          "ticks": 10032,
          "time": 40.4516365,
          "velocity": 0.7874015748031497
        },
        {
          "duration": 0.19354849999999857,
          "durationTicks": 48,
          "midi": 42,
          "name": "F#2",
          "ticks": 10080,
          "time": 40.645185,
          "velocity": 0.7874015748031497
        },
        {
          "duration": 0.19354849999999857,
          "durationTicks": 48,
          "midi": 49,
          "name": "C#3",
          "ticks": 10128,
          "time": 40.8387335,
          "velocity": 0.7874015748031497
        },
        {
          "duration": 0.19354849999999857,
          "durationTicks": 48,
          "midi": 44,
          "name": "G#2",
          "ticks": 10176,
          "time": 41.032281999999995,
          "velocity": 0.7874015748031497
        },
        {
          "duration": 0.19354850000000567,
          "durationTicks": 48,
          "midi": 51,
          "name": "D#3",
          "ticks": 10224,
          "time": 41.225830499999994,
          "velocity": 0.7874015748031497
        },
        {
          "duration": 0.19354849999999857,
          "durationTicks": 48,
          "midi": 44,
          "name": "G#2",
          "ticks": 10272,
          "time": 41.419379,
          "velocity": 0.7874015748031497
        },
        {
          "duration": 0.19354849999999857,
          "durationTicks": 48,
          "midi": 51,
          "name": "D#3",
          "ticks": 10320,
          "time": 41.6129275,
          "velocity": 0.7874015748031497
        },
        {
          "duration": 0.19354849999999857,
          "durationTicks": 48,
          "midi": 46,
          "name": "A#2",
          "ticks": 10368,
          "time": 41.806475999999996,
          "velocity": 0.7874015748031497
        },
        {
          "duration": 0.19354849999999857,
          "durationTicks": 48,
          "midi": 53,
          "name": "F3",
          "ticks": 10416,
          "time": 42.000024499999995,
          "velocity": 0.7874015748031497
        },
        {
          "duration": 0.19354850000000567,
          "durationTicks": 48,
          "midi": 46,
          "name": "A#2",
          "ticks": 10464,
          "time": 42.193572999999994,
          "velocity": 0.7874015748031497
        },
        {
          "duration": 0.19354849999999857,
          "durationTicks": 48,
          "midi": 53,
          "name": "F3",
          "ticks": 10512,
          "time": 42.3871215,
          "velocity": 0.7874015748031497
        },
        {
          "duration": 0.19354849999999857,
          "durationTicks": 48,
          "midi": 43,
          "name": "G2",
          "ticks": 10560,
          "time": 42.58067,
          "velocity": 0.7874015748031497
        },
        {
          "duration": 0.19354849999999857,
          "durationTicks": 48,
          "midi": 51,
          "name": "D#3",
          "ticks": 10608,
          "time": 42.774218499999996,
          "velocity": 0.7874015748031497
        },
        {
          "duration": 0.19354849999999857,
          "durationTicks": 48,
          "midi": 43,
          "name": "G2",
          "ticks": 10656,
          "time": 42.967766999999995,
          "velocity": 0.7874015748031497
        },
        {
          "duration": 0.19354850000000567,
          "durationTicks": 48,
          "midi": 51,
          "name": "D#3",
          "ticks": 10704,
          "time": 43.16131549999999,
          "velocity": 0.7874015748031497
        },
        {
          "duration": 0.19354849999999857,
          "durationTicks": 48,
          "midi": 42,
          "name": "F#2",
          "ticks": 10752,
          "time": 43.354864,
          "velocity": 0.7874015748031497
        },
        {
          "duration": 0.19354849999999857,
          "durationTicks": 48,
          "midi": 49,
          "name": "C#3",
          "ticks": 10800,
          "time": 43.5484125,
          "velocity": 0.7874015748031497
        },
        {
          "duration": 0.19354849999999857,
          "durationTicks": 48,
          "midi": 42,
          "name": "F#2",
          "ticks": 10848,
          "time": 43.741960999999996,
          "velocity": 0.7874015748031497
        },
        {
          "duration": 0.19354849999999857,
          "durationTicks": 48,
          "midi": 49,
          "name": "C#3",
          "ticks": 10896,
          "time": 43.935509499999995,
          "velocity": 0.7874015748031497
        },
        {
          "duration": 0.19354850000000567,
          "durationTicks": 48,
          "midi": 44,
          "name": "G#2",
          "ticks": 10944,
          "time": 44.12905799999999,
          "velocity": 0.7874015748031497
        },
        {
          "duration": 0.19354849999999857,
          "durationTicks": 48,
          "midi": 51,
          "name": "D#3",
          "ticks": 10992,
          "time": 44.3226065,
          "velocity": 0.7874015748031497
        },
        {
          "duration": 0.19354849999999857,
          "durationTicks": 48,
          "midi": 44,
          "name": "G#2",
          "ticks": 11040,
          "time": 44.516155,
          "velocity": 0.7874015748031497
        },
        {
          "duration": 0.19354849999999857,
          "durationTicks": 48,
          "midi": 51,
          "name": "D#3",
          "ticks": 11088,
          "time": 44.709703499999996,
          "velocity": 0.7874015748031497
        },
        {
          "duration": 0.19354849999999857,
          "durationTicks": 48,
          "midi": 46,
          "name": "A#2",
          "ticks": 11136,
          "time": 44.903251999999995,
          "velocity": 0.7874015748031497
        },
        {
          "duration": 0.19354850000000567,
          "durationTicks": 48,
          "midi": 53,
          "name": "F3",
          "ticks": 11184,
          "time": 45.09680049999999,
          "velocity": 0.7874015748031497
        },
        {
          "duration": 0.19354849999999857,
          "durationTicks": 48,
          "midi": 46,
          "name": "A#2",
          "ticks": 11232,
          "time": 45.290349,
          "velocity": 0.7874015748031497
        },
        {
          "duration": 0.19354849999999857,
          "durationTicks": 48,
          "midi": 53,
          "name": "F3",
          "ticks": 11280,
          "time": 45.4838975,
          "velocity": 0.7874015748031497
        },
        {
          "duration": 0.19354849999999857,
          "durationTicks": 48,
          "midi": 46,
          "name": "A#2",
          "ticks": 11328,
          "time": 45.677445999999996,
          "velocity": 0.7874015748031497
        },
        {
          "duration": 0.19354849999999857,
          "durationTicks": 48,
          "midi": 53,
          "name": "F3",
          "ticks": 11376,
          "time": 45.870994499999995,
          "velocity": 0.7874015748031497
        },
        {
          "duration": 0.19354850000000567,
          "durationTicks": 48,
          "midi": 44,
          "name": "G#2",
          "ticks": 11424,
          "time": 46.06454299999999,
          "velocity": 0.7874015748031497
        },
        {
          "duration": 0.19354849999999857,
          "durationTicks": 48,
          "midi": 51,
          "name": "D#3",
          "ticks": 11472,
          "time": 46.2580915,
          "velocity": 0.7874015748031497
        },
        {
          "duration": 0.19354849999999857,
          "durationTicks": 48,
          "midi": 42,
          "name": "F#2",
          "ticks": 11520,
          "time": 46.45164,
          "velocity": 0.7874015748031497
        },
        {
          "duration": 0.19354849999999857,
          "durationTicks": 48,
          "midi": 49,
          "name": "C#3",
          "ticks": 11568,
          "time": 46.645188499999996,
          "velocity": 0.7874015748031497
        },
        {
          "duration": 0.19354849999999857,
          "durationTicks": 48,
          "midi": 42,
          "name": "F#2",
          "ticks": 11616,
          "time": 46.838736999999995,
          "velocity": 0.7874015748031497
        },
        {
          "duration": 0.19354850000000567,
          "durationTicks": 48,
          "midi": 49,
          "name": "C#3",
          "ticks": 11664,
          "time": 47.03228549999999,
          "velocity": 0.7874015748031497
        },
        {
          "duration": 0.19354849999999857,
          "durationTicks": 48,
          "midi": 44,
          "name": "G#2",
          "ticks": 11712,
          "time": 47.225834,
          "velocity": 0.7874015748031497
        },
        {
          "duration": 0.19354849999999857,
          "durationTicks": 48,
          "midi": 51,
          "name": "D#3",
          "ticks": 11760,
          "time": 47.4193825,
          "velocity": 0.7874015748031497
        },
        {
          "duration": 0.19354849999999857,
          "durationTicks": 48,
          "midi": 44,
          "name": "G#2",
          "ticks": 11808,
          "time": 47.612930999999996,
          "velocity": 0.7874015748031497
        },
        {
          "duration": 0.19354849999999857,
          "durationTicks": 48,
          "midi": 51,
          "name": "D#3",
          "ticks": 11856,
          "time": 47.806479499999995,
          "velocity": 0.7874015748031497
        },
        {
          "duration": 0.19354850000000567,
          "durationTicks": 48,
          "midi": 46,
          "name": "A#2",
          "ticks": 11904,
          "time": 48.00002799999999,
          "velocity": 0.7874015748031497
        },
        {
          "duration": 0.19354849999999857,
          "durationTicks": 48,
          "midi": 53,
          "name": "F3",
          "ticks": 11952,
          "time": 48.1935765,
          "velocity": 0.7874015748031497
        },
        {
          "duration": 0.19354849999999857,
          "durationTicks": 48,
          "midi": 46,
          "name": "A#2",
          "ticks": 12000,
          "time": 48.387125,
          "velocity": 0.7874015748031497
        },
        {
          "duration": 0.19354849999999857,
          "durationTicks": 48,
          "midi": 53,
          "name": "F3",
          "ticks": 12048,
          "time": 48.580673499999996,
          "velocity": 0.7874015748031497
        },
        {
          "duration": 0.19354849999999857,
          "durationTicks": 48,
          "midi": 43,
          "name": "G2",
          "ticks": 12096,
          "time": 48.774221999999995,
          "velocity": 0.7874015748031497
        },
        {
          "duration": 0.19354850000000567,
          "durationTicks": 48,
          "midi": 51,
          "name": "D#3",
          "ticks": 12144,
          "time": 48.96777049999999,
          "velocity": 0.7874015748031497
        },
        {
          "duration": 0.19354849999999857,
          "durationTicks": 48,
          "midi": 43,
          "name": "G2",
          "ticks": 12192,
          "time": 49.161319,
          "velocity": 0.7874015748031497
        },
        {
          "duration": 0.19354849999999857,
          "durationTicks": 48,
          "midi": 51,
          "name": "D#3",
          "ticks": 12240,
          "time": 49.3548675,
          "velocity": 0.7874015748031497
        },
        {
          "duration": 0.19354849999999857,
          "durationTicks": 48,
          "midi": 42,
          "name": "F#2",
          "ticks": 12288,
          "time": 49.548415999999996,
          "velocity": 0.7874015748031497
        },
        {
          "duration": 0.19354849999999857,
          "durationTicks": 48,
          "midi": 49,
          "name": "C#3",
          "ticks": 12336,
          "time": 49.741964499999995,
          "velocity": 0.7874015748031497
        },
        {
          "duration": 0.19354850000000567,
          "durationTicks": 48,
          "midi": 42,
          "name": "F#2",
          "ticks": 12384,
          "time": 49.93551299999999,
          "velocity": 0.7874015748031497
        },
        {
          "duration": 0.19354849999999857,
          "durationTicks": 48,
          "midi": 49,
          "name": "C#3",
          "ticks": 12432,
          "time": 50.1290615,
          "velocity": 0.7874015748031497
        },
        {
          "duration": 0.19354849999999857,
          "durationTicks": 48,
          "midi": 44,
          "name": "G#2",
          "ticks": 12480,
          "time": 50.32261,
          "velocity": 0.7874015748031497
        },
        {
          "duration": 0.19354849999999857,
          "durationTicks": 48,
          "midi": 51,
          "name": "D#3",
          "ticks": 12528,
          "time": 50.516158499999996,
          "velocity": 0.7874015748031497
        },
        {
          "duration": 0.19354849999999857,
          "durationTicks": 48,
          "midi": 44,
          "name": "G#2",
          "ticks": 12576,
          "time": 50.709706999999995,
          "velocity": 0.7874015748031497
        },
        {
          "duration": 0.19354850000000567,
          "durationTicks": 48,
          "midi": 51,
          "name": "D#3",
          "ticks": 12624,
          "time": 50.90325549999999,
          "velocity": 0.7874015748031497
        },
        {
          "duration": 0.19354849999999857,
          "durationTicks": 48,
          "midi": 46,
          "name": "A#2",
          "ticks": 12672,
          "time": 51.096804,
          "velocity": 0.7874015748031497
        },
        {
          "duration": 0.19354849999999857,
          "durationTicks": 48,
          "midi": 53,
          "name": "F3",
          "ticks": 12720,
          "time": 51.2903525,
          "velocity": 0.7874015748031497
        },
        {
          "duration": 0.19354849999999857,
          "durationTicks": 48,
          "midi": 46,
          "name": "A#2",
          "ticks": 12768,
          "time": 51.483900999999996,
          "velocity": 0.7874015748031497
        },
        {
          "duration": 0.19354849999999857,
          "durationTicks": 48,
          "midi": 53,
          "name": "F3",
          "ticks": 12816,
          "time": 51.677449499999994,
          "velocity": 0.7874015748031497
        },
        {
          "duration": 0.19354850000000567,
          "durationTicks": 48,
          "midi": 46,
          "name": "A#2",
          "ticks": 12864,
          "time": 51.87099799999999,
          "velocity": 0.7874015748031497
        },
        {
          "duration": 0.19354849999999857,
          "durationTicks": 48,
          "midi": 53,
          "name": "F3",
          "ticks": 12912,
          "time": 52.0645465,
          "velocity": 0.7874015748031497
        },
        {
          "duration": 0.19354849999999857,
          "durationTicks": 48,
          "midi": 46,
          "name": "A#2",
          "ticks": 12960,
          "time": 52.258095,
          "velocity": 0.7874015748031497
        },
        {
          "duration": 0.19354849999999857,
          "durationTicks": 48,
          "midi": 53,
          "name": "F3",
          "ticks": 13008,
          "time": 52.451643499999996,
          "velocity": 0.7874015748031497
        },
        {
          "duration": 1.5483880000000028,
          "durationTicks": 384,
          "midi": 34,
          "name": "A#1",
          "ticks": 13056,
          "time": 52.645191999999994,
          "velocity": 0.7874015748031497
        },
        {
          "duration": 1.5483879999999957,
          "durationTicks": 384,
          "midi": 34,
          "name": "A#1",
          "ticks": 13440,
          "time": 54.19358,
          "velocity": 0.7874015748031497
        },
        {
          "duration": 1.5483880000000028,
          "durationTicks": 384,
          "midi": 38,
          "name": "D2",
          "ticks": 13824,
          "time": 55.74196799999999,
          "velocity": 0.7874015748031497
        },
        {
          "duration": 1.5483880000000028,
          "durationTicks": 384,
          "midi": 38,
          "name": "D2",
          "ticks": 14208,
          "time": 57.290355999999996,
          "velocity": 0.7874015748031497
        },
        {
          "duration": 0.19354849999999857,
          "durationTicks": 48,
          "midi": 34,
          "name": "A#1",
          "ticks": 14592,
          "time": 58.838744,
          "velocity": 0.7874015748031497
        },
        {
          "duration": 0.19354849999999857,
          "durationTicks": 48,
          "midi": 41,
          "name": "F2",
          "ticks": 14640,
          "time": 59.0322925,
          "velocity": 0.7874015748031497
        },
        {
          "duration": 0.19354849999999857,
          "durationTicks": 48,
          "midi": 34,
          "name": "A#1",
          "ticks": 14688,
          "time": 59.225840999999996,
          "velocity": 0.7874015748031497
        },
        {
          "duration": 0.19354849999999857,
          "durationTicks": 48,
          "midi": 41,
          "name": "F2",
          "ticks": 14736,
          "time": 59.419389499999994,
          "velocity": 0.7874015748031497
        },
        {
          "duration": 0.19354850000000567,
          "durationTicks": 48,
          "midi": 36,
          "name": "C2",
          "ticks": 14784,
          "time": 59.61293799999999,
          "velocity": 0.7874015748031497
        },
        {
          "duration": 0.19354849999999857,
          "durationTicks": 48,
          "midi": 43,
          "name": "G2",
          "ticks": 14832,
          "time": 59.8064865,
          "velocity": 0.7874015748031497
        },
        {
          "duration": 0.19354849999999857,
          "durationTicks": 48,
          "midi": 36,
          "name": "C2",
          "ticks": 14880,
          "time": 60.000035,
          "velocity": 0.7874015748031497
        },
        {
          "duration": 0.19354849999999857,
          "durationTicks": 48,
          "midi": 43,
          "name": "G2",
          "ticks": 14928,
          "time": 60.193583499999995,
          "velocity": 0.7874015748031497
        },
        {
          "duration": 0.19354849999999857,
          "durationTicks": 48,
          "midi": 38,
          "name": "D2",
          "ticks": 14976,
          "time": 60.387131999999994,
          "velocity": 0.7874015748031497
        },
        {
          "duration": 0.19354850000000567,
          "durationTicks": 48,
          "midi": 45,
          "name": "A2",
          "ticks": 15024,
          "time": 60.58068049999999,
          "velocity": 0.7874015748031497
        },
        {
          "duration": 0.19354849999999857,
          "durationTicks": 48,
          "midi": 38,
          "name": "D2",
          "ticks": 15072,
          "time": 60.774229,
          "velocity": 0.7874015748031497
        },
        {
          "duration": 0.19354849999999857,
          "durationTicks": 48,
          "midi": 45,
          "name": "A2",
          "ticks": 15120,
          "time": 60.9677775,
          "velocity": 0.7874015748031497
        },
        {
          "duration": 0.19354849999999857,
          "durationTicks": 48,
          "midi": 38,
          "name": "D2",
          "ticks": 15168,
          "time": 61.161325999999995,
          "velocity": 0.7874015748031497
        },
        {
          "duration": 0.19354849999999857,
          "durationTicks": 48,
          "midi": 45,
          "name": "A2",
          "ticks": 15216,
          "time": 61.354874499999994,
          "velocity": 0.7874015748031497
        },
        {
          "duration": 0.19354850000000567,
          "durationTicks": 48,
          "midi": 36,
          "name": "C2",
          "ticks": 15264,
          "time": 61.54842299999999,
          "velocity": 0.7874015748031497
        },
        {
          "duration": 0.19354849999999857,
          "durationTicks": 48,
          "midi": 43,
          "name": "G2",
          "ticks": 15312,
          "time": 61.7419715,
          "velocity": 0.7874015748031497
        },
        {
          "duration": 0.19354849999999857,
          "durationTicks": 48,
          "midi": 34,
          "name": "A#1",
          "ticks": 15360,
          "time": 61.93552,
          "velocity": 0.7874015748031497
        },
        {
          "duration": 0.19354849999999857,
          "durationTicks": 48,
          "midi": 41,
          "name": "F2",
          "ticks": 15408,
          "time": 62.129068499999995,
          "velocity": 0.7874015748031497
        },
        {
          "duration": 0.19354849999999857,
          "durationTicks": 48,
          "midi": 34,
          "name": "A#1",
          "ticks": 15456,
          "time": 62.322616999999994,
          "velocity": 0.7874015748031497
        },
        {
          "duration": 0.19354850000000567,
          "durationTicks": 48,
          "midi": 41,
          "name": "F2",
          "ticks": 15504,
          "time": 62.51616549999999,
          "velocity": 0.7874015748031497
        },
        {
          "duration": 0.19354849999999857,
          "durationTicks": 48,
          "midi": 36,
          "name": "C2",
          "ticks": 15552,
          "time": 62.709714,
          "velocity": 0.7874015748031497
        },
        {
          "duration": 0.19354849999999857,
          "durationTicks": 48,
          "midi": 43,
          "name": "G2",
          "ticks": 15600,
          "time": 62.9032625,
          "velocity": 0.7874015748031497
        },
        {
          "duration": 0.19354849999999857,
          "durationTicks": 48,
          "midi": 36,
          "name": "C2",
          "ticks": 15648,
          "time": 63.096810999999995,
          "velocity": 0.7874015748031497
        },
        {
          "duration": 0.19354849999999857,
          "durationTicks": 48,
          "midi": 43,
          "name": "G2",
          "ticks": 15696,
          "time": 63.290359499999994,
          "velocity": 0.7874015748031497
        },
        {
          "duration": 0.19354850000000567,
          "durationTicks": 48,
          "midi": 37,
          "name": "C#2",
          "ticks": 15744,
          "time": 63.48390799999999,
          "velocity": 0.7874015748031497
        },
        {
          "duration": 0.19354849999999857,
          "durationTicks": 48,
          "midi": 43,
          "name": "G2",
          "ticks": 15792,
          "time": 63.6774565,
          "velocity": 0.7874015748031497
        },
        {
          "duration": 0.19354849999999146,
          "durationTicks": 48,
          "midi": 37,
          "name": "C#2",
          "ticks": 15840,
          "time": 63.871005,
          "velocity": 0.7874015748031497
        },
        {
          "duration": 0.19354850000000567,
          "durationTicks": 48,
          "midi": 43,
          "name": "G2",
          "ticks": 15888,
          "time": 64.06455349999999,
          "velocity": 0.7874015748031497
        },
        {
          "duration": 0.19354850000000567,
          "durationTicks": 48,
          "midi": 38,
          "name": "D2",
          "ticks": 15936,
          "time": 64.258102,
          "velocity": 0.7874015748031497
        },
        {
          "duration": 0.19354849999999146,
          "durationTicks": 48,
          "midi": 45,
          "name": "A2",
          "ticks": 15984,
          "time": 64.4516505,
          "velocity": 0.7874015748031497
        },
        {
          "duration": 0.19354850000000567,
          "durationTicks": 48,
          "midi": 38,
          "name": "D2",
          "ticks": 16032,
          "time": 64.64519899999999,
          "velocity": 0.7874015748031497
        },
        {
          "duration": 0.19354849999999146,
          "durationTicks": 48,
          "midi": 45,
          "name": "A2",
          "ticks": 16080,
          "time": 64.8387475,
          "velocity": 0.7874015748031497
        },
        {
          "duration": 0.19354850000000567,
          "durationTicks": 48,
          "midi": 34,
          "name": "A#1",
          "ticks": 16128,
          "time": 65.03229599999999,
          "velocity": 0.7874015748031497
        },
        {
          "duration": 0.19354850000000567,
          "durationTicks": 48,
          "midi": 41,
          "name": "F2",
          "ticks": 16176,
          "time": 65.2258445,
          "velocity": 0.7874015748031497
        },
        {
          "duration": 0.19354849999999146,
          "durationTicks": 48,
          "midi": 34,
          "name": "A#1",
          "ticks": 16224,
          "time": 65.419393,
          "velocity": 0.7874015748031497
        },
        {
          "duration": 0.19354850000000567,
          "durationTicks": 48,
          "midi": 41,
          "name": "F2",
          "ticks": 16272,
          "time": 65.61294149999999,
          "velocity": 0.7874015748031497
        },
        {
          "duration": 0.19354849999999146,
          "durationTicks": 48,
          "midi": 36,
          "name": "C2",
          "ticks": 16320,
          "time": 65.80649,
          "velocity": 0.7874015748031497
        },
        {
          "duration": 0.19354850000000567,
          "durationTicks": 48,
          "midi": 43,
          "name": "G2",
          "ticks": 16368,
          "time": 66.00003849999999,
          "velocity": 0.7874015748031497
        },
        {
          "duration": 0.19354850000000567,
          "durationTicks": 48,
          "midi": 36,
          "name": "C2",
          "ticks": 16416,
          "time": 66.193587,
          "velocity": 0.7874015748031497
        },
        {
          "duration": 0.19354849999999146,
          "durationTicks": 48,
          "midi": 43,
          "name": "G2",
          "ticks": 16464,
          "time": 66.3871355,
          "velocity": 0.7874015748031497
        },
        {
          "duration": 0.19354850000000567,
          "durationTicks": 48,
          "midi": 38,
          "name": "D2",
          "ticks": 16512,
          "time": 66.58068399999999,
          "velocity": 0.7874015748031497
        },
        {
          "duration": 0.19354849999999146,
          "durationTicks": 48,
          "midi": 45,
          "name": "A2",
          "ticks": 16560,
          "time": 66.7742325,
          "velocity": 0.7874015748031497
        },
        {
          "duration": 0.19354850000000567,
          "durationTicks": 48,
          "midi": 38,
          "name": "D2",
          "ticks": 16608,
          "time": 66.96778099999999,
          "velocity": 0.7874015748031497
        },
        {
          "duration": 0.19354850000000567,
          "durationTicks": 48,
          "midi": 45,
          "name": "A2",
          "ticks": 16656,
          "time": 67.1613295,
          "velocity": 0.7874015748031497
        },
        {
          "duration": 0.19354849999999146,
          "durationTicks": 48,
          "midi": 38,
          "name": "D2",
          "ticks": 16704,
          "time": 67.354878,
          "velocity": 0.7874015748031497
        },
        {
          "duration": 0.19354850000000567,
          "durationTicks": 48,
          "midi": 45,
          "name": "A2",
          "ticks": 16752,
          "time": 67.54842649999999,
          "velocity": 0.7874015748031497
        },
        {
          "duration": 0.19354849999999146,
          "durationTicks": 48,
          "midi": 36,
          "name": "C2",
          "ticks": 16800,
          "time": 67.741975,
          "velocity": 0.7874015748031497
        },
        {
          "duration": 0.19354850000000567,
          "durationTicks": 48,
          "midi": 43,
          "name": "G2",
          "ticks": 16848,
          "time": 67.93552349999999,
          "velocity": 0.7874015748031497
        },
        {
          "duration": 0.19354850000000567,
          "durationTicks": 48,
          "midi": 34,
          "name": "A#1",
          "ticks": 16896,
          "time": 68.129072,
          "velocity": 0.7874015748031497
        },
        {
          "duration": 0.19354849999999146,
          "durationTicks": 48,
          "midi": 41,
          "name": "F2",
          "ticks": 16944,
          "time": 68.3226205,
          "velocity": 0.7874015748031497
        },
        {
          "duration": 0.19354850000000567,
          "durationTicks": 48,
          "midi": 34,
          "name": "A#1",
          "ticks": 16992,
          "time": 68.51616899999999,
          "velocity": 0.7874015748031497
        },
        {
          "duration": 0.19354849999999146,
          "durationTicks": 48,
          "midi": 41,
          "name": "F2",
          "ticks": 17040,
          "time": 68.7097175,
          "velocity": 0.7874015748031497
        },
        {
          "duration": 0.19354850000000567,
          "durationTicks": 48,
          "midi": 36,
          "name": "C2",
          "ticks": 17088,
          "time": 68.90326599999999,
          "velocity": 0.7874015748031497
        },
        {
          "duration": 0.19354850000000567,
          "durationTicks": 48,
          "midi": 43,
          "name": "G2",
          "ticks": 17136,
          "time": 69.0968145,
          "velocity": 0.7874015748031497
        },
        {
          "duration": 0.19354849999999146,
          "durationTicks": 48,
          "midi": 36,
          "name": "C2",
          "ticks": 17184,
          "time": 69.290363,
          "velocity": 0.7874015748031497
        },
        {
          "duration": 0.19354850000000567,
          "durationTicks": 48,
          "midi": 43,
          "name": "G2",
          "ticks": 17232,
          "time": 69.48391149999999,
          "velocity": 0.7874015748031497
        },
        {
          "duration": 0.19354849999999146,
          "durationTicks": 48,
          "midi": 37,
          "name": "C#2",
          "ticks": 17280,
          "time": 69.67746,
          "velocity": 0.7874015748031497
        },
        {
          "duration": 0.19354850000000567,
          "durationTicks": 48,
          "midi": 43,
          "name": "G2",
          "ticks": 17328,
          "time": 69.87100849999999,
          "velocity": 0.7874015748031497
        },
        {
          "duration": 0.19354850000000567,
          "durationTicks": 48,
          "midi": 37,
          "name": "C#2",
          "ticks": 17376,
          "time": 70.064557,
          "velocity": 0.7874015748031497
        },
        {
          "duration": 0.19354849999999146,
          "durationTicks": 48,
          "midi": 43,
          "name": "G2",
          "ticks": 17424,
          "time": 70.2581055,
          "velocity": 0.7874015748031497
        },
        {
          "duration": 0.19354850000000567,
          "durationTicks": 48,
          "midi": 38,
          "name": "D2",
          "ticks": 17472,
          "time": 70.45165399999999,
          "velocity": 0.7874015748031497
        },
        {
          "duration": 0.19354850000000567,
          "durationTicks": 48,
          "midi": 38,
          "name": "D2",
          "ticks": 17472,
          "time": 70.45165399999999,
          "velocity": 0.7874015748031497
        },
        {
          "duration": 0.19354850000000567,
          "durationTicks": 48,
          "midi": 38,
          "name": "D2",
          "ticks": 17544,
          "time": 70.74197674999999,
          "velocity": 0.7874015748031497
        },
        {
          "duration": 0.19354850000000567,
          "durationTicks": 48,
          "midi": 38,
          "name": "D2",
          "ticks": 17616,
          "time": 71.0322995,
          "velocity": 0.7874015748031497
        },
        {
          "duration": 0.19354849999999146,
          "durationTicks": 48,
          "midi": 34,
          "name": "A#1",
          "ticks": 17664,
          "time": 71.225848,
          "velocity": 0.7874015748031497
        },
        {
          "duration": 0.19354850000000567,
          "durationTicks": 48,
          "midi": 41,
          "name": "F2",
          "ticks": 17712,
          "time": 71.41939649999999,
          "velocity": 0.7874015748031497
        },
        {
          "duration": 0.19354849999999146,
          "durationTicks": 48,
          "midi": 34,
          "name": "A#1",
          "ticks": 17760,
          "time": 71.612945,
          "velocity": 0.7874015748031497
        },
        {
          "duration": 0.19354850000000567,
          "durationTicks": 48,
          "midi": 41,
          "name": "F2",
          "ticks": 17808,
          "time": 71.80649349999999,
          "velocity": 0.7874015748031497
        },
        {
          "duration": 0.19354850000000567,
          "durationTicks": 48,
          "midi": 33,
          "name": "A1",
          "ticks": 17856,
          "time": 72.000042,
          "velocity": 0.7874015748031497
        },
        {
          "duration": 0.19354849999999146,
          "durationTicks": 48,
          "midi": 40,
          "name": "E2",
          "ticks": 17904,
          "time": 72.1935905,
          "velocity": 0.7874015748031497
        },
        {
          "duration": 0.19354850000000567,
          "durationTicks": 48,
          "midi": 33,
          "name": "A1",
          "ticks": 17952,
          "time": 72.38713899999999,
          "velocity": 0.7874015748031497
        },
        {
          "duration": 0.19354849999999146,
          "durationTicks": 48,
          "midi": 40,
          "name": "E2",
          "ticks": 18000,
          "time": 72.5806875,
          "velocity": 0.7874015748031497
        },
        {
          "duration": 0.19354850000000567,
          "durationTicks": 48,
          "midi": 36,
          "name": "C2",
          "ticks": 18048,
          "time": 72.77423599999999,
          "velocity": 0.7874015748031497
        },
        {
          "duration": 0.19354850000000567,
          "durationTicks": 48,
          "midi": 43,
          "name": "G2",
          "ticks": 18096,
          "time": 72.9677845,
          "velocity": 0.7874015748031497
        },
        {
          "duration": 0.19354849999999146,
          "durationTicks": 48,
          "midi": 36,
          "name": "C2",
          "ticks": 18144,
          "time": 73.161333,
          "velocity": 0.7874015748031497
        },
        {
          "duration": 0.19354850000000567,
          "durationTicks": 48,
          "midi": 43,
          "name": "G2",
          "ticks": 18192,
          "time": 73.35488149999999,
          "velocity": 0.7874015748031497
        },
        {
          "duration": 0.19354849999999146,
          "durationTicks": 48,
          "midi": 35,
          "name": "B1",
          "ticks": 18240,
          "time": 73.54843,
          "velocity": 0.7874015748031497
        },
        {
          "duration": 0.19354850000000567,
          "durationTicks": 48,
          "midi": 42,
          "name": "F#2",
          "ticks": 18288,
          "time": 73.74197849999999,
          "velocity": 0.7874015748031497
        },
        {
          "duration": 0.19354850000000567,
          "durationTicks": 48,
          "midi": 35,
          "name": "B1",
          "ticks": 18336,
          "time": 73.935527,
          "velocity": 0.7874015748031497
        },
        {
          "duration": 0.19354849999999146,
          "durationTicks": 48,
          "midi": 42,
          "name": "F#2",
          "ticks": 18384,
          "time": 74.1290755,
          "velocity": 0.7874015748031497
        },
        {
          "duration": 0.19354850000000567,
          "durationTicks": 48,
          "midi": 34,
          "name": "A#1",
          "ticks": 18432,
          "time": 74.32262399999999,
          "velocity": 0.7874015748031497
        },
        {
          "duration": 0.19354849999999146,
          "durationTicks": 48,
          "midi": 41,
          "name": "F2",
          "ticks": 18480,
          "time": 74.5161725,
          "velocity": 0.7874015748031497
        },
        {
          "duration": 0.19354850000000567,
          "durationTicks": 48,
          "midi": 34,
          "name": "A#1",
          "ticks": 18528,
          "time": 74.70972099999999,
          "velocity": 0.7874015748031497
        },
        {
          "duration": 0.19354850000000567,
          "durationTicks": 48,
          "midi": 41,
          "name": "F2",
          "ticks": 18576,
          "time": 74.9032695,
          "velocity": 0.7874015748031497
        },
        {
          "duration": 0.19354849999999146,
          "durationTicks": 48,
          "midi": 33,
          "name": "A1",
          "ticks": 18624,
          "time": 75.096818,
          "velocity": 0.7874015748031497
        },
        {
          "duration": 0.19354850000000567,
          "durationTicks": 48,
          "midi": 40,
          "name": "E2",
          "ticks": 18672,
          "time": 75.29036649999999,
          "velocity": 0.7874015748031497
        },
        {
          "duration": 0.19354849999999146,
          "durationTicks": 48,
          "midi": 33,
          "name": "A1",
          "ticks": 18720,
          "time": 75.483915,
          "velocity": 0.7874015748031497
        },
        {
          "duration": 0.19354850000000567,
          "durationTicks": 48,
          "midi": 40,
          "name": "E2",
          "ticks": 18768,
          "time": 75.67746349999999,
          "velocity": 0.7874015748031497
        },
        {
          "duration": 0.19354850000000567,
          "durationTicks": 48,
          "midi": 36,
          "name": "C2",
          "ticks": 18816,
          "time": 75.871012,
          "velocity": 0.7874015748031497
        },
        {
          "duration": 0.19354849999999146,
          "durationTicks": 48,
          "midi": 43,
          "name": "G2",
          "ticks": 18864,
          "time": 76.0645605,
          "velocity": 0.7874015748031497
        },
        {
          "duration": 0.19354850000000567,
          "durationTicks": 48,
          "midi": 36,
          "name": "C2",
          "ticks": 18912,
          "time": 76.25810899999999,
          "velocity": 0.7874015748031497
        },
        {
          "duration": 0.19354849999999146,
          "durationTicks": 48,
          "midi": 43,
          "name": "G2",
          "ticks": 18960,
          "time": 76.4516575,
          "velocity": 0.7874015748031497
        },
        {
          "duration": 0.19354850000000567,
          "durationTicks": 48,
          "midi": 35,
          "name": "B1",
          "ticks": 19008,
          "time": 76.64520599999999,
          "velocity": 0.7874015748031497
        },
        {
          "duration": 0.19354850000000567,
          "durationTicks": 48,
          "midi": 42,
          "name": "F#2",
          "ticks": 19056,
          "time": 76.8387545,
          "velocity": 0.7874015748031497
        },
        {
          "duration": 0.19354849999999146,
          "durationTicks": 48,
          "midi": 35,
          "name": "B1",
          "ticks": 19104,
          "time": 77.032303,
          "velocity": 0.7874015748031497
        },
        {
          "duration": 0.19354850000000567,
          "durationTicks": 48,
          "midi": 42,
          "name": "F#2",
          "ticks": 19152,
          "time": 77.22585149999999,
          "velocity": 0.7874015748031497
        },
        {
          "duration": 0.19354849999999146,
          "durationTicks": 48,
          "midi": 34,
          "name": "A#1",
          "ticks": 19200,
          "time": 77.4194,
          "velocity": 0.7874015748031497
        },
        {
          "duration": 0.19354850000000567,
          "durationTicks": 48,
          "midi": 41,
          "name": "F2",
          "ticks": 19248,
          "time": 77.61294849999999,
          "velocity": 0.7874015748031497
        },
        {
          "duration": 0.19354850000000567,
          "durationTicks": 48,
          "midi": 34,
          "name": "A#1",
          "ticks": 19296,
          "time": 77.806497,
          "velocity": 0.7874015748031497
        },
        {
          "duration": 0.19354849999999146,
          "durationTicks": 48,
          "midi": 41,
          "name": "F2",
          "ticks": 19344,
          "time": 78.0000455,
          "velocity": 0.7874015748031497
        },
        {
          "duration": 0.19354850000000567,
          "durationTicks": 48,
          "midi": 33,
          "name": "A1",
          "ticks": 19392,
          "time": 78.19359399999999,
          "velocity": 0.7874015748031497
        },
        {
          "duration": 0.19354849999999146,
          "durationTicks": 48,
          "midi": 40,
          "name": "E2",
          "ticks": 19440,
          "time": 78.3871425,
          "velocity": 0.7874015748031497
        },
        {
          "duration": 0.19354850000000567,
          "durationTicks": 48,
          "midi": 33,
          "name": "A1",
          "ticks": 19488,
          "time": 78.58069099999999,
          "velocity": 0.7874015748031497
        },
        {
          "duration": 0.19354850000000567,
          "durationTicks": 48,
          "midi": 40,
          "name": "E2",
          "ticks": 19536,
          "time": 78.7742395,
          "velocity": 0.7874015748031497
        },
        {
          "duration": 0.19354849999999146,
          "durationTicks": 48,
          "midi": 36,
          "name": "C2",
          "ticks": 19584,
          "time": 78.967788,
          "velocity": 0.7874015748031497
        },
        {
          "duration": 0.19354850000000567,
          "durationTicks": 48,
          "midi": 43,
          "name": "G2",
          "ticks": 19632,
          "time": 79.16133649999999,
          "velocity": 0.7874015748031497
        },
        {
          "duration": 0.19354849999999146,
          "durationTicks": 48,
          "midi": 36,
          "name": "C2",
          "ticks": 19680,
          "time": 79.354885,
          "velocity": 0.7874015748031497
        },
        {
          "duration": 0.19354850000000567,
          "durationTicks": 48,
          "midi": 43,
          "name": "G2",
          "ticks": 19728,
          "time": 79.54843349999999,
          "velocity": 0.7874015748031497
        },
        {
          "duration": 0.19354850000000567,
          "durationTicks": 48,
          "midi": 35,
          "name": "B1",
          "ticks": 19776,
          "time": 79.741982,
          "velocity": 0.7874015748031497
        },
        {
          "duration": 0.19354849999999146,
          "durationTicks": 48,
          "midi": 42,
          "name": "F#2",
          "ticks": 19824,
          "time": 79.9355305,
          "velocity": 0.7874015748031497
        },
        {
          "duration": 0.19354850000000567,
          "durationTicks": 48,
          "midi": 35,
          "name": "B1",
          "ticks": 19872,
          "time": 80.12907899999999,
          "velocity": 0.7874015748031497
        },
        {
          "duration": 0.19354849999999146,
          "durationTicks": 48,
          "midi": 42,
          "name": "F#2",
          "ticks": 19920,
          "time": 80.3226275,
          "velocity": 0.7874015748031497
        },
        {
          "duration": 0.19354850000000567,
          "durationTicks": 48,
          "midi": 34,
          "name": "A#1",
          "ticks": 19968,
          "time": 80.51617599999999,
          "velocity": 0.7874015748031497
        },
        {
          "duration": 0.19354850000000567,
          "durationTicks": 48,
          "midi": 41,
          "name": "F2",
          "ticks": 20016,
          "time": 80.7097245,
          "velocity": 0.7874015748031497
        },
        {
          "duration": 0.19354849999999146,
          "durationTicks": 48,
          "midi": 34,
          "name": "A#1",
          "ticks": 20064,
          "time": 80.903273,
          "velocity": 0.7874015748031497
        },
        {
          "duration": 0.19354850000000567,
          "durationTicks": 48,
          "midi": 41,
          "name": "F2",
          "ticks": 20112,
          "time": 81.09682149999999,
          "velocity": 0.7874015748031497
        },
        {
          "duration": 0.19354849999999146,
          "durationTicks": 48,
          "midi": 33,
          "name": "A1",
          "ticks": 20160,
          "time": 81.29037,
          "velocity": 0.7874015748031497
        },
        {
          "duration": 0.19354850000000567,
          "durationTicks": 48,
          "midi": 40,
          "name": "E2",
          "ticks": 20208,
          "time": 81.48391849999999,
          "velocity": 0.7874015748031497
        },
        {
          "duration": 0.19354850000000567,
          "durationTicks": 48,
          "midi": 33,
          "name": "A1",
          "ticks": 20256,
          "time": 81.677467,
          "velocity": 0.7874015748031497
        },
        {
          "duration": 0.19354849999999146,
          "durationTicks": 48,
          "midi": 40,
          "name": "E2",
          "ticks": 20304,
          "time": 81.8710155,
          "velocity": 0.7874015748031497
        },
        {
          "duration": 0.19354850000000567,
          "durationTicks": 48,
          "midi": 36,
          "name": "C2",
          "ticks": 20352,
          "time": 82.06456399999999,
          "velocity": 0.7874015748031497
        },
        {
          "duration": 0.19354849999999146,
          "durationTicks": 48,
          "midi": 43,
          "name": "G2",
          "ticks": 20400,
          "time": 82.2581125,
          "velocity": 0.7874015748031497
        },
        {
          "duration": 0.19354850000000567,
          "durationTicks": 48,
          "midi": 36,
          "name": "C2",
          "ticks": 20448,
          "time": 82.45166099999999,
          "velocity": 0.7874015748031497
        },
        {
          "duration": 0.19354850000000567,
          "durationTicks": 48,
          "midi": 43,
          "name": "G2",
          "ticks": 20496,
          "time": 82.64520949999999,
          "velocity": 0.7874015748031497
        },
        {
          "duration": 0.19354849999999146,
          "durationTicks": 48,
          "midi": 35,
          "name": "B1",
          "ticks": 20544,
          "time": 82.838758,
          "velocity": 0.7874015748031497
        },
        {
          "duration": 0.19354850000000567,
          "durationTicks": 48,
          "midi": 42,
          "name": "F#2",
          "ticks": 20592,
          "time": 83.03230649999999,
          "velocity": 0.7874015748031497
        },
        {
          "duration": 0.19354849999999146,
          "durationTicks": 48,
          "midi": 35,
          "name": "B1",
          "ticks": 20640,
          "time": 83.225855,
          "velocity": 0.7874015748031497
        },
        {
          "duration": 0.19354850000000567,
          "durationTicks": 48,
          "midi": 42,
          "name": "F#2",
          "ticks": 20688,
          "time": 83.41940349999999,
          "velocity": 0.7874015748031497
        },
        {
          "duration": 0.19354850000000567,
          "durationTicks": 48,
          "midi": 34,
          "name": "A#1",
          "ticks": 20736,
          "time": 83.61295199999999,
          "velocity": 0.7874015748031497
        },
        {
          "duration": 0.19354849999999146,
          "durationTicks": 48,
          "midi": 41,
          "name": "F2",
          "ticks": 20784,
          "time": 83.8065005,
          "velocity": 0.7874015748031497
        },
        {
          "duration": 0.19354850000000567,
          "durationTicks": 48,
          "midi": 34,
          "name": "A#1",
          "ticks": 20832,
          "time": 84.00004899999999,
          "velocity": 0.7874015748031497
        },
        {
          "duration": 0.19354849999999146,
          "durationTicks": 48,
          "midi": 41,
          "name": "F2",
          "ticks": 20880,
          "time": 84.1935975,
          "velocity": 0.7874015748031497
        },
        {
          "duration": 0.19354850000000567,
          "durationTicks": 48,
          "midi": 33,
          "name": "A1",
          "ticks": 20928,
          "time": 84.38714599999999,
          "velocity": 0.7874015748031497
        },
        {
          "duration": 0.19354850000000567,
          "durationTicks": 48,
          "midi": 40,
          "name": "E2",
          "ticks": 20976,
          "time": 84.58069449999999,
          "velocity": 0.7874015748031497
        },
        {
          "duration": 0.19354849999999146,
          "durationTicks": 48,
          "midi": 33,
          "name": "A1",
          "ticks": 21024,
          "time": 84.774243,
          "velocity": 0.7874015748031497
        },
        {
          "duration": 0.19354850000000567,
          "durationTicks": 48,
          "midi": 40,
          "name": "E2",
          "ticks": 21072,
          "time": 84.96779149999999,
          "velocity": 0.7874015748031497
        },
        {
          "duration": 0.19354849999999146,
          "durationTicks": 48,
          "midi": 36,
          "name": "C2",
          "ticks": 21120,
          "time": 85.16134,
          "velocity": 0.7874015748031497
        },
        {
          "duration": 0.19354850000000567,
          "durationTicks": 48,
          "midi": 43,
          "name": "G2",
          "ticks": 21168,
          "time": 85.35488849999999,
          "velocity": 0.7874015748031497
        },
        {
          "duration": 0.19354850000000567,
          "durationTicks": 48,
          "midi": 36,
          "name": "C2",
          "ticks": 21216,
          "time": 85.54843699999999,
          "velocity": 0.7874015748031497
        },
        {
          "duration": 0.19354849999999146,
          "durationTicks": 48,
          "midi": 43,
          "name": "G2",
          "ticks": 21264,
          "time": 85.7419855,
          "velocity": 0.7874015748031497
        },
        {
          "duration": 0.19354850000000567,
          "durationTicks": 48,
          "midi": 35,
          "name": "B1",
          "ticks": 21312,
          "time": 85.93553399999999,
          "velocity": 0.7874015748031497
        },
        {
          "duration": 0.19354849999999146,
          "durationTicks": 48,
          "midi": 42,
          "name": "F#2",
          "ticks": 21360,
          "time": 86.1290825,
          "velocity": 0.7874015748031497
        },
        {
          "duration": 0.19354850000000567,
          "durationTicks": 48,
          "midi": 35,
          "name": "B1",
          "ticks": 21408,
          "time": 86.32263099999999,
          "velocity": 0.7874015748031497
        },
        {
          "duration": 0.19354850000000567,
          "durationTicks": 48,
          "midi": 42,
          "name": "F#2",
          "ticks": 21456,
          "time": 86.51617949999999,
          "velocity": 0.7874015748031497
        },
        {
          "duration": 0.19354849999999146,
          "durationTicks": 48,
          "midi": 34,
          "name": "A#1",
          "ticks": 21504,
          "time": 86.709728,
          "velocity": 0.7874015748031497
        },
        {
          "duration": 0.19354850000000567,
          "durationTicks": 48,
          "midi": 41,
          "name": "F2",
          "ticks": 21552,
          "time": 86.90327649999999,
          "velocity": 0.7874015748031497
        },
        {
          "duration": 0.19354849999999146,
          "durationTicks": 48,
          "midi": 34,
          "name": "A#1",
          "ticks": 21600,
          "time": 87.096825,
          "velocity": 0.7874015748031497
        },
        {
          "duration": 0.19354850000000567,
          "durationTicks": 48,
          "midi": 41,
          "name": "F2",
          "ticks": 21648,
          "time": 87.29037349999999,
          "velocity": 0.7874015748031497
        },
        {
          "duration": 0.19354850000000567,
          "durationTicks": 48,
          "midi": 33,
          "name": "A1",
          "ticks": 21696,
          "time": 87.48392199999999,
          "velocity": 0.7874015748031497
        },
        {
          "duration": 0.19354849999999146,
          "durationTicks": 48,
          "midi": 40,
          "name": "E2",
          "ticks": 21744,
          "time": 87.6774705,
          "velocity": 0.7874015748031497
        },
        {
          "duration": 0.19354850000000567,
          "durationTicks": 48,
          "midi": 33,
          "name": "A1",
          "ticks": 21792,
          "time": 87.87101899999999,
          "velocity": 0.7874015748031497
        },
        {
          "duration": 0.19354849999999146,
          "durationTicks": 48,
          "midi": 40,
          "name": "E2",
          "ticks": 21840,
          "time": 88.0645675,
          "velocity": 0.7874015748031497
        },
        {
          "duration": 0.19354850000000567,
          "durationTicks": 48,
          "midi": 36,
          "name": "C2",
          "ticks": 21888,
          "time": 88.25811599999999,
          "velocity": 0.7874015748031497
        },
        {
          "duration": 0.19354850000000567,
          "durationTicks": 48,
          "midi": 43,
          "name": "G2",
          "ticks": 21936,
          "time": 88.45166449999999,
          "velocity": 0.7874015748031497
        },
        {
          "duration": 0.19354849999999146,
          "durationTicks": 48,
          "midi": 36,
          "name": "C2",
          "ticks": 21984,
          "time": 88.645213,
          "velocity": 0.7874015748031497
        },
        {
          "duration": 0.19354850000000567,
          "durationTicks": 48,
          "midi": 43,
          "name": "G2",
          "ticks": 22032,
          "time": 88.83876149999999,
          "velocity": 0.7874015748031497
        },
        {
          "duration": 0.19354849999999146,
          "durationTicks": 48,
          "midi": 35,
          "name": "B1",
          "ticks": 22080,
          "time": 89.03231,
          "velocity": 0.7874015748031497
        },
        {
          "duration": 0.19354850000000567,
          "durationTicks": 48,
          "midi": 42,
          "name": "F#2",
          "ticks": 22128,
          "time": 89.22585849999999,
          "velocity": 0.7874015748031497
        },
        {
          "duration": 0.19354850000000567,
          "durationTicks": 48,
          "midi": 35,
          "name": "B1",
          "ticks": 22176,
          "time": 89.41940699999999,
          "velocity": 0.7874015748031497
        },
        {
          "duration": 0.19354849999999146,
          "durationTicks": 48,
          "midi": 42,
          "name": "F#2",
          "ticks": 22224,
          "time": 89.6129555,
          "velocity": 0.7874015748031497
        },
        {
          "duration": 0.19354850000000567,
          "durationTicks": 48,
          "midi": 34,
          "name": "A#1",
          "ticks": 22272,
          "time": 89.80650399999999,
          "velocity": 0.7874015748031497
        },
        {
          "duration": 0.19354849999999146,
          "durationTicks": 48,
          "midi": 41,
          "name": "F2",
          "ticks": 22320,
          "time": 90.0000525,
          "velocity": 0.7874015748031497
        },
        {
          "duration": 0.19354850000000567,
          "durationTicks": 48,
          "midi": 34,
          "name": "A#1",
          "ticks": 22368,
          "time": 90.19360099999999,
          "velocity": 0.7874015748031497
        },
        {
          "duration": 0.19354850000000567,
          "durationTicks": 48,
          "midi": 41,
          "name": "F2",
          "ticks": 22416,
          "time": 90.38714949999999,
          "velocity": 0.7874015748031497
        },
        {
          "duration": 0.19354849999999146,
          "durationTicks": 48,
          "midi": 33,
          "name": "A1",
          "ticks": 22464,
          "time": 90.580698,
          "velocity": 0.7874015748031497
        },
        {
          "duration": 0.19354850000000567,
          "durationTicks": 48,
          "midi": 40,
          "name": "E2",
          "ticks": 22512,
          "time": 90.77424649999999,
          "velocity": 0.7874015748031497
        },
        {
          "duration": 0.19354849999999146,
          "durationTicks": 48,
          "midi": 33,
          "name": "A1",
          "ticks": 22560,
          "time": 90.967795,
          "velocity": 0.7874015748031497
        },
        {
          "duration": 0.19354850000000567,
          "durationTicks": 48,
          "midi": 40,
          "name": "E2",
          "ticks": 22608,
          "time": 91.16134349999999,
          "velocity": 0.7874015748031497
        },
        {
          "duration": 0.19354850000000567,
          "durationTicks": 48,
          "midi": 36,
          "name": "C2",
          "ticks": 22656,
          "time": 91.35489199999999,
          "velocity": 0.7874015748031497
        },
        {
          "duration": 0.19354849999999146,
          "durationTicks": 48,
          "midi": 43,
          "name": "G2",
          "ticks": 22704,
          "time": 91.5484405,
          "velocity": 0.7874015748031497
        },
        {
          "duration": 0.19354850000000567,
          "durationTicks": 48,
          "midi": 36,
          "name": "C2",
          "ticks": 22752,
          "time": 91.74198899999999,
          "velocity": 0.7874015748031497
        },
        {
          "duration": 0.19354849999999146,
          "durationTicks": 48,
          "midi": 43,
          "name": "G2",
          "ticks": 22800,
          "time": 91.9355375,
          "velocity": 0.7874015748031497
        },
        {
          "duration": 0.19354850000000567,
          "durationTicks": 48,
          "midi": 35,
          "name": "B1",
          "ticks": 22848,
          "time": 92.12908599999999,
          "velocity": 0.7874015748031497
        },
        {
          "duration": 0.19354850000000567,
          "durationTicks": 48,
          "midi": 42,
          "name": "F#2",
          "ticks": 22896,
          "time": 92.32263449999999,
          "velocity": 0.7874015748031497
        },
        {
          "duration": 0.19354849999999146,
          "durationTicks": 48,
          "midi": 35,
          "name": "B1",
          "ticks": 22944,
          "time": 92.516183,
          "velocity": 0.7874015748031497
        },
        {
          "duration": 0.19354850000000567,
          "durationTicks": 48,
          "midi": 42,
          "name": "F#2",
          "ticks": 22992,
          "time": 92.70973149999999,
          "velocity": 0.7874015748031497
        },
        {
          "duration": 0.19354849999999146,
          "durationTicks": 48,
          "midi": 34,
          "name": "A#1",
          "ticks": 23040,
          "time": 92.90328,
          "velocity": 0.7874015748031497
        },
        {
          "duration": 0.19354850000000567,
          "durationTicks": 48,
          "midi": 41,
          "name": "F2",
          "ticks": 23088,
          "time": 93.09682849999999,
          "velocity": 0.7874015748031497
        },
        {
          "duration": 0.19354850000000567,
          "durationTicks": 48,
          "midi": 34,
          "name": "A#1",
          "ticks": 23136,
          "time": 93.29037699999999,
          "velocity": 0.7874015748031497
        },
        {
          "duration": 0.19354849999999146,
          "durationTicks": 48,
          "midi": 41,
          "name": "F2",
          "ticks": 23184,
          "time": 93.4839255,
          "velocity": 0.7874015748031497
        },
        {
          "duration": 0.19354850000000567,
          "durationTicks": 48,
          "midi": 33,
          "name": "A1",
          "ticks": 23232,
          "time": 93.67747399999999,
          "velocity": 0.7874015748031497
        },
        {
          "duration": 0.19354849999999146,
          "durationTicks": 48,
          "midi": 40,
          "name": "E2",
          "ticks": 23280,
          "time": 93.8710225,
          "velocity": 0.7874015748031497
        },
        {
          "duration": 0.19354850000000567,
          "durationTicks": 48,
          "midi": 33,
          "name": "A1",
          "ticks": 23328,
          "time": 94.06457099999999,
          "velocity": 0.7874015748031497
        },
        {
          "duration": 0.19354850000000567,
          "durationTicks": 48,
          "midi": 40,
          "name": "E2",
          "ticks": 23376,
          "time": 94.25811949999999,
          "velocity": 0.7874015748031497
        },
        {
          "duration": 0.19354849999999146,
          "durationTicks": 48,
          "midi": 36,
          "name": "C2",
          "ticks": 23424,
          "time": 94.451668,
          "velocity": 0.7874015748031497
        },
        {
          "duration": 0.19354850000000567,
          "durationTicks": 48,
          "midi": 43,
          "name": "G2",
          "ticks": 23472,
          "time": 94.64521649999999,
          "velocity": 0.7874015748031497
        },
        {
          "duration": 0.19354849999999146,
          "durationTicks": 48,
          "midi": 36,
          "name": "C2",
          "ticks": 23520,
          "time": 94.838765,
          "velocity": 0.7874015748031497
        },
        {
          "duration": 0.19354850000000567,
          "durationTicks": 48,
          "midi": 43,
          "name": "G2",
          "ticks": 23568,
          "time": 95.03231349999999,
          "velocity": 0.7874015748031497
        },
        {
          "duration": 0.19354850000000567,
          "durationTicks": 48,
          "midi": 35,
          "name": "B1",
          "ticks": 23616,
          "time": 95.22586199999999,
          "velocity": 0.7874015748031497
        },
        {
          "duration": 0.19354849999999146,
          "durationTicks": 48,
          "midi": 42,
          "name": "F#2",
          "ticks": 23664,
          "time": 95.4194105,
          "velocity": 0.7874015748031497
        },
        {
          "duration": 0.19354850000000567,
          "durationTicks": 48,
          "midi": 35,
          "name": "B1",
          "ticks": 23712,
          "time": 95.61295899999999,
          "velocity": 0.7874015748031497
        },
        {
          "duration": 0.19354849999999146,
          "durationTicks": 48,
          "midi": 42,
          "name": "F#2",
          "ticks": 23760,
          "time": 95.8065075,
          "velocity": 0.7874015748031497
        },
        {
          "duration": 0.19354849999999146,
          "durationTicks": 48,
          "midi": 42,
          "name": "F#2",
          "ticks": 24000,
          "time": 96.77425,
          "velocity": 0.7874015748031497
        },
        {
          "duration": 0.19354850000000567,
          "durationTicks": 48,
          "midi": 49,
          "name": "C#3",
          "ticks": 24048,
          "time": 96.96779849999999,
          "velocity": 0.7874015748031497
        },
        {
          "duration": 0.19354850000000567,
          "durationTicks": 48,
          "midi": 42,
          "name": "F#2",
          "ticks": 24096,
          "time": 97.16134699999999,
          "velocity": 0.7874015748031497
        },
        {
          "duration": 0.19354849999999146,
          "durationTicks": 48,
          "midi": 49,
          "name": "C#3",
          "ticks": 24144,
          "time": 97.3548955,
          "velocity": 0.7874015748031497
        },
        {
          "duration": 0.19354850000000567,
          "durationTicks": 48,
          "midi": 44,
          "name": "G#2",
          "ticks": 24192,
          "time": 97.54844399999999,
          "velocity": 0.7874015748031497
        },
        {
          "duration": 0.19354849999999146,
          "durationTicks": 48,
          "midi": 51,
          "name": "D#3",
          "ticks": 24240,
          "time": 97.7419925,
          "velocity": 0.7874015748031497
        },
        {
          "duration": 0.19354850000000567,
          "durationTicks": 48,
          "midi": 44,
          "name": "G#2",
          "ticks": 24288,
          "time": 97.93554099999999,
          "velocity": 0.7874015748031497
        },
        {
          "duration": 0.19354850000000567,
          "durationTicks": 48,
          "midi": 51,
          "name": "D#3",
          "ticks": 24336,
          "time": 98.12908949999999,
          "velocity": 0.7874015748031497
        },
        {
          "duration": 0.19354849999999146,
          "durationTicks": 48,
          "midi": 46,
          "name": "A#2",
          "ticks": 24384,
          "time": 98.322638,
          "velocity": 0.7874015748031497
        },
        {
          "duration": 0.19354850000000567,
          "durationTicks": 48,
          "midi": 53,
          "name": "F3",
          "ticks": 24432,
          "time": 98.51618649999999,
          "velocity": 0.7874015748031497
        },
        {
          "duration": 0.19354849999999146,
          "durationTicks": 48,
          "midi": 46,
          "name": "A#2",
          "ticks": 24480,
          "time": 98.709735,
          "velocity": 0.7874015748031497
        },
        {
          "duration": 0.19354850000000567,
          "durationTicks": 48,
          "midi": 53,
          "name": "F3",
          "ticks": 24528,
          "time": 98.90328349999999,
          "velocity": 0.7874015748031497
        },
        {
          "duration": 0.19354850000000567,
          "durationTicks": 48,
          "midi": 43,
          "name": "G2",
          "ticks": 24576,
          "time": 99.09683199999999,
          "velocity": 0.7874015748031497
        },
        {
          "duration": 0.19354849999999146,
          "durationTicks": 48,
          "midi": 51,
          "name": "D#3",
          "ticks": 24624,
          "time": 99.2903805,
          "velocity": 0.7874015748031497
        },
        {
          "duration": 0.19354850000000567,
          "durationTicks": 48,
          "midi": 43,
          "name": "G2",
          "ticks": 24672,
          "time": 99.48392899999999,
          "velocity": 0.7874015748031497
        },
        {
          "duration": 0.19354849999999146,
          "durationTicks": 48,
          "midi": 51,
          "name": "D#3",
          "ticks": 24720,
          "time": 99.6774775,
          "velocity": 0.7874015748031497
        },
        {
          "duration": 0.19354850000000567,
          "durationTicks": 48,
          "midi": 42,
          "name": "F#2",
          "ticks": 24768,
          "time": 99.87102599999999,
          "velocity": 0.7874015748031497
        },
        {
          "duration": 0.19354850000000567,
          "durationTicks": 48,
          "midi": 49,
          "name": "C#3",
          "ticks": 24816,
          "time": 100.06457449999999,
          "velocity": 0.7874015748031497
        },
        {
          "duration": 0.19354849999999146,
          "durationTicks": 48,
          "midi": 42,
          "name": "F#2",
          "ticks": 24864,
          "time": 100.258123,
          "velocity": 0.7874015748031497
        },
        {
          "duration": 0.19354850000000567,
          "durationTicks": 48,
          "midi": 49,
          "name": "C#3",
          "ticks": 24912,
          "time": 100.45167149999999,
          "velocity": 0.7874015748031497
        },
        {
          "duration": 0.19354849999999146,
          "durationTicks": 48,
          "midi": 44,
          "name": "G#2",
          "ticks": 24960,
          "time": 100.64522,
          "velocity": 0.7874015748031497
        },
        {
          "duration": 0.19354850000000567,
          "durationTicks": 48,
          "midi": 51,
          "name": "D#3",
          "ticks": 25008,
          "time": 100.83876849999999,
          "velocity": 0.7874015748031497
        },
        {
          "duration": 0.19354850000000567,
          "durationTicks": 48,
          "midi": 44,
          "name": "G#2",
          "ticks": 25056,
          "time": 101.03231699999999,
          "velocity": 0.7874015748031497
        },
        {
          "duration": 0.19354849999999146,
          "durationTicks": 48,
          "midi": 51,
          "name": "D#3",
          "ticks": 25104,
          "time": 101.2258655,
          "velocity": 0.7874015748031497
        },
        {
          "duration": 0.19354850000000567,
          "durationTicks": 48,
          "midi": 46,
          "name": "A#2",
          "ticks": 25152,
          "time": 101.41941399999999,
          "velocity": 0.7874015748031497
        },
        {
          "duration": 0.19354849999999146,
          "durationTicks": 48,
          "midi": 53,
          "name": "F3",
          "ticks": 25200,
          "time": 101.6129625,
          "velocity": 0.7874015748031497
        },
        {
          "duration": 0.19354850000000567,
          "durationTicks": 48,
          "midi": 46,
          "name": "A#2",
          "ticks": 25248,
          "time": 101.80651099999999,
          "velocity": 0.7874015748031497
        },
        {
          "duration": 0.19354850000000567,
          "durationTicks": 48,
          "midi": 53,
          "name": "F3",
          "ticks": 25296,
          "time": 102.00005949999999,
          "velocity": 0.7874015748031497
        },
        {
          "duration": 0.19354849999999146,
          "durationTicks": 48,
          "midi": 46,
          "name": "A#2",
          "ticks": 25344,
          "time": 102.193608,
          "velocity": 0.7874015748031497
        },
        {
          "duration": 0.19354850000000567,
          "durationTicks": 48,
          "midi": 53,
          "name": "F3",
          "ticks": 25392,
          "time": 102.38715649999999,
          "velocity": 0.7874015748031497
        },
        {
          "duration": 0.19354849999999146,
          "durationTicks": 48,
          "midi": 44,
          "name": "G#2",
          "ticks": 25440,
          "time": 102.580705,
          "velocity": 0.7874015748031497
        },
        {
          "duration": 0.19354850000000567,
          "durationTicks": 48,
          "midi": 51,
          "name": "D#3",
          "ticks": 25488,
          "time": 102.77425349999999,
          "velocity": 0.7874015748031497
        },
        {
          "duration": 0.19354850000000567,
          "durationTicks": 48,
          "midi": 42,
          "name": "F#2",
          "ticks": 25536,
          "time": 102.96780199999999,
          "velocity": 0.7874015748031497
        },
        {
          "duration": 0.19354849999999146,
          "durationTicks": 48,
          "midi": 49,
          "name": "C#3",
          "ticks": 25584,
          "time": 103.1613505,
          "velocity": 0.7874015748031497
        },
        {
          "duration": 0.19354850000000567,
          "durationTicks": 48,
          "midi": 42,
          "name": "F#2",
          "ticks": 25632,
          "time": 103.35489899999999,
          "velocity": 0.7874015748031497
        },
        {
          "duration": 0.19354849999999146,
          "durationTicks": 48,
          "midi": 49,
          "name": "C#3",
          "ticks": 25680,
          "time": 103.5484475,
          "velocity": 0.7874015748031497
        },
        {
          "duration": 0.19354850000000567,
          "durationTicks": 48,
          "midi": 44,
          "name": "G#2",
          "ticks": 25728,
          "time": 103.74199599999999,
          "velocity": 0.7874015748031497
        },
        {
          "duration": 0.19354850000000567,
          "durationTicks": 48,
          "midi": 51,
          "name": "D#3",
          "ticks": 25776,
          "time": 103.93554449999999,
          "velocity": 0.7874015748031497
        },
        {
          "duration": 0.19354849999999146,
          "durationTicks": 48,
          "midi": 44,
          "name": "G#2",
          "ticks": 25824,
          "time": 104.129093,
          "velocity": 0.7874015748031497
        },
        {
          "duration": 0.19354850000000567,
          "durationTicks": 48,
          "midi": 51,
          "name": "D#3",
          "ticks": 25872,
          "time": 104.32264149999999,
          "velocity": 0.7874015748031497
        },
        {
          "duration": 0.19354849999999146,
          "durationTicks": 48,
          "midi": 46,
          "name": "A#2",
          "ticks": 25920,
          "time": 104.51619,
          "velocity": 0.7874015748031497
        },
        {
          "duration": 0.19354850000000567,
          "durationTicks": 48,
          "midi": 53,
          "name": "F3",
          "ticks": 25968,
          "time": 104.70973849999999,
          "velocity": 0.7874015748031497
        },
        {
          "duration": 0.19354850000000567,
          "durationTicks": 48,
          "midi": 46,
          "name": "A#2",
          "ticks": 26016,
          "time": 104.90328699999999,
          "velocity": 0.7874015748031497
        },
        {
          "duration": 0.19354849999999146,
          "durationTicks": 48,
          "midi": 53,
          "name": "F3",
          "ticks": 26064,
          "time": 105.0968355,
          "velocity": 0.7874015748031497
        },
        {
          "duration": 0.19354850000000567,
          "durationTicks": 48,
          "midi": 43,
          "name": "G2",
          "ticks": 26112,
          "time": 105.29038399999999,
          "velocity": 0.7874015748031497
        },
        {
          "duration": 0.19354849999999146,
          "durationTicks": 48,
          "midi": 51,
          "name": "D#3",
          "ticks": 26160,
          "time": 105.4839325,
          "velocity": 0.7874015748031497
        },
        {
          "duration": 0.19354850000000567,
          "durationTicks": 48,
          "midi": 43,
          "name": "G2",
          "ticks": 26208,
          "time": 105.67748099999999,
          "velocity": 0.7874015748031497
        },
        {
          "duration": 0.19354850000000567,
          "durationTicks": 48,
          "midi": 51,
          "name": "D#3",
          "ticks": 26256,
          "time": 105.87102949999999,
          "velocity": 0.7874015748031497
        },
        {
          "duration": 0.19354849999999146,
          "durationTicks": 48,
          "midi": 42,
          "name": "F#2",
          "ticks": 26304,
          "time": 106.064578,
          "velocity": 0.7874015748031497
        },
        {
          "duration": 0.19354850000000567,
          "durationTicks": 48,
          "midi": 49,
          "name": "C#3",
          "ticks": 26352,
          "time": 106.25812649999999,
          "velocity": 0.7874015748031497
        },
        {
          "duration": 0.19354849999999146,
          "durationTicks": 48,
          "midi": 42,
          "name": "F#2",
          "ticks": 26400,
          "time": 106.451675,
          "velocity": 0.7874015748031497
        },
        {
          "duration": 0.19354850000000567,
          "durationTicks": 48,
          "midi": 49,
          "name": "C#3",
          "ticks": 26448,
          "time": 106.64522349999999,
          "velocity": 0.7874015748031497
        },
        {
          "duration": 0.19354850000000567,
          "durationTicks": 48,
          "midi": 44,
          "name": "G#2",
          "ticks": 26496,
          "time": 106.83877199999999,
          "velocity": 0.7874015748031497
        },
        {
          "duration": 0.19354849999999146,
          "durationTicks": 48,
          "midi": 51,
          "name": "D#3",
          "ticks": 26544,
          "time": 107.0323205,
          "velocity": 0.7874015748031497
        },
        {
          "duration": 0.19354850000000567,
          "durationTicks": 48,
          "midi": 44,
          "name": "G#2",
          "ticks": 26592,
          "time": 107.22586899999999,
          "velocity": 0.7874015748031497
        },
        {
          "duration": 0.19354849999999146,
          "durationTicks": 48,
          "midi": 51,
          "name": "D#3",
          "ticks": 26640,
          "time": 107.4194175,
          "velocity": 0.7874015748031497
        },
        {
          "duration": 0.19354850000000567,
          "durationTicks": 48,
          "midi": 46,
          "name": "A#2",
          "ticks": 26688,
          "time": 107.61296599999999,
          "velocity": 0.7874015748031497
        },
        {
          "duration": 0.19354850000000567,
          "durationTicks": 48,
          "midi": 53,
          "name": "F3",
          "ticks": 26736,
          "time": 107.80651449999999,
          "velocity": 0.7874015748031497
        },
        {
          "duration": 0.19354849999999146,
          "durationTicks": 48,
          "midi": 46,
          "name": "A#2",
          "ticks": 26784,
          "time": 108.000063,
          "velocity": 0.7874015748031497
        },
        {
          "duration": 0.19354850000000567,
          "durationTicks": 48,
          "midi": 53,
          "name": "F3",
          "ticks": 26832,
          "time": 108.19361149999999,
          "velocity": 0.7874015748031497
        },
        {
          "duration": 0.19354849999999146,
          "durationTicks": 48,
          "midi": 46,
          "name": "A#2",
          "ticks": 26880,
          "time": 108.38716,
          "velocity": 0.7874015748031497
        },
        {
          "duration": 0.19354850000000567,
          "durationTicks": 48,
          "midi": 53,
          "name": "F3",
          "ticks": 26928,
          "time": 108.58070849999999,
          "velocity": 0.7874015748031497
        },
        {
          "duration": 0.19354850000000567,
          "durationTicks": 48,
          "midi": 46,
          "name": "A#2",
          "ticks": 26976,
          "time": 108.77425699999999,
          "velocity": 0.7874015748031497
        },
        {
          "duration": 0.19354849999999146,
          "durationTicks": 48,
          "midi": 53,
          "name": "F3",
          "ticks": 27024,
          "time": 108.9678055,
          "velocity": 0.7874015748031497
        },
        {
          "duration": 0.19354850000000567,
          "durationTicks": 48,
          "midi": 42,
          "name": "F#2",
          "ticks": 27072,
          "time": 109.16135399999999,
          "velocity": 0.7874015748031497
        },
        {
          "duration": 0.19354849999999146,
          "durationTicks": 48,
          "midi": 49,
          "name": "C#3",
          "ticks": 27120,
          "time": 109.3549025,
          "velocity": 0.7874015748031497
        },
        {
          "duration": 0.19354850000000567,
          "durationTicks": 48,
          "midi": 42,
          "name": "F#2",
          "ticks": 27168,
          "time": 109.54845099999999,
          "velocity": 0.7874015748031497
        },
        {
          "duration": 0.19354850000000567,
          "durationTicks": 48,
          "midi": 49,
          "name": "C#3",
          "ticks": 27216,
          "time": 109.74199949999999,
          "velocity": 0.7874015748031497
        },
        {
          "duration": 0.19354849999999146,
          "durationTicks": 48,
          "midi": 44,
          "name": "G#2",
          "ticks": 27264,
          "time": 109.935548,
          "velocity": 0.7874015748031497
        },
        {
          "duration": 0.19354850000000567,
          "durationTicks": 48,
          "midi": 51,
          "name": "D#3",
          "ticks": 27312,
          "time": 110.12909649999999,
          "velocity": 0.7874015748031497
        },
        {
          "duration": 0.19354849999999146,
          "durationTicks": 48,
          "midi": 44,
          "name": "G#2",
          "ticks": 27360,
          "time": 110.322645,
          "velocity": 0.7874015748031497
        },
        {
          "duration": 0.19354850000000567,
          "durationTicks": 48,
          "midi": 51,
          "name": "D#3",
          "ticks": 27408,
          "time": 110.51619349999999,
          "velocity": 0.7874015748031497
        },
        {
          "duration": 0.19354850000000567,
          "durationTicks": 48,
          "midi": 46,
          "name": "A#2",
          "ticks": 27456,
          "time": 110.70974199999999,
          "velocity": 0.7874015748031497
        },
        {
          "duration": 0.19354849999999146,
          "durationTicks": 48,
          "midi": 53,
          "name": "F3",
          "ticks": 27504,
          "time": 110.9032905,
          "velocity": 0.7874015748031497
        },
        {
          "duration": 0.19354850000000567,
          "durationTicks": 48,
          "midi": 46,
          "name": "A#2",
          "ticks": 27552,
          "time": 111.09683899999999,
          "velocity": 0.7874015748031497
        },
        {
          "duration": 0.19354849999999146,
          "durationTicks": 48,
          "midi": 53,
          "name": "F3",
          "ticks": 27600,
          "time": 111.2903875,
          "velocity": 0.7874015748031497
        },
        {
          "duration": 0.19354850000000567,
          "durationTicks": 48,
          "midi": 43,
          "name": "G2",
          "ticks": 27648,
          "time": 111.48393599999999,
          "velocity": 0.7874015748031497
        },
        {
          "duration": 0.19354850000000567,
          "durationTicks": 48,
          "midi": 51,
          "name": "D#3",
          "ticks": 27696,
          "time": 111.67748449999999,
          "velocity": 0.7874015748031497
        },
        {
          "duration": 0.19354849999999146,
          "durationTicks": 48,
          "midi": 43,
          "name": "G2",
          "ticks": 27744,
          "time": 111.871033,
          "velocity": 0.7874015748031497
        },
        {
          "duration": 0.19354850000000567,
          "durationTicks": 48,
          "midi": 51,
          "name": "D#3",
          "ticks": 27792,
          "time": 112.06458149999999,
          "velocity": 0.7874015748031497
        },
        {
          "duration": 0.19354849999999146,
          "durationTicks": 48,
          "midi": 42,
          "name": "F#2",
          "ticks": 27840,
          "time": 112.25813,
          "velocity": 0.7874015748031497
        },
        {
          "duration": 0.19354850000000567,
          "durationTicks": 48,
          "midi": 49,
          "name": "C#3",
          "ticks": 27888,
          "time": 112.45167849999999,
          "velocity": 0.7874015748031497
        },
        {
          "duration": 0.19354850000000567,
          "durationTicks": 48,
          "midi": 42,
          "name": "F#2",
          "ticks": 27936,
          "time": 112.64522699999999,
          "velocity": 0.7874015748031497
        },
        {
          "duration": 0.19354849999999146,
          "durationTicks": 48,
          "midi": 49,
          "name": "C#3",
          "ticks": 27984,
          "time": 112.8387755,
          "velocity": 0.7874015748031497
        },
        {
          "duration": 0.19354850000000567,
          "durationTicks": 48,
          "midi": 44,
          "name": "G#2",
          "ticks": 28032,
          "time": 113.03232399999999,
          "velocity": 0.7874015748031497
        },
        {
          "duration": 0.19354849999999146,
          "durationTicks": 48,
          "midi": 51,
          "name": "D#3",
          "ticks": 28080,
          "time": 113.2258725,
          "velocity": 0.7874015748031497
        },
        {
          "duration": 0.19354850000000567,
          "durationTicks": 48,
          "midi": 44,
          "name": "G#2",
          "ticks": 28128,
          "time": 113.41942099999999,
          "velocity": 0.7874015748031497
        },
        {
          "duration": 0.19354850000000567,
          "durationTicks": 48,
          "midi": 51,
          "name": "D#3",
          "ticks": 28176,
          "time": 113.61296949999999,
          "velocity": 0.7874015748031497
        },
        {
          "duration": 0.19354849999999146,
          "durationTicks": 48,
          "midi": 46,
          "name": "A#2",
          "ticks": 28224,
          "time": 113.806518,
          "velocity": 0.7874015748031497
        },
        {
          "duration": 0.19354850000000567,
          "durationTicks": 48,
          "midi": 53,
          "name": "F3",
          "ticks": 28272,
          "time": 114.00006649999999,
          "velocity": 0.7874015748031497
        },
        {
          "duration": 0.19354849999999146,
          "durationTicks": 48,
          "midi": 46,
          "name": "A#2",
          "ticks": 28320,
          "time": 114.193615,
          "velocity": 0.7874015748031497
        },
        {
          "duration": 0.19354850000000567,
          "durationTicks": 48,
          "midi": 53,
          "name": "F3",
          "ticks": 28368,
          "time": 114.38716349999999,
          "velocity": 0.7874015748031497
        },
        {
          "duration": 0.19354850000000567,
          "durationTicks": 48,
          "midi": 46,
          "name": "A#2",
          "ticks": 28416,
          "time": 114.58071199999999,
          "velocity": 0.7874015748031497
        },
        {
          "duration": 0.19354849999999146,
          "durationTicks": 48,
          "midi": 53,
          "name": "F3",
          "ticks": 28464,
          "time": 114.7742605,
          "velocity": 0.7874015748031497
        },
        {
          "duration": 0.19354850000000567,
          "durationTicks": 48,
          "midi": 44,
          "name": "G#2",
          "ticks": 28512,
          "time": 114.96780899999999,
          "velocity": 0.7874015748031497
        },
        {
          "duration": 0.19354849999999146,
          "durationTicks": 48,
          "midi": 51,
          "name": "D#3",
          "ticks": 28560,
          "time": 115.1613575,
          "velocity": 0.7874015748031497
        },
        {
          "duration": 0.19354850000000567,
          "durationTicks": 48,
          "midi": 42,
          "name": "F#2",
          "ticks": 28608,
          "time": 115.35490599999999,
          "velocity": 0.7874015748031497
        },
        {
          "duration": 0.19354850000000567,
          "durationTicks": 48,
          "midi": 49,
          "name": "C#3",
          "ticks": 28656,
          "time": 115.54845449999999,
          "velocity": 0.7874015748031497
        },
        {
          "duration": 0.19354849999999146,
          "durationTicks": 48,
          "midi": 42,
          "name": "F#2",
          "ticks": 28704,
          "time": 115.742003,
          "velocity": 0.7874015748031497
        },
        {
          "duration": 0.19354850000000567,
          "durationTicks": 48,
          "midi": 49,
          "name": "C#3",
          "ticks": 28752,
          "time": 115.93555149999999,
          "velocity": 0.7874015748031497
        },
        {
          "duration": 0.19354849999999146,
          "durationTicks": 48,
          "midi": 44,
          "name": "G#2",
          "ticks": 28800,
          "time": 116.1291,
          "velocity": 0.7874015748031497
        },
        {
          "duration": 0.19354850000000567,
          "durationTicks": 48,
          "midi": 51,
          "name": "D#3",
          "ticks": 28848,
          "time": 116.32264849999999,
          "velocity": 0.7874015748031497
        },
        {
          "duration": 0.19354850000000567,
          "durationTicks": 48,
          "midi": 44,
          "name": "G#2",
          "ticks": 28896,
          "time": 116.51619699999999,
          "velocity": 0.7874015748031497
        },
        {
          "duration": 0.19354849999999146,
          "durationTicks": 48,
          "midi": 51,
          "name": "D#3",
          "ticks": 28944,
          "time": 116.7097455,
          "velocity": 0.7874015748031497
        },
        {
          "duration": 0.19354850000000567,
          "durationTicks": 48,
          "midi": 46,
          "name": "A#2",
          "ticks": 28992,
          "time": 116.90329399999999,
          "velocity": 0.7874015748031497
        },
        {
          "duration": 0.19354849999999146,
          "durationTicks": 48,
          "midi": 53,
          "name": "F3",
          "ticks": 29040,
          "time": 117.0968425,
          "velocity": 0.7874015748031497
        },
        {
          "duration": 0.19354850000000567,
          "durationTicks": 48,
          "midi": 46,
          "name": "A#2",
          "ticks": 29088,
          "time": 117.29039099999999,
          "velocity": 0.7874015748031497
        },
        {
          "duration": 0.19354850000000567,
          "durationTicks": 48,
          "midi": 53,
          "name": "F3",
          "ticks": 29136,
          "time": 117.48393949999999,
          "velocity": 0.7874015748031497
        },
        {
          "duration": 0.19354849999999146,
          "durationTicks": 48,
          "midi": 43,
          "name": "G2",
          "ticks": 29184,
          "time": 117.677488,
          "velocity": 0.7874015748031497
        },
        {
          "duration": 0.19354850000000567,
          "durationTicks": 48,
          "midi": 51,
          "name": "D#3",
          "ticks": 29232,
          "time": 117.87103649999999,
          "velocity": 0.7874015748031497
        },
        {
          "duration": 0.19354849999999146,
          "durationTicks": 48,
          "midi": 43,
          "name": "G2",
          "ticks": 29280,
          "time": 118.064585,
          "velocity": 0.7874015748031497
        },
        {
          "duration": 0.19354850000000567,
          "durationTicks": 48,
          "midi": 51,
          "name": "D#3",
          "ticks": 29328,
          "time": 118.25813349999999,
          "velocity": 0.7874015748031497
        },
        {
          "duration": 0.19354850000000567,
          "durationTicks": 48,
          "midi": 42,
          "name": "F#2",
          "ticks": 29376,
          "time": 118.45168199999999,
          "velocity": 0.7874015748031497
        },
        {
          "duration": 0.19354849999999146,
          "durationTicks": 48,
          "midi": 49,
          "name": "C#3",
          "ticks": 29424,
          "time": 118.6452305,
          "velocity": 0.7874015748031497
        },
        {
          "duration": 0.19354850000000567,
          "durationTicks": 48,
          "midi": 42,
          "name": "F#2",
          "ticks": 29472,
          "time": 118.83877899999999,
          "velocity": 0.7874015748031497
        },
        {
          "duration": 0.19354849999999146,
          "durationTicks": 48,
          "midi": 49,
          "name": "C#3",
          "ticks": 29520,
          "time": 119.0323275,
          "velocity": 0.7874015748031497
        },
        {
          "duration": 0.19354850000000567,
          "durationTicks": 48,
          "midi": 44,
          "name": "G#2",
          "ticks": 29568,
          "time": 119.22587599999999,
          "velocity": 0.7874015748031497
        },
        {
          "duration": 0.19354850000000567,
          "durationTicks": 48,
          "midi": 51,
          "name": "D#3",
          "ticks": 29616,
          "time": 119.41942449999999,
          "velocity": 0.7874015748031497
        },
        {
          "duration": 0.19354849999999146,
          "durationTicks": 48,
          "midi": 44,
          "name": "G#2",
          "ticks": 29664,
          "time": 119.612973,
          "velocity": 0.7874015748031497
        },
        {
          "duration": 0.19354850000000567,
          "durationTicks": 48,
          "midi": 51,
          "name": "D#3",
          "ticks": 29712,
          "time": 119.80652149999999,
          "velocity": 0.7874015748031497
        },
        {
          "duration": 0.19354849999999146,
          "durationTicks": 48,
          "midi": 46,
          "name": "A#2",
          "ticks": 29760,
          "time": 120.00007,
          "velocity": 0.7874015748031497
        },
        {
          "duration": 0.19354850000000567,
          "durationTicks": 48,
          "midi": 53,
          "name": "F3",
          "ticks": 29808,
          "time": 120.19361849999999,
          "velocity": 0.7874015748031497
        },
        {
          "duration": 0.19354850000000567,
          "durationTicks": 48,
          "midi": 46,
          "name": "A#2",
          "ticks": 29856,
          "time": 120.38716699999999,
          "velocity": 0.7874015748031497
        },
        {
          "duration": 0.19354849999999146,
          "durationTicks": 48,
          "midi": 53,
          "name": "F3",
          "ticks": 29904,
          "time": 120.5807155,
          "velocity": 0.7874015748031497
        },
        {
          "duration": 0.19354850000000567,
          "durationTicks": 48,
          "midi": 46,
          "name": "A#2",
          "ticks": 29952,
          "time": 120.77426399999999,
          "velocity": 0.7874015748031497
        },
        {
          "duration": 0.19354849999999146,
          "durationTicks": 48,
          "midi": 53,
          "name": "F3",
          "ticks": 30000,
          "time": 120.9678125,
          "velocity": 0.7874015748031497
        },
        {
          "duration": 0.19354850000000567,
          "durationTicks": 48,
          "midi": 46,
          "name": "A#2",
          "ticks": 30048,
          "time": 121.16136099999999,
          "velocity": 0.7874015748031497
        },
        {
          "duration": 0.19354850000000567,
          "durationTicks": 48,
          "midi": 53,
          "name": "F3",
          "ticks": 30096,
          "time": 121.35490949999999,
          "velocity": 0.7874015748031497
        }
      ]
    },
    {
      "channel": 0,
      "controlChanges": {
        "6": [
          {
            "number": 6,
            "ticks": 0,
            "time": 0,
            "value": 0.09448818897637795
          }
        ],
        "7": [
          {
            "number": 7,
            "ticks": 0,
            "time": 0,
            "value": 1
          },
          {
            "number": 7,
            "ticks": 0,
            "time": 0,
            "value": 1
          }
        ],
        "10": [
          {
            "number": 10,
            "ticks": 0,
            "time": 0,
            "value": 0.5039370078740157
          },
          {
            "number": 10,
            "ticks": 0,
            "time": 0,
            "value": 0.5039370078740157
          }
        ],
        "100": [
          {
            "number": 100,
            "ticks": 0,
            "time": 0,
            "value": 0
          }
        ],
        "101": [
          {
            "number": 101,
            "ticks": 0,
            "time": 0,
            "value": 0
          }
        ]
      },
      "pitchBends": [
        {
          "ticks": 0,
          "time": 0,
          "value": 0
        },
        {
          "ticks": 0,
          "time": 0,
          "value": 0
        }
      ],
      "instrument": {
        "family": "piano",
        "name": "acoustic grand piano",
        "number": 0
      },
      "name": "Pick Bass",
      "notes": []
    },
    {
      "channel": 3,
      "controlChanges": {
        "6": [
          {
            "number": 6,
            "ticks": 0,
            "time": 0,
            "value": 0.09448818897637795
          },
          {
            "number": 6,
            "ticks": 0,
            "time": 0,
            "value": 0.09448818897637795
          },
          {
            "number": 6,
            "ticks": 30336,
            "time": 122.32265199999999,
            "value": 0.09448818897637795
          },
          {
            "number": 6,
            "ticks": 30336,
            "time": 122.32265199999999,
            "value": 0.09448818897637795
          },
          {
            "number": 6,
            "ticks": 30336,
            "time": 122.32265199999999,
            "value": 0.09448818897637795
          }
        ],
        "7": [
          {
            "number": 7,
            "ticks": 0,
            "time": 0,
            "value": 1
          },
          {
            "number": 7,
            "ticks": 0,
            "time": 0,
            "value": 1
          },
          {
            "number": 7,
            "ticks": 30336,
            "time": 122.32265199999999,
            "value": 1
          },
          {
            "number": 7,
            "ticks": 30336,
            "time": 122.32265199999999,
            "value": 1
          },
          {
            "number": 7,
            "ticks": 30336,
            "time": 122.32265199999999,
            "value": 1
          }
        ],
        "10": [
          {
            "number": 10,
            "ticks": 0,
            "time": 0,
            "value": 0.5039370078740157
          },
          {
            "number": 10,
            "ticks": 0,
            "time": 0,
            "value": 0.5039370078740157
          },
          {
            "number": 10,
            "ticks": 30336,
            "time": 122.32265199999999,
            "value": 0.5039370078740157
          },
          {
            "number": 10,
            "ticks": 30336,
            "time": 122.32265199999999,
            "value": 0.5039370078740157
          },
          {
            "number": 10,
            "ticks": 30336,
            "time": 122.32265199999999,
            "value": 0.5039370078740157
          }
        ],
        "100": [
          {
            "number": 100,
            "ticks": 0,
            "time": 0,
            "value": 0
          },
          {
            "number": 100,
            "ticks": 0,
            "time": 0,
            "value": 0
          },
          {
            "number": 100,
            "ticks": 30336,
            "time": 122.32265199999999,
            "value": 0
          },
          {
            "number": 100,
            "ticks": 30336,
            "time": 122.32265199999999,
            "value": 0
          },
          {
            "number": 100,
            "ticks": 30336,
            "time": 122.32265199999999,
            "value": 0
          }
        ],
        "101": [
          {
            "number": 101,
            "ticks": 0,
            "time": 0,
            "value": 0
          },
          {
            "number": 101,
            "ticks": 0,
            "time": 0,
            "value": 0
          },
          {
            "number": 101,
            "ticks": 30336,
            "time": 122.32265199999999,
            "value": 0
          },
          {
            "number": 101,
            "ticks": 30336,
            "time": 122.32265199999999,
            "value": 0
          },
          {
            "number": 101,
            "ticks": 30336,
            "time": 122.32265199999999,
            "value": 0
          }
        ]
      },
      "pitchBends": [
        {
          "ticks": 0,
          "time": 0,
          "value": 0
        },
        {
          "ticks": 0,
          "time": 0,
          "value": 0
        },
        {
          "ticks": 30336,
          "time": 122.32265199999999,
          "value": 0
        },
        {
          "ticks": 30336,
          "time": 122.32265199999999,
          "value": 0
        },
        {
          "ticks": 30336,
          "time": 122.32265199999999,
          "value": 0
        }
      ],
      "instrument": {
        "family": "bass",
        "name": "electric bass (pick)",
        "number": 34
      },
      "name": "",
      "notes": [
        {
          "duration": 0.5806454999999999,
          "durationTicks": 144,
          "midi": 34,
          "name": "A#1",
          "ticks": 0,
          "time": 0,
          "velocity": 0.7874015748031497
        },
        {
          "duration": 0.387097,
          "durationTicks": 96,
          "midi": 41,
          "name": "F2",
          "ticks": 144,
          "time": 0.5806454999999999,
          "velocity": 0.7874015748031497
        },
        {
          "duration": 0.1935484999999999,
          "durationTicks": 48,
          "midi": 46,
          "name": "A#2",
          "ticks": 240,
          "time": 0.9677425,
          "velocity": 0.7874015748031497
        },
        {
          "duration": 0.387097,
          "durationTicks": 96,
          "midi": 36,
          "name": "C2",
          "ticks": 288,
          "time": 1.1612909999999999,
          "velocity": 0.7874015748031497
        },
        {
          "duration": 0.387097,
          "durationTicks": 96,
          "midi": 36,
          "name": "C2",
          "ticks": 384,
          "time": 1.5483879999999999,
          "velocity": 0.7874015748031497
        },
        {
          "duration": 0.5806454999999997,
          "durationTicks": 144,
          "midi": 34,
          "name": "A#1",
          "ticks": 480,
          "time": 1.935485,
          "velocity": 0.7874015748031497
        },
        {
          "duration": 0.38709700000000025,
          "durationTicks": 96,
          "midi": 41,
          "name": "F2",
          "ticks": 624,
          "time": 2.5161304999999996,
          "velocity": 0.7874015748031497
        },
        {
          "duration": 0.1935484999999999,
          "durationTicks": 48,
          "midi": 46,
          "name": "A#2",
          "ticks": 720,
          "time": 2.9032275,
          "velocity": 0.7874015748031497
        },
        {
          "duration": 0.3870969999999998,
          "durationTicks": 96,
          "midi": 39,
          "name": "D#2",
          "ticks": 768,
          "time": 3.0967759999999998,
          "velocity": 0.7874015748031497
        },
        {
          "duration": 0.38709700000000025,
          "durationTicks": 96,
          "midi": 39,
          "name": "D#2",
          "ticks": 864,
          "time": 3.4838729999999996,
          "velocity": 0.7874015748031497
        },
        {
          "duration": 0.5806455000000001,
          "durationTicks": 144,
          "midi": 34,
          "name": "A#1",
          "ticks": 960,
          "time": 3.87097,
          "velocity": 0.7874015748031497
        },
        {
          "duration": 0.3870969999999998,
          "durationTicks": 96,
          "midi": 41,
          "name": "F2",
          "ticks": 1104,
          "time": 4.4516155,
          "velocity": 0.7874015748031497
        },
        {
          "duration": 0.19354849999999946,
          "durationTicks": 48,
          "midi": 46,
          "name": "A#2",
          "ticks": 1200,
          "time": 4.8387125,
          "velocity": 0.7874015748031497
        },
        {
          "duration": 0.3870970000000007,
          "durationTicks": 96,
          "midi": 36,
          "name": "C2",
          "ticks": 1248,
          "time": 5.032260999999999,
          "velocity": 0.7874015748031497
        },
        {
          "duration": 0.3870969999999998,
          "durationTicks": 96,
          "midi": 36,
          "name": "C2",
          "ticks": 1344,
          "time": 5.419358,
          "velocity": 0.7874015748031497
        },
        {
          "duration": 0.5806455000000001,
          "durationTicks": 144,
          "midi": 34,
          "name": "A#1",
          "ticks": 1440,
          "time": 5.806455,
          "velocity": 0.7874015748031497
        },
        {
          "duration": 0.3870969999999998,
          "durationTicks": 96,
          "midi": 41,
          "name": "F2",
          "ticks": 1584,
          "time": 6.3871005,
          "velocity": 0.7874015748031497
        },
        {
          "duration": 0.19354849999999946,
          "durationTicks": 48,
          "midi": 46,
          "name": "A#2",
          "ticks": 1680,
          "time": 6.7741975,
          "velocity": 0.7874015748031497
        },
        {
          "duration": 0.3870970000000007,
          "durationTicks": 96,
          "midi": 39,
          "name": "D#2",
          "ticks": 1728,
          "time": 6.967745999999999,
          "velocity": 0.7874015748031497
        },
        {
          "duration": 0.3870969999999998,
          "durationTicks": 96,
          "midi": 39,
          "name": "D#2",
          "ticks": 1824,
          "time": 7.354843,
          "velocity": 0.7874015748031497
        },
        {
          "duration": 0.5806454999999993,
          "durationTicks": 144,
          "midi": 30,
          "name": "F#1",
          "ticks": 1920,
          "time": 7.74194,
          "velocity": 0.7874015748031497
        },
        {
          "duration": 0.3870970000000007,
          "durationTicks": 96,
          "midi": 37,
          "name": "C#2",
          "ticks": 2064,
          "time": 8.322585499999999,
          "velocity": 0.7874015748031497
        },
        {
          "duration": 0.19354850000000035,
          "durationTicks": 48,
          "midi": 42,
          "name": "F#2",
          "ticks": 2160,
          "time": 8.7096825,
          "velocity": 0.7874015748031497
        },
        {
          "duration": 0.3870969999999989,
          "durationTicks": 96,
          "midi": 36,
          "name": "C2",
          "ticks": 2208,
          "time": 8.903231,
          "velocity": 0.7874015748031497
        },
        {
          "duration": 0.3870970000000007,
          "durationTicks": 96,
          "midi": 36,
          "name": "C2",
          "ticks": 2304,
          "time": 9.290327999999999,
          "velocity": 0.7874015748031497
        },
        {
          "duration": 0.5806454999999993,
          "durationTicks": 144,
          "midi": 30,
          "name": "F#1",
          "ticks": 2400,
          "time": 9.677425,
          "velocity": 0.7874015748031497
        },
        {
          "duration": 0.3870970000000007,
          "durationTicks": 96,
          "midi": 37,
          "name": "C#2",
          "ticks": 2544,
          "time": 10.258070499999999,
          "velocity": 0.7874015748031497
        },
        {
          "duration": 0.19354850000000035,
          "durationTicks": 48,
          "midi": 42,
          "name": "F#2",
          "ticks": 2640,
          "time": 10.6451675,
          "velocity": 0.7874015748031497
        },
        {
          "duration": 0.3870969999999989,
          "durationTicks": 96,
          "midi": 45,
          "name": "A2",
          "ticks": 2688,
          "time": 10.838716,
          "velocity": 0.7874015748031497
        },
        {
          "duration": 0.3870970000000007,
          "durationTicks": 96,
          "midi": 45,
          "name": "A2",
          "ticks": 2784,
          "time": 11.225812999999999,
          "velocity": 0.7874015748031497
        },
        {
          "duration": 0.5806454999999993,
          "durationTicks": 144,
          "midi": 34,
          "name": "A#1",
          "ticks": 2880,
          "time": 11.61291,
          "velocity": 0.7874015748031497
        },
        {
          "duration": 0.3870970000000007,
          "durationTicks": 96,
          "midi": 41,
          "name": "F2",
          "ticks": 3024,
          "time": 12.193555499999999,
          "velocity": 0.7874015748031497
        },
        {
          "duration": 0.19354850000000035,
          "durationTicks": 48,
          "midi": 46,
          "name": "A#2",
          "ticks": 3120,
          "time": 12.5806525,
          "velocity": 0.7874015748031497
        },
        {
          "duration": 0.3870969999999989,
          "durationTicks": 96,
          "midi": 36,
          "name": "C2",
          "ticks": 3168,
          "time": 12.774201,
          "velocity": 0.7874015748031497
        },
        {
          "duration": 0.3870970000000007,
          "durationTicks": 96,
          "midi": 36,
          "name": "C2",
          "ticks": 3264,
          "time": 13.161297999999999,
          "velocity": 0.7874015748031497
        },
        {
          "duration": 0.5806454999999993,
          "durationTicks": 144,
          "midi": 34,
          "name": "A#1",
          "ticks": 3360,
          "time": 13.548395,
          "velocity": 0.7874015748031497
        },
        {
          "duration": 0.3870970000000007,
          "durationTicks": 96,
          "midi": 41,
          "name": "F2",
          "ticks": 3504,
          "time": 14.129040499999999,
          "velocity": 0.7874015748031497
        },
        {
          "duration": 0.19354850000000035,
          "durationTicks": 48,
          "midi": 46,
          "name": "A#2",
          "ticks": 3600,
          "time": 14.5161375,
          "velocity": 0.7874015748031497
        },
        {
          "duration": 0.3870969999999989,
          "durationTicks": 96,
          "midi": 39,
          "name": "D#2",
          "ticks": 3648,
          "time": 14.709686,
          "velocity": 0.7874015748031497
        },
        {
          "duration": 0.3870970000000007,
          "durationTicks": 96,
          "midi": 39,
          "name": "D#2",
          "ticks": 3744,
          "time": 15.096782999999999,
          "velocity": 0.7874015748031497
        },
        {
          "duration": 0.19354850000000035,
          "durationTicks": 48,
          "midi": 34,
          "name": "A#1",
          "ticks": 3840,
          "time": 15.48388,
          "velocity": 0.7874015748031497
        },
        {
          "duration": 0.19354849999999857,
          "durationTicks": 48,
          "midi": 41,
          "name": "F2",
          "ticks": 3888,
          "time": 15.6774285,
          "velocity": 0.7874015748031497
        },
        {
          "duration": 0.19354850000000035,
          "durationTicks": 48,
          "midi": 34,
          "name": "A#1",
          "ticks": 3936,
          "time": 15.870976999999998,
          "velocity": 0.7874015748031497
        },
        {
          "duration": 0.19354849999999857,
          "durationTicks": 48,
          "midi": 41,
          "name": "F2",
          "ticks": 3984,
          "time": 16.0645255,
          "velocity": 0.7874015748031497
        },
        {
          "duration": 0.19354850000000212,
          "durationTicks": 48,
          "midi": 33,
          "name": "A1",
          "ticks": 4032,
          "time": 16.258073999999997,
          "velocity": 0.7874015748031497
        },
        {
          "duration": 0.19354849999999857,
          "durationTicks": 48,
          "midi": 40,
          "name": "E2",
          "ticks": 4080,
          "time": 16.4516225,
          "velocity": 0.7874015748031497
        },
        {
          "duration": 0.19354850000000212,
          "durationTicks": 48,
          "midi": 33,
          "name": "A1",
          "ticks": 4128,
          "time": 16.645170999999998,
          "velocity": 0.7874015748031497
        },
        {
          "duration": 0.19354849999999857,
          "durationTicks": 48,
          "midi": 40,
          "name": "E2",
          "ticks": 4176,
          "time": 16.8387195,
          "velocity": 0.7874015748031497
        },
        {
          "duration": 0.19354849999999857,
          "durationTicks": 48,
          "midi": 36,
          "name": "C2",
          "ticks": 4224,
          "time": 17.032268,
          "velocity": 0.7874015748031497
        },
        {
          "duration": 0.19354850000000212,
          "durationTicks": 48,
          "midi": 43,
          "name": "G2",
          "ticks": 4272,
          "time": 17.225816499999997,
          "velocity": 0.7874015748031497
        },
        {
          "duration": 0.19354849999999857,
          "durationTicks": 48,
          "midi": 36,
          "name": "C2",
          "ticks": 4320,
          "time": 17.419365,
          "velocity": 0.7874015748031497
        },
        {
          "duration": 0.19354850000000212,
          "durationTicks": 48,
          "midi": 43,
          "name": "G2",
          "ticks": 4368,
          "time": 17.612913499999998,
          "velocity": 0.7874015748031497
        },
        {
          "duration": 0.19354849999999857,
          "durationTicks": 48,
          "midi": 35,
          "name": "B1",
          "ticks": 4416,
          "time": 17.806462,
          "velocity": 0.7874015748031497
        },
        {
          "duration": 0.19354849999999857,
          "durationTicks": 48,
          "midi": 42,
          "name": "F#2",
          "ticks": 4464,
          "time": 18.0000105,
          "velocity": 0.7874015748031497
        },
        {
          "duration": 0.19354850000000212,
          "durationTicks": 48,
          "midi": 35,
          "name": "B1",
          "ticks": 4512,
          "time": 18.193558999999997,
          "velocity": 0.7874015748031497
        },
        {
          "duration": 0.19354849999999857,
          "durationTicks": 48,
          "midi": 42,
          "name": "F#2",
          "ticks": 4560,
          "time": 18.3871075,
          "velocity": 0.7874015748031497
        },
        {
          "duration": 0.19354850000000212,
          "durationTicks": 48,
          "midi": 34,
          "name": "A#1",
          "ticks": 4608,
          "time": 18.580655999999998,
          "velocity": 0.7874015748031497
        },
        {
          "duration": 0.19354849999999857,
          "durationTicks": 48,
          "midi": 41,
          "name": "F2",
          "ticks": 4656,
          "time": 18.7742045,
          "velocity": 0.7874015748031497
        },
        {
          "duration": 0.19354849999999857,
          "durationTicks": 48,
          "midi": 34,
          "name": "A#1",
          "ticks": 4704,
          "time": 18.967753,
          "velocity": 0.7874015748031497
        },
        {
          "duration": 0.19354850000000212,
          "durationTicks": 48,
          "midi": 41,
          "name": "F2",
          "ticks": 4752,
          "time": 19.161301499999997,
          "velocity": 0.7874015748031497
        },
        {
          "duration": 0.19354849999999857,
          "durationTicks": 48,
          "midi": 33,
          "name": "A1",
          "ticks": 4800,
          "time": 19.35485,
          "velocity": 0.7874015748031497
        },
        {
          "duration": 0.19354850000000212,
          "durationTicks": 48,
          "midi": 40,
          "name": "E2",
          "ticks": 4848,
          "time": 19.548398499999998,
          "velocity": 0.7874015748031497
        },
        {
          "duration": 0.19354849999999857,
          "durationTicks": 48,
          "midi": 33,
          "name": "A1",
          "ticks": 4896,
          "time": 19.741947,
          "velocity": 0.7874015748031497
        },
        {
          "duration": 0.19354849999999857,
          "durationTicks": 48,
          "midi": 40,
          "name": "E2",
          "ticks": 4944,
          "time": 19.9354955,
          "velocity": 0.7874015748031497
        },
        {
          "duration": 0.19354850000000212,
          "durationTicks": 48,
          "midi": 36,
          "name": "C2",
          "ticks": 4992,
          "time": 20.129043999999997,
          "velocity": 0.7874015748031497
        },
        {
          "duration": 0.19354849999999857,
          "durationTicks": 48,
          "midi": 43,
          "name": "G2",
          "ticks": 5040,
          "time": 20.3225925,
          "velocity": 0.7874015748031497
        },
        {
          "duration": 0.19354850000000212,
          "durationTicks": 48,
          "midi": 36,
          "name": "C2",
          "ticks": 5088,
          "time": 20.516140999999998,
          "velocity": 0.7874015748031497
        },
        {
          "duration": 0.19354849999999857,
          "durationTicks": 48,
          "midi": 43,
          "name": "G2",
          "ticks": 5136,
          "time": 20.7096895,
          "velocity": 0.7874015748031497
        },
        {
          "duration": 0.19354849999999857,
          "durationTicks": 48,
          "midi": 35,
          "name": "B1",
          "ticks": 5184,
          "time": 20.903237999999998,
          "velocity": 0.7874015748031497
        },
        {
          "duration": 0.19354850000000212,
          "durationTicks": 48,
          "midi": 42,
          "name": "F#2",
          "ticks": 5232,
          "time": 21.096786499999997,
          "velocity": 0.7874015748031497
        },
        {
          "duration": 0.19354849999999857,
          "durationTicks": 48,
          "midi": 35,
          "name": "B1",
          "ticks": 5280,
          "time": 21.290335,
          "velocity": 0.7874015748031497
        },
        {
          "duration": 0.19354850000000212,
          "durationTicks": 48,
          "midi": 42,
          "name": "F#2",
          "ticks": 5328,
          "time": 21.483883499999997,
          "velocity": 0.7874015748031497
        },
        {
          "duration": 0.19354849999999857,
          "durationTicks": 48,
          "midi": 34,
          "name": "A#1",
          "ticks": 5376,
          "time": 21.677432,
          "velocity": 0.7874015748031497
        },
        {
          "duration": 0.19354849999999857,
          "durationTicks": 48,
          "midi": 41,
          "name": "F2",
          "ticks": 5424,
          "time": 21.870980499999998,
          "velocity": 0.7874015748031497
        },
        {
          "duration": 0.19354850000000212,
          "durationTicks": 48,
          "midi": 34,
          "name": "A#1",
          "ticks": 5472,
          "time": 22.064528999999997,
          "velocity": 0.7874015748031497
        },
        {
          "duration": 0.19354849999999857,
          "durationTicks": 48,
          "midi": 41,
          "name": "F2",
          "ticks": 5520,
          "time": 22.2580775,
          "velocity": 0.7874015748031497
        },
        {
          "duration": 0.19354850000000212,
          "durationTicks": 48,
          "midi": 33,
          "name": "A1",
          "ticks": 5568,
          "time": 22.451625999999997,
          "velocity": 0.7874015748031497
        },
        {
          "duration": 0.19354849999999857,
          "durationTicks": 48,
          "midi": 40,
          "name": "E2",
          "ticks": 5616,
          "time": 22.6451745,
          "velocity": 0.7874015748031497
        },
        {
          "duration": 0.19354849999999857,
          "durationTicks": 48,
          "midi": 33,
          "name": "A1",
          "ticks": 5664,
          "time": 22.838722999999998,
          "velocity": 0.7874015748031497
        },
        {
          "duration": 0.19354850000000212,
          "durationTicks": 48,
          "midi": 40,
          "name": "E2",
          "ticks": 5712,
          "time": 23.032271499999997,
          "velocity": 0.7874015748031497
        },
        {
          "duration": 0.19354849999999857,
          "durationTicks": 48,
          "midi": 36,
          "name": "C2",
          "ticks": 5760,
          "time": 23.22582,
          "velocity": 0.7874015748031497
        },
        {
          "duration": 0.19354850000000212,
          "durationTicks": 48,
          "midi": 43,
          "name": "G2",
          "ticks": 5808,
          "time": 23.419368499999997,
          "velocity": 0.7874015748031497
        },
        {
          "duration": 0.19354849999999857,
          "durationTicks": 48,
          "midi": 36,
          "name": "C2",
          "ticks": 5856,
          "time": 23.612917,
          "velocity": 0.7874015748031497
        },
        {
          "duration": 0.19354849999999857,
          "durationTicks": 48,
          "midi": 43,
          "name": "G2",
          "ticks": 5904,
          "time": 23.806465499999998,
          "velocity": 0.7874015748031497
        },
        {
          "duration": 0.19354850000000212,
          "durationTicks": 48,
          "midi": 35,
          "name": "B1",
          "ticks": 5952,
          "time": 24.000013999999997,
          "velocity": 0.7874015748031497
        },
        {
          "duration": 0.19354849999999857,
          "durationTicks": 48,
          "midi": 42,
          "name": "F#2",
          "ticks": 6000,
          "time": 24.1935625,
          "velocity": 0.7874015748031497
        },
        {
          "duration": 0.19354850000000212,
          "durationTicks": 48,
          "midi": 35,
          "name": "B1",
          "ticks": 6048,
          "time": 24.387110999999997,
          "velocity": 0.7874015748031497
        },
        {
          "duration": 0.19354849999999857,
          "durationTicks": 48,
          "midi": 42,
          "name": "F#2",
          "ticks": 6096,
          "time": 24.5806595,
          "velocity": 0.7874015748031497
        },
        {
          "duration": 0.19354849999999857,
          "durationTicks": 48,
          "midi": 34,
          "name": "A#1",
          "ticks": 6144,
          "time": 24.774207999999998,
          "velocity": 0.7874015748031497
        },
        {
          "duration": 0.19354850000000212,
          "durationTicks": 48,
          "midi": 41,
          "name": "F2",
          "ticks": 6192,
          "time": 24.967756499999997,
          "velocity": 0.7874015748031497
        },
        {
          "duration": 0.19354849999999857,
          "durationTicks": 48,
          "midi": 34,
          "name": "A#1",
          "ticks": 6240,
          "time": 25.161305,
          "velocity": 0.7874015748031497
        },
        {
          "duration": 0.19354850000000212,
          "durationTicks": 48,
          "midi": 41,
          "name": "F2",
          "ticks": 6288,
          "time": 25.354853499999997,
          "velocity": 0.7874015748031497
        },
        {
          "duration": 0.19354849999999857,
          "durationTicks": 48,
          "midi": 33,
          "name": "A1",
          "ticks": 6336,
          "time": 25.548402,
          "velocity": 0.7874015748031497
        },
        {
          "duration": 0.19354849999999857,
          "durationTicks": 48,
          "midi": 40,
          "name": "E2",
          "ticks": 6384,
          "time": 25.741950499999998,
          "velocity": 0.7874015748031497
        },
        {
          "duration": 0.19354850000000212,
          "durationTicks": 48,
          "midi": 33,
          "name": "A1",
          "ticks": 6432,
          "time": 25.935498999999997,
          "velocity": 0.7874015748031497
        },
        {
          "duration": 0.19354849999999857,
          "durationTicks": 48,
          "midi": 40,
          "name": "E2",
          "ticks": 6480,
          "time": 26.1290475,
          "velocity": 0.7874015748031497
        },
        {
          "duration": 0.19354850000000212,
          "durationTicks": 48,
          "midi": 36,
          "name": "C2",
          "ticks": 6528,
          "time": 26.322595999999997,
          "velocity": 0.7874015748031497
        },
        {
          "duration": 0.19354849999999857,
          "durationTicks": 48,
          "midi": 43,
          "name": "G2",
          "ticks": 6576,
          "time": 26.5161445,
          "velocity": 0.7874015748031497
        },
        {
          "duration": 0.19354849999999857,
          "durationTicks": 48,
          "midi": 36,
          "name": "C2",
          "ticks": 6624,
          "time": 26.709692999999998,
          "velocity": 0.7874015748031497
        },
        {
          "duration": 0.19354850000000212,
          "durationTicks": 48,
          "midi": 43,
          "name": "G2",
          "ticks": 6672,
          "time": 26.903241499999996,
          "velocity": 0.7874015748031497
        },
        {
          "duration": 0.19354849999999857,
          "durationTicks": 48,
          "midi": 35,
          "name": "B1",
          "ticks": 6720,
          "time": 27.09679,
          "velocity": 0.7874015748031497
        },
        {
          "duration": 0.19354850000000212,
          "durationTicks": 48,
          "midi": 42,
          "name": "F#2",
          "ticks": 6768,
          "time": 27.290338499999997,
          "velocity": 0.7874015748031497
        },
        {
          "duration": 0.19354849999999857,
          "durationTicks": 48,
          "midi": 35,
          "name": "B1",
          "ticks": 6816,
          "time": 27.483887,
          "velocity": 0.7874015748031497
        },
        {
          "duration": 0.19354849999999857,
          "durationTicks": 48,
          "midi": 42,
          "name": "F#2",
          "ticks": 6864,
          "time": 27.677435499999998,
          "velocity": 0.7874015748031497
        },
        {
          "duration": 0.19354850000000212,
          "durationTicks": 48,
          "midi": 42,
          "name": "F#2",
          "ticks": 6912,
          "time": 27.870983999999996,
          "velocity": 0.7874015748031497
        },
        {
          "duration": 0.19354849999999857,
          "durationTicks": 48,
          "midi": 49,
          "name": "C#3",
          "ticks": 6960,
          "time": 28.0645325,
          "velocity": 0.7874015748031497
        },
        {
          "duration": 0.19354850000000212,
          "durationTicks": 48,
          "midi": 42,
          "name": "F#2",
          "ticks": 7008,
          "time": 28.258080999999997,
          "velocity": 0.7874015748031497
        },
        {
          "duration": 0.19354849999999857,
          "durationTicks": 48,
          "midi": 49,
          "name": "C#3",
          "ticks": 7056,
          "time": 28.4516295,
          "velocity": 0.7874015748031497
        },
        {
          "duration": 0.19354849999999857,
          "durationTicks": 48,
          "midi": 44,
          "name": "G#2",
          "ticks": 7104,
          "time": 28.645177999999998,
          "velocity": 0.7874015748031497
        },
        {
          "duration": 0.19354850000000212,
          "durationTicks": 48,
          "midi": 51,
          "name": "D#3",
          "ticks": 7152,
          "time": 28.838726499999996,
          "velocity": 0.7874015748031497
        },
        {
          "duration": 0.19354849999999857,
          "durationTicks": 48,
          "midi": 44,
          "name": "G#2",
          "ticks": 7200,
          "time": 29.032275,
          "velocity": 0.7874015748031497
        },
        {
          "duration": 0.19354850000000212,
          "durationTicks": 48,
          "midi": 51,
          "name": "D#3",
          "ticks": 7248,
          "time": 29.225823499999997,
          "velocity": 0.7874015748031497
        },
        {
          "duration": 0.19354849999999857,
          "durationTicks": 48,
          "midi": 46,
          "name": "A#2",
          "ticks": 7296,
          "time": 29.419372,
          "velocity": 0.7874015748031497
        },
        {
          "duration": 0.19354849999999857,
          "durationTicks": 48,
          "midi": 53,
          "name": "F3",
          "ticks": 7344,
          "time": 29.612920499999998,
          "velocity": 0.7874015748031497
        },
        {
          "duration": 0.19354850000000212,
          "durationTicks": 48,
          "midi": 46,
          "name": "A#2",
          "ticks": 7392,
          "time": 29.806468999999996,
          "velocity": 0.7874015748031497
        },
        {
          "duration": 0.19354849999999857,
          "durationTicks": 48,
          "midi": 53,
          "name": "F3",
          "ticks": 7440,
          "time": 30.0000175,
          "velocity": 0.7874015748031497
        },
        {
          "duration": 0.19354850000000212,
          "durationTicks": 48,
          "midi": 43,
          "name": "G2",
          "ticks": 7488,
          "time": 30.193565999999997,
          "velocity": 0.7874015748031497
        },
        {
          "duration": 0.19354849999999857,
          "durationTicks": 48,
          "midi": 51,
          "name": "D#3",
          "ticks": 7536,
          "time": 30.3871145,
          "velocity": 0.7874015748031497
        },
        {
          "duration": 0.19354849999999857,
          "durationTicks": 48,
          "midi": 43,
          "name": "G2",
          "ticks": 7584,
          "time": 30.580662999999998,
          "velocity": 0.7874015748031497
        },
        {
          "duration": 0.19354850000000212,
          "durationTicks": 48,
          "midi": 51,
          "name": "D#3",
          "ticks": 7632,
          "time": 30.774211499999996,
          "velocity": 0.7874015748031497
        },
        {
          "duration": 0.19354849999999857,
          "durationTicks": 48,
          "midi": 42,
          "name": "F#2",
          "ticks": 7680,
          "time": 30.96776,
          "velocity": 0.7874015748031497
        },
        {
          "duration": 0.19354850000000212,
          "durationTicks": 48,
          "midi": 49,
          "name": "C#3",
          "ticks": 7728,
          "time": 31.161308499999997,
          "velocity": 0.7874015748031497
        },
        {
          "duration": 0.19354849999999857,
          "durationTicks": 48,
          "midi": 42,
          "name": "F#2",
          "ticks": 7776,
          "time": 31.354857,
          "velocity": 0.7874015748031497
        },
        {
          "duration": 0.19354849999999857,
          "durationTicks": 48,
          "midi": 49,
          "name": "C#3",
          "ticks": 7824,
          "time": 31.548405499999998,
          "velocity": 0.7874015748031497
        },
        {
          "duration": 0.19354850000000212,
          "durationTicks": 48,
          "midi": 44,
          "name": "G#2",
          "ticks": 7872,
          "time": 31.741953999999996,
          "velocity": 0.7874015748031497
        },
        {
          "duration": 0.19354849999999857,
          "durationTicks": 48,
          "midi": 51,
          "name": "D#3",
          "ticks": 7920,
          "time": 31.9355025,
          "velocity": 0.7874015748031497
        },
        {
          "duration": 0.19354849999999857,
          "durationTicks": 48,
          "midi": 44,
          "name": "G#2",
          "ticks": 7968,
          "time": 32.129051,
          "velocity": 0.7874015748031497
        },
        {
          "duration": 0.19354849999999857,
          "durationTicks": 48,
          "midi": 51,
          "name": "D#3",
          "ticks": 8016,
          "time": 32.322599499999995,
          "velocity": 0.7874015748031497
        },
        {
          "duration": 0.19354850000000567,
          "durationTicks": 48,
          "midi": 46,
          "name": "A#2",
          "ticks": 8064,
          "time": 32.516147999999994,
          "velocity": 0.7874015748031497
        },
        {
          "duration": 0.19354849999999857,
          "durationTicks": 48,
          "midi": 53,
          "name": "F3",
          "ticks": 8112,
          "time": 32.7096965,
          "velocity": 0.7874015748031497
        },
        {
          "duration": 0.19354849999999857,
          "durationTicks": 48,
          "midi": 46,
          "name": "A#2",
          "ticks": 8160,
          "time": 32.903245,
          "velocity": 0.7874015748031497
        },
        {
          "duration": 0.19354849999999857,
          "durationTicks": 48,
          "midi": 53,
          "name": "F3",
          "ticks": 8208,
          "time": 33.0967935,
          "velocity": 0.7874015748031497
        },
        {
          "duration": 0.19354849999999857,
          "durationTicks": 48,
          "midi": 46,
          "name": "A#2",
          "ticks": 8256,
          "time": 33.290341999999995,
          "velocity": 0.7874015748031497
        },
        {
          "duration": 0.19354850000000567,
          "durationTicks": 48,
          "midi": 53,
          "name": "F3",
          "ticks": 8304,
          "time": 33.483890499999994,
          "velocity": 0.7874015748031497
        },
        {
          "duration": 0.19354849999999857,
          "durationTicks": 48,
          "midi": 44,
          "name": "G#2",
          "ticks": 8352,
          "time": 33.677439,
          "velocity": 0.7874015748031497
        },
        {
          "duration": 0.19354849999999857,
          "durationTicks": 48,
          "midi": 51,
          "name": "D#3",
          "ticks": 8400,
          "time": 33.8709875,
          "velocity": 0.7874015748031497
        },
        {
          "duration": 0.19354849999999857,
          "durationTicks": 48,
          "midi": 42,
          "name": "F#2",
          "ticks": 8448,
          "time": 34.064536,
          "velocity": 0.7874015748031497
        },
        {
          "duration": 0.19354849999999857,
          "durationTicks": 48,
          "midi": 49,
          "name": "C#3",
          "ticks": 8496,
          "time": 34.258084499999995,
          "velocity": 0.7874015748031497
        },
        {
          "duration": 0.19354850000000567,
          "durationTicks": 48,
          "midi": 42,
          "name": "F#2",
          "ticks": 8544,
          "time": 34.451632999999994,
          "velocity": 0.7874015748031497
        },
        {
          "duration": 0.19354849999999857,
          "durationTicks": 48,
          "midi": 49,
          "name": "C#3",
          "ticks": 8592,
          "time": 34.6451815,
          "velocity": 0.7874015748031497
        },
        {
          "duration": 0.19354849999999857,
          "durationTicks": 48,
          "midi": 44,
          "name": "G#2",
          "ticks": 8640,
          "time": 34.83873,
          "velocity": 0.7874015748031497
        },
        {
          "duration": 0.19354849999999857,
          "durationTicks": 48,
          "midi": 51,
          "name": "D#3",
          "ticks": 8688,
          "time": 35.0322785,
          "velocity": 0.7874015748031497
        },
        {
          "duration": 0.19354849999999857,
          "durationTicks": 48,
          "midi": 44,
          "name": "G#2",
          "ticks": 8736,
          "time": 35.225826999999995,
          "velocity": 0.7874015748031497
        },
        {
          "duration": 0.19354850000000567,
          "durationTicks": 48,
          "midi": 51,
          "name": "D#3",
          "ticks": 8784,
          "time": 35.419375499999994,
          "velocity": 0.7874015748031497
        },
        {
          "duration": 0.19354849999999857,
          "durationTicks": 48,
          "midi": 46,
          "name": "A#2",
          "ticks": 8832,
          "time": 35.612924,
          "velocity": 0.7874015748031497
        },
        {
          "duration": 0.19354849999999857,
          "durationTicks": 48,
          "midi": 53,
          "name": "F3",
          "ticks": 8880,
          "time": 35.8064725,
          "velocity": 0.7874015748031497
        },
        {
          "duration": 0.19354849999999857,
          "durationTicks": 48,
          "midi": 46,
          "name": "A#2",
          "ticks": 8928,
          "time": 36.000021,
          "velocity": 0.7874015748031497
        },
        {
          "duration": 0.19354849999999857,
          "durationTicks": 48,
          "midi": 53,
          "name": "F3",
          "ticks": 8976,
          "time": 36.193569499999995,
          "velocity": 0.7874015748031497
        },
        {
          "duration": 0.19354850000000567,
          "durationTicks": 48,
          "midi": 43,
          "name": "G2",
          "ticks": 9024,
          "time": 36.387117999999994,
          "velocity": 0.7874015748031497
        },
        {
          "duration": 0.19354849999999857,
          "durationTicks": 48,
          "midi": 51,
          "name": "D#3",
          "ticks": 9072,
          "time": 36.5806665,
          "velocity": 0.7874015748031497
        },
        {
          "duration": 0.19354849999999857,
          "durationTicks": 48,
          "midi": 43,
          "name": "G2",
          "ticks": 9120,
          "time": 36.774215,
          "velocity": 0.7874015748031497
        },
        {
          "duration": 0.19354849999999857,
          "durationTicks": 48,
          "midi": 51,
          "name": "D#3",
          "ticks": 9168,
          "time": 36.9677635,
          "velocity": 0.7874015748031497
        },
        {
          "duration": 0.19354849999999857,
          "durationTicks": 48,
          "midi": 42,
          "name": "F#2",
          "ticks": 9216,
          "time": 37.161311999999995,
          "velocity": 0.7874015748031497
        },
        {
          "duration": 0.19354850000000567,
          "durationTicks": 48,
          "midi": 49,
          "name": "C#3",
          "ticks": 9264,
          "time": 37.354860499999994,
          "velocity": 0.7874015748031497
        },
        {
          "duration": 0.19354849999999857,
          "durationTicks": 48,
          "midi": 42,
          "name": "F#2",
          "ticks": 9312,
          "time": 37.548409,
          "velocity": 0.7874015748031497
        },
        {
          "duration": 0.19354849999999857,
          "durationTicks": 48,
          "midi": 49,
          "name": "C#3",
          "ticks": 9360,
          "time": 37.7419575,
          "velocity": 0.7874015748031497
        },
        {
          "duration": 0.19354849999999857,
          "durationTicks": 48,
          "midi": 44,
          "name": "G#2",
          "ticks": 9408,
          "time": 37.935506,
          "velocity": 0.7874015748031497
        },
        {
          "duration": 0.19354849999999857,
          "durationTicks": 48,
          "midi": 51,
          "name": "D#3",
          "ticks": 9456,
          "time": 38.129054499999995,
          "velocity": 0.7874015748031497
        },
        {
          "duration": 0.19354850000000567,
          "durationTicks": 48,
          "midi": 44,
          "name": "G#2",
          "ticks": 9504,
          "time": 38.322602999999994,
          "velocity": 0.7874015748031497
        },
        {
          "duration": 0.19354849999999857,
          "durationTicks": 48,
          "midi": 51,
          "name": "D#3",
          "ticks": 9552,
          "time": 38.5161515,
          "velocity": 0.7874015748031497
        },
        {
          "duration": 0.19354849999999857,
          "durationTicks": 48,
          "midi": 46,
          "name": "A#2",
          "ticks": 9600,
          "time": 38.7097,
          "velocity": 0.7874015748031497
        },
        {
          "duration": 0.19354849999999857,
          "durationTicks": 48,
          "midi": 53,
          "name": "F3",
          "ticks": 9648,
          "time": 38.9032485,
          "velocity": 0.7874015748031497
        },
        {
          "duration": 0.19354849999999857,
          "durationTicks": 48,
          "midi": 46,
          "name": "A#2",
          "ticks": 9696,
          "time": 39.096796999999995,
          "velocity": 0.7874015748031497
        },
        {
          "duration": 0.19354850000000567,
          "durationTicks": 48,
          "midi": 53,
          "name": "F3",
          "ticks": 9744,
          "time": 39.290345499999994,
          "velocity": 0.7874015748031497
        },
        {
          "duration": 0.19354849999999857,
          "durationTicks": 48,
          "midi": 46,
          "name": "A#2",
          "ticks": 9792,
          "time": 39.483894,
          "velocity": 0.7874015748031497
        },
        {
          "duration": 0.19354849999999857,
          "durationTicks": 48,
          "midi": 53,
          "name": "F3",
          "ticks": 9840,
          "time": 39.6774425,
          "velocity": 0.7874015748031497
        },
        {
          "duration": 0.19354849999999857,
          "durationTicks": 48,
          "midi": 46,
          "name": "A#2",
          "ticks": 9888,
          "time": 39.870991,
          "velocity": 0.7874015748031497
        },
        {
          "duration": 0.19354849999999857,
          "durationTicks": 48,
          "midi": 53,
          "name": "F3",
          "ticks": 9936,
          "time": 40.064539499999995,
          "velocity": 0.7874015748031497
        },
        {
          "duration": 0.19354850000000567,
          "durationTicks": 48,
          "midi": 42,
          "name": "F#2",
          "ticks": 9984,
          "time": 40.258087999999994,
          "velocity": 0.7874015748031497
        },
        {
          "duration": 0.19354849999999857,
          "durationTicks": 48,
          "midi": 49,
          "name": "C#3",
          "ticks": 10032,
          "time": 40.4516365,
          "velocity": 0.7874015748031497
        },
        {
          "duration": 0.19354849999999857,
          "durationTicks": 48,
          "midi": 42,
          "name": "F#2",
          "ticks": 10080,
          "time": 40.645185,
          "velocity": 0.7874015748031497
        },
        {
          "duration": 0.19354849999999857,
          "durationTicks": 48,
          "midi": 49,
          "name": "C#3",
          "ticks": 10128,
          "time": 40.8387335,
          "velocity": 0.7874015748031497
        },
        {
          "duration": 0.19354849999999857,
          "durationTicks": 48,
          "midi": 44,
          "name": "G#2",
          "ticks": 10176,
          "time": 41.032281999999995,
          "velocity": 0.7874015748031497
        },
        {
          "duration": 0.19354850000000567,
          "durationTicks": 48,
          "midi": 51,
          "name": "D#3",
          "ticks": 10224,
          "time": 41.225830499999994,
          "velocity": 0.7874015748031497
        },
        {
          "duration": 0.19354849999999857,
          "durationTicks": 48,
          "midi": 44,
          "name": "G#2",
          "ticks": 10272,
          "time": 41.419379,
          "velocity": 0.7874015748031497
        },
        {
          "duration": 0.19354849999999857,
          "durationTicks": 48,
          "midi": 51,
          "name": "D#3",
          "ticks": 10320,
          "time": 41.6129275,
          "velocity": 0.7874015748031497
        },
        {
          "duration": 0.19354849999999857,
          "durationTicks": 48,
          "midi": 46,
          "name": "A#2",
          "ticks": 10368,
          "time": 41.806475999999996,
          "velocity": 0.7874015748031497
        },
        {
          "duration": 0.19354849999999857,
          "durationTicks": 48,
          "midi": 53,
          "name": "F3",
          "ticks": 10416,
          "time": 42.000024499999995,
          "velocity": 0.7874015748031497
        },
        {
          "duration": 0.19354850000000567,
          "durationTicks": 48,
          "midi": 46,
          "name": "A#2",
          "ticks": 10464,
          "time": 42.193572999999994,
          "velocity": 0.7874015748031497
        },
        {
          "duration": 0.19354849999999857,
          "durationTicks": 48,
          "midi": 53,
          "name": "F3",
          "ticks": 10512,
          "time": 42.3871215,
          "velocity": 0.7874015748031497
        },
        {
          "duration": 0.19354849999999857,
          "durationTicks": 48,
          "midi": 43,
          "name": "G2",
          "ticks": 10560,
          "time": 42.58067,
          "velocity": 0.7874015748031497
        },
        {
          "duration": 0.19354849999999857,
          "durationTicks": 48,
          "midi": 51,
          "name": "D#3",
          "ticks": 10608,
          "time": 42.774218499999996,
          "velocity": 0.7874015748031497
        },
        {
          "duration": 0.19354849999999857,
          "durationTicks": 48,
          "midi": 43,
          "name": "G2",
          "ticks": 10656,
          "time": 42.967766999999995,
          "velocity": 0.7874015748031497
        },
        {
          "duration": 0.19354850000000567,
          "durationTicks": 48,
          "midi": 51,
          "name": "D#3",
          "ticks": 10704,
          "time": 43.16131549999999,
          "velocity": 0.7874015748031497
        },
        {
          "duration": 0.19354849999999857,
          "durationTicks": 48,
          "midi": 42,
          "name": "F#2",
          "ticks": 10752,
          "time": 43.354864,
          "velocity": 0.7874015748031497
        },
        {
          "duration": 0.19354849999999857,
          "durationTicks": 48,
          "midi": 49,
          "name": "C#3",
          "ticks": 10800,
          "time": 43.5484125,
          "velocity": 0.7874015748031497
        },
        {
          "duration": 0.19354849999999857,
          "durationTicks": 48,
          "midi": 42,
          "name": "F#2",
          "ticks": 10848,
          "time": 43.741960999999996,
          "velocity": 0.7874015748031497
        },
        {
          "duration": 0.19354849999999857,
          "durationTicks": 48,
          "midi": 49,
          "name": "C#3",
          "ticks": 10896,
          "time": 43.935509499999995,
          "velocity": 0.7874015748031497
        },
        {
          "duration": 0.19354850000000567,
          "durationTicks": 48,
          "midi": 44,
          "name": "G#2",
          "ticks": 10944,
          "time": 44.12905799999999,
          "velocity": 0.7874015748031497
        },
        {
          "duration": 0.19354849999999857,
          "durationTicks": 48,
          "midi": 51,
          "name": "D#3",
          "ticks": 10992,
          "time": 44.3226065,
          "velocity": 0.7874015748031497
        },
        {
          "duration": 0.19354849999999857,
          "durationTicks": 48,
          "midi": 44,
          "name": "G#2",
          "ticks": 11040,
          "time": 44.516155,
          "velocity": 0.7874015748031497
        },
        {
          "duration": 0.19354849999999857,
          "durationTicks": 48,
          "midi": 51,
          "name": "D#3",
          "ticks": 11088,
          "time": 44.709703499999996,
          "velocity": 0.7874015748031497
        },
        {
          "duration": 0.19354849999999857,
          "durationTicks": 48,
          "midi": 46,
          "name": "A#2",
          "ticks": 11136,
          "time": 44.903251999999995,
          "velocity": 0.7874015748031497
        },
        {
          "duration": 0.19354850000000567,
          "durationTicks": 48,
          "midi": 53,
          "name": "F3",
          "ticks": 11184,
          "time": 45.09680049999999,
          "velocity": 0.7874015748031497
        },
        {
          "duration": 0.19354849999999857,
          "durationTicks": 48,
          "midi": 46,
          "name": "A#2",
          "ticks": 11232,
          "time": 45.290349,
          "velocity": 0.7874015748031497
        },
        {
          "duration": 0.19354849999999857,
          "durationTicks": 48,
          "midi": 53,
          "name": "F3",
          "ticks": 11280,
          "time": 45.4838975,
          "velocity": 0.7874015748031497
        },
        {
          "duration": 0.19354849999999857,
          "durationTicks": 48,
          "midi": 46,
          "name": "A#2",
          "ticks": 11328,
          "time": 45.677445999999996,
          "velocity": 0.7874015748031497
        },
        {
          "duration": 0.19354849999999857,
          "durationTicks": 48,
          "midi": 53,
          "name": "F3",
          "ticks": 11376,
          "time": 45.870994499999995,
          "velocity": 0.7874015748031497
        },
        {
          "duration": 0.19354850000000567,
          "durationTicks": 48,
          "midi": 44,
          "name": "G#2",
          "ticks": 11424,
          "time": 46.06454299999999,
          "velocity": 0.7874015748031497
        },
        {
          "duration": 0.19354849999999857,
          "durationTicks": 48,
          "midi": 51,
          "name": "D#3",
          "ticks": 11472,
          "time": 46.2580915,
          "velocity": 0.7874015748031497
        },
        {
          "duration": 0.19354849999999857,
          "durationTicks": 48,
          "midi": 42,
          "name": "F#2",
          "ticks": 11520,
          "time": 46.45164,
          "velocity": 0.7874015748031497
        },
        {
          "duration": 0.19354849999999857,
          "durationTicks": 48,
          "midi": 49,
          "name": "C#3",
          "ticks": 11568,
          "time": 46.645188499999996,
          "velocity": 0.7874015748031497
        },
        {
          "duration": 0.19354849999999857,
          "durationTicks": 48,
          "midi": 42,
          "name": "F#2",
          "ticks": 11616,
          "time": 46.838736999999995,
          "velocity": 0.7874015748031497
        },
        {
          "duration": 0.19354850000000567,
          "durationTicks": 48,
          "midi": 49,
          "name": "C#3",
          "ticks": 11664,
          "time": 47.03228549999999,
          "velocity": 0.7874015748031497
        },
        {
          "duration": 0.19354849999999857,
          "durationTicks": 48,
          "midi": 44,
          "name": "G#2",
          "ticks": 11712,
          "time": 47.225834,
          "velocity": 0.7874015748031497
        },
        {
          "duration": 0.19354849999999857,
          "durationTicks": 48,
          "midi": 51,
          "name": "D#3",
          "ticks": 11760,
          "time": 47.4193825,
          "velocity": 0.7874015748031497
        },
        {
          "duration": 0.19354849999999857,
          "durationTicks": 48,
          "midi": 44,
          "name": "G#2",
          "ticks": 11808,
          "time": 47.612930999999996,
          "velocity": 0.7874015748031497
        },
        {
          "duration": 0.19354849999999857,
          "durationTicks": 48,
          "midi": 51,
          "name": "D#3",
          "ticks": 11856,
          "time": 47.806479499999995,
          "velocity": 0.7874015748031497
        },
        {
          "duration": 0.19354850000000567,
          "durationTicks": 48,
          "midi": 46,
          "name": "A#2",
          "ticks": 11904,
          "time": 48.00002799999999,
          "velocity": 0.7874015748031497
        },
        {
          "duration": 0.19354849999999857,
          "durationTicks": 48,
          "midi": 53,
          "name": "F3",
          "ticks": 11952,
          "time": 48.1935765,
          "velocity": 0.7874015748031497
        },
        {
          "duration": 0.19354849999999857,
          "durationTicks": 48,
          "midi": 46,
          "name": "A#2",
          "ticks": 12000,
          "time": 48.387125,
          "velocity": 0.7874015748031497
        },
        {
          "duration": 0.19354849999999857,
          "durationTicks": 48,
          "midi": 53,
          "name": "F3",
          "ticks": 12048,
          "time": 48.580673499999996,
          "velocity": 0.7874015748031497
        },
        {
          "duration": 0.19354849999999857,
          "durationTicks": 48,
          "midi": 43,
          "name": "G2",
          "ticks": 12096,
          "time": 48.774221999999995,
          "velocity": 0.7874015748031497
        },
        {
          "duration": 0.19354850000000567,
          "durationTicks": 48,
          "midi": 51,
          "name": "D#3",
          "ticks": 12144,
          "time": 48.96777049999999,
          "velocity": 0.7874015748031497
        },
        {
          "duration": 0.19354849999999857,
          "durationTicks": 48,
          "midi": 43,
          "name": "G2",
          "ticks": 12192,
          "time": 49.161319,
          "velocity": 0.7874015748031497
        },
        {
          "duration": 0.19354849999999857,
          "durationTicks": 48,
          "midi": 51,
          "name": "D#3",
          "ticks": 12240,
          "time": 49.3548675,
          "velocity": 0.7874015748031497
        },
        {
          "duration": 0.19354849999999857,
          "durationTicks": 48,
          "midi": 42,
          "name": "F#2",
          "ticks": 12288,
          "time": 49.548415999999996,
          "velocity": 0.7874015748031497
        },
        {
          "duration": 0.19354849999999857,
          "durationTicks": 48,
          "midi": 49,
          "name": "C#3",
          "ticks": 12336,
          "time": 49.741964499999995,
          "velocity": 0.7874015748031497
        },
        {
          "duration": 0.19354850000000567,
          "durationTicks": 48,
          "midi": 42,
          "name": "F#2",
          "ticks": 12384,
          "time": 49.93551299999999,
          "velocity": 0.7874015748031497
        },
        {
          "duration": 0.19354849999999857,
          "durationTicks": 48,
          "midi": 49,
          "name": "C#3",
          "ticks": 12432,
          "time": 50.1290615,
          "velocity": 0.7874015748031497
        },
        {
          "duration": 0.19354849999999857,
          "durationTicks": 48,
          "midi": 44,
          "name": "G#2",
          "ticks": 12480,
          "time": 50.32261,
          "velocity": 0.7874015748031497
        },
        {
          "duration": 0.19354849999999857,
          "durationTicks": 48,
          "midi": 51,
          "name": "D#3",
          "ticks": 12528,
          "time": 50.516158499999996,
          "velocity": 0.7874015748031497
        },
        {
          "duration": 0.19354849999999857,
          "durationTicks": 48,
          "midi": 44,
          "name": "G#2",
          "ticks": 12576,
          "time": 50.709706999999995,
          "velocity": 0.7874015748031497
        },
        {
          "duration": 0.19354850000000567,
          "durationTicks": 48,
          "midi": 51,
          "name": "D#3",
          "ticks": 12624,
          "time": 50.90325549999999,
          "velocity": 0.7874015748031497
        },
        {
          "duration": 0.19354849999999857,
          "durationTicks": 48,
          "midi": 46,
          "name": "A#2",
          "ticks": 12672,
          "time": 51.096804,
          "velocity": 0.7874015748031497
        },
        {
          "duration": 0.19354849999999857,
          "durationTicks": 48,
          "midi": 53,
          "name": "F3",
          "ticks": 12720,
          "time": 51.2903525,
          "velocity": 0.7874015748031497
        },
        {
          "duration": 0.19354849999999857,
          "durationTicks": 48,
          "midi": 46,
          "name": "A#2",
          "ticks": 12768,
          "time": 51.483900999999996,
          "velocity": 0.7874015748031497
        },
        {
          "duration": 0.19354849999999857,
          "durationTicks": 48,
          "midi": 53,
          "name": "F3",
          "ticks": 12816,
          "time": 51.677449499999994,
          "velocity": 0.7874015748031497
        },
        {
          "duration": 0.19354850000000567,
          "durationTicks": 48,
          "midi": 46,
          "name": "A#2",
          "ticks": 12864,
          "time": 51.87099799999999,
          "velocity": 0.7874015748031497
        },
        {
          "duration": 0.19354849999999857,
          "durationTicks": 48,
          "midi": 53,
          "name": "F3",
          "ticks": 12912,
          "time": 52.0645465,
          "velocity": 0.7874015748031497
        },
        {
          "duration": 0.19354849999999857,
          "durationTicks": 48,
          "midi": 46,
          "name": "A#2",
          "ticks": 12960,
          "time": 52.258095,
          "velocity": 0.7874015748031497
        },
        {
          "duration": 0.19354849999999857,
          "durationTicks": 48,
          "midi": 53,
          "name": "F3",
          "ticks": 13008,
          "time": 52.451643499999996,
          "velocity": 0.7874015748031497
        },
        {
          "duration": 1.5483880000000028,
          "durationTicks": 384,
          "midi": 34,
          "name": "A#1",
          "ticks": 13056,
          "time": 52.645191999999994,
          "velocity": 0.7874015748031497
        },
        {
          "duration": 1.5483879999999957,
          "durationTicks": 384,
          "midi": 34,
          "name": "A#1",
          "ticks": 13440,
          "time": 54.19358,
          "velocity": 0.7874015748031497
        },
        {
          "duration": 1.5483880000000028,
          "durationTicks": 384,
          "midi": 38,
          "name": "D2",
          "ticks": 13824,
          "time": 55.74196799999999,
          "velocity": 0.7874015748031497
        },
        {
          "duration": 1.5483880000000028,
          "durationTicks": 384,
          "midi": 38,
          "name": "D2",
          "ticks": 14208,
          "time": 57.290355999999996,
          "velocity": 0.7874015748031497
        },
        {
          "duration": 0.19354849999999857,
          "durationTicks": 48,
          "midi": 34,
          "name": "A#1",
          "ticks": 14592,
          "time": 58.838744,
          "velocity": 0.7874015748031497
        },
        {
          "duration": 0.19354849999999857,
          "durationTicks": 48,
          "midi": 41,
          "name": "F2",
          "ticks": 14640,
          "time": 59.0322925,
          "velocity": 0.7874015748031497
        },
        {
          "duration": 0.19354849999999857,
          "durationTicks": 48,
          "midi": 34,
          "name": "A#1",
          "ticks": 14688,
          "time": 59.225840999999996,
          "velocity": 0.7874015748031497
        },
        {
          "duration": 0.19354849999999857,
          "durationTicks": 48,
          "midi": 41,
          "name": "F2",
          "ticks": 14736,
          "time": 59.419389499999994,
          "velocity": 0.7874015748031497
        },
        {
          "duration": 0.19354850000000567,
          "durationTicks": 48,
          "midi": 36,
          "name": "C2",
          "ticks": 14784,
          "time": 59.61293799999999,
          "velocity": 0.7874015748031497
        },
        {
          "duration": 0.19354849999999857,
          "durationTicks": 48,
          "midi": 43,
          "name": "G2",
          "ticks": 14832,
          "time": 59.8064865,
          "velocity": 0.7874015748031497
        },
        {
          "duration": 0.19354849999999857,
          "durationTicks": 48,
          "midi": 36,
          "name": "C2",
          "ticks": 14880,
          "time": 60.000035,
          "velocity": 0.7874015748031497
        },
        {
          "duration": 0.19354849999999857,
          "durationTicks": 48,
          "midi": 43,
          "name": "G2",
          "ticks": 14928,
          "time": 60.193583499999995,
          "velocity": 0.7874015748031497
        },
        {
          "duration": 0.19354849999999857,
          "durationTicks": 48,
          "midi": 38,
          "name": "D2",
          "ticks": 14976,
          "time": 60.387131999999994,
          "velocity": 0.7874015748031497
        },
        {
          "duration": 0.19354850000000567,
          "durationTicks": 48,
          "midi": 45,
          "name": "A2",
          "ticks": 15024,
          "time": 60.58068049999999,
          "velocity": 0.7874015748031497
        },
        {
          "duration": 0.19354849999999857,
          "durationTicks": 48,
          "midi": 38,
          "name": "D2",
          "ticks": 15072,
          "time": 60.774229,
          "velocity": 0.7874015748031497
        },
        {
          "duration": 0.19354849999999857,
          "durationTicks": 48,
          "midi": 45,
          "name": "A2",
          "ticks": 15120,
          "time": 60.9677775,
          "velocity": 0.7874015748031497
        },
        {
          "duration": 0.19354849999999857,
          "durationTicks": 48,
          "midi": 38,
          "name": "D2",
          "ticks": 15168,
          "time": 61.161325999999995,
          "velocity": 0.7874015748031497
        },
        {
          "duration": 0.19354849999999857,
          "durationTicks": 48,
          "midi": 45,
          "name": "A2",
          "ticks": 15216,
          "time": 61.354874499999994,
          "velocity": 0.7874015748031497
        },
        {
          "duration": 0.19354850000000567,
          "durationTicks": 48,
          "midi": 36,
          "name": "C2",
          "ticks": 15264,
          "time": 61.54842299999999,
          "velocity": 0.7874015748031497
        },
        {
          "duration": 0.19354849999999857,
          "durationTicks": 48,
          "midi": 43,
          "name": "G2",
          "ticks": 15312,
          "time": 61.7419715,
          "velocity": 0.7874015748031497
        },
        {
          "duration": 0.19354849999999857,
          "durationTicks": 48,
          "midi": 34,
          "name": "A#1",
          "ticks": 15360,
          "time": 61.93552,
          "velocity": 0.7874015748031497
        },
        {
          "duration": 0.19354849999999857,
          "durationTicks": 48,
          "midi": 41,
          "name": "F2",
          "ticks": 15408,
          "time": 62.129068499999995,
          "velocity": 0.7874015748031497
        },
        {
          "duration": 0.19354849999999857,
          "durationTicks": 48,
          "midi": 34,
          "name": "A#1",
          "ticks": 15456,
          "time": 62.322616999999994,
          "velocity": 0.7874015748031497
        },
        {
          "duration": 0.19354850000000567,
          "durationTicks": 48,
          "midi": 41,
          "name": "F2",
          "ticks": 15504,
          "time": 62.51616549999999,
          "velocity": 0.7874015748031497
        },
        {
          "duration": 0.19354849999999857,
          "durationTicks": 48,
          "midi": 36,
          "name": "C2",
          "ticks": 15552,
          "time": 62.709714,
          "velocity": 0.7874015748031497
        },
        {
          "duration": 0.19354849999999857,
          "durationTicks": 48,
          "midi": 43,
          "name": "G2",
          "ticks": 15600,
          "time": 62.9032625,
          "velocity": 0.7874015748031497
        },
        {
          "duration": 0.19354849999999857,
          "durationTicks": 48,
          "midi": 36,
          "name": "C2",
          "ticks": 15648,
          "time": 63.096810999999995,
          "velocity": 0.7874015748031497
        },
        {
          "duration": 0.19354849999999857,
          "durationTicks": 48,
          "midi": 43,
          "name": "G2",
          "ticks": 15696,
          "time": 63.290359499999994,
          "velocity": 0.7874015748031497
        },
        {
          "duration": 0.19354850000000567,
          "durationTicks": 48,
          "midi": 37,
          "name": "C#2",
          "ticks": 15744,
          "time": 63.48390799999999,
          "velocity": 0.7874015748031497
        },
        {
          "duration": 0.19354849999999857,
          "durationTicks": 48,
          "midi": 43,
          "name": "G2",
          "ticks": 15792,
          "time": 63.6774565,
          "velocity": 0.7874015748031497
        },
        {
          "duration": 0.19354849999999146,
          "durationTicks": 48,
          "midi": 37,
          "name": "C#2",
          "ticks": 15840,
          "time": 63.871005,
          "velocity": 0.7874015748031497
        },
        {
          "duration": 0.19354850000000567,
          "durationTicks": 48,
          "midi": 43,
          "name": "G2",
          "ticks": 15888,
          "time": 64.06455349999999,
          "velocity": 0.7874015748031497
        },
        {
          "duration": 0.19354850000000567,
          "durationTicks": 48,
          "midi": 38,
          "name": "D2",
          "ticks": 15936,
          "time": 64.258102,
          "velocity": 0.7874015748031497
        },
        {
          "duration": 0.19354849999999146,
          "durationTicks": 48,
          "midi": 45,
          "name": "A2",
          "ticks": 15984,
          "time": 64.4516505,
          "velocity": 0.7874015748031497
        },
        {
          "duration": 0.19354850000000567,
          "durationTicks": 48,
          "midi": 38,
          "name": "D2",
          "ticks": 16032,
          "time": 64.64519899999999,
          "velocity": 0.7874015748031497
        },
        {
          "duration": 0.19354849999999146,
          "durationTicks": 48,
          "midi": 45,
          "name": "A2",
          "ticks": 16080,
          "time": 64.8387475,
          "velocity": 0.7874015748031497
        },
        {
          "duration": 0.19354850000000567,
          "durationTicks": 48,
          "midi": 34,
          "name": "A#1",
          "ticks": 16128,
          "time": 65.03229599999999,
          "velocity": 0.7874015748031497
        },
        {
          "duration": 0.19354850000000567,
          "durationTicks": 48,
          "midi": 41,
          "name": "F2",
          "ticks": 16176,
          "time": 65.2258445,
          "velocity": 0.7874015748031497
        },
        {
          "duration": 0.19354849999999146,
          "durationTicks": 48,
          "midi": 34,
          "name": "A#1",
          "ticks": 16224,
          "time": 65.419393,
          "velocity": 0.7874015748031497
        },
        {
          "duration": 0.19354850000000567,
          "durationTicks": 48,
          "midi": 41,
          "name": "F2",
          "ticks": 16272,
          "time": 65.61294149999999,
          "velocity": 0.7874015748031497
        },
        {
          "duration": 0.19354849999999146,
          "durationTicks": 48,
          "midi": 36,
          "name": "C2",
          "ticks": 16320,
          "time": 65.80649,
          "velocity": 0.7874015748031497
        },
        {
          "duration": 0.19354850000000567,
          "durationTicks": 48,
          "midi": 43,
          "name": "G2",
          "ticks": 16368,
          "time": 66.00003849999999,
          "velocity": 0.7874015748031497
        },
        {
          "duration": 0.19354850000000567,
          "durationTicks": 48,
          "midi": 36,
          "name": "C2",
          "ticks": 16416,
          "time": 66.193587,
          "velocity": 0.7874015748031497
        },
        {
          "duration": 0.19354849999999146,
          "durationTicks": 48,
          "midi": 43,
          "name": "G2",
          "ticks": 16464,
          "time": 66.3871355,
          "velocity": 0.7874015748031497
        },
        {
          "duration": 0.19354850000000567,
          "durationTicks": 48,
          "midi": 38,
          "name": "D2",
          "ticks": 16512,
          "time": 66.58068399999999,
          "velocity": 0.7874015748031497
        },
        {
          "duration": 0.19354849999999146,
          "durationTicks": 48,
          "midi": 45,
          "name": "A2",
          "ticks": 16560,
          "time": 66.7742325,
          "velocity": 0.7874015748031497
        },
        {
          "duration": 0.19354850000000567,
          "durationTicks": 48,
          "midi": 38,
          "name": "D2",
          "ticks": 16608,
          "time": 66.96778099999999,
          "velocity": 0.7874015748031497
        },
        {
          "duration": 0.19354850000000567,
          "durationTicks": 48,
          "midi": 45,
          "name": "A2",
          "ticks": 16656,
          "time": 67.1613295,
          "velocity": 0.7874015748031497
        },
        {
          "duration": 0.19354849999999146,
          "durationTicks": 48,
          "midi": 38,
          "name": "D2",
          "ticks": 16704,
          "time": 67.354878,
          "velocity": 0.7874015748031497
        },
        {
          "duration": 0.19354850000000567,
          "durationTicks": 48,
          "midi": 45,
          "name": "A2",
          "ticks": 16752,
          "time": 67.54842649999999,
          "velocity": 0.7874015748031497
        },
        {
          "duration": 0.19354849999999146,
          "durationTicks": 48,
          "midi": 36,
          "name": "C2",
          "ticks": 16800,
          "time": 67.741975,
          "velocity": 0.7874015748031497
        },
        {
          "duration": 0.19354850000000567,
          "durationTicks": 48,
          "midi": 43,
          "name": "G2",
          "ticks": 16848,
          "time": 67.93552349999999,
          "velocity": 0.7874015748031497
        },
        {
          "duration": 0.19354850000000567,
          "durationTicks": 48,
          "midi": 34,
          "name": "A#1",
          "ticks": 16896,
          "time": 68.129072,
          "velocity": 0.7874015748031497
        },
        {
          "duration": 0.19354849999999146,
          "durationTicks": 48,
          "midi": 41,
          "name": "F2",
          "ticks": 16944,
          "time": 68.3226205,
          "velocity": 0.7874015748031497
        },
        {
          "duration": 0.19354850000000567,
          "durationTicks": 48,
          "midi": 34,
          "name": "A#1",
          "ticks": 16992,
          "time": 68.51616899999999,
          "velocity": 0.7874015748031497
        },
        {
          "duration": 0.19354849999999146,
          "durationTicks": 48,
          "midi": 41,
          "name": "F2",
          "ticks": 17040,
          "time": 68.7097175,
          "velocity": 0.7874015748031497
        },
        {
          "duration": 0.19354850000000567,
          "durationTicks": 48,
          "midi": 36,
          "name": "C2",
          "ticks": 17088,
          "time": 68.90326599999999,
          "velocity": 0.7874015748031497
        },
        {
          "duration": 0.19354850000000567,
          "durationTicks": 48,
          "midi": 43,
          "name": "G2",
          "ticks": 17136,
          "time": 69.0968145,
          "velocity": 0.7874015748031497
        },
        {
          "duration": 0.19354849999999146,
          "durationTicks": 48,
          "midi": 36,
          "name": "C2",
          "ticks": 17184,
          "time": 69.290363,
          "velocity": 0.7874015748031497
        },
        {
          "duration": 0.19354850000000567,
          "durationTicks": 48,
          "midi": 43,
          "name": "G2",
          "ticks": 17232,
          "time": 69.48391149999999,
          "velocity": 0.7874015748031497
        },
        {
          "duration": 0.19354849999999146,
          "durationTicks": 48,
          "midi": 37,
          "name": "C#2",
          "ticks": 17280,
          "time": 69.67746,
          "velocity": 0.7874015748031497
        },
        {
          "duration": 0.19354850000000567,
          "durationTicks": 48,
          "midi": 43,
          "name": "G2",
          "ticks": 17328,
          "time": 69.87100849999999,
          "velocity": 0.7874015748031497
        },
        {
          "duration": 0.19354850000000567,
          "durationTicks": 48,
          "midi": 37,
          "name": "C#2",
          "ticks": 17376,
          "time": 70.064557,
          "velocity": 0.7874015748031497
        },
        {
          "duration": 0.19354849999999146,
          "durationTicks": 48,
          "midi": 43,
          "name": "G2",
          "ticks": 17424,
          "time": 70.2581055,
          "velocity": 0.7874015748031497
        },
        {
          "duration": 0.19354850000000567,
          "durationTicks": 48,
          "midi": 38,
          "name": "D2",
          "ticks": 17472,
          "time": 70.45165399999999,
          "velocity": 0.7874015748031497
        },
        {
          "duration": 0.19354850000000567,
          "durationTicks": 48,
          "midi": 38,
          "name": "D2",
          "ticks": 17472,
          "time": 70.45165399999999,
          "velocity": 0.7874015748031497
        },
        {
          "duration": 0.19354850000000567,
          "durationTicks": 48,
          "midi": 38,
          "name": "D2",
          "ticks": 17544,
          "time": 70.74197674999999,
          "velocity": 0.7874015748031497
        },
        {
          "duration": 0.19354850000000567,
          "durationTicks": 48,
          "midi": 38,
          "name": "D2",
          "ticks": 17616,
          "time": 71.0322995,
          "velocity": 0.7874015748031497
        },
        {
          "duration": 0.19354849999999146,
          "durationTicks": 48,
          "midi": 34,
          "name": "A#1",
          "ticks": 17664,
          "time": 71.225848,
          "velocity": 0.7874015748031497
        },
        {
          "duration": 0.19354850000000567,
          "durationTicks": 48,
          "midi": 41,
          "name": "F2",
          "ticks": 17712,
          "time": 71.41939649999999,
          "velocity": 0.7874015748031497
        },
        {
          "duration": 0.19354849999999146,
          "durationTicks": 48,
          "midi": 34,
          "name": "A#1",
          "ticks": 17760,
          "time": 71.612945,
          "velocity": 0.7874015748031497
        },
        {
          "duration": 0.19354850000000567,
          "durationTicks": 48,
          "midi": 41,
          "name": "F2",
          "ticks": 17808,
          "time": 71.80649349999999,
          "velocity": 0.7874015748031497
        },
        {
          "duration": 0.19354850000000567,
          "durationTicks": 48,
          "midi": 33,
          "name": "A1",
          "ticks": 17856,
          "time": 72.000042,
          "velocity": 0.7874015748031497
        },
        {
          "duration": 0.19354849999999146,
          "durationTicks": 48,
          "midi": 40,
          "name": "E2",
          "ticks": 17904,
          "time": 72.1935905,
          "velocity": 0.7874015748031497
        },
        {
          "duration": 0.19354850000000567,
          "durationTicks": 48,
          "midi": 33,
          "name": "A1",
          "ticks": 17952,
          "time": 72.38713899999999,
          "velocity": 0.7874015748031497
        },
        {
          "duration": 0.19354849999999146,
          "durationTicks": 48,
          "midi": 40,
          "name": "E2",
          "ticks": 18000,
          "time": 72.5806875,
          "velocity": 0.7874015748031497
        },
        {
          "duration": 0.19354850000000567,
          "durationTicks": 48,
          "midi": 36,
          "name": "C2",
          "ticks": 18048,
          "time": 72.77423599999999,
          "velocity": 0.7874015748031497
        },
        {
          "duration": 0.19354850000000567,
          "durationTicks": 48,
          "midi": 43,
          "name": "G2",
          "ticks": 18096,
          "time": 72.9677845,
          "velocity": 0.7874015748031497
        },
        {
          "duration": 0.19354849999999146,
          "durationTicks": 48,
          "midi": 36,
          "name": "C2",
          "ticks": 18144,
          "time": 73.161333,
          "velocity": 0.7874015748031497
        },
        {
          "duration": 0.19354850000000567,
          "durationTicks": 48,
          "midi": 43,
          "name": "G2",
          "ticks": 18192,
          "time": 73.35488149999999,
          "velocity": 0.7874015748031497
        },
        {
          "duration": 0.19354849999999146,
          "durationTicks": 48,
          "midi": 35,
          "name": "B1",
          "ticks": 18240,
          "time": 73.54843,
          "velocity": 0.7874015748031497
        },
        {
          "duration": 0.19354850000000567,
          "durationTicks": 48,
          "midi": 42,
          "name": "F#2",
          "ticks": 18288,
          "time": 73.74197849999999,
          "velocity": 0.7874015748031497
        },
        {
          "duration": 0.19354850000000567,
          "durationTicks": 48,
          "midi": 35,
          "name": "B1",
          "ticks": 18336,
          "time": 73.935527,
          "velocity": 0.7874015748031497
        },
        {
          "duration": 0.19354849999999146,
          "durationTicks": 48,
          "midi": 42,
          "name": "F#2",
          "ticks": 18384,
          "time": 74.1290755,
          "velocity": 0.7874015748031497
        },
        {
          "duration": 0.19354850000000567,
          "durationTicks": 48,
          "midi": 34,
          "name": "A#1",
          "ticks": 18432,
          "time": 74.32262399999999,
          "velocity": 0.7874015748031497
        },
        {
          "duration": 0.19354849999999146,
          "durationTicks": 48,
          "midi": 41,
          "name": "F2",
          "ticks": 18480,
          "time": 74.5161725,
          "velocity": 0.7874015748031497
        },
        {
          "duration": 0.19354850000000567,
          "durationTicks": 48,
          "midi": 34,
          "name": "A#1",
          "ticks": 18528,
          "time": 74.70972099999999,
          "velocity": 0.7874015748031497
        },
        {
          "duration": 0.19354850000000567,
          "durationTicks": 48,
          "midi": 41,
          "name": "F2",
          "ticks": 18576,
          "time": 74.9032695,
          "velocity": 0.7874015748031497
        },
        {
          "duration": 0.19354849999999146,
          "durationTicks": 48,
          "midi": 33,
          "name": "A1",
          "ticks": 18624,
          "time": 75.096818,
          "velocity": 0.7874015748031497
        },
        {
          "duration": 0.19354850000000567,
          "durationTicks": 48,
          "midi": 40,
          "name": "E2",
          "ticks": 18672,
          "time": 75.29036649999999,
          "velocity": 0.7874015748031497
        },
        {
          "duration": 0.19354849999999146,
          "durationTicks": 48,
          "midi": 33,
          "name": "A1",
          "ticks": 18720,
          "time": 75.483915,
          "velocity": 0.7874015748031497
        },
        {
          "duration": 0.19354850000000567,
          "durationTicks": 48,
          "midi": 40,
          "name": "E2",
          "ticks": 18768,
          "time": 75.67746349999999,
          "velocity": 0.7874015748031497
        },
        {
          "duration": 0.19354850000000567,
          "durationTicks": 48,
          "midi": 36,
          "name": "C2",
          "ticks": 18816,
          "time": 75.871012,
          "velocity": 0.7874015748031497
        },
        {
          "duration": 0.19354849999999146,
          "durationTicks": 48,
          "midi": 43,
          "name": "G2",
          "ticks": 18864,
          "time": 76.0645605,
          "velocity": 0.7874015748031497
        },
        {
          "duration": 0.19354850000000567,
          "durationTicks": 48,
          "midi": 36,
          "name": "C2",
          "ticks": 18912,
          "time": 76.25810899999999,
          "velocity": 0.7874015748031497
        },
        {
          "duration": 0.19354849999999146,
          "durationTicks": 48,
          "midi": 43,
          "name": "G2",
          "ticks": 18960,
          "time": 76.4516575,
          "velocity": 0.7874015748031497
        },
        {
          "duration": 0.19354850000000567,
          "durationTicks": 48,
          "midi": 35,
          "name": "B1",
          "ticks": 19008,
          "time": 76.64520599999999,
          "velocity": 0.7874015748031497
        },
        {
          "duration": 0.19354850000000567,
          "durationTicks": 48,
          "midi": 42,
          "name": "F#2",
          "ticks": 19056,
          "time": 76.8387545,
          "velocity": 0.7874015748031497
        },
        {
          "duration": 0.19354849999999146,
          "durationTicks": 48,
          "midi": 35,
          "name": "B1",
          "ticks": 19104,
          "time": 77.032303,
          "velocity": 0.7874015748031497
        },
        {
          "duration": 0.19354850000000567,
          "durationTicks": 48,
          "midi": 42,
          "name": "F#2",
          "ticks": 19152,
          "time": 77.22585149999999,
          "velocity": 0.7874015748031497
        },
        {
          "duration": 0.19354849999999146,
          "durationTicks": 48,
          "midi": 34,
          "name": "A#1",
          "ticks": 19200,
          "time": 77.4194,
          "velocity": 0.7874015748031497
        },
        {
          "duration": 0.19354850000000567,
          "durationTicks": 48,
          "midi": 41,
          "name": "F2",
          "ticks": 19248,
          "time": 77.61294849999999,
          "velocity": 0.7874015748031497
        },
        {
          "duration": 0.19354850000000567,
          "durationTicks": 48,
          "midi": 34,
          "name": "A#1",
          "ticks": 19296,
          "time": 77.806497,
          "velocity": 0.7874015748031497
        },
        {
          "duration": 0.19354849999999146,
          "durationTicks": 48,
          "midi": 41,
          "name": "F2",
          "ticks": 19344,
          "time": 78.0000455,
          "velocity": 0.7874015748031497
        },
        {
          "duration": 0.19354850000000567,
          "durationTicks": 48,
          "midi": 33,
          "name": "A1",
          "ticks": 19392,
          "time": 78.19359399999999,
          "velocity": 0.7874015748031497
        },
        {
          "duration": 0.19354849999999146,
          "durationTicks": 48,
          "midi": 40,
          "name": "E2",
          "ticks": 19440,
          "time": 78.3871425,
          "velocity": 0.7874015748031497
        },
        {
          "duration": 0.19354850000000567,
          "durationTicks": 48,
          "midi": 33,
          "name": "A1",
          "ticks": 19488,
          "time": 78.58069099999999,
          "velocity": 0.7874015748031497
        },
        {
          "duration": 0.19354850000000567,
          "durationTicks": 48,
          "midi": 40,
          "name": "E2",
          "ticks": 19536,
          "time": 78.7742395,
          "velocity": 0.7874015748031497
        },
        {
          "duration": 0.19354849999999146,
          "durationTicks": 48,
          "midi": 36,
          "name": "C2",
          "ticks": 19584,
          "time": 78.967788,
          "velocity": 0.7874015748031497
        },
        {
          "duration": 0.19354850000000567,
          "durationTicks": 48,
          "midi": 43,
          "name": "G2",
          "ticks": 19632,
          "time": 79.16133649999999,
          "velocity": 0.7874015748031497
        },
        {
          "duration": 0.19354849999999146,
          "durationTicks": 48,
          "midi": 36,
          "name": "C2",
          "ticks": 19680,
          "time": 79.354885,
          "velocity": 0.7874015748031497
        },
        {
          "duration": 0.19354850000000567,
          "durationTicks": 48,
          "midi": 43,
          "name": "G2",
          "ticks": 19728,
          "time": 79.54843349999999,
          "velocity": 0.7874015748031497
        },
        {
          "duration": 0.19354850000000567,
          "durationTicks": 48,
          "midi": 35,
          "name": "B1",
          "ticks": 19776,
          "time": 79.741982,
          "velocity": 0.7874015748031497
        },
        {
          "duration": 0.19354849999999146,
          "durationTicks": 48,
          "midi": 42,
          "name": "F#2",
          "ticks": 19824,
          "time": 79.9355305,
          "velocity": 0.7874015748031497
        },
        {
          "duration": 0.19354850000000567,
          "durationTicks": 48,
          "midi": 35,
          "name": "B1",
          "ticks": 19872,
          "time": 80.12907899999999,
          "velocity": 0.7874015748031497
        },
        {
          "duration": 0.19354849999999146,
          "durationTicks": 48,
          "midi": 42,
          "name": "F#2",
          "ticks": 19920,
          "time": 80.3226275,
          "velocity": 0.7874015748031497
        },
        {
          "duration": 0.19354850000000567,
          "durationTicks": 48,
          "midi": 34,
          "name": "A#1",
          "ticks": 19968,
          "time": 80.51617599999999,
          "velocity": 0.7874015748031497
        },
        {
          "duration": 0.19354850000000567,
          "durationTicks": 48,
          "midi": 41,
          "name": "F2",
          "ticks": 20016,
          "time": 80.7097245,
          "velocity": 0.7874015748031497
        },
        {
          "duration": 0.19354849999999146,
          "durationTicks": 48,
          "midi": 34,
          "name": "A#1",
          "ticks": 20064,
          "time": 80.903273,
          "velocity": 0.7874015748031497
        },
        {
          "duration": 0.19354850000000567,
          "durationTicks": 48,
          "midi": 41,
          "name": "F2",
          "ticks": 20112,
          "time": 81.09682149999999,
          "velocity": 0.7874015748031497
        },
        {
          "duration": 0.19354849999999146,
          "durationTicks": 48,
          "midi": 33,
          "name": "A1",
          "ticks": 20160,
          "time": 81.29037,
          "velocity": 0.7874015748031497
        },
        {
          "duration": 0.19354850000000567,
          "durationTicks": 48,
          "midi": 40,
          "name": "E2",
          "ticks": 20208,
          "time": 81.48391849999999,
          "velocity": 0.7874015748031497
        },
        {
          "duration": 0.19354850000000567,
          "durationTicks": 48,
          "midi": 33,
          "name": "A1",
          "ticks": 20256,
          "time": 81.677467,
          "velocity": 0.7874015748031497
        },
        {
          "duration": 0.19354849999999146,
          "durationTicks": 48,
          "midi": 40,
          "name": "E2",
          "ticks": 20304,
          "time": 81.8710155,
          "velocity": 0.7874015748031497
        },
        {
          "duration": 0.19354850000000567,
          "durationTicks": 48,
          "midi": 36,
          "name": "C2",
          "ticks": 20352,
          "time": 82.06456399999999,
          "velocity": 0.7874015748031497
        },
        {
          "duration": 0.19354849999999146,
          "durationTicks": 48,
          "midi": 43,
          "name": "G2",
          "ticks": 20400,
          "time": 82.2581125,
          "velocity": 0.7874015748031497
        },
        {
          "duration": 0.19354850000000567,
          "durationTicks": 48,
          "midi": 36,
          "name": "C2",
          "ticks": 20448,
          "time": 82.45166099999999,
          "velocity": 0.7874015748031497
        },
        {
          "duration": 0.19354850000000567,
          "durationTicks": 48,
          "midi": 43,
          "name": "G2",
          "ticks": 20496,
          "time": 82.64520949999999,
          "velocity": 0.7874015748031497
        },
        {
          "duration": 0.19354849999999146,
          "durationTicks": 48,
          "midi": 35,
          "name": "B1",
          "ticks": 20544,
          "time": 82.838758,
          "velocity": 0.7874015748031497
        },
        {
          "duration": 0.19354850000000567,
          "durationTicks": 48,
          "midi": 42,
          "name": "F#2",
          "ticks": 20592,
          "time": 83.03230649999999,
          "velocity": 0.7874015748031497
        },
        {
          "duration": 0.19354849999999146,
          "durationTicks": 48,
          "midi": 35,
          "name": "B1",
          "ticks": 20640,
          "time": 83.225855,
          "velocity": 0.7874015748031497
        },
        {
          "duration": 0.19354850000000567,
          "durationTicks": 48,
          "midi": 42,
          "name": "F#2",
          "ticks": 20688,
          "time": 83.41940349999999,
          "velocity": 0.7874015748031497
        },
        {
          "duration": 0.19354850000000567,
          "durationTicks": 48,
          "midi": 34,
          "name": "A#1",
          "ticks": 20736,
          "time": 83.61295199999999,
          "velocity": 0.7874015748031497
        },
        {
          "duration": 0.19354849999999146,
          "durationTicks": 48,
          "midi": 41,
          "name": "F2",
          "ticks": 20784,
          "time": 83.8065005,
          "velocity": 0.7874015748031497
        },
        {
          "duration": 0.19354850000000567,
          "durationTicks": 48,
          "midi": 34,
          "name": "A#1",
          "ticks": 20832,
          "time": 84.00004899999999,
          "velocity": 0.7874015748031497
        },
        {
          "duration": 0.19354849999999146,
          "durationTicks": 48,
          "midi": 41,
          "name": "F2",
          "ticks": 20880,
          "time": 84.1935975,
          "velocity": 0.7874015748031497
        },
        {
          "duration": 0.19354850000000567,
          "durationTicks": 48,
          "midi": 33,
          "name": "A1",
          "ticks": 20928,
          "time": 84.38714599999999,
          "velocity": 0.7874015748031497
        },
        {
          "duration": 0.19354850000000567,
          "durationTicks": 48,
          "midi": 40,
          "name": "E2",
          "ticks": 20976,
          "time": 84.58069449999999,
          "velocity": 0.7874015748031497
        },
        {
          "duration": 0.19354849999999146,
          "durationTicks": 48,
          "midi": 33,
          "name": "A1",
          "ticks": 21024,
          "time": 84.774243,
          "velocity": 0.7874015748031497
        },
        {
          "duration": 0.19354850000000567,
          "durationTicks": 48,
          "midi": 40,
          "name": "E2",
          "ticks": 21072,
          "time": 84.96779149999999,
          "velocity": 0.7874015748031497
        },
        {
          "duration": 0.19354849999999146,
          "durationTicks": 48,
          "midi": 36,
          "name": "C2",
          "ticks": 21120,
          "time": 85.16134,
          "velocity": 0.7874015748031497
        },
        {
          "duration": 0.19354850000000567,
          "durationTicks": 48,
          "midi": 43,
          "name": "G2",
          "ticks": 21168,
          "time": 85.35488849999999,
          "velocity": 0.7874015748031497
        },
        {
          "duration": 0.19354850000000567,
          "durationTicks": 48,
          "midi": 36,
          "name": "C2",
          "ticks": 21216,
          "time": 85.54843699999999,
          "velocity": 0.7874015748031497
        },
        {
          "duration": 0.19354849999999146,
          "durationTicks": 48,
          "midi": 43,
          "name": "G2",
          "ticks": 21264,
          "time": 85.7419855,
          "velocity": 0.7874015748031497
        },
        {
          "duration": 0.19354850000000567,
          "durationTicks": 48,
          "midi": 35,
          "name": "B1",
          "ticks": 21312,
          "time": 85.93553399999999,
          "velocity": 0.7874015748031497
        },
        {
          "duration": 0.19354849999999146,
          "durationTicks": 48,
          "midi": 42,
          "name": "F#2",
          "ticks": 21360,
          "time": 86.1290825,
          "velocity": 0.7874015748031497
        },
        {
          "duration": 0.19354850000000567,
          "durationTicks": 48,
          "midi": 35,
          "name": "B1",
          "ticks": 21408,
          "time": 86.32263099999999,
          "velocity": 0.7874015748031497
        },
        {
          "duration": 0.19354850000000567,
          "durationTicks": 48,
          "midi": 42,
          "name": "F#2",
          "ticks": 21456,
          "time": 86.51617949999999,
          "velocity": 0.7874015748031497
        },
        {
          "duration": 0.19354849999999146,
          "durationTicks": 48,
          "midi": 34,
          "name": "A#1",
          "ticks": 21504,
          "time": 86.709728,
          "velocity": 0.7874015748031497
        },
        {
          "duration": 0.19354850000000567,
          "durationTicks": 48,
          "midi": 41,
          "name": "F2",
          "ticks": 21552,
          "time": 86.90327649999999,
          "velocity": 0.7874015748031497
        },
        {
          "duration": 0.19354849999999146,
          "durationTicks": 48,
          "midi": 34,
          "name": "A#1",
          "ticks": 21600,
          "time": 87.096825,
          "velocity": 0.7874015748031497
        },
        {
          "duration": 0.19354850000000567,
          "durationTicks": 48,
          "midi": 41,
          "name": "F2",
          "ticks": 21648,
          "time": 87.29037349999999,
          "velocity": 0.7874015748031497
        },
        {
          "duration": 0.19354850000000567,
          "durationTicks": 48,
          "midi": 33,
          "name": "A1",
          "ticks": 21696,
          "time": 87.48392199999999,
          "velocity": 0.7874015748031497
        },
        {
          "duration": 0.19354849999999146,
          "durationTicks": 48,
          "midi": 40,
          "name": "E2",
          "ticks": 21744,
          "time": 87.6774705,
          "velocity": 0.7874015748031497
        },
        {
          "duration": 0.19354850000000567,
          "durationTicks": 48,
          "midi": 33,
          "name": "A1",
          "ticks": 21792,
          "time": 87.87101899999999,
          "velocity": 0.7874015748031497
        },
        {
          "duration": 0.19354849999999146,
          "durationTicks": 48,
          "midi": 40,
          "name": "E2",
          "ticks": 21840,
          "time": 88.0645675,
          "velocity": 0.7874015748031497
        },
        {
          "duration": 0.19354850000000567,
          "durationTicks": 48,
          "midi": 36,
          "name": "C2",
          "ticks": 21888,
          "time": 88.25811599999999,
          "velocity": 0.7874015748031497
        },
        {
          "duration": 0.19354850000000567,
          "durationTicks": 48,
          "midi": 43,
          "name": "G2",
          "ticks": 21936,
          "time": 88.45166449999999,
          "velocity": 0.7874015748031497
        },
        {
          "duration": 0.19354849999999146,
          "durationTicks": 48,
          "midi": 36,
          "name": "C2",
          "ticks": 21984,
          "time": 88.645213,
          "velocity": 0.7874015748031497
        },
        {
          "duration": 0.19354850000000567,
          "durationTicks": 48,
          "midi": 43,
          "name": "G2",
          "ticks": 22032,
          "time": 88.83876149999999,
          "velocity": 0.7874015748031497
        },
        {
          "duration": 0.19354849999999146,
          "durationTicks": 48,
          "midi": 35,
          "name": "B1",
          "ticks": 22080,
          "time": 89.03231,
          "velocity": 0.7874015748031497
        },
        {
          "duration": 0.19354850000000567,
          "durationTicks": 48,
          "midi": 42,
          "name": "F#2",
          "ticks": 22128,
          "time": 89.22585849999999,
          "velocity": 0.7874015748031497
        },
        {
          "duration": 0.19354850000000567,
          "durationTicks": 48,
          "midi": 35,
          "name": "B1",
          "ticks": 22176,
          "time": 89.41940699999999,
          "velocity": 0.7874015748031497
        },
        {
          "duration": 0.19354849999999146,
          "durationTicks": 48,
          "midi": 42,
          "name": "F#2",
          "ticks": 22224,
          "time": 89.6129555,
          "velocity": 0.7874015748031497
        },
        {
          "duration": 0.19354850000000567,
          "durationTicks": 48,
          "midi": 34,
          "name": "A#1",
          "ticks": 22272,
          "time": 89.80650399999999,
          "velocity": 0.7874015748031497
        },
        {
          "duration": 0.19354849999999146,
          "durationTicks": 48,
          "midi": 41,
          "name": "F2",
          "ticks": 22320,
          "time": 90.0000525,
          "velocity": 0.7874015748031497
        },
        {
          "duration": 0.19354850000000567,
          "durationTicks": 48,
          "midi": 34,
          "name": "A#1",
          "ticks": 22368,
          "time": 90.19360099999999,
          "velocity": 0.7874015748031497
        },
        {
          "duration": 0.19354850000000567,
          "durationTicks": 48,
          "midi": 41,
          "name": "F2",
          "ticks": 22416,
          "time": 90.38714949999999,
          "velocity": 0.7874015748031497
        },
        {
          "duration": 0.19354849999999146,
          "durationTicks": 48,
          "midi": 33,
          "name": "A1",
          "ticks": 22464,
          "time": 90.580698,
          "velocity": 0.7874015748031497
        },
        {
          "duration": 0.19354850000000567,
          "durationTicks": 48,
          "midi": 40,
          "name": "E2",
          "ticks": 22512,
          "time": 90.77424649999999,
          "velocity": 0.7874015748031497
        },
        {
          "duration": 0.19354849999999146,
          "durationTicks": 48,
          "midi": 33,
          "name": "A1",
          "ticks": 22560,
          "time": 90.967795,
          "velocity": 0.7874015748031497
        },
        {
          "duration": 0.19354850000000567,
          "durationTicks": 48,
          "midi": 40,
          "name": "E2",
          "ticks": 22608,
          "time": 91.16134349999999,
          "velocity": 0.7874015748031497
        },
        {
          "duration": 0.19354850000000567,
          "durationTicks": 48,
          "midi": 36,
          "name": "C2",
          "ticks": 22656,
          "time": 91.35489199999999,
          "velocity": 0.7874015748031497
        },
        {
          "duration": 0.19354849999999146,
          "durationTicks": 48,
          "midi": 43,
          "name": "G2",
          "ticks": 22704,
          "time": 91.5484405,
          "velocity": 0.7874015748031497
        },
        {
          "duration": 0.19354850000000567,
          "durationTicks": 48,
          "midi": 36,
          "name": "C2",
          "ticks": 22752,
          "time": 91.74198899999999,
          "velocity": 0.7874015748031497
        },
        {
          "duration": 0.19354849999999146,
          "durationTicks": 48,
          "midi": 43,
          "name": "G2",
          "ticks": 22800,
          "time": 91.9355375,
          "velocity": 0.7874015748031497
        },
        {
          "duration": 0.19354850000000567,
          "durationTicks": 48,
          "midi": 35,
          "name": "B1",
          "ticks": 22848,
          "time": 92.12908599999999,
          "velocity": 0.7874015748031497
        },
        {
          "duration": 0.19354850000000567,
          "durationTicks": 48,
          "midi": 42,
          "name": "F#2",
          "ticks": 22896,
          "time": 92.32263449999999,
          "velocity": 0.7874015748031497
        },
        {
          "duration": 0.19354849999999146,
          "durationTicks": 48,
          "midi": 35,
          "name": "B1",
          "ticks": 22944,
          "time": 92.516183,
          "velocity": 0.7874015748031497
        },
        {
          "duration": 0.19354850000000567,
          "durationTicks": 48,
          "midi": 42,
          "name": "F#2",
          "ticks": 22992,
          "time": 92.70973149999999,
          "velocity": 0.7874015748031497
        },
        {
          "duration": 0.19354849999999146,
          "durationTicks": 48,
          "midi": 34,
          "name": "A#1",
          "ticks": 23040,
          "time": 92.90328,
          "velocity": 0.7874015748031497
        },
        {
          "duration": 0.19354850000000567,
          "durationTicks": 48,
          "midi": 41,
          "name": "F2",
          "ticks": 23088,
          "time": 93.09682849999999,
          "velocity": 0.7874015748031497
        },
        {
          "duration": 0.19354850000000567,
          "durationTicks": 48,
          "midi": 34,
          "name": "A#1",
          "ticks": 23136,
          "time": 93.29037699999999,
          "velocity": 0.7874015748031497
        },
        {
          "duration": 0.19354849999999146,
          "durationTicks": 48,
          "midi": 41,
          "name": "F2",
          "ticks": 23184,
          "time": 93.4839255,
          "velocity": 0.7874015748031497
        },
        {
          "duration": 0.19354850000000567,
          "durationTicks": 48,
          "midi": 33,
          "name": "A1",
          "ticks": 23232,
          "time": 93.67747399999999,
          "velocity": 0.7874015748031497
        },
        {
          "duration": 0.19354849999999146,
          "durationTicks": 48,
          "midi": 40,
          "name": "E2",
          "ticks": 23280,
          "time": 93.8710225,
          "velocity": 0.7874015748031497
        },
        {
          "duration": 0.19354850000000567,
          "durationTicks": 48,
          "midi": 33,
          "name": "A1",
          "ticks": 23328,
          "time": 94.06457099999999,
          "velocity": 0.7874015748031497
        },
        {
          "duration": 0.19354850000000567,
          "durationTicks": 48,
          "midi": 40,
          "name": "E2",
          "ticks": 23376,
          "time": 94.25811949999999,
          "velocity": 0.7874015748031497
        },
        {
          "duration": 0.19354849999999146,
          "durationTicks": 48,
          "midi": 36,
          "name": "C2",
          "ticks": 23424,
          "time": 94.451668,
          "velocity": 0.7874015748031497
        },
        {
          "duration": 0.19354850000000567,
          "durationTicks": 48,
          "midi": 43,
          "name": "G2",
          "ticks": 23472,
          "time": 94.64521649999999,
          "velocity": 0.7874015748031497
        },
        {
          "duration": 0.19354849999999146,
          "durationTicks": 48,
          "midi": 36,
          "name": "C2",
          "ticks": 23520,
          "time": 94.838765,
          "velocity": 0.7874015748031497
        },
        {
          "duration": 0.19354850000000567,
          "durationTicks": 48,
          "midi": 43,
          "name": "G2",
          "ticks": 23568,
          "time": 95.03231349999999,
          "velocity": 0.7874015748031497
        },
        {
          "duration": 0.19354850000000567,
          "durationTicks": 48,
          "midi": 35,
          "name": "B1",
          "ticks": 23616,
          "time": 95.22586199999999,
          "velocity": 0.7874015748031497
        },
        {
          "duration": 0.19354849999999146,
          "durationTicks": 48,
          "midi": 42,
          "name": "F#2",
          "ticks": 23664,
          "time": 95.4194105,
          "velocity": 0.7874015748031497
        },
        {
          "duration": 0.19354850000000567,
          "durationTicks": 48,
          "midi": 35,
          "name": "B1",
          "ticks": 23712,
          "time": 95.61295899999999,
          "velocity": 0.7874015748031497
        },
        {
          "duration": 0.19354849999999146,
          "durationTicks": 48,
          "midi": 42,
          "name": "F#2",
          "ticks": 23760,
          "time": 95.8065075,
          "velocity": 0.7874015748031497
        },
        {
          "duration": 0.19354849999999146,
          "durationTicks": 48,
          "midi": 42,
          "name": "F#2",
          "ticks": 24000,
          "time": 96.77425,
          "velocity": 0.7874015748031497
        },
        {
          "duration": 0.19354850000000567,
          "durationTicks": 48,
          "midi": 49,
          "name": "C#3",
          "ticks": 24048,
          "time": 96.96779849999999,
          "velocity": 0.7874015748031497
        },
        {
          "duration": 0.19354850000000567,
          "durationTicks": 48,
          "midi": 42,
          "name": "F#2",
          "ticks": 24096,
          "time": 97.16134699999999,
          "velocity": 0.7874015748031497
        },
        {
          "duration": 0.19354849999999146,
          "durationTicks": 48,
          "midi": 49,
          "name": "C#3",
          "ticks": 24144,
          "time": 97.3548955,
          "velocity": 0.7874015748031497
        },
        {
          "duration": 0.19354850000000567,
          "durationTicks": 48,
          "midi": 44,
          "name": "G#2",
          "ticks": 24192,
          "time": 97.54844399999999,
          "velocity": 0.7874015748031497
        },
        {
          "duration": 0.19354849999999146,
          "durationTicks": 48,
          "midi": 51,
          "name": "D#3",
          "ticks": 24240,
          "time": 97.7419925,
          "velocity": 0.7874015748031497
        },
        {
          "duration": 0.19354850000000567,
          "durationTicks": 48,
          "midi": 44,
          "name": "G#2",
          "ticks": 24288,
          "time": 97.93554099999999,
          "velocity": 0.7874015748031497
        },
        {
          "duration": 0.19354850000000567,
          "durationTicks": 48,
          "midi": 51,
          "name": "D#3",
          "ticks": 24336,
          "time": 98.12908949999999,
          "velocity": 0.7874015748031497
        },
        {
          "duration": 0.19354849999999146,
          "durationTicks": 48,
          "midi": 46,
          "name": "A#2",
          "ticks": 24384,
          "time": 98.322638,
          "velocity": 0.7874015748031497
        },
        {
          "duration": 0.19354850000000567,
          "durationTicks": 48,
          "midi": 53,
          "name": "F3",
          "ticks": 24432,
          "time": 98.51618649999999,
          "velocity": 0.7874015748031497
        },
        {
          "duration": 0.19354849999999146,
          "durationTicks": 48,
          "midi": 46,
          "name": "A#2",
          "ticks": 24480,
          "time": 98.709735,
          "velocity": 0.7874015748031497
        },
        {
          "duration": 0.19354850000000567,
          "durationTicks": 48,
          "midi": 53,
          "name": "F3",
          "ticks": 24528,
          "time": 98.90328349999999,
          "velocity": 0.7874015748031497
        },
        {
          "duration": 0.19354850000000567,
          "durationTicks": 48,
          "midi": 43,
          "name": "G2",
          "ticks": 24576,
          "time": 99.09683199999999,
          "velocity": 0.7874015748031497
        },
        {
          "duration": 0.19354849999999146,
          "durationTicks": 48,
          "midi": 51,
          "name": "D#3",
          "ticks": 24624,
          "time": 99.2903805,
          "velocity": 0.7874015748031497
        },
        {
          "duration": 0.19354850000000567,
          "durationTicks": 48,
          "midi": 43,
          "name": "G2",
          "ticks": 24672,
          "time": 99.48392899999999,
          "velocity": 0.7874015748031497
        },
        {
          "duration": 0.19354849999999146,
          "durationTicks": 48,
          "midi": 51,
          "name": "D#3",
          "ticks": 24720,
          "time": 99.6774775,
          "velocity": 0.7874015748031497
        },
        {
          "duration": 0.19354850000000567,
          "durationTicks": 48,
          "midi": 42,
          "name": "F#2",
          "ticks": 24768,
          "time": 99.87102599999999,
          "velocity": 0.7874015748031497
        },
        {
          "duration": 0.19354850000000567,
          "durationTicks": 48,
          "midi": 49,
          "name": "C#3",
          "ticks": 24816,
          "time": 100.06457449999999,
          "velocity": 0.7874015748031497
        },
        {
          "duration": 0.19354849999999146,
          "durationTicks": 48,
          "midi": 42,
          "name": "F#2",
          "ticks": 24864,
          "time": 100.258123,
          "velocity": 0.7874015748031497
        },
        {
          "duration": 0.19354850000000567,
          "durationTicks": 48,
          "midi": 49,
          "name": "C#3",
          "ticks": 24912,
          "time": 100.45167149999999,
          "velocity": 0.7874015748031497
        },
        {
          "duration": 0.19354849999999146,
          "durationTicks": 48,
          "midi": 44,
          "name": "G#2",
          "ticks": 24960,
          "time": 100.64522,
          "velocity": 0.7874015748031497
        },
        {
          "duration": 0.19354850000000567,
          "durationTicks": 48,
          "midi": 51,
          "name": "D#3",
          "ticks": 25008,
          "time": 100.83876849999999,
          "velocity": 0.7874015748031497
        },
        {
          "duration": 0.19354850000000567,
          "durationTicks": 48,
          "midi": 44,
          "name": "G#2",
          "ticks": 25056,
          "time": 101.03231699999999,
          "velocity": 0.7874015748031497
        },
        {
          "duration": 0.19354849999999146,
          "durationTicks": 48,
          "midi": 51,
          "name": "D#3",
          "ticks": 25104,
          "time": 101.2258655,
          "velocity": 0.7874015748031497
        },
        {
          "duration": 0.19354850000000567,
          "durationTicks": 48,
          "midi": 46,
          "name": "A#2",
          "ticks": 25152,
          "time": 101.41941399999999,
          "velocity": 0.7874015748031497
        },
        {
          "duration": 0.19354849999999146,
          "durationTicks": 48,
          "midi": 53,
          "name": "F3",
          "ticks": 25200,
          "time": 101.6129625,
          "velocity": 0.7874015748031497
        },
        {
          "duration": 0.19354850000000567,
          "durationTicks": 48,
          "midi": 46,
          "name": "A#2",
          "ticks": 25248,
          "time": 101.80651099999999,
          "velocity": 0.7874015748031497
        },
        {
          "duration": 0.19354850000000567,
          "durationTicks": 48,
          "midi": 53,
          "name": "F3",
          "ticks": 25296,
          "time": 102.00005949999999,
          "velocity": 0.7874015748031497
        },
        {
          "duration": 0.19354849999999146,
          "durationTicks": 48,
          "midi": 46,
          "name": "A#2",
          "ticks": 25344,
          "time": 102.193608,
          "velocity": 0.7874015748031497
        },
        {
          "duration": 0.19354850000000567,
          "durationTicks": 48,
          "midi": 53,
          "name": "F3",
          "ticks": 25392,
          "time": 102.38715649999999,
          "velocity": 0.7874015748031497
        },
        {
          "duration": 0.19354849999999146,
          "durationTicks": 48,
          "midi": 44,
          "name": "G#2",
          "ticks": 25440,
          "time": 102.580705,
          "velocity": 0.7874015748031497
        },
        {
          "duration": 0.19354850000000567,
          "durationTicks": 48,
          "midi": 51,
          "name": "D#3",
          "ticks": 25488,
          "time": 102.77425349999999,
          "velocity": 0.7874015748031497
        },
        {
          "duration": 0.19354850000000567,
          "durationTicks": 48,
          "midi": 42,
          "name": "F#2",
          "ticks": 25536,
          "time": 102.96780199999999,
          "velocity": 0.7874015748031497
        },
        {
          "duration": 0.19354849999999146,
          "durationTicks": 48,
          "midi": 49,
          "name": "C#3",
          "ticks": 25584,
          "time": 103.1613505,
          "velocity": 0.7874015748031497
        },
        {
          "duration": 0.19354850000000567,
          "durationTicks": 48,
          "midi": 42,
          "name": "F#2",
          "ticks": 25632,
          "time": 103.35489899999999,
          "velocity": 0.7874015748031497
        },
        {
          "duration": 0.19354849999999146,
          "durationTicks": 48,
          "midi": 49,
          "name": "C#3",
          "ticks": 25680,
          "time": 103.5484475,
          "velocity": 0.7874015748031497
        },
        {
          "duration": 0.19354850000000567,
          "durationTicks": 48,
          "midi": 44,
          "name": "G#2",
          "ticks": 25728,
          "time": 103.74199599999999,
          "velocity": 0.7874015748031497
        },
        {
          "duration": 0.19354850000000567,
          "durationTicks": 48,
          "midi": 51,
          "name": "D#3",
          "ticks": 25776,
          "time": 103.93554449999999,
          "velocity": 0.7874015748031497
        },
        {
          "duration": 0.19354849999999146,
          "durationTicks": 48,
          "midi": 44,
          "name": "G#2",
          "ticks": 25824,
          "time": 104.129093,
          "velocity": 0.7874015748031497
        },
        {
          "duration": 0.19354850000000567,
          "durationTicks": 48,
          "midi": 51,
          "name": "D#3",
          "ticks": 25872,
          "time": 104.32264149999999,
          "velocity": 0.7874015748031497
        },
        {
          "duration": 0.19354849999999146,
          "durationTicks": 48,
          "midi": 46,
          "name": "A#2",
          "ticks": 25920,
          "time": 104.51619,
          "velocity": 0.7874015748031497
        },
        {
          "duration": 0.19354850000000567,
          "durationTicks": 48,
          "midi": 53,
          "name": "F3",
          "ticks": 25968,
          "time": 104.70973849999999,
          "velocity": 0.7874015748031497
        },
        {
          "duration": 0.19354850000000567,
          "durationTicks": 48,
          "midi": 46,
          "name": "A#2",
          "ticks": 26016,
          "time": 104.90328699999999,
          "velocity": 0.7874015748031497
        },
        {
          "duration": 0.19354849999999146,
          "durationTicks": 48,
          "midi": 53,
          "name": "F3",
          "ticks": 26064,
          "time": 105.0968355,
          "velocity": 0.7874015748031497
        },
        {
          "duration": 0.19354850000000567,
          "durationTicks": 48,
          "midi": 43,
          "name": "G2",
          "ticks": 26112,
          "time": 105.29038399999999,
          "velocity": 0.7874015748031497
        },
        {
          "duration": 0.19354849999999146,
          "durationTicks": 48,
          "midi": 51,
          "name": "D#3",
          "ticks": 26160,
          "time": 105.4839325,
          "velocity": 0.7874015748031497
        },
        {
          "duration": 0.19354850000000567,
          "durationTicks": 48,
          "midi": 43,
          "name": "G2",
          "ticks": 26208,
          "time": 105.67748099999999,
          "velocity": 0.7874015748031497
        },
        {
          "duration": 0.19354850000000567,
          "durationTicks": 48,
          "midi": 51,
          "name": "D#3",
          "ticks": 26256,
          "time": 105.87102949999999,
          "velocity": 0.7874015748031497
        },
        {
          "duration": 0.19354849999999146,
          "durationTicks": 48,
          "midi": 42,
          "name": "F#2",
          "ticks": 26304,
          "time": 106.064578,
          "velocity": 0.7874015748031497
        },
        {
          "duration": 0.19354850000000567,
          "durationTicks": 48,
          "midi": 49,
          "name": "C#3",
          "ticks": 26352,
          "time": 106.25812649999999,
          "velocity": 0.7874015748031497
        },
        {
          "duration": 0.19354849999999146,
          "durationTicks": 48,
          "midi": 42,
          "name": "F#2",
          "ticks": 26400,
          "time": 106.451675,
          "velocity": 0.7874015748031497
        },
        {
          "duration": 0.19354850000000567,
          "durationTicks": 48,
          "midi": 49,
          "name": "C#3",
          "ticks": 26448,
          "time": 106.64522349999999,
          "velocity": 0.7874015748031497
        },
        {
          "duration": 0.19354850000000567,
          "durationTicks": 48,
          "midi": 44,
          "name": "G#2",
          "ticks": 26496,
          "time": 106.83877199999999,
          "velocity": 0.7874015748031497
        },
        {
          "duration": 0.19354849999999146,
          "durationTicks": 48,
          "midi": 51,
          "name": "D#3",
          "ticks": 26544,
          "time": 107.0323205,
          "velocity": 0.7874015748031497
        },
        {
          "duration": 0.19354850000000567,
          "durationTicks": 48,
          "midi": 44,
          "name": "G#2",
          "ticks": 26592,
          "time": 107.22586899999999,
          "velocity": 0.7874015748031497
        },
        {
          "duration": 0.19354849999999146,
          "durationTicks": 48,
          "midi": 51,
          "name": "D#3",
          "ticks": 26640,
          "time": 107.4194175,
          "velocity": 0.7874015748031497
        },
        {
          "duration": 0.19354850000000567,
          "durationTicks": 48,
          "midi": 46,
          "name": "A#2",
          "ticks": 26688,
          "time": 107.61296599999999,
          "velocity": 0.7874015748031497
        },
        {
          "duration": 0.19354850000000567,
          "durationTicks": 48,
          "midi": 53,
          "name": "F3",
          "ticks": 26736,
          "time": 107.80651449999999,
          "velocity": 0.7874015748031497
        },
        {
          "duration": 0.19354849999999146,
          "durationTicks": 48,
          "midi": 46,
          "name": "A#2",
          "ticks": 26784,
          "time": 108.000063,
          "velocity": 0.7874015748031497
        },
        {
          "duration": 0.19354850000000567,
          "durationTicks": 48,
          "midi": 53,
          "name": "F3",
          "ticks": 26832,
          "time": 108.19361149999999,
          "velocity": 0.7874015748031497
        },
        {
          "duration": 0.19354849999999146,
          "durationTicks": 48,
          "midi": 46,
          "name": "A#2",
          "ticks": 26880,
          "time": 108.38716,
          "velocity": 0.7874015748031497
        },
        {
          "duration": 0.19354850000000567,
          "durationTicks": 48,
          "midi": 53,
          "name": "F3",
          "ticks": 26928,
          "time": 108.58070849999999,
          "velocity": 0.7874015748031497
        },
        {
          "duration": 0.19354850000000567,
          "durationTicks": 48,
          "midi": 46,
          "name": "A#2",
          "ticks": 26976,
          "time": 108.77425699999999,
          "velocity": 0.7874015748031497
        },
        {
          "duration": 0.19354849999999146,
          "durationTicks": 48,
          "midi": 53,
          "name": "F3",
          "ticks": 27024,
          "time": 108.9678055,
          "velocity": 0.7874015748031497
        },
        {
          "duration": 0.19354850000000567,
          "durationTicks": 48,
          "midi": 42,
          "name": "F#2",
          "ticks": 27072,
          "time": 109.16135399999999,
          "velocity": 0.7874015748031497
        },
        {
          "duration": 0.19354849999999146,
          "durationTicks": 48,
          "midi": 49,
          "name": "C#3",
          "ticks": 27120,
          "time": 109.3549025,
          "velocity": 0.7874015748031497
        },
        {
          "duration": 0.19354850000000567,
          "durationTicks": 48,
          "midi": 42,
          "name": "F#2",
          "ticks": 27168,
          "time": 109.54845099999999,
          "velocity": 0.7874015748031497
        },
        {
          "duration": 0.19354850000000567,
          "durationTicks": 48,
          "midi": 49,
          "name": "C#3",
          "ticks": 27216,
          "time": 109.74199949999999,
          "velocity": 0.7874015748031497
        },
        {
          "duration": 0.19354849999999146,
          "durationTicks": 48,
          "midi": 44,
          "name": "G#2",
          "ticks": 27264,
          "time": 109.935548,
          "velocity": 0.7874015748031497
        },
        {
          "duration": 0.19354850000000567,
          "durationTicks": 48,
          "midi": 51,
          "name": "D#3",
          "ticks": 27312,
          "time": 110.12909649999999,
          "velocity": 0.7874015748031497
        },
        {
          "duration": 0.19354849999999146,
          "durationTicks": 48,
          "midi": 44,
          "name": "G#2",
          "ticks": 27360,
          "time": 110.322645,
          "velocity": 0.7874015748031497
        },
        {
          "duration": 0.19354850000000567,
          "durationTicks": 48,
          "midi": 51,
          "name": "D#3",
          "ticks": 27408,
          "time": 110.51619349999999,
          "velocity": 0.7874015748031497
        },
        {
          "duration": 0.19354850000000567,
          "durationTicks": 48,
          "midi": 46,
          "name": "A#2",
          "ticks": 27456,
          "time": 110.70974199999999,
          "velocity": 0.7874015748031497
        },
        {
          "duration": 0.19354849999999146,
          "durationTicks": 48,
          "midi": 53,
          "name": "F3",
          "ticks": 27504,
          "time": 110.9032905,
          "velocity": 0.7874015748031497
        },
        {
          "duration": 0.19354850000000567,
          "durationTicks": 48,
          "midi": 46,
          "name": "A#2",
          "ticks": 27552,
          "time": 111.09683899999999,
          "velocity": 0.7874015748031497
        },
        {
          "duration": 0.19354849999999146,
          "durationTicks": 48,
          "midi": 53,
          "name": "F3",
          "ticks": 27600,
          "time": 111.2903875,
          "velocity": 0.7874015748031497
        },
        {
          "duration": 0.19354850000000567,
          "durationTicks": 48,
          "midi": 43,
          "name": "G2",
          "ticks": 27648,
          "time": 111.48393599999999,
          "velocity": 0.7874015748031497
        },
        {
          "duration": 0.19354850000000567,
          "durationTicks": 48,
          "midi": 51,
          "name": "D#3",
          "ticks": 27696,
          "time": 111.67748449999999,
          "velocity": 0.7874015748031497
        },
        {
          "duration": 0.19354849999999146,
          "durationTicks": 48,
          "midi": 43,
          "name": "G2",
          "ticks": 27744,
          "time": 111.871033,
          "velocity": 0.7874015748031497
        },
        {
          "duration": 0.19354850000000567,
          "durationTicks": 48,
          "midi": 51,
          "name": "D#3",
          "ticks": 27792,
          "time": 112.06458149999999,
          "velocity": 0.7874015748031497
        },
        {
          "duration": 0.19354849999999146,
          "durationTicks": 48,
          "midi": 42,
          "name": "F#2",
          "ticks": 27840,
          "time": 112.25813,
          "velocity": 0.7874015748031497
        },
        {
          "duration": 0.19354850000000567,
          "durationTicks": 48,
          "midi": 49,
          "name": "C#3",
          "ticks": 27888,
          "time": 112.45167849999999,
          "velocity": 0.7874015748031497
        },
        {
          "duration": 0.19354850000000567,
          "durationTicks": 48,
          "midi": 42,
          "name": "F#2",
          "ticks": 27936,
          "time": 112.64522699999999,
          "velocity": 0.7874015748031497
        },
        {
          "duration": 0.19354849999999146,
          "durationTicks": 48,
          "midi": 49,
          "name": "C#3",
          "ticks": 27984,
          "time": 112.8387755,
          "velocity": 0.7874015748031497
        },
        {
          "duration": 0.19354850000000567,
          "durationTicks": 48,
          "midi": 44,
          "name": "G#2",
          "ticks": 28032,
          "time": 113.03232399999999,
          "velocity": 0.7874015748031497
        },
        {
          "duration": 0.19354849999999146,
          "durationTicks": 48,
          "midi": 51,
          "name": "D#3",
          "ticks": 28080,
          "time": 113.2258725,
          "velocity": 0.7874015748031497
        },
        {
          "duration": 0.19354850000000567,
          "durationTicks": 48,
          "midi": 44,
          "name": "G#2",
          "ticks": 28128,
          "time": 113.41942099999999,
          "velocity": 0.7874015748031497
        },
        {
          "duration": 0.19354850000000567,
          "durationTicks": 48,
          "midi": 51,
          "name": "D#3",
          "ticks": 28176,
          "time": 113.61296949999999,
          "velocity": 0.7874015748031497
        },
        {
          "duration": 0.19354849999999146,
          "durationTicks": 48,
          "midi": 46,
          "name": "A#2",
          "ticks": 28224,
          "time": 113.806518,
          "velocity": 0.7874015748031497
        },
        {
          "duration": 0.19354850000000567,
          "durationTicks": 48,
          "midi": 53,
          "name": "F3",
          "ticks": 28272,
          "time": 114.00006649999999,
          "velocity": 0.7874015748031497
        },
        {
          "duration": 0.19354849999999146,
          "durationTicks": 48,
          "midi": 46,
          "name": "A#2",
          "ticks": 28320,
          "time": 114.193615,
          "velocity": 0.7874015748031497
        },
        {
          "duration": 0.19354850000000567,
          "durationTicks": 48,
          "midi": 53,
          "name": "F3",
          "ticks": 28368,
          "time": 114.38716349999999,
          "velocity": 0.7874015748031497
        },
        {
          "duration": 0.19354850000000567,
          "durationTicks": 48,
          "midi": 46,
          "name": "A#2",
          "ticks": 28416,
          "time": 114.58071199999999,
          "velocity": 0.7874015748031497
        },
        {
          "duration": 0.19354849999999146,
          "durationTicks": 48,
          "midi": 53,
          "name": "F3",
          "ticks": 28464,
          "time": 114.7742605,
          "velocity": 0.7874015748031497
        },
        {
          "duration": 0.19354850000000567,
          "durationTicks": 48,
          "midi": 44,
          "name": "G#2",
          "ticks": 28512,
          "time": 114.96780899999999,
          "velocity": 0.7874015748031497
        },
        {
          "duration": 0.19354849999999146,
          "durationTicks": 48,
          "midi": 51,
          "name": "D#3",
          "ticks": 28560,
          "time": 115.1613575,
          "velocity": 0.7874015748031497
        },
        {
          "duration": 0.19354850000000567,
          "durationTicks": 48,
          "midi": 42,
          "name": "F#2",
          "ticks": 28608,
          "time": 115.35490599999999,
          "velocity": 0.7874015748031497
        },
        {
          "duration": 0.19354850000000567,
          "durationTicks": 48,
          "midi": 49,
          "name": "C#3",
          "ticks": 28656,
          "time": 115.54845449999999,
          "velocity": 0.7874015748031497
        },
        {
          "duration": 0.19354849999999146,
          "durationTicks": 48,
          "midi": 42,
          "name": "F#2",
          "ticks": 28704,
          "time": 115.742003,
          "velocity": 0.7874015748031497
        },
        {
          "duration": 0.19354850000000567,
          "durationTicks": 48,
          "midi": 49,
          "name": "C#3",
          "ticks": 28752,
          "time": 115.93555149999999,
          "velocity": 0.7874015748031497
        },
        {
          "duration": 0.19354849999999146,
          "durationTicks": 48,
          "midi": 44,
          "name": "G#2",
          "ticks": 28800,
          "time": 116.1291,
          "velocity": 0.7874015748031497
        },
        {
          "duration": 0.19354850000000567,
          "durationTicks": 48,
          "midi": 51,
          "name": "D#3",
          "ticks": 28848,
          "time": 116.32264849999999,
          "velocity": 0.7874015748031497
        },
        {
          "duration": 0.19354850000000567,
          "durationTicks": 48,
          "midi": 44,
          "name": "G#2",
          "ticks": 28896,
          "time": 116.51619699999999,
          "velocity": 0.7874015748031497
        },
        {
          "duration": 0.19354849999999146,
          "durationTicks": 48,
          "midi": 51,
          "name": "D#3",
          "ticks": 28944,
          "time": 116.7097455,
          "velocity": 0.7874015748031497
        },
        {
          "duration": 0.19354850000000567,
          "durationTicks": 48,
          "midi": 46,
          "name": "A#2",
          "ticks": 28992,
          "time": 116.90329399999999,
          "velocity": 0.7874015748031497
        },
        {
          "duration": 0.19354849999999146,
          "durationTicks": 48,
          "midi": 53,
          "name": "F3",
          "ticks": 29040,
          "time": 117.0968425,
          "velocity": 0.7874015748031497
        },
        {
          "duration": 0.19354850000000567,
          "durationTicks": 48,
          "midi": 46,
          "name": "A#2",
          "ticks": 29088,
          "time": 117.29039099999999,
          "velocity": 0.7874015748031497
        },
        {
          "duration": 0.19354850000000567,
          "durationTicks": 48,
          "midi": 53,
          "name": "F3",
          "ticks": 29136,
          "time": 117.48393949999999,
          "velocity": 0.7874015748031497
        },
        {
          "duration": 0.19354849999999146,
          "durationTicks": 48,
          "midi": 43,
          "name": "G2",
          "ticks": 29184,
          "time": 117.677488,
          "velocity": 0.7874015748031497
        },
        {
          "duration": 0.19354850000000567,
          "durationTicks": 48,
          "midi": 51,
          "name": "D#3",
          "ticks": 29232,
          "time": 117.87103649999999,
          "velocity": 0.7874015748031497
        },
        {
          "duration": 0.19354849999999146,
          "durationTicks": 48,
          "midi": 43,
          "name": "G2",
          "ticks": 29280,
          "time": 118.064585,
          "velocity": 0.7874015748031497
        },
        {
          "duration": 0.19354850000000567,
          "durationTicks": 48,
          "midi": 51,
          "name": "D#3",
          "ticks": 29328,
          "time": 118.25813349999999,
          "velocity": 0.7874015748031497
        },
        {
          "duration": 0.19354850000000567,
          "durationTicks": 48,
          "midi": 42,
          "name": "F#2",
          "ticks": 29376,
          "time": 118.45168199999999,
          "velocity": 0.7874015748031497
        },
        {
          "duration": 0.19354849999999146,
          "durationTicks": 48,
          "midi": 49,
          "name": "C#3",
          "ticks": 29424,
          "time": 118.6452305,
          "velocity": 0.7874015748031497
        },
        {
          "duration": 0.19354850000000567,
          "durationTicks": 48,
          "midi": 42,
          "name": "F#2",
          "ticks": 29472,
          "time": 118.83877899999999,
          "velocity": 0.7874015748031497
        },
        {
          "duration": 0.19354849999999146,
          "durationTicks": 48,
          "midi": 49,
          "name": "C#3",
          "ticks": 29520,
          "time": 119.0323275,
          "velocity": 0.7874015748031497
        },
        {
          "duration": 0.19354850000000567,
          "durationTicks": 48,
          "midi": 44,
          "name": "G#2",
          "ticks": 29568,
          "time": 119.22587599999999,
          "velocity": 0.7874015748031497
        },
        {
          "duration": 0.19354850000000567,
          "durationTicks": 48,
          "midi": 51,
          "name": "D#3",
          "ticks": 29616,
          "time": 119.41942449999999,
          "velocity": 0.7874015748031497
        },
        {
          "duration": 0.19354849999999146,
          "durationTicks": 48,
          "midi": 44,
          "name": "G#2",
          "ticks": 29664,
          "time": 119.612973,
          "velocity": 0.7874015748031497
        },
        {
          "duration": 0.19354850000000567,
          "durationTicks": 48,
          "midi": 51,
          "name": "D#3",
          "ticks": 29712,
          "time": 119.80652149999999,
          "velocity": 0.7874015748031497
        },
        {
          "duration": 0.19354849999999146,
          "durationTicks": 48,
          "midi": 46,
          "name": "A#2",
          "ticks": 29760,
          "time": 120.00007,
          "velocity": 0.7874015748031497
        },
        {
          "duration": 0.19354850000000567,
          "durationTicks": 48,
          "midi": 53,
          "name": "F3",
          "ticks": 29808,
          "time": 120.19361849999999,
          "velocity": 0.7874015748031497
        },
        {
          "duration": 0.19354850000000567,
          "durationTicks": 48,
          "midi": 46,
          "name": "A#2",
          "ticks": 29856,
          "time": 120.38716699999999,
          "velocity": 0.7874015748031497
        },
        {
          "duration": 0.19354849999999146,
          "durationTicks": 48,
          "midi": 53,
          "name": "F3",
          "ticks": 29904,
          "time": 120.5807155,
          "velocity": 0.7874015748031497
        },
        {
          "duration": 0.19354850000000567,
          "durationTicks": 48,
          "midi": 46,
          "name": "A#2",
          "ticks": 29952,
          "time": 120.77426399999999,
          "velocity": 0.7874015748031497
        },
        {
          "duration": 0.19354849999999146,
          "durationTicks": 48,
          "midi": 53,
          "name": "F3",
          "ticks": 30000,
          "time": 120.9678125,
          "velocity": 0.7874015748031497
        },
        {
          "duration": 0.19354850000000567,
          "durationTicks": 48,
          "midi": 46,
          "name": "A#2",
          "ticks": 30048,
          "time": 121.16136099999999,
          "velocity": 0.7874015748031497
        },
        {
          "duration": 0.19354850000000567,
          "durationTicks": 48,
          "midi": 53,
          "name": "F3",
          "ticks": 30096,
          "time": 121.35490949999999,
          "velocity": 0.7874015748031497
        }
      ]
    },
    {
      "channel": 0,
      "controlChanges": {
        "6": [
          {
            "number": 6,
            "ticks": 0,
            "time": 0,
            "value": 0.09448818897637795
          }
        ],
        "7": [
          {
            "number": 7,
            "ticks": 0,
            "time": 0,
            "value": 0.8503937007874016
          },
          {
            "number": 7,
            "ticks": 0,
            "time": 0,
            "value": 0.8503937007874016
          }
        ],
        "10": [
          {
            "number": 10,
            "ticks": 0,
            "time": 0,
            "value": 0.5039370078740157
          },
          {
            "number": 10,
            "ticks": 0,
            "time": 0,
            "value": 0.5039370078740157
          }
        ],
        "100": [
          {
            "number": 100,
            "ticks": 0,
            "time": 0,
            "value": 0
          }
        ],
        "101": [
          {
            "number": 101,
            "ticks": 0,
            "time": 0,
            "value": 0
          }
        ]
      },
      "pitchBends": [
        {
          "ticks": 0,
          "time": 0,
          "value": 0
        },
        {
          "ticks": 0,
          "time": 0,
          "value": 0
        }
      ],
      "instrument": {
        "family": "piano",
        "name": "acoustic grand piano",
        "number": 0
      },
      "name": "String Ensemble 1",
      "notes": []
    },
    {
      "channel": 0,
      "controlChanges": {
        "6": [
          {
            "number": 6,
            "ticks": 0,
            "time": 0,
            "value": 0.09448818897637795
          },
          {
            "number": 6,
            "ticks": 0,
            "time": 0,
            "value": 0.09448818897637795
          },
          {
            "number": 6,
            "ticks": 30336,
            "time": 122.32265199999999,
            "value": 0.09448818897637795
          },
          {
            "number": 6,
            "ticks": 30336,
            "time": 122.32265199999999,
            "value": 0.09448818897637795
          },
          {
            "number": 6,
            "ticks": 30336,
            "time": 122.32265199999999,
            "value": 0.09448818897637795
          }
        ],
        "7": [
          {
            "number": 7,
            "ticks": 0,
            "time": 0,
            "value": 0.8503937007874016
          },
          {
            "number": 7,
            "ticks": 0,
            "time": 0,
            "value": 0.8503937007874016
          },
          {
            "number": 7,
            "ticks": 30336,
            "time": 122.32265199999999,
            "value": 0.8503937007874016
          },
          {
            "number": 7,
            "ticks": 30336,
            "time": 122.32265199999999,
            "value": 0.8503937007874016
          },
          {
            "number": 7,
            "ticks": 30336,
            "time": 122.32265199999999,
            "value": 0.8503937007874016
          }
        ],
        "10": [
          {
            "number": 10,
            "ticks": 0,
            "time": 0,
            "value": 0.5039370078740157
          },
          {
            "number": 10,
            "ticks": 0,
            "time": 0,
            "value": 0.5039370078740157
          },
          {
            "number": 10,
            "ticks": 30336,
            "time": 122.32265199999999,
            "value": 0.5039370078740157
          },
          {
            "number": 10,
            "ticks": 30336,
            "time": 122.32265199999999,
            "value": 0.5039370078740157
          },
          {
            "number": 10,
            "ticks": 30336,
            "time": 122.32265199999999,
            "value": 0.5039370078740157
          }
        ],
        "100": [
          {
            "number": 100,
            "ticks": 0,
            "time": 0,
            "value": 0
          },
          {
            "number": 100,
            "ticks": 0,
            "time": 0,
            "value": 0
          },
          {
            "number": 100,
            "ticks": 30336,
            "time": 122.32265199999999,
            "value": 0
          },
          {
            "number": 100,
            "ticks": 30336,
            "time": 122.32265199999999,
            "value": 0
          },
          {
            "number": 100,
            "ticks": 30336,
            "time": 122.32265199999999,
            "value": 0
          }
        ],
        "101": [
          {
            "number": 101,
            "ticks": 0,
            "time": 0,
            "value": 0
          },
          {
            "number": 101,
            "ticks": 0,
            "time": 0,
            "value": 0
          },
          {
            "number": 101,
            "ticks": 30336,
            "time": 122.32265199999999,
            "value": 0
          },
          {
            "number": 101,
            "ticks": 30336,
            "time": 122.32265199999999,
            "value": 0
          },
          {
            "number": 101,
            "ticks": 30336,
            "time": 122.32265199999999,
            "value": 0
          }
        ]
      },
      "pitchBends": [
        {
          "ticks": 0,
          "time": 0,
          "value": 0
        },
        {
          "ticks": 0,
          "time": 0,
          "value": 0
        },
        {
          "ticks": 30336,
          "time": 122.32265199999999,
          "value": 0
        },
        {
          "ticks": 30336,
          "time": 122.32265199999999,
          "value": 0
        },
        {
          "ticks": 30336,
          "time": 122.32265199999999,
          "value": 0
        }
      ],
      "instrument": {
        "family": "ensemble",
        "name": "string ensemble 1",
        "number": 48
      },
      "name": "",
      "notes": [
        {
          "duration": 1.1612909999999999,
          "durationTicks": 288,
          "midi": 58,
          "name": "A#3",
          "ticks": 0,
          "time": 0,
          "velocity": 0.7874015748031497
        },
        {
          "duration": 1.1612909999999999,
          "durationTicks": 288,
          "midi": 53,
          "name": "F3",
          "ticks": 0,
          "time": 0,
          "velocity": 0.7874015748031497
        },
        {
          "duration": 1.1612909999999999,
          "durationTicks": 288,
          "midi": 61,
          "name": "C#4",
          "ticks": 0,
          "time": 0,
          "velocity": 0.7874015748031497
        },
        {
          "duration": 0.774194,
          "durationTicks": 192,
          "midi": 56,
          "name": "G#3",
          "ticks": 288,
          "time": 1.1612909999999999,
          "velocity": 0.7874015748031497
        },
        {
          "duration": 0.774194,
          "durationTicks": 192,
          "midi": 51,
          "name": "D#3",
          "ticks": 288,
          "time": 1.1612909999999999,
          "velocity": 0.7874015748031497
        },
        {
          "duration": 0.774194,
          "durationTicks": 192,
          "midi": 60,
          "name": "C4",
          "ticks": 288,
          "time": 1.1612909999999999,
          "velocity": 0.7874015748031497
        },
        {
          "duration": 1.1612909999999999,
          "durationTicks": 288,
          "midi": 53,
          "name": "F3",
          "ticks": 480,
          "time": 1.935485,
          "velocity": 0.7874015748031497
        },
        {
          "duration": 1.1612909999999999,
          "durationTicks": 288,
          "midi": 58,
          "name": "A#3",
          "ticks": 480,
          "time": 1.935485,
          "velocity": 0.7874015748031497
        },
        {
          "duration": 1.1612909999999999,
          "durationTicks": 288,
          "midi": 61,
          "name": "C#4",
          "ticks": 480,
          "time": 1.935485,
          "velocity": 0.7874015748031497
        },
        {
          "duration": 0.774194,
          "durationTicks": 192,
          "midi": 54,
          "name": "F#3",
          "ticks": 768,
          "time": 3.0967759999999998,
          "velocity": 0.7874015748031497
        },
        {
          "duration": 0.774194,
          "durationTicks": 192,
          "midi": 58,
          "name": "A#3",
          "ticks": 768,
          "time": 3.0967759999999998,
          "velocity": 0.7874015748031497
        },
        {
          "duration": 0.774194,
          "durationTicks": 192,
          "midi": 63,
          "name": "D#4",
          "ticks": 768,
          "time": 3.0967759999999998,
          "velocity": 0.7874015748031497
        },
        {
          "duration": 1.1612909999999994,
          "durationTicks": 288,
          "midi": 58,
          "name": "A#3",
          "ticks": 960,
          "time": 3.87097,
          "velocity": 0.7874015748031497
        },
        {
          "duration": 1.1612909999999994,
          "durationTicks": 288,
          "midi": 53,
          "name": "F3",
          "ticks": 960,
          "time": 3.87097,
          "velocity": 0.7874015748031497
        },
        {
          "duration": 1.1612909999999994,
          "durationTicks": 288,
          "midi": 61,
          "name": "C#4",
          "ticks": 960,
          "time": 3.87097,
          "velocity": 0.7874015748031497
        },
        {
          "duration": 0.7741940000000005,
          "durationTicks": 192,
          "midi": 56,
          "name": "G#3",
          "ticks": 1248,
          "time": 5.032260999999999,
          "velocity": 0.7874015748031497
        },
        {
          "duration": 0.7741940000000005,
          "durationTicks": 192,
          "midi": 51,
          "name": "D#3",
          "ticks": 1248,
          "time": 5.032260999999999,
          "velocity": 0.7874015748031497
        },
        {
          "duration": 0.7741940000000005,
          "durationTicks": 192,
          "midi": 60,
          "name": "C4",
          "ticks": 1248,
          "time": 5.032260999999999,
          "velocity": 0.7874015748031497
        },
        {
          "duration": 1.1612909999999994,
          "durationTicks": 288,
          "midi": 53,
          "name": "F3",
          "ticks": 1440,
          "time": 5.806455,
          "velocity": 0.7874015748031497
        },
        {
          "duration": 1.1612909999999994,
          "durationTicks": 288,
          "midi": 58,
          "name": "A#3",
          "ticks": 1440,
          "time": 5.806455,
          "velocity": 0.7874015748031497
        },
        {
          "duration": 1.1612909999999994,
          "durationTicks": 288,
          "midi": 61,
          "name": "C#4",
          "ticks": 1440,
          "time": 5.806455,
          "velocity": 0.7874015748031497
        },
        {
          "duration": 0.7741940000000005,
          "durationTicks": 192,
          "midi": 54,
          "name": "F#3",
          "ticks": 1728,
          "time": 6.967745999999999,
          "velocity": 0.7874015748031497
        },
        {
          "duration": 0.7741940000000005,
          "durationTicks": 192,
          "midi": 58,
          "name": "A#3",
          "ticks": 1728,
          "time": 6.967745999999999,
          "velocity": 0.7874015748031497
        },
        {
          "duration": 0.7741940000000005,
          "durationTicks": 192,
          "midi": 63,
          "name": "D#4",
          "ticks": 1728,
          "time": 6.967745999999999,
          "velocity": 0.7874015748031497
        },
        {
          "duration": 1.1612910000000003,
          "durationTicks": 288,
          "midi": 54,
          "name": "F#3",
          "ticks": 1920,
          "time": 7.74194,
          "velocity": 0.7874015748031497
        },
        {
          "duration": 1.1612910000000003,
          "durationTicks": 288,
          "midi": 58,
          "name": "A#3",
          "ticks": 1920,
          "time": 7.74194,
          "velocity": 0.7874015748031497
        },
        {
          "duration": 1.1612910000000003,
          "durationTicks": 288,
          "midi": 61,
          "name": "C#4",
          "ticks": 1920,
          "time": 7.74194,
          "velocity": 0.7874015748031497
        },
        {
          "duration": 0.7741939999999996,
          "durationTicks": 192,
          "midi": 53,
          "name": "F3",
          "ticks": 2208,
          "time": 8.903231,
          "velocity": 0.7874015748031497
        },
        {
          "duration": 0.7741939999999996,
          "durationTicks": 192,
          "midi": 56,
          "name": "G#3",
          "ticks": 2208,
          "time": 8.903231,
          "velocity": 0.7874015748031497
        },
        {
          "duration": 0.7741939999999996,
          "durationTicks": 192,
          "midi": 60,
          "name": "C4",
          "ticks": 2208,
          "time": 8.903231,
          "velocity": 0.7874015748031497
        },
        {
          "duration": 1.1612910000000003,
          "durationTicks": 288,
          "midi": 54,
          "name": "F#3",
          "ticks": 2400,
          "time": 9.677425,
          "velocity": 0.7874015748031497
        },
        {
          "duration": 1.1612910000000003,
          "durationTicks": 288,
          "midi": 58,
          "name": "A#3",
          "ticks": 2400,
          "time": 9.677425,
          "velocity": 0.7874015748031497
        },
        {
          "duration": 1.1612910000000003,
          "durationTicks": 288,
          "midi": 61,
          "name": "C#4",
          "ticks": 2400,
          "time": 9.677425,
          "velocity": 0.7874015748031497
        },
        {
          "duration": 0.7741939999999996,
          "durationTicks": 192,
          "midi": 63,
          "name": "D#4",
          "ticks": 2688,
          "time": 10.838716,
          "velocity": 0.7874015748031497
        },
        {
          "duration": 0.7741939999999996,
          "durationTicks": 192,
          "midi": 60,
          "name": "C4",
          "ticks": 2688,
          "time": 10.838716,
          "velocity": 0.7874015748031497
        },
        {
          "duration": 0.7741939999999996,
          "durationTicks": 192,
          "midi": 57,
          "name": "A3",
          "ticks": 2688,
          "time": 10.838716,
          "velocity": 0.7874015748031497
        },
        {
          "duration": 1.1612910000000003,
          "durationTicks": 288,
          "midi": 61,
          "name": "C#4",
          "ticks": 2880,
          "time": 11.61291,
          "velocity": 0.7874015748031497
        },
        {
          "duration": 1.1612910000000003,
          "durationTicks": 288,
          "midi": 53,
          "name": "F3",
          "ticks": 2880,
          "time": 11.61291,
          "velocity": 0.7874015748031497
        },
        {
          "duration": 1.1612910000000003,
          "durationTicks": 288,
          "midi": 58,
          "name": "A#3",
          "ticks": 2880,
          "time": 11.61291,
          "velocity": 0.7874015748031497
        },
        {
          "duration": 0.7741939999999996,
          "durationTicks": 192,
          "midi": 56,
          "name": "G#3",
          "ticks": 3168,
          "time": 12.774201,
          "velocity": 0.7874015748031497
        },
        {
          "duration": 0.7741939999999996,
          "durationTicks": 192,
          "midi": 51,
          "name": "D#3",
          "ticks": 3168,
          "time": 12.774201,
          "velocity": 0.7874015748031497
        },
        {
          "duration": 0.7741939999999996,
          "durationTicks": 192,
          "midi": 60,
          "name": "C4",
          "ticks": 3168,
          "time": 12.774201,
          "velocity": 0.7874015748031497
        },
        {
          "duration": 1.1612910000000003,
          "durationTicks": 288,
          "midi": 61,
          "name": "C#4",
          "ticks": 3360,
          "time": 13.548395,
          "velocity": 0.7874015748031497
        },
        {
          "duration": 1.1612910000000003,
          "durationTicks": 288,
          "midi": 58,
          "name": "A#3",
          "ticks": 3360,
          "time": 13.548395,
          "velocity": 0.7874015748031497
        },
        {
          "duration": 1.1612910000000003,
          "durationTicks": 288,
          "midi": 53,
          "name": "F3",
          "ticks": 3360,
          "time": 13.548395,
          "velocity": 0.7874015748031497
        },
        {
          "duration": 0.7741939999999996,
          "durationTicks": 192,
          "midi": 54,
          "name": "F#3",
          "ticks": 3648,
          "time": 14.709686,
          "velocity": 0.7874015748031497
        },
        {
          "duration": 0.7741939999999996,
          "durationTicks": 192,
          "midi": 58,
          "name": "A#3",
          "ticks": 3648,
          "time": 14.709686,
          "velocity": 0.7874015748031497
        },
        {
          "duration": 0.7741939999999996,
          "durationTicks": 192,
          "midi": 63,
          "name": "D#4",
          "ticks": 3648,
          "time": 14.709686,
          "velocity": 0.7874015748031497
        },
        {
          "duration": 0.7741939999999978,
          "durationTicks": 192,
          "midi": 58,
          "name": "A#3",
          "ticks": 3840,
          "time": 15.48388,
          "velocity": 0.7874015748031497
        },
        {
          "duration": 0.7741939999999978,
          "durationTicks": 192,
          "midi": 61,
          "name": "C#4",
          "ticks": 3840,
          "time": 15.48388,
          "velocity": 0.7874015748031497
        },
        {
          "duration": 0.7741939999999978,
          "durationTicks": 192,
          "midi": 53,
          "name": "F3",
          "ticks": 3840,
          "time": 15.48388,
          "velocity": 0.7874015748031497
        },
        {
          "duration": 0.7741940000000014,
          "durationTicks": 192,
          "midi": 57,
          "name": "A3",
          "ticks": 4032,
          "time": 16.258073999999997,
          "velocity": 0.7874015748031497
        },
        {
          "duration": 0.7741940000000014,
          "durationTicks": 192,
          "midi": 52,
          "name": "E3",
          "ticks": 4032,
          "time": 16.258073999999997,
          "velocity": 0.7874015748031497
        },
        {
          "duration": 0.7741940000000014,
          "durationTicks": 192,
          "midi": 60,
          "name": "C4",
          "ticks": 4032,
          "time": 16.258073999999997,
          "velocity": 0.7874015748031497
        },
        {
          "duration": 0.7741940000000014,
          "durationTicks": 192,
          "midi": 55,
          "name": "G3",
          "ticks": 4224,
          "time": 17.032268,
          "velocity": 0.7874015748031497
        },
        {
          "duration": 0.7741940000000014,
          "durationTicks": 192,
          "midi": 60,
          "name": "C4",
          "ticks": 4224,
          "time": 17.032268,
          "velocity": 0.7874015748031497
        },
        {
          "duration": 0.7741940000000014,
          "durationTicks": 192,
          "midi": 64,
          "name": "E4",
          "ticks": 4224,
          "time": 17.032268,
          "velocity": 0.7874015748031497
        },
        {
          "duration": 0.7741939999999978,
          "durationTicks": 192,
          "midi": 54,
          "name": "F#3",
          "ticks": 4416,
          "time": 17.806462,
          "velocity": 0.7874015748031497
        },
        {
          "duration": 0.7741939999999978,
          "durationTicks": 192,
          "midi": 59,
          "name": "B3",
          "ticks": 4416,
          "time": 17.806462,
          "velocity": 0.7874015748031497
        },
        {
          "duration": 0.7741939999999978,
          "durationTicks": 192,
          "midi": 63,
          "name": "D#4",
          "ticks": 4416,
          "time": 17.806462,
          "velocity": 0.7874015748031497
        },
        {
          "duration": 0.7741940000000014,
          "durationTicks": 192,
          "midi": 58,
          "name": "A#3",
          "ticks": 4608,
          "time": 18.580655999999998,
          "velocity": 0.7874015748031497
        },
        {
          "duration": 0.7741940000000014,
          "durationTicks": 192,
          "midi": 61,
          "name": "C#4",
          "ticks": 4608,
          "time": 18.580655999999998,
          "velocity": 0.7874015748031497
        },
        {
          "duration": 0.7741940000000014,
          "durationTicks": 192,
          "midi": 53,
          "name": "F3",
          "ticks": 4608,
          "time": 18.580655999999998,
          "velocity": 0.7874015748031497
        },
        {
          "duration": 0.7741939999999978,
          "durationTicks": 192,
          "midi": 57,
          "name": "A3",
          "ticks": 4800,
          "time": 19.35485,
          "velocity": 0.7874015748031497
        },
        {
          "duration": 0.7741939999999978,
          "durationTicks": 192,
          "midi": 52,
          "name": "E3",
          "ticks": 4800,
          "time": 19.35485,
          "velocity": 0.7874015748031497
        },
        {
          "duration": 0.7741939999999978,
          "durationTicks": 192,
          "midi": 60,
          "name": "C4",
          "ticks": 4800,
          "time": 19.35485,
          "velocity": 0.7874015748031497
        },
        {
          "duration": 0.7741940000000014,
          "durationTicks": 192,
          "midi": 55,
          "name": "G3",
          "ticks": 4992,
          "time": 20.129043999999997,
          "velocity": 0.7874015748031497
        },
        {
          "duration": 0.7741940000000014,
          "durationTicks": 192,
          "midi": 60,
          "name": "C4",
          "ticks": 4992,
          "time": 20.129043999999997,
          "velocity": 0.7874015748031497
        },
        {
          "duration": 0.7741940000000014,
          "durationTicks": 192,
          "midi": 64,
          "name": "E4",
          "ticks": 4992,
          "time": 20.129043999999997,
          "velocity": 0.7874015748031497
        },
        {
          "duration": 0.7741940000000014,
          "durationTicks": 192,
          "midi": 54,
          "name": "F#3",
          "ticks": 5184,
          "time": 20.903237999999998,
          "velocity": 0.7874015748031497
        },
        {
          "duration": 0.7741940000000014,
          "durationTicks": 192,
          "midi": 59,
          "name": "B3",
          "ticks": 5184,
          "time": 20.903237999999998,
          "velocity": 0.7874015748031497
        },
        {
          "duration": 0.7741940000000014,
          "durationTicks": 192,
          "midi": 63,
          "name": "D#4",
          "ticks": 5184,
          "time": 20.903237999999998,
          "velocity": 0.7874015748031497
        },
        {
          "duration": 0.7741939999999978,
          "durationTicks": 192,
          "midi": 58,
          "name": "A#3",
          "ticks": 5376,
          "time": 21.677432,
          "velocity": 0.7874015748031497
        },
        {
          "duration": 0.7741939999999978,
          "durationTicks": 192,
          "midi": 61,
          "name": "C#4",
          "ticks": 5376,
          "time": 21.677432,
          "velocity": 0.7874015748031497
        },
        {
          "duration": 0.7741939999999978,
          "durationTicks": 192,
          "midi": 53,
          "name": "F3",
          "ticks": 5376,
          "time": 21.677432,
          "velocity": 0.7874015748031497
        },
        {
          "duration": 0.7741940000000014,
          "durationTicks": 192,
          "midi": 57,
          "name": "A3",
          "ticks": 5568,
          "time": 22.451625999999997,
          "velocity": 0.7874015748031497
        },
        {
          "duration": 0.7741940000000014,
          "durationTicks": 192,
          "midi": 52,
          "name": "E3",
          "ticks": 5568,
          "time": 22.451625999999997,
          "velocity": 0.7874015748031497
        },
        {
          "duration": 0.7741940000000014,
          "durationTicks": 192,
          "midi": 60,
          "name": "C4",
          "ticks": 5568,
          "time": 22.451625999999997,
          "velocity": 0.7874015748031497
        },
        {
          "duration": 0.7741939999999978,
          "durationTicks": 192,
          "midi": 55,
          "name": "G3",
          "ticks": 5760,
          "time": 23.22582,
          "velocity": 0.7874015748031497
        },
        {
          "duration": 0.7741939999999978,
          "durationTicks": 192,
          "midi": 60,
          "name": "C4",
          "ticks": 5760,
          "time": 23.22582,
          "velocity": 0.7874015748031497
        },
        {
          "duration": 0.7741939999999978,
          "durationTicks": 192,
          "midi": 64,
          "name": "E4",
          "ticks": 5760,
          "time": 23.22582,
          "velocity": 0.7874015748031497
        },
        {
          "duration": 0.7741940000000014,
          "durationTicks": 192,
          "midi": 54,
          "name": "F#3",
          "ticks": 5952,
          "time": 24.000013999999997,
          "velocity": 0.7874015748031497
        },
        {
          "duration": 0.7741940000000014,
          "durationTicks": 192,
          "midi": 59,
          "name": "B3",
          "ticks": 5952,
          "time": 24.000013999999997,
          "velocity": 0.7874015748031497
        },
        {
          "duration": 0.7741940000000014,
          "durationTicks": 192,
          "midi": 63,
          "name": "D#4",
          "ticks": 5952,
          "time": 24.000013999999997,
          "velocity": 0.7874015748031497
        },
        {
          "duration": 0.7741940000000014,
          "durationTicks": 192,
          "midi": 53,
          "name": "F3",
          "ticks": 6144,
          "time": 24.774207999999998,
          "velocity": 0.7874015748031497
        },
        {
          "duration": 0.7741940000000014,
          "durationTicks": 192,
          "midi": 61,
          "name": "C#4",
          "ticks": 6144,
          "time": 24.774207999999998,
          "velocity": 0.7874015748031497
        },
        {
          "duration": 0.7741940000000014,
          "durationTicks": 192,
          "midi": 58,
          "name": "A#3",
          "ticks": 6144,
          "time": 24.774207999999998,
          "velocity": 0.7874015748031497
        },
        {
          "duration": 0.7741939999999978,
          "durationTicks": 192,
          "midi": 60,
          "name": "C4",
          "ticks": 6336,
          "time": 25.548402,
          "velocity": 0.7874015748031497
        },
        {
          "duration": 0.7741939999999978,
          "durationTicks": 192,
          "midi": 52,
          "name": "E3",
          "ticks": 6336,
          "time": 25.548402,
          "velocity": 0.7874015748031497
        },
        {
          "duration": 0.7741939999999978,
          "durationTicks": 192,
          "midi": 57,
          "name": "A3",
          "ticks": 6336,
          "time": 25.548402,
          "velocity": 0.7874015748031497
        },
        {
          "duration": 0.7741940000000014,
          "durationTicks": 192,
          "midi": 64,
          "name": "E4",
          "ticks": 6528,
          "time": 26.322595999999997,
          "velocity": 0.7874015748031497
        },
        {
          "duration": 0.7741940000000014,
          "durationTicks": 192,
          "midi": 60,
          "name": "C4",
          "ticks": 6528,
          "time": 26.322595999999997,
          "velocity": 0.7874015748031497
        },
        {
          "duration": 0.7741940000000014,
          "durationTicks": 192,
          "midi": 55,
          "name": "G3",
          "ticks": 6528,
          "time": 26.322595999999997,
          "velocity": 0.7874015748031497
        },
        {
          "duration": 0.7741939999999978,
          "durationTicks": 192,
          "midi": 63,
          "name": "D#4",
          "ticks": 6720,
          "time": 27.09679,
          "velocity": 0.7874015748031497
        },
        {
          "duration": 0.7741939999999978,
          "durationTicks": 192,
          "midi": 59,
          "name": "B3",
          "ticks": 6720,
          "time": 27.09679,
          "velocity": 0.7874015748031497
        },
        {
          "duration": 0.7741939999999978,
          "durationTicks": 192,
          "midi": 54,
          "name": "F#3",
          "ticks": 6720,
          "time": 27.09679,
          "velocity": 0.7874015748031497
        },
        {
          "duration": 0.7741940000000014,
          "durationTicks": 192,
          "midi": 49,
          "name": "C#3",
          "ticks": 6912,
          "time": 27.870983999999996,
          "velocity": 0.7874015748031497
        },
        {
          "duration": 0.7741940000000014,
          "durationTicks": 192,
          "midi": 54,
          "name": "F#3",
          "ticks": 6912,
          "time": 27.870983999999996,
          "velocity": 0.7874015748031497
        },
        {
          "duration": 0.7741940000000014,
          "durationTicks": 192,
          "midi": 58,
          "name": "A#3",
          "ticks": 6912,
          "time": 27.870983999999996,
          "velocity": 0.7874015748031497
        },
        {
          "duration": 0.7741940000000014,
          "durationTicks": 192,
          "midi": 51,
          "name": "D#3",
          "ticks": 7104,
          "time": 28.645177999999998,
          "velocity": 0.7874015748031497
        },
        {
          "duration": 0.7741940000000014,
          "durationTicks": 192,
          "midi": 56,
          "name": "G#3",
          "ticks": 7104,
          "time": 28.645177999999998,
          "velocity": 0.7874015748031497
        },
        {
          "duration": 0.7741940000000014,
          "durationTicks": 192,
          "midi": 60,
          "name": "C4",
          "ticks": 7104,
          "time": 28.645177999999998,
          "velocity": 0.7874015748031497
        },
        {
          "duration": 0.7741939999999978,
          "durationTicks": 192,
          "midi": 53,
          "name": "F3",
          "ticks": 7296,
          "time": 29.419372,
          "velocity": 0.7874015748031497
        },
        {
          "duration": 0.7741939999999978,
          "durationTicks": 192,
          "midi": 58,
          "name": "A#3",
          "ticks": 7296,
          "time": 29.419372,
          "velocity": 0.7874015748031497
        },
        {
          "duration": 0.7741939999999978,
          "durationTicks": 192,
          "midi": 61,
          "name": "C#4",
          "ticks": 7296,
          "time": 29.419372,
          "velocity": 0.7874015748031497
        },
        {
          "duration": 0.7741940000000014,
          "durationTicks": 192,
          "midi": 55,
          "name": "G3",
          "ticks": 7488,
          "time": 30.193565999999997,
          "velocity": 0.7874015748031497
        },
        {
          "duration": 0.7741940000000014,
          "durationTicks": 192,
          "midi": 58,
          "name": "A#3",
          "ticks": 7488,
          "time": 30.193565999999997,
          "velocity": 0.7874015748031497
        },
        {
          "duration": 0.7741940000000014,
          "durationTicks": 192,
          "midi": 63,
          "name": "D#4",
          "ticks": 7488,
          "time": 30.193565999999997,
          "velocity": 0.7874015748031497
        },
        {
          "duration": 0.7741939999999978,
          "durationTicks": 192,
          "midi": 49,
          "name": "C#3",
          "ticks": 7680,
          "time": 30.96776,
          "velocity": 0.7874015748031497
        },
        {
          "duration": 0.7741939999999978,
          "durationTicks": 192,
          "midi": 54,
          "name": "F#3",
          "ticks": 7680,
          "time": 30.96776,
          "velocity": 0.7874015748031497
        },
        {
          "duration": 0.7741939999999978,
          "durationTicks": 192,
          "midi": 58,
          "name": "A#3",
          "ticks": 7680,
          "time": 30.96776,
          "velocity": 0.7874015748031497
        },
        {
          "duration": 0.7741939999999978,
          "durationTicks": 192,
          "midi": 51,
          "name": "D#3",
          "ticks": 7872,
          "time": 31.741953999999996,
          "velocity": 0.7874015748031497
        },
        {
          "duration": 0.7741939999999978,
          "durationTicks": 192,
          "midi": 56,
          "name": "G#3",
          "ticks": 7872,
          "time": 31.741953999999996,
          "velocity": 0.7874015748031497
        },
        {
          "duration": 0.7741939999999978,
          "durationTicks": 192,
          "midi": 60,
          "name": "C4",
          "ticks": 7872,
          "time": 31.741953999999996,
          "velocity": 0.7874015748031497
        },
        {
          "duration": 1.5483880000000028,
          "durationTicks": 384,
          "midi": 53,
          "name": "F3",
          "ticks": 8064,
          "time": 32.516147999999994,
          "velocity": 0.7874015748031497
        },
        {
          "duration": 1.5483880000000028,
          "durationTicks": 384,
          "midi": 58,
          "name": "A#3",
          "ticks": 8064,
          "time": 32.516147999999994,
          "velocity": 0.7874015748031497
        },
        {
          "duration": 1.5483880000000028,
          "durationTicks": 384,
          "midi": 61,
          "name": "C#4",
          "ticks": 8064,
          "time": 32.516147999999994,
          "velocity": 0.7874015748031497
        },
        {
          "duration": 0.7741940000000014,
          "durationTicks": 192,
          "midi": 49,
          "name": "C#3",
          "ticks": 8448,
          "time": 34.064536,
          "velocity": 0.7874015748031497
        },
        {
          "duration": 0.7741940000000014,
          "durationTicks": 192,
          "midi": 54,
          "name": "F#3",
          "ticks": 8448,
          "time": 34.064536,
          "velocity": 0.7874015748031497
        },
        {
          "duration": 0.7741940000000014,
          "durationTicks": 192,
          "midi": 58,
          "name": "A#3",
          "ticks": 8448,
          "time": 34.064536,
          "velocity": 0.7874015748031497
        },
        {
          "duration": 0.7741940000000014,
          "durationTicks": 192,
          "midi": 51,
          "name": "D#3",
          "ticks": 8640,
          "time": 34.83873,
          "velocity": 0.7874015748031497
        },
        {
          "duration": 0.7741940000000014,
          "durationTicks": 192,
          "midi": 56,
          "name": "G#3",
          "ticks": 8640,
          "time": 34.83873,
          "velocity": 0.7874015748031497
        },
        {
          "duration": 0.7741940000000014,
          "durationTicks": 192,
          "midi": 60,
          "name": "C4",
          "ticks": 8640,
          "time": 34.83873,
          "velocity": 0.7874015748031497
        },
        {
          "duration": 0.7741939999999943,
          "durationTicks": 192,
          "midi": 53,
          "name": "F3",
          "ticks": 8832,
          "time": 35.612924,
          "velocity": 0.7874015748031497
        },
        {
          "duration": 0.7741939999999943,
          "durationTicks": 192,
          "midi": 58,
          "name": "A#3",
          "ticks": 8832,
          "time": 35.612924,
          "velocity": 0.7874015748031497
        },
        {
          "duration": 0.7741939999999943,
          "durationTicks": 192,
          "midi": 61,
          "name": "C#4",
          "ticks": 8832,
          "time": 35.612924,
          "velocity": 0.7874015748031497
        },
        {
          "duration": 0.7741940000000014,
          "durationTicks": 192,
          "midi": 55,
          "name": "G3",
          "ticks": 9024,
          "time": 36.387117999999994,
          "velocity": 0.7874015748031497
        },
        {
          "duration": 0.7741940000000014,
          "durationTicks": 192,
          "midi": 58,
          "name": "A#3",
          "ticks": 9024,
          "time": 36.387117999999994,
          "velocity": 0.7874015748031497
        },
        {
          "duration": 0.7741940000000014,
          "durationTicks": 192,
          "midi": 63,
          "name": "D#4",
          "ticks": 9024,
          "time": 36.387117999999994,
          "velocity": 0.7874015748031497
        },
        {
          "duration": 0.7741940000000014,
          "durationTicks": 192,
          "midi": 49,
          "name": "C#3",
          "ticks": 9216,
          "time": 37.161311999999995,
          "velocity": 0.7874015748031497
        },
        {
          "duration": 0.7741940000000014,
          "durationTicks": 192,
          "midi": 54,
          "name": "F#3",
          "ticks": 9216,
          "time": 37.161311999999995,
          "velocity": 0.7874015748031497
        },
        {
          "duration": 0.7741940000000014,
          "durationTicks": 192,
          "midi": 58,
          "name": "A#3",
          "ticks": 9216,
          "time": 37.161311999999995,
          "velocity": 0.7874015748031497
        },
        {
          "duration": 0.7741940000000014,
          "durationTicks": 192,
          "midi": 51,
          "name": "D#3",
          "ticks": 9408,
          "time": 37.935506,
          "velocity": 0.7874015748031497
        },
        {
          "duration": 0.7741940000000014,
          "durationTicks": 192,
          "midi": 56,
          "name": "G#3",
          "ticks": 9408,
          "time": 37.935506,
          "velocity": 0.7874015748031497
        },
        {
          "duration": 0.7741940000000014,
          "durationTicks": 192,
          "midi": 60,
          "name": "C4",
          "ticks": 9408,
          "time": 37.935506,
          "velocity": 0.7874015748031497
        },
        {
          "duration": 1.5483879999999957,
          "durationTicks": 384,
          "midi": 49,
          "name": "C#3",
          "ticks": 9600,
          "time": 38.7097,
          "velocity": 0.7874015748031497
        },
        {
          "duration": 1.5483879999999957,
          "durationTicks": 384,
          "midi": 53,
          "name": "F3",
          "ticks": 9600,
          "time": 38.7097,
          "velocity": 0.7874015748031497
        },
        {
          "duration": 1.5483879999999957,
          "durationTicks": 384,
          "midi": 58,
          "name": "A#3",
          "ticks": 9600,
          "time": 38.7097,
          "velocity": 0.7874015748031497
        },
        {
          "duration": 0.7741940000000014,
          "durationTicks": 192,
          "midi": 49,
          "name": "C#3",
          "ticks": 9984,
          "time": 40.258087999999994,
          "velocity": 0.7874015748031497
        },
        {
          "duration": 0.7741940000000014,
          "durationTicks": 192,
          "midi": 54,
          "name": "F#3",
          "ticks": 9984,
          "time": 40.258087999999994,
          "velocity": 0.7874015748031497
        },
        {
          "duration": 0.7741940000000014,
          "durationTicks": 192,
          "midi": 58,
          "name": "A#3",
          "ticks": 9984,
          "time": 40.258087999999994,
          "velocity": 0.7874015748031497
        },
        {
          "duration": 0.7741940000000014,
          "durationTicks": 192,
          "midi": 51,
          "name": "D#3",
          "ticks": 10176,
          "time": 41.032281999999995,
          "velocity": 0.7874015748031497
        },
        {
          "duration": 0.7741940000000014,
          "durationTicks": 192,
          "midi": 56,
          "name": "G#3",
          "ticks": 10176,
          "time": 41.032281999999995,
          "velocity": 0.7874015748031497
        },
        {
          "duration": 0.7741940000000014,
          "durationTicks": 192,
          "midi": 60,
          "name": "C4",
          "ticks": 10176,
          "time": 41.032281999999995,
          "velocity": 0.7874015748031497
        },
        {
          "duration": 0.7741940000000014,
          "durationTicks": 192,
          "midi": 53,
          "name": "F3",
          "ticks": 10368,
          "time": 41.806475999999996,
          "velocity": 0.7874015748031497
        },
        {
          "duration": 0.7741940000000014,
          "durationTicks": 192,
          "midi": 58,
          "name": "A#3",
          "ticks": 10368,
          "time": 41.806475999999996,
          "velocity": 0.7874015748031497
        },
        {
          "duration": 0.7741940000000014,
          "durationTicks": 192,
          "midi": 61,
          "name": "C#4",
          "ticks": 10368,
          "time": 41.806475999999996,
          "velocity": 0.7874015748031497
        },
        {
          "duration": 0.7741940000000014,
          "durationTicks": 192,
          "midi": 55,
          "name": "G3",
          "ticks": 10560,
          "time": 42.58067,
          "velocity": 0.7874015748031497
        },
        {
          "duration": 0.7741940000000014,
          "durationTicks": 192,
          "midi": 58,
          "name": "A#3",
          "ticks": 10560,
          "time": 42.58067,
          "velocity": 0.7874015748031497
        },
        {
          "duration": 0.7741940000000014,
          "durationTicks": 192,
          "midi": 63,
          "name": "D#4",
          "ticks": 10560,
          "time": 42.58067,
          "velocity": 0.7874015748031497
        },
        {
          "duration": 0.7741939999999943,
          "durationTicks": 192,
          "midi": 49,
          "name": "C#3",
          "ticks": 10752,
          "time": 43.354864,
          "velocity": 0.7874015748031497
        },
        {
          "duration": 0.7741939999999943,
          "durationTicks": 192,
          "midi": 54,
          "name": "F#3",
          "ticks": 10752,
          "time": 43.354864,
          "velocity": 0.7874015748031497
        },
        {
          "duration": 0.7741939999999943,
          "durationTicks": 192,
          "midi": 58,
          "name": "A#3",
          "ticks": 10752,
          "time": 43.354864,
          "velocity": 0.7874015748031497
        },
        {
          "duration": 0.7741940000000014,
          "durationTicks": 192,
          "midi": 51,
          "name": "D#3",
          "ticks": 10944,
          "time": 44.12905799999999,
          "velocity": 0.7874015748031497
        },
        {
          "duration": 0.7741940000000014,
          "durationTicks": 192,
          "midi": 56,
          "name": "G#3",
          "ticks": 10944,
          "time": 44.12905799999999,
          "velocity": 0.7874015748031497
        },
        {
          "duration": 0.7741940000000014,
          "durationTicks": 192,
          "midi": 60,
          "name": "C4",
          "ticks": 10944,
          "time": 44.12905799999999,
          "velocity": 0.7874015748031497
        },
        {
          "duration": 1.5483880000000028,
          "durationTicks": 384,
          "midi": 53,
          "name": "F3",
          "ticks": 11136,
          "time": 44.903251999999995,
          "velocity": 0.7874015748031497
        },
        {
          "duration": 1.5483880000000028,
          "durationTicks": 384,
          "midi": 58,
          "name": "A#3",
          "ticks": 11136,
          "time": 44.903251999999995,
          "velocity": 0.7874015748031497
        },
        {
          "duration": 1.5483880000000028,
          "durationTicks": 384,
          "midi": 61,
          "name": "C#4",
          "ticks": 11136,
          "time": 44.903251999999995,
          "velocity": 0.7874015748031497
        },
        {
          "duration": 0.7741940000000014,
          "durationTicks": 192,
          "midi": 49,
          "name": "C#3",
          "ticks": 11520,
          "time": 46.45164,
          "velocity": 0.7874015748031497
        },
        {
          "duration": 0.7741940000000014,
          "durationTicks": 192,
          "midi": 54,
          "name": "F#3",
          "ticks": 11520,
          "time": 46.45164,
          "velocity": 0.7874015748031497
        },
        {
          "duration": 0.7741940000000014,
          "durationTicks": 192,
          "midi": 58,
          "name": "A#3",
          "ticks": 11520,
          "time": 46.45164,
          "velocity": 0.7874015748031497
        },
        {
          "duration": 0.7741939999999943,
          "durationTicks": 192,
          "midi": 51,
          "name": "D#3",
          "ticks": 11712,
          "time": 47.225834,
          "velocity": 0.7874015748031497
        },
        {
          "duration": 0.7741939999999943,
          "durationTicks": 192,
          "midi": 56,
          "name": "G#3",
          "ticks": 11712,
          "time": 47.225834,
          "velocity": 0.7874015748031497
        },
        {
          "duration": 0.7741939999999943,
          "durationTicks": 192,
          "midi": 60,
          "name": "C4",
          "ticks": 11712,
          "time": 47.225834,
          "velocity": 0.7874015748031497
        },
        {
          "duration": 0.7741940000000014,
          "durationTicks": 192,
          "midi": 53,
          "name": "F3",
          "ticks": 11904,
          "time": 48.00002799999999,
          "velocity": 0.7874015748031497
        },
        {
          "duration": 0.7741940000000014,
          "durationTicks": 192,
          "midi": 58,
          "name": "A#3",
          "ticks": 11904,
          "time": 48.00002799999999,
          "velocity": 0.7874015748031497
        },
        {
          "duration": 0.7741940000000014,
          "durationTicks": 192,
          "midi": 61,
          "name": "C#4",
          "ticks": 11904,
          "time": 48.00002799999999,
          "velocity": 0.7874015748031497
        },
        {
          "duration": 0.7741940000000014,
          "durationTicks": 192,
          "midi": 55,
          "name": "G3",
          "ticks": 12096,
          "time": 48.774221999999995,
          "velocity": 0.7874015748031497
        },
        {
          "duration": 0.7741940000000014,
          "durationTicks": 192,
          "midi": 58,
          "name": "A#3",
          "ticks": 12096,
          "time": 48.774221999999995,
          "velocity": 0.7874015748031497
        },
        {
          "duration": 0.7741940000000014,
          "durationTicks": 192,
          "midi": 63,
          "name": "D#4",
          "ticks": 12096,
          "time": 48.774221999999995,
          "velocity": 0.7874015748031497
        },
        {
          "duration": 0.7741940000000014,
          "durationTicks": 192,
          "midi": 49,
          "name": "C#3",
          "ticks": 12288,
          "time": 49.548415999999996,
          "velocity": 0.7874015748031497
        },
        {
          "duration": 0.7741940000000014,
          "durationTicks": 192,
          "midi": 54,
          "name": "F#3",
          "ticks": 12288,
          "time": 49.548415999999996,
          "velocity": 0.7874015748031497
        },
        {
          "duration": 0.7741940000000014,
          "durationTicks": 192,
          "midi": 58,
          "name": "A#3",
          "ticks": 12288,
          "time": 49.548415999999996,
          "velocity": 0.7874015748031497
        },
        {
          "duration": 0.7741940000000014,
          "durationTicks": 192,
          "midi": 51,
          "name": "D#3",
          "ticks": 12480,
          "time": 50.32261,
          "velocity": 0.7874015748031497
        },
        {
          "duration": 0.7741940000000014,
          "durationTicks": 192,
          "midi": 56,
          "name": "G#3",
          "ticks": 12480,
          "time": 50.32261,
          "velocity": 0.7874015748031497
        },
        {
          "duration": 0.7741940000000014,
          "durationTicks": 192,
          "midi": 60,
          "name": "C4",
          "ticks": 12480,
          "time": 50.32261,
          "velocity": 0.7874015748031497
        },
        {
          "duration": 1.5483879999999957,
          "durationTicks": 384,
          "midi": 58,
          "name": "A#3",
          "ticks": 12672,
          "time": 51.096804,
          "velocity": 0.7874015748031497
        },
        {
          "duration": 1.5483879999999957,
          "durationTicks": 384,
          "midi": 49,
          "name": "C#3",
          "ticks": 12672,
          "time": 51.096804,
          "velocity": 0.7874015748031497
        },
        {
          "duration": 1.5483879999999957,
          "durationTicks": 384,
          "midi": 53,
          "name": "F3",
          "ticks": 12672,
          "time": 51.096804,
          "velocity": 0.7874015748031497
        },
        {
          "duration": 1.5483880000000028,
          "durationTicks": 384,
          "midi": 46,
          "name": "A#2",
          "ticks": 13056,
          "time": 52.645191999999994,
          "velocity": 0.7874015748031497
        },
        {
          "duration": 1.5483880000000028,
          "durationTicks": 384,
          "midi": 53,
          "name": "F3",
          "ticks": 13056,
          "time": 52.645191999999994,
          "velocity": 0.7874015748031497
        },
        {
          "duration": 1.5483880000000028,
          "durationTicks": 384,
          "midi": 58,
          "name": "A#3",
          "ticks": 13056,
          "time": 52.645191999999994,
          "velocity": 0.7874015748031497
        },
        {
          "duration": 1.5483879999999957,
          "durationTicks": 384,
          "midi": 46,
          "name": "A#2",
          "ticks": 13440,
          "time": 54.19358,
          "velocity": 0.7874015748031497
        },
        {
          "duration": 1.5483879999999957,
          "durationTicks": 384,
          "midi": 53,
          "name": "F3",
          "ticks": 13440,
          "time": 54.19358,
          "velocity": 0.7874015748031497
        },
        {
          "duration": 1.5483879999999957,
          "durationTicks": 384,
          "midi": 58,
          "name": "A#3",
          "ticks": 13440,
          "time": 54.19358,
          "velocity": 0.7874015748031497
        },
        {
          "duration": 1.5483880000000028,
          "durationTicks": 384,
          "midi": 50,
          "name": "D3",
          "ticks": 13824,
          "time": 55.74196799999999,
          "velocity": 0.7874015748031497
        },
        {
          "duration": 1.5483880000000028,
          "durationTicks": 384,
          "midi": 57,
          "name": "A3",
          "ticks": 13824,
          "time": 55.74196799999999,
          "velocity": 0.7874015748031497
        },
        {
          "duration": 1.5483880000000028,
          "durationTicks": 384,
          "midi": 62,
          "name": "D4",
          "ticks": 13824,
          "time": 55.74196799999999,
          "velocity": 0.7874015748031497
        },
        {
          "duration": 1.5483880000000028,
          "durationTicks": 384,
          "midi": 50,
          "name": "D3",
          "ticks": 14208,
          "time": 57.290355999999996,
          "velocity": 0.7874015748031497
        },
        {
          "duration": 1.5483880000000028,
          "durationTicks": 384,
          "midi": 57,
          "name": "A3",
          "ticks": 14208,
          "time": 57.290355999999996,
          "velocity": 0.7874015748031497
        },
        {
          "duration": 1.5483880000000028,
          "durationTicks": 384,
          "midi": 62,
          "name": "D4",
          "ticks": 14208,
          "time": 57.290355999999996,
          "velocity": 0.7874015748031497
        },
        {
          "duration": 0.7741939999999943,
          "durationTicks": 192,
          "midi": 53,
          "name": "F3",
          "ticks": 14592,
          "time": 58.838744,
          "velocity": 0.7874015748031497
        },
        {
          "duration": 0.7741939999999943,
          "durationTicks": 192,
          "midi": 46,
          "name": "A#2",
          "ticks": 14592,
          "time": 58.838744,
          "velocity": 0.7874015748031497
        },
        {
          "duration": 0.7741939999999943,
          "durationTicks": 192,
          "midi": 58,
          "name": "A#3",
          "ticks": 14592,
          "time": 58.838744,
          "velocity": 0.7874015748031497
        },
        {
          "duration": 0.7741940000000014,
          "durationTicks": 192,
          "midi": 60,
          "name": "C4",
          "ticks": 14784,
          "time": 59.61293799999999,
          "velocity": 0.7874015748031497
        },
        {
          "duration": 0.7741940000000014,
          "durationTicks": 192,
          "midi": 48,
          "name": "C3",
          "ticks": 14784,
          "time": 59.61293799999999,
          "velocity": 0.7874015748031497
        },
        {
          "duration": 0.7741940000000014,
          "durationTicks": 192,
          "midi": 55,
          "name": "G3",
          "ticks": 14784,
          "time": 59.61293799999999,
          "velocity": 0.7874015748031497
        },
        {
          "duration": 1.5483880000000028,
          "durationTicks": 384,
          "midi": 50,
          "name": "D3",
          "ticks": 14976,
          "time": 60.387131999999994,
          "velocity": 0.7874015748031497
        },
        {
          "duration": 1.5483880000000028,
          "durationTicks": 384,
          "midi": 57,
          "name": "A3",
          "ticks": 14976,
          "time": 60.387131999999994,
          "velocity": 0.7874015748031497
        },
        {
          "duration": 1.5483880000000028,
          "durationTicks": 384,
          "midi": 62,
          "name": "D4",
          "ticks": 14976,
          "time": 60.387131999999994,
          "velocity": 0.7874015748031497
        },
        {
          "duration": 0.7741940000000014,
          "durationTicks": 192,
          "midi": 53,
          "name": "F3",
          "ticks": 15360,
          "time": 61.93552,
          "velocity": 0.7874015748031497
        },
        {
          "duration": 0.7741940000000014,
          "durationTicks": 192,
          "midi": 46,
          "name": "A#2",
          "ticks": 15360,
          "time": 61.93552,
          "velocity": 0.7874015748031497
        },
        {
          "duration": 0.7741940000000014,
          "durationTicks": 192,
          "midi": 58,
          "name": "A#3",
          "ticks": 15360,
          "time": 61.93552,
          "velocity": 0.7874015748031497
        },
        {
          "duration": 0.7741939999999943,
          "durationTicks": 192,
          "midi": 60,
          "name": "C4",
          "ticks": 15552,
          "time": 62.709714,
          "velocity": 0.7874015748031497
        },
        {
          "duration": 0.7741939999999943,
          "durationTicks": 192,
          "midi": 48,
          "name": "C3",
          "ticks": 15552,
          "time": 62.709714,
          "velocity": 0.7874015748031497
        },
        {
          "duration": 0.7741939999999943,
          "durationTicks": 192,
          "midi": 55,
          "name": "G3",
          "ticks": 15552,
          "time": 62.709714,
          "velocity": 0.7874015748031497
        },
        {
          "duration": 0.7741940000000014,
          "durationTicks": 192,
          "midi": 49,
          "name": "C#3",
          "ticks": 15744,
          "time": 63.48390799999999,
          "velocity": 0.7874015748031497
        },
        {
          "duration": 0.7741940000000014,
          "durationTicks": 192,
          "midi": 57,
          "name": "A3",
          "ticks": 15744,
          "time": 63.48390799999999,
          "velocity": 0.7874015748031497
        },
        {
          "duration": 0.7741940000000014,
          "durationTicks": 192,
          "midi": 61,
          "name": "C#4",
          "ticks": 15744,
          "time": 63.48390799999999,
          "velocity": 0.7874015748031497
        },
        {
          "duration": 0.7741939999999943,
          "durationTicks": 192,
          "midi": 50,
          "name": "D3",
          "ticks": 15936,
          "time": 64.258102,
          "velocity": 0.7874015748031497
        },
        {
          "duration": 0.7741939999999943,
          "durationTicks": 192,
          "midi": 57,
          "name": "A3",
          "ticks": 15936,
          "time": 64.258102,
          "velocity": 0.7874015748031497
        },
        {
          "duration": 0.7741939999999943,
          "durationTicks": 192,
          "midi": 62,
          "name": "D4",
          "ticks": 15936,
          "time": 64.258102,
          "velocity": 0.7874015748031497
        },
        {
          "duration": 0.7741940000000085,
          "durationTicks": 192,
          "midi": 53,
          "name": "F3",
          "ticks": 16128,
          "time": 65.03229599999999,
          "velocity": 0.7874015748031497
        },
        {
          "duration": 0.7741940000000085,
          "durationTicks": 192,
          "midi": 46,
          "name": "A#2",
          "ticks": 16128,
          "time": 65.03229599999999,
          "velocity": 0.7874015748031497
        },
        {
          "duration": 0.7741940000000085,
          "durationTicks": 192,
          "midi": 58,
          "name": "A#3",
          "ticks": 16128,
          "time": 65.03229599999999,
          "velocity": 0.7874015748031497
        },
        {
          "duration": 0.7741939999999943,
          "durationTicks": 192,
          "midi": 60,
          "name": "C4",
          "ticks": 16320,
          "time": 65.80649,
          "velocity": 0.7874015748031497
        },
        {
          "duration": 0.7741939999999943,
          "durationTicks": 192,
          "midi": 48,
          "name": "C3",
          "ticks": 16320,
          "time": 65.80649,
          "velocity": 0.7874015748031497
        },
        {
          "duration": 0.7741939999999943,
          "durationTicks": 192,
          "midi": 55,
          "name": "G3",
          "ticks": 16320,
          "time": 65.80649,
          "velocity": 0.7874015748031497
        },
        {
          "duration": 1.5483880000000028,
          "durationTicks": 384,
          "midi": 50,
          "name": "D3",
          "ticks": 16512,
          "time": 66.58068399999999,
          "velocity": 0.7874015748031497
        },
        {
          "duration": 1.5483880000000028,
          "durationTicks": 384,
          "midi": 57,
          "name": "A3",
          "ticks": 16512,
          "time": 66.58068399999999,
          "velocity": 0.7874015748031497
        },
        {
          "duration": 1.5483880000000028,
          "durationTicks": 384,
          "midi": 62,
          "name": "D4",
          "ticks": 16512,
          "time": 66.58068399999999,
          "velocity": 0.7874015748031497
        },
        {
          "duration": 0.7741939999999943,
          "durationTicks": 192,
          "midi": 53,
          "name": "F3",
          "ticks": 16896,
          "time": 68.129072,
          "velocity": 0.7874015748031497
        },
        {
          "duration": 0.7741939999999943,
          "durationTicks": 192,
          "midi": 46,
          "name": "A#2",
          "ticks": 16896,
          "time": 68.129072,
          "velocity": 0.7874015748031497
        },
        {
          "duration": 0.7741939999999943,
          "durationTicks": 192,
          "midi": 58,
          "name": "A#3",
          "ticks": 16896,
          "time": 68.129072,
          "velocity": 0.7874015748031497
        },
        {
          "duration": 0.7741940000000085,
          "durationTicks": 192,
          "midi": 60,
          "name": "C4",
          "ticks": 17088,
          "time": 68.90326599999999,
          "velocity": 0.7874015748031497
        },
        {
          "duration": 0.7741940000000085,
          "durationTicks": 192,
          "midi": 48,
          "name": "C3",
          "ticks": 17088,
          "time": 68.90326599999999,
          "velocity": 0.7874015748031497
        },
        {
          "duration": 0.7741940000000085,
          "durationTicks": 192,
          "midi": 55,
          "name": "G3",
          "ticks": 17088,
          "time": 68.90326599999999,
          "velocity": 0.7874015748031497
        },
        {
          "duration": 0.7741939999999943,
          "durationTicks": 192,
          "midi": 49,
          "name": "C#3",
          "ticks": 17280,
          "time": 69.67746,
          "velocity": 0.7874015748031497
        },
        {
          "duration": 0.7741939999999943,
          "durationTicks": 192,
          "midi": 57,
          "name": "A3",
          "ticks": 17280,
          "time": 69.67746,
          "velocity": 0.7874015748031497
        },
        {
          "duration": 0.7741939999999943,
          "durationTicks": 192,
          "midi": 61,
          "name": "C#4",
          "ticks": 17280,
          "time": 69.67746,
          "velocity": 0.7874015748031497
        },
        {
          "duration": 0.7741939999999943,
          "durationTicks": 192,
          "midi": 53,
          "name": "F3",
          "ticks": 17664,
          "time": 71.225848,
          "velocity": 0.7874015748031497
        },
        {
          "duration": 0.7741939999999943,
          "durationTicks": 192,
          "midi": 61,
          "name": "C#4",
          "ticks": 17664,
          "time": 71.225848,
          "velocity": 0.7874015748031497
        },
        {
          "duration": 0.7741939999999943,
          "durationTicks": 192,
          "midi": 58,
          "name": "A#3",
          "ticks": 17664,
          "time": 71.225848,
          "velocity": 0.7874015748031497
        },
        {
          "duration": 0.7741939999999943,
          "durationTicks": 192,
          "midi": 60,
          "name": "C4",
          "ticks": 17856,
          "time": 72.000042,
          "velocity": 0.7874015748031497
        },
        {
          "duration": 0.7741939999999943,
          "durationTicks": 192,
          "midi": 52,
          "name": "E3",
          "ticks": 17856,
          "time": 72.000042,
          "velocity": 0.7874015748031497
        },
        {
          "duration": 0.7741939999999943,
          "durationTicks": 192,
          "midi": 57,
          "name": "A3",
          "ticks": 17856,
          "time": 72.000042,
          "velocity": 0.7874015748031497
        },
        {
          "duration": 0.7741940000000085,
          "durationTicks": 192,
          "midi": 64,
          "name": "E4",
          "ticks": 18048,
          "time": 72.77423599999999,
          "velocity": 0.7874015748031497
        },
        {
          "duration": 0.7741940000000085,
          "durationTicks": 192,
          "midi": 60,
          "name": "C4",
          "ticks": 18048,
          "time": 72.77423599999999,
          "velocity": 0.7874015748031497
        },
        {
          "duration": 0.7741940000000085,
          "durationTicks": 192,
          "midi": 55,
          "name": "G3",
          "ticks": 18048,
          "time": 72.77423599999999,
          "velocity": 0.7874015748031497
        },
        {
          "duration": 0.7741939999999943,
          "durationTicks": 192,
          "midi": 63,
          "name": "D#4",
          "ticks": 18240,
          "time": 73.54843,
          "velocity": 0.7874015748031497
        },
        {
          "duration": 0.7741939999999943,
          "durationTicks": 192,
          "midi": 59,
          "name": "B3",
          "ticks": 18240,
          "time": 73.54843,
          "velocity": 0.7874015748031497
        },
        {
          "duration": 0.7741939999999943,
          "durationTicks": 192,
          "midi": 54,
          "name": "F#3",
          "ticks": 18240,
          "time": 73.54843,
          "velocity": 0.7874015748031497
        },
        {
          "duration": 0.7741940000000085,
          "durationTicks": 192,
          "midi": 53,
          "name": "F3",
          "ticks": 18432,
          "time": 74.32262399999999,
          "velocity": 0.7874015748031497
        },
        {
          "duration": 0.7741940000000085,
          "durationTicks": 192,
          "midi": 61,
          "name": "C#4",
          "ticks": 18432,
          "time": 74.32262399999999,
          "velocity": 0.7874015748031497
        },
        {
          "duration": 0.7741940000000085,
          "durationTicks": 192,
          "midi": 58,
          "name": "A#3",
          "ticks": 18432,
          "time": 74.32262399999999,
          "velocity": 0.7874015748031497
        },
        {
          "duration": 0.7741939999999943,
          "durationTicks": 192,
          "midi": 60,
          "name": "C4",
          "ticks": 18624,
          "time": 75.096818,
          "velocity": 0.7874015748031497
        },
        {
          "duration": 0.7741939999999943,
          "durationTicks": 192,
          "midi": 52,
          "name": "E3",
          "ticks": 18624,
          "time": 75.096818,
          "velocity": 0.7874015748031497
        },
        {
          "duration": 0.7741939999999943,
          "durationTicks": 192,
          "midi": 57,
          "name": "A3",
          "ticks": 18624,
          "time": 75.096818,
          "velocity": 0.7874015748031497
        },
        {
          "duration": 0.7741939999999943,
          "durationTicks": 192,
          "midi": 64,
          "name": "E4",
          "ticks": 18816,
          "time": 75.871012,
          "velocity": 0.7874015748031497
        },
        {
          "duration": 0.7741939999999943,
          "durationTicks": 192,
          "midi": 60,
          "name": "C4",
          "ticks": 18816,
          "time": 75.871012,
          "velocity": 0.7874015748031497
        },
        {
          "duration": 0.7741939999999943,
          "durationTicks": 192,
          "midi": 55,
          "name": "G3",
          "ticks": 18816,
          "time": 75.871012,
          "velocity": 0.7874015748031497
        },
        {
          "duration": 0.7741940000000085,
          "durationTicks": 192,
          "midi": 63,
          "name": "D#4",
          "ticks": 19008,
          "time": 76.64520599999999,
          "velocity": 0.7874015748031497
        },
        {
          "duration": 0.7741940000000085,
          "durationTicks": 192,
          "midi": 59,
          "name": "B3",
          "ticks": 19008,
          "time": 76.64520599999999,
          "velocity": 0.7874015748031497
        },
        {
          "duration": 0.7741940000000085,
          "durationTicks": 192,
          "midi": 54,
          "name": "F#3",
          "ticks": 19008,
          "time": 76.64520599999999,
          "velocity": 0.7874015748031497
        },
        {
          "duration": 0.7741939999999943,
          "durationTicks": 192,
          "midi": 58,
          "name": "A#3",
          "ticks": 19200,
          "time": 77.4194,
          "velocity": 0.7874015748031497
        },
        {
          "duration": 0.7741939999999943,
          "durationTicks": 192,
          "midi": 61,
          "name": "C#4",
          "ticks": 19200,
          "time": 77.4194,
          "velocity": 0.7874015748031497
        },
        {
          "duration": 0.7741939999999943,
          "durationTicks": 192,
          "midi": 53,
          "name": "F3",
          "ticks": 19200,
          "time": 77.4194,
          "velocity": 0.7874015748031497
        },
        {
          "duration": 0.7741940000000085,
          "durationTicks": 192,
          "midi": 60,
          "name": "C4",
          "ticks": 19392,
          "time": 78.19359399999999,
          "velocity": 0.7874015748031497
        },
        {
          "duration": 0.7741940000000085,
          "durationTicks": 192,
          "midi": 52,
          "name": "E3",
          "ticks": 19392,
          "time": 78.19359399999999,
          "velocity": 0.7874015748031497
        },
        {
          "duration": 0.7741940000000085,
          "durationTicks": 192,
          "midi": 57,
          "name": "A3",
          "ticks": 19392,
          "time": 78.19359399999999,
          "velocity": 0.7874015748031497
        },
        {
          "duration": 0.7741939999999943,
          "durationTicks": 192,
          "midi": 55,
          "name": "G3",
          "ticks": 19584,
          "time": 78.967788,
          "velocity": 0.7874015748031497
        },
        {
          "duration": 0.7741939999999943,
          "durationTicks": 192,
          "midi": 60,
          "name": "C4",
          "ticks": 19584,
          "time": 78.967788,
          "velocity": 0.7874015748031497
        },
        {
          "duration": 0.7741939999999943,
          "durationTicks": 192,
          "midi": 64,
          "name": "E4",
          "ticks": 19584,
          "time": 78.967788,
          "velocity": 0.7874015748031497
        },
        {
          "duration": 0.7741939999999943,
          "durationTicks": 192,
          "midi": 63,
          "name": "D#4",
          "ticks": 19776,
          "time": 79.741982,
          "velocity": 0.7874015748031497
        },
        {
          "duration": 0.7741939999999943,
          "durationTicks": 192,
          "midi": 59,
          "name": "B3",
          "ticks": 19776,
          "time": 79.741982,
          "velocity": 0.7874015748031497
        },
        {
          "duration": 0.7741939999999943,
          "durationTicks": 192,
          "midi": 54,
          "name": "F#3",
          "ticks": 19776,
          "time": 79.741982,
          "velocity": 0.7874015748031497
        },
        {
          "duration": 0.7741940000000085,
          "durationTicks": 192,
          "midi": 53,
          "name": "F3",
          "ticks": 19968,
          "time": 80.51617599999999,
          "velocity": 0.7874015748031497
        },
        {
          "duration": 0.7741940000000085,
          "durationTicks": 192,
          "midi": 61,
          "name": "C#4",
          "ticks": 19968,
          "time": 80.51617599999999,
          "velocity": 0.7874015748031497
        },
        {
          "duration": 0.7741940000000085,
          "durationTicks": 192,
          "midi": 58,
          "name": "A#3",
          "ticks": 19968,
          "time": 80.51617599999999,
          "velocity": 0.7874015748031497
        },
        {
          "duration": 0.7741939999999943,
          "durationTicks": 192,
          "midi": 57,
          "name": "A3",
          "ticks": 20160,
          "time": 81.29037,
          "velocity": 0.7874015748031497
        },
        {
          "duration": 0.7741939999999943,
          "durationTicks": 192,
          "midi": 52,
          "name": "E3",
          "ticks": 20160,
          "time": 81.29037,
          "velocity": 0.7874015748031497
        },
        {
          "duration": 0.7741939999999943,
          "durationTicks": 192,
          "midi": 60,
          "name": "C4",
          "ticks": 20160,
          "time": 81.29037,
          "velocity": 0.7874015748031497
        },
        {
          "duration": 0.7741940000000085,
          "durationTicks": 192,
          "midi": 55,
          "name": "G3",
          "ticks": 20352,
          "time": 82.06456399999999,
          "velocity": 0.7874015748031497
        },
        {
          "duration": 0.7741940000000085,
          "durationTicks": 192,
          "midi": 60,
          "name": "C4",
          "ticks": 20352,
          "time": 82.06456399999999,
          "velocity": 0.7874015748031497
        },
        {
          "duration": 0.7741940000000085,
          "durationTicks": 192,
          "midi": 64,
          "name": "E4",
          "ticks": 20352,
          "time": 82.06456399999999,
          "velocity": 0.7874015748031497
        },
        {
          "duration": 0.7741939999999943,
          "durationTicks": 192,
          "midi": 54,
          "name": "F#3",
          "ticks": 20544,
          "time": 82.838758,
          "velocity": 0.7874015748031497
        },
        {
          "duration": 0.7741939999999943,
          "durationTicks": 192,
          "midi": 59,
          "name": "B3",
          "ticks": 20544,
          "time": 82.838758,
          "velocity": 0.7874015748031497
        },
        {
          "duration": 0.7741939999999943,
          "durationTicks": 192,
          "midi": 63,
          "name": "D#4",
          "ticks": 20544,
          "time": 82.838758,
          "velocity": 0.7874015748031497
        },
        {
          "duration": 0.7741939999999943,
          "durationTicks": 192,
          "midi": 58,
          "name": "A#3",
          "ticks": 20736,
          "time": 83.61295199999999,
          "velocity": 0.7874015748031497
        },
        {
          "duration": 0.7741939999999943,
          "durationTicks": 192,
          "midi": 61,
          "name": "C#4",
          "ticks": 20736,
          "time": 83.61295199999999,
          "velocity": 0.7874015748031497
        },
        {
          "duration": 0.7741939999999943,
          "durationTicks": 192,
          "midi": 53,
          "name": "F3",
          "ticks": 20736,
          "time": 83.61295199999999,
          "velocity": 0.7874015748031497
        },
        {
          "duration": 0.7741940000000085,
          "durationTicks": 192,
          "midi": 60,
          "name": "C4",
          "ticks": 20928,
          "time": 84.38714599999999,
          "velocity": 0.7874015748031497
        },
        {
          "duration": 0.7741940000000085,
          "durationTicks": 192,
          "midi": 52,
          "name": "E3",
          "ticks": 20928,
          "time": 84.38714599999999,
          "velocity": 0.7874015748031497
        },
        {
          "duration": 0.7741940000000085,
          "durationTicks": 192,
          "midi": 57,
          "name": "A3",
          "ticks": 20928,
          "time": 84.38714599999999,
          "velocity": 0.7874015748031497
        },
        {
          "duration": 0.7741939999999943,
          "durationTicks": 192,
          "midi": 55,
          "name": "G3",
          "ticks": 21120,
          "time": 85.16134,
          "velocity": 0.7874015748031497
        },
        {
          "duration": 0.7741939999999943,
          "durationTicks": 192,
          "midi": 60,
          "name": "C4",
          "ticks": 21120,
          "time": 85.16134,
          "velocity": 0.7874015748031497
        },
        {
          "duration": 0.7741939999999943,
          "durationTicks": 192,
          "midi": 64,
          "name": "E4",
          "ticks": 21120,
          "time": 85.16134,
          "velocity": 0.7874015748031497
        },
        {
          "duration": 0.7741940000000085,
          "durationTicks": 192,
          "midi": 63,
          "name": "D#4",
          "ticks": 21312,
          "time": 85.93553399999999,
          "velocity": 0.7874015748031497
        },
        {
          "duration": 0.7741940000000085,
          "durationTicks": 192,
          "midi": 59,
          "name": "B3",
          "ticks": 21312,
          "time": 85.93553399999999,
          "velocity": 0.7874015748031497
        },
        {
          "duration": 0.7741940000000085,
          "durationTicks": 192,
          "midi": 54,
          "name": "F#3",
          "ticks": 21312,
          "time": 85.93553399999999,
          "velocity": 0.7874015748031497
        },
        {
          "duration": 0.7741939999999943,
          "durationTicks": 192,
          "midi": 53,
          "name": "F3",
          "ticks": 21504,
          "time": 86.709728,
          "velocity": 0.7874015748031497
        },
        {
          "duration": 0.7741939999999943,
          "durationTicks": 192,
          "midi": 61,
          "name": "C#4",
          "ticks": 21504,
          "time": 86.709728,
          "velocity": 0.7874015748031497
        },
        {
          "duration": 0.7741939999999943,
          "durationTicks": 192,
          "midi": 58,
          "name": "A#3",
          "ticks": 21504,
          "time": 86.709728,
          "velocity": 0.7874015748031497
        },
        {
          "duration": 0.7741939999999943,
          "durationTicks": 192,
          "midi": 57,
          "name": "A3",
          "ticks": 21696,
          "time": 87.48392199999999,
          "velocity": 0.7874015748031497
        },
        {
          "duration": 0.7741939999999943,
          "durationTicks": 192,
          "midi": 52,
          "name": "E3",
          "ticks": 21696,
          "time": 87.48392199999999,
          "velocity": 0.7874015748031497
        },
        {
          "duration": 0.7741939999999943,
          "durationTicks": 192,
          "midi": 60,
          "name": "C4",
          "ticks": 21696,
          "time": 87.48392199999999,
          "velocity": 0.7874015748031497
        },
        {
          "duration": 0.7741940000000085,
          "durationTicks": 192,
          "midi": 64,
          "name": "E4",
          "ticks": 21888,
          "time": 88.25811599999999,
          "velocity": 0.7874015748031497
        },
        {
          "duration": 0.7741940000000085,
          "durationTicks": 192,
          "midi": 60,
          "name": "C4",
          "ticks": 21888,
          "time": 88.25811599999999,
          "velocity": 0.7874015748031497
        },
        {
          "duration": 0.7741940000000085,
          "durationTicks": 192,
          "midi": 55,
          "name": "G3",
          "ticks": 21888,
          "time": 88.25811599999999,
          "velocity": 0.7874015748031497
        },
        {
          "duration": 0.7741939999999943,
          "durationTicks": 192,
          "midi": 54,
          "name": "F#3",
          "ticks": 22080,
          "time": 89.03231,
          "velocity": 0.7874015748031497
        },
        {
          "duration": 0.7741939999999943,
          "durationTicks": 192,
          "midi": 59,
          "name": "B3",
          "ticks": 22080,
          "time": 89.03231,
          "velocity": 0.7874015748031497
        },
        {
          "duration": 0.7741939999999943,
          "durationTicks": 192,
          "midi": 63,
          "name": "D#4",
          "ticks": 22080,
          "time": 89.03231,
          "velocity": 0.7874015748031497
        },
        {
          "duration": 0.7741940000000085,
          "durationTicks": 192,
          "midi": 53,
          "name": "F3",
          "ticks": 22272,
          "time": 89.80650399999999,
          "velocity": 0.7874015748031497
        },
        {
          "duration": 0.7741940000000085,
          "durationTicks": 192,
          "midi": 61,
          "name": "C#4",
          "ticks": 22272,
          "time": 89.80650399999999,
          "velocity": 0.7874015748031497
        },
        {
          "duration": 0.7741940000000085,
          "durationTicks": 192,
          "midi": 58,
          "name": "A#3",
          "ticks": 22272,
          "time": 89.80650399999999,
          "velocity": 0.7874015748031497
        },
        {
          "duration": 0.7741939999999943,
          "durationTicks": 192,
          "midi": 60,
          "name": "C4",
          "ticks": 22464,
          "time": 90.580698,
          "velocity": 0.7874015748031497
        },
        {
          "duration": 0.7741939999999943,
          "durationTicks": 192,
          "midi": 52,
          "name": "E3",
          "ticks": 22464,
          "time": 90.580698,
          "velocity": 0.7874015748031497
        },
        {
          "duration": 0.7741939999999943,
          "durationTicks": 192,
          "midi": 57,
          "name": "A3",
          "ticks": 22464,
          "time": 90.580698,
          "velocity": 0.7874015748031497
        },
        {
          "duration": 0.7741939999999943,
          "durationTicks": 192,
          "midi": 64,
          "name": "E4",
          "ticks": 22656,
          "time": 91.35489199999999,
          "velocity": 0.7874015748031497
        },
        {
          "duration": 0.7741939999999943,
          "durationTicks": 192,
          "midi": 60,
          "name": "C4",
          "ticks": 22656,
          "time": 91.35489199999999,
          "velocity": 0.7874015748031497
        },
        {
          "duration": 0.7741939999999943,
          "durationTicks": 192,
          "midi": 55,
          "name": "G3",
          "ticks": 22656,
          "time": 91.35489199999999,
          "velocity": 0.7874015748031497
        },
        {
          "duration": 0.7741940000000085,
          "durationTicks": 192,
          "midi": 63,
          "name": "D#4",
          "ticks": 22848,
          "time": 92.12908599999999,
          "velocity": 0.7874015748031497
        },
        {
          "duration": 0.7741940000000085,
          "durationTicks": 192,
          "midi": 59,
          "name": "B3",
          "ticks": 22848,
          "time": 92.12908599999999,
          "velocity": 0.7874015748031497
        },
        {
          "duration": 0.7741940000000085,
          "durationTicks": 192,
          "midi": 54,
          "name": "F#3",
          "ticks": 22848,
          "time": 92.12908599999999,
          "velocity": 0.7874015748031497
        },
        {
          "duration": 0.7741939999999943,
          "durationTicks": 192,
          "midi": 53,
          "name": "F3",
          "ticks": 23040,
          "time": 92.90328,
          "velocity": 0.7874015748031497
        },
        {
          "duration": 0.7741939999999943,
          "durationTicks": 192,
          "midi": 61,
          "name": "C#4",
          "ticks": 23040,
          "time": 92.90328,
          "velocity": 0.7874015748031497
        },
        {
          "duration": 0.7741939999999943,
          "durationTicks": 192,
          "midi": 58,
          "name": "A#3",
          "ticks": 23040,
          "time": 92.90328,
          "velocity": 0.7874015748031497
        },
        {
          "duration": 0.7741940000000085,
          "durationTicks": 192,
          "midi": 57,
          "name": "A3",
          "ticks": 23232,
          "time": 93.67747399999999,
          "velocity": 0.7874015748031497
        },
        {
          "duration": 0.7741940000000085,
          "durationTicks": 192,
          "midi": 52,
          "name": "E3",
          "ticks": 23232,
          "time": 93.67747399999999,
          "velocity": 0.7874015748031497
        },
        {
          "duration": 0.7741940000000085,
          "durationTicks": 192,
          "midi": 60,
          "name": "C4",
          "ticks": 23232,
          "time": 93.67747399999999,
          "velocity": 0.7874015748031497
        },
        {
          "duration": 0.7741939999999943,
          "durationTicks": 192,
          "midi": 55,
          "name": "G3",
          "ticks": 23424,
          "time": 94.451668,
          "velocity": 0.7874015748031497
        },
        {
          "duration": 0.7741939999999943,
          "durationTicks": 192,
          "midi": 60,
          "name": "C4",
          "ticks": 23424,
          "time": 94.451668,
          "velocity": 0.7874015748031497
        },
        {
          "duration": 0.7741939999999943,
          "durationTicks": 192,
          "midi": 64,
          "name": "E4",
          "ticks": 23424,
          "time": 94.451668,
          "velocity": 0.7874015748031497
        },
        {
          "duration": 0.7741939999999943,
          "durationTicks": 192,
          "midi": 63,
          "name": "D#4",
          "ticks": 23616,
          "time": 95.22586199999999,
          "velocity": 0.7874015748031497
        },
        {
          "duration": 0.7741939999999943,
          "durationTicks": 192,
          "midi": 59,
          "name": "B3",
          "ticks": 23616,
          "time": 95.22586199999999,
          "velocity": 0.7874015748031497
        },
        {
          "duration": 0.7741939999999943,
          "durationTicks": 192,
          "midi": 54,
          "name": "F#3",
          "ticks": 23616,
          "time": 95.22586199999999,
          "velocity": 0.7874015748031497
        },
        {
          "duration": 0.7741939999999943,
          "durationTicks": 192,
          "midi": 58,
          "name": "A#3",
          "ticks": 24000,
          "time": 96.77425,
          "velocity": 0.7874015748031497
        },
        {
          "duration": 0.7741939999999943,
          "durationTicks": 192,
          "midi": 54,
          "name": "F#3",
          "ticks": 24000,
          "time": 96.77425,
          "velocity": 0.7874015748031497
        },
        {
          "duration": 0.7741939999999943,
          "durationTicks": 192,
          "midi": 49,
          "name": "C#3",
          "ticks": 24000,
          "time": 96.77425,
          "velocity": 0.7874015748031497
        },
        {
          "duration": 0.7741940000000085,
          "durationTicks": 192,
          "midi": 60,
          "name": "C4",
          "ticks": 24192,
          "time": 97.54844399999999,
          "velocity": 0.7874015748031497
        },
        {
          "duration": 0.7741940000000085,
          "durationTicks": 192,
          "midi": 56,
          "name": "G#3",
          "ticks": 24192,
          "time": 97.54844399999999,
          "velocity": 0.7874015748031497
        },
        {
          "duration": 0.7741940000000085,
          "durationTicks": 192,
          "midi": 51,
          "name": "D#3",
          "ticks": 24192,
          "time": 97.54844399999999,
          "velocity": 0.7874015748031497
        },
        {
          "duration": 0.7741939999999943,
          "durationTicks": 192,
          "midi": 61,
          "name": "C#4",
          "ticks": 24384,
          "time": 98.322638,
          "velocity": 0.7874015748031497
        },
        {
          "duration": 0.7741939999999943,
          "durationTicks": 192,
          "midi": 58,
          "name": "A#3",
          "ticks": 24384,
          "time": 98.322638,
          "velocity": 0.7874015748031497
        },
        {
          "duration": 0.7741939999999943,
          "durationTicks": 192,
          "midi": 53,
          "name": "F3",
          "ticks": 24384,
          "time": 98.322638,
          "velocity": 0.7874015748031497
        },
        {
          "duration": 0.7741939999999943,
          "durationTicks": 192,
          "midi": 63,
          "name": "D#4",
          "ticks": 24576,
          "time": 99.09683199999999,
          "velocity": 0.7874015748031497
        },
        {
          "duration": 0.7741939999999943,
          "durationTicks": 192,
          "midi": 58,
          "name": "A#3",
          "ticks": 24576,
          "time": 99.09683199999999,
          "velocity": 0.7874015748031497
        },
        {
          "duration": 0.7741939999999943,
          "durationTicks": 192,
          "midi": 55,
          "name": "G3",
          "ticks": 24576,
          "time": 99.09683199999999,
          "velocity": 0.7874015748031497
        },
        {
          "duration": 0.7741940000000085,
          "durationTicks": 192,
          "midi": 58,
          "name": "A#3",
          "ticks": 24768,
          "time": 99.87102599999999,
          "velocity": 0.7874015748031497
        },
        {
          "duration": 0.7741940000000085,
          "durationTicks": 192,
          "midi": 54,
          "name": "F#3",
          "ticks": 24768,
          "time": 99.87102599999999,
          "velocity": 0.7874015748031497
        },
        {
          "duration": 0.7741940000000085,
          "durationTicks": 192,
          "midi": 49,
          "name": "C#3",
          "ticks": 24768,
          "time": 99.87102599999999,
          "velocity": 0.7874015748031497
        },
        {
          "duration": 0.7741939999999943,
          "durationTicks": 192,
          "midi": 60,
          "name": "C4",
          "ticks": 24960,
          "time": 100.64522,
          "velocity": 0.7874015748031497
        },
        {
          "duration": 0.7741939999999943,
          "durationTicks": 192,
          "midi": 56,
          "name": "G#3",
          "ticks": 24960,
          "time": 100.64522,
          "velocity": 0.7874015748031497
        },
        {
          "duration": 0.7741939999999943,
          "durationTicks": 192,
          "midi": 51,
          "name": "D#3",
          "ticks": 24960,
          "time": 100.64522,
          "velocity": 0.7874015748031497
        },
        {
          "duration": 1.5483880000000028,
          "durationTicks": 384,
          "midi": 61,
          "name": "C#4",
          "ticks": 25152,
          "time": 101.41941399999999,
          "velocity": 0.7874015748031497
        },
        {
          "duration": 1.5483880000000028,
          "durationTicks": 384,
          "midi": 58,
          "name": "A#3",
          "ticks": 25152,
          "time": 101.41941399999999,
          "velocity": 0.7874015748031497
        },
        {
          "duration": 1.5483880000000028,
          "durationTicks": 384,
          "midi": 53,
          "name": "F3",
          "ticks": 25152,
          "time": 101.41941399999999,
          "velocity": 0.7874015748031497
        },
        {
          "duration": 0.7741939999999943,
          "durationTicks": 192,
          "midi": 58,
          "name": "A#3",
          "ticks": 25536,
          "time": 102.96780199999999,
          "velocity": 0.7874015748031497
        },
        {
          "duration": 0.7741939999999943,
          "durationTicks": 192,
          "midi": 54,
          "name": "F#3",
          "ticks": 25536,
          "time": 102.96780199999999,
          "velocity": 0.7874015748031497
        },
        {
          "duration": 0.7741939999999943,
          "durationTicks": 192,
          "midi": 49,
          "name": "C#3",
          "ticks": 25536,
          "time": 102.96780199999999,
          "velocity": 0.7874015748031497
        },
        {
          "duration": 0.7741940000000085,
          "durationTicks": 192,
          "midi": 60,
          "name": "C4",
          "ticks": 25728,
          "time": 103.74199599999999,
          "velocity": 0.7874015748031497
        },
        {
          "duration": 0.7741940000000085,
          "durationTicks": 192,
          "midi": 56,
          "name": "G#3",
          "ticks": 25728,
          "time": 103.74199599999999,
          "velocity": 0.7874015748031497
        },
        {
          "duration": 0.7741940000000085,
          "durationTicks": 192,
          "midi": 51,
          "name": "D#3",
          "ticks": 25728,
          "time": 103.74199599999999,
          "velocity": 0.7874015748031497
        },
        {
          "duration": 0.7741939999999943,
          "durationTicks": 192,
          "midi": 61,
          "name": "C#4",
          "ticks": 25920,
          "time": 104.51619,
          "velocity": 0.7874015748031497
        },
        {
          "duration": 0.7741939999999943,
          "durationTicks": 192,
          "midi": 58,
          "name": "A#3",
          "ticks": 25920,
          "time": 104.51619,
          "velocity": 0.7874015748031497
        },
        {
          "duration": 0.7741939999999943,
          "durationTicks": 192,
          "midi": 53,
          "name": "F3",
          "ticks": 25920,
          "time": 104.51619,
          "velocity": 0.7874015748031497
        },
        {
          "duration": 0.7741940000000085,
          "durationTicks": 192,
          "midi": 63,
          "name": "D#4",
          "ticks": 26112,
          "time": 105.29038399999999,
          "velocity": 0.7874015748031497
        },
        {
          "duration": 0.7741940000000085,
          "durationTicks": 192,
          "midi": 58,
          "name": "A#3",
          "ticks": 26112,
          "time": 105.29038399999999,
          "velocity": 0.7874015748031497
        },
        {
          "duration": 0.7741940000000085,
          "durationTicks": 192,
          "midi": 55,
          "name": "G3",
          "ticks": 26112,
          "time": 105.29038399999999,
          "velocity": 0.7874015748031497
        },
        {
          "duration": 0.7741939999999943,
          "durationTicks": 192,
          "midi": 58,
          "name": "A#3",
          "ticks": 26304,
          "time": 106.064578,
          "velocity": 0.7874015748031497
        },
        {
          "duration": 0.7741939999999943,
          "durationTicks": 192,
          "midi": 54,
          "name": "F#3",
          "ticks": 26304,
          "time": 106.064578,
          "velocity": 0.7874015748031497
        },
        {
          "duration": 0.7741939999999943,
          "durationTicks": 192,
          "midi": 49,
          "name": "C#3",
          "ticks": 26304,
          "time": 106.064578,
          "velocity": 0.7874015748031497
        },
        {
          "duration": 0.7741939999999943,
          "durationTicks": 192,
          "midi": 60,
          "name": "C4",
          "ticks": 26496,
          "time": 106.83877199999999,
          "velocity": 0.7874015748031497
        },
        {
          "duration": 0.7741939999999943,
          "durationTicks": 192,
          "midi": 56,
          "name": "G#3",
          "ticks": 26496,
          "time": 106.83877199999999,
          "velocity": 0.7874015748031497
        },
        {
          "duration": 0.7741939999999943,
          "durationTicks": 192,
          "midi": 51,
          "name": "D#3",
          "ticks": 26496,
          "time": 106.83877199999999,
          "velocity": 0.7874015748031497
        },
        {
          "duration": 1.5483880000000028,
          "durationTicks": 384,
          "midi": 58,
          "name": "A#3",
          "ticks": 26688,
          "time": 107.61296599999999,
          "velocity": 0.7874015748031497
        },
        {
          "duration": 1.5483880000000028,
          "durationTicks": 384,
          "midi": 53,
          "name": "F3",
          "ticks": 26688,
          "time": 107.61296599999999,
          "velocity": 0.7874015748031497
        },
        {
          "duration": 1.5483880000000028,
          "durationTicks": 384,
          "midi": 49,
          "name": "C#3",
          "ticks": 26688,
          "time": 107.61296599999999,
          "velocity": 0.7874015748031497
        },
        {
          "duration": 0.7741940000000085,
          "durationTicks": 192,
          "midi": 58,
          "name": "A#3",
          "ticks": 27072,
          "time": 109.16135399999999,
          "velocity": 0.7874015748031497
        },
        {
          "duration": 0.7741940000000085,
          "durationTicks": 192,
          "midi": 54,
          "name": "F#3",
          "ticks": 27072,
          "time": 109.16135399999999,
          "velocity": 0.7874015748031497
        },
        {
          "duration": 0.7741940000000085,
          "durationTicks": 192,
          "midi": 49,
          "name": "C#3",
          "ticks": 27072,
          "time": 109.16135399999999,
          "velocity": 0.7874015748031497
        },
        {
          "duration": 0.7741939999999943,
          "durationTicks": 192,
          "midi": 60,
          "name": "C4",
          "ticks": 27264,
          "time": 109.935548,
          "velocity": 0.7874015748031497
        },
        {
          "duration": 0.7741939999999943,
          "durationTicks": 192,
          "midi": 56,
          "name": "G#3",
          "ticks": 27264,
          "time": 109.935548,
          "velocity": 0.7874015748031497
        },
        {
          "duration": 0.7741939999999943,
          "durationTicks": 192,
          "midi": 51,
          "name": "D#3",
          "ticks": 27264,
          "time": 109.935548,
          "velocity": 0.7874015748031497
        },
        {
          "duration": 0.7741939999999943,
          "durationTicks": 192,
          "midi": 61,
          "name": "C#4",
          "ticks": 27456,
          "time": 110.70974199999999,
          "velocity": 0.7874015748031497
        },
        {
          "duration": 0.7741939999999943,
          "durationTicks": 192,
          "midi": 58,
          "name": "A#3",
          "ticks": 27456,
          "time": 110.70974199999999,
          "velocity": 0.7874015748031497
        },
        {
          "duration": 0.7741939999999943,
          "durationTicks": 192,
          "midi": 53,
          "name": "F3",
          "ticks": 27456,
          "time": 110.70974199999999,
          "velocity": 0.7874015748031497
        },
        {
          "duration": 0.7741940000000085,
          "durationTicks": 192,
          "midi": 63,
          "name": "D#4",
          "ticks": 27648,
          "time": 111.48393599999999,
          "velocity": 0.7874015748031497
        },
        {
          "duration": 0.7741940000000085,
          "durationTicks": 192,
          "midi": 58,
          "name": "A#3",
          "ticks": 27648,
          "time": 111.48393599999999,
          "velocity": 0.7874015748031497
        },
        {
          "duration": 0.7741940000000085,
          "durationTicks": 192,
          "midi": 55,
          "name": "G3",
          "ticks": 27648,
          "time": 111.48393599999999,
          "velocity": 0.7874015748031497
        },
        {
          "duration": 0.7741939999999943,
          "durationTicks": 192,
          "midi": 58,
          "name": "A#3",
          "ticks": 27840,
          "time": 112.25813,
          "velocity": 0.7874015748031497
        },
        {
          "duration": 0.7741939999999943,
          "durationTicks": 192,
          "midi": 54,
          "name": "F#3",
          "ticks": 27840,
          "time": 112.25813,
          "velocity": 0.7874015748031497
        },
        {
          "duration": 0.7741939999999943,
          "durationTicks": 192,
          "midi": 49,
          "name": "C#3",
          "ticks": 27840,
          "time": 112.25813,
          "velocity": 0.7874015748031497
        },
        {
          "duration": 0.7741940000000085,
          "durationTicks": 192,
          "midi": 60,
          "name": "C4",
          "ticks": 28032,
          "time": 113.03232399999999,
          "velocity": 0.7874015748031497
        },
        {
          "duration": 0.7741940000000085,
          "durationTicks": 192,
          "midi": 56,
          "name": "G#3",
          "ticks": 28032,
          "time": 113.03232399999999,
          "velocity": 0.7874015748031497
        },
        {
          "duration": 0.7741940000000085,
          "durationTicks": 192,
          "midi": 51,
          "name": "D#3",
          "ticks": 28032,
          "time": 113.03232399999999,
          "velocity": 0.7874015748031497
        },
        {
          "duration": 1.5483879999999886,
          "durationTicks": 384,
          "midi": 61,
          "name": "C#4",
          "ticks": 28224,
          "time": 113.806518,
          "velocity": 0.7874015748031497
        },
        {
          "duration": 1.5483879999999886,
          "durationTicks": 384,
          "midi": 58,
          "name": "A#3",
          "ticks": 28224,
          "time": 113.806518,
          "velocity": 0.7874015748031497
        },
        {
          "duration": 1.5483879999999886,
          "durationTicks": 384,
          "midi": 53,
          "name": "F3",
          "ticks": 28224,
          "time": 113.806518,
          "velocity": 0.7874015748031497
        },
        {
          "duration": 0.7741940000000085,
          "durationTicks": 192,
          "midi": 58,
          "name": "A#3",
          "ticks": 28608,
          "time": 115.35490599999999,
          "velocity": 0.7874015748031497
        },
        {
          "duration": 0.7741940000000085,
          "durationTicks": 192,
          "midi": 54,
          "name": "F#3",
          "ticks": 28608,
          "time": 115.35490599999999,
          "velocity": 0.7874015748031497
        },
        {
          "duration": 0.7741940000000085,
          "durationTicks": 192,
          "midi": 49,
          "name": "C#3",
          "ticks": 28608,
          "time": 115.35490599999999,
          "velocity": 0.7874015748031497
        },
        {
          "duration": 0.7741939999999943,
          "durationTicks": 192,
          "midi": 60,
          "name": "C4",
          "ticks": 28800,
          "time": 116.1291,
          "velocity": 0.7874015748031497
        },
        {
          "duration": 0.7741939999999943,
          "durationTicks": 192,
          "midi": 56,
          "name": "G#3",
          "ticks": 28800,
          "time": 116.1291,
          "velocity": 0.7874015748031497
        },
        {
          "duration": 0.7741939999999943,
          "durationTicks": 192,
          "midi": 51,
          "name": "D#3",
          "ticks": 28800,
          "time": 116.1291,
          "velocity": 0.7874015748031497
        },
        {
          "duration": 0.7741940000000085,
          "durationTicks": 192,
          "midi": 61,
          "name": "C#4",
          "ticks": 28992,
          "time": 116.90329399999999,
          "velocity": 0.7874015748031497
        },
        {
          "duration": 0.7741940000000085,
          "durationTicks": 192,
          "midi": 58,
          "name": "A#3",
          "ticks": 28992,
          "time": 116.90329399999999,
          "velocity": 0.7874015748031497
        },
        {
          "duration": 0.7741940000000085,
          "durationTicks": 192,
          "midi": 53,
          "name": "F3",
          "ticks": 28992,
          "time": 116.90329399999999,
          "velocity": 0.7874015748031497
        },
        {
          "duration": 0.7741939999999943,
          "durationTicks": 192,
          "midi": 63,
          "name": "D#4",
          "ticks": 29184,
          "time": 117.677488,
          "velocity": 0.7874015748031497
        },
        {
          "duration": 0.7741939999999943,
          "durationTicks": 192,
          "midi": 58,
          "name": "A#3",
          "ticks": 29184,
          "time": 117.677488,
          "velocity": 0.7874015748031497
        },
        {
          "duration": 0.7741939999999943,
          "durationTicks": 192,
          "midi": 55,
          "name": "G3",
          "ticks": 29184,
          "time": 117.677488,
          "velocity": 0.7874015748031497
        },
        {
          "duration": 0.7741939999999943,
          "durationTicks": 192,
          "midi": 58,
          "name": "A#3",
          "ticks": 29376,
          "time": 118.45168199999999,
          "velocity": 0.7874015748031497
        },
        {
          "duration": 0.7741939999999943,
          "durationTicks": 192,
          "midi": 54,
          "name": "F#3",
          "ticks": 29376,
          "time": 118.45168199999999,
          "velocity": 0.7874015748031497
        },
        {
          "duration": 0.7741939999999943,
          "durationTicks": 192,
          "midi": 49,
          "name": "C#3",
          "ticks": 29376,
          "time": 118.45168199999999,
          "velocity": 0.7874015748031497
        },
        {
          "duration": 0.7741940000000085,
          "durationTicks": 192,
          "midi": 60,
          "name": "C4",
          "ticks": 29568,
          "time": 119.22587599999999,
          "velocity": 0.7874015748031497
        },
        {
          "duration": 0.7741940000000085,
          "durationTicks": 192,
          "midi": 56,
          "name": "G#3",
          "ticks": 29568,
          "time": 119.22587599999999,
          "velocity": 0.7874015748031497
        },
        {
          "duration": 0.7741940000000085,
          "durationTicks": 192,
          "midi": 51,
          "name": "D#3",
          "ticks": 29568,
          "time": 119.22587599999999,
          "velocity": 0.7874015748031497
        },
        {
          "duration": 1.5483880000000028,
          "durationTicks": 384,
          "midi": 53,
          "name": "F3",
          "ticks": 29760,
          "time": 120.00007,
          "velocity": 0.7874015748031497
        },
        {
          "duration": 1.5483880000000028,
          "durationTicks": 384,
          "midi": 49,
          "name": "C#3",
          "ticks": 29760,
          "time": 120.00007,
          "velocity": 0.7874015748031497
        },
        {
          "duration": 1.5483880000000028,
          "durationTicks": 384,
          "midi": 58,
          "name": "A#3",
          "ticks": 29760,
          "time": 120.00007,
          "velocity": 0.7874015748031497
        }
      ]
    },
    {
      "channel": 0,
      "controlChanges": {
        "6": [
          {
            "number": 6,
            "ticks": 0,
            "time": 0,
            "value": 0.09448818897637795
          }
        ],
        "7": [
          {
            "number": 7,
            "ticks": 0,
            "time": 0,
            "value": 1
          },
          {
            "number": 7,
            "ticks": 0,
            "time": 0,
            "value": 1
          }
        ],
        "10": [
          {
            "number": 10,
            "ticks": 0,
            "time": 0,
            "value": 0.5039370078740157
          },
          {
            "number": 10,
            "ticks": 0,
            "time": 0,
            "value": 0.5039370078740157
          }
        ],
        "100": [
          {
            "number": 100,
            "ticks": 0,
            "time": 0,
            "value": 0
          }
        ],
        "101": [
          {
            "number": 101,
            "ticks": 0,
            "time": 0,
            "value": 0
          }
        ]
      },
      "pitchBends": [
        {
          "ticks": 0,
          "time": 0,
          "value": 0
        },
        {
          "ticks": 0,
          "time": 0,
          "value": 0
        }
      ],
      "instrument": {
        "family": "piano",
        "name": "acoustic grand piano",
        "number": 0
      },
      "name": "Warm Pad",
      "notes": []
    },
    {
      "channel": 7,
      "controlChanges": {
        "6": [
          {
            "number": 6,
            "ticks": 0,
            "time": 0,
            "value": 0.09448818897637795
          },
          {
            "number": 6,
            "ticks": 0,
            "time": 0,
            "value": 0.09448818897637795
          },
          {
            "number": 6,
            "ticks": 30336,
            "time": 122.32265199999999,
            "value": 0.09448818897637795
          },
          {
            "number": 6,
            "ticks": 30336,
            "time": 122.32265199999999,
            "value": 0.09448818897637795
          },
          {
            "number": 6,
            "ticks": 30336,
            "time": 122.32265199999999,
            "value": 0.09448818897637795
          }
        ],
        "7": [
          {
            "number": 7,
            "ticks": 0,
            "time": 0,
            "value": 1
          },
          {
            "number": 7,
            "ticks": 0,
            "time": 0,
            "value": 1
          },
          {
            "number": 7,
            "ticks": 30336,
            "time": 122.32265199999999,
            "value": 1
          },
          {
            "number": 7,
            "ticks": 30336,
            "time": 122.32265199999999,
            "value": 1
          },
          {
            "number": 7,
            "ticks": 30336,
            "time": 122.32265199999999,
            "value": 1
          }
        ],
        "10": [
          {
            "number": 10,
            "ticks": 0,
            "time": 0,
            "value": 0.5039370078740157
          },
          {
            "number": 10,
            "ticks": 0,
            "time": 0,
            "value": 0.5039370078740157
          },
          {
            "number": 10,
            "ticks": 30336,
            "time": 122.32265199999999,
            "value": 0.5039370078740157
          },
          {
            "number": 10,
            "ticks": 30336,
            "time": 122.32265199999999,
            "value": 0.5039370078740157
          },
          {
            "number": 10,
            "ticks": 30336,
            "time": 122.32265199999999,
            "value": 0.5039370078740157
          }
        ],
        "100": [
          {
            "number": 100,
            "ticks": 0,
            "time": 0,
            "value": 0
          },
          {
            "number": 100,
            "ticks": 0,
            "time": 0,
            "value": 0
          },
          {
            "number": 100,
            "ticks": 30336,
            "time": 122.32265199999999,
            "value": 0
          },
          {
            "number": 100,
            "ticks": 30336,
            "time": 122.32265199999999,
            "value": 0
          },
          {
            "number": 100,
            "ticks": 30336,
            "time": 122.32265199999999,
            "value": 0
          }
        ],
        "101": [
          {
            "number": 101,
            "ticks": 0,
            "time": 0,
            "value": 0
          },
          {
            "number": 101,
            "ticks": 0,
            "time": 0,
            "value": 0
          },
          {
            "number": 101,
            "ticks": 30336,
            "time": 122.32265199999999,
            "value": 0
          },
          {
            "number": 101,
            "ticks": 30336,
            "time": 122.32265199999999,
            "value": 0
          },
          {
            "number": 101,
            "ticks": 30336,
            "time": 122.32265199999999,
            "value": 0
          }
        ]
      },
      "pitchBends": [
        {
          "ticks": 0,
          "time": 0,
          "value": 0
        },
        {
          "ticks": 0,
          "time": 0,
          "value": 0
        },
        {
          "ticks": 30336,
          "time": 122.32265199999999,
          "value": 0
        },
        {
          "ticks": 30336,
          "time": 122.32265199999999,
          "value": 0
        },
        {
          "ticks": 30336,
          "time": 122.32265199999999,
          "value": 0
        }
      ],
      "instrument": {
        "family": "synth pad",
        "name": "pad 2 (warm)",
        "number": 89
      },
      "name": "",
      "notes": [
        {
          "duration": 1.1612909999999999,
          "durationTicks": 288,
          "midi": 61,
          "name": "C#4",
          "ticks": 0,
          "time": 0,
          "velocity": 0.7874015748031497
        },
        {
          "duration": 1.1612909999999999,
          "durationTicks": 288,
          "midi": 53,
          "name": "F3",
          "ticks": 0,
          "time": 0,
          "velocity": 0.7874015748031497
        },
        {
          "duration": 1.1612909999999999,
          "durationTicks": 288,
          "midi": 58,
          "name": "A#3",
          "ticks": 0,
          "time": 0,
          "velocity": 0.7874015748031497
        },
        {
          "duration": 0.774194,
          "durationTicks": 192,
          "midi": 60,
          "name": "C4",
          "ticks": 288,
          "time": 1.1612909999999999,
          "velocity": 0.7874015748031497
        },
        {
          "duration": 0.774194,
          "durationTicks": 192,
          "midi": 51,
          "name": "D#3",
          "ticks": 288,
          "time": 1.1612909999999999,
          "velocity": 0.7874015748031497
        },
        {
          "duration": 0.774194,
          "durationTicks": 192,
          "midi": 56,
          "name": "G#3",
          "ticks": 288,
          "time": 1.1612909999999999,
          "velocity": 0.7874015748031497
        },
        {
          "duration": 1.1612909999999999,
          "durationTicks": 288,
          "midi": 61,
          "name": "C#4",
          "ticks": 480,
          "time": 1.935485,
          "velocity": 0.7874015748031497
        },
        {
          "duration": 1.1612909999999999,
          "durationTicks": 288,
          "midi": 58,
          "name": "A#3",
          "ticks": 480,
          "time": 1.935485,
          "velocity": 0.7874015748031497
        },
        {
          "duration": 1.1612909999999999,
          "durationTicks": 288,
          "midi": 53,
          "name": "F3",
          "ticks": 480,
          "time": 1.935485,
          "velocity": 0.7874015748031497
        },
        {
          "duration": 0.774194,
          "durationTicks": 192,
          "midi": 63,
          "name": "D#4",
          "ticks": 768,
          "time": 3.0967759999999998,
          "velocity": 0.7874015748031497
        },
        {
          "duration": 0.774194,
          "durationTicks": 192,
          "midi": 58,
          "name": "A#3",
          "ticks": 768,
          "time": 3.0967759999999998,
          "velocity": 0.7874015748031497
        },
        {
          "duration": 0.774194,
          "durationTicks": 192,
          "midi": 54,
          "name": "F#3",
          "ticks": 768,
          "time": 3.0967759999999998,
          "velocity": 0.7874015748031497
        },
        {
          "duration": 1.1612909999999994,
          "durationTicks": 288,
          "midi": 61,
          "name": "C#4",
          "ticks": 960,
          "time": 3.87097,
          "velocity": 0.7874015748031497
        },
        {
          "duration": 1.1612909999999994,
          "durationTicks": 288,
          "midi": 53,
          "name": "F3",
          "ticks": 960,
          "time": 3.87097,
          "velocity": 0.7874015748031497
        },
        {
          "duration": 1.1612909999999994,
          "durationTicks": 288,
          "midi": 58,
          "name": "A#3",
          "ticks": 960,
          "time": 3.87097,
          "velocity": 0.7874015748031497
        },
        {
          "duration": 0.7741940000000005,
          "durationTicks": 192,
          "midi": 60,
          "name": "C4",
          "ticks": 1248,
          "time": 5.032260999999999,
          "velocity": 0.7874015748031497
        },
        {
          "duration": 0.7741940000000005,
          "durationTicks": 192,
          "midi": 51,
          "name": "D#3",
          "ticks": 1248,
          "time": 5.032260999999999,
          "velocity": 0.7874015748031497
        },
        {
          "duration": 0.7741940000000005,
          "durationTicks": 192,
          "midi": 56,
          "name": "G#3",
          "ticks": 1248,
          "time": 5.032260999999999,
          "velocity": 0.7874015748031497
        },
        {
          "duration": 1.1612909999999994,
          "durationTicks": 288,
          "midi": 61,
          "name": "C#4",
          "ticks": 1440,
          "time": 5.806455,
          "velocity": 0.7874015748031497
        },
        {
          "duration": 1.1612909999999994,
          "durationTicks": 288,
          "midi": 58,
          "name": "A#3",
          "ticks": 1440,
          "time": 5.806455,
          "velocity": 0.7874015748031497
        },
        {
          "duration": 1.1612909999999994,
          "durationTicks": 288,
          "midi": 53,
          "name": "F3",
          "ticks": 1440,
          "time": 5.806455,
          "velocity": 0.7874015748031497
        },
        {
          "duration": 0.7741940000000005,
          "durationTicks": 192,
          "midi": 63,
          "name": "D#4",
          "ticks": 1728,
          "time": 6.967745999999999,
          "velocity": 0.7874015748031497
        },
        {
          "duration": 0.7741940000000005,
          "durationTicks": 192,
          "midi": 58,
          "name": "A#3",
          "ticks": 1728,
          "time": 6.967745999999999,
          "velocity": 0.7874015748031497
        },
        {
          "duration": 0.7741940000000005,
          "durationTicks": 192,
          "midi": 54,
          "name": "F#3",
          "ticks": 1728,
          "time": 6.967745999999999,
          "velocity": 0.7874015748031497
        },
        {
          "duration": 1.1612910000000003,
          "durationTicks": 288,
          "midi": 61,
          "name": "C#4",
          "ticks": 1920,
          "time": 7.74194,
          "velocity": 0.7874015748031497
        },
        {
          "duration": 1.1612910000000003,
          "durationTicks": 288,
          "midi": 58,
          "name": "A#3",
          "ticks": 1920,
          "time": 7.74194,
          "velocity": 0.7874015748031497
        },
        {
          "duration": 1.1612910000000003,
          "durationTicks": 288,
          "midi": 54,
          "name": "F#3",
          "ticks": 1920,
          "time": 7.74194,
          "velocity": 0.7874015748031497
        },
        {
          "duration": 0.7741939999999996,
          "durationTicks": 192,
          "midi": 60,
          "name": "C4",
          "ticks": 2208,
          "time": 8.903231,
          "velocity": 0.7874015748031497
        },
        {
          "duration": 0.7741939999999996,
          "durationTicks": 192,
          "midi": 56,
          "name": "G#3",
          "ticks": 2208,
          "time": 8.903231,
          "velocity": 0.7874015748031497
        },
        {
          "duration": 0.7741939999999996,
          "durationTicks": 192,
          "midi": 53,
          "name": "F3",
          "ticks": 2208,
          "time": 8.903231,
          "velocity": 0.7874015748031497
        },
        {
          "duration": 1.1612910000000003,
          "durationTicks": 288,
          "midi": 61,
          "name": "C#4",
          "ticks": 2400,
          "time": 9.677425,
          "velocity": 0.7874015748031497
        },
        {
          "duration": 1.1612910000000003,
          "durationTicks": 288,
          "midi": 58,
          "name": "A#3",
          "ticks": 2400,
          "time": 9.677425,
          "velocity": 0.7874015748031497
        },
        {
          "duration": 1.1612910000000003,
          "durationTicks": 288,
          "midi": 54,
          "name": "F#3",
          "ticks": 2400,
          "time": 9.677425,
          "velocity": 0.7874015748031497
        },
        {
          "duration": 0.7741939999999996,
          "durationTicks": 192,
          "midi": 57,
          "name": "A3",
          "ticks": 2688,
          "time": 10.838716,
          "velocity": 0.7874015748031497
        },
        {
          "duration": 0.7741939999999996,
          "durationTicks": 192,
          "midi": 60,
          "name": "C4",
          "ticks": 2688,
          "time": 10.838716,
          "velocity": 0.7874015748031497
        },
        {
          "duration": 0.7741939999999996,
          "durationTicks": 192,
          "midi": 63,
          "name": "D#4",
          "ticks": 2688,
          "time": 10.838716,
          "velocity": 0.7874015748031497
        },
        {
          "duration": 1.1612910000000003,
          "durationTicks": 288,
          "midi": 58,
          "name": "A#3",
          "ticks": 2880,
          "time": 11.61291,
          "velocity": 0.7874015748031497
        },
        {
          "duration": 1.1612910000000003,
          "durationTicks": 288,
          "midi": 53,
          "name": "F3",
          "ticks": 2880,
          "time": 11.61291,
          "velocity": 0.7874015748031497
        },
        {
          "duration": 1.1612910000000003,
          "durationTicks": 288,
          "midi": 61,
          "name": "C#4",
          "ticks": 2880,
          "time": 11.61291,
          "velocity": 0.7874015748031497
        },
        {
          "duration": 0.7741939999999996,
          "durationTicks": 192,
          "midi": 60,
          "name": "C4",
          "ticks": 3168,
          "time": 12.774201,
          "velocity": 0.7874015748031497
        },
        {
          "duration": 0.7741939999999996,
          "durationTicks": 192,
          "midi": 51,
          "name": "D#3",
          "ticks": 3168,
          "time": 12.774201,
          "velocity": 0.7874015748031497
        },
        {
          "duration": 0.7741939999999996,
          "durationTicks": 192,
          "midi": 56,
          "name": "G#3",
          "ticks": 3168,
          "time": 12.774201,
          "velocity": 0.7874015748031497
        },
        {
          "duration": 1.1612910000000003,
          "durationTicks": 288,
          "midi": 53,
          "name": "F3",
          "ticks": 3360,
          "time": 13.548395,
          "velocity": 0.7874015748031497
        },
        {
          "duration": 1.1612910000000003,
          "durationTicks": 288,
          "midi": 58,
          "name": "A#3",
          "ticks": 3360,
          "time": 13.548395,
          "velocity": 0.7874015748031497
        },
        {
          "duration": 1.1612910000000003,
          "durationTicks": 288,
          "midi": 61,
          "name": "C#4",
          "ticks": 3360,
          "time": 13.548395,
          "velocity": 0.7874015748031497
        },
        {
          "duration": 0.7741939999999996,
          "durationTicks": 192,
          "midi": 63,
          "name": "D#4",
          "ticks": 3648,
          "time": 14.709686,
          "velocity": 0.7874015748031497
        },
        {
          "duration": 0.7741939999999996,
          "durationTicks": 192,
          "midi": 58,
          "name": "A#3",
          "ticks": 3648,
          "time": 14.709686,
          "velocity": 0.7874015748031497
        },
        {
          "duration": 0.7741939999999996,
          "durationTicks": 192,
          "midi": 54,
          "name": "F#3",
          "ticks": 3648,
          "time": 14.709686,
          "velocity": 0.7874015748031497
        },
        {
          "duration": 0.7741939999999978,
          "durationTicks": 192,
          "midi": 53,
          "name": "F3",
          "ticks": 3840,
          "time": 15.48388,
          "velocity": 0.7874015748031497
        },
        {
          "duration": 0.7741939999999978,
          "durationTicks": 192,
          "midi": 61,
          "name": "C#4",
          "ticks": 3840,
          "time": 15.48388,
          "velocity": 0.7874015748031497
        },
        {
          "duration": 0.7741939999999978,
          "durationTicks": 192,
          "midi": 58,
          "name": "A#3",
          "ticks": 3840,
          "time": 15.48388,
          "velocity": 0.7874015748031497
        },
        {
          "duration": 0.7741940000000014,
          "durationTicks": 192,
          "midi": 60,
          "name": "C4",
          "ticks": 4032,
          "time": 16.258073999999997,
          "velocity": 0.7874015748031497
        },
        {
          "duration": 0.7741940000000014,
          "durationTicks": 192,
          "midi": 52,
          "name": "E3",
          "ticks": 4032,
          "time": 16.258073999999997,
          "velocity": 0.7874015748031497
        },
        {
          "duration": 0.7741940000000014,
          "durationTicks": 192,
          "midi": 57,
          "name": "A3",
          "ticks": 4032,
          "time": 16.258073999999997,
          "velocity": 0.7874015748031497
        },
        {
          "duration": 0.7741940000000014,
          "durationTicks": 192,
          "midi": 64,
          "name": "E4",
          "ticks": 4224,
          "time": 17.032268,
          "velocity": 0.7874015748031497
        },
        {
          "duration": 0.7741940000000014,
          "durationTicks": 192,
          "midi": 60,
          "name": "C4",
          "ticks": 4224,
          "time": 17.032268,
          "velocity": 0.7874015748031497
        },
        {
          "duration": 0.7741940000000014,
          "durationTicks": 192,
          "midi": 55,
          "name": "G3",
          "ticks": 4224,
          "time": 17.032268,
          "velocity": 0.7874015748031497
        },
        {
          "duration": 0.7741939999999978,
          "durationTicks": 192,
          "midi": 63,
          "name": "D#4",
          "ticks": 4416,
          "time": 17.806462,
          "velocity": 0.7874015748031497
        },
        {
          "duration": 0.7741939999999978,
          "durationTicks": 192,
          "midi": 59,
          "name": "B3",
          "ticks": 4416,
          "time": 17.806462,
          "velocity": 0.7874015748031497
        },
        {
          "duration": 0.7741939999999978,
          "durationTicks": 192,
          "midi": 54,
          "name": "F#3",
          "ticks": 4416,
          "time": 17.806462,
          "velocity": 0.7874015748031497
        },
        {
          "duration": 0.7741940000000014,
          "durationTicks": 192,
          "midi": 53,
          "name": "F3",
          "ticks": 4608,
          "time": 18.580655999999998,
          "velocity": 0.7874015748031497
        },
        {
          "duration": 0.7741940000000014,
          "durationTicks": 192,
          "midi": 61,
          "name": "C#4",
          "ticks": 4608,
          "time": 18.580655999999998,
          "velocity": 0.7874015748031497
        },
        {
          "duration": 0.7741940000000014,
          "durationTicks": 192,
          "midi": 58,
          "name": "A#3",
          "ticks": 4608,
          "time": 18.580655999999998,
          "velocity": 0.7874015748031497
        },
        {
          "duration": 0.7741939999999978,
          "durationTicks": 192,
          "midi": 60,
          "name": "C4",
          "ticks": 4800,
          "time": 19.35485,
          "velocity": 0.7874015748031497
        },
        {
          "duration": 0.7741939999999978,
          "durationTicks": 192,
          "midi": 52,
          "name": "E3",
          "ticks": 4800,
          "time": 19.35485,
          "velocity": 0.7874015748031497
        },
        {
          "duration": 0.7741939999999978,
          "durationTicks": 192,
          "midi": 57,
          "name": "A3",
          "ticks": 4800,
          "time": 19.35485,
          "velocity": 0.7874015748031497
        },
        {
          "duration": 0.7741940000000014,
          "durationTicks": 192,
          "midi": 64,
          "name": "E4",
          "ticks": 4992,
          "time": 20.129043999999997,
          "velocity": 0.7874015748031497
        },
        {
          "duration": 0.7741940000000014,
          "durationTicks": 192,
          "midi": 60,
          "name": "C4",
          "ticks": 4992,
          "time": 20.129043999999997,
          "velocity": 0.7874015748031497
        },
        {
          "duration": 0.7741940000000014,
          "durationTicks": 192,
          "midi": 55,
          "name": "G3",
          "ticks": 4992,
          "time": 20.129043999999997,
          "velocity": 0.7874015748031497
        },
        {
          "duration": 0.7741940000000014,
          "durationTicks": 192,
          "midi": 63,
          "name": "D#4",
          "ticks": 5184,
          "time": 20.903237999999998,
          "velocity": 0.7874015748031497
        },
        {
          "duration": 0.7741940000000014,
          "durationTicks": 192,
          "midi": 59,
          "name": "B3",
          "ticks": 5184,
          "time": 20.903237999999998,
          "velocity": 0.7874015748031497
        },
        {
          "duration": 0.7741940000000014,
          "durationTicks": 192,
          "midi": 54,
          "name": "F#3",
          "ticks": 5184,
          "time": 20.903237999999998,
          "velocity": 0.7874015748031497
        },
        {
          "duration": 0.7741939999999978,
          "durationTicks": 192,
          "midi": 53,
          "name": "F3",
          "ticks": 5376,
          "time": 21.677432,
          "velocity": 0.7874015748031497
        },
        {
          "duration": 0.7741939999999978,
          "durationTicks": 192,
          "midi": 61,
          "name": "C#4",
          "ticks": 5376,
          "time": 21.677432,
          "velocity": 0.7874015748031497
        },
        {
          "duration": 0.7741939999999978,
          "durationTicks": 192,
          "midi": 58,
          "name": "A#3",
          "ticks": 5376,
          "time": 21.677432,
          "velocity": 0.7874015748031497
        },
        {
          "duration": 0.7741940000000014,
          "durationTicks": 192,
          "midi": 60,
          "name": "C4",
          "ticks": 5568,
          "time": 22.451625999999997,
          "velocity": 0.7874015748031497
        },
        {
          "duration": 0.7741940000000014,
          "durationTicks": 192,
          "midi": 52,
          "name": "E3",
          "ticks": 5568,
          "time": 22.451625999999997,
          "velocity": 0.7874015748031497
        },
        {
          "duration": 0.7741940000000014,
          "durationTicks": 192,
          "midi": 57,
          "name": "A3",
          "ticks": 5568,
          "time": 22.451625999999997,
          "velocity": 0.7874015748031497
        },
        {
          "duration": 0.7741939999999978,
          "durationTicks": 192,
          "midi": 64,
          "name": "E4",
          "ticks": 5760,
          "time": 23.22582,
          "velocity": 0.7874015748031497
        },
        {
          "duration": 0.7741939999999978,
          "durationTicks": 192,
          "midi": 60,
          "name": "C4",
          "ticks": 5760,
          "time": 23.22582,
          "velocity": 0.7874015748031497
        },
        {
          "duration": 0.7741939999999978,
          "durationTicks": 192,
          "midi": 55,
          "name": "G3",
          "ticks": 5760,
          "time": 23.22582,
          "velocity": 0.7874015748031497
        },
        {
          "duration": 0.7741940000000014,
          "durationTicks": 192,
          "midi": 63,
          "name": "D#4",
          "ticks": 5952,
          "time": 24.000013999999997,
          "velocity": 0.7874015748031497
        },
        {
          "duration": 0.7741940000000014,
          "durationTicks": 192,
          "midi": 59,
          "name": "B3",
          "ticks": 5952,
          "time": 24.000013999999997,
          "velocity": 0.7874015748031497
        },
        {
          "duration": 0.7741940000000014,
          "durationTicks": 192,
          "midi": 54,
          "name": "F#3",
          "ticks": 5952,
          "time": 24.000013999999997,
          "velocity": 0.7874015748031497
        },
        {
          "duration": 0.7741940000000014,
          "durationTicks": 192,
          "midi": 58,
          "name": "A#3",
          "ticks": 6144,
          "time": 24.774207999999998,
          "velocity": 0.7874015748031497
        },
        {
          "duration": 0.7741940000000014,
          "durationTicks": 192,
          "midi": 61,
          "name": "C#4",
          "ticks": 6144,
          "time": 24.774207999999998,
          "velocity": 0.7874015748031497
        },
        {
          "duration": 0.7741940000000014,
          "durationTicks": 192,
          "midi": 53,
          "name": "F3",
          "ticks": 6144,
          "time": 24.774207999999998,
          "velocity": 0.7874015748031497
        },
        {
          "duration": 0.7741939999999978,
          "durationTicks": 192,
          "midi": 57,
          "name": "A3",
          "ticks": 6336,
          "time": 25.548402,
          "velocity": 0.7874015748031497
        },
        {
          "duration": 0.7741939999999978,
          "durationTicks": 192,
          "midi": 52,
          "name": "E3",
          "ticks": 6336,
          "time": 25.548402,
          "velocity": 0.7874015748031497
        },
        {
          "duration": 0.7741939999999978,
          "durationTicks": 192,
          "midi": 60,
          "name": "C4",
          "ticks": 6336,
          "time": 25.548402,
          "velocity": 0.7874015748031497
        },
        {
          "duration": 0.7741940000000014,
          "durationTicks": 192,
          "midi": 55,
          "name": "G3",
          "ticks": 6528,
          "time": 26.322595999999997,
          "velocity": 0.7874015748031497
        },
        {
          "duration": 0.7741940000000014,
          "durationTicks": 192,
          "midi": 60,
          "name": "C4",
          "ticks": 6528,
          "time": 26.322595999999997,
          "velocity": 0.7874015748031497
        },
        {
          "duration": 0.7741940000000014,
          "durationTicks": 192,
          "midi": 64,
          "name": "E4",
          "ticks": 6528,
          "time": 26.322595999999997,
          "velocity": 0.7874015748031497
        },
        {
          "duration": 0.7741939999999978,
          "durationTicks": 192,
          "midi": 54,
          "name": "F#3",
          "ticks": 6720,
          "time": 27.09679,
          "velocity": 0.7874015748031497
        },
        {
          "duration": 0.7741939999999978,
          "durationTicks": 192,
          "midi": 59,
          "name": "B3",
          "ticks": 6720,
          "time": 27.09679,
          "velocity": 0.7874015748031497
        },
        {
          "duration": 0.7741939999999978,
          "durationTicks": 192,
          "midi": 63,
          "name": "D#4",
          "ticks": 6720,
          "time": 27.09679,
          "velocity": 0.7874015748031497
        },
        {
          "duration": 0.7741940000000014,
          "durationTicks": 192,
          "midi": 58,
          "name": "A#3",
          "ticks": 6912,
          "time": 27.870983999999996,
          "velocity": 0.7874015748031497
        },
        {
          "duration": 0.7741940000000014,
          "durationTicks": 192,
          "midi": 54,
          "name": "F#3",
          "ticks": 6912,
          "time": 27.870983999999996,
          "velocity": 0.7874015748031497
        },
        {
          "duration": 0.7741940000000014,
          "durationTicks": 192,
          "midi": 49,
          "name": "C#3",
          "ticks": 6912,
          "time": 27.870983999999996,
          "velocity": 0.7874015748031497
        },
        {
          "duration": 0.7741940000000014,
          "durationTicks": 192,
          "midi": 60,
          "name": "C4",
          "ticks": 7104,
          "time": 28.645177999999998,
          "velocity": 0.7874015748031497
        },
        {
          "duration": 0.7741940000000014,
          "durationTicks": 192,
          "midi": 56,
          "name": "G#3",
          "ticks": 7104,
          "time": 28.645177999999998,
          "velocity": 0.7874015748031497
        },
        {
          "duration": 0.7741940000000014,
          "durationTicks": 192,
          "midi": 51,
          "name": "D#3",
          "ticks": 7104,
          "time": 28.645177999999998,
          "velocity": 0.7874015748031497
        },
        {
          "duration": 0.7741939999999978,
          "durationTicks": 192,
          "midi": 61,
          "name": "C#4",
          "ticks": 7296,
          "time": 29.419372,
          "velocity": 0.7874015748031497
        },
        {
          "duration": 0.7741939999999978,
          "durationTicks": 192,
          "midi": 58,
          "name": "A#3",
          "ticks": 7296,
          "time": 29.419372,
          "velocity": 0.7874015748031497
        },
        {
          "duration": 0.7741939999999978,
          "durationTicks": 192,
          "midi": 53,
          "name": "F3",
          "ticks": 7296,
          "time": 29.419372,
          "velocity": 0.7874015748031497
        },
        {
          "duration": 0.7741940000000014,
          "durationTicks": 192,
          "midi": 63,
          "name": "D#4",
          "ticks": 7488,
          "time": 30.193565999999997,
          "velocity": 0.7874015748031497
        },
        {
          "duration": 0.7741940000000014,
          "durationTicks": 192,
          "midi": 58,
          "name": "A#3",
          "ticks": 7488,
          "time": 30.193565999999997,
          "velocity": 0.7874015748031497
        },
        {
          "duration": 0.7741940000000014,
          "durationTicks": 192,
          "midi": 55,
          "name": "G3",
          "ticks": 7488,
          "time": 30.193565999999997,
          "velocity": 0.7874015748031497
        },
        {
          "duration": 0.7741939999999978,
          "durationTicks": 192,
          "midi": 58,
          "name": "A#3",
          "ticks": 7680,
          "time": 30.96776,
          "velocity": 0.7874015748031497
        },
        {
          "duration": 0.7741939999999978,
          "durationTicks": 192,
          "midi": 54,
          "name": "F#3",
          "ticks": 7680,
          "time": 30.96776,
          "velocity": 0.7874015748031497
        },
        {
          "duration": 0.7741939999999978,
          "durationTicks": 192,
          "midi": 49,
          "name": "C#3",
          "ticks": 7680,
          "time": 30.96776,
          "velocity": 0.7874015748031497
        },
        {
          "duration": 0.7741939999999978,
          "durationTicks": 192,
          "midi": 60,
          "name": "C4",
          "ticks": 7872,
          "time": 31.741953999999996,
          "velocity": 0.7874015748031497
        },
        {
          "duration": 0.7741939999999978,
          "durationTicks": 192,
          "midi": 56,
          "name": "G#3",
          "ticks": 7872,
          "time": 31.741953999999996,
          "velocity": 0.7874015748031497
        },
        {
          "duration": 0.7741939999999978,
          "durationTicks": 192,
          "midi": 51,
          "name": "D#3",
          "ticks": 7872,
          "time": 31.741953999999996,
          "velocity": 0.7874015748031497
        },
        {
          "duration": 1.5483880000000028,
          "durationTicks": 384,
          "midi": 61,
          "name": "C#4",
          "ticks": 8064,
          "time": 32.516147999999994,
          "velocity": 0.7874015748031497
        },
        {
          "duration": 1.5483880000000028,
          "durationTicks": 384,
          "midi": 58,
          "name": "A#3",
          "ticks": 8064,
          "time": 32.516147999999994,
          "velocity": 0.7874015748031497
        },
        {
          "duration": 1.5483880000000028,
          "durationTicks": 384,
          "midi": 53,
          "name": "F3",
          "ticks": 8064,
          "time": 32.516147999999994,
          "velocity": 0.7874015748031497
        },
        {
          "duration": 0.7741940000000014,
          "durationTicks": 192,
          "midi": 58,
          "name": "A#3",
          "ticks": 8448,
          "time": 34.064536,
          "velocity": 0.7874015748031497
        },
        {
          "duration": 0.7741940000000014,
          "durationTicks": 192,
          "midi": 54,
          "name": "F#3",
          "ticks": 8448,
          "time": 34.064536,
          "velocity": 0.7874015748031497
        },
        {
          "duration": 0.7741940000000014,
          "durationTicks": 192,
          "midi": 49,
          "name": "C#3",
          "ticks": 8448,
          "time": 34.064536,
          "velocity": 0.7874015748031497
        },
        {
          "duration": 0.7741940000000014,
          "durationTicks": 192,
          "midi": 60,
          "name": "C4",
          "ticks": 8640,
          "time": 34.83873,
          "velocity": 0.7874015748031497
        },
        {
          "duration": 0.7741940000000014,
          "durationTicks": 192,
          "midi": 56,
          "name": "G#3",
          "ticks": 8640,
          "time": 34.83873,
          "velocity": 0.7874015748031497
        },
        {
          "duration": 0.7741940000000014,
          "durationTicks": 192,
          "midi": 51,
          "name": "D#3",
          "ticks": 8640,
          "time": 34.83873,
          "velocity": 0.7874015748031497
        },
        {
          "duration": 0.7741939999999943,
          "durationTicks": 192,
          "midi": 61,
          "name": "C#4",
          "ticks": 8832,
          "time": 35.612924,
          "velocity": 0.7874015748031497
        },
        {
          "duration": 0.7741939999999943,
          "durationTicks": 192,
          "midi": 58,
          "name": "A#3",
          "ticks": 8832,
          "time": 35.612924,
          "velocity": 0.7874015748031497
        },
        {
          "duration": 0.7741939999999943,
          "durationTicks": 192,
          "midi": 53,
          "name": "F3",
          "ticks": 8832,
          "time": 35.612924,
          "velocity": 0.7874015748031497
        },
        {
          "duration": 0.7741940000000014,
          "durationTicks": 192,
          "midi": 63,
          "name": "D#4",
          "ticks": 9024,
          "time": 36.387117999999994,
          "velocity": 0.7874015748031497
        },
        {
          "duration": 0.7741940000000014,
          "durationTicks": 192,
          "midi": 58,
          "name": "A#3",
          "ticks": 9024,
          "time": 36.387117999999994,
          "velocity": 0.7874015748031497
        },
        {
          "duration": 0.7741940000000014,
          "durationTicks": 192,
          "midi": 55,
          "name": "G3",
          "ticks": 9024,
          "time": 36.387117999999994,
          "velocity": 0.7874015748031497
        },
        {
          "duration": 0.7741940000000014,
          "durationTicks": 192,
          "midi": 58,
          "name": "A#3",
          "ticks": 9216,
          "time": 37.161311999999995,
          "velocity": 0.7874015748031497
        },
        {
          "duration": 0.7741940000000014,
          "durationTicks": 192,
          "midi": 54,
          "name": "F#3",
          "ticks": 9216,
          "time": 37.161311999999995,
          "velocity": 0.7874015748031497
        },
        {
          "duration": 0.7741940000000014,
          "durationTicks": 192,
          "midi": 49,
          "name": "C#3",
          "ticks": 9216,
          "time": 37.161311999999995,
          "velocity": 0.7874015748031497
        },
        {
          "duration": 0.7741940000000014,
          "durationTicks": 192,
          "midi": 60,
          "name": "C4",
          "ticks": 9408,
          "time": 37.935506,
          "velocity": 0.7874015748031497
        },
        {
          "duration": 0.7741940000000014,
          "durationTicks": 192,
          "midi": 56,
          "name": "G#3",
          "ticks": 9408,
          "time": 37.935506,
          "velocity": 0.7874015748031497
        },
        {
          "duration": 0.7741940000000014,
          "durationTicks": 192,
          "midi": 51,
          "name": "D#3",
          "ticks": 9408,
          "time": 37.935506,
          "velocity": 0.7874015748031497
        },
        {
          "duration": 1.5483879999999957,
          "durationTicks": 384,
          "midi": 58,
          "name": "A#3",
          "ticks": 9600,
          "time": 38.7097,
          "velocity": 0.7874015748031497
        },
        {
          "duration": 1.5483879999999957,
          "durationTicks": 384,
          "midi": 53,
          "name": "F3",
          "ticks": 9600,
          "time": 38.7097,
          "velocity": 0.7874015748031497
        },
        {
          "duration": 1.5483879999999957,
          "durationTicks": 384,
          "midi": 49,
          "name": "C#3",
          "ticks": 9600,
          "time": 38.7097,
          "velocity": 0.7874015748031497
        },
        {
          "duration": 0.7741940000000014,
          "durationTicks": 192,
          "midi": 58,
          "name": "A#3",
          "ticks": 9984,
          "time": 40.258087999999994,
          "velocity": 0.7874015748031497
        },
        {
          "duration": 0.7741940000000014,
          "durationTicks": 192,
          "midi": 54,
          "name": "F#3",
          "ticks": 9984,
          "time": 40.258087999999994,
          "velocity": 0.7874015748031497
        },
        {
          "duration": 0.7741940000000014,
          "durationTicks": 192,
          "midi": 49,
          "name": "C#3",
          "ticks": 9984,
          "time": 40.258087999999994,
          "velocity": 0.7874015748031497
        },
        {
          "duration": 0.7741940000000014,
          "durationTicks": 192,
          "midi": 60,
          "name": "C4",
          "ticks": 10176,
          "time": 41.032281999999995,
          "velocity": 0.7874015748031497
        },
        {
          "duration": 0.7741940000000014,
          "durationTicks": 192,
          "midi": 56,
          "name": "G#3",
          "ticks": 10176,
          "time": 41.032281999999995,
          "velocity": 0.7874015748031497
        },
        {
          "duration": 0.7741940000000014,
          "durationTicks": 192,
          "midi": 51,
          "name": "D#3",
          "ticks": 10176,
          "time": 41.032281999999995,
          "velocity": 0.7874015748031497
        },
        {
          "duration": 0.7741940000000014,
          "durationTicks": 192,
          "midi": 61,
          "name": "C#4",
          "ticks": 10368,
          "time": 41.806475999999996,
          "velocity": 0.7874015748031497
        },
        {
          "duration": 0.7741940000000014,
          "durationTicks": 192,
          "midi": 58,
          "name": "A#3",
          "ticks": 10368,
          "time": 41.806475999999996,
          "velocity": 0.7874015748031497
        },
        {
          "duration": 0.7741940000000014,
          "durationTicks": 192,
          "midi": 53,
          "name": "F3",
          "ticks": 10368,
          "time": 41.806475999999996,
          "velocity": 0.7874015748031497
        },
        {
          "duration": 0.7741940000000014,
          "durationTicks": 192,
          "midi": 63,
          "name": "D#4",
          "ticks": 10560,
          "time": 42.58067,
          "velocity": 0.7874015748031497
        },
        {
          "duration": 0.7741940000000014,
          "durationTicks": 192,
          "midi": 58,
          "name": "A#3",
          "ticks": 10560,
          "time": 42.58067,
          "velocity": 0.7874015748031497
        },
        {
          "duration": 0.7741940000000014,
          "durationTicks": 192,
          "midi": 55,
          "name": "G3",
          "ticks": 10560,
          "time": 42.58067,
          "velocity": 0.7874015748031497
        },
        {
          "duration": 0.7741939999999943,
          "durationTicks": 192,
          "midi": 58,
          "name": "A#3",
          "ticks": 10752,
          "time": 43.354864,
          "velocity": 0.7874015748031497
        },
        {
          "duration": 0.7741939999999943,
          "durationTicks": 192,
          "midi": 54,
          "name": "F#3",
          "ticks": 10752,
          "time": 43.354864,
          "velocity": 0.7874015748031497
        },
        {
          "duration": 0.7741939999999943,
          "durationTicks": 192,
          "midi": 49,
          "name": "C#3",
          "ticks": 10752,
          "time": 43.354864,
          "velocity": 0.7874015748031497
        },
        {
          "duration": 0.7741940000000014,
          "durationTicks": 192,
          "midi": 60,
          "name": "C4",
          "ticks": 10944,
          "time": 44.12905799999999,
          "velocity": 0.7874015748031497
        },
        {
          "duration": 0.7741940000000014,
          "durationTicks": 192,
          "midi": 56,
          "name": "G#3",
          "ticks": 10944,
          "time": 44.12905799999999,
          "velocity": 0.7874015748031497
        },
        {
          "duration": 0.7741940000000014,
          "durationTicks": 192,
          "midi": 51,
          "name": "D#3",
          "ticks": 10944,
          "time": 44.12905799999999,
          "velocity": 0.7874015748031497
        },
        {
          "duration": 1.5483880000000028,
          "durationTicks": 384,
          "midi": 61,
          "name": "C#4",
          "ticks": 11136,
          "time": 44.903251999999995,
          "velocity": 0.7874015748031497
        },
        {
          "duration": 1.5483880000000028,
          "durationTicks": 384,
          "midi": 58,
          "name": "A#3",
          "ticks": 11136,
          "time": 44.903251999999995,
          "velocity": 0.7874015748031497
        },
        {
          "duration": 1.5483880000000028,
          "durationTicks": 384,
          "midi": 53,
          "name": "F3",
          "ticks": 11136,
          "time": 44.903251999999995,
          "velocity": 0.7874015748031497
        },
        {
          "duration": 0.7741940000000014,
          "durationTicks": 192,
          "midi": 58,
          "name": "A#3",
          "ticks": 11520,
          "time": 46.45164,
          "velocity": 0.7874015748031497
        },
        {
          "duration": 0.7741940000000014,
          "durationTicks": 192,
          "midi": 54,
          "name": "F#3",
          "ticks": 11520,
          "time": 46.45164,
          "velocity": 0.7874015748031497
        },
        {
          "duration": 0.7741940000000014,
          "durationTicks": 192,
          "midi": 49,
          "name": "C#3",
          "ticks": 11520,
          "time": 46.45164,
          "velocity": 0.7874015748031497
        },
        {
          "duration": 0.7741939999999943,
          "durationTicks": 192,
          "midi": 60,
          "name": "C4",
          "ticks": 11712,
          "time": 47.225834,
          "velocity": 0.7874015748031497
        },
        {
          "duration": 0.7741939999999943,
          "durationTicks": 192,
          "midi": 56,
          "name": "G#3",
          "ticks": 11712,
          "time": 47.225834,
          "velocity": 0.7874015748031497
        },
        {
          "duration": 0.7741939999999943,
          "durationTicks": 192,
          "midi": 51,
          "name": "D#3",
          "ticks": 11712,
          "time": 47.225834,
          "velocity": 0.7874015748031497
        },
        {
          "duration": 0.7741940000000014,
          "durationTicks": 192,
          "midi": 61,
          "name": "C#4",
          "ticks": 11904,
          "time": 48.00002799999999,
          "velocity": 0.7874015748031497
        },
        {
          "duration": 0.7741940000000014,
          "durationTicks": 192,
          "midi": 58,
          "name": "A#3",
          "ticks": 11904,
          "time": 48.00002799999999,
          "velocity": 0.7874015748031497
        },
        {
          "duration": 0.7741940000000014,
          "durationTicks": 192,
          "midi": 53,
          "name": "F3",
          "ticks": 11904,
          "time": 48.00002799999999,
          "velocity": 0.7874015748031497
        },
        {
          "duration": 0.7741940000000014,
          "durationTicks": 192,
          "midi": 63,
          "name": "D#4",
          "ticks": 12096,
          "time": 48.774221999999995,
          "velocity": 0.7874015748031497
        },
        {
          "duration": 0.7741940000000014,
          "durationTicks": 192,
          "midi": 58,
          "name": "A#3",
          "ticks": 12096,
          "time": 48.774221999999995,
          "velocity": 0.7874015748031497
        },
        {
          "duration": 0.7741940000000014,
          "durationTicks": 192,
          "midi": 55,
          "name": "G3",
          "ticks": 12096,
          "time": 48.774221999999995,
          "velocity": 0.7874015748031497
        },
        {
          "duration": 0.7741940000000014,
          "durationTicks": 192,
          "midi": 58,
          "name": "A#3",
          "ticks": 12288,
          "time": 49.548415999999996,
          "velocity": 0.7874015748031497
        },
        {
          "duration": 0.7741940000000014,
          "durationTicks": 192,
          "midi": 54,
          "name": "F#3",
          "ticks": 12288,
          "time": 49.548415999999996,
          "velocity": 0.7874015748031497
        },
        {
          "duration": 0.7741940000000014,
          "durationTicks": 192,
          "midi": 49,
          "name": "C#3",
          "ticks": 12288,
          "time": 49.548415999999996,
          "velocity": 0.7874015748031497
        },
        {
          "duration": 0.7741940000000014,
          "durationTicks": 192,
          "midi": 60,
          "name": "C4",
          "ticks": 12480,
          "time": 50.32261,
          "velocity": 0.7874015748031497
        },
        {
          "duration": 0.7741940000000014,
          "durationTicks": 192,
          "midi": 56,
          "name": "G#3",
          "ticks": 12480,
          "time": 50.32261,
          "velocity": 0.7874015748031497
        },
        {
          "duration": 0.7741940000000014,
          "durationTicks": 192,
          "midi": 51,
          "name": "D#3",
          "ticks": 12480,
          "time": 50.32261,
          "velocity": 0.7874015748031497
        },
        {
          "duration": 1.5483879999999957,
          "durationTicks": 384,
          "midi": 53,
          "name": "F3",
          "ticks": 12672,
          "time": 51.096804,
          "velocity": 0.7874015748031497
        },
        {
          "duration": 1.5483879999999957,
          "durationTicks": 384,
          "midi": 49,
          "name": "C#3",
          "ticks": 12672,
          "time": 51.096804,
          "velocity": 0.7874015748031497
        },
        {
          "duration": 1.5483879999999957,
          "durationTicks": 384,
          "midi": 58,
          "name": "A#3",
          "ticks": 12672,
          "time": 51.096804,
          "velocity": 0.7874015748031497
        },
        {
          "duration": 1.5483880000000028,
          "durationTicks": 384,
          "midi": 58,
          "name": "A#3",
          "ticks": 13056,
          "time": 52.645191999999994,
          "velocity": 0.7874015748031497
        },
        {
          "duration": 1.5483880000000028,
          "durationTicks": 384,
          "midi": 53,
          "name": "F3",
          "ticks": 13056,
          "time": 52.645191999999994,
          "velocity": 0.7874015748031497
        },
        {
          "duration": 1.5483880000000028,
          "durationTicks": 384,
          "midi": 46,
          "name": "A#2",
          "ticks": 13056,
          "time": 52.645191999999994,
          "velocity": 0.7874015748031497
        },
        {
          "duration": 1.5483879999999957,
          "durationTicks": 384,
          "midi": 58,
          "name": "A#3",
          "ticks": 13440,
          "time": 54.19358,
          "velocity": 0.7874015748031497
        },
        {
          "duration": 1.5483879999999957,
          "durationTicks": 384,
          "midi": 53,
          "name": "F3",
          "ticks": 13440,
          "time": 54.19358,
          "velocity": 0.7874015748031497
        },
        {
          "duration": 1.5483879999999957,
          "durationTicks": 384,
          "midi": 46,
          "name": "A#2",
          "ticks": 13440,
          "time": 54.19358,
          "velocity": 0.7874015748031497
        },
        {
          "duration": 1.5483880000000028,
          "durationTicks": 384,
          "midi": 62,
          "name": "D4",
          "ticks": 13824,
          "time": 55.74196799999999,
          "velocity": 0.7874015748031497
        },
        {
          "duration": 1.5483880000000028,
          "durationTicks": 384,
          "midi": 57,
          "name": "A3",
          "ticks": 13824,
          "time": 55.74196799999999,
          "velocity": 0.7874015748031497
        },
        {
          "duration": 1.5483880000000028,
          "durationTicks": 384,
          "midi": 50,
          "name": "D3",
          "ticks": 13824,
          "time": 55.74196799999999,
          "velocity": 0.7874015748031497
        },
        {
          "duration": 1.5483880000000028,
          "durationTicks": 384,
          "midi": 62,
          "name": "D4",
          "ticks": 14208,
          "time": 57.290355999999996,
          "velocity": 0.7874015748031497
        },
        {
          "duration": 1.5483880000000028,
          "durationTicks": 384,
          "midi": 57,
          "name": "A3",
          "ticks": 14208,
          "time": 57.290355999999996,
          "velocity": 0.7874015748031497
        },
        {
          "duration": 1.5483880000000028,
          "durationTicks": 384,
          "midi": 50,
          "name": "D3",
          "ticks": 14208,
          "time": 57.290355999999996,
          "velocity": 0.7874015748031497
        },
        {
          "duration": 0.7741939999999943,
          "durationTicks": 192,
          "midi": 58,
          "name": "A#3",
          "ticks": 14592,
          "time": 58.838744,
          "velocity": 0.7874015748031497
        },
        {
          "duration": 0.7741939999999943,
          "durationTicks": 192,
          "midi": 46,
          "name": "A#2",
          "ticks": 14592,
          "time": 58.838744,
          "velocity": 0.7874015748031497
        },
        {
          "duration": 0.7741939999999943,
          "durationTicks": 192,
          "midi": 53,
          "name": "F3",
          "ticks": 14592,
          "time": 58.838744,
          "velocity": 0.7874015748031497
        },
        {
          "duration": 0.7741940000000014,
          "durationTicks": 192,
          "midi": 55,
          "name": "G3",
          "ticks": 14784,
          "time": 59.61293799999999,
          "velocity": 0.7874015748031497
        },
        {
          "duration": 0.7741940000000014,
          "durationTicks": 192,
          "midi": 48,
          "name": "C3",
          "ticks": 14784,
          "time": 59.61293799999999,
          "velocity": 0.7874015748031497
        },
        {
          "duration": 0.7741940000000014,
          "durationTicks": 192,
          "midi": 60,
          "name": "C4",
          "ticks": 14784,
          "time": 59.61293799999999,
          "velocity": 0.7874015748031497
        },
        {
          "duration": 1.5483880000000028,
          "durationTicks": 384,
          "midi": 62,
          "name": "D4",
          "ticks": 14976,
          "time": 60.387131999999994,
          "velocity": 0.7874015748031497
        },
        {
          "duration": 1.5483880000000028,
          "durationTicks": 384,
          "midi": 57,
          "name": "A3",
          "ticks": 14976,
          "time": 60.387131999999994,
          "velocity": 0.7874015748031497
        },
        {
          "duration": 1.5483880000000028,
          "durationTicks": 384,
          "midi": 50,
          "name": "D3",
          "ticks": 14976,
          "time": 60.387131999999994,
          "velocity": 0.7874015748031497
        },
        {
          "duration": 0.7741940000000014,
          "durationTicks": 192,
          "midi": 58,
          "name": "A#3",
          "ticks": 15360,
          "time": 61.93552,
          "velocity": 0.7874015748031497
        },
        {
          "duration": 0.7741940000000014,
          "durationTicks": 192,
          "midi": 46,
          "name": "A#2",
          "ticks": 15360,
          "time": 61.93552,
          "velocity": 0.7874015748031497
        },
        {
          "duration": 0.7741940000000014,
          "durationTicks": 192,
          "midi": 53,
          "name": "F3",
          "ticks": 15360,
          "time": 61.93552,
          "velocity": 0.7874015748031497
        },
        {
          "duration": 0.7741939999999943,
          "durationTicks": 192,
          "midi": 55,
          "name": "G3",
          "ticks": 15552,
          "time": 62.709714,
          "velocity": 0.7874015748031497
        },
        {
          "duration": 0.7741939999999943,
          "durationTicks": 192,
          "midi": 48,
          "name": "C3",
          "ticks": 15552,
          "time": 62.709714,
          "velocity": 0.7874015748031497
        },
        {
          "duration": 0.7741939999999943,
          "durationTicks": 192,
          "midi": 60,
          "name": "C4",
          "ticks": 15552,
          "time": 62.709714,
          "velocity": 0.7874015748031497
        },
        {
          "duration": 0.7741940000000014,
          "durationTicks": 192,
          "midi": 61,
          "name": "C#4",
          "ticks": 15744,
          "time": 63.48390799999999,
          "velocity": 0.7874015748031497
        },
        {
          "duration": 0.7741940000000014,
          "durationTicks": 192,
          "midi": 57,
          "name": "A3",
          "ticks": 15744,
          "time": 63.48390799999999,
          "velocity": 0.7874015748031497
        },
        {
          "duration": 0.7741940000000014,
          "durationTicks": 192,
          "midi": 49,
          "name": "C#3",
          "ticks": 15744,
          "time": 63.48390799999999,
          "velocity": 0.7874015748031497
        },
        {
          "duration": 0.7741939999999943,
          "durationTicks": 192,
          "midi": 62,
          "name": "D4",
          "ticks": 15936,
          "time": 64.258102,
          "velocity": 0.7874015748031497
        },
        {
          "duration": 0.7741939999999943,
          "durationTicks": 192,
          "midi": 57,
          "name": "A3",
          "ticks": 15936,
          "time": 64.258102,
          "velocity": 0.7874015748031497
        },
        {
          "duration": 0.7741939999999943,
          "durationTicks": 192,
          "midi": 50,
          "name": "D3",
          "ticks": 15936,
          "time": 64.258102,
          "velocity": 0.7874015748031497
        },
        {
          "duration": 0.7741940000000085,
          "durationTicks": 192,
          "midi": 58,
          "name": "A#3",
          "ticks": 16128,
          "time": 65.03229599999999,
          "velocity": 0.7874015748031497
        },
        {
          "duration": 0.7741940000000085,
          "durationTicks": 192,
          "midi": 46,
          "name": "A#2",
          "ticks": 16128,
          "time": 65.03229599999999,
          "velocity": 0.7874015748031497
        },
        {
          "duration": 0.7741940000000085,
          "durationTicks": 192,
          "midi": 53,
          "name": "F3",
          "ticks": 16128,
          "time": 65.03229599999999,
          "velocity": 0.7874015748031497
        },
        {
          "duration": 0.7741939999999943,
          "durationTicks": 192,
          "midi": 55,
          "name": "G3",
          "ticks": 16320,
          "time": 65.80649,
          "velocity": 0.7874015748031497
        },
        {
          "duration": 0.7741939999999943,
          "durationTicks": 192,
          "midi": 48,
          "name": "C3",
          "ticks": 16320,
          "time": 65.80649,
          "velocity": 0.7874015748031497
        },
        {
          "duration": 0.7741939999999943,
          "durationTicks": 192,
          "midi": 60,
          "name": "C4",
          "ticks": 16320,
          "time": 65.80649,
          "velocity": 0.7874015748031497
        },
        {
          "duration": 1.5483880000000028,
          "durationTicks": 384,
          "midi": 62,
          "name": "D4",
          "ticks": 16512,
          "time": 66.58068399999999,
          "velocity": 0.7874015748031497
        },
        {
          "duration": 1.5483880000000028,
          "durationTicks": 384,
          "midi": 57,
          "name": "A3",
          "ticks": 16512,
          "time": 66.58068399999999,
          "velocity": 0.7874015748031497
        },
        {
          "duration": 1.5483880000000028,
          "durationTicks": 384,
          "midi": 50,
          "name": "D3",
          "ticks": 16512,
          "time": 66.58068399999999,
          "velocity": 0.7874015748031497
        },
        {
          "duration": 0.7741939999999943,
          "durationTicks": 192,
          "midi": 58,
          "name": "A#3",
          "ticks": 16896,
          "time": 68.129072,
          "velocity": 0.7874015748031497
        },
        {
          "duration": 0.7741939999999943,
          "durationTicks": 192,
          "midi": 46,
          "name": "A#2",
          "ticks": 16896,
          "time": 68.129072,
          "velocity": 0.7874015748031497
        },
        {
          "duration": 0.7741939999999943,
          "durationTicks": 192,
          "midi": 53,
          "name": "F3",
          "ticks": 16896,
          "time": 68.129072,
          "velocity": 0.7874015748031497
        },
        {
          "duration": 0.7741940000000085,
          "durationTicks": 192,
          "midi": 55,
          "name": "G3",
          "ticks": 17088,
          "time": 68.90326599999999,
          "velocity": 0.7874015748031497
        },
        {
          "duration": 0.7741940000000085,
          "durationTicks": 192,
          "midi": 48,
          "name": "C3",
          "ticks": 17088,
          "time": 68.90326599999999,
          "velocity": 0.7874015748031497
        },
        {
          "duration": 0.7741940000000085,
          "durationTicks": 192,
          "midi": 60,
          "name": "C4",
          "ticks": 17088,
          "time": 68.90326599999999,
          "velocity": 0.7874015748031497
        },
        {
          "duration": 0.7741939999999943,
          "durationTicks": 192,
          "midi": 61,
          "name": "C#4",
          "ticks": 17280,
          "time": 69.67746,
          "velocity": 0.7874015748031497
        },
        {
          "duration": 0.7741939999999943,
          "durationTicks": 192,
          "midi": 57,
          "name": "A3",
          "ticks": 17280,
          "time": 69.67746,
          "velocity": 0.7874015748031497
        },
        {
          "duration": 0.7741939999999943,
          "durationTicks": 192,
          "midi": 49,
          "name": "C#3",
          "ticks": 17280,
          "time": 69.67746,
          "velocity": 0.7874015748031497
        },
        {
          "duration": 0.7741939999999943,
          "durationTicks": 192,
          "midi": 58,
          "name": "A#3",
          "ticks": 17664,
          "time": 71.225848,
          "velocity": 0.7874015748031497
        },
        {
          "duration": 0.7741939999999943,
          "durationTicks": 192,
          "midi": 61,
          "name": "C#4",
          "ticks": 17664,
          "time": 71.225848,
          "velocity": 0.7874015748031497
        },
        {
          "duration": 0.7741939999999943,
          "durationTicks": 192,
          "midi": 53,
          "name": "F3",
          "ticks": 17664,
          "time": 71.225848,
          "velocity": 0.7874015748031497
        },
        {
          "duration": 0.7741939999999943,
          "durationTicks": 192,
          "midi": 57,
          "name": "A3",
          "ticks": 17856,
          "time": 72.000042,
          "velocity": 0.7874015748031497
        },
        {
          "duration": 0.7741939999999943,
          "durationTicks": 192,
          "midi": 52,
          "name": "E3",
          "ticks": 17856,
          "time": 72.000042,
          "velocity": 0.7874015748031497
        },
        {
          "duration": 0.7741939999999943,
          "durationTicks": 192,
          "midi": 60,
          "name": "C4",
          "ticks": 17856,
          "time": 72.000042,
          "velocity": 0.7874015748031497
        },
        {
          "duration": 0.7741940000000085,
          "durationTicks": 192,
          "midi": 55,
          "name": "G3",
          "ticks": 18048,
          "time": 72.77423599999999,
          "velocity": 0.7874015748031497
        },
        {
          "duration": 0.7741940000000085,
          "durationTicks": 192,
          "midi": 60,
          "name": "C4",
          "ticks": 18048,
          "time": 72.77423599999999,
          "velocity": 0.7874015748031497
        },
        {
          "duration": 0.7741940000000085,
          "durationTicks": 192,
          "midi": 64,
          "name": "E4",
          "ticks": 18048,
          "time": 72.77423599999999,
          "velocity": 0.7874015748031497
        },
        {
          "duration": 0.7741939999999943,
          "durationTicks": 192,
          "midi": 54,
          "name": "F#3",
          "ticks": 18240,
          "time": 73.54843,
          "velocity": 0.7874015748031497
        },
        {
          "duration": 0.7741939999999943,
          "durationTicks": 192,
          "midi": 59,
          "name": "B3",
          "ticks": 18240,
          "time": 73.54843,
          "velocity": 0.7874015748031497
        },
        {
          "duration": 0.7741939999999943,
          "durationTicks": 192,
          "midi": 63,
          "name": "D#4",
          "ticks": 18240,
          "time": 73.54843,
          "velocity": 0.7874015748031497
        },
        {
          "duration": 0.7741940000000085,
          "durationTicks": 192,
          "midi": 58,
          "name": "A#3",
          "ticks": 18432,
          "time": 74.32262399999999,
          "velocity": 0.7874015748031497
        },
        {
          "duration": 0.7741940000000085,
          "durationTicks": 192,
          "midi": 61,
          "name": "C#4",
          "ticks": 18432,
          "time": 74.32262399999999,
          "velocity": 0.7874015748031497
        },
        {
          "duration": 0.7741940000000085,
          "durationTicks": 192,
          "midi": 53,
          "name": "F3",
          "ticks": 18432,
          "time": 74.32262399999999,
          "velocity": 0.7874015748031497
        },
        {
          "duration": 0.7741939999999943,
          "durationTicks": 192,
          "midi": 57,
          "name": "A3",
          "ticks": 18624,
          "time": 75.096818,
          "velocity": 0.7874015748031497
        },
        {
          "duration": 0.7741939999999943,
          "durationTicks": 192,
          "midi": 52,
          "name": "E3",
          "ticks": 18624,
          "time": 75.096818,
          "velocity": 0.7874015748031497
        },
        {
          "duration": 0.7741939999999943,
          "durationTicks": 192,
          "midi": 60,
          "name": "C4",
          "ticks": 18624,
          "time": 75.096818,
          "velocity": 0.7874015748031497
        },
        {
          "duration": 0.7741939999999943,
          "durationTicks": 192,
          "midi": 55,
          "name": "G3",
          "ticks": 18816,
          "time": 75.871012,
          "velocity": 0.7874015748031497
        },
        {
          "duration": 0.7741939999999943,
          "durationTicks": 192,
          "midi": 60,
          "name": "C4",
          "ticks": 18816,
          "time": 75.871012,
          "velocity": 0.7874015748031497
        },
        {
          "duration": 0.7741939999999943,
          "durationTicks": 192,
          "midi": 64,
          "name": "E4",
          "ticks": 18816,
          "time": 75.871012,
          "velocity": 0.7874015748031497
        },
        {
          "duration": 0.7741940000000085,
          "durationTicks": 192,
          "midi": 54,
          "name": "F#3",
          "ticks": 19008,
          "time": 76.64520599999999,
          "velocity": 0.7874015748031497
        },
        {
          "duration": 0.7741940000000085,
          "durationTicks": 192,
          "midi": 59,
          "name": "B3",
          "ticks": 19008,
          "time": 76.64520599999999,
          "velocity": 0.7874015748031497
        },
        {
          "duration": 0.7741940000000085,
          "durationTicks": 192,
          "midi": 63,
          "name": "D#4",
          "ticks": 19008,
          "time": 76.64520599999999,
          "velocity": 0.7874015748031497
        },
        {
          "duration": 0.7741939999999943,
          "durationTicks": 192,
          "midi": 53,
          "name": "F3",
          "ticks": 19200,
          "time": 77.4194,
          "velocity": 0.7874015748031497
        },
        {
          "duration": 0.7741939999999943,
          "durationTicks": 192,
          "midi": 61,
          "name": "C#4",
          "ticks": 19200,
          "time": 77.4194,
          "velocity": 0.7874015748031497
        },
        {
          "duration": 0.7741939999999943,
          "durationTicks": 192,
          "midi": 58,
          "name": "A#3",
          "ticks": 19200,
          "time": 77.4194,
          "velocity": 0.7874015748031497
        },
        {
          "duration": 0.7741940000000085,
          "durationTicks": 192,
          "midi": 57,
          "name": "A3",
          "ticks": 19392,
          "time": 78.19359399999999,
          "velocity": 0.7874015748031497
        },
        {
          "duration": 0.7741940000000085,
          "durationTicks": 192,
          "midi": 52,
          "name": "E3",
          "ticks": 19392,
          "time": 78.19359399999999,
          "velocity": 0.7874015748031497
        },
        {
          "duration": 0.7741940000000085,
          "durationTicks": 192,
          "midi": 60,
          "name": "C4",
          "ticks": 19392,
          "time": 78.19359399999999,
          "velocity": 0.7874015748031497
        },
        {
          "duration": 0.7741939999999943,
          "durationTicks": 192,
          "midi": 64,
          "name": "E4",
          "ticks": 19584,
          "time": 78.967788,
          "velocity": 0.7874015748031497
        },
        {
          "duration": 0.7741939999999943,
          "durationTicks": 192,
          "midi": 60,
          "name": "C4",
          "ticks": 19584,
          "time": 78.967788,
          "velocity": 0.7874015748031497
        },
        {
          "duration": 0.7741939999999943,
          "durationTicks": 192,
          "midi": 55,
          "name": "G3",
          "ticks": 19584,
          "time": 78.967788,
          "velocity": 0.7874015748031497
        },
        {
          "duration": 0.7741939999999943,
          "durationTicks": 192,
          "midi": 54,
          "name": "F#3",
          "ticks": 19776,
          "time": 79.741982,
          "velocity": 0.7874015748031497
        },
        {
          "duration": 0.7741939999999943,
          "durationTicks": 192,
          "midi": 59,
          "name": "B3",
          "ticks": 19776,
          "time": 79.741982,
          "velocity": 0.7874015748031497
        },
        {
          "duration": 0.7741939999999943,
          "durationTicks": 192,
          "midi": 63,
          "name": "D#4",
          "ticks": 19776,
          "time": 79.741982,
          "velocity": 0.7874015748031497
        },
        {
          "duration": 0.7741940000000085,
          "durationTicks": 192,
          "midi": 58,
          "name": "A#3",
          "ticks": 19968,
          "time": 80.51617599999999,
          "velocity": 0.7874015748031497
        },
        {
          "duration": 0.7741940000000085,
          "durationTicks": 192,
          "midi": 61,
          "name": "C#4",
          "ticks": 19968,
          "time": 80.51617599999999,
          "velocity": 0.7874015748031497
        },
        {
          "duration": 0.7741940000000085,
          "durationTicks": 192,
          "midi": 53,
          "name": "F3",
          "ticks": 19968,
          "time": 80.51617599999999,
          "velocity": 0.7874015748031497
        },
        {
          "duration": 0.7741939999999943,
          "durationTicks": 192,
          "midi": 60,
          "name": "C4",
          "ticks": 20160,
          "time": 81.29037,
          "velocity": 0.7874015748031497
        },
        {
          "duration": 0.7741939999999943,
          "durationTicks": 192,
          "midi": 52,
          "name": "E3",
          "ticks": 20160,
          "time": 81.29037,
          "velocity": 0.7874015748031497
        },
        {
          "duration": 0.7741939999999943,
          "durationTicks": 192,
          "midi": 57,
          "name": "A3",
          "ticks": 20160,
          "time": 81.29037,
          "velocity": 0.7874015748031497
        },
        {
          "duration": 0.7741940000000085,
          "durationTicks": 192,
          "midi": 64,
          "name": "E4",
          "ticks": 20352,
          "time": 82.06456399999999,
          "velocity": 0.7874015748031497
        },
        {
          "duration": 0.7741940000000085,
          "durationTicks": 192,
          "midi": 60,
          "name": "C4",
          "ticks": 20352,
          "time": 82.06456399999999,
          "velocity": 0.7874015748031497
        },
        {
          "duration": 0.7741940000000085,
          "durationTicks": 192,
          "midi": 55,
          "name": "G3",
          "ticks": 20352,
          "time": 82.06456399999999,
          "velocity": 0.7874015748031497
        },
        {
          "duration": 0.7741939999999943,
          "durationTicks": 192,
          "midi": 63,
          "name": "D#4",
          "ticks": 20544,
          "time": 82.838758,
          "velocity": 0.7874015748031497
        },
        {
          "duration": 0.7741939999999943,
          "durationTicks": 192,
          "midi": 59,
          "name": "B3",
          "ticks": 20544,
          "time": 82.838758,
          "velocity": 0.7874015748031497
        },
        {
          "duration": 0.7741939999999943,
          "durationTicks": 192,
          "midi": 54,
          "name": "F#3",
          "ticks": 20544,
          "time": 82.838758,
          "velocity": 0.7874015748031497
        },
        {
          "duration": 0.7741939999999943,
          "durationTicks": 192,
          "midi": 53,
          "name": "F3",
          "ticks": 20736,
          "time": 83.61295199999999,
          "velocity": 0.7874015748031497
        },
        {
          "duration": 0.7741939999999943,
          "durationTicks": 192,
          "midi": 61,
          "name": "C#4",
          "ticks": 20736,
          "time": 83.61295199999999,
          "velocity": 0.7874015748031497
        },
        {
          "duration": 0.7741939999999943,
          "durationTicks": 192,
          "midi": 58,
          "name": "A#3",
          "ticks": 20736,
          "time": 83.61295199999999,
          "velocity": 0.7874015748031497
        },
        {
          "duration": 0.7741940000000085,
          "durationTicks": 192,
          "midi": 57,
          "name": "A3",
          "ticks": 20928,
          "time": 84.38714599999999,
          "velocity": 0.7874015748031497
        },
        {
          "duration": 0.7741940000000085,
          "durationTicks": 192,
          "midi": 52,
          "name": "E3",
          "ticks": 20928,
          "time": 84.38714599999999,
          "velocity": 0.7874015748031497
        },
        {
          "duration": 0.7741940000000085,
          "durationTicks": 192,
          "midi": 60,
          "name": "C4",
          "ticks": 20928,
          "time": 84.38714599999999,
          "velocity": 0.7874015748031497
        },
        {
          "duration": 0.7741939999999943,
          "durationTicks": 192,
          "midi": 64,
          "name": "E4",
          "ticks": 21120,
          "time": 85.16134,
          "velocity": 0.7874015748031497
        },
        {
          "duration": 0.7741939999999943,
          "durationTicks": 192,
          "midi": 60,
          "name": "C4",
          "ticks": 21120,
          "time": 85.16134,
          "velocity": 0.7874015748031497
        },
        {
          "duration": 0.7741939999999943,
          "durationTicks": 192,
          "midi": 55,
          "name": "G3",
          "ticks": 21120,
          "time": 85.16134,
          "velocity": 0.7874015748031497
        },
        {
          "duration": 0.7741940000000085,
          "durationTicks": 192,
          "midi": 54,
          "name": "F#3",
          "ticks": 21312,
          "time": 85.93553399999999,
          "velocity": 0.7874015748031497
        },
        {
          "duration": 0.7741940000000085,
          "durationTicks": 192,
          "midi": 59,
          "name": "B3",
          "ticks": 21312,
          "time": 85.93553399999999,
          "velocity": 0.7874015748031497
        },
        {
          "duration": 0.7741940000000085,
          "durationTicks": 192,
          "midi": 63,
          "name": "D#4",
          "ticks": 21312,
          "time": 85.93553399999999,
          "velocity": 0.7874015748031497
        },
        {
          "duration": 0.7741939999999943,
          "durationTicks": 192,
          "midi": 58,
          "name": "A#3",
          "ticks": 21504,
          "time": 86.709728,
          "velocity": 0.7874015748031497
        },
        {
          "duration": 0.7741939999999943,
          "durationTicks": 192,
          "midi": 61,
          "name": "C#4",
          "ticks": 21504,
          "time": 86.709728,
          "velocity": 0.7874015748031497
        },
        {
          "duration": 0.7741939999999943,
          "durationTicks": 192,
          "midi": 53,
          "name": "F3",
          "ticks": 21504,
          "time": 86.709728,
          "velocity": 0.7874015748031497
        },
        {
          "duration": 0.7741939999999943,
          "durationTicks": 192,
          "midi": 60,
          "name": "C4",
          "ticks": 21696,
          "time": 87.48392199999999,
          "velocity": 0.7874015748031497
        },
        {
          "duration": 0.7741939999999943,
          "durationTicks": 192,
          "midi": 52,
          "name": "E3",
          "ticks": 21696,
          "time": 87.48392199999999,
          "velocity": 0.7874015748031497
        },
        {
          "duration": 0.7741939999999943,
          "durationTicks": 192,
          "midi": 57,
          "name": "A3",
          "ticks": 21696,
          "time": 87.48392199999999,
          "velocity": 0.7874015748031497
        },
        {
          "duration": 0.7741940000000085,
          "durationTicks": 192,
          "midi": 55,
          "name": "G3",
          "ticks": 21888,
          "time": 88.25811599999999,
          "velocity": 0.7874015748031497
        },
        {
          "duration": 0.7741940000000085,
          "durationTicks": 192,
          "midi": 60,
          "name": "C4",
          "ticks": 21888,
          "time": 88.25811599999999,
          "velocity": 0.7874015748031497
        },
        {
          "duration": 0.7741940000000085,
          "durationTicks": 192,
          "midi": 64,
          "name": "E4",
          "ticks": 21888,
          "time": 88.25811599999999,
          "velocity": 0.7874015748031497
        },
        {
          "duration": 0.7741939999999943,
          "durationTicks": 192,
          "midi": 63,
          "name": "D#4",
          "ticks": 22080,
          "time": 89.03231,
          "velocity": 0.7874015748031497
        },
        {
          "duration": 0.7741939999999943,
          "durationTicks": 192,
          "midi": 59,
          "name": "B3",
          "ticks": 22080,
          "time": 89.03231,
          "velocity": 0.7874015748031497
        },
        {
          "duration": 0.7741939999999943,
          "durationTicks": 192,
          "midi": 54,
          "name": "F#3",
          "ticks": 22080,
          "time": 89.03231,
          "velocity": 0.7874015748031497
        },
        {
          "duration": 0.7741940000000085,
          "durationTicks": 192,
          "midi": 58,
          "name": "A#3",
          "ticks": 22272,
          "time": 89.80650399999999,
          "velocity": 0.7874015748031497
        },
        {
          "duration": 0.7741940000000085,
          "durationTicks": 192,
          "midi": 61,
          "name": "C#4",
          "ticks": 22272,
          "time": 89.80650399999999,
          "velocity": 0.7874015748031497
        },
        {
          "duration": 0.7741940000000085,
          "durationTicks": 192,
          "midi": 53,
          "name": "F3",
          "ticks": 22272,
          "time": 89.80650399999999,
          "velocity": 0.7874015748031497
        },
        {
          "duration": 0.7741939999999943,
          "durationTicks": 192,
          "midi": 57,
          "name": "A3",
          "ticks": 22464,
          "time": 90.580698,
          "velocity": 0.7874015748031497
        },
        {
          "duration": 0.7741939999999943,
          "durationTicks": 192,
          "midi": 52,
          "name": "E3",
          "ticks": 22464,
          "time": 90.580698,
          "velocity": 0.7874015748031497
        },
        {
          "duration": 0.7741939999999943,
          "durationTicks": 192,
          "midi": 60,
          "name": "C4",
          "ticks": 22464,
          "time": 90.580698,
          "velocity": 0.7874015748031497
        },
        {
          "duration": 0.7741939999999943,
          "durationTicks": 192,
          "midi": 55,
          "name": "G3",
          "ticks": 22656,
          "time": 91.35489199999999,
          "velocity": 0.7874015748031497
        },
        {
          "duration": 0.7741939999999943,
          "durationTicks": 192,
          "midi": 60,
          "name": "C4",
          "ticks": 22656,
          "time": 91.35489199999999,
          "velocity": 0.7874015748031497
        },
        {
          "duration": 0.7741939999999943,
          "durationTicks": 192,
          "midi": 64,
          "name": "E4",
          "ticks": 22656,
          "time": 91.35489199999999,
          "velocity": 0.7874015748031497
        },
        {
          "duration": 0.7741940000000085,
          "durationTicks": 192,
          "midi": 54,
          "name": "F#3",
          "ticks": 22848,
          "time": 92.12908599999999,
          "velocity": 0.7874015748031497
        },
        {
          "duration": 0.7741940000000085,
          "durationTicks": 192,
          "midi": 59,
          "name": "B3",
          "ticks": 22848,
          "time": 92.12908599999999,
          "velocity": 0.7874015748031497
        },
        {
          "duration": 0.7741940000000085,
          "durationTicks": 192,
          "midi": 63,
          "name": "D#4",
          "ticks": 22848,
          "time": 92.12908599999999,
          "velocity": 0.7874015748031497
        },
        {
          "duration": 0.7741939999999943,
          "durationTicks": 192,
          "midi": 58,
          "name": "A#3",
          "ticks": 23040,
          "time": 92.90328,
          "velocity": 0.7874015748031497
        },
        {
          "duration": 0.7741939999999943,
          "durationTicks": 192,
          "midi": 61,
          "name": "C#4",
          "ticks": 23040,
          "time": 92.90328,
          "velocity": 0.7874015748031497
        },
        {
          "duration": 0.7741939999999943,
          "durationTicks": 192,
          "midi": 53,
          "name": "F3",
          "ticks": 23040,
          "time": 92.90328,
          "velocity": 0.7874015748031497
        },
        {
          "duration": 0.7741940000000085,
          "durationTicks": 192,
          "midi": 60,
          "name": "C4",
          "ticks": 23232,
          "time": 93.67747399999999,
          "velocity": 0.7874015748031497
        },
        {
          "duration": 0.7741940000000085,
          "durationTicks": 192,
          "midi": 52,
          "name": "E3",
          "ticks": 23232,
          "time": 93.67747399999999,
          "velocity": 0.7874015748031497
        },
        {
          "duration": 0.7741940000000085,
          "durationTicks": 192,
          "midi": 57,
          "name": "A3",
          "ticks": 23232,
          "time": 93.67747399999999,
          "velocity": 0.7874015748031497
        },
        {
          "duration": 0.7741939999999943,
          "durationTicks": 192,
          "midi": 64,
          "name": "E4",
          "ticks": 23424,
          "time": 94.451668,
          "velocity": 0.7874015748031497
        },
        {
          "duration": 0.7741939999999943,
          "durationTicks": 192,
          "midi": 60,
          "name": "C4",
          "ticks": 23424,
          "time": 94.451668,
          "velocity": 0.7874015748031497
        },
        {
          "duration": 0.7741939999999943,
          "durationTicks": 192,
          "midi": 55,
          "name": "G3",
          "ticks": 23424,
          "time": 94.451668,
          "velocity": 0.7874015748031497
        },
        {
          "duration": 0.7741939999999943,
          "durationTicks": 192,
          "midi": 54,
          "name": "F#3",
          "ticks": 23616,
          "time": 95.22586199999999,
          "velocity": 0.7874015748031497
        },
        {
          "duration": 0.7741939999999943,
          "durationTicks": 192,
          "midi": 59,
          "name": "B3",
          "ticks": 23616,
          "time": 95.22586199999999,
          "velocity": 0.7874015748031497
        },
        {
          "duration": 0.7741939999999943,
          "durationTicks": 192,
          "midi": 63,
          "name": "D#4",
          "ticks": 23616,
          "time": 95.22586199999999,
          "velocity": 0.7874015748031497
        },
        {
          "duration": 0.7741939999999943,
          "durationTicks": 192,
          "midi": 49,
          "name": "C#3",
          "ticks": 24000,
          "time": 96.77425,
          "velocity": 0.7874015748031497
        },
        {
          "duration": 0.7741939999999943,
          "durationTicks": 192,
          "midi": 54,
          "name": "F#3",
          "ticks": 24000,
          "time": 96.77425,
          "velocity": 0.7874015748031497
        },
        {
          "duration": 0.7741939999999943,
          "durationTicks": 192,
          "midi": 58,
          "name": "A#3",
          "ticks": 24000,
          "time": 96.77425,
          "velocity": 0.7874015748031497
        },
        {
          "duration": 0.7741940000000085,
          "durationTicks": 192,
          "midi": 51,
          "name": "D#3",
          "ticks": 24192,
          "time": 97.54844399999999,
          "velocity": 0.7874015748031497
        },
        {
          "duration": 0.7741940000000085,
          "durationTicks": 192,
          "midi": 56,
          "name": "G#3",
          "ticks": 24192,
          "time": 97.54844399999999,
          "velocity": 0.7874015748031497
        },
        {
          "duration": 0.7741940000000085,
          "durationTicks": 192,
          "midi": 60,
          "name": "C4",
          "ticks": 24192,
          "time": 97.54844399999999,
          "velocity": 0.7874015748031497
        },
        {
          "duration": 0.7741939999999943,
          "durationTicks": 192,
          "midi": 53,
          "name": "F3",
          "ticks": 24384,
          "time": 98.322638,
          "velocity": 0.7874015748031497
        },
        {
          "duration": 0.7741939999999943,
          "durationTicks": 192,
          "midi": 58,
          "name": "A#3",
          "ticks": 24384,
          "time": 98.322638,
          "velocity": 0.7874015748031497
        },
        {
          "duration": 0.7741939999999943,
          "durationTicks": 192,
          "midi": 61,
          "name": "C#4",
          "ticks": 24384,
          "time": 98.322638,
          "velocity": 0.7874015748031497
        },
        {
          "duration": 0.7741939999999943,
          "durationTicks": 192,
          "midi": 55,
          "name": "G3",
          "ticks": 24576,
          "time": 99.09683199999999,
          "velocity": 0.7874015748031497
        },
        {
          "duration": 0.7741939999999943,
          "durationTicks": 192,
          "midi": 58,
          "name": "A#3",
          "ticks": 24576,
          "time": 99.09683199999999,
          "velocity": 0.7874015748031497
        },
        {
          "duration": 0.7741939999999943,
          "durationTicks": 192,
          "midi": 63,
          "name": "D#4",
          "ticks": 24576,
          "time": 99.09683199999999,
          "velocity": 0.7874015748031497
        },
        {
          "duration": 0.7741940000000085,
          "durationTicks": 192,
          "midi": 49,
          "name": "C#3",
          "ticks": 24768,
          "time": 99.87102599999999,
          "velocity": 0.7874015748031497
        },
        {
          "duration": 0.7741940000000085,
          "durationTicks": 192,
          "midi": 54,
          "name": "F#3",
          "ticks": 24768,
          "time": 99.87102599999999,
          "velocity": 0.7874015748031497
        },
        {
          "duration": 0.7741940000000085,
          "durationTicks": 192,
          "midi": 58,
          "name": "A#3",
          "ticks": 24768,
          "time": 99.87102599999999,
          "velocity": 0.7874015748031497
        },
        {
          "duration": 0.7741939999999943,
          "durationTicks": 192,
          "midi": 51,
          "name": "D#3",
          "ticks": 24960,
          "time": 100.64522,
          "velocity": 0.7874015748031497
        },
        {
          "duration": 0.7741939999999943,
          "durationTicks": 192,
          "midi": 56,
          "name": "G#3",
          "ticks": 24960,
          "time": 100.64522,
          "velocity": 0.7874015748031497
        },
        {
          "duration": 0.7741939999999943,
          "durationTicks": 192,
          "midi": 60,
          "name": "C4",
          "ticks": 24960,
          "time": 100.64522,
          "velocity": 0.7874015748031497
        },
        {
          "duration": 1.5483880000000028,
          "durationTicks": 384,
          "midi": 53,
          "name": "F3",
          "ticks": 25152,
          "time": 101.41941399999999,
          "velocity": 0.7874015748031497
        },
        {
          "duration": 1.5483880000000028,
          "durationTicks": 384,
          "midi": 58,
          "name": "A#3",
          "ticks": 25152,
          "time": 101.41941399999999,
          "velocity": 0.7874015748031497
        },
        {
          "duration": 1.5483880000000028,
          "durationTicks": 384,
          "midi": 61,
          "name": "C#4",
          "ticks": 25152,
          "time": 101.41941399999999,
          "velocity": 0.7874015748031497
        },
        {
          "duration": 0.7741939999999943,
          "durationTicks": 192,
          "midi": 49,
          "name": "C#3",
          "ticks": 25536,
          "time": 102.96780199999999,
          "velocity": 0.7874015748031497
        },
        {
          "duration": 0.7741939999999943,
          "durationTicks": 192,
          "midi": 54,
          "name": "F#3",
          "ticks": 25536,
          "time": 102.96780199999999,
          "velocity": 0.7874015748031497
        },
        {
          "duration": 0.7741939999999943,
          "durationTicks": 192,
          "midi": 58,
          "name": "A#3",
          "ticks": 25536,
          "time": 102.96780199999999,
          "velocity": 0.7874015748031497
        },
        {
          "duration": 0.7741940000000085,
          "durationTicks": 192,
          "midi": 51,
          "name": "D#3",
          "ticks": 25728,
          "time": 103.74199599999999,
          "velocity": 0.7874015748031497
        },
        {
          "duration": 0.7741940000000085,
          "durationTicks": 192,
          "midi": 56,
          "name": "G#3",
          "ticks": 25728,
          "time": 103.74199599999999,
          "velocity": 0.7874015748031497
        },
        {
          "duration": 0.7741940000000085,
          "durationTicks": 192,
          "midi": 60,
          "name": "C4",
          "ticks": 25728,
          "time": 103.74199599999999,
          "velocity": 0.7874015748031497
        },
        {
          "duration": 0.7741939999999943,
          "durationTicks": 192,
          "midi": 53,
          "name": "F3",
          "ticks": 25920,
          "time": 104.51619,
          "velocity": 0.7874015748031497
        },
        {
          "duration": 0.7741939999999943,
          "durationTicks": 192,
          "midi": 58,
          "name": "A#3",
          "ticks": 25920,
          "time": 104.51619,
          "velocity": 0.7874015748031497
        },
        {
          "duration": 0.7741939999999943,
          "durationTicks": 192,
          "midi": 61,
          "name": "C#4",
          "ticks": 25920,
          "time": 104.51619,
          "velocity": 0.7874015748031497
        },
        {
          "duration": 0.7741940000000085,
          "durationTicks": 192,
          "midi": 55,
          "name": "G3",
          "ticks": 26112,
          "time": 105.29038399999999,
          "velocity": 0.7874015748031497
        },
        {
          "duration": 0.7741940000000085,
          "durationTicks": 192,
          "midi": 58,
          "name": "A#3",
          "ticks": 26112,
          "time": 105.29038399999999,
          "velocity": 0.7874015748031497
        },
        {
          "duration": 0.7741940000000085,
          "durationTicks": 192,
          "midi": 63,
          "name": "D#4",
          "ticks": 26112,
          "time": 105.29038399999999,
          "velocity": 0.7874015748031497
        },
        {
          "duration": 0.7741939999999943,
          "durationTicks": 192,
          "midi": 49,
          "name": "C#3",
          "ticks": 26304,
          "time": 106.064578,
          "velocity": 0.7874015748031497
        },
        {
          "duration": 0.7741939999999943,
          "durationTicks": 192,
          "midi": 54,
          "name": "F#3",
          "ticks": 26304,
          "time": 106.064578,
          "velocity": 0.7874015748031497
        },
        {
          "duration": 0.7741939999999943,
          "durationTicks": 192,
          "midi": 58,
          "name": "A#3",
          "ticks": 26304,
          "time": 106.064578,
          "velocity": 0.7874015748031497
        },
        {
          "duration": 0.7741939999999943,
          "durationTicks": 192,
          "midi": 51,
          "name": "D#3",
          "ticks": 26496,
          "time": 106.83877199999999,
          "velocity": 0.7874015748031497
        },
        {
          "duration": 0.7741939999999943,
          "durationTicks": 192,
          "midi": 56,
          "name": "G#3",
          "ticks": 26496,
          "time": 106.83877199999999,
          "velocity": 0.7874015748031497
        },
        {
          "duration": 0.7741939999999943,
          "durationTicks": 192,
          "midi": 60,
          "name": "C4",
          "ticks": 26496,
          "time": 106.83877199999999,
          "velocity": 0.7874015748031497
        },
        {
          "duration": 1.5483880000000028,
          "durationTicks": 384,
          "midi": 49,
          "name": "C#3",
          "ticks": 26688,
          "time": 107.61296599999999,
          "velocity": 0.7874015748031497
        },
        {
          "duration": 1.5483880000000028,
          "durationTicks": 384,
          "midi": 53,
          "name": "F3",
          "ticks": 26688,
          "time": 107.61296599999999,
          "velocity": 0.7874015748031497
        },
        {
          "duration": 1.5483880000000028,
          "durationTicks": 384,
          "midi": 58,
          "name": "A#3",
          "ticks": 26688,
          "time": 107.61296599999999,
          "velocity": 0.7874015748031497
        },
        {
          "duration": 0.7741940000000085,
          "durationTicks": 192,
          "midi": 49,
          "name": "C#3",
          "ticks": 27072,
          "time": 109.16135399999999,
          "velocity": 0.7874015748031497
        },
        {
          "duration": 0.7741940000000085,
          "durationTicks": 192,
          "midi": 54,
          "name": "F#3",
          "ticks": 27072,
          "time": 109.16135399999999,
          "velocity": 0.7874015748031497
        },
        {
          "duration": 0.7741940000000085,
          "durationTicks": 192,
          "midi": 58,
          "name": "A#3",
          "ticks": 27072,
          "time": 109.16135399999999,
          "velocity": 0.7874015748031497
        },
        {
          "duration": 0.7741939999999943,
          "durationTicks": 192,
          "midi": 51,
          "name": "D#3",
          "ticks": 27264,
          "time": 109.935548,
          "velocity": 0.7874015748031497
        },
        {
          "duration": 0.7741939999999943,
          "durationTicks": 192,
          "midi": 56,
          "name": "G#3",
          "ticks": 27264,
          "time": 109.935548,
          "velocity": 0.7874015748031497
        },
        {
          "duration": 0.7741939999999943,
          "durationTicks": 192,
          "midi": 60,
          "name": "C4",
          "ticks": 27264,
          "time": 109.935548,
          "velocity": 0.7874015748031497
        },
        {
          "duration": 0.7741939999999943,
          "durationTicks": 192,
          "midi": 53,
          "name": "F3",
          "ticks": 27456,
          "time": 110.70974199999999,
          "velocity": 0.7874015748031497
        },
        {
          "duration": 0.7741939999999943,
          "durationTicks": 192,
          "midi": 58,
          "name": "A#3",
          "ticks": 27456,
          "time": 110.70974199999999,
          "velocity": 0.7874015748031497
        },
        {
          "duration": 0.7741939999999943,
          "durationTicks": 192,
          "midi": 61,
          "name": "C#4",
          "ticks": 27456,
          "time": 110.70974199999999,
          "velocity": 0.7874015748031497
        },
        {
          "duration": 0.7741940000000085,
          "durationTicks": 192,
          "midi": 55,
          "name": "G3",
          "ticks": 27648,
          "time": 111.48393599999999,
          "velocity": 0.7874015748031497
        },
        {
          "duration": 0.7741940000000085,
          "durationTicks": 192,
          "midi": 58,
          "name": "A#3",
          "ticks": 27648,
          "time": 111.48393599999999,
          "velocity": 0.7874015748031497
        },
        {
          "duration": 0.7741940000000085,
          "durationTicks": 192,
          "midi": 63,
          "name": "D#4",
          "ticks": 27648,
          "time": 111.48393599999999,
          "velocity": 0.7874015748031497
        },
        {
          "duration": 0.7741939999999943,
          "durationTicks": 192,
          "midi": 49,
          "name": "C#3",
          "ticks": 27840,
          "time": 112.25813,
          "velocity": 0.7874015748031497
        },
        {
          "duration": 0.7741939999999943,
          "durationTicks": 192,
          "midi": 54,
          "name": "F#3",
          "ticks": 27840,
          "time": 112.25813,
          "velocity": 0.7874015748031497
        },
        {
          "duration": 0.7741939999999943,
          "durationTicks": 192,
          "midi": 58,
          "name": "A#3",
          "ticks": 27840,
          "time": 112.25813,
          "velocity": 0.7874015748031497
        },
        {
          "duration": 0.7741940000000085,
          "durationTicks": 192,
          "midi": 51,
          "name": "D#3",
          "ticks": 28032,
          "time": 113.03232399999999,
          "velocity": 0.7874015748031497
        },
        {
          "duration": 0.7741940000000085,
          "durationTicks": 192,
          "midi": 56,
          "name": "G#3",
          "ticks": 28032,
          "time": 113.03232399999999,
          "velocity": 0.7874015748031497
        },
        {
          "duration": 0.7741940000000085,
          "durationTicks": 192,
          "midi": 60,
          "name": "C4",
          "ticks": 28032,
          "time": 113.03232399999999,
          "velocity": 0.7874015748031497
        },
        {
          "duration": 1.5483879999999886,
          "durationTicks": 384,
          "midi": 53,
          "name": "F3",
          "ticks": 28224,
          "time": 113.806518,
          "velocity": 0.7874015748031497
        },
        {
          "duration": 1.5483879999999886,
          "durationTicks": 384,
          "midi": 58,
          "name": "A#3",
          "ticks": 28224,
          "time": 113.806518,
          "velocity": 0.7874015748031497
        },
        {
          "duration": 1.5483879999999886,
          "durationTicks": 384,
          "midi": 61,
          "name": "C#4",
          "ticks": 28224,
          "time": 113.806518,
          "velocity": 0.7874015748031497
        },
        {
          "duration": 0.7741940000000085,
          "durationTicks": 192,
          "midi": 49,
          "name": "C#3",
          "ticks": 28608,
          "time": 115.35490599999999,
          "velocity": 0.7874015748031497
        },
        {
          "duration": 0.7741940000000085,
          "durationTicks": 192,
          "midi": 54,
          "name": "F#3",
          "ticks": 28608,
          "time": 115.35490599999999,
          "velocity": 0.7874015748031497
        },
        {
          "duration": 0.7741940000000085,
          "durationTicks": 192,
          "midi": 58,
          "name": "A#3",
          "ticks": 28608,
          "time": 115.35490599999999,
          "velocity": 0.7874015748031497
        },
        {
          "duration": 0.7741939999999943,
          "durationTicks": 192,
          "midi": 51,
          "name": "D#3",
          "ticks": 28800,
          "time": 116.1291,
          "velocity": 0.7874015748031497
        },
        {
          "duration": 0.7741939999999943,
          "durationTicks": 192,
          "midi": 56,
          "name": "G#3",
          "ticks": 28800,
          "time": 116.1291,
          "velocity": 0.7874015748031497
        },
        {
          "duration": 0.7741939999999943,
          "durationTicks": 192,
          "midi": 60,
          "name": "C4",
          "ticks": 28800,
          "time": 116.1291,
          "velocity": 0.7874015748031497
        },
        {
          "duration": 0.7741940000000085,
          "durationTicks": 192,
          "midi": 53,
          "name": "F3",
          "ticks": 28992,
          "time": 116.90329399999999,
          "velocity": 0.7874015748031497
        },
        {
          "duration": 0.7741940000000085,
          "durationTicks": 192,
          "midi": 58,
          "name": "A#3",
          "ticks": 28992,
          "time": 116.90329399999999,
          "velocity": 0.7874015748031497
        },
        {
          "duration": 0.7741940000000085,
          "durationTicks": 192,
          "midi": 61,
          "name": "C#4",
          "ticks": 28992,
          "time": 116.90329399999999,
          "velocity": 0.7874015748031497
        },
        {
          "duration": 0.7741939999999943,
          "durationTicks": 192,
          "midi": 55,
          "name": "G3",
          "ticks": 29184,
          "time": 117.677488,
          "velocity": 0.7874015748031497
        },
        {
          "duration": 0.7741939999999943,
          "durationTicks": 192,
          "midi": 58,
          "name": "A#3",
          "ticks": 29184,
          "time": 117.677488,
          "velocity": 0.7874015748031497
        },
        {
          "duration": 0.7741939999999943,
          "durationTicks": 192,
          "midi": 63,
          "name": "D#4",
          "ticks": 29184,
          "time": 117.677488,
          "velocity": 0.7874015748031497
        },
        {
          "duration": 0.7741939999999943,
          "durationTicks": 192,
          "midi": 49,
          "name": "C#3",
          "ticks": 29376,
          "time": 118.45168199999999,
          "velocity": 0.7874015748031497
        },
        {
          "duration": 0.7741939999999943,
          "durationTicks": 192,
          "midi": 54,
          "name": "F#3",
          "ticks": 29376,
          "time": 118.45168199999999,
          "velocity": 0.7874015748031497
        },
        {
          "duration": 0.7741939999999943,
          "durationTicks": 192,
          "midi": 58,
          "name": "A#3",
          "ticks": 29376,
          "time": 118.45168199999999,
          "velocity": 0.7874015748031497
        },
        {
          "duration": 0.7741940000000085,
          "durationTicks": 192,
          "midi": 51,
          "name": "D#3",
          "ticks": 29568,
          "time": 119.22587599999999,
          "velocity": 0.7874015748031497
        },
        {
          "duration": 0.7741940000000085,
          "durationTicks": 192,
          "midi": 56,
          "name": "G#3",
          "ticks": 29568,
          "time": 119.22587599999999,
          "velocity": 0.7874015748031497
        },
        {
          "duration": 0.7741940000000085,
          "durationTicks": 192,
          "midi": 60,
          "name": "C4",
          "ticks": 29568,
          "time": 119.22587599999999,
          "velocity": 0.7874015748031497
        },
        {
          "duration": 1.5483880000000028,
          "durationTicks": 384,
          "midi": 58,
          "name": "A#3",
          "ticks": 29760,
          "time": 120.00007,
          "velocity": 0.7874015748031497
        },
        {
          "duration": 1.5483880000000028,
          "durationTicks": 384,
          "midi": 49,
          "name": "C#3",
          "ticks": 29760,
          "time": 120.00007,
          "velocity": 0.7874015748031497
        },
        {
          "duration": 1.5483880000000028,
          "durationTicks": 384,
          "midi": 53,
          "name": "F3",
          "ticks": 29760,
          "time": 120.00007,
          "velocity": 0.7874015748031497
        }
      ]
    },
    {
      "channel": 0,
      "controlChanges": {
        "6": [
          {
            "number": 6,
            "ticks": 0,
            "time": 0,
            "value": 0.09448818897637795
          }
        ],
        "7": [
          {
            "number": 7,
            "ticks": 0,
            "time": 0,
            "value": 0.9212598425196851
          },
          {
            "number": 7,
            "ticks": 0,
            "time": 0,
            "value": 0.9212598425196851
          }
        ],
        "10": [
          {
            "number": 10,
            "ticks": 0,
            "time": 0,
            "value": 0.5039370078740157
          },
          {
            "number": 10,
            "ticks": 0,
            "time": 0,
            "value": 0.5039370078740157
          }
        ],
        "100": [
          {
            "number": 100,
            "ticks": 0,
            "time": 0,
            "value": 0
          }
        ],
        "101": [
          {
            "number": 101,
            "ticks": 0,
            "time": 0,
            "value": 0
          }
        ]
      },
      "pitchBends": [
        {
          "ticks": 0,
          "time": 0,
          "value": 0
        },
        {
          "ticks": 0,
          "time": 0,
          "value": 0
        }
      ],
      "instrument": {
        "family": "piano",
        "name": "acoustic grand piano",
        "number": 0
      },
      "name": "Stuart Little: The Journey Home Cue (because I had to)",
      "notes": []
    },
    {
      "channel": 8,
      "controlChanges": {
        "6": [
          {
            "number": 6,
            "ticks": 0,
            "time": 0,
            "value": 0.09448818897637795
          },
          {
            "number": 6,
            "ticks": 0,
            "time": 0,
            "value": 0.09448818897637795
          },
          {
            "number": 6,
            "ticks": 30336,
            "time": 122.32265199999999,
            "value": 0.09448818897637795
          },
          {
            "number": 6,
            "ticks": 30336,
            "time": 122.32265199999999,
            "value": 0.09448818897637795
          },
          {
            "number": 6,
            "ticks": 30336,
            "time": 122.32265199999999,
            "value": 0.09448818897637795
          }
        ],
        "7": [
          {
            "number": 7,
            "ticks": 0,
            "time": 0,
            "value": 0.9212598425196851
          },
          {
            "number": 7,
            "ticks": 0,
            "time": 0,
            "value": 0.9212598425196851
          },
          {
            "number": 7,
            "ticks": 30336,
            "time": 122.32265199999999,
            "value": 0.9212598425196851
          },
          {
            "number": 7,
            "ticks": 30336,
            "time": 122.32265199999999,
            "value": 0.9212598425196851
          },
          {
            "number": 7,
            "ticks": 30336,
            "time": 122.32265199999999,
            "value": 0.9212598425196851
          }
        ],
        "10": [
          {
            "number": 10,
            "ticks": 0,
            "time": 0,
            "value": 0.5039370078740157
          },
          {
            "number": 10,
            "ticks": 0,
            "time": 0,
            "value": 0.5039370078740157
          },
          {
            "number": 10,
            "ticks": 30336,
            "time": 122.32265199999999,
            "value": 0.5039370078740157
          },
          {
            "number": 10,
            "ticks": 30336,
            "time": 122.32265199999999,
            "value": 0.5039370078740157
          },
          {
            "number": 10,
            "ticks": 30336,
            "time": 122.32265199999999,
            "value": 0.5039370078740157
          }
        ],
        "100": [
          {
            "number": 100,
            "ticks": 0,
            "time": 0,
            "value": 0
          },
          {
            "number": 100,
            "ticks": 0,
            "time": 0,
            "value": 0
          },
          {
            "number": 100,
            "ticks": 30336,
            "time": 122.32265199999999,
            "value": 0
          },
          {
            "number": 100,
            "ticks": 30336,
            "time": 122.32265199999999,
            "value": 0
          },
          {
            "number": 100,
            "ticks": 30336,
            "time": 122.32265199999999,
            "value": 0
          }
        ],
        "101": [
          {
            "number": 101,
            "ticks": 0,
            "time": 0,
            "value": 0
          },
          {
            "number": 101,
            "ticks": 0,
            "time": 0,
            "value": 0
          },
          {
            "number": 101,
            "ticks": 30336,
            "time": 122.32265199999999,
            "value": 0
          },
          {
            "number": 101,
            "ticks": 30336,
            "time": 122.32265199999999,
            "value": 0
          },
          {
            "number": 101,
            "ticks": 30336,
            "time": 122.32265199999999,
            "value": 0
          }
        ]
      },
      "pitchBends": [
        {
          "ticks": 0,
          "time": 0,
          "value": 0
        },
        {
          "ticks": 0,
          "time": 0,
          "value": 0
        },
        {
          "ticks": 30336,
          "time": 122.32265199999999,
          "value": 0
        },
        {
          "ticks": 30336,
          "time": 122.32265199999999,
          "value": 0
        },
        {
          "ticks": 30336,
          "time": 122.32265199999999,
          "value": 0
        }
      ],
      "instrument": {
        "family": "chromatic percussion",
        "name": "vibraphone",
        "number": 11
      },
      "name": "",
      "notes": [
        {
          "duration": 0.19354849999999146,
          "durationTicks": 48,
          "midi": 80,
          "name": "G#5",
          "ticks": 19200,
          "time": 77.4194,
          "velocity": 0.7874015748031497
        },
        {
          "duration": 0.19354850000000567,
          "durationTicks": 48,
          "midi": 80,
          "name": "G#5",
          "ticks": 19248,
          "time": 77.61294849999999,
          "velocity": 0.7874015748031497
        },
        {
          "duration": 0.19354850000000567,
          "durationTicks": 48,
          "midi": 78,
          "name": "F#5",
          "ticks": 19296,
          "time": 77.806497,
          "velocity": 0.7874015748031497
        },
        {
          "duration": 0.19354850000000567,
          "durationTicks": 48,
          "midi": 77,
          "name": "F5",
          "ticks": 19392,
          "time": 78.19359399999999,
          "velocity": 0.7874015748031497
        },
        {
          "duration": 0.19354850000000567,
          "durationTicks": 48,
          "midi": 75,
          "name": "D#5",
          "ticks": 19488,
          "time": 78.58069099999999,
          "velocity": 0.7874015748031497
        },
        {
          "duration": 0.19354850000000567,
          "durationTicks": 48,
          "midi": 77,
          "name": "F5",
          "ticks": 19536,
          "time": 78.7742395,
          "velocity": 0.7874015748031497
        },
        {
          "duration": 0.19354850000000567,
          "durationTicks": 48,
          "midi": 77,
          "name": "F5",
          "ticks": 19632,
          "time": 79.16133649999999,
          "velocity": 0.7874015748031497
        },
        {
          "duration": 0.19354849999999146,
          "durationTicks": 48,
          "midi": 80,
          "name": "G#5",
          "ticks": 19680,
          "time": 79.354885,
          "velocity": 0.7874015748031497
        },
        {
          "duration": 0.19354850000000567,
          "durationTicks": 48,
          "midi": 73,
          "name": "C#5",
          "ticks": 19728,
          "time": 79.54843349999999,
          "velocity": 0.7874015748031497
        },
        {
          "duration": 0.19354849999999146,
          "durationTicks": 48,
          "midi": 71,
          "name": "B4",
          "ticks": 19824,
          "time": 79.9355305,
          "velocity": 0.7874015748031497
        },
        {
          "duration": 0.19354850000000567,
          "durationTicks": 48,
          "midi": 70,
          "name": "A#4",
          "ticks": 19968,
          "time": 80.51617599999999,
          "velocity": 0.7874015748031497
        },
        {
          "duration": 0.19354850000000567,
          "durationTicks": 48,
          "midi": 70,
          "name": "A#4",
          "ticks": 20016,
          "time": 80.7097245,
          "velocity": 0.7874015748031497
        },
        {
          "duration": 0.19354849999999146,
          "durationTicks": 48,
          "midi": 72,
          "name": "C5",
          "ticks": 20064,
          "time": 80.903273,
          "velocity": 0.7874015748031497
        },
        {
          "duration": 0.19354849999999146,
          "durationTicks": 48,
          "midi": 73,
          "name": "C#5",
          "ticks": 20160,
          "time": 81.29037,
          "velocity": 0.7874015748031497
        },
        {
          "duration": 0.19354850000000567,
          "durationTicks": 48,
          "midi": 75,
          "name": "D#5",
          "ticks": 20256,
          "time": 81.677467,
          "velocity": 0.7874015748031497
        },
        {
          "duration": 0.19354849999999146,
          "durationTicks": 48,
          "midi": 82,
          "name": "A#5",
          "ticks": 20304,
          "time": 81.8710155,
          "velocity": 0.7874015748031497
        },
        {
          "duration": 0.19354849999999146,
          "durationTicks": 48,
          "midi": 82,
          "name": "A#5",
          "ticks": 20400,
          "time": 82.2581125,
          "velocity": 0.7874015748031497
        },
        {
          "duration": 0.19354850000000567,
          "durationTicks": 48,
          "midi": 80,
          "name": "G#5",
          "ticks": 20448,
          "time": 82.45166099999999,
          "velocity": 0.7874015748031497
        },
        {
          "duration": 0.19354850000000567,
          "durationTicks": 48,
          "midi": 78,
          "name": "F#5",
          "ticks": 20496,
          "time": 82.64520949999999,
          "velocity": 0.7874015748031497
        },
        {
          "duration": 0.19354850000000567,
          "durationTicks": 48,
          "midi": 77,
          "name": "F5",
          "ticks": 20592,
          "time": 83.03230649999999,
          "velocity": 0.7874015748031497
        }
      ]
    },
    {
      "channel": 0,
      "controlChanges": {
        "6": [
          {
            "number": 6,
            "ticks": 0,
            "time": 0,
            "value": 0.09448818897637795
          }
        ],
        "7": [
          {
            "number": 7,
            "ticks": 0,
            "time": 0,
            "value": 0.937007874015748
          },
          {
            "number": 7,
            "ticks": 0,
            "time": 0,
            "value": 0.937007874015748
          }
        ],
        "10": [
          {
            "number": 10,
            "ticks": 0,
            "time": 0,
            "value": 0.5039370078740157
          },
          {
            "number": 10,
            "ticks": 0,
            "time": 0,
            "value": 0.5039370078740157
          }
        ],
        "100": [
          {
            "number": 100,
            "ticks": 0,
            "time": 0,
            "value": 0
          }
        ],
        "101": [
          {
            "number": 101,
            "ticks": 0,
            "time": 0,
            "value": 0
          }
        ]
      },
      "pitchBends": [
        {
          "ticks": 0,
          "time": 0,
          "value": 0
        },
        {
          "ticks": 0,
          "time": 0,
          "value": 0
        }
      ],
      "instrument": {
        "family": "piano",
        "name": "acoustic grand piano",
        "number": 0
      },
      "name": "Percussion (TR-808 Kit)",
      "notes": []
    },
    {
      "channel": 9,
      "controlChanges": {
        "6": [
          {
            "number": 6,
            "ticks": 0,
            "time": 0,
            "value": 0.09448818897637795
          },
          {
            "number": 6,
            "ticks": 0,
            "time": 0,
            "value": 0.09448818897637795
          },
          {
            "number": 6,
            "ticks": 30336,
            "time": 122.32265199999999,
            "value": 0.09448818897637795
          },
          {
            "number": 6,
            "ticks": 30336,
            "time": 122.32265199999999,
            "value": 0.09448818897637795
          },
          {
            "number": 6,
            "ticks": 30336,
            "time": 122.32265199999999,
            "value": 0.09448818897637795
          }
        ],
        "7": [
          {
            "number": 7,
            "ticks": 0,
            "time": 0,
            "value": 0.937007874015748
          },
          {
            "number": 7,
            "ticks": 0,
            "time": 0,
            "value": 0.937007874015748
          },
          {
            "number": 7,
            "ticks": 30336,
            "time": 122.32265199999999,
            "value": 0.937007874015748
          },
          {
            "number": 7,
            "ticks": 30336,
            "time": 122.32265199999999,
            "value": 0.937007874015748
          },
          {
            "number": 7,
            "ticks": 30336,
            "time": 122.32265199999999,
            "value": 0.937007874015748
          }
        ],
        "10": [
          {
            "number": 10,
            "ticks": 0,
            "time": 0,
            "value": 0.5039370078740157
          },
          {
            "number": 10,
            "ticks": 0,
            "time": 0,
            "value": 0.5039370078740157
          },
          {
            "number": 10,
            "ticks": 30336,
            "time": 122.32265199999999,
            "value": 0.5039370078740157
          },
          {
            "number": 10,
            "ticks": 30336,
            "time": 122.32265199999999,
            "value": 0.5039370078740157
          },
          {
            "number": 10,
            "ticks": 30336,
            "time": 122.32265199999999,
            "value": 0.5039370078740157
          }
        ],
        "100": [
          {
            "number": 100,
            "ticks": 0,
            "time": 0,
            "value": 0
          },
          {
            "number": 100,
            "ticks": 0,
            "time": 0,
            "value": 0
          },
          {
            "number": 100,
            "ticks": 30336,
            "time": 122.32265199999999,
            "value": 0
          },
          {
            "number": 100,
            "ticks": 30336,
            "time": 122.32265199999999,
            "value": 0
          },
          {
            "number": 100,
            "ticks": 30336,
            "time": 122.32265199999999,
            "value": 0
          }
        ],
        "101": [
          {
            "number": 101,
            "ticks": 0,
            "time": 0,
            "value": 0
          },
          {
            "number": 101,
            "ticks": 0,
            "time": 0,
            "value": 0
          },
          {
            "number": 101,
            "ticks": 30336,
            "time": 122.32265199999999,
            "value": 0
          },
          {
            "number": 101,
            "ticks": 30336,
            "time": 122.32265199999999,
            "value": 0
          },
          {
            "number": 101,
            "ticks": 30336,
            "time": 122.32265199999999,
            "value": 0
          }
        ]
      },
      "pitchBends": [
        {
          "ticks": 0,
          "time": 0,
          "value": 0
        },
        {
          "ticks": 0,
          "time": 0,
          "value": 0
        },
        {
          "ticks": 30336,
          "time": 122.32265199999999,
          "value": 0
        },
        {
          "ticks": 30336,
          "time": 122.32265199999999,
          "value": 0
        },
        {
          "ticks": 30336,
          "time": 122.32265199999999,
          "value": 0
        }
      ],
      "instrument": {
        "family": "drums",
        "name": "tr-808 kit",
        "number": 25
      },
      "name": "",
      "notes": [
        {
          "duration": 0.004032260416666666,
          "durationTicks": 1,
          "midi": 35,
          "name": "B1",
          "ticks": 0,
          "time": 0,
          "velocity": 0.8346456692913385
        },
        {
          "duration": 0.004032260416666666,
          "durationTicks": 1,
          "midi": 57,
          "name": "A3",
          "ticks": 0,
          "time": 0,
          "velocity": 0.8346456692913385
        },
        {
          "duration": 0.004032260416666655,
          "durationTicks": 1,
          "midi": 42,
          "name": "F#2",
          "ticks": 48,
          "time": 0.19354849999999998,
          "velocity": 0.6141732283464567
        },
        {
          "duration": 0.004032260416666655,
          "durationTicks": 1,
          "midi": 42,
          "name": "F#2",
          "ticks": 72,
          "time": 0.29032274999999996,
          "velocity": 0.6141732283464567
        },
        {
          "duration": 0.004032260416666711,
          "durationTicks": 1,
          "midi": 38,
          "name": "D2",
          "ticks": 96,
          "time": 0.38709699999999997,
          "velocity": 0.8346456692913385
        },
        {
          "duration": 0.004032260416666711,
          "durationTicks": 1,
          "midi": 38,
          "name": "D2",
          "ticks": 144,
          "time": 0.5806454999999999,
          "velocity": 0.8346456692913385
        },
        {
          "duration": 0.004032260416666711,
          "durationTicks": 1,
          "midi": 46,
          "name": "A#2",
          "ticks": 144,
          "time": 0.5806454999999999,
          "velocity": 0.6141732283464567
        },
        {
          "duration": 0.0040322604166666,
          "durationTicks": 1,
          "midi": 38,
          "name": "D2",
          "ticks": 168,
          "time": 0.67741975,
          "velocity": 0.8346456692913385
        },
        {
          "duration": 0.0040322604166666,
          "durationTicks": 1,
          "midi": 42,
          "name": "F#2",
          "ticks": 192,
          "time": 0.7741939999999999,
          "velocity": 0.6141732283464567
        },
        {
          "duration": 0.0040322604166666,
          "durationTicks": 1,
          "midi": 35,
          "name": "B1",
          "ticks": 240,
          "time": 0.9677425,
          "velocity": 0.8346456692913385
        },
        {
          "duration": 0.0040322604166666,
          "durationTicks": 1,
          "midi": 46,
          "name": "A#2",
          "ticks": 240,
          "time": 0.9677425,
          "velocity": 0.6141732283464567
        },
        {
          "duration": 0.004032260416666711,
          "durationTicks": 1,
          "midi": 42,
          "name": "F#2",
          "ticks": 264,
          "time": 1.06451675,
          "velocity": 0.6141732283464567
        },
        {
          "duration": 0.004032260416666711,
          "durationTicks": 1,
          "midi": 35,
          "name": "B1",
          "ticks": 288,
          "time": 1.1612909999999999,
          "velocity": 0.8346456692913385
        },
        {
          "duration": 0.004032260416666711,
          "durationTicks": 1,
          "midi": 46,
          "name": "A#2",
          "ticks": 288,
          "time": 1.1612909999999999,
          "velocity": 0.8346456692913385
        },
        {
          "duration": 0.004032260416666711,
          "durationTicks": 1,
          "midi": 51,
          "name": "D#3",
          "ticks": 288,
          "time": 1.1612909999999999,
          "velocity": 0.8346456692913385
        },
        {
          "duration": 0.004032260416666489,
          "durationTicks": 1,
          "midi": 38,
          "name": "D2",
          "ticks": 336,
          "time": 1.3548395,
          "velocity": 0.8346456692913385
        },
        {
          "duration": 0.004032260416666489,
          "durationTicks": 1,
          "midi": 42,
          "name": "F#2",
          "ticks": 336,
          "time": 1.3548395,
          "velocity": 0.6141732283464567
        },
        {
          "duration": 0.004032260416666489,
          "durationTicks": 1,
          "midi": 42,
          "name": "F#2",
          "ticks": 360,
          "time": 1.45161375,
          "velocity": 0.6141732283464567
        },
        {
          "duration": 0.004032260416666489,
          "durationTicks": 1,
          "midi": 51,
          "name": "D#3",
          "ticks": 360,
          "time": 1.45161375,
          "velocity": 0.8346456692913385
        },
        {
          "duration": 0.004032260416666489,
          "durationTicks": 1,
          "midi": 35,
          "name": "B1",
          "ticks": 360,
          "time": 1.45161375,
          "velocity": 0.8346456692913385
        },
        {
          "duration": 0.004032260416666711,
          "durationTicks": 1,
          "midi": 38,
          "name": "D2",
          "ticks": 384,
          "time": 1.5483879999999999,
          "velocity": 0.8346456692913385
        },
        {
          "duration": 0.004032260416666933,
          "durationTicks": 1,
          "midi": 35,
          "name": "B1",
          "ticks": 408,
          "time": 1.6451622499999998,
          "velocity": 0.8346456692913385
        },
        {
          "duration": 0.004032260416666933,
          "durationTicks": 1,
          "midi": 51,
          "name": "D#3",
          "ticks": 432,
          "time": 1.7419364999999998,
          "velocity": 0.8346456692913385
        },
        {
          "duration": 0.004032260416666933,
          "durationTicks": 1,
          "midi": 46,
          "name": "A#2",
          "ticks": 432,
          "time": 1.7419364999999998,
          "velocity": 0.6141732283464567
        },
        {
          "duration": 0.004032260416666933,
          "durationTicks": 1,
          "midi": 38,
          "name": "D2",
          "ticks": 432,
          "time": 1.7419364999999998,
          "velocity": 0.8346456692913385
        },
        {
          "duration": 0.004032260416666711,
          "durationTicks": 1,
          "midi": 38,
          "name": "D2",
          "ticks": 456,
          "time": 1.83871075,
          "velocity": 0.8346456692913385
        },
        {
          "duration": 0.004032260416666711,
          "durationTicks": 1,
          "midi": 57,
          "name": "A3",
          "ticks": 480,
          "time": 1.935485,
          "velocity": 0.8346456692913385
        },
        {
          "duration": 0.004032260416666933,
          "durationTicks": 1,
          "midi": 42,
          "name": "F#2",
          "ticks": 528,
          "time": 2.1290335,
          "velocity": 0.6141732283464567
        },
        {
          "duration": 0.004032260416666933,
          "durationTicks": 1,
          "midi": 35,
          "name": "B1",
          "ticks": 528,
          "time": 2.1290335,
          "velocity": 0.8346456692913385
        },
        {
          "duration": 0.004032260416666489,
          "durationTicks": 1,
          "midi": 42,
          "name": "F#2",
          "ticks": 552,
          "time": 2.22580775,
          "velocity": 0.6141732283464567
        },
        {
          "duration": 0.004032260416666489,
          "durationTicks": 1,
          "midi": 35,
          "name": "B1",
          "ticks": 552,
          "time": 2.22580775,
          "velocity": 0.8346456692913385
        },
        {
          "duration": 0.004032260416666933,
          "durationTicks": 1,
          "midi": 38,
          "name": "D2",
          "ticks": 576,
          "time": 2.3225819999999997,
          "velocity": 0.8346456692913385
        },
        {
          "duration": 0.004032260416666933,
          "durationTicks": 1,
          "midi": 38,
          "name": "D2",
          "ticks": 624,
          "time": 2.5161304999999996,
          "velocity": 0.8346456692913385
        },
        {
          "duration": 0.004032260416666933,
          "durationTicks": 1,
          "midi": 46,
          "name": "A#2",
          "ticks": 624,
          "time": 2.5161304999999996,
          "velocity": 0.6141732283464567
        },
        {
          "duration": 0.004032260416666933,
          "durationTicks": 1,
          "midi": 38,
          "name": "D2",
          "ticks": 648,
          "time": 2.6129047499999998,
          "velocity": 0.8346456692913385
        },
        {
          "duration": 0.004032260416666489,
          "durationTicks": 1,
          "midi": 42,
          "name": "F#2",
          "ticks": 672,
          "time": 2.709679,
          "velocity": 0.6141732283464567
        },
        {
          "duration": 0.004032260416666489,
          "durationTicks": 1,
          "midi": 46,
          "name": "A#2",
          "ticks": 720,
          "time": 2.9032275,
          "velocity": 0.6141732283464567
        },
        {
          "duration": 0.004032260416666489,
          "durationTicks": 1,
          "midi": 35,
          "name": "B1",
          "ticks": 720,
          "time": 2.9032275,
          "velocity": 0.8346456692913385
        },
        {
          "duration": 0.004032260416666933,
          "durationTicks": 1,
          "midi": 42,
          "name": "F#2",
          "ticks": 744,
          "time": 3.0000017499999996,
          "velocity": 0.6141732283464567
        },
        {
          "duration": 0.004032260416666489,
          "durationTicks": 1,
          "midi": 38,
          "name": "D2",
          "ticks": 768,
          "time": 3.0967759999999998,
          "velocity": 0.8346456692913385
        },
        {
          "duration": 0.004032260416666489,
          "durationTicks": 1,
          "midi": 51,
          "name": "D#3",
          "ticks": 768,
          "time": 3.0967759999999998,
          "velocity": 0.8346456692913385
        },
        {
          "duration": 0.004032260416666489,
          "durationTicks": 1,
          "midi": 46,
          "name": "A#2",
          "ticks": 768,
          "time": 3.0967759999999998,
          "velocity": 0.8346456692913385
        },
        {
          "duration": 0.004032260416666489,
          "durationTicks": 1,
          "midi": 35,
          "name": "B1",
          "ticks": 768,
          "time": 3.0967759999999998,
          "velocity": 0.8346456692913385
        },
        {
          "duration": 0.004032260416666045,
          "durationTicks": 1,
          "midi": 38,
          "name": "D2",
          "ticks": 792,
          "time": 3.19355025,
          "velocity": 0.8346456692913385
        },
        {
          "duration": 0.004032260416666489,
          "durationTicks": 1,
          "midi": 42,
          "name": "F#2",
          "ticks": 816,
          "time": 3.2903244999999997,
          "velocity": 0.6141732283464567
        },
        {
          "duration": 0.004032260416666489,
          "durationTicks": 1,
          "midi": 38,
          "name": "D2",
          "ticks": 816,
          "time": 3.2903244999999997,
          "velocity": 0.8346456692913385
        },
        {
          "duration": 0.004032260416666489,
          "durationTicks": 1,
          "midi": 38,
          "name": "D2",
          "ticks": 840,
          "time": 3.38709875,
          "velocity": 0.8346456692913385
        },
        {
          "duration": 0.004032260416666489,
          "durationTicks": 1,
          "midi": 35,
          "name": "B1",
          "ticks": 840,
          "time": 3.38709875,
          "velocity": 0.8346456692913385
        },
        {
          "duration": 0.004032260416666489,
          "durationTicks": 1,
          "midi": 51,
          "name": "D#3",
          "ticks": 840,
          "time": 3.38709875,
          "velocity": 0.8346456692913385
        },
        {
          "duration": 0.004032260416666489,
          "durationTicks": 1,
          "midi": 42,
          "name": "F#2",
          "ticks": 840,
          "time": 3.38709875,
          "velocity": 0.6141732283464567
        },
        {
          "duration": 0.004032260416666489,
          "durationTicks": 1,
          "midi": 38,
          "name": "D2",
          "ticks": 864,
          "time": 3.4838729999999996,
          "velocity": 0.8346456692913385
        },
        {
          "duration": 0.004032260416666489,
          "durationTicks": 1,
          "midi": 35,
          "name": "B1",
          "ticks": 888,
          "time": 3.5806472499999997,
          "velocity": 0.8346456692913385
        },
        {
          "duration": 0.004032260416666045,
          "durationTicks": 1,
          "midi": 51,
          "name": "D#3",
          "ticks": 912,
          "time": 3.6774215,
          "velocity": 0.8346456692913385
        },
        {
          "duration": 0.004032260416666045,
          "durationTicks": 1,
          "midi": 46,
          "name": "A#2",
          "ticks": 912,
          "time": 3.6774215,
          "velocity": 0.6141732283464567
        },
        {
          "duration": 0.004032260416666045,
          "durationTicks": 1,
          "midi": 38,
          "name": "D2",
          "ticks": 912,
          "time": 3.6774215,
          "velocity": 0.8346456692913385
        },
        {
          "duration": 0.004032260416666489,
          "durationTicks": 1,
          "midi": 38,
          "name": "D2",
          "ticks": 936,
          "time": 3.7741957499999996,
          "velocity": 0.8346456692913385
        },
        {
          "duration": 0.004032260416666489,
          "durationTicks": 1,
          "midi": 35,
          "name": "B1",
          "ticks": 960,
          "time": 3.87097,
          "velocity": 0.8346456692913385
        },
        {
          "duration": 0.004032260416666489,
          "durationTicks": 1,
          "midi": 57,
          "name": "A3",
          "ticks": 960,
          "time": 3.87097,
          "velocity": 0.8346456692913385
        },
        {
          "duration": 0.004032260416666489,
          "durationTicks": 1,
          "midi": 42,
          "name": "F#2",
          "ticks": 1008,
          "time": 4.064518499999999,
          "velocity": 0.6141732283464567
        },
        {
          "duration": 0.004032260416666489,
          "durationTicks": 1,
          "midi": 42,
          "name": "F#2",
          "ticks": 1032,
          "time": 4.161292749999999,
          "velocity": 0.6141732283464567
        },
        {
          "duration": 0.004032260416666489,
          "durationTicks": 1,
          "midi": 38,
          "name": "D2",
          "ticks": 1056,
          "time": 4.258067,
          "velocity": 0.8346456692913385
        },
        {
          "duration": 0.004032260416666489,
          "durationTicks": 1,
          "midi": 46,
          "name": "A#2",
          "ticks": 1104,
          "time": 4.4516155,
          "velocity": 0.6141732283464567
        },
        {
          "duration": 0.004032260416666489,
          "durationTicks": 1,
          "midi": 38,
          "name": "D2",
          "ticks": 1104,
          "time": 4.4516155,
          "velocity": 0.8346456692913385
        },
        {
          "duration": 0.004032260416666489,
          "durationTicks": 1,
          "midi": 38,
          "name": "D2",
          "ticks": 1128,
          "time": 4.548389749999999,
          "velocity": 0.8346456692913385
        },
        {
          "duration": 0.004032260416666489,
          "durationTicks": 1,
          "midi": 42,
          "name": "F#2",
          "ticks": 1152,
          "time": 4.645163999999999,
          "velocity": 0.6141732283464567
        },
        {
          "duration": 0.004032260416666489,
          "durationTicks": 1,
          "midi": 35,
          "name": "B1",
          "ticks": 1200,
          "time": 4.8387125,
          "velocity": 0.8346456692913385
        },
        {
          "duration": 0.004032260416666489,
          "durationTicks": 1,
          "midi": 46,
          "name": "A#2",
          "ticks": 1200,
          "time": 4.8387125,
          "velocity": 0.6141732283464567
        },
        {
          "duration": 0.004032260416666489,
          "durationTicks": 1,
          "midi": 42,
          "name": "F#2",
          "ticks": 1224,
          "time": 4.93548675,
          "velocity": 0.6141732283464567
        },
        {
          "duration": 0.004032260416666489,
          "durationTicks": 1,
          "midi": 51,
          "name": "D#3",
          "ticks": 1248,
          "time": 5.032260999999999,
          "velocity": 0.8346456692913385
        },
        {
          "duration": 0.004032260416666489,
          "durationTicks": 1,
          "midi": 46,
          "name": "A#2",
          "ticks": 1248,
          "time": 5.032260999999999,
          "velocity": 0.8346456692913385
        },
        {
          "duration": 0.004032260416666489,
          "durationTicks": 1,
          "midi": 35,
          "name": "B1",
          "ticks": 1248,
          "time": 5.032260999999999,
          "velocity": 0.8346456692913385
        },
        {
          "duration": 0.004032260416666489,
          "durationTicks": 1,
          "midi": 42,
          "name": "F#2",
          "ticks": 1296,
          "time": 5.2258094999999996,
          "velocity": 0.6141732283464567
        },
        {
          "duration": 0.004032260416666489,
          "durationTicks": 1,
          "midi": 38,
          "name": "D2",
          "ticks": 1296,
          "time": 5.2258094999999996,
          "velocity": 0.8346456692913385
        },
        {
          "duration": 0.004032260416666489,
          "durationTicks": 1,
          "midi": 35,
          "name": "B1",
          "ticks": 1320,
          "time": 5.32258375,
          "velocity": 0.8346456692913385
        },
        {
          "duration": 0.004032260416666489,
          "durationTicks": 1,
          "midi": 51,
          "name": "D#3",
          "ticks": 1320,
          "time": 5.32258375,
          "velocity": 0.8346456692913385
        },
        {
          "duration": 0.004032260416666489,
          "durationTicks": 1,
          "midi": 42,
          "name": "F#2",
          "ticks": 1320,
          "time": 5.32258375,
          "velocity": 0.6141732283464567
        },
        {
          "duration": 0.004032260416666489,
          "durationTicks": 1,
          "midi": 38,
          "name": "D2",
          "ticks": 1344,
          "time": 5.419358,
          "velocity": 0.8346456692913385
        },
        {
          "duration": 0.004032260416666489,
          "durationTicks": 1,
          "midi": 35,
          "name": "B1",
          "ticks": 1368,
          "time": 5.516132249999999,
          "velocity": 0.8346456692913385
        },
        {
          "duration": 0.004032260416666489,
          "durationTicks": 1,
          "midi": 38,
          "name": "D2",
          "ticks": 1392,
          "time": 5.612906499999999,
          "velocity": 0.8346456692913385
        },
        {
          "duration": 0.004032260416666489,
          "durationTicks": 1,
          "midi": 46,
          "name": "A#2",
          "ticks": 1392,
          "time": 5.612906499999999,
          "velocity": 0.6141732283464567
        },
        {
          "duration": 0.004032260416666489,
          "durationTicks": 1,
          "midi": 51,
          "name": "D#3",
          "ticks": 1392,
          "time": 5.612906499999999,
          "velocity": 0.8346456692913385
        },
        {
          "duration": 0.004032260416666489,
          "durationTicks": 1,
          "midi": 38,
          "name": "D2",
          "ticks": 1416,
          "time": 5.7096807499999995,
          "velocity": 0.8346456692913385
        },
        {
          "duration": 0.004032260416666489,
          "durationTicks": 1,
          "midi": 57,
          "name": "A3",
          "ticks": 1440,
          "time": 5.806455,
          "velocity": 0.8346456692913385
        },
        {
          "duration": 0.004032260416666489,
          "durationTicks": 1,
          "midi": 35,
          "name": "B1",
          "ticks": 1488,
          "time": 6.000003499999999,
          "velocity": 0.8346456692913385
        },
        {
          "duration": 0.004032260416666489,
          "durationTicks": 1,
          "midi": 42,
          "name": "F#2",
          "ticks": 1488,
          "time": 6.000003499999999,
          "velocity": 0.6141732283464567
        },
        {
          "duration": 0.004032260416666489,
          "durationTicks": 1,
          "midi": 35,
          "name": "B1",
          "ticks": 1512,
          "time": 6.096777749999999,
          "velocity": 0.8346456692913385
        },
        {
          "duration": 0.004032260416666489,
          "durationTicks": 1,
          "midi": 42,
          "name": "F#2",
          "ticks": 1512,
          "time": 6.096777749999999,
          "velocity": 0.6141732283464567
        },
        {
          "duration": 0.004032260416667377,
          "durationTicks": 1,
          "midi": 38,
          "name": "D2",
          "ticks": 1536,
          "time": 6.1935519999999995,
          "velocity": 0.8346456692913385
        },
        {
          "duration": 0.004032260416666489,
          "durationTicks": 1,
          "midi": 46,
          "name": "A#2",
          "ticks": 1584,
          "time": 6.3871005,
          "velocity": 0.6141732283464567
        },
        {
          "duration": 0.004032260416666489,
          "durationTicks": 1,
          "midi": 38,
          "name": "D2",
          "ticks": 1584,
          "time": 6.3871005,
          "velocity": 0.8346456692913385
        },
        {
          "duration": 0.004032260416667377,
          "durationTicks": 1,
          "midi": 38,
          "name": "D2",
          "ticks": 1608,
          "time": 6.483874749999999,
          "velocity": 0.8346456692913385
        },
        {
          "duration": 0.004032260416667377,
          "durationTicks": 1,
          "midi": 42,
          "name": "F#2",
          "ticks": 1632,
          "time": 6.580648999999999,
          "velocity": 0.6141732283464567
        },
        {
          "duration": 0.004032260416666489,
          "durationTicks": 1,
          "midi": 35,
          "name": "B1",
          "ticks": 1680,
          "time": 6.7741975,
          "velocity": 0.8346456692913385
        },
        {
          "duration": 0.004032260416666489,
          "durationTicks": 1,
          "midi": 46,
          "name": "A#2",
          "ticks": 1680,
          "time": 6.7741975,
          "velocity": 0.6141732283464567
        },
        {
          "duration": 0.004032260416666489,
          "durationTicks": 1,
          "midi": 42,
          "name": "F#2",
          "ticks": 1704,
          "time": 6.87097175,
          "velocity": 0.6141732283464567
        },
        {
          "duration": 0.004032260416667377,
          "durationTicks": 1,
          "midi": 35,
          "name": "B1",
          "ticks": 1728,
          "time": 6.967745999999999,
          "velocity": 0.8346456692913385
        },
        {
          "duration": 0.004032260416667377,
          "durationTicks": 1,
          "midi": 46,
          "name": "A#2",
          "ticks": 1728,
          "time": 6.967745999999999,
          "velocity": 0.8346456692913385
        },
        {
          "duration": 0.004032260416667377,
          "durationTicks": 1,
          "midi": 51,
          "name": "D#3",
          "ticks": 1728,
          "time": 6.967745999999999,
          "velocity": 0.8346456692913385
        },
        {
          "duration": 0.004032260416667377,
          "durationTicks": 1,
          "midi": 38,
          "name": "D2",
          "ticks": 1728,
          "time": 6.967745999999999,
          "velocity": 0.8346456692913385
        },
        {
          "duration": 0.004032260416667377,
          "durationTicks": 1,
          "midi": 38,
          "name": "D2",
          "ticks": 1752,
          "time": 7.064520249999999,
          "velocity": 0.8346456692913385
        },
        {
          "duration": 0.004032260416667377,
          "durationTicks": 1,
          "midi": 38,
          "name": "D2",
          "ticks": 1776,
          "time": 7.1612944999999995,
          "velocity": 0.8346456692913385
        },
        {
          "duration": 0.004032260416667377,
          "durationTicks": 1,
          "midi": 42,
          "name": "F#2",
          "ticks": 1776,
          "time": 7.1612944999999995,
          "velocity": 0.6141732283464567
        },
        {
          "duration": 0.004032260416666489,
          "durationTicks": 1,
          "midi": 42,
          "name": "F#2",
          "ticks": 1800,
          "time": 7.25806875,
          "velocity": 0.6141732283464567
        },
        {
          "duration": 0.004032260416666489,
          "durationTicks": 1,
          "midi": 51,
          "name": "D#3",
          "ticks": 1800,
          "time": 7.25806875,
          "velocity": 0.8346456692913385
        },
        {
          "duration": 0.004032260416666489,
          "durationTicks": 1,
          "midi": 35,
          "name": "B1",
          "ticks": 1800,
          "time": 7.25806875,
          "velocity": 0.8346456692913385
        },
        {
          "duration": 0.004032260416666489,
          "durationTicks": 1,
          "midi": 38,
          "name": "D2",
          "ticks": 1800,
          "time": 7.25806875,
          "velocity": 0.8346456692913385
        },
        {
          "duration": 0.004032260416666489,
          "durationTicks": 1,
          "midi": 38,
          "name": "D2",
          "ticks": 1824,
          "time": 7.354843,
          "velocity": 0.8346456692913385
        },
        {
          "duration": 0.004032260416667377,
          "durationTicks": 1,
          "midi": 35,
          "name": "B1",
          "ticks": 1848,
          "time": 7.451617249999999,
          "velocity": 0.8346456692913385
        },
        {
          "duration": 0.004032260416667377,
          "durationTicks": 1,
          "midi": 38,
          "name": "D2",
          "ticks": 1872,
          "time": 7.548391499999999,
          "velocity": 0.8346456692913385
        },
        {
          "duration": 0.004032260416667377,
          "durationTicks": 1,
          "midi": 46,
          "name": "A#2",
          "ticks": 1872,
          "time": 7.548391499999999,
          "velocity": 0.6141732283464567
        },
        {
          "duration": 0.004032260416667377,
          "durationTicks": 1,
          "midi": 51,
          "name": "D#3",
          "ticks": 1872,
          "time": 7.548391499999999,
          "velocity": 0.8346456692913385
        },
        {
          "duration": 0.004032260416667377,
          "durationTicks": 1,
          "midi": 38,
          "name": "D2",
          "ticks": 1896,
          "time": 7.645165749999999,
          "velocity": 0.8346456692913385
        },
        {
          "duration": 0.004032260416666489,
          "durationTicks": 1,
          "midi": 35,
          "name": "B1",
          "ticks": 1920,
          "time": 7.74194,
          "velocity": 0.8346456692913385
        },
        {
          "duration": 0.004032260416666489,
          "durationTicks": 1,
          "midi": 57,
          "name": "A3",
          "ticks": 1920,
          "time": 7.74194,
          "velocity": 0.8346456692913385
        },
        {
          "duration": 0.004032260416667377,
          "durationTicks": 1,
          "midi": 42,
          "name": "F#2",
          "ticks": 1968,
          "time": 7.935488499999999,
          "velocity": 0.6141732283464567
        },
        {
          "duration": 0.004032260416666489,
          "durationTicks": 1,
          "midi": 42,
          "name": "F#2",
          "ticks": 1992,
          "time": 8.03226275,
          "velocity": 0.6141732283464567
        },
        {
          "duration": 0.004032260416668265,
          "durationTicks": 1,
          "midi": 38,
          "name": "D2",
          "ticks": 2016,
          "time": 8.129036999999999,
          "velocity": 0.8346456692913385
        },
        {
          "duration": 0.004032260416668265,
          "durationTicks": 1,
          "midi": 38,
          "name": "D2",
          "ticks": 2064,
          "time": 8.322585499999999,
          "velocity": 0.8346456692913385
        },
        {
          "duration": 0.004032260416668265,
          "durationTicks": 1,
          "midi": 46,
          "name": "A#2",
          "ticks": 2064,
          "time": 8.322585499999999,
          "velocity": 0.6141732283464567
        },
        {
          "duration": 0.004032260416666489,
          "durationTicks": 1,
          "midi": 38,
          "name": "D2",
          "ticks": 2088,
          "time": 8.41935975,
          "velocity": 0.8346456692913385
        },
        {
          "duration": 0.004032260416666489,
          "durationTicks": 1,
          "midi": 42,
          "name": "F#2",
          "ticks": 2112,
          "time": 8.516134,
          "velocity": 0.6141732283464567
        },
        {
          "duration": 0.004032260416666489,
          "durationTicks": 1,
          "midi": 35,
          "name": "B1",
          "ticks": 2160,
          "time": 8.7096825,
          "velocity": 0.8346456692913385
        },
        {
          "duration": 0.004032260416666489,
          "durationTicks": 1,
          "midi": 46,
          "name": "A#2",
          "ticks": 2160,
          "time": 8.7096825,
          "velocity": 0.6141732283464567
        },
        {
          "duration": 0.004032260416668265,
          "durationTicks": 1,
          "midi": 42,
          "name": "F#2",
          "ticks": 2184,
          "time": 8.806456749999999,
          "velocity": 0.6141732283464567
        },
        {
          "duration": 0.004032260416666489,
          "durationTicks": 1,
          "midi": 35,
          "name": "B1",
          "ticks": 2208,
          "time": 8.903231,
          "velocity": 0.8346456692913385
        },
        {
          "duration": 0.004032260416666489,
          "durationTicks": 1,
          "midi": 46,
          "name": "A#2",
          "ticks": 2208,
          "time": 8.903231,
          "velocity": 0.8346456692913385
        },
        {
          "duration": 0.004032260416666489,
          "durationTicks": 1,
          "midi": 51,
          "name": "D#3",
          "ticks": 2208,
          "time": 8.903231,
          "velocity": 0.8346456692913385
        },
        {
          "duration": 0.004032260416668265,
          "durationTicks": 1,
          "midi": 38,
          "name": "D2",
          "ticks": 2256,
          "time": 9.096779499999998,
          "velocity": 0.8346456692913385
        },
        {
          "duration": 0.004032260416668265,
          "durationTicks": 1,
          "midi": 42,
          "name": "F#2",
          "ticks": 2256,
          "time": 9.096779499999998,
          "velocity": 0.6141732283464567
        },
        {
          "duration": 0.004032260416666489,
          "durationTicks": 1,
          "midi": 42,
          "name": "F#2",
          "ticks": 2280,
          "time": 9.19355375,
          "velocity": 0.6141732283464567
        },
        {
          "duration": 0.004032260416666489,
          "durationTicks": 1,
          "midi": 51,
          "name": "D#3",
          "ticks": 2280,
          "time": 9.19355375,
          "velocity": 0.8346456692913385
        },
        {
          "duration": 0.004032260416666489,
          "durationTicks": 1,
          "midi": 35,
          "name": "B1",
          "ticks": 2280,
          "time": 9.19355375,
          "velocity": 0.8346456692913385
        },
        {
          "duration": 0.004032260416668265,
          "durationTicks": 1,
          "midi": 38,
          "name": "D2",
          "ticks": 2304,
          "time": 9.290327999999999,
          "velocity": 0.8346456692913385
        },
        {
          "duration": 0.004032260416666489,
          "durationTicks": 1,
          "midi": 35,
          "name": "B1",
          "ticks": 2328,
          "time": 9.38710225,
          "velocity": 0.8346456692913385
        },
        {
          "duration": 0.004032260416666489,
          "durationTicks": 1,
          "midi": 38,
          "name": "D2",
          "ticks": 2352,
          "time": 9.4838765,
          "velocity": 0.8346456692913385
        },
        {
          "duration": 0.004032260416666489,
          "durationTicks": 1,
          "midi": 46,
          "name": "A#2",
          "ticks": 2352,
          "time": 9.4838765,
          "velocity": 0.6141732283464567
        },
        {
          "duration": 0.004032260416666489,
          "durationTicks": 1,
          "midi": 51,
          "name": "D#3",
          "ticks": 2352,
          "time": 9.4838765,
          "velocity": 0.8346456692913385
        },
        {
          "duration": 0.004032260416668265,
          "durationTicks": 1,
          "midi": 38,
          "name": "D2",
          "ticks": 2376,
          "time": 9.580650749999998,
          "velocity": 0.8346456692913385
        },
        {
          "duration": 0.004032260416666489,
          "durationTicks": 1,
          "midi": 57,
          "name": "A3",
          "ticks": 2400,
          "time": 9.677425,
          "velocity": 0.8346456692913385
        },
        {
          "duration": 0.004032260416666489,
          "durationTicks": 1,
          "midi": 42,
          "name": "F#2",
          "ticks": 2448,
          "time": 9.8709735,
          "velocity": 0.6141732283464567
        },
        {
          "duration": 0.004032260416666489,
          "durationTicks": 1,
          "midi": 35,
          "name": "B1",
          "ticks": 2448,
          "time": 9.8709735,
          "velocity": 0.8346456692913385
        },
        {
          "duration": 0.004032260416666489,
          "durationTicks": 1,
          "midi": 42,
          "name": "F#2",
          "ticks": 2472,
          "time": 9.96774775,
          "velocity": 0.6141732283464567
        },
        {
          "duration": 0.004032260416666489,
          "durationTicks": 1,
          "midi": 35,
          "name": "B1",
          "ticks": 2472,
          "time": 9.96774775,
          "velocity": 0.8346456692913385
        },
        {
          "duration": 0.004032260416668265,
          "durationTicks": 1,
          "midi": 38,
          "name": "D2",
          "ticks": 2496,
          "time": 10.064521999999998,
          "velocity": 0.8346456692913385
        },
        {
          "duration": 0.004032260416668265,
          "durationTicks": 1,
          "midi": 38,
          "name": "D2",
          "ticks": 2544,
          "time": 10.258070499999999,
          "velocity": 0.8346456692913385
        },
        {
          "duration": 0.004032260416668265,
          "durationTicks": 1,
          "midi": 46,
          "name": "A#2",
          "ticks": 2544,
          "time": 10.258070499999999,
          "velocity": 0.6141732283464567
        },
        {
          "duration": 0.004032260416666489,
          "durationTicks": 1,
          "midi": 38,
          "name": "D2",
          "ticks": 2568,
          "time": 10.35484475,
          "velocity": 0.8346456692913385
        },
        {
          "duration": 0.004032260416666489,
          "durationTicks": 1,
          "midi": 42,
          "name": "F#2",
          "ticks": 2592,
          "time": 10.451618999999999,
          "velocity": 0.6141732283464567
        },
        {
          "duration": 0.004032260416666489,
          "durationTicks": 1,
          "midi": 35,
          "name": "B1",
          "ticks": 2640,
          "time": 10.6451675,
          "velocity": 0.8346456692913385
        },
        {
          "duration": 0.004032260416666489,
          "durationTicks": 1,
          "midi": 46,
          "name": "A#2",
          "ticks": 2640,
          "time": 10.6451675,
          "velocity": 0.6141732283464567
        },
        {
          "duration": 0.004032260416668265,
          "durationTicks": 1,
          "midi": 42,
          "name": "F#2",
          "ticks": 2664,
          "time": 10.741941749999999,
          "velocity": 0.6141732283464567
        },
        {
          "duration": 0.004032260416666489,
          "durationTicks": 1,
          "midi": 35,
          "name": "B1",
          "ticks": 2688,
          "time": 10.838716,
          "velocity": 0.8346456692913385
        },
        {
          "duration": 0.004032260416666489,
          "durationTicks": 1,
          "midi": 46,
          "name": "A#2",
          "ticks": 2688,
          "time": 10.838716,
          "velocity": 0.8346456692913385
        },
        {
          "duration": 0.004032260416666489,
          "durationTicks": 1,
          "midi": 51,
          "name": "D#3",
          "ticks": 2688,
          "time": 10.838716,
          "velocity": 0.8346456692913385
        },
        {
          "duration": 0.004032260416666489,
          "durationTicks": 1,
          "midi": 38,
          "name": "D2",
          "ticks": 2688,
          "time": 10.838716,
          "velocity": 0.8346456692913385
        },
        {
          "duration": 0.004032260416666489,
          "durationTicks": 1,
          "midi": 38,
          "name": "D2",
          "ticks": 2712,
          "time": 10.935490249999999,
          "velocity": 0.8346456692913385
        },
        {
          "duration": 0.004032260416668265,
          "durationTicks": 1,
          "midi": 38,
          "name": "D2",
          "ticks": 2736,
          "time": 11.032264499999998,
          "velocity": 0.8346456692913385
        },
        {
          "duration": 0.004032260416668265,
          "durationTicks": 1,
          "midi": 42,
          "name": "F#2",
          "ticks": 2736,
          "time": 11.032264499999998,
          "velocity": 0.6141732283464567
        },
        {
          "duration": 0.004032260416666489,
          "durationTicks": 1,
          "midi": 42,
          "name": "F#2",
          "ticks": 2760,
          "time": 11.12903875,
          "velocity": 0.6141732283464567
        },
        {
          "duration": 0.004032260416666489,
          "durationTicks": 1,
          "midi": 51,
          "name": "D#3",
          "ticks": 2760,
          "time": 11.12903875,
          "velocity": 0.8346456692913385
        },
        {
          "duration": 0.004032260416666489,
          "durationTicks": 1,
          "midi": 35,
          "name": "B1",
          "ticks": 2760,
          "time": 11.12903875,
          "velocity": 0.8346456692913385
        },
        {
          "duration": 0.004032260416666489,
          "durationTicks": 1,
          "midi": 38,
          "name": "D2",
          "ticks": 2760,
          "time": 11.12903875,
          "velocity": 0.8346456692913385
        },
        {
          "duration": 0.004032260416668265,
          "durationTicks": 1,
          "midi": 38,
          "name": "D2",
          "ticks": 2784,
          "time": 11.225812999999999,
          "velocity": 0.8346456692913385
        },
        {
          "duration": 0.004032260416666489,
          "durationTicks": 1,
          "midi": 35,
          "name": "B1",
          "ticks": 2808,
          "time": 11.32258725,
          "velocity": 0.8346456692913385
        },
        {
          "duration": 0.004032260416666489,
          "durationTicks": 1,
          "midi": 38,
          "name": "D2",
          "ticks": 2832,
          "time": 11.419361499999999,
          "velocity": 0.8346456692913385
        },
        {
          "duration": 0.004032260416666489,
          "durationTicks": 1,
          "midi": 46,
          "name": "A#2",
          "ticks": 2832,
          "time": 11.419361499999999,
          "velocity": 0.6141732283464567
        },
        {
          "duration": 0.004032260416666489,
          "durationTicks": 1,
          "midi": 51,
          "name": "D#3",
          "ticks": 2832,
          "time": 11.419361499999999,
          "velocity": 0.8346456692913385
        },
        {
          "duration": 0.004032260416668265,
          "durationTicks": 1,
          "midi": 38,
          "name": "D2",
          "ticks": 2856,
          "time": 11.516135749999998,
          "velocity": 0.8346456692913385
        },
        {
          "duration": 0.004032260416666489,
          "durationTicks": 1,
          "midi": 35,
          "name": "B1",
          "ticks": 2880,
          "time": 11.61291,
          "velocity": 0.8346456692913385
        },
        {
          "duration": 0.004032260416666489,
          "durationTicks": 1,
          "midi": 57,
          "name": "A3",
          "ticks": 2880,
          "time": 11.61291,
          "velocity": 0.8346456692913385
        },
        {
          "duration": 0.004032260416666489,
          "durationTicks": 1,
          "midi": 42,
          "name": "F#2",
          "ticks": 2928,
          "time": 11.8064585,
          "velocity": 0.6141732283464567
        },
        {
          "duration": 0.004032260416666489,
          "durationTicks": 1,
          "midi": 42,
          "name": "F#2",
          "ticks": 2952,
          "time": 11.903232749999999,
          "velocity": 0.6141732283464567
        },
        {
          "duration": 0.004032260416668265,
          "durationTicks": 1,
          "midi": 38,
          "name": "D2",
          "ticks": 2976,
          "time": 12.000006999999998,
          "velocity": 0.8346456692913385
        },
        {
          "duration": 0.004032260416668265,
          "durationTicks": 1,
          "midi": 38,
          "name": "D2",
          "ticks": 3024,
          "time": 12.193555499999999,
          "velocity": 0.8346456692913385
        },
        {
          "duration": 0.004032260416668265,
          "durationTicks": 1,
          "midi": 46,
          "name": "A#2",
          "ticks": 3024,
          "time": 12.193555499999999,
          "velocity": 0.6141732283464567
        },
        {
          "duration": 0.004032260416666489,
          "durationTicks": 1,
          "midi": 38,
          "name": "D2",
          "ticks": 3048,
          "time": 12.29032975,
          "velocity": 0.8346456692913385
        },
        {
          "duration": 0.004032260416666489,
          "durationTicks": 1,
          "midi": 42,
          "name": "F#2",
          "ticks": 3072,
          "time": 12.387103999999999,
          "velocity": 0.6141732283464567
        },
        {
          "duration": 0.0040322604166647125,
          "durationTicks": 1,
          "midi": 35,
          "name": "B1",
          "ticks": 3120,
          "time": 12.5806525,
          "velocity": 0.8346456692913385
        },
        {
          "duration": 0.0040322604166647125,
          "durationTicks": 1,
          "midi": 46,
          "name": "A#2",
          "ticks": 3120,
          "time": 12.5806525,
          "velocity": 0.6141732283464567
        },
        {
          "duration": 0.004032260416666489,
          "durationTicks": 1,
          "midi": 42,
          "name": "F#2",
          "ticks": 3144,
          "time": 12.677426749999999,
          "velocity": 0.6141732283464567
        },
        {
          "duration": 0.0040322604166647125,
          "durationTicks": 1,
          "midi": 35,
          "name": "B1",
          "ticks": 3168,
          "time": 12.774201,
          "velocity": 0.8346456692913385
        },
        {
          "duration": 0.0040322604166647125,
          "durationTicks": 1,
          "midi": 46,
          "name": "A#2",
          "ticks": 3168,
          "time": 12.774201,
          "velocity": 0.8346456692913385
        },
        {
          "duration": 0.0040322604166647125,
          "durationTicks": 1,
          "midi": 51,
          "name": "D#3",
          "ticks": 3168,
          "time": 12.774201,
          "velocity": 0.8346456692913385
        },
        {
          "duration": 0.004032260416666489,
          "durationTicks": 1,
          "midi": 38,
          "name": "D2",
          "ticks": 3216,
          "time": 12.967749499999998,
          "velocity": 0.8346456692913385
        },
        {
          "duration": 0.004032260416666489,
          "durationTicks": 1,
          "midi": 42,
          "name": "F#2",
          "ticks": 3216,
          "time": 12.967749499999998,
          "velocity": 0.6141732283464567
        },
        {
          "duration": 0.0040322604166647125,
          "durationTicks": 1,
          "midi": 42,
          "name": "F#2",
          "ticks": 3240,
          "time": 13.06452375,
          "velocity": 0.6141732283464567
        },
        {
          "duration": 0.0040322604166647125,
          "durationTicks": 1,
          "midi": 51,
          "name": "D#3",
          "ticks": 3240,
          "time": 13.06452375,
          "velocity": 0.8346456692913385
        },
        {
          "duration": 0.0040322604166647125,
          "durationTicks": 1,
          "midi": 35,
          "name": "B1",
          "ticks": 3240,
          "time": 13.06452375,
          "velocity": 0.8346456692913385
        },
        {
          "duration": 0.004032260416666489,
          "durationTicks": 1,
          "midi": 38,
          "name": "D2",
          "ticks": 3264,
          "time": 13.161297999999999,
          "velocity": 0.8346456692913385
        },
        {
          "duration": 0.0040322604166647125,
          "durationTicks": 1,
          "midi": 35,
          "name": "B1",
          "ticks": 3288,
          "time": 13.25807225,
          "velocity": 0.8346456692913385
        },
        {
          "duration": 0.004032260416666489,
          "durationTicks": 1,
          "midi": 38,
          "name": "D2",
          "ticks": 3312,
          "time": 13.354846499999999,
          "velocity": 0.8346456692913385
        },
        {
          "duration": 0.004032260416666489,
          "durationTicks": 1,
          "midi": 46,
          "name": "A#2",
          "ticks": 3312,
          "time": 13.354846499999999,
          "velocity": 0.6141732283464567
        },
        {
          "duration": 0.004032260416666489,
          "durationTicks": 1,
          "midi": 51,
          "name": "D#3",
          "ticks": 3312,
          "time": 13.354846499999999,
          "velocity": 0.8346456692913385
        },
        {
          "duration": 0.004032260416666489,
          "durationTicks": 1,
          "midi": 38,
          "name": "D2",
          "ticks": 3336,
          "time": 13.451620749999998,
          "velocity": 0.8346456692913385
        },
        {
          "duration": 0.0040322604166647125,
          "durationTicks": 1,
          "midi": 57,
          "name": "A3",
          "ticks": 3360,
          "time": 13.548395,
          "velocity": 0.8346456692913385
        },
        {
          "duration": 0.0040322604166647125,
          "durationTicks": 1,
          "midi": 38,
          "name": "D2",
          "ticks": 3360,
          "time": 13.548395,
          "velocity": 0.8346456692913385
        },
        {
          "duration": 0.004032260416666489,
          "durationTicks": 1,
          "midi": 38,
          "name": "D2",
          "ticks": 3384,
          "time": 13.645169249999999,
          "velocity": 0.8346456692913385
        },
        {
          "duration": 0.0040322604166647125,
          "durationTicks": 1,
          "midi": 42,
          "name": "F#2",
          "ticks": 3408,
          "time": 13.7419435,
          "velocity": 0.6141732283464567
        },
        {
          "duration": 0.0040322604166647125,
          "durationTicks": 1,
          "midi": 35,
          "name": "B1",
          "ticks": 3408,
          "time": 13.7419435,
          "velocity": 0.8346456692913385
        },
        {
          "duration": 0.0040322604166647125,
          "durationTicks": 1,
          "midi": 38,
          "name": "D2",
          "ticks": 3408,
          "time": 13.7419435,
          "velocity": 0.8346456692913385
        },
        {
          "duration": 0.004032260416666489,
          "durationTicks": 1,
          "midi": 38,
          "name": "D2",
          "ticks": 3432,
          "time": 13.838717749999999,
          "velocity": 0.8346456692913385
        },
        {
          "duration": 0.004032260416666489,
          "durationTicks": 1,
          "midi": 42,
          "name": "F#2",
          "ticks": 3432,
          "time": 13.838717749999999,
          "velocity": 0.6141732283464567
        },
        {
          "duration": 0.004032260416666489,
          "durationTicks": 1,
          "midi": 35,
          "name": "B1",
          "ticks": 3432,
          "time": 13.838717749999999,
          "velocity": 0.8346456692913385
        },
        {
          "duration": 0.004032260416666489,
          "durationTicks": 1,
          "midi": 38,
          "name": "D2",
          "ticks": 3456,
          "time": 13.935491999999998,
          "velocity": 0.8346456692913385
        },
        {
          "duration": 0.004032260416666489,
          "durationTicks": 1,
          "midi": 38,
          "name": "D2",
          "ticks": 3504,
          "time": 14.129040499999999,
          "velocity": 0.8346456692913385
        },
        {
          "duration": 0.004032260416666489,
          "durationTicks": 1,
          "midi": 46,
          "name": "A#2",
          "ticks": 3504,
          "time": 14.129040499999999,
          "velocity": 0.6141732283464567
        },
        {
          "duration": 0.0040322604166647125,
          "durationTicks": 1,
          "midi": 38,
          "name": "D2",
          "ticks": 3528,
          "time": 14.22581475,
          "velocity": 0.8346456692913385
        },
        {
          "duration": 0.0040322604166647125,
          "durationTicks": 1,
          "midi": 38,
          "name": "D2",
          "ticks": 3528,
          "time": 14.22581475,
          "velocity": 0.8346456692913385
        },
        {
          "duration": 0.004032260416666489,
          "durationTicks": 1,
          "midi": 42,
          "name": "F#2",
          "ticks": 3552,
          "time": 14.322588999999999,
          "velocity": 0.6141732283464567
        },
        {
          "duration": 0.004032260416666489,
          "durationTicks": 1,
          "midi": 41,
          "name": "F2",
          "ticks": 3552,
          "time": 14.322588999999999,
          "velocity": 0.9448818897637795
        },
        {
          "duration": 0.004032260416666489,
          "durationTicks": 1,
          "midi": 38,
          "name": "D2",
          "ticks": 3576,
          "time": 14.419363249999998,
          "velocity": 0.8346456692913385
        },
        {
          "duration": 0.004032260416666489,
          "durationTicks": 1,
          "midi": 57,
          "name": "A3",
          "ticks": 3576,
          "time": 14.419363249999998,
          "velocity": 0.9448818897637795
        },
        {
          "duration": 0.0040322604166647125,
          "durationTicks": 1,
          "midi": 35,
          "name": "B1",
          "ticks": 3600,
          "time": 14.5161375,
          "velocity": 0.8346456692913385
        },
        {
          "duration": 0.0040322604166647125,
          "durationTicks": 1,
          "midi": 46,
          "name": "A#2",
          "ticks": 3600,
          "time": 14.5161375,
          "velocity": 0.6141732283464567
        },
        {
          "duration": 0.004032260416666489,
          "durationTicks": 1,
          "midi": 42,
          "name": "F#2",
          "ticks": 3624,
          "time": 14.612911749999999,
          "velocity": 0.6141732283464567
        },
        {
          "duration": 0.004032260416666489,
          "durationTicks": 1,
          "midi": 38,
          "name": "D2",
          "ticks": 3624,
          "time": 14.612911749999999,
          "velocity": 0.8346456692913385
        },
        {
          "duration": 0.0040322604166647125,
          "durationTicks": 1,
          "midi": 35,
          "name": "B1",
          "ticks": 3648,
          "time": 14.709686,
          "velocity": 0.8346456692913385
        },
        {
          "duration": 0.0040322604166647125,
          "durationTicks": 1,
          "midi": 46,
          "name": "A#2",
          "ticks": 3648,
          "time": 14.709686,
          "velocity": 0.8346456692913385
        },
        {
          "duration": 0.0040322604166647125,
          "durationTicks": 1,
          "midi": 38,
          "name": "D2",
          "ticks": 3648,
          "time": 14.709686,
          "velocity": 0.8346456692913385
        },
        {
          "duration": 0.0040322604166647125,
          "durationTicks": 1,
          "midi": 38,
          "name": "D2",
          "ticks": 3648,
          "time": 14.709686,
          "velocity": 0.8346456692913385
        },
        {
          "duration": 0.0040322604166647125,
          "durationTicks": 1,
          "midi": 48,
          "name": "C3",
          "ticks": 3648,
          "time": 14.709686,
          "velocity": 0.9448818897637795
        },
        {
          "duration": 0.0040322604166647125,
          "durationTicks": 1,
          "midi": 57,
          "name": "A3",
          "ticks": 3648,
          "time": 14.709686,
          "velocity": 0.9448818897637795
        },
        {
          "duration": 0.0040322604166700415,
          "durationTicks": 1,
          "midi": 42,
          "name": "F#2",
          "ticks": 3712,
          "time": 14.967750666666664,
          "velocity": 0.6141732283464567
        },
        {
          "duration": 0.0040322604166700415,
          "durationTicks": 1,
          "midi": 35,
          "name": "B1",
          "ticks": 3712,
          "time": 14.967750666666664,
          "velocity": 0.8346456692913385
        },
        {
          "duration": 0.0040322604166700415,
          "durationTicks": 1,
          "midi": 38,
          "name": "D2",
          "ticks": 3712,
          "time": 14.967750666666664,
          "velocity": 0.8346456692913385
        },
        {
          "duration": 0.0040322604166700415,
          "durationTicks": 1,
          "midi": 45,
          "name": "A2",
          "ticks": 3712,
          "time": 14.967750666666664,
          "velocity": 0.9448818897637795
        },
        {
          "duration": 0.0040322604166700415,
          "durationTicks": 1,
          "midi": 57,
          "name": "A3",
          "ticks": 3712,
          "time": 14.967750666666664,
          "velocity": 0.9448818897637795
        },
        {
          "duration": 0.0040322604166647125,
          "durationTicks": 1,
          "midi": 38,
          "name": "D2",
          "ticks": 3776,
          "time": 15.225815333333333,
          "velocity": 0.8346456692913385
        },
        {
          "duration": 0.0040322604166647125,
          "durationTicks": 1,
          "midi": 46,
          "name": "A#2",
          "ticks": 3776,
          "time": 15.225815333333333,
          "velocity": 0.6141732283464567
        },
        {
          "duration": 0.0040322604166647125,
          "durationTicks": 1,
          "midi": 38,
          "name": "D2",
          "ticks": 3776,
          "time": 15.225815333333333,
          "velocity": 0.9448818897637795
        },
        {
          "duration": 0.0040322604166647125,
          "durationTicks": 1,
          "midi": 41,
          "name": "F2",
          "ticks": 3776,
          "time": 15.225815333333333,
          "velocity": 0.9448818897637795
        },
        {
          "duration": 0.0040322604166647125,
          "durationTicks": 1,
          "midi": 57,
          "name": "A3",
          "ticks": 3776,
          "time": 15.225815333333333,
          "velocity": 0.9448818897637795
        },
        {
          "duration": 0.0040322604166647125,
          "durationTicks": 1,
          "midi": 35,
          "name": "B1",
          "ticks": 3776,
          "time": 15.225815333333333,
          "velocity": 0.8346456692913385
        },
        {
          "duration": 0.004032260416668265,
          "durationTicks": 1,
          "midi": 38,
          "name": "D2",
          "ticks": 3796,
          "time": 15.306460541666665,
          "velocity": 0.8346456692913385
        },
        {
          "duration": 0.004032260416668265,
          "durationTicks": 1,
          "midi": 38,
          "name": "D2",
          "ticks": 3796,
          "time": 15.306460541666665,
          "velocity": 0.9448818897637795
        },
        {
          "duration": 0.004032260416668265,
          "durationTicks": 1,
          "midi": 41,
          "name": "F2",
          "ticks": 3796,
          "time": 15.306460541666665,
          "velocity": 0.9448818897637795
        },
        {
          "duration": 0.004032260416666489,
          "durationTicks": 1,
          "midi": 38,
          "name": "D2",
          "ticks": 3816,
          "time": 15.387105749999998,
          "velocity": 0.8346456692913385
        },
        {
          "duration": 0.004032260416666489,
          "durationTicks": 1,
          "midi": 38,
          "name": "D2",
          "ticks": 3816,
          "time": 15.387105749999998,
          "velocity": 0.8346456692913385
        },
        {
          "duration": 0.0040322604166647125,
          "durationTicks": 1,
          "midi": 35,
          "name": "B1",
          "ticks": 3840,
          "time": 15.48388,
          "velocity": 0.8346456692913385
        },
        {
          "duration": 0.0040322604166647125,
          "durationTicks": 1,
          "midi": 42,
          "name": "F#2",
          "ticks": 3840,
          "time": 15.48388,
          "velocity": 0.8346456692913385
        },
        {
          "duration": 0.0040322604166647125,
          "durationTicks": 1,
          "midi": 51,
          "name": "D#3",
          "ticks": 3840,
          "time": 15.48388,
          "velocity": 0.8346456692913385
        },
        {
          "duration": 0.0040322604166647125,
          "durationTicks": 1,
          "midi": 37,
          "name": "C#2",
          "ticks": 3840,
          "time": 15.48388,
          "velocity": 0.8346456692913385
        },
        {
          "duration": 0.0040322604166647125,
          "durationTicks": 1,
          "midi": 57,
          "name": "A3",
          "ticks": 3840,
          "time": 15.48388,
          "velocity": 0.9448818897637795
        },
        {
          "duration": 0.0040322604166647125,
          "durationTicks": 1,
          "midi": 42,
          "name": "F#2",
          "ticks": 3888,
          "time": 15.6774285,
          "velocity": 0.8346456692913385
        },
        {
          "duration": 0.004032260416666489,
          "durationTicks": 1,
          "midi": 35,
          "name": "B1",
          "ticks": 3936,
          "time": 15.870976999999998,
          "velocity": 0.8346456692913385
        },
        {
          "duration": 0.004032260416666489,
          "durationTicks": 1,
          "midi": 46,
          "name": "A#2",
          "ticks": 3936,
          "time": 15.870976999999998,
          "velocity": 0.8346456692913385
        },
        {
          "duration": 0.004032260416666489,
          "durationTicks": 1,
          "midi": 37,
          "name": "C#2",
          "ticks": 3936,
          "time": 15.870976999999998,
          "velocity": 0.8346456692913385
        },
        {
          "duration": 0.0040322604166647125,
          "durationTicks": 1,
          "midi": 42,
          "name": "F#2",
          "ticks": 3984,
          "time": 16.0645255,
          "velocity": 0.8346456692913385
        },
        {
          "duration": 0.004032260416668265,
          "durationTicks": 1,
          "midi": 42,
          "name": "F#2",
          "ticks": 4008,
          "time": 16.161299749999998,
          "velocity": 0.8346456692913385
        },
        {
          "duration": 0.004032260416668265,
          "durationTicks": 1,
          "midi": 35,
          "name": "B1",
          "ticks": 4032,
          "time": 16.258073999999997,
          "velocity": 0.8346456692913385
        },
        {
          "duration": 0.004032260416668265,
          "durationTicks": 1,
          "midi": 42,
          "name": "F#2",
          "ticks": 4032,
          "time": 16.258073999999997,
          "velocity": 0.8346456692913385
        },
        {
          "duration": 0.004032260416668265,
          "durationTicks": 1,
          "midi": 37,
          "name": "C#2",
          "ticks": 4032,
          "time": 16.258073999999997,
          "velocity": 0.8346456692913385
        },
        {
          "duration": 0.0040322604166647125,
          "durationTicks": 1,
          "midi": 46,
          "name": "A#2",
          "ticks": 4080,
          "time": 16.4516225,
          "velocity": 0.8346456692913385
        },
        {
          "duration": 0.0040322604166647125,
          "durationTicks": 1,
          "midi": 38,
          "name": "D2",
          "ticks": 4080,
          "time": 16.4516225,
          "velocity": 0.6141732283464567
        },
        {
          "duration": 0.004032260416668265,
          "durationTicks": 1,
          "midi": 35,
          "name": "B1",
          "ticks": 4128,
          "time": 16.645170999999998,
          "velocity": 0.8346456692913385
        },
        {
          "duration": 0.004032260416668265,
          "durationTicks": 1,
          "midi": 42,
          "name": "F#2",
          "ticks": 4128,
          "time": 16.645170999999998,
          "velocity": 0.8346456692913385
        },
        {
          "duration": 0.004032260416668265,
          "durationTicks": 1,
          "midi": 37,
          "name": "C#2",
          "ticks": 4128,
          "time": 16.645170999999998,
          "velocity": 0.8346456692913385
        },
        {
          "duration": 0.0040322604166647125,
          "durationTicks": 1,
          "midi": 46,
          "name": "A#2",
          "ticks": 4176,
          "time": 16.8387195,
          "velocity": 0.8346456692913385
        },
        {
          "duration": 0.0040322604166647125,
          "durationTicks": 1,
          "midi": 38,
          "name": "D2",
          "ticks": 4176,
          "time": 16.8387195,
          "velocity": 0.7244094488188977
        },
        {
          "duration": 0.0040322604166647125,
          "durationTicks": 1,
          "midi": 42,
          "name": "F#2",
          "ticks": 4200,
          "time": 16.93549375,
          "velocity": 0.8346456692913385
        },
        {
          "duration": 0.0040322604166647125,
          "durationTicks": 1,
          "midi": 35,
          "name": "B1",
          "ticks": 4224,
          "time": 17.032268,
          "velocity": 0.8346456692913385
        },
        {
          "duration": 0.0040322604166647125,
          "durationTicks": 1,
          "midi": 42,
          "name": "F#2",
          "ticks": 4224,
          "time": 17.032268,
          "velocity": 0.8346456692913385
        },
        {
          "duration": 0.0040322604166647125,
          "durationTicks": 1,
          "midi": 51,
          "name": "D#3",
          "ticks": 4224,
          "time": 17.032268,
          "velocity": 0.8346456692913385
        },
        {
          "duration": 0.0040322604166647125,
          "durationTicks": 1,
          "midi": 37,
          "name": "C#2",
          "ticks": 4224,
          "time": 17.032268,
          "velocity": 0.8346456692913385
        },
        {
          "duration": 0.004032260416668265,
          "durationTicks": 1,
          "midi": 42,
          "name": "F#2",
          "ticks": 4272,
          "time": 17.225816499999997,
          "velocity": 0.8346456692913385
        },
        {
          "duration": 0.0040322604166647125,
          "durationTicks": 1,
          "midi": 35,
          "name": "B1",
          "ticks": 4320,
          "time": 17.419365,
          "velocity": 0.8346456692913385
        },
        {
          "duration": 0.0040322604166647125,
          "durationTicks": 1,
          "midi": 46,
          "name": "A#2",
          "ticks": 4320,
          "time": 17.419365,
          "velocity": 0.8346456692913385
        },
        {
          "duration": 0.0040322604166647125,
          "durationTicks": 1,
          "midi": 37,
          "name": "C#2",
          "ticks": 4320,
          "time": 17.419365,
          "velocity": 0.8346456692913385
        },
        {
          "duration": 0.004032260416668265,
          "durationTicks": 1,
          "midi": 42,
          "name": "F#2",
          "ticks": 4368,
          "time": 17.612913499999998,
          "velocity": 0.8346456692913385
        },
        {
          "duration": 0.004032260416668265,
          "durationTicks": 1,
          "midi": 38,
          "name": "D2",
          "ticks": 4368,
          "time": 17.612913499999998,
          "velocity": 0.8346456692913385
        },
        {
          "duration": 0.004032260416668265,
          "durationTicks": 1,
          "midi": 42,
          "name": "F#2",
          "ticks": 4392,
          "time": 17.709687749999997,
          "velocity": 0.8346456692913385
        },
        {
          "duration": 0.0040322604166647125,
          "durationTicks": 1,
          "midi": 35,
          "name": "B1",
          "ticks": 4416,
          "time": 17.806462,
          "velocity": 0.8346456692913385
        },
        {
          "duration": 0.0040322604166647125,
          "durationTicks": 1,
          "midi": 42,
          "name": "F#2",
          "ticks": 4416,
          "time": 17.806462,
          "velocity": 0.8346456692913385
        },
        {
          "duration": 0.0040322604166647125,
          "durationTicks": 1,
          "midi": 37,
          "name": "C#2",
          "ticks": 4416,
          "time": 17.806462,
          "velocity": 0.8346456692913385
        },
        {
          "duration": 0.0040322604166647125,
          "durationTicks": 1,
          "midi": 46,
          "name": "A#2",
          "ticks": 4464,
          "time": 18.0000105,
          "velocity": 0.8346456692913385
        },
        {
          "duration": 0.004032260416668265,
          "durationTicks": 1,
          "midi": 35,
          "name": "B1",
          "ticks": 4512,
          "time": 18.193558999999997,
          "velocity": 0.8346456692913385
        },
        {
          "duration": 0.004032260416668265,
          "durationTicks": 1,
          "midi": 42,
          "name": "F#2",
          "ticks": 4512,
          "time": 18.193558999999997,
          "velocity": 0.8346456692913385
        },
        {
          "duration": 0.004032260416668265,
          "durationTicks": 1,
          "midi": 37,
          "name": "C#2",
          "ticks": 4512,
          "time": 18.193558999999997,
          "velocity": 0.8346456692913385
        },
        {
          "duration": 0.0040322604166647125,
          "durationTicks": 1,
          "midi": 46,
          "name": "A#2",
          "ticks": 4560,
          "time": 18.3871075,
          "velocity": 0.8346456692913385
        },
        {
          "duration": 0.0040322604166647125,
          "durationTicks": 1,
          "midi": 38,
          "name": "D2",
          "ticks": 4560,
          "time": 18.3871075,
          "velocity": 0.8346456692913385
        },
        {
          "duration": 0.0040322604166647125,
          "durationTicks": 1,
          "midi": 42,
          "name": "F#2",
          "ticks": 4584,
          "time": 18.48388175,
          "velocity": 0.8346456692913385
        },
        {
          "duration": 0.004032260416668265,
          "durationTicks": 1,
          "midi": 35,
          "name": "B1",
          "ticks": 4608,
          "time": 18.580655999999998,
          "velocity": 0.8346456692913385
        },
        {
          "duration": 0.004032260416668265,
          "durationTicks": 1,
          "midi": 42,
          "name": "F#2",
          "ticks": 4608,
          "time": 18.580655999999998,
          "velocity": 0.8346456692913385
        },
        {
          "duration": 0.004032260416668265,
          "durationTicks": 1,
          "midi": 51,
          "name": "D#3",
          "ticks": 4608,
          "time": 18.580655999999998,
          "velocity": 0.8346456692913385
        },
        {
          "duration": 0.004032260416668265,
          "durationTicks": 1,
          "midi": 37,
          "name": "C#2",
          "ticks": 4608,
          "time": 18.580655999999998,
          "velocity": 0.8346456692913385
        },
        {
          "duration": 0.0040322604166647125,
          "durationTicks": 1,
          "midi": 42,
          "name": "F#2",
          "ticks": 4656,
          "time": 18.7742045,
          "velocity": 0.8346456692913385
        },
        {
          "duration": 0.0040322604166647125,
          "durationTicks": 1,
          "midi": 35,
          "name": "B1",
          "ticks": 4704,
          "time": 18.967753,
          "velocity": 0.8346456692913385
        },
        {
          "duration": 0.0040322604166647125,
          "durationTicks": 1,
          "midi": 46,
          "name": "A#2",
          "ticks": 4704,
          "time": 18.967753,
          "velocity": 0.8346456692913385
        },
        {
          "duration": 0.0040322604166647125,
          "durationTicks": 1,
          "midi": 37,
          "name": "C#2",
          "ticks": 4704,
          "time": 18.967753,
          "velocity": 0.8346456692913385
        },
        {
          "duration": 0.004032260416668265,
          "durationTicks": 1,
          "midi": 42,
          "name": "F#2",
          "ticks": 4752,
          "time": 19.161301499999997,
          "velocity": 0.8346456692913385
        },
        {
          "duration": 0.0040322604166647125,
          "durationTicks": 1,
          "midi": 42,
          "name": "F#2",
          "ticks": 4776,
          "time": 19.25807575,
          "velocity": 0.8346456692913385
        },
        {
          "duration": 0.0040322604166647125,
          "durationTicks": 1,
          "midi": 35,
          "name": "B1",
          "ticks": 4800,
          "time": 19.35485,
          "velocity": 0.8346456692913385
        },
        {
          "duration": 0.0040322604166647125,
          "durationTicks": 1,
          "midi": 42,
          "name": "F#2",
          "ticks": 4800,
          "time": 19.35485,
          "velocity": 0.8346456692913385
        },
        {
          "duration": 0.0040322604166647125,
          "durationTicks": 1,
          "midi": 37,
          "name": "C#2",
          "ticks": 4800,
          "time": 19.35485,
          "velocity": 0.8346456692913385
        },
        {
          "duration": 0.004032260416668265,
          "durationTicks": 1,
          "midi": 46,
          "name": "A#2",
          "ticks": 4848,
          "time": 19.548398499999998,
          "velocity": 0.8346456692913385
        },
        {
          "duration": 0.004032260416668265,
          "durationTicks": 1,
          "midi": 38,
          "name": "D2",
          "ticks": 4848,
          "time": 19.548398499999998,
          "velocity": 0.6141732283464567
        },
        {
          "duration": 0.004032260416668265,
          "durationTicks": 1,
          "midi": 38,
          "name": "D2",
          "ticks": 4872,
          "time": 19.645172749999997,
          "velocity": 0.6141732283464567
        },
        {
          "duration": 0.0040322604166647125,
          "durationTicks": 1,
          "midi": 35,
          "name": "B1",
          "ticks": 4896,
          "time": 19.741947,
          "velocity": 0.8346456692913385
        },
        {
          "duration": 0.0040322604166647125,
          "durationTicks": 1,
          "midi": 42,
          "name": "F#2",
          "ticks": 4896,
          "time": 19.741947,
          "velocity": 0.8346456692913385
        },
        {
          "duration": 0.0040322604166647125,
          "durationTicks": 1,
          "midi": 37,
          "name": "C#2",
          "ticks": 4896,
          "time": 19.741947,
          "velocity": 0.8346456692913385
        },
        {
          "duration": 0.0040322604166647125,
          "durationTicks": 1,
          "midi": 46,
          "name": "A#2",
          "ticks": 4944,
          "time": 19.9354955,
          "velocity": 0.8346456692913385
        },
        {
          "duration": 0.0040322604166647125,
          "durationTicks": 1,
          "midi": 38,
          "name": "D2",
          "ticks": 4944,
          "time": 19.9354955,
          "velocity": 0.7244094488188977
        },
        {
          "duration": 0.004032260416668265,
          "durationTicks": 1,
          "midi": 42,
          "name": "F#2",
          "ticks": 4968,
          "time": 20.032269749999998,
          "velocity": 0.8346456692913385
        },
        {
          "duration": 0.004032260416668265,
          "durationTicks": 1,
          "midi": 35,
          "name": "B1",
          "ticks": 4992,
          "time": 20.129043999999997,
          "velocity": 0.8346456692913385
        },
        {
          "duration": 0.004032260416668265,
          "durationTicks": 1,
          "midi": 42,
          "name": "F#2",
          "ticks": 4992,
          "time": 20.129043999999997,
          "velocity": 0.8346456692913385
        },
        {
          "duration": 0.004032260416668265,
          "durationTicks": 1,
          "midi": 51,
          "name": "D#3",
          "ticks": 4992,
          "time": 20.129043999999997,
          "velocity": 0.8346456692913385
        },
        {
          "duration": 0.004032260416668265,
          "durationTicks": 1,
          "midi": 37,
          "name": "C#2",
          "ticks": 4992,
          "time": 20.129043999999997,
          "velocity": 0.8346456692913385
        },
        {
          "duration": 0.0040322604166647125,
          "durationTicks": 1,
          "midi": 42,
          "name": "F#2",
          "ticks": 5040,
          "time": 20.3225925,
          "velocity": 0.8346456692913385
        },
        {
          "duration": 0.0040322604166647125,
          "durationTicks": 1,
          "midi": 38,
          "name": "D2",
          "ticks": 5040,
          "time": 20.3225925,
          "velocity": 0.8346456692913385
        },
        {
          "duration": 0.0040322604166647125,
          "durationTicks": 1,
          "midi": 38,
          "name": "D2",
          "ticks": 5064,
          "time": 20.41936675,
          "velocity": 0.8346456692913385
        },
        {
          "duration": 0.004032260416668265,
          "durationTicks": 1,
          "midi": 35,
          "name": "B1",
          "ticks": 5088,
          "time": 20.516140999999998,
          "velocity": 0.8346456692913385
        },
        {
          "duration": 0.004032260416668265,
          "durationTicks": 1,
          "midi": 46,
          "name": "A#2",
          "ticks": 5088,
          "time": 20.516140999999998,
          "velocity": 0.8346456692913385
        },
        {
          "duration": 0.004032260416668265,
          "durationTicks": 1,
          "midi": 37,
          "name": "C#2",
          "ticks": 5088,
          "time": 20.516140999999998,
          "velocity": 0.8346456692913385
        },
        {
          "duration": 0.004032260416668265,
          "durationTicks": 1,
          "midi": 38,
          "name": "D2",
          "ticks": 5112,
          "time": 20.612915249999997,
          "velocity": 0.8346456692913385
        },
        {
          "duration": 0.0040322604166647125,
          "durationTicks": 1,
          "midi": 42,
          "name": "F#2",
          "ticks": 5136,
          "time": 20.7096895,
          "velocity": 0.8346456692913385
        },
        {
          "duration": 0.0040322604166647125,
          "durationTicks": 1,
          "midi": 38,
          "name": "D2",
          "ticks": 5136,
          "time": 20.7096895,
          "velocity": 0.8346456692913385
        },
        {
          "duration": 0.0040322604166647125,
          "durationTicks": 1,
          "midi": 38,
          "name": "D2",
          "ticks": 5136,
          "time": 20.7096895,
          "velocity": 0.8346456692913385
        },
        {
          "duration": 0.0040322604166647125,
          "durationTicks": 1,
          "midi": 42,
          "name": "F#2",
          "ticks": 5160,
          "time": 20.80646375,
          "velocity": 0.8346456692913385
        },
        {
          "duration": 0.0040322604166647125,
          "durationTicks": 1,
          "midi": 38,
          "name": "D2",
          "ticks": 5160,
          "time": 20.80646375,
          "velocity": 0.8346456692913385
        },
        {
          "duration": 0.0040322604166647125,
          "durationTicks": 1,
          "midi": 35,
          "name": "B1",
          "ticks": 5184,
          "time": 20.903237999999998,
          "velocity": 0.8346456692913385
        },
        {
          "duration": 0.0040322604166647125,
          "durationTicks": 1,
          "midi": 42,
          "name": "F#2",
          "ticks": 5184,
          "time": 20.903237999999998,
          "velocity": 0.8346456692913385
        },
        {
          "duration": 0.0040322604166647125,
          "durationTicks": 1,
          "midi": 37,
          "name": "C#2",
          "ticks": 5184,
          "time": 20.903237999999998,
          "velocity": 0.8346456692913385
        },
        {
          "duration": 0.004032260416668265,
          "durationTicks": 1,
          "midi": 38,
          "name": "D2",
          "ticks": 5208,
          "time": 21.000012249999997,
          "velocity": 0.8346456692913385
        },
        {
          "duration": 0.004032260416668265,
          "durationTicks": 1,
          "midi": 46,
          "name": "A#2",
          "ticks": 5232,
          "time": 21.096786499999997,
          "velocity": 0.8346456692913385
        },
        {
          "duration": 0.004032260416668265,
          "durationTicks": 1,
          "midi": 38,
          "name": "D2",
          "ticks": 5232,
          "time": 21.096786499999997,
          "velocity": 0.8346456692913385
        },
        {
          "duration": 0.0040322604166647125,
          "durationTicks": 1,
          "midi": 35,
          "name": "B1",
          "ticks": 5280,
          "time": 21.290335,
          "velocity": 0.8346456692913385
        },
        {
          "duration": 0.0040322604166647125,
          "durationTicks": 1,
          "midi": 42,
          "name": "F#2",
          "ticks": 5280,
          "time": 21.290335,
          "velocity": 0.8346456692913385
        },
        {
          "duration": 0.0040322604166647125,
          "durationTicks": 1,
          "midi": 37,
          "name": "C#2",
          "ticks": 5280,
          "time": 21.290335,
          "velocity": 0.8346456692913385
        },
        {
          "duration": 0.0040322604166647125,
          "durationTicks": 1,
          "midi": 38,
          "name": "D2",
          "ticks": 5280,
          "time": 21.290335,
          "velocity": 0.8346456692913385
        },
        {
          "duration": 0.0040322604166647125,
          "durationTicks": 1,
          "midi": 38,
          "name": "D2",
          "ticks": 5304,
          "time": 21.387109249999998,
          "velocity": 0.8346456692913385
        },
        {
          "duration": 0.004032260416668265,
          "durationTicks": 1,
          "midi": 46,
          "name": "A#2",
          "ticks": 5328,
          "time": 21.483883499999997,
          "velocity": 0.8346456692913385
        },
        {
          "duration": 0.004032260416668265,
          "durationTicks": 1,
          "midi": 38,
          "name": "D2",
          "ticks": 5328,
          "time": 21.483883499999997,
          "velocity": 0.8346456692913385
        },
        {
          "duration": 0.004032260416668265,
          "durationTicks": 1,
          "midi": 38,
          "name": "D2",
          "ticks": 5328,
          "time": 21.483883499999997,
          "velocity": 0.8346456692913385
        },
        {
          "duration": 0.004032260416668265,
          "durationTicks": 1,
          "midi": 42,
          "name": "F#2",
          "ticks": 5352,
          "time": 21.580657749999997,
          "velocity": 0.8346456692913385
        },
        {
          "duration": 0.004032260416668265,
          "durationTicks": 1,
          "midi": 38,
          "name": "D2",
          "ticks": 5352,
          "time": 21.580657749999997,
          "velocity": 0.8346456692913385
        },
        {
          "duration": 0.0040322604166647125,
          "durationTicks": 1,
          "midi": 35,
          "name": "B1",
          "ticks": 5376,
          "time": 21.677432,
          "velocity": 0.8346456692913385
        },
        {
          "duration": 0.0040322604166647125,
          "durationTicks": 1,
          "midi": 42,
          "name": "F#2",
          "ticks": 5376,
          "time": 21.677432,
          "velocity": 0.8346456692913385
        },
        {
          "duration": 0.0040322604166647125,
          "durationTicks": 1,
          "midi": 51,
          "name": "D#3",
          "ticks": 5376,
          "time": 21.677432,
          "velocity": 0.8346456692913385
        },
        {
          "duration": 0.0040322604166647125,
          "durationTicks": 1,
          "midi": 37,
          "name": "C#2",
          "ticks": 5376,
          "time": 21.677432,
          "velocity": 0.8346456692913385
        },
        {
          "duration": 0.0040322604166647125,
          "durationTicks": 1,
          "midi": 57,
          "name": "A3",
          "ticks": 5376,
          "time": 21.677432,
          "velocity": 0.9448818897637795
        },
        {
          "duration": 0.0040322604166647125,
          "durationTicks": 1,
          "midi": 42,
          "name": "F#2",
          "ticks": 5424,
          "time": 21.870980499999998,
          "velocity": 0.8346456692913385
        },
        {
          "duration": 0.004032260416668265,
          "durationTicks": 1,
          "midi": 46,
          "name": "A#2",
          "ticks": 5472,
          "time": 22.064528999999997,
          "velocity": 0.8346456692913385
        },
        {
          "duration": 0.004032260416668265,
          "durationTicks": 1,
          "midi": 37,
          "name": "C#2",
          "ticks": 5472,
          "time": 22.064528999999997,
          "velocity": 0.8346456692913385
        },
        {
          "duration": 0.004032260416668265,
          "durationTicks": 1,
          "midi": 38,
          "name": "D2",
          "ticks": 5472,
          "time": 22.064528999999997,
          "velocity": 0.8346456692913385
        },
        {
          "duration": 0.0040322604166647125,
          "durationTicks": 1,
          "midi": 42,
          "name": "F#2",
          "ticks": 5520,
          "time": 22.2580775,
          "velocity": 0.8346456692913385
        },
        {
          "duration": 0.0040322604166647125,
          "durationTicks": 1,
          "midi": 42,
          "name": "F#2",
          "ticks": 5544,
          "time": 22.354851749999998,
          "velocity": 0.8346456692913385
        },
        {
          "duration": 0.004032260416668265,
          "durationTicks": 1,
          "midi": 35,
          "name": "B1",
          "ticks": 5568,
          "time": 22.451625999999997,
          "velocity": 0.8346456692913385
        },
        {
          "duration": 0.004032260416668265,
          "durationTicks": 1,
          "midi": 42,
          "name": "F#2",
          "ticks": 5568,
          "time": 22.451625999999997,
          "velocity": 0.8346456692913385
        },
        {
          "duration": 0.004032260416668265,
          "durationTicks": 1,
          "midi": 37,
          "name": "C#2",
          "ticks": 5568,
          "time": 22.451625999999997,
          "velocity": 0.8346456692913385
        },
        {
          "duration": 0.0040322604166647125,
          "durationTicks": 1,
          "midi": 46,
          "name": "A#2",
          "ticks": 5616,
          "time": 22.6451745,
          "velocity": 0.8346456692913385
        },
        {
          "duration": 0.0040322604166647125,
          "durationTicks": 1,
          "midi": 38,
          "name": "D2",
          "ticks": 5616,
          "time": 22.6451745,
          "velocity": 0.6141732283464567
        },
        {
          "duration": 0.0040322604166647125,
          "durationTicks": 1,
          "midi": 42,
          "name": "F#2",
          "ticks": 5664,
          "time": 22.838722999999998,
          "velocity": 0.8346456692913385
        },
        {
          "duration": 0.0040322604166647125,
          "durationTicks": 1,
          "midi": 37,
          "name": "C#2",
          "ticks": 5664,
          "time": 22.838722999999998,
          "velocity": 0.8346456692913385
        },
        {
          "duration": 0.0040322604166647125,
          "durationTicks": 1,
          "midi": 38,
          "name": "D2",
          "ticks": 5664,
          "time": 22.838722999999998,
          "velocity": 0.8346456692913385
        },
        {
          "duration": 0.004032260416668265,
          "durationTicks": 1,
          "midi": 46,
          "name": "A#2",
          "ticks": 5712,
          "time": 23.032271499999997,
          "velocity": 0.8346456692913385
        },
        {
          "duration": 0.004032260416668265,
          "durationTicks": 1,
          "midi": 38,
          "name": "D2",
          "ticks": 5712,
          "time": 23.032271499999997,
          "velocity": 0.7244094488188977
        },
        {
          "duration": 0.0040322604166647125,
          "durationTicks": 1,
          "midi": 42,
          "name": "F#2",
          "ticks": 5736,
          "time": 23.12904575,
          "velocity": 0.8346456692913385
        },
        {
          "duration": 0.0040322604166647125,
          "durationTicks": 1,
          "midi": 35,
          "name": "B1",
          "ticks": 5760,
          "time": 23.22582,
          "velocity": 0.8346456692913385
        },
        {
          "duration": 0.0040322604166647125,
          "durationTicks": 1,
          "midi": 42,
          "name": "F#2",
          "ticks": 5760,
          "time": 23.22582,
          "velocity": 0.8346456692913385
        },
        {
          "duration": 0.0040322604166647125,
          "durationTicks": 1,
          "midi": 51,
          "name": "D#3",
          "ticks": 5760,
          "time": 23.22582,
          "velocity": 0.8346456692913385
        },
        {
          "duration": 0.0040322604166647125,
          "durationTicks": 1,
          "midi": 37,
          "name": "C#2",
          "ticks": 5760,
          "time": 23.22582,
          "velocity": 0.8346456692913385
        },
        {
          "duration": 0.004032260416668265,
          "durationTicks": 1,
          "midi": 42,
          "name": "F#2",
          "ticks": 5808,
          "time": 23.419368499999997,
          "velocity": 0.8346456692913385
        },
        {
          "duration": 0.0040322604166647125,
          "durationTicks": 1,
          "midi": 46,
          "name": "A#2",
          "ticks": 5856,
          "time": 23.612917,
          "velocity": 0.8346456692913385
        },
        {
          "duration": 0.0040322604166647125,
          "durationTicks": 1,
          "midi": 37,
          "name": "C#2",
          "ticks": 5856,
          "time": 23.612917,
          "velocity": 0.8346456692913385
        },
        {
          "duration": 0.0040322604166647125,
          "durationTicks": 1,
          "midi": 38,
          "name": "D2",
          "ticks": 5856,
          "time": 23.612917,
          "velocity": 0.8346456692913385
        },
        {
          "duration": 0.0040322604166647125,
          "durationTicks": 1,
          "midi": 42,
          "name": "F#2",
          "ticks": 5904,
          "time": 23.806465499999998,
          "velocity": 0.8346456692913385
        },
        {
          "duration": 0.0040322604166647125,
          "durationTicks": 1,
          "midi": 38,
          "name": "D2",
          "ticks": 5904,
          "time": 23.806465499999998,
          "velocity": 0.8346456692913385
        },
        {
          "duration": 0.0040322604166647125,
          "durationTicks": 1,
          "midi": 42,
          "name": "F#2",
          "ticks": 5928,
          "time": 23.903239749999997,
          "velocity": 0.8346456692913385
        },
        {
          "duration": 0.004032260416668265,
          "durationTicks": 1,
          "midi": 35,
          "name": "B1",
          "ticks": 5952,
          "time": 24.000013999999997,
          "velocity": 0.8346456692913385
        },
        {
          "duration": 0.004032260416668265,
          "durationTicks": 1,
          "midi": 42,
          "name": "F#2",
          "ticks": 5952,
          "time": 24.000013999999997,
          "velocity": 0.8346456692913385
        },
        {
          "duration": 0.004032260416668265,
          "durationTicks": 1,
          "midi": 37,
          "name": "C#2",
          "ticks": 5952,
          "time": 24.000013999999997,
          "velocity": 0.8346456692913385
        },
        {
          "duration": 0.0040322604166647125,
          "durationTicks": 1,
          "midi": 46,
          "name": "A#2",
          "ticks": 6000,
          "time": 24.1935625,
          "velocity": 0.8346456692913385
        },
        {
          "duration": 0.0040322604166647125,
          "durationTicks": 1,
          "midi": 42,
          "name": "F#2",
          "ticks": 6048,
          "time": 24.387110999999997,
          "velocity": 0.8346456692913385
        },
        {
          "duration": 0.0040322604166647125,
          "durationTicks": 1,
          "midi": 37,
          "name": "C#2",
          "ticks": 6048,
          "time": 24.387110999999997,
          "velocity": 0.8346456692913385
        },
        {
          "duration": 0.0040322604166647125,
          "durationTicks": 1,
          "midi": 38,
          "name": "D2",
          "ticks": 6048,
          "time": 24.387110999999997,
          "velocity": 0.8346456692913385
        },
        {
          "duration": 0.0040322604166647125,
          "durationTicks": 1,
          "midi": 46,
          "name": "A#2",
          "ticks": 6096,
          "time": 24.5806595,
          "velocity": 0.8346456692913385
        },
        {
          "duration": 0.0040322604166647125,
          "durationTicks": 1,
          "midi": 38,
          "name": "D2",
          "ticks": 6096,
          "time": 24.5806595,
          "velocity": 0.8346456692913385
        },
        {
          "duration": 0.0040322604166647125,
          "durationTicks": 1,
          "midi": 42,
          "name": "F#2",
          "ticks": 6120,
          "time": 24.67743375,
          "velocity": 0.8346456692913385
        },
        {
          "duration": 0.004032260416668265,
          "durationTicks": 1,
          "midi": 37,
          "name": "C#2",
          "ticks": 6144,
          "time": 24.774207999999998,
          "velocity": 0.8346456692913385
        },
        {
          "duration": 0.004032260416668265,
          "durationTicks": 1,
          "midi": 51,
          "name": "D#3",
          "ticks": 6144,
          "time": 24.774207999999998,
          "velocity": 0.8346456692913385
        },
        {
          "duration": 0.004032260416668265,
          "durationTicks": 1,
          "midi": 42,
          "name": "F#2",
          "ticks": 6144,
          "time": 24.774207999999998,
          "velocity": 0.8346456692913385
        },
        {
          "duration": 0.004032260416668265,
          "durationTicks": 1,
          "midi": 35,
          "name": "B1",
          "ticks": 6144,
          "time": 24.774207999999998,
          "velocity": 0.8346456692913385
        },
        {
          "duration": 0.004032260416668265,
          "durationTicks": 1,
          "midi": 42,
          "name": "F#2",
          "ticks": 6192,
          "time": 24.967756499999997,
          "velocity": 0.8346456692913385
        },
        {
          "duration": 0.004032260416668265,
          "durationTicks": 1,
          "midi": 38,
          "name": "D2",
          "ticks": 6240,
          "time": 25.161305,
          "velocity": 0.8346456692913385
        },
        {
          "duration": 0.004032260416668265,
          "durationTicks": 1,
          "midi": 37,
          "name": "C#2",
          "ticks": 6240,
          "time": 25.161305,
          "velocity": 0.8346456692913385
        },
        {
          "duration": 0.004032260416668265,
          "durationTicks": 1,
          "midi": 46,
          "name": "A#2",
          "ticks": 6240,
          "time": 25.161305,
          "velocity": 0.8346456692913385
        },
        {
          "duration": 0.004032260416668265,
          "durationTicks": 1,
          "midi": 42,
          "name": "F#2",
          "ticks": 6288,
          "time": 25.354853499999997,
          "velocity": 0.8346456692913385
        },
        {
          "duration": 0.004032260416668265,
          "durationTicks": 1,
          "midi": 42,
          "name": "F#2",
          "ticks": 6312,
          "time": 25.451627749999997,
          "velocity": 0.8346456692913385
        },
        {
          "duration": 0.004032260416668265,
          "durationTicks": 1,
          "midi": 37,
          "name": "C#2",
          "ticks": 6336,
          "time": 25.548402,
          "velocity": 0.8346456692913385
        },
        {
          "duration": 0.004032260416668265,
          "durationTicks": 1,
          "midi": 42,
          "name": "F#2",
          "ticks": 6336,
          "time": 25.548402,
          "velocity": 0.8346456692913385
        },
        {
          "duration": 0.004032260416668265,
          "durationTicks": 1,
          "midi": 35,
          "name": "B1",
          "ticks": 6336,
          "time": 25.548402,
          "velocity": 0.8346456692913385
        },
        {
          "duration": 0.004032260416668265,
          "durationTicks": 1,
          "midi": 38,
          "name": "D2",
          "ticks": 6384,
          "time": 25.741950499999998,
          "velocity": 0.6141732283464567
        },
        {
          "duration": 0.004032260416668265,
          "durationTicks": 1,
          "midi": 46,
          "name": "A#2",
          "ticks": 6384,
          "time": 25.741950499999998,
          "velocity": 0.8346456692913385
        },
        {
          "duration": 0.004032260416668265,
          "durationTicks": 1,
          "midi": 38,
          "name": "D2",
          "ticks": 6408,
          "time": 25.838724749999997,
          "velocity": 0.6141732283464567
        },
        {
          "duration": 0.004032260416668265,
          "durationTicks": 1,
          "midi": 38,
          "name": "D2",
          "ticks": 6432,
          "time": 25.935498999999997,
          "velocity": 0.8346456692913385
        },
        {
          "duration": 0.004032260416668265,
          "durationTicks": 1,
          "midi": 37,
          "name": "C#2",
          "ticks": 6432,
          "time": 25.935498999999997,
          "velocity": 0.8346456692913385
        },
        {
          "duration": 0.004032260416668265,
          "durationTicks": 1,
          "midi": 42,
          "name": "F#2",
          "ticks": 6432,
          "time": 25.935498999999997,
          "velocity": 0.8346456692913385
        },
        {
          "duration": 0.004032260416668265,
          "durationTicks": 1,
          "midi": 38,
          "name": "D2",
          "ticks": 6480,
          "time": 26.1290475,
          "velocity": 0.7244094488188977
        },
        {
          "duration": 0.004032260416668265,
          "durationTicks": 1,
          "midi": 46,
          "name": "A#2",
          "ticks": 6480,
          "time": 26.1290475,
          "velocity": 0.8346456692913385
        },
        {
          "duration": 0.004032260416668265,
          "durationTicks": 1,
          "midi": 42,
          "name": "F#2",
          "ticks": 6504,
          "time": 26.225821749999998,
          "velocity": 0.8346456692913385
        },
        {
          "duration": 0.004032260416668265,
          "durationTicks": 1,
          "midi": 37,
          "name": "C#2",
          "ticks": 6528,
          "time": 26.322595999999997,
          "velocity": 0.8346456692913385
        },
        {
          "duration": 0.004032260416668265,
          "durationTicks": 1,
          "midi": 51,
          "name": "D#3",
          "ticks": 6528,
          "time": 26.322595999999997,
          "velocity": 0.8346456692913385
        },
        {
          "duration": 0.004032260416668265,
          "durationTicks": 1,
          "midi": 42,
          "name": "F#2",
          "ticks": 6528,
          "time": 26.322595999999997,
          "velocity": 0.8346456692913385
        },
        {
          "duration": 0.004032260416668265,
          "durationTicks": 1,
          "midi": 35,
          "name": "B1",
          "ticks": 6528,
          "time": 26.322595999999997,
          "velocity": 0.8346456692913385
        },
        {
          "duration": 0.004032260416668265,
          "durationTicks": 1,
          "midi": 38,
          "name": "D2",
          "ticks": 6576,
          "time": 26.5161445,
          "velocity": 0.8346456692913385
        },
        {
          "duration": 0.004032260416668265,
          "durationTicks": 1,
          "midi": 42,
          "name": "F#2",
          "ticks": 6576,
          "time": 26.5161445,
          "velocity": 0.8346456692913385
        },
        {
          "duration": 0.004032260416668265,
          "durationTicks": 1,
          "midi": 38,
          "name": "D2",
          "ticks": 6600,
          "time": 26.61291875,
          "velocity": 0.8346456692913385
        },
        {
          "duration": 0.004032260416668265,
          "durationTicks": 1,
          "midi": 37,
          "name": "C#2",
          "ticks": 6624,
          "time": 26.709692999999998,
          "velocity": 0.8346456692913385
        },
        {
          "duration": 0.004032260416668265,
          "durationTicks": 1,
          "midi": 46,
          "name": "A#2",
          "ticks": 6624,
          "time": 26.709692999999998,
          "velocity": 0.8346456692913385
        },
        {
          "duration": 0.004032260416668265,
          "durationTicks": 1,
          "midi": 35,
          "name": "B1",
          "ticks": 6624,
          "time": 26.709692999999998,
          "velocity": 0.8346456692913385
        },
        {
          "duration": 0.004032260416668265,
          "durationTicks": 1,
          "midi": 38,
          "name": "D2",
          "ticks": 6648,
          "time": 26.806467249999997,
          "velocity": 0.8346456692913385
        },
        {
          "duration": 0.004032260416668265,
          "durationTicks": 1,
          "midi": 38,
          "name": "D2",
          "ticks": 6672,
          "time": 26.903241499999996,
          "velocity": 0.8346456692913385
        },
        {
          "duration": 0.004032260416668265,
          "durationTicks": 1,
          "midi": 38,
          "name": "D2",
          "ticks": 6672,
          "time": 26.903241499999996,
          "velocity": 0.8346456692913385
        },
        {
          "duration": 0.004032260416668265,
          "durationTicks": 1,
          "midi": 42,
          "name": "F#2",
          "ticks": 6672,
          "time": 26.903241499999996,
          "velocity": 0.8346456692913385
        },
        {
          "duration": 0.004032260416668265,
          "durationTicks": 1,
          "midi": 38,
          "name": "D2",
          "ticks": 6696,
          "time": 27.00001575,
          "velocity": 0.8346456692913385
        },
        {
          "duration": 0.004032260416668265,
          "durationTicks": 1,
          "midi": 42,
          "name": "F#2",
          "ticks": 6696,
          "time": 27.00001575,
          "velocity": 0.8346456692913385
        },
        {
          "duration": 0.004032260416668265,
          "durationTicks": 1,
          "midi": 37,
          "name": "C#2",
          "ticks": 6720,
          "time": 27.09679,
          "velocity": 0.8346456692913385
        },
        {
          "duration": 0.004032260416668265,
          "durationTicks": 1,
          "midi": 42,
          "name": "F#2",
          "ticks": 6720,
          "time": 27.09679,
          "velocity": 0.8346456692913385
        },
        {
          "duration": 0.004032260416668265,
          "durationTicks": 1,
          "midi": 35,
          "name": "B1",
          "ticks": 6720,
          "time": 27.09679,
          "velocity": 0.8346456692913385
        },
        {
          "duration": 0.004032260416668265,
          "durationTicks": 1,
          "midi": 38,
          "name": "D2",
          "ticks": 6744,
          "time": 27.193564249999998,
          "velocity": 0.8346456692913385
        },
        {
          "duration": 0.004032260416668265,
          "durationTicks": 1,
          "midi": 38,
          "name": "D2",
          "ticks": 6768,
          "time": 27.290338499999997,
          "velocity": 0.8346456692913385
        },
        {
          "duration": 0.004032260416668265,
          "durationTicks": 1,
          "midi": 46,
          "name": "A#2",
          "ticks": 6768,
          "time": 27.290338499999997,
          "velocity": 0.8346456692913385
        },
        {
          "duration": 0.004032260416668265,
          "durationTicks": 1,
          "midi": 38,
          "name": "D2",
          "ticks": 6816,
          "time": 27.483887,
          "velocity": 0.8346456692913385
        },
        {
          "duration": 0.004032260416668265,
          "durationTicks": 1,
          "midi": 37,
          "name": "C#2",
          "ticks": 6816,
          "time": 27.483887,
          "velocity": 0.8346456692913385
        },
        {
          "duration": 0.004032260416668265,
          "durationTicks": 1,
          "midi": 42,
          "name": "F#2",
          "ticks": 6816,
          "time": 27.483887,
          "velocity": 0.8346456692913385
        },
        {
          "duration": 0.004032260416668265,
          "durationTicks": 1,
          "midi": 35,
          "name": "B1",
          "ticks": 6816,
          "time": 27.483887,
          "velocity": 0.8346456692913385
        },
        {
          "duration": 0.004032260416668265,
          "durationTicks": 1,
          "midi": 38,
          "name": "D2",
          "ticks": 6840,
          "time": 27.58066125,
          "velocity": 0.8346456692913385
        },
        {
          "duration": 0.004032260416668265,
          "durationTicks": 1,
          "midi": 38,
          "name": "D2",
          "ticks": 6864,
          "time": 27.677435499999998,
          "velocity": 0.8346456692913385
        },
        {
          "duration": 0.004032260416668265,
          "durationTicks": 1,
          "midi": 38,
          "name": "D2",
          "ticks": 6864,
          "time": 27.677435499999998,
          "velocity": 0.8346456692913385
        },
        {
          "duration": 0.004032260416668265,
          "durationTicks": 1,
          "midi": 46,
          "name": "A#2",
          "ticks": 6864,
          "time": 27.677435499999998,
          "velocity": 0.8346456692913385
        },
        {
          "duration": 0.004032260416668265,
          "durationTicks": 1,
          "midi": 42,
          "name": "F#2",
          "ticks": 6888,
          "time": 27.774209749999997,
          "velocity": 0.8346456692913385
        },
        {
          "duration": 0.004032260416668265,
          "durationTicks": 1,
          "midi": 38,
          "name": "D2",
          "ticks": 6888,
          "time": 27.774209749999997,
          "velocity": 0.8346456692913385
        },
        {
          "duration": 0.004032260416668265,
          "durationTicks": 1,
          "midi": 35,
          "name": "B1",
          "ticks": 6912,
          "time": 27.870983999999996,
          "velocity": 0.8346456692913385
        },
        {
          "duration": 0.004032260416668265,
          "durationTicks": 1,
          "midi": 42,
          "name": "F#2",
          "ticks": 6912,
          "time": 27.870983999999996,
          "velocity": 0.8346456692913385
        },
        {
          "duration": 0.004032260416668265,
          "durationTicks": 1,
          "midi": 51,
          "name": "D#3",
          "ticks": 6912,
          "time": 27.870983999999996,
          "velocity": 0.9448818897637795
        },
        {
          "duration": 0.004032260416668265,
          "durationTicks": 1,
          "midi": 46,
          "name": "A#2",
          "ticks": 6960,
          "time": 28.0645325,
          "velocity": 0.8346456692913385
        },
        {
          "duration": 0.004032260416668265,
          "durationTicks": 1,
          "midi": 35,
          "name": "B1",
          "ticks": 7008,
          "time": 28.258080999999997,
          "velocity": 0.8346456692913385
        },
        {
          "duration": 0.004032260416668265,
          "durationTicks": 1,
          "midi": 42,
          "name": "F#2",
          "ticks": 7008,
          "time": 28.258080999999997,
          "velocity": 0.8346456692913385
        },
        {
          "duration": 0.004032260416668265,
          "durationTicks": 1,
          "midi": 46,
          "name": "A#2",
          "ticks": 7056,
          "time": 28.4516295,
          "velocity": 0.8346456692913385
        },
        {
          "duration": 0.004032260416668265,
          "durationTicks": 1,
          "midi": 35,
          "name": "B1",
          "ticks": 7104,
          "time": 28.645177999999998,
          "velocity": 0.8346456692913385
        },
        {
          "duration": 0.004032260416668265,
          "durationTicks": 1,
          "midi": 42,
          "name": "F#2",
          "ticks": 7104,
          "time": 28.645177999999998,
          "velocity": 0.8346456692913385
        },
        {
          "duration": 0.004032260416668265,
          "durationTicks": 1,
          "midi": 46,
          "name": "A#2",
          "ticks": 7152,
          "time": 28.838726499999996,
          "velocity": 0.8346456692913385
        },
        {
          "duration": 0.004032260416668265,
          "durationTicks": 1,
          "midi": 35,
          "name": "B1",
          "ticks": 7200,
          "time": 29.032275,
          "velocity": 0.8346456692913385
        },
        {
          "duration": 0.004032260416668265,
          "durationTicks": 1,
          "midi": 42,
          "name": "F#2",
          "ticks": 7200,
          "time": 29.032275,
          "velocity": 0.8346456692913385
        },
        {
          "duration": 0.004032260416668265,
          "durationTicks": 1,
          "midi": 46,
          "name": "A#2",
          "ticks": 7248,
          "time": 29.225823499999997,
          "velocity": 0.8346456692913385
        },
        {
          "duration": 0.004032260416668265,
          "durationTicks": 1,
          "midi": 35,
          "name": "B1",
          "ticks": 7296,
          "time": 29.419372,
          "velocity": 0.8346456692913385
        },
        {
          "duration": 0.004032260416668265,
          "durationTicks": 1,
          "midi": 42,
          "name": "F#2",
          "ticks": 7296,
          "time": 29.419372,
          "velocity": 0.8346456692913385
        },
        {
          "duration": 0.004032260416668265,
          "durationTicks": 1,
          "midi": 46,
          "name": "A#2",
          "ticks": 7344,
          "time": 29.612920499999998,
          "velocity": 0.8346456692913385
        },
        {
          "duration": 0.004032260416668265,
          "durationTicks": 1,
          "midi": 35,
          "name": "B1",
          "ticks": 7392,
          "time": 29.806468999999996,
          "velocity": 0.8346456692913385
        },
        {
          "duration": 0.004032260416668265,
          "durationTicks": 1,
          "midi": 42,
          "name": "F#2",
          "ticks": 7392,
          "time": 29.806468999999996,
          "velocity": 0.8346456692913385
        },
        {
          "duration": 0.004032260416668265,
          "durationTicks": 1,
          "midi": 46,
          "name": "A#2",
          "ticks": 7440,
          "time": 30.0000175,
          "velocity": 0.8346456692913385
        },
        {
          "duration": 0.004032260416668265,
          "durationTicks": 1,
          "midi": 35,
          "name": "B1",
          "ticks": 7488,
          "time": 30.193565999999997,
          "velocity": 0.8346456692913385
        },
        {
          "duration": 0.004032260416668265,
          "durationTicks": 1,
          "midi": 42,
          "name": "F#2",
          "ticks": 7488,
          "time": 30.193565999999997,
          "velocity": 0.8346456692913385
        },
        {
          "duration": 0.004032260416668265,
          "durationTicks": 1,
          "midi": 46,
          "name": "A#2",
          "ticks": 7536,
          "time": 30.3871145,
          "velocity": 0.8346456692913385
        },
        {
          "duration": 0.004032260416668265,
          "durationTicks": 1,
          "midi": 38,
          "name": "D2",
          "ticks": 7536,
          "time": 30.3871145,
          "velocity": 0.6141732283464567
        },
        {
          "duration": 0.004032260416668265,
          "durationTicks": 1,
          "midi": 35,
          "name": "B1",
          "ticks": 7584,
          "time": 30.580662999999998,
          "velocity": 0.8346456692913385
        },
        {
          "duration": 0.004032260416668265,
          "durationTicks": 1,
          "midi": 42,
          "name": "F#2",
          "ticks": 7584,
          "time": 30.580662999999998,
          "velocity": 0.8346456692913385
        },
        {
          "duration": 0.004032260416668265,
          "durationTicks": 1,
          "midi": 38,
          "name": "D2",
          "ticks": 7608,
          "time": 30.677437249999997,
          "velocity": 0.6141732283464567
        },
        {
          "duration": 0.004032260416668265,
          "durationTicks": 1,
          "midi": 46,
          "name": "A#2",
          "ticks": 7632,
          "time": 30.774211499999996,
          "velocity": 0.8346456692913385
        },
        {
          "duration": 0.004032260416668265,
          "durationTicks": 1,
          "midi": 38,
          "name": "D2",
          "ticks": 7656,
          "time": 30.87098575,
          "velocity": 0.6141732283464567
        },
        {
          "duration": 0.004032260416668265,
          "durationTicks": 1,
          "midi": 35,
          "name": "B1",
          "ticks": 7680,
          "time": 30.96776,
          "velocity": 0.8346456692913385
        },
        {
          "duration": 0.004032260416668265,
          "durationTicks": 1,
          "midi": 42,
          "name": "F#2",
          "ticks": 7680,
          "time": 30.96776,
          "velocity": 0.8346456692913385
        },
        {
          "duration": 0.004032260416668265,
          "durationTicks": 1,
          "midi": 51,
          "name": "D#3",
          "ticks": 7680,
          "time": 30.96776,
          "velocity": 0.9448818897637795
        },
        {
          "duration": 0.004032260416668265,
          "durationTicks": 1,
          "midi": 46,
          "name": "A#2",
          "ticks": 7728,
          "time": 31.161308499999997,
          "velocity": 0.8346456692913385
        },
        {
          "duration": 0.004032260416668265,
          "durationTicks": 1,
          "midi": 35,
          "name": "B1",
          "ticks": 7776,
          "time": 31.354857,
          "velocity": 0.8346456692913385
        },
        {
          "duration": 0.004032260416668265,
          "durationTicks": 1,
          "midi": 42,
          "name": "F#2",
          "ticks": 7776,
          "time": 31.354857,
          "velocity": 0.8346456692913385
        },
        {
          "duration": 0.004032260416668265,
          "durationTicks": 1,
          "midi": 46,
          "name": "A#2",
          "ticks": 7824,
          "time": 31.548405499999998,
          "velocity": 0.8346456692913385
        },
        {
          "duration": 0.004032260416668265,
          "durationTicks": 1,
          "midi": 35,
          "name": "B1",
          "ticks": 7872,
          "time": 31.741953999999996,
          "velocity": 0.8346456692913385
        },
        {
          "duration": 0.004032260416668265,
          "durationTicks": 1,
          "midi": 42,
          "name": "F#2",
          "ticks": 7872,
          "time": 31.741953999999996,
          "velocity": 0.8346456692913385
        },
        {
          "duration": 0.004032260416668265,
          "durationTicks": 1,
          "midi": 46,
          "name": "A#2",
          "ticks": 7920,
          "time": 31.9355025,
          "velocity": 0.8346456692913385
        },
        {
          "duration": 0.004032260416671818,
          "durationTicks": 1,
          "midi": 35,
          "name": "B1",
          "ticks": 7968,
          "time": 32.129051,
          "velocity": 0.8346456692913385
        },
        {
          "duration": 0.004032260416671818,
          "durationTicks": 1,
          "midi": 42,
          "name": "F#2",
          "ticks": 7968,
          "time": 32.129051,
          "velocity": 0.8346456692913385
        },
        {
          "duration": 0.004032260416671818,
          "durationTicks": 1,
          "midi": 46,
          "name": "A#2",
          "ticks": 8016,
          "time": 32.322599499999995,
          "velocity": 0.8346456692913385
        },
        {
          "duration": 0.004032260416671818,
          "durationTicks": 1,
          "midi": 35,
          "name": "B1",
          "ticks": 8064,
          "time": 32.516147999999994,
          "velocity": 0.8346456692913385
        },
        {
          "duration": 0.004032260416671818,
          "durationTicks": 1,
          "midi": 42,
          "name": "F#2",
          "ticks": 8064,
          "time": 32.516147999999994,
          "velocity": 0.8346456692913385
        },
        {
          "duration": 0.0040322604166647125,
          "durationTicks": 1,
          "midi": 46,
          "name": "A#2",
          "ticks": 8112,
          "time": 32.7096965,
          "velocity": 0.8346456692913385
        },
        {
          "duration": 0.0040322604166647125,
          "durationTicks": 1,
          "midi": 35,
          "name": "B1",
          "ticks": 8160,
          "time": 32.903245,
          "velocity": 0.8346456692913385
        },
        {
          "duration": 0.0040322604166647125,
          "durationTicks": 1,
          "midi": 42,
          "name": "F#2",
          "ticks": 8160,
          "time": 32.903245,
          "velocity": 0.8346456692913385
        },
        {
          "duration": 0.004032260416671818,
          "durationTicks": 1,
          "midi": 46,
          "name": "A#2",
          "ticks": 8208,
          "time": 33.0967935,
          "velocity": 0.8346456692913385
        },
        {
          "duration": 0.004032260416671818,
          "durationTicks": 1,
          "midi": 35,
          "name": "B1",
          "ticks": 8256,
          "time": 33.290341999999995,
          "velocity": 0.8346456692913385
        },
        {
          "duration": 0.004032260416671818,
          "durationTicks": 1,
          "midi": 42,
          "name": "F#2",
          "ticks": 8256,
          "time": 33.290341999999995,
          "velocity": 0.8346456692913385
        },
        {
          "duration": 0.004032260416671818,
          "durationTicks": 1,
          "midi": 46,
          "name": "A#2",
          "ticks": 8304,
          "time": 33.483890499999994,
          "velocity": 0.8346456692913385
        },
        {
          "duration": 0.004032260416671818,
          "durationTicks": 1,
          "midi": 38,
          "name": "D2",
          "ticks": 8304,
          "time": 33.483890499999994,
          "velocity": 0.6141732283464567
        },
        {
          "duration": 0.0040322604166647125,
          "durationTicks": 1,
          "midi": 35,
          "name": "B1",
          "ticks": 8352,
          "time": 33.677439,
          "velocity": 0.8346456692913385
        },
        {
          "duration": 0.0040322604166647125,
          "durationTicks": 1,
          "midi": 42,
          "name": "F#2",
          "ticks": 8352,
          "time": 33.677439,
          "velocity": 0.8346456692913385
        },
        {
          "duration": 0.004032260416671818,
          "durationTicks": 1,
          "midi": 38,
          "name": "D2",
          "ticks": 8376,
          "time": 33.774213249999995,
          "velocity": 0.6141732283464567
        },
        {
          "duration": 0.0040322604166647125,
          "durationTicks": 1,
          "midi": 46,
          "name": "A#2",
          "ticks": 8400,
          "time": 33.8709875,
          "velocity": 0.8346456692913385
        },
        {
          "duration": 0.004032260416671818,
          "durationTicks": 1,
          "midi": 38,
          "name": "D2",
          "ticks": 8424,
          "time": 33.967761749999994,
          "velocity": 0.6141732283464567
        },
        {
          "duration": 0.004032260416671818,
          "durationTicks": 1,
          "midi": 35,
          "name": "B1",
          "ticks": 8448,
          "time": 34.064536,
          "velocity": 0.8346456692913385
        },
        {
          "duration": 0.004032260416671818,
          "durationTicks": 1,
          "midi": 42,
          "name": "F#2",
          "ticks": 8448,
          "time": 34.064536,
          "velocity": 0.8346456692913385
        },
        {
          "duration": 0.004032260416671818,
          "durationTicks": 1,
          "midi": 51,
          "name": "D#3",
          "ticks": 8448,
          "time": 34.064536,
          "velocity": 0.9448818897637795
        },
        {
          "duration": 0.004032260416671818,
          "durationTicks": 1,
          "midi": 46,
          "name": "A#2",
          "ticks": 8496,
          "time": 34.258084499999995,
          "velocity": 0.8346456692913385
        },
        {
          "duration": 0.004032260416671818,
          "durationTicks": 1,
          "midi": 35,
          "name": "B1",
          "ticks": 8544,
          "time": 34.451632999999994,
          "velocity": 0.8346456692913385
        },
        {
          "duration": 0.004032260416671818,
          "durationTicks": 1,
          "midi": 42,
          "name": "F#2",
          "ticks": 8544,
          "time": 34.451632999999994,
          "velocity": 0.8346456692913385
        },
        {
          "duration": 0.0040322604166647125,
          "durationTicks": 1,
          "midi": 46,
          "name": "A#2",
          "ticks": 8592,
          "time": 34.6451815,
          "velocity": 0.8346456692913385
        },
        {
          "duration": 0.0040322604166647125,
          "durationTicks": 1,
          "midi": 35,
          "name": "B1",
          "ticks": 8640,
          "time": 34.83873,
          "velocity": 0.8346456692913385
        },
        {
          "duration": 0.0040322604166647125,
          "durationTicks": 1,
          "midi": 42,
          "name": "F#2",
          "ticks": 8640,
          "time": 34.83873,
          "velocity": 0.8346456692913385
        },
        {
          "duration": 0.004032260416671818,
          "durationTicks": 1,
          "midi": 46,
          "name": "A#2",
          "ticks": 8688,
          "time": 35.0322785,
          "velocity": 0.8346456692913385
        },
        {
          "duration": 0.004032260416671818,
          "durationTicks": 1,
          "midi": 35,
          "name": "B1",
          "ticks": 8736,
          "time": 35.225826999999995,
          "velocity": 0.8346456692913385
        },
        {
          "duration": 0.004032260416671818,
          "durationTicks": 1,
          "midi": 42,
          "name": "F#2",
          "ticks": 8736,
          "time": 35.225826999999995,
          "velocity": 0.8346456692913385
        },
        {
          "duration": 0.004032260416671818,
          "durationTicks": 1,
          "midi": 46,
          "name": "A#2",
          "ticks": 8784,
          "time": 35.419375499999994,
          "velocity": 0.8346456692913385
        },
        {
          "duration": 0.0040322604166647125,
          "durationTicks": 1,
          "midi": 35,
          "name": "B1",
          "ticks": 8832,
          "time": 35.612924,
          "velocity": 0.8346456692913385
        },
        {
          "duration": 0.0040322604166647125,
          "durationTicks": 1,
          "midi": 42,
          "name": "F#2",
          "ticks": 8832,
          "time": 35.612924,
          "velocity": 0.8346456692913385
        },
        {
          "duration": 0.0040322604166647125,
          "durationTicks": 1,
          "midi": 46,
          "name": "A#2",
          "ticks": 8880,
          "time": 35.8064725,
          "velocity": 0.8346456692913385
        },
        {
          "duration": 0.004032260416671818,
          "durationTicks": 1,
          "midi": 35,
          "name": "B1",
          "ticks": 8928,
          "time": 36.000021,
          "velocity": 0.8346456692913385
        },
        {
          "duration": 0.004032260416671818,
          "durationTicks": 1,
          "midi": 42,
          "name": "F#2",
          "ticks": 8928,
          "time": 36.000021,
          "velocity": 0.8346456692913385
        },
        {
          "duration": 0.004032260416671818,
          "durationTicks": 1,
          "midi": 46,
          "name": "A#2",
          "ticks": 8976,
          "time": 36.193569499999995,
          "velocity": 0.8346456692913385
        },
        {
          "duration": 0.004032260416671818,
          "durationTicks": 1,
          "midi": 35,
          "name": "B1",
          "ticks": 9024,
          "time": 36.387117999999994,
          "velocity": 0.8346456692913385
        },
        {
          "duration": 0.004032260416671818,
          "durationTicks": 1,
          "midi": 42,
          "name": "F#2",
          "ticks": 9024,
          "time": 36.387117999999994,
          "velocity": 0.8346456692913385
        },
        {
          "duration": 0.0040322604166647125,
          "durationTicks": 1,
          "midi": 46,
          "name": "A#2",
          "ticks": 9072,
          "time": 36.5806665,
          "velocity": 0.8346456692913385
        },
        {
          "duration": 0.0040322604166647125,
          "durationTicks": 1,
          "midi": 38,
          "name": "D2",
          "ticks": 9072,
          "time": 36.5806665,
          "velocity": 0.6141732283464567
        },
        {
          "duration": 0.0040322604166647125,
          "durationTicks": 1,
          "midi": 35,
          "name": "B1",
          "ticks": 9120,
          "time": 36.774215,
          "velocity": 0.8346456692913385
        },
        {
          "duration": 0.0040322604166647125,
          "durationTicks": 1,
          "midi": 42,
          "name": "F#2",
          "ticks": 9120,
          "time": 36.774215,
          "velocity": 0.8346456692913385
        },
        {
          "duration": 0.004032260416671818,
          "durationTicks": 1,
          "midi": 38,
          "name": "D2",
          "ticks": 9144,
          "time": 36.870989249999994,
          "velocity": 0.6141732283464567
        },
        {
          "duration": 0.004032260416671818,
          "durationTicks": 1,
          "midi": 46,
          "name": "A#2",
          "ticks": 9168,
          "time": 36.9677635,
          "velocity": 0.8346456692913385
        },
        {
          "duration": 0.0040322604166647125,
          "durationTicks": 1,
          "midi": 38,
          "name": "D2",
          "ticks": 9192,
          "time": 37.06453775,
          "velocity": 0.6141732283464567
        },
        {
          "duration": 0.004032260416671818,
          "durationTicks": 1,
          "midi": 35,
          "name": "B1",
          "ticks": 9216,
          "time": 37.161311999999995,
          "velocity": 0.8346456692913385
        },
        {
          "duration": 0.004032260416671818,
          "durationTicks": 1,
          "midi": 42,
          "name": "F#2",
          "ticks": 9216,
          "time": 37.161311999999995,
          "velocity": 0.8346456692913385
        },
        {
          "duration": 0.004032260416671818,
          "durationTicks": 1,
          "midi": 51,
          "name": "D#3",
          "ticks": 9216,
          "time": 37.161311999999995,
          "velocity": 0.9448818897637795
        },
        {
          "duration": 0.004032260416671818,
          "durationTicks": 1,
          "midi": 46,
          "name": "A#2",
          "ticks": 9264,
          "time": 37.354860499999994,
          "velocity": 0.8346456692913385
        },
        {
          "duration": 0.0040322604166647125,
          "durationTicks": 1,
          "midi": 35,
          "name": "B1",
          "ticks": 9312,
          "time": 37.548409,
          "velocity": 0.8346456692913385
        },
        {
          "duration": 0.0040322604166647125,
          "durationTicks": 1,
          "midi": 42,
          "name": "F#2",
          "ticks": 9312,
          "time": 37.548409,
          "velocity": 0.8346456692913385
        },
        {
          "duration": 0.0040322604166647125,
          "durationTicks": 1,
          "midi": 46,
          "name": "A#2",
          "ticks": 9360,
          "time": 37.7419575,
          "velocity": 0.8346456692913385
        },
        {
          "duration": 0.004032260416671818,
          "durationTicks": 1,
          "midi": 35,
          "name": "B1",
          "ticks": 9408,
          "time": 37.935506,
          "velocity": 0.8346456692913385
        },
        {
          "duration": 0.004032260416671818,
          "durationTicks": 1,
          "midi": 42,
          "name": "F#2",
          "ticks": 9408,
          "time": 37.935506,
          "velocity": 0.8346456692913385
        },
        {
          "duration": 0.004032260416671818,
          "durationTicks": 1,
          "midi": 46,
          "name": "A#2",
          "ticks": 9456,
          "time": 38.129054499999995,
          "velocity": 0.8346456692913385
        },
        {
          "duration": 0.004032260416671818,
          "durationTicks": 1,
          "midi": 35,
          "name": "B1",
          "ticks": 9504,
          "time": 38.322602999999994,
          "velocity": 0.8346456692913385
        },
        {
          "duration": 0.004032260416671818,
          "durationTicks": 1,
          "midi": 42,
          "name": "F#2",
          "ticks": 9504,
          "time": 38.322602999999994,
          "velocity": 0.8346456692913385
        },
        {
          "duration": 0.0040322604166647125,
          "durationTicks": 1,
          "midi": 46,
          "name": "A#2",
          "ticks": 9552,
          "time": 38.5161515,
          "velocity": 0.8346456692913385
        },
        {
          "duration": 0.0040322604166647125,
          "durationTicks": 1,
          "midi": 35,
          "name": "B1",
          "ticks": 9600,
          "time": 38.7097,
          "velocity": 0.8346456692913385
        },
        {
          "duration": 0.0040322604166647125,
          "durationTicks": 1,
          "midi": 42,
          "name": "F#2",
          "ticks": 9600,
          "time": 38.7097,
          "velocity": 0.8346456692913385
        },
        {
          "duration": 0.004032260416671818,
          "durationTicks": 1,
          "midi": 46,
          "name": "A#2",
          "ticks": 9648,
          "time": 38.9032485,
          "velocity": 0.8346456692913385
        },
        {
          "duration": 0.004032260416671818,
          "durationTicks": 1,
          "midi": 35,
          "name": "B1",
          "ticks": 9696,
          "time": 39.096796999999995,
          "velocity": 0.8346456692913385
        },
        {
          "duration": 0.004032260416671818,
          "durationTicks": 1,
          "midi": 42,
          "name": "F#2",
          "ticks": 9696,
          "time": 39.096796999999995,
          "velocity": 0.8346456692913385
        },
        {
          "duration": 0.004032260416671818,
          "durationTicks": 1,
          "midi": 46,
          "name": "A#2",
          "ticks": 9744,
          "time": 39.290345499999994,
          "velocity": 0.8346456692913385
        },
        {
          "duration": 0.0040322604166647125,
          "durationTicks": 1,
          "midi": 35,
          "name": "B1",
          "ticks": 9792,
          "time": 39.483894,
          "velocity": 0.8346456692913385
        },
        {
          "duration": 0.0040322604166647125,
          "durationTicks": 1,
          "midi": 42,
          "name": "F#2",
          "ticks": 9792,
          "time": 39.483894,
          "velocity": 0.8346456692913385
        },
        {
          "duration": 0.0040322604166647125,
          "durationTicks": 1,
          "midi": 46,
          "name": "A#2",
          "ticks": 9840,
          "time": 39.6774425,
          "velocity": 0.8346456692913385
        },
        {
          "duration": 0.0040322604166647125,
          "durationTicks": 1,
          "midi": 38,
          "name": "D2",
          "ticks": 9840,
          "time": 39.6774425,
          "velocity": 0.6141732283464567
        },
        {
          "duration": 0.004032260416671818,
          "durationTicks": 1,
          "midi": 35,
          "name": "B1",
          "ticks": 9888,
          "time": 39.870991,
          "velocity": 0.8346456692913385
        },
        {
          "duration": 0.004032260416671818,
          "durationTicks": 1,
          "midi": 42,
          "name": "F#2",
          "ticks": 9888,
          "time": 39.870991,
          "velocity": 0.8346456692913385
        },
        {
          "duration": 0.0040322604166647125,
          "durationTicks": 1,
          "midi": 38,
          "name": "D2",
          "ticks": 9912,
          "time": 39.96776525,
          "velocity": 0.6141732283464567
        },
        {
          "duration": 0.004032260416671818,
          "durationTicks": 1,
          "midi": 46,
          "name": "A#2",
          "ticks": 9936,
          "time": 40.064539499999995,
          "velocity": 0.8346456692913385
        },
        {
          "duration": 0.0040322604166647125,
          "durationTicks": 1,
          "midi": 38,
          "name": "D2",
          "ticks": 9960,
          "time": 40.16131375,
          "velocity": 0.6141732283464567
        },
        {
          "duration": 0.004032260416671818,
          "durationTicks": 1,
          "midi": 35,
          "name": "B1",
          "ticks": 9984,
          "time": 40.258087999999994,
          "velocity": 0.8346456692913385
        },
        {
          "duration": 0.004032260416671818,
          "durationTicks": 1,
          "midi": 42,
          "name": "F#2",
          "ticks": 9984,
          "time": 40.258087999999994,
          "velocity": 0.8346456692913385
        },
        {
          "duration": 0.004032260416671818,
          "durationTicks": 1,
          "midi": 51,
          "name": "D#3",
          "ticks": 9984,
          "time": 40.258087999999994,
          "velocity": 0.9448818897637795
        },
        {
          "duration": 0.0040322604166647125,
          "durationTicks": 1,
          "midi": 46,
          "name": "A#2",
          "ticks": 10032,
          "time": 40.4516365,
          "velocity": 0.8346456692913385
        },
        {
          "duration": 0.0040322604166647125,
          "durationTicks": 1,
          "midi": 35,
          "name": "B1",
          "ticks": 10080,
          "time": 40.645185,
          "velocity": 0.8346456692913385
        },
        {
          "duration": 0.0040322604166647125,
          "durationTicks": 1,
          "midi": 42,
          "name": "F#2",
          "ticks": 10080,
          "time": 40.645185,
          "velocity": 0.8346456692913385
        },
        {
          "duration": 0.004032260416671818,
          "durationTicks": 1,
          "midi": 46,
          "name": "A#2",
          "ticks": 10128,
          "time": 40.8387335,
          "velocity": 0.8346456692913385
        },
        {
          "duration": 0.004032260416671818,
          "durationTicks": 1,
          "midi": 35,
          "name": "B1",
          "ticks": 10176,
          "time": 41.032281999999995,
          "velocity": 0.8346456692913385
        },
        {
          "duration": 0.004032260416671818,
          "durationTicks": 1,
          "midi": 42,
          "name": "F#2",
          "ticks": 10176,
          "time": 41.032281999999995,
          "velocity": 0.8346456692913385
        },
        {
          "duration": 0.004032260416671818,
          "durationTicks": 1,
          "midi": 46,
          "name": "A#2",
          "ticks": 10224,
          "time": 41.225830499999994,
          "velocity": 0.8346456692913385
        },
        {
          "duration": 0.0040322604166647125,
          "durationTicks": 1,
          "midi": 35,
          "name": "B1",
          "ticks": 10272,
          "time": 41.419379,
          "velocity": 0.8346456692913385
        },
        {
          "duration": 0.0040322604166647125,
          "durationTicks": 1,
          "midi": 42,
          "name": "F#2",
          "ticks": 10272,
          "time": 41.419379,
          "velocity": 0.8346456692913385
        },
        {
          "duration": 0.0040322604166647125,
          "durationTicks": 1,
          "midi": 46,
          "name": "A#2",
          "ticks": 10320,
          "time": 41.6129275,
          "velocity": 0.8346456692913385
        },
        {
          "duration": 0.004032260416671818,
          "durationTicks": 1,
          "midi": 35,
          "name": "B1",
          "ticks": 10368,
          "time": 41.806475999999996,
          "velocity": 0.8346456692913385
        },
        {
          "duration": 0.004032260416671818,
          "durationTicks": 1,
          "midi": 42,
          "name": "F#2",
          "ticks": 10368,
          "time": 41.806475999999996,
          "velocity": 0.8346456692913385
        },
        {
          "duration": 0.004032260416671818,
          "durationTicks": 1,
          "midi": 46,
          "name": "A#2",
          "ticks": 10416,
          "time": 42.000024499999995,
          "velocity": 0.8346456692913385
        },
        {
          "duration": 0.004032260416671818,
          "durationTicks": 1,
          "midi": 35,
          "name": "B1",
          "ticks": 10464,
          "time": 42.193572999999994,
          "velocity": 0.8346456692913385
        },
        {
          "duration": 0.004032260416671818,
          "durationTicks": 1,
          "midi": 42,
          "name": "F#2",
          "ticks": 10464,
          "time": 42.193572999999994,
          "velocity": 0.8346456692913385
        },
        {
          "duration": 0.0040322604166647125,
          "durationTicks": 1,
          "midi": 46,
          "name": "A#2",
          "ticks": 10512,
          "time": 42.3871215,
          "velocity": 0.8346456692913385
        },
        {
          "duration": 0.0040322604166647125,
          "durationTicks": 1,
          "midi": 35,
          "name": "B1",
          "ticks": 10560,
          "time": 42.58067,
          "velocity": 0.8346456692913385
        },
        {
          "duration": 0.0040322604166647125,
          "durationTicks": 1,
          "midi": 42,
          "name": "F#2",
          "ticks": 10560,
          "time": 42.58067,
          "velocity": 0.8346456692913385
        },
        {
          "duration": 0.004032260416671818,
          "durationTicks": 1,
          "midi": 46,
          "name": "A#2",
          "ticks": 10608,
          "time": 42.774218499999996,
          "velocity": 0.8346456692913385
        },
        {
          "duration": 0.004032260416671818,
          "durationTicks": 1,
          "midi": 38,
          "name": "D2",
          "ticks": 10608,
          "time": 42.774218499999996,
          "velocity": 0.6141732283464567
        },
        {
          "duration": 0.004032260416671818,
          "durationTicks": 1,
          "midi": 35,
          "name": "B1",
          "ticks": 10656,
          "time": 42.967766999999995,
          "velocity": 0.8346456692913385
        },
        {
          "duration": 0.004032260416671818,
          "durationTicks": 1,
          "midi": 42,
          "name": "F#2",
          "ticks": 10656,
          "time": 42.967766999999995,
          "velocity": 0.8346456692913385
        },
        {
          "duration": 0.0040322604166647125,
          "durationTicks": 1,
          "midi": 38,
          "name": "D2",
          "ticks": 10680,
          "time": 43.06454125,
          "velocity": 0.6141732283464567
        },
        {
          "duration": 0.004032260416671818,
          "durationTicks": 1,
          "midi": 46,
          "name": "A#2",
          "ticks": 10704,
          "time": 43.16131549999999,
          "velocity": 0.8346456692913385
        },
        {
          "duration": 0.004032260416671818,
          "durationTicks": 1,
          "midi": 38,
          "name": "D2",
          "ticks": 10728,
          "time": 43.258089749999996,
          "velocity": 0.6141732283464567
        },
        {
          "duration": 0.0040322604166647125,
          "durationTicks": 1,
          "midi": 35,
          "name": "B1",
          "ticks": 10752,
          "time": 43.354864,
          "velocity": 0.8346456692913385
        },
        {
          "duration": 0.0040322604166647125,
          "durationTicks": 1,
          "midi": 42,
          "name": "F#2",
          "ticks": 10752,
          "time": 43.354864,
          "velocity": 0.8346456692913385
        },
        {
          "duration": 0.0040322604166647125,
          "durationTicks": 1,
          "midi": 51,
          "name": "D#3",
          "ticks": 10752,
          "time": 43.354864,
          "velocity": 0.9448818897637795
        },
        {
          "duration": 0.0040322604166647125,
          "durationTicks": 1,
          "midi": 46,
          "name": "A#2",
          "ticks": 10800,
          "time": 43.5484125,
          "velocity": 0.8346456692913385
        },
        {
          "duration": 0.004032260416671818,
          "durationTicks": 1,
          "midi": 35,
          "name": "B1",
          "ticks": 10848,
          "time": 43.741960999999996,
          "velocity": 0.8346456692913385
        },
        {
          "duration": 0.004032260416671818,
          "durationTicks": 1,
          "midi": 42,
          "name": "F#2",
          "ticks": 10848,
          "time": 43.741960999999996,
          "velocity": 0.8346456692913385
        },
        {
          "duration": 0.004032260416671818,
          "durationTicks": 1,
          "midi": 46,
          "name": "A#2",
          "ticks": 10896,
          "time": 43.935509499999995,
          "velocity": 0.8346456692913385
        },
        {
          "duration": 0.004032260416671818,
          "durationTicks": 1,
          "midi": 35,
          "name": "B1",
          "ticks": 10944,
          "time": 44.12905799999999,
          "velocity": 0.8346456692913385
        },
        {
          "duration": 0.004032260416671818,
          "durationTicks": 1,
          "midi": 42,
          "name": "F#2",
          "ticks": 10944,
          "time": 44.12905799999999,
          "velocity": 0.8346456692913385
        },
        {
          "duration": 0.0040322604166647125,
          "durationTicks": 1,
          "midi": 46,
          "name": "A#2",
          "ticks": 10992,
          "time": 44.3226065,
          "velocity": 0.8346456692913385
        },
        {
          "duration": 0.0040322604166647125,
          "durationTicks": 1,
          "midi": 35,
          "name": "B1",
          "ticks": 11040,
          "time": 44.516155,
          "velocity": 0.8346456692913385
        },
        {
          "duration": 0.0040322604166647125,
          "durationTicks": 1,
          "midi": 42,
          "name": "F#2",
          "ticks": 11040,
          "time": 44.516155,
          "velocity": 0.8346456692913385
        },
        {
          "duration": 0.004032260416671818,
          "durationTicks": 1,
          "midi": 46,
          "name": "A#2",
          "ticks": 11088,
          "time": 44.709703499999996,
          "velocity": 0.8346456692913385
        },
        {
          "duration": 0.004032260416671818,
          "durationTicks": 1,
          "midi": 35,
          "name": "B1",
          "ticks": 11136,
          "time": 44.903251999999995,
          "velocity": 0.8346456692913385
        },
        {
          "duration": 0.004032260416671818,
          "durationTicks": 1,
          "midi": 42,
          "name": "F#2",
          "ticks": 11136,
          "time": 44.903251999999995,
          "velocity": 0.8346456692913385
        },
        {
          "duration": 0.004032260416671818,
          "durationTicks": 1,
          "midi": 46,
          "name": "A#2",
          "ticks": 11184,
          "time": 45.09680049999999,
          "velocity": 0.8346456692913385
        },
        {
          "duration": 0.0040322604166647125,
          "durationTicks": 1,
          "midi": 35,
          "name": "B1",
          "ticks": 11232,
          "time": 45.290349,
          "velocity": 0.8346456692913385
        },
        {
          "duration": 0.0040322604166647125,
          "durationTicks": 1,
          "midi": 42,
          "name": "F#2",
          "ticks": 11232,
          "time": 45.290349,
          "velocity": 0.8346456692913385
        },
        {
          "duration": 0.0040322604166647125,
          "durationTicks": 1,
          "midi": 46,
          "name": "A#2",
          "ticks": 11280,
          "time": 45.4838975,
          "velocity": 0.8346456692913385
        },
        {
          "duration": 0.004032260416671818,
          "durationTicks": 1,
          "midi": 35,
          "name": "B1",
          "ticks": 11328,
          "time": 45.677445999999996,
          "velocity": 0.8346456692913385
        },
        {
          "duration": 0.004032260416671818,
          "durationTicks": 1,
          "midi": 42,
          "name": "F#2",
          "ticks": 11328,
          "time": 45.677445999999996,
          "velocity": 0.8346456692913385
        },
        {
          "duration": 0.004032260416671818,
          "durationTicks": 1,
          "midi": 46,
          "name": "A#2",
          "ticks": 11376,
          "time": 45.870994499999995,
          "velocity": 0.8346456692913385
        },
        {
          "duration": 0.004032260416671818,
          "durationTicks": 1,
          "midi": 38,
          "name": "D2",
          "ticks": 11376,
          "time": 45.870994499999995,
          "velocity": 0.6141732283464567
        },
        {
          "duration": 0.004032260416671818,
          "durationTicks": 1,
          "midi": 35,
          "name": "B1",
          "ticks": 11424,
          "time": 46.06454299999999,
          "velocity": 0.8346456692913385
        },
        {
          "duration": 0.004032260416671818,
          "durationTicks": 1,
          "midi": 42,
          "name": "F#2",
          "ticks": 11424,
          "time": 46.06454299999999,
          "velocity": 0.8346456692913385
        },
        {
          "duration": 0.004032260416671818,
          "durationTicks": 1,
          "midi": 38,
          "name": "D2",
          "ticks": 11448,
          "time": 46.161317249999996,
          "velocity": 0.6141732283464567
        },
        {
          "duration": 0.0040322604166647125,
          "durationTicks": 1,
          "midi": 46,
          "name": "A#2",
          "ticks": 11472,
          "time": 46.2580915,
          "velocity": 0.8346456692913385
        },
        {
          "duration": 0.004032260416671818,
          "durationTicks": 1,
          "midi": 38,
          "name": "D2",
          "ticks": 11496,
          "time": 46.354865749999995,
          "velocity": 0.6141732283464567
        },
        {
          "duration": 0.0040322604166647125,
          "durationTicks": 1,
          "midi": 35,
          "name": "B1",
          "ticks": 11520,
          "time": 46.45164,
          "velocity": 0.8346456692913385
        },
        {
          "duration": 0.0040322604166647125,
          "durationTicks": 1,
          "midi": 42,
          "name": "F#2",
          "ticks": 11520,
          "time": 46.45164,
          "velocity": 0.8346456692913385
        },
        {
          "duration": 0.0040322604166647125,
          "durationTicks": 1,
          "midi": 51,
          "name": "D#3",
          "ticks": 11520,
          "time": 46.45164,
          "velocity": 0.9448818897637795
        },
        {
          "duration": 0.004032260416671818,
          "durationTicks": 1,
          "midi": 46,
          "name": "A#2",
          "ticks": 11568,
          "time": 46.645188499999996,
          "velocity": 0.8346456692913385
        },
        {
          "duration": 0.004032260416671818,
          "durationTicks": 1,
          "midi": 35,
          "name": "B1",
          "ticks": 11616,
          "time": 46.838736999999995,
          "velocity": 0.8346456692913385
        },
        {
          "duration": 0.004032260416671818,
          "durationTicks": 1,
          "midi": 42,
          "name": "F#2",
          "ticks": 11616,
          "time": 46.838736999999995,
          "velocity": 0.8346456692913385
        },
        {
          "duration": 0.004032260416671818,
          "durationTicks": 1,
          "midi": 46,
          "name": "A#2",
          "ticks": 11664,
          "time": 47.03228549999999,
          "velocity": 0.8346456692913385
        },
        {
          "duration": 0.0040322604166647125,
          "durationTicks": 1,
          "midi": 35,
          "name": "B1",
          "ticks": 11712,
          "time": 47.225834,
          "velocity": 0.8346456692913385
        },
        {
          "duration": 0.0040322604166647125,
          "durationTicks": 1,
          "midi": 42,
          "name": "F#2",
          "ticks": 11712,
          "time": 47.225834,
          "velocity": 0.8346456692913385
        },
        {
          "duration": 0.0040322604166647125,
          "durationTicks": 1,
          "midi": 46,
          "name": "A#2",
          "ticks": 11760,
          "time": 47.4193825,
          "velocity": 0.8346456692913385
        },
        {
          "duration": 0.004032260416671818,
          "durationTicks": 1,
          "midi": 35,
          "name": "B1",
          "ticks": 11808,
          "time": 47.612930999999996,
          "velocity": 0.8346456692913385
        },
        {
          "duration": 0.004032260416671818,
          "durationTicks": 1,
          "midi": 42,
          "name": "F#2",
          "ticks": 11808,
          "time": 47.612930999999996,
          "velocity": 0.8346456692913385
        },
        {
          "duration": 0.004032260416671818,
          "durationTicks": 1,
          "midi": 46,
          "name": "A#2",
          "ticks": 11856,
          "time": 47.806479499999995,
          "velocity": 0.8346456692913385
        },
        {
          "duration": 0.004032260416671818,
          "durationTicks": 1,
          "midi": 35,
          "name": "B1",
          "ticks": 11904,
          "time": 48.00002799999999,
          "velocity": 0.8346456692913385
        },
        {
          "duration": 0.004032260416671818,
          "durationTicks": 1,
          "midi": 42,
          "name": "F#2",
          "ticks": 11904,
          "time": 48.00002799999999,
          "velocity": 0.8346456692913385
        },
        {
          "duration": 0.0040322604166647125,
          "durationTicks": 1,
          "midi": 46,
          "name": "A#2",
          "ticks": 11952,
          "time": 48.1935765,
          "velocity": 0.8346456692913385
        },
        {
          "duration": 0.0040322604166647125,
          "durationTicks": 1,
          "midi": 35,
          "name": "B1",
          "ticks": 12000,
          "time": 48.387125,
          "velocity": 0.8346456692913385
        },
        {
          "duration": 0.0040322604166647125,
          "durationTicks": 1,
          "midi": 42,
          "name": "F#2",
          "ticks": 12000,
          "time": 48.387125,
          "velocity": 0.8346456692913385
        },
        {
          "duration": 0.004032260416671818,
          "durationTicks": 1,
          "midi": 46,
          "name": "A#2",
          "ticks": 12048,
          "time": 48.580673499999996,
          "velocity": 0.8346456692913385
        },
        {
          "duration": 0.004032260416671818,
          "durationTicks": 1,
          "midi": 35,
          "name": "B1",
          "ticks": 12096,
          "time": 48.774221999999995,
          "velocity": 0.8346456692913385
        },
        {
          "duration": 0.004032260416671818,
          "durationTicks": 1,
          "midi": 42,
          "name": "F#2",
          "ticks": 12096,
          "time": 48.774221999999995,
          "velocity": 0.8346456692913385
        },
        {
          "duration": 0.004032260416671818,
          "durationTicks": 1,
          "midi": 46,
          "name": "A#2",
          "ticks": 12144,
          "time": 48.96777049999999,
          "velocity": 0.8346456692913385
        },
        {
          "duration": 0.004032260416671818,
          "durationTicks": 1,
          "midi": 38,
          "name": "D2",
          "ticks": 12144,
          "time": 48.96777049999999,
          "velocity": 0.6141732283464567
        },
        {
          "duration": 0.0040322604166647125,
          "durationTicks": 1,
          "midi": 35,
          "name": "B1",
          "ticks": 12192,
          "time": 49.161319,
          "velocity": 0.8346456692913385
        },
        {
          "duration": 0.0040322604166647125,
          "durationTicks": 1,
          "midi": 42,
          "name": "F#2",
          "ticks": 12192,
          "time": 49.161319,
          "velocity": 0.8346456692913385
        },
        {
          "duration": 0.004032260416671818,
          "durationTicks": 1,
          "midi": 38,
          "name": "D2",
          "ticks": 12216,
          "time": 49.258093249999995,
          "velocity": 0.6141732283464567
        },
        {
          "duration": 0.0040322604166647125,
          "durationTicks": 1,
          "midi": 46,
          "name": "A#2",
          "ticks": 12240,
          "time": 49.3548675,
          "velocity": 0.8346456692913385
        },
        {
          "duration": 0.004032260416671818,
          "durationTicks": 1,
          "midi": 38,
          "name": "D2",
          "ticks": 12264,
          "time": 49.45164174999999,
          "velocity": 0.6141732283464567
        },
        {
          "duration": 0.0040322604166647125,
          "durationTicks": 1,
          "midi": 35,
          "name": "B1",
          "ticks": 12288,
          "time": 49.548415999999996,
          "velocity": 0.8346456692913385
        },
        {
          "duration": 0.0040322604166647125,
          "durationTicks": 1,
          "midi": 42,
          "name": "F#2",
          "ticks": 12288,
          "time": 49.548415999999996,
          "velocity": 0.8346456692913385
        },
        {
          "duration": 0.0040322604166647125,
          "durationTicks": 1,
          "midi": 51,
          "name": "D#3",
          "ticks": 12288,
          "time": 49.548415999999996,
          "velocity": 0.9448818897637795
        },
        {
          "duration": 0.0040322604166647125,
          "durationTicks": 1,
          "midi": 46,
          "name": "A#2",
          "ticks": 12336,
          "time": 49.741964499999995,
          "velocity": 0.8346456692913385
        },
        {
          "duration": 0.0040322604166647125,
          "durationTicks": 1,
          "midi": 35,
          "name": "B1",
          "ticks": 12384,
          "time": 49.93551299999999,
          "velocity": 0.8346456692913385
        },
        {
          "duration": 0.0040322604166647125,
          "durationTicks": 1,
          "midi": 42,
          "name": "F#2",
          "ticks": 12384,
          "time": 49.93551299999999,
          "velocity": 0.8346456692913385
        },
        {
          "duration": 0.004032260416657607,
          "durationTicks": 1,
          "midi": 46,
          "name": "A#2",
          "ticks": 12432,
          "time": 50.1290615,
          "velocity": 0.8346456692913385
        },
        {
          "duration": 0.0040322604166647125,
          "durationTicks": 1,
          "midi": 35,
          "name": "B1",
          "ticks": 12480,
          "time": 50.32261,
          "velocity": 0.8346456692913385
        },
        {
          "duration": 0.0040322604166647125,
          "durationTicks": 1,
          "midi": 42,
          "name": "F#2",
          "ticks": 12480,
          "time": 50.32261,
          "velocity": 0.8346456692913385
        },
        {
          "duration": 0.0040322604166647125,
          "durationTicks": 1,
          "midi": 46,
          "name": "A#2",
          "ticks": 12528,
          "time": 50.516158499999996,
          "velocity": 0.8346456692913385
        },
        {
          "duration": 0.0040322604166647125,
          "durationTicks": 1,
          "midi": 35,
          "name": "B1",
          "ticks": 12576,
          "time": 50.709706999999995,
          "velocity": 0.8346456692913385
        },
        {
          "duration": 0.0040322604166647125,
          "durationTicks": 1,
          "midi": 42,
          "name": "F#2",
          "ticks": 12576,
          "time": 50.709706999999995,
          "velocity": 0.8346456692913385
        },
        {
          "duration": 0.0040322604166647125,
          "durationTicks": 1,
          "midi": 46,
          "name": "A#2",
          "ticks": 12624,
          "time": 50.90325549999999,
          "velocity": 0.8346456692913385
        },
        {
          "duration": 0.004032260416657607,
          "durationTicks": 1,
          "midi": 35,
          "name": "B1",
          "ticks": 12672,
          "time": 51.096804,
          "velocity": 0.8346456692913385
        },
        {
          "duration": 0.004032260416657607,
          "durationTicks": 1,
          "midi": 42,
          "name": "F#2",
          "ticks": 12672,
          "time": 51.096804,
          "velocity": 0.8346456692913385
        },
        {
          "duration": 0.0040322604166647125,
          "durationTicks": 1,
          "midi": 46,
          "name": "A#2",
          "ticks": 12720,
          "time": 51.2903525,
          "velocity": 0.8346456692913385
        },
        {
          "duration": 0.0040322604166647125,
          "durationTicks": 1,
          "midi": 38,
          "name": "D2",
          "ticks": 12720,
          "time": 51.2903525,
          "velocity": 0.8346456692913385
        },
        {
          "duration": 0.0040322604166647125,
          "durationTicks": 1,
          "midi": 38,
          "name": "D2",
          "ticks": 12744,
          "time": 51.38712674999999,
          "velocity": 0.8346456692913385
        },
        {
          "duration": 0.0040322604166647125,
          "durationTicks": 1,
          "midi": 35,
          "name": "B1",
          "ticks": 12768,
          "time": 51.483900999999996,
          "velocity": 0.8346456692913385
        },
        {
          "duration": 0.0040322604166647125,
          "durationTicks": 1,
          "midi": 42,
          "name": "F#2",
          "ticks": 12768,
          "time": 51.483900999999996,
          "velocity": 0.8346456692913385
        },
        {
          "duration": 0.0040322604166647125,
          "durationTicks": 1,
          "midi": 38,
          "name": "D2",
          "ticks": 12768,
          "time": 51.483900999999996,
          "velocity": 0.8346456692913385
        },
        {
          "duration": 0.0040322604166647125,
          "durationTicks": 1,
          "midi": 46,
          "name": "A#2",
          "ticks": 12816,
          "time": 51.677449499999994,
          "velocity": 0.8346456692913385
        },
        {
          "duration": 0.0040322604166647125,
          "durationTicks": 1,
          "midi": 38,
          "name": "D2",
          "ticks": 12816,
          "time": 51.677449499999994,
          "velocity": 0.8346456692913385
        },
        {
          "duration": 0.0040322604166647125,
          "durationTicks": 1,
          "midi": 38,
          "name": "D2",
          "ticks": 12840,
          "time": 51.77422375,
          "velocity": 0.8346456692913385
        },
        {
          "duration": 0.0040322604166647125,
          "durationTicks": 1,
          "midi": 35,
          "name": "B1",
          "ticks": 12864,
          "time": 51.87099799999999,
          "velocity": 0.8346456692913385
        },
        {
          "duration": 0.0040322604166647125,
          "durationTicks": 1,
          "midi": 42,
          "name": "F#2",
          "ticks": 12864,
          "time": 51.87099799999999,
          "velocity": 0.8346456692913385
        },
        {
          "duration": 0.0040322604166647125,
          "durationTicks": 1,
          "midi": 38,
          "name": "D2",
          "ticks": 12888,
          "time": 51.967772249999996,
          "velocity": 0.8346456692913385
        },
        {
          "duration": 0.004032260416657607,
          "durationTicks": 1,
          "midi": 46,
          "name": "A#2",
          "ticks": 12912,
          "time": 52.0645465,
          "velocity": 0.8346456692913385
        },
        {
          "duration": 0.004032260416657607,
          "durationTicks": 1,
          "midi": 38,
          "name": "D2",
          "ticks": 12912,
          "time": 52.0645465,
          "velocity": 0.6141732283464567
        },
        {
          "duration": 0.004032260416657607,
          "durationTicks": 1,
          "midi": 38,
          "name": "D2",
          "ticks": 12912,
          "time": 52.0645465,
          "velocity": 0.8346456692913385
        },
        {
          "duration": 0.0040322604166647125,
          "durationTicks": 1,
          "midi": 35,
          "name": "B1",
          "ticks": 12960,
          "time": 52.258095,
          "velocity": 0.8346456692913385
        },
        {
          "duration": 0.0040322604166647125,
          "durationTicks": 1,
          "midi": 42,
          "name": "F#2",
          "ticks": 12960,
          "time": 52.258095,
          "velocity": 0.8346456692913385
        },
        {
          "duration": 0.0040322604166647125,
          "durationTicks": 1,
          "midi": 38,
          "name": "D2",
          "ticks": 12960,
          "time": 52.258095,
          "velocity": 0.8346456692913385
        },
        {
          "duration": 0.0040322604166647125,
          "durationTicks": 1,
          "midi": 38,
          "name": "D2",
          "ticks": 12984,
          "time": 52.35486924999999,
          "velocity": 0.6141732283464567
        },
        {
          "duration": 0.0040322604166647125,
          "durationTicks": 1,
          "midi": 46,
          "name": "A#2",
          "ticks": 13008,
          "time": 52.451643499999996,
          "velocity": 0.8346456692913385
        },
        {
          "duration": 0.0040322604166647125,
          "durationTicks": 1,
          "midi": 38,
          "name": "D2",
          "ticks": 13008,
          "time": 52.451643499999996,
          "velocity": 0.8346456692913385
        },
        {
          "duration": 0.004032260416657607,
          "durationTicks": 1,
          "midi": 38,
          "name": "D2",
          "ticks": 13032,
          "time": 52.54841775,
          "velocity": 0.6141732283464567
        },
        {
          "duration": 0.0040322604166647125,
          "durationTicks": 1,
          "midi": 35,
          "name": "B1",
          "ticks": 13056,
          "time": 52.645191999999994,
          "velocity": 0.8346456692913385
        },
        {
          "duration": 0.0040322604166647125,
          "durationTicks": 1,
          "midi": 57,
          "name": "A3",
          "ticks": 13056,
          "time": 52.645191999999994,
          "velocity": 0.8346456692913385
        },
        {
          "duration": 0.0040322604166647125,
          "durationTicks": 1,
          "midi": 35,
          "name": "B1",
          "ticks": 13824,
          "time": 55.74196799999999,
          "velocity": 0.8346456692913385
        },
        {
          "duration": 0.0040322604166647125,
          "durationTicks": 1,
          "midi": 57,
          "name": "A3",
          "ticks": 13824,
          "time": 55.74196799999999,
          "velocity": 0.8346456692913385
        },
        {
          "duration": 0.0040322604166647125,
          "durationTicks": 1,
          "midi": 35,
          "name": "B1",
          "ticks": 14208,
          "time": 57.290355999999996,
          "velocity": 0.8346456692913385
        },
        {
          "duration": 0.0040322604166647125,
          "durationTicks": 1,
          "midi": 57,
          "name": "A3",
          "ticks": 14208,
          "time": 57.290355999999996,
          "velocity": 0.8346456692913385
        },
        {
          "duration": 0.004032260416657607,
          "durationTicks": 1,
          "midi": 35,
          "name": "B1",
          "ticks": 14592,
          "time": 58.838744,
          "velocity": 0.8346456692913385
        },
        {
          "duration": 0.004032260416657607,
          "durationTicks": 1,
          "midi": 57,
          "name": "A3",
          "ticks": 14592,
          "time": 58.838744,
          "velocity": 0.8346456692913385
        },
        {
          "duration": 0.0040322604166647125,
          "durationTicks": 1,
          "midi": 35,
          "name": "B1",
          "ticks": 14736,
          "time": 59.419389499999994,
          "velocity": 0.3937007874015748
        },
        {
          "duration": 0.0040322604166647125,
          "durationTicks": 1,
          "midi": 42,
          "name": "F#2",
          "ticks": 14736,
          "time": 59.419389499999994,
          "velocity": 0.3937007874015748
        },
        {
          "duration": 0.0040322604166647125,
          "durationTicks": 1,
          "midi": 35,
          "name": "B1",
          "ticks": 14760,
          "time": 59.51616375,
          "velocity": 0.5039370078740157
        },
        {
          "duration": 0.0040322604166647125,
          "durationTicks": 1,
          "midi": 42,
          "name": "F#2",
          "ticks": 14760,
          "time": 59.51616375,
          "velocity": 0.5039370078740157
        },
        {
          "duration": 0.0040322604166647125,
          "durationTicks": 1,
          "midi": 35,
          "name": "B1",
          "ticks": 14784,
          "time": 59.61293799999999,
          "velocity": 0.8346456692913385
        },
        {
          "duration": 0.0040322604166647125,
          "durationTicks": 1,
          "midi": 57,
          "name": "A3",
          "ticks": 14784,
          "time": 59.61293799999999,
          "velocity": 0.8346456692913385
        },
        {
          "duration": 0.0040322604166647125,
          "durationTicks": 1,
          "midi": 57,
          "name": "A3",
          "ticks": 14976,
          "time": 60.387131999999994,
          "velocity": 0.8346456692913385
        },
        {
          "duration": 0.0040322604166647125,
          "durationTicks": 1,
          "midi": 35,
          "name": "B1",
          "ticks": 14976,
          "time": 60.387131999999994,
          "velocity": 0.8346456692913385
        },
        {
          "duration": 0.0040322604166647125,
          "durationTicks": 1,
          "midi": 42,
          "name": "F#2",
          "ticks": 15120,
          "time": 60.9677775,
          "velocity": 0.3937007874015748
        },
        {
          "duration": 0.0040322604166647125,
          "durationTicks": 1,
          "midi": 35,
          "name": "B1",
          "ticks": 15120,
          "time": 60.9677775,
          "velocity": 0.3937007874015748
        },
        {
          "duration": 0.0040322604166647125,
          "durationTicks": 1,
          "midi": 42,
          "name": "F#2",
          "ticks": 15144,
          "time": 61.06455174999999,
          "velocity": 0.5039370078740157
        },
        {
          "duration": 0.0040322604166647125,
          "durationTicks": 1,
          "midi": 35,
          "name": "B1",
          "ticks": 15144,
          "time": 61.06455174999999,
          "velocity": 0.5039370078740157
        },
        {
          "duration": 0.0040322604166647125,
          "durationTicks": 1,
          "midi": 57,
          "name": "A3",
          "ticks": 15168,
          "time": 61.161325999999995,
          "velocity": 0.8346456692913385
        },
        {
          "duration": 0.0040322604166647125,
          "durationTicks": 1,
          "midi": 35,
          "name": "B1",
          "ticks": 15168,
          "time": 61.161325999999995,
          "velocity": 0.8346456692913385
        },
        {
          "duration": 0.0040322604166647125,
          "durationTicks": 1,
          "midi": 57,
          "name": "A3",
          "ticks": 15360,
          "time": 61.93552,
          "velocity": 0.8346456692913385
        },
        {
          "duration": 0.0040322604166647125,
          "durationTicks": 1,
          "midi": 35,
          "name": "B1",
          "ticks": 15360,
          "time": 61.93552,
          "velocity": 0.8346456692913385
        },
        {
          "duration": 0.0040322604166647125,
          "durationTicks": 1,
          "midi": 42,
          "name": "F#2",
          "ticks": 15504,
          "time": 62.51616549999999,
          "velocity": 0.3937007874015748
        },
        {
          "duration": 0.0040322604166647125,
          "durationTicks": 1,
          "midi": 35,
          "name": "B1",
          "ticks": 15504,
          "time": 62.51616549999999,
          "velocity": 0.3937007874015748
        },
        {
          "duration": 0.0040322604166647125,
          "durationTicks": 1,
          "midi": 42,
          "name": "F#2",
          "ticks": 15528,
          "time": 62.612939749999995,
          "velocity": 0.5039370078740157
        },
        {
          "duration": 0.0040322604166647125,
          "durationTicks": 1,
          "midi": 35,
          "name": "B1",
          "ticks": 15528,
          "time": 62.612939749999995,
          "velocity": 0.5039370078740157
        },
        {
          "duration": 0.004032260416657607,
          "durationTicks": 1,
          "midi": 57,
          "name": "A3",
          "ticks": 15552,
          "time": 62.709714,
          "velocity": 0.8346456692913385
        },
        {
          "duration": 0.004032260416657607,
          "durationTicks": 1,
          "midi": 35,
          "name": "B1",
          "ticks": 15552,
          "time": 62.709714,
          "velocity": 0.8346456692913385
        },
        {
          "duration": 0.0040322604166647125,
          "durationTicks": 1,
          "midi": 35,
          "name": "B1",
          "ticks": 15744,
          "time": 63.48390799999999,
          "velocity": 0.8346456692913385
        },
        {
          "duration": 0.0040322604166647125,
          "durationTicks": 1,
          "midi": 57,
          "name": "A3",
          "ticks": 15744,
          "time": 63.48390799999999,
          "velocity": 0.8346456692913385
        },
        {
          "duration": 0.0040322604166647125,
          "durationTicks": 1,
          "midi": 35,
          "name": "B1",
          "ticks": 15888,
          "time": 64.06455349999999,
          "velocity": 0.3937007874015748
        },
        {
          "duration": 0.0040322604166647125,
          "durationTicks": 1,
          "midi": 42,
          "name": "F#2",
          "ticks": 15888,
          "time": 64.06455349999999,
          "velocity": 0.3937007874015748
        },
        {
          "duration": 0.0040322604166647125,
          "durationTicks": 1,
          "midi": 35,
          "name": "B1",
          "ticks": 15912,
          "time": 64.16132775,
          "velocity": 0.5039370078740157
        },
        {
          "duration": 0.0040322604166647125,
          "durationTicks": 1,
          "midi": 42,
          "name": "F#2",
          "ticks": 15912,
          "time": 64.16132775,
          "velocity": 0.5039370078740157
        },
        {
          "duration": 0.0040322604166647125,
          "durationTicks": 1,
          "midi": 35,
          "name": "B1",
          "ticks": 15936,
          "time": 64.258102,
          "velocity": 0.8346456692913385
        },
        {
          "duration": 0.0040322604166647125,
          "durationTicks": 1,
          "midi": 57,
          "name": "A3",
          "ticks": 15936,
          "time": 64.258102,
          "velocity": 0.8346456692913385
        },
        {
          "duration": 0.0040322604166647125,
          "durationTicks": 1,
          "midi": 38,
          "name": "D2",
          "ticks": 16032,
          "time": 64.64519899999999,
          "velocity": 0.7244094488188977
        },
        {
          "duration": 0.0040322604166647125,
          "durationTicks": 1,
          "midi": 38,
          "name": "D2",
          "ticks": 16032,
          "time": 64.64519899999999,
          "velocity": 0.7244094488188977
        },
        {
          "duration": 0.004032260416650502,
          "durationTicks": 1,
          "midi": 38,
          "name": "D2",
          "ticks": 16056,
          "time": 64.74197325,
          "velocity": 0.7244094488188977
        },
        {
          "duration": 0.004032260416650502,
          "durationTicks": 1,
          "midi": 38,
          "name": "D2",
          "ticks": 16056,
          "time": 64.74197325,
          "velocity": 0.7244094488188977
        },
        {
          "duration": 0.0040322604166647125,
          "durationTicks": 1,
          "midi": 38,
          "name": "D2",
          "ticks": 16080,
          "time": 64.8387475,
          "velocity": 0.7244094488188977
        },
        {
          "duration": 0.0040322604166647125,
          "durationTicks": 1,
          "midi": 38,
          "name": "D2",
          "ticks": 16104,
          "time": 64.93552174999999,
          "velocity": 0.7244094488188977
        },
        {
          "duration": 0.0040322604166647125,
          "durationTicks": 1,
          "midi": 38,
          "name": "D2",
          "ticks": 16104,
          "time": 64.93552174999999,
          "velocity": 0.7244094488188977
        },
        {
          "duration": 0.0040322604166647125,
          "durationTicks": 1,
          "midi": 35,
          "name": "B1",
          "ticks": 16128,
          "time": 65.03229599999999,
          "velocity": 0.8346456692913385
        },
        {
          "duration": 0.0040322604166647125,
          "durationTicks": 1,
          "midi": 42,
          "name": "F#2",
          "ticks": 16128,
          "time": 65.03229599999999,
          "velocity": 0.8346456692913385
        },
        {
          "duration": 0.0040322604166647125,
          "durationTicks": 1,
          "midi": 57,
          "name": "A3",
          "ticks": 16128,
          "time": 65.03229599999999,
          "velocity": 0.9448818897637795
        },
        {
          "duration": 0.0040322604166647125,
          "durationTicks": 1,
          "midi": 46,
          "name": "A#2",
          "ticks": 16176,
          "time": 65.2258445,
          "velocity": 0.8346456692913385
        },
        {
          "duration": 0.0040322604166647125,
          "durationTicks": 1,
          "midi": 35,
          "name": "B1",
          "ticks": 16224,
          "time": 65.419393,
          "velocity": 0.8346456692913385
        },
        {
          "duration": 0.0040322604166647125,
          "durationTicks": 1,
          "midi": 42,
          "name": "F#2",
          "ticks": 16224,
          "time": 65.419393,
          "velocity": 0.8346456692913385
        },
        {
          "duration": 0.0040322604166647125,
          "durationTicks": 1,
          "midi": 46,
          "name": "A#2",
          "ticks": 16272,
          "time": 65.61294149999999,
          "velocity": 0.8346456692913385
        },
        {
          "duration": 0.0040322604166647125,
          "durationTicks": 1,
          "midi": 35,
          "name": "B1",
          "ticks": 16320,
          "time": 65.80649,
          "velocity": 0.8346456692913385
        },
        {
          "duration": 0.0040322604166647125,
          "durationTicks": 1,
          "midi": 42,
          "name": "F#2",
          "ticks": 16320,
          "time": 65.80649,
          "velocity": 0.8346456692913385
        },
        {
          "duration": 0.0040322604166647125,
          "durationTicks": 1,
          "midi": 57,
          "name": "A3",
          "ticks": 16320,
          "time": 65.80649,
          "velocity": 0.9448818897637795
        },
        {
          "duration": 0.0040322604166647125,
          "durationTicks": 1,
          "midi": 46,
          "name": "A#2",
          "ticks": 16368,
          "time": 66.00003849999999,
          "velocity": 0.8346456692913385
        },
        {
          "duration": 0.0040322604166647125,
          "durationTicks": 1,
          "midi": 35,
          "name": "B1",
          "ticks": 16416,
          "time": 66.193587,
          "velocity": 0.8346456692913385
        },
        {
          "duration": 0.0040322604166647125,
          "durationTicks": 1,
          "midi": 42,
          "name": "F#2",
          "ticks": 16416,
          "time": 66.193587,
          "velocity": 0.8346456692913385
        },
        {
          "duration": 0.0040322604166647125,
          "durationTicks": 1,
          "midi": 46,
          "name": "A#2",
          "ticks": 16464,
          "time": 66.3871355,
          "velocity": 0.8346456692913385
        },
        {
          "duration": 0.0040322604166647125,
          "durationTicks": 1,
          "midi": 35,
          "name": "B1",
          "ticks": 16512,
          "time": 66.58068399999999,
          "velocity": 0.8346456692913385
        },
        {
          "duration": 0.0040322604166647125,
          "durationTicks": 1,
          "midi": 42,
          "name": "F#2",
          "ticks": 16512,
          "time": 66.58068399999999,
          "velocity": 0.8346456692913385
        },
        {
          "duration": 0.0040322604166647125,
          "durationTicks": 1,
          "midi": 57,
          "name": "A3",
          "ticks": 16512,
          "time": 66.58068399999999,
          "velocity": 0.9448818897637795
        },
        {
          "duration": 0.0040322604166647125,
          "durationTicks": 1,
          "midi": 46,
          "name": "A#2",
          "ticks": 16560,
          "time": 66.7742325,
          "velocity": 0.8346456692913385
        },
        {
          "duration": 0.0040322604166647125,
          "durationTicks": 1,
          "midi": 35,
          "name": "B1",
          "ticks": 16608,
          "time": 66.96778099999999,
          "velocity": 0.8346456692913385
        },
        {
          "duration": 0.0040322604166647125,
          "durationTicks": 1,
          "midi": 42,
          "name": "F#2",
          "ticks": 16608,
          "time": 66.96778099999999,
          "velocity": 0.8346456692913385
        },
        {
          "duration": 0.0040322604166647125,
          "durationTicks": 1,
          "midi": 46,
          "name": "A#2",
          "ticks": 16656,
          "time": 67.1613295,
          "velocity": 0.8346456692913385
        },
        {
          "duration": 0.0040322604166647125,
          "durationTicks": 1,
          "midi": 35,
          "name": "B1",
          "ticks": 16704,
          "time": 67.354878,
          "velocity": 0.8346456692913385
        },
        {
          "duration": 0.0040322604166647125,
          "durationTicks": 1,
          "midi": 42,
          "name": "F#2",
          "ticks": 16704,
          "time": 67.354878,
          "velocity": 0.8346456692913385
        },
        {
          "duration": 0.0040322604166647125,
          "durationTicks": 1,
          "midi": 57,
          "name": "A3",
          "ticks": 16704,
          "time": 67.354878,
          "velocity": 0.9448818897637795
        },
        {
          "duration": 0.0040322604166647125,
          "durationTicks": 1,
          "midi": 46,
          "name": "A#2",
          "ticks": 16752,
          "time": 67.54842649999999,
          "velocity": 0.8346456692913385
        },
        {
          "duration": 0.0040322604166647125,
          "durationTicks": 1,
          "midi": 38,
          "name": "D2",
          "ticks": 16752,
          "time": 67.54842649999999,
          "velocity": 0.6141732283464567
        },
        {
          "duration": 0.0040322604166647125,
          "durationTicks": 1,
          "midi": 35,
          "name": "B1",
          "ticks": 16800,
          "time": 67.741975,
          "velocity": 0.8346456692913385
        },
        {
          "duration": 0.0040322604166647125,
          "durationTicks": 1,
          "midi": 42,
          "name": "F#2",
          "ticks": 16800,
          "time": 67.741975,
          "velocity": 0.8346456692913385
        },
        {
          "duration": 0.0040322604166647125,
          "durationTicks": 1,
          "midi": 38,
          "name": "D2",
          "ticks": 16824,
          "time": 67.83874924999999,
          "velocity": 0.6141732283464567
        },
        {
          "duration": 0.0040322604166647125,
          "durationTicks": 1,
          "midi": 46,
          "name": "A#2",
          "ticks": 16848,
          "time": 67.93552349999999,
          "velocity": 0.8346456692913385
        },
        {
          "duration": 0.0040322604166647125,
          "durationTicks": 1,
          "midi": 38,
          "name": "D2",
          "ticks": 16872,
          "time": 68.03229775,
          "velocity": 0.6141732283464567
        },
        {
          "duration": 0.0040322604166647125,
          "durationTicks": 1,
          "midi": 35,
          "name": "B1",
          "ticks": 16896,
          "time": 68.129072,
          "velocity": 0.8346456692913385
        },
        {
          "duration": 0.0040322604166647125,
          "durationTicks": 1,
          "midi": 42,
          "name": "F#2",
          "ticks": 16896,
          "time": 68.129072,
          "velocity": 0.8346456692913385
        },
        {
          "duration": 0.0040322604166647125,
          "durationTicks": 1,
          "midi": 57,
          "name": "A3",
          "ticks": 16896,
          "time": 68.129072,
          "velocity": 0.9448818897637795
        },
        {
          "duration": 0.0040322604166647125,
          "durationTicks": 1,
          "midi": 46,
          "name": "A#2",
          "ticks": 16944,
          "time": 68.3226205,
          "velocity": 0.8346456692913385
        },
        {
          "duration": 0.0040322604166647125,
          "durationTicks": 1,
          "midi": 35,
          "name": "B1",
          "ticks": 16992,
          "time": 68.51616899999999,
          "velocity": 0.8346456692913385
        },
        {
          "duration": 0.0040322604166647125,
          "durationTicks": 1,
          "midi": 42,
          "name": "F#2",
          "ticks": 16992,
          "time": 68.51616899999999,
          "velocity": 0.8346456692913385
        },
        {
          "duration": 0.0040322604166647125,
          "durationTicks": 1,
          "midi": 46,
          "name": "A#2",
          "ticks": 17040,
          "time": 68.7097175,
          "velocity": 0.8346456692913385
        },
        {
          "duration": 0.0040322604166647125,
          "durationTicks": 1,
          "midi": 35,
          "name": "B1",
          "ticks": 17088,
          "time": 68.90326599999999,
          "velocity": 0.8346456692913385
        },
        {
          "duration": 0.0040322604166647125,
          "durationTicks": 1,
          "midi": 42,
          "name": "F#2",
          "ticks": 17088,
          "time": 68.90326599999999,
          "velocity": 0.8346456692913385
        },
        {
          "duration": 0.0040322604166647125,
          "durationTicks": 1,
          "midi": 57,
          "name": "A3",
          "ticks": 17088,
          "time": 68.90326599999999,
          "velocity": 0.9448818897637795
        },
        {
          "duration": 0.0040322604166647125,
          "durationTicks": 1,
          "midi": 46,
          "name": "A#2",
          "ticks": 17136,
          "time": 69.0968145,
          "velocity": 0.8346456692913385
        },
        {
          "duration": 0.0040322604166647125,
          "durationTicks": 1,
          "midi": 35,
          "name": "B1",
          "ticks": 17184,
          "time": 69.290363,
          "velocity": 0.8346456692913385
        },
        {
          "duration": 0.0040322604166647125,
          "durationTicks": 1,
          "midi": 42,
          "name": "F#2",
          "ticks": 17184,
          "time": 69.290363,
          "velocity": 0.8346456692913385
        },
        {
          "duration": 0.0040322604166647125,
          "durationTicks": 1,
          "midi": 46,
          "name": "A#2",
          "ticks": 17232,
          "time": 69.48391149999999,
          "velocity": 0.8346456692913385
        },
        {
          "duration": 0.0040322604166647125,
          "durationTicks": 1,
          "midi": 35,
          "name": "B1",
          "ticks": 17280,
          "time": 69.67746,
          "velocity": 0.8346456692913385
        },
        {
          "duration": 0.0040322604166647125,
          "durationTicks": 1,
          "midi": 42,
          "name": "F#2",
          "ticks": 17280,
          "time": 69.67746,
          "velocity": 0.8346456692913385
        },
        {
          "duration": 0.0040322604166647125,
          "durationTicks": 1,
          "midi": 57,
          "name": "A3",
          "ticks": 17280,
          "time": 69.67746,
          "velocity": 0.9448818897637795
        },
        {
          "duration": 0.0040322604166647125,
          "durationTicks": 1,
          "midi": 46,
          "name": "A#2",
          "ticks": 17328,
          "time": 69.87100849999999,
          "velocity": 0.8346456692913385
        },
        {
          "duration": 0.0040322604166647125,
          "durationTicks": 1,
          "midi": 38,
          "name": "D2",
          "ticks": 17328,
          "time": 69.87100849999999,
          "velocity": 0.8346456692913385
        },
        {
          "duration": 0.0040322604166647125,
          "durationTicks": 1,
          "midi": 38,
          "name": "D2",
          "ticks": 17352,
          "time": 69.96778275,
          "velocity": 0.8346456692913385
        },
        {
          "duration": 0.0040322604166647125,
          "durationTicks": 1,
          "midi": 35,
          "name": "B1",
          "ticks": 17376,
          "time": 70.064557,
          "velocity": 0.8346456692913385
        },
        {
          "duration": 0.0040322604166647125,
          "durationTicks": 1,
          "midi": 42,
          "name": "F#2",
          "ticks": 17376,
          "time": 70.064557,
          "velocity": 0.8346456692913385
        },
        {
          "duration": 0.0040322604166647125,
          "durationTicks": 1,
          "midi": 38,
          "name": "D2",
          "ticks": 17376,
          "time": 70.064557,
          "velocity": 0.8346456692913385
        },
        {
          "duration": 0.0040322604166647125,
          "durationTicks": 1,
          "midi": 46,
          "name": "A#2",
          "ticks": 17424,
          "time": 70.2581055,
          "velocity": 0.8346456692913385
        },
        {
          "duration": 0.0040322604166647125,
          "durationTicks": 1,
          "midi": 38,
          "name": "D2",
          "ticks": 17424,
          "time": 70.2581055,
          "velocity": 0.8346456692913385
        },
        {
          "duration": 0.0040322604166647125,
          "durationTicks": 1,
          "midi": 38,
          "name": "D2",
          "ticks": 17448,
          "time": 70.35487975,
          "velocity": 0.8346456692913385
        },
        {
          "duration": 0.0040322604166647125,
          "durationTicks": 1,
          "midi": 35,
          "name": "B1",
          "ticks": 17472,
          "time": 70.45165399999999,
          "velocity": 0.8346456692913385
        },
        {
          "duration": 0.0040322604166647125,
          "durationTicks": 1,
          "midi": 38,
          "name": "D2",
          "ticks": 17472,
          "time": 70.45165399999999,
          "velocity": 0.9448818897637795
        },
        {
          "duration": 0.0040322604166647125,
          "durationTicks": 1,
          "midi": 51,
          "name": "D#3",
          "ticks": 17472,
          "time": 70.45165399999999,
          "velocity": 0.9448818897637795
        },
        {
          "duration": 0.0040322604166647125,
          "durationTicks": 1,
          "midi": 46,
          "name": "A#2",
          "ticks": 17520,
          "time": 70.6452025,
          "velocity": 0.8346456692913385
        },
        {
          "duration": 0.0040322604166647125,
          "durationTicks": 1,
          "midi": 38,
          "name": "D2",
          "ticks": 17544,
          "time": 70.74197674999999,
          "velocity": 0.9448818897637795
        },
        {
          "duration": 0.0040322604166647125,
          "durationTicks": 1,
          "midi": 38,
          "name": "D2",
          "ticks": 17544,
          "time": 70.74197674999999,
          "velocity": 0.9448818897637795
        },
        {
          "duration": 0.0040322604166647125,
          "durationTicks": 1,
          "midi": 51,
          "name": "D#3",
          "ticks": 17544,
          "time": 70.74197674999999,
          "velocity": 0.9448818897637795
        },
        {
          "duration": 0.0040322604166647125,
          "durationTicks": 1,
          "midi": 35,
          "name": "B1",
          "ticks": 17568,
          "time": 70.83875099999999,
          "velocity": 0.8346456692913385
        },
        {
          "duration": 0.0040322604166647125,
          "durationTicks": 1,
          "midi": 38,
          "name": "D2",
          "ticks": 17616,
          "time": 71.0322995,
          "velocity": 0.8346456692913385
        },
        {
          "duration": 0.0040322604166647125,
          "durationTicks": 1,
          "midi": 38,
          "name": "D2",
          "ticks": 17616,
          "time": 71.0322995,
          "velocity": 0.9448818897637795
        },
        {
          "duration": 0.0040322604166647125,
          "durationTicks": 1,
          "midi": 51,
          "name": "D#3",
          "ticks": 17616,
          "time": 71.0322995,
          "velocity": 0.9448818897637795
        },
        {
          "duration": 0.0040322604166647125,
          "durationTicks": 1,
          "midi": 57,
          "name": "A3",
          "ticks": 17664,
          "time": 71.225848,
          "velocity": 0.9448818897637795
        },
        {
          "duration": 0.0040322604166647125,
          "durationTicks": 1,
          "midi": 37,
          "name": "C#2",
          "ticks": 17664,
          "time": 71.225848,
          "velocity": 0.8346456692913385
        },
        {
          "duration": 0.0040322604166647125,
          "durationTicks": 1,
          "midi": 51,
          "name": "D#3",
          "ticks": 17664,
          "time": 71.225848,
          "velocity": 0.8346456692913385
        },
        {
          "duration": 0.0040322604166647125,
          "durationTicks": 1,
          "midi": 42,
          "name": "F#2",
          "ticks": 17664,
          "time": 71.225848,
          "velocity": 0.8346456692913385
        },
        {
          "duration": 0.0040322604166647125,
          "durationTicks": 1,
          "midi": 35,
          "name": "B1",
          "ticks": 17664,
          "time": 71.225848,
          "velocity": 0.8346456692913385
        },
        {
          "duration": 0.0040322604166647125,
          "durationTicks": 1,
          "midi": 42,
          "name": "F#2",
          "ticks": 17712,
          "time": 71.41939649999999,
          "velocity": 0.8346456692913385
        },
        {
          "duration": 0.0040322604166647125,
          "durationTicks": 1,
          "midi": 35,
          "name": "B1",
          "ticks": 17760,
          "time": 71.612945,
          "velocity": 0.8346456692913385
        },
        {
          "duration": 0.0040322604166647125,
          "durationTicks": 1,
          "midi": 46,
          "name": "A#2",
          "ticks": 17760,
          "time": 71.612945,
          "velocity": 0.8346456692913385
        },
        {
          "duration": 0.0040322604166647125,
          "durationTicks": 1,
          "midi": 37,
          "name": "C#2",
          "ticks": 17760,
          "time": 71.612945,
          "velocity": 0.8346456692913385
        },
        {
          "duration": 0.0040322604166647125,
          "durationTicks": 1,
          "midi": 42,
          "name": "F#2",
          "ticks": 17808,
          "time": 71.80649349999999,
          "velocity": 0.8346456692913385
        },
        {
          "duration": 0.0040322604166647125,
          "durationTicks": 1,
          "midi": 42,
          "name": "F#2",
          "ticks": 17832,
          "time": 71.90326775,
          "velocity": 0.8346456692913385
        },
        {
          "duration": 0.0040322604166647125,
          "durationTicks": 1,
          "midi": 37,
          "name": "C#2",
          "ticks": 17856,
          "time": 72.000042,
          "velocity": 0.8346456692913385
        },
        {
          "duration": 0.0040322604166647125,
          "durationTicks": 1,
          "midi": 42,
          "name": "F#2",
          "ticks": 17856,
          "time": 72.000042,
          "velocity": 0.8346456692913385
        },
        {
          "duration": 0.0040322604166647125,
          "durationTicks": 1,
          "midi": 35,
          "name": "B1",
          "ticks": 17856,
          "time": 72.000042,
          "velocity": 0.8346456692913385
        },
        {
          "duration": 0.0040322604166647125,
          "durationTicks": 1,
          "midi": 38,
          "name": "D2",
          "ticks": 17904,
          "time": 72.1935905,
          "velocity": 0.6141732283464567
        },
        {
          "duration": 0.0040322604166647125,
          "durationTicks": 1,
          "midi": 46,
          "name": "A#2",
          "ticks": 17904,
          "time": 72.1935905,
          "velocity": 0.8346456692913385
        },
        {
          "duration": 0.0040322604166647125,
          "durationTicks": 1,
          "midi": 35,
          "name": "B1",
          "ticks": 17952,
          "time": 72.38713899999999,
          "velocity": 0.8346456692913385
        },
        {
          "duration": 0.0040322604166647125,
          "durationTicks": 1,
          "midi": 42,
          "name": "F#2",
          "ticks": 17952,
          "time": 72.38713899999999,
          "velocity": 0.8346456692913385
        },
        {
          "duration": 0.0040322604166647125,
          "durationTicks": 1,
          "midi": 37,
          "name": "C#2",
          "ticks": 17952,
          "time": 72.38713899999999,
          "velocity": 0.8346456692913385
        },
        {
          "duration": 0.0040322604166647125,
          "durationTicks": 1,
          "midi": 46,
          "name": "A#2",
          "ticks": 18000,
          "time": 72.5806875,
          "velocity": 0.8346456692913385
        },
        {
          "duration": 0.0040322604166647125,
          "durationTicks": 1,
          "midi": 38,
          "name": "D2",
          "ticks": 18000,
          "time": 72.5806875,
          "velocity": 0.7244094488188977
        },
        {
          "duration": 0.0040322604166647125,
          "durationTicks": 1,
          "midi": 42,
          "name": "F#2",
          "ticks": 18024,
          "time": 72.67746174999999,
          "velocity": 0.8346456692913385
        },
        {
          "duration": 0.0040322604166647125,
          "durationTicks": 1,
          "midi": 37,
          "name": "C#2",
          "ticks": 18048,
          "time": 72.77423599999999,
          "velocity": 0.8346456692913385
        },
        {
          "duration": 0.0040322604166647125,
          "durationTicks": 1,
          "midi": 51,
          "name": "D#3",
          "ticks": 18048,
          "time": 72.77423599999999,
          "velocity": 0.8346456692913385
        },
        {
          "duration": 0.0040322604166647125,
          "durationTicks": 1,
          "midi": 42,
          "name": "F#2",
          "ticks": 18048,
          "time": 72.77423599999999,
          "velocity": 0.8346456692913385
        },
        {
          "duration": 0.0040322604166647125,
          "durationTicks": 1,
          "midi": 35,
          "name": "B1",
          "ticks": 18048,
          "time": 72.77423599999999,
          "velocity": 0.8346456692913385
        },
        {
          "duration": 0.0040322604166647125,
          "durationTicks": 1,
          "midi": 42,
          "name": "F#2",
          "ticks": 18096,
          "time": 72.9677845,
          "velocity": 0.8346456692913385
        },
        {
          "duration": 0.0040322604166647125,
          "durationTicks": 1,
          "midi": 35,
          "name": "B1",
          "ticks": 18144,
          "time": 73.161333,
          "velocity": 0.8346456692913385
        },
        {
          "duration": 0.0040322604166647125,
          "durationTicks": 1,
          "midi": 46,
          "name": "A#2",
          "ticks": 18144,
          "time": 73.161333,
          "velocity": 0.8346456692913385
        },
        {
          "duration": 0.0040322604166647125,
          "durationTicks": 1,
          "midi": 37,
          "name": "C#2",
          "ticks": 18144,
          "time": 73.161333,
          "velocity": 0.8346456692913385
        },
        {
          "duration": 0.0040322604166647125,
          "durationTicks": 1,
          "midi": 42,
          "name": "F#2",
          "ticks": 18192,
          "time": 73.35488149999999,
          "velocity": 0.8346456692913385
        },
        {
          "duration": 0.0040322604166647125,
          "durationTicks": 1,
          "midi": 38,
          "name": "D2",
          "ticks": 18192,
          "time": 73.35488149999999,
          "velocity": 0.8346456692913385
        },
        {
          "duration": 0.004032260416650502,
          "durationTicks": 1,
          "midi": 42,
          "name": "F#2",
          "ticks": 18216,
          "time": 73.45165575,
          "velocity": 0.8346456692913385
        },
        {
          "duration": 0.0040322604166647125,
          "durationTicks": 1,
          "midi": 37,
          "name": "C#2",
          "ticks": 18240,
          "time": 73.54843,
          "velocity": 0.8346456692913385
        },
        {
          "duration": 0.0040322604166647125,
          "durationTicks": 1,
          "midi": 42,
          "name": "F#2",
          "ticks": 18240,
          "time": 73.54843,
          "velocity": 0.8346456692913385
        },
        {
          "duration": 0.0040322604166647125,
          "durationTicks": 1,
          "midi": 35,
          "name": "B1",
          "ticks": 18240,
          "time": 73.54843,
          "velocity": 0.8346456692913385
        },
        {
          "duration": 0.0040322604166647125,
          "durationTicks": 1,
          "midi": 46,
          "name": "A#2",
          "ticks": 18288,
          "time": 73.74197849999999,
          "velocity": 0.8346456692913385
        },
        {
          "duration": 0.0040322604166647125,
          "durationTicks": 1,
          "midi": 35,
          "name": "B1",
          "ticks": 18336,
          "time": 73.935527,
          "velocity": 0.8346456692913385
        },
        {
          "duration": 0.0040322604166647125,
          "durationTicks": 1,
          "midi": 42,
          "name": "F#2",
          "ticks": 18336,
          "time": 73.935527,
          "velocity": 0.8346456692913385
        },
        {
          "duration": 0.0040322604166647125,
          "durationTicks": 1,
          "midi": 37,
          "name": "C#2",
          "ticks": 18336,
          "time": 73.935527,
          "velocity": 0.8346456692913385
        },
        {
          "duration": 0.0040322604166647125,
          "durationTicks": 1,
          "midi": 46,
          "name": "A#2",
          "ticks": 18384,
          "time": 74.1290755,
          "velocity": 0.8346456692913385
        },
        {
          "duration": 0.0040322604166647125,
          "durationTicks": 1,
          "midi": 38,
          "name": "D2",
          "ticks": 18384,
          "time": 74.1290755,
          "velocity": 0.8346456692913385
        },
        {
          "duration": 0.0040322604166647125,
          "durationTicks": 1,
          "midi": 42,
          "name": "F#2",
          "ticks": 18408,
          "time": 74.22584975,
          "velocity": 0.8346456692913385
        },
        {
          "duration": 0.0040322604166647125,
          "durationTicks": 1,
          "midi": 37,
          "name": "C#2",
          "ticks": 18432,
          "time": 74.32262399999999,
          "velocity": 0.8346456692913385
        },
        {
          "duration": 0.0040322604166647125,
          "durationTicks": 1,
          "midi": 51,
          "name": "D#3",
          "ticks": 18432,
          "time": 74.32262399999999,
          "velocity": 0.8346456692913385
        },
        {
          "duration": 0.0040322604166647125,
          "durationTicks": 1,
          "midi": 42,
          "name": "F#2",
          "ticks": 18432,
          "time": 74.32262399999999,
          "velocity": 0.8346456692913385
        },
        {
          "duration": 0.0040322604166647125,
          "durationTicks": 1,
          "midi": 35,
          "name": "B1",
          "ticks": 18432,
          "time": 74.32262399999999,
          "velocity": 0.8346456692913385
        },
        {
          "duration": 0.0040322604166647125,
          "durationTicks": 1,
          "midi": 42,
          "name": "F#2",
          "ticks": 18480,
          "time": 74.5161725,
          "velocity": 0.8346456692913385
        },
        {
          "duration": 0.0040322604166647125,
          "durationTicks": 1,
          "midi": 35,
          "name": "B1",
          "ticks": 18528,
          "time": 74.70972099999999,
          "velocity": 0.8346456692913385
        },
        {
          "duration": 0.0040322604166647125,
          "durationTicks": 1,
          "midi": 46,
          "name": "A#2",
          "ticks": 18528,
          "time": 74.70972099999999,
          "velocity": 0.8346456692913385
        },
        {
          "duration": 0.0040322604166647125,
          "durationTicks": 1,
          "midi": 37,
          "name": "C#2",
          "ticks": 18528,
          "time": 74.70972099999999,
          "velocity": 0.8346456692913385
        },
        {
          "duration": 0.0040322604166647125,
          "durationTicks": 1,
          "midi": 42,
          "name": "F#2",
          "ticks": 18576,
          "time": 74.9032695,
          "velocity": 0.8346456692913385
        },
        {
          "duration": 0.0040322604166647125,
          "durationTicks": 1,
          "midi": 42,
          "name": "F#2",
          "ticks": 18600,
          "time": 75.00004374999999,
          "velocity": 0.8346456692913385
        },
        {
          "duration": 0.0040322604166647125,
          "durationTicks": 1,
          "midi": 37,
          "name": "C#2",
          "ticks": 18624,
          "time": 75.096818,
          "velocity": 0.8346456692913385
        },
        {
          "duration": 0.0040322604166647125,
          "durationTicks": 1,
          "midi": 42,
          "name": "F#2",
          "ticks": 18624,
          "time": 75.096818,
          "velocity": 0.8346456692913385
        },
        {
          "duration": 0.0040322604166647125,
          "durationTicks": 1,
          "midi": 35,
          "name": "B1",
          "ticks": 18624,
          "time": 75.096818,
          "velocity": 0.8346456692913385
        },
        {
          "duration": 0.0040322604166647125,
          "durationTicks": 1,
          "midi": 38,
          "name": "D2",
          "ticks": 18672,
          "time": 75.29036649999999,
          "velocity": 0.6141732283464567
        },
        {
          "duration": 0.0040322604166647125,
          "durationTicks": 1,
          "midi": 46,
          "name": "A#2",
          "ticks": 18672,
          "time": 75.29036649999999,
          "velocity": 0.8346456692913385
        },
        {
          "duration": 0.004032260416650502,
          "durationTicks": 1,
          "midi": 38,
          "name": "D2",
          "ticks": 18696,
          "time": 75.38714075,
          "velocity": 0.6141732283464567
        },
        {
          "duration": 0.0040322604166647125,
          "durationTicks": 1,
          "midi": 35,
          "name": "B1",
          "ticks": 18720,
          "time": 75.483915,
          "velocity": 0.8346456692913385
        },
        {
          "duration": 0.0040322604166647125,
          "durationTicks": 1,
          "midi": 42,
          "name": "F#2",
          "ticks": 18720,
          "time": 75.483915,
          "velocity": 0.8346456692913385
        },
        {
          "duration": 0.0040322604166647125,
          "durationTicks": 1,
          "midi": 37,
          "name": "C#2",
          "ticks": 18720,
          "time": 75.483915,
          "velocity": 0.8346456692913385
        },
        {
          "duration": 0.0040322604166647125,
          "durationTicks": 1,
          "midi": 46,
          "name": "A#2",
          "ticks": 18768,
          "time": 75.67746349999999,
          "velocity": 0.8346456692913385
        },
        {
          "duration": 0.0040322604166647125,
          "durationTicks": 1,
          "midi": 38,
          "name": "D2",
          "ticks": 18768,
          "time": 75.67746349999999,
          "velocity": 0.7244094488188977
        },
        {
          "duration": 0.0040322604166647125,
          "durationTicks": 1,
          "midi": 42,
          "name": "F#2",
          "ticks": 18792,
          "time": 75.77423775,
          "velocity": 0.8346456692913385
        },
        {
          "duration": 0.0040322604166647125,
          "durationTicks": 1,
          "midi": 37,
          "name": "C#2",
          "ticks": 18816,
          "time": 75.871012,
          "velocity": 0.8346456692913385
        },
        {
          "duration": 0.0040322604166647125,
          "durationTicks": 1,
          "midi": 51,
          "name": "D#3",
          "ticks": 18816,
          "time": 75.871012,
          "velocity": 0.8346456692913385
        },
        {
          "duration": 0.0040322604166647125,
          "durationTicks": 1,
          "midi": 42,
          "name": "F#2",
          "ticks": 18816,
          "time": 75.871012,
          "velocity": 0.8346456692913385
        },
        {
          "duration": 0.0040322604166647125,
          "durationTicks": 1,
          "midi": 35,
          "name": "B1",
          "ticks": 18816,
          "time": 75.871012,
          "velocity": 0.8346456692913385
        },
        {
          "duration": 0.0040322604166647125,
          "durationTicks": 1,
          "midi": 38,
          "name": "D2",
          "ticks": 18864,
          "time": 76.0645605,
          "velocity": 0.8346456692913385
        },
        {
          "duration": 0.0040322604166647125,
          "durationTicks": 1,
          "midi": 42,
          "name": "F#2",
          "ticks": 18864,
          "time": 76.0645605,
          "velocity": 0.8346456692913385
        },
        {
          "duration": 0.0040322604166647125,
          "durationTicks": 1,
          "midi": 38,
          "name": "D2",
          "ticks": 18888,
          "time": 76.16133475,
          "velocity": 0.8346456692913385
        },
        {
          "duration": 0.0040322604166647125,
          "durationTicks": 1,
          "midi": 35,
          "name": "B1",
          "ticks": 18912,
          "time": 76.25810899999999,
          "velocity": 0.8346456692913385
        },
        {
          "duration": 0.0040322604166647125,
          "durationTicks": 1,
          "midi": 46,
          "name": "A#2",
          "ticks": 18912,
          "time": 76.25810899999999,
          "velocity": 0.8346456692913385
        },
        {
          "duration": 0.0040322604166647125,
          "durationTicks": 1,
          "midi": 37,
          "name": "C#2",
          "ticks": 18912,
          "time": 76.25810899999999,
          "velocity": 0.8346456692913385
        },
        {
          "duration": 0.004032260416650502,
          "durationTicks": 1,
          "midi": 38,
          "name": "D2",
          "ticks": 18936,
          "time": 76.35488325,
          "velocity": 0.8346456692913385
        },
        {
          "duration": 0.0040322604166647125,
          "durationTicks": 1,
          "midi": 42,
          "name": "F#2",
          "ticks": 18960,
          "time": 76.4516575,
          "velocity": 0.8346456692913385
        },
        {
          "duration": 0.0040322604166647125,
          "durationTicks": 1,
          "midi": 38,
          "name": "D2",
          "ticks": 18960,
          "time": 76.4516575,
          "velocity": 0.8346456692913385
        },
        {
          "duration": 0.0040322604166647125,
          "durationTicks": 1,
          "midi": 38,
          "name": "D2",
          "ticks": 18960,
          "time": 76.4516575,
          "velocity": 0.8346456692913385
        },
        {
          "duration": 0.0040322604166647125,
          "durationTicks": 1,
          "midi": 42,
          "name": "F#2",
          "ticks": 18984,
          "time": 76.54843174999999,
          "velocity": 0.8346456692913385
        },
        {
          "duration": 0.0040322604166647125,
          "durationTicks": 1,
          "midi": 38,
          "name": "D2",
          "ticks": 18984,
          "time": 76.54843174999999,
          "velocity": 0.8346456692913385
        },
        {
          "duration": 0.0040322604166647125,
          "durationTicks": 1,
          "midi": 37,
          "name": "C#2",
          "ticks": 19008,
          "time": 76.64520599999999,
          "velocity": 0.8346456692913385
        },
        {
          "duration": 0.0040322604166647125,
          "durationTicks": 1,
          "midi": 42,
          "name": "F#2",
          "ticks": 19008,
          "time": 76.64520599999999,
          "velocity": 0.8346456692913385
        },
        {
          "duration": 0.0040322604166647125,
          "durationTicks": 1,
          "midi": 35,
          "name": "B1",
          "ticks": 19008,
          "time": 76.64520599999999,
          "velocity": 0.8346456692913385
        },
        {
          "duration": 0.0040322604166647125,
          "durationTicks": 1,
          "midi": 38,
          "name": "D2",
          "ticks": 19032,
          "time": 76.74198025,
          "velocity": 0.8346456692913385
        },
        {
          "duration": 0.0040322604166647125,
          "durationTicks": 1,
          "midi": 38,
          "name": "D2",
          "ticks": 19056,
          "time": 76.8387545,
          "velocity": 0.8346456692913385
        },
        {
          "duration": 0.0040322604166647125,
          "durationTicks": 1,
          "midi": 46,
          "name": "A#2",
          "ticks": 19056,
          "time": 76.8387545,
          "velocity": 0.8346456692913385
        },
        {
          "duration": 0.0040322604166647125,
          "durationTicks": 1,
          "midi": 38,
          "name": "D2",
          "ticks": 19104,
          "time": 77.032303,
          "velocity": 0.8346456692913385
        },
        {
          "duration": 0.0040322604166647125,
          "durationTicks": 1,
          "midi": 37,
          "name": "C#2",
          "ticks": 19104,
          "time": 77.032303,
          "velocity": 0.8346456692913385
        },
        {
          "duration": 0.0040322604166647125,
          "durationTicks": 1,
          "midi": 42,
          "name": "F#2",
          "ticks": 19104,
          "time": 77.032303,
          "velocity": 0.8346456692913385
        },
        {
          "duration": 0.0040322604166647125,
          "durationTicks": 1,
          "midi": 35,
          "name": "B1",
          "ticks": 19104,
          "time": 77.032303,
          "velocity": 0.8346456692913385
        },
        {
          "duration": 0.0040322604166647125,
          "durationTicks": 1,
          "midi": 38,
          "name": "D2",
          "ticks": 19128,
          "time": 77.12907725,
          "velocity": 0.8346456692913385
        },
        {
          "duration": 0.0040322604166647125,
          "durationTicks": 1,
          "midi": 46,
          "name": "A#2",
          "ticks": 19152,
          "time": 77.22585149999999,
          "velocity": 0.8346456692913385
        },
        {
          "duration": 0.0040322604166647125,
          "durationTicks": 1,
          "midi": 38,
          "name": "D2",
          "ticks": 19152,
          "time": 77.22585149999999,
          "velocity": 0.8346456692913385
        },
        {
          "duration": 0.0040322604166647125,
          "durationTicks": 1,
          "midi": 38,
          "name": "D2",
          "ticks": 19152,
          "time": 77.22585149999999,
          "velocity": 0.8346456692913385
        },
        {
          "duration": 0.004032260416650502,
          "durationTicks": 1,
          "midi": 38,
          "name": "D2",
          "ticks": 19176,
          "time": 77.32262575,
          "velocity": 0.8346456692913385
        },
        {
          "duration": 0.004032260416650502,
          "durationTicks": 1,
          "midi": 42,
          "name": "F#2",
          "ticks": 19176,
          "time": 77.32262575,
          "velocity": 0.8346456692913385
        },
        {
          "duration": 0.0040322604166647125,
          "durationTicks": 1,
          "midi": 35,
          "name": "B1",
          "ticks": 19200,
          "time": 77.4194,
          "velocity": 0.8346456692913385
        },
        {
          "duration": 0.0040322604166647125,
          "durationTicks": 1,
          "midi": 42,
          "name": "F#2",
          "ticks": 19200,
          "time": 77.4194,
          "velocity": 0.8346456692913385
        },
        {
          "duration": 0.0040322604166647125,
          "durationTicks": 1,
          "midi": 51,
          "name": "D#3",
          "ticks": 19200,
          "time": 77.4194,
          "velocity": 0.8346456692913385
        },
        {
          "duration": 0.0040322604166647125,
          "durationTicks": 1,
          "midi": 37,
          "name": "C#2",
          "ticks": 19200,
          "time": 77.4194,
          "velocity": 0.8346456692913385
        },
        {
          "duration": 0.0040322604166647125,
          "durationTicks": 1,
          "midi": 57,
          "name": "A3",
          "ticks": 19200,
          "time": 77.4194,
          "velocity": 0.9448818897637795
        },
        {
          "duration": 0.0040322604166647125,
          "durationTicks": 1,
          "midi": 42,
          "name": "F#2",
          "ticks": 19248,
          "time": 77.61294849999999,
          "velocity": 0.8346456692913385
        },
        {
          "duration": 0.0040322604166647125,
          "durationTicks": 1,
          "midi": 38,
          "name": "D2",
          "ticks": 19296,
          "time": 77.806497,
          "velocity": 0.8346456692913385
        },
        {
          "duration": 0.0040322604166647125,
          "durationTicks": 1,
          "midi": 37,
          "name": "C#2",
          "ticks": 19296,
          "time": 77.806497,
          "velocity": 0.8346456692913385
        },
        {
          "duration": 0.0040322604166647125,
          "durationTicks": 1,
          "midi": 46,
          "name": "A#2",
          "ticks": 19296,
          "time": 77.806497,
          "velocity": 0.8346456692913385
        },
        {
          "duration": 0.0040322604166647125,
          "durationTicks": 1,
          "midi": 42,
          "name": "F#2",
          "ticks": 19344,
          "time": 78.0000455,
          "velocity": 0.8346456692913385
        },
        {
          "duration": 0.0040322604166647125,
          "durationTicks": 1,
          "midi": 42,
          "name": "F#2",
          "ticks": 19368,
          "time": 78.09681975,
          "velocity": 0.8346456692913385
        },
        {
          "duration": 0.0040322604166647125,
          "durationTicks": 1,
          "midi": 37,
          "name": "C#2",
          "ticks": 19392,
          "time": 78.19359399999999,
          "velocity": 0.8346456692913385
        },
        {
          "duration": 0.0040322604166647125,
          "durationTicks": 1,
          "midi": 42,
          "name": "F#2",
          "ticks": 19392,
          "time": 78.19359399999999,
          "velocity": 0.8346456692913385
        },
        {
          "duration": 0.0040322604166647125,
          "durationTicks": 1,
          "midi": 35,
          "name": "B1",
          "ticks": 19392,
          "time": 78.19359399999999,
          "velocity": 0.8346456692913385
        },
        {
          "duration": 0.0040322604166647125,
          "durationTicks": 1,
          "midi": 38,
          "name": "D2",
          "ticks": 19440,
          "time": 78.3871425,
          "velocity": 0.6141732283464567
        },
        {
          "duration": 0.0040322604166647125,
          "durationTicks": 1,
          "midi": 46,
          "name": "A#2",
          "ticks": 19440,
          "time": 78.3871425,
          "velocity": 0.8346456692913385
        },
        {
          "duration": 0.0040322604166647125,
          "durationTicks": 1,
          "midi": 42,
          "name": "F#2",
          "ticks": 19488,
          "time": 78.58069099999999,
          "velocity": 0.8346456692913385
        },
        {
          "duration": 0.0040322604166647125,
          "durationTicks": 1,
          "midi": 37,
          "name": "C#2",
          "ticks": 19488,
          "time": 78.58069099999999,
          "velocity": 0.8346456692913385
        },
        {
          "duration": 0.0040322604166647125,
          "durationTicks": 1,
          "midi": 38,
          "name": "D2",
          "ticks": 19488,
          "time": 78.58069099999999,
          "velocity": 0.8346456692913385
        },
        {
          "duration": 0.0040322604166647125,
          "durationTicks": 1,
          "midi": 46,
          "name": "A#2",
          "ticks": 19536,
          "time": 78.7742395,
          "velocity": 0.8346456692913385
        },
        {
          "duration": 0.0040322604166647125,
          "durationTicks": 1,
          "midi": 38,
          "name": "D2",
          "ticks": 19536,
          "time": 78.7742395,
          "velocity": 0.7244094488188977
        },
        {
          "duration": 0.0040322604166647125,
          "durationTicks": 1,
          "midi": 42,
          "name": "F#2",
          "ticks": 19560,
          "time": 78.87101374999999,
          "velocity": 0.8346456692913385
        },
        {
          "duration": 0.0040322604166647125,
          "durationTicks": 1,
          "midi": 35,
          "name": "B1",
          "ticks": 19584,
          "time": 78.967788,
          "velocity": 0.8346456692913385
        },
        {
          "duration": 0.0040322604166647125,
          "durationTicks": 1,
          "midi": 42,
          "name": "F#2",
          "ticks": 19584,
          "time": 78.967788,
          "velocity": 0.8346456692913385
        },
        {
          "duration": 0.0040322604166647125,
          "durationTicks": 1,
          "midi": 51,
          "name": "D#3",
          "ticks": 19584,
          "time": 78.967788,
          "velocity": 0.8346456692913385
        },
        {
          "duration": 0.0040322604166647125,
          "durationTicks": 1,
          "midi": 37,
          "name": "C#2",
          "ticks": 19584,
          "time": 78.967788,
          "velocity": 0.8346456692913385
        },
        {
          "duration": 0.0040322604166647125,
          "durationTicks": 1,
          "midi": 42,
          "name": "F#2",
          "ticks": 19632,
          "time": 79.16133649999999,
          "velocity": 0.8346456692913385
        },
        {
          "duration": 0.0040322604166647125,
          "durationTicks": 1,
          "midi": 38,
          "name": "D2",
          "ticks": 19680,
          "time": 79.354885,
          "velocity": 0.8346456692913385
        },
        {
          "duration": 0.0040322604166647125,
          "durationTicks": 1,
          "midi": 37,
          "name": "C#2",
          "ticks": 19680,
          "time": 79.354885,
          "velocity": 0.8346456692913385
        },
        {
          "duration": 0.0040322604166647125,
          "durationTicks": 1,
          "midi": 46,
          "name": "A#2",
          "ticks": 19680,
          "time": 79.354885,
          "velocity": 0.8346456692913385
        },
        {
          "duration": 0.0040322604166647125,
          "durationTicks": 1,
          "midi": 42,
          "name": "F#2",
          "ticks": 19728,
          "time": 79.54843349999999,
          "velocity": 0.8346456692913385
        },
        {
          "duration": 0.0040322604166647125,
          "durationTicks": 1,
          "midi": 38,
          "name": "D2",
          "ticks": 19728,
          "time": 79.54843349999999,
          "velocity": 0.8346456692913385
        },
        {
          "duration": 0.0040322604166647125,
          "durationTicks": 1,
          "midi": 42,
          "name": "F#2",
          "ticks": 19752,
          "time": 79.64520775,
          "velocity": 0.8346456692913385
        },
        {
          "duration": 0.0040322604166647125,
          "durationTicks": 1,
          "midi": 37,
          "name": "C#2",
          "ticks": 19776,
          "time": 79.741982,
          "velocity": 0.8346456692913385
        },
        {
          "duration": 0.0040322604166647125,
          "durationTicks": 1,
          "midi": 42,
          "name": "F#2",
          "ticks": 19776,
          "time": 79.741982,
          "velocity": 0.8346456692913385
        },
        {
          "duration": 0.0040322604166647125,
          "durationTicks": 1,
          "midi": 35,
          "name": "B1",
          "ticks": 19776,
          "time": 79.741982,
          "velocity": 0.8346456692913385
        },
        {
          "duration": 0.0040322604166647125,
          "durationTicks": 1,
          "midi": 46,
          "name": "A#2",
          "ticks": 19824,
          "time": 79.9355305,
          "velocity": 0.8346456692913385
        },
        {
          "duration": 0.0040322604166647125,
          "durationTicks": 1,
          "midi": 42,
          "name": "F#2",
          "ticks": 19872,
          "time": 80.12907899999999,
          "velocity": 0.8346456692913385
        },
        {
          "duration": 0.0040322604166647125,
          "durationTicks": 1,
          "midi": 37,
          "name": "C#2",
          "ticks": 19872,
          "time": 80.12907899999999,
          "velocity": 0.8346456692913385
        },
        {
          "duration": 0.0040322604166647125,
          "durationTicks": 1,
          "midi": 38,
          "name": "D2",
          "ticks": 19872,
          "time": 80.12907899999999,
          "velocity": 0.8346456692913385
        },
        {
          "duration": 0.0040322604166647125,
          "durationTicks": 1,
          "midi": 46,
          "name": "A#2",
          "ticks": 19920,
          "time": 80.3226275,
          "velocity": 0.8346456692913385
        },
        {
          "duration": 0.0040322604166647125,
          "durationTicks": 1,
          "midi": 38,
          "name": "D2",
          "ticks": 19920,
          "time": 80.3226275,
          "velocity": 0.8346456692913385
        },
        {
          "duration": 0.0040322604166647125,
          "durationTicks": 1,
          "midi": 42,
          "name": "F#2",
          "ticks": 19944,
          "time": 80.41940174999999,
          "velocity": 0.8346456692913385
        },
        {
          "duration": 0.0040322604166647125,
          "durationTicks": 1,
          "midi": 37,
          "name": "C#2",
          "ticks": 19968,
          "time": 80.51617599999999,
          "velocity": 0.8346456692913385
        },
        {
          "duration": 0.0040322604166647125,
          "durationTicks": 1,
          "midi": 51,
          "name": "D#3",
          "ticks": 19968,
          "time": 80.51617599999999,
          "velocity": 0.8346456692913385
        },
        {
          "duration": 0.0040322604166647125,
          "durationTicks": 1,
          "midi": 42,
          "name": "F#2",
          "ticks": 19968,
          "time": 80.51617599999999,
          "velocity": 0.8346456692913385
        },
        {
          "duration": 0.0040322604166647125,
          "durationTicks": 1,
          "midi": 35,
          "name": "B1",
          "ticks": 19968,
          "time": 80.51617599999999,
          "velocity": 0.8346456692913385
        },
        {
          "duration": 0.0040322604166647125,
          "durationTicks": 1,
          "midi": 42,
          "name": "F#2",
          "ticks": 20016,
          "time": 80.7097245,
          "velocity": 0.8346456692913385
        },
        {
          "duration": 0.0040322604166647125,
          "durationTicks": 1,
          "midi": 38,
          "name": "D2",
          "ticks": 20064,
          "time": 80.903273,
          "velocity": 0.8346456692913385
        },
        {
          "duration": 0.0040322604166647125,
          "durationTicks": 1,
          "midi": 37,
          "name": "C#2",
          "ticks": 20064,
          "time": 80.903273,
          "velocity": 0.8346456692913385
        },
        {
          "duration": 0.0040322604166647125,
          "durationTicks": 1,
          "midi": 46,
          "name": "A#2",
          "ticks": 20064,
          "time": 80.903273,
          "velocity": 0.8346456692913385
        },
        {
          "duration": 0.0040322604166647125,
          "durationTicks": 1,
          "midi": 42,
          "name": "F#2",
          "ticks": 20112,
          "time": 81.09682149999999,
          "velocity": 0.8346456692913385
        },
        {
          "duration": 0.004032260416650502,
          "durationTicks": 1,
          "midi": 42,
          "name": "F#2",
          "ticks": 20136,
          "time": 81.19359575,
          "velocity": 0.8346456692913385
        },
        {
          "duration": 0.0040322604166647125,
          "durationTicks": 1,
          "midi": 35,
          "name": "B1",
          "ticks": 20160,
          "time": 81.29037,
          "velocity": 0.8346456692913385
        },
        {
          "duration": 0.0040322604166647125,
          "durationTicks": 1,
          "midi": 42,
          "name": "F#2",
          "ticks": 20160,
          "time": 81.29037,
          "velocity": 0.8346456692913385
        },
        {
          "duration": 0.0040322604166647125,
          "durationTicks": 1,
          "midi": 37,
          "name": "C#2",
          "ticks": 20160,
          "time": 81.29037,
          "velocity": 0.8346456692913385
        },
        {
          "duration": 0.0040322604166647125,
          "durationTicks": 1,
          "midi": 46,
          "name": "A#2",
          "ticks": 20208,
          "time": 81.48391849999999,
          "velocity": 0.8346456692913385
        },
        {
          "duration": 0.0040322604166647125,
          "durationTicks": 1,
          "midi": 38,
          "name": "D2",
          "ticks": 20208,
          "time": 81.48391849999999,
          "velocity": 0.6141732283464567
        },
        {
          "duration": 0.0040322604166647125,
          "durationTicks": 1,
          "midi": 38,
          "name": "D2",
          "ticks": 20232,
          "time": 81.58069275,
          "velocity": 0.6141732283464567
        },
        {
          "duration": 0.0040322604166647125,
          "durationTicks": 1,
          "midi": 38,
          "name": "D2",
          "ticks": 20256,
          "time": 81.677467,
          "velocity": 0.8346456692913385
        },
        {
          "duration": 0.0040322604166647125,
          "durationTicks": 1,
          "midi": 37,
          "name": "C#2",
          "ticks": 20256,
          "time": 81.677467,
          "velocity": 0.8346456692913385
        },
        {
          "duration": 0.0040322604166647125,
          "durationTicks": 1,
          "midi": 42,
          "name": "F#2",
          "ticks": 20256,
          "time": 81.677467,
          "velocity": 0.8346456692913385
        },
        {
          "duration": 0.0040322604166647125,
          "durationTicks": 1,
          "midi": 38,
          "name": "D2",
          "ticks": 20304,
          "time": 81.8710155,
          "velocity": 0.7244094488188977
        },
        {
          "duration": 0.0040322604166647125,
          "durationTicks": 1,
          "midi": 46,
          "name": "A#2",
          "ticks": 20304,
          "time": 81.8710155,
          "velocity": 0.8346456692913385
        },
        {
          "duration": 0.0040322604166647125,
          "durationTicks": 1,
          "midi": 42,
          "name": "F#2",
          "ticks": 20328,
          "time": 81.96778975,
          "velocity": 0.8346456692913385
        },
        {
          "duration": 0.0040322604166647125,
          "durationTicks": 1,
          "midi": 35,
          "name": "B1",
          "ticks": 20352,
          "time": 82.06456399999999,
          "velocity": 0.8346456692913385
        },
        {
          "duration": 0.0040322604166647125,
          "durationTicks": 1,
          "midi": 42,
          "name": "F#2",
          "ticks": 20352,
          "time": 82.06456399999999,
          "velocity": 0.8346456692913385
        },
        {
          "duration": 0.0040322604166647125,
          "durationTicks": 1,
          "midi": 51,
          "name": "D#3",
          "ticks": 20352,
          "time": 82.06456399999999,
          "velocity": 0.8346456692913385
        },
        {
          "duration": 0.0040322604166647125,
          "durationTicks": 1,
          "midi": 37,
          "name": "C#2",
          "ticks": 20352,
          "time": 82.06456399999999,
          "velocity": 0.8346456692913385
        },
        {
          "duration": 0.0040322604166647125,
          "durationTicks": 1,
          "midi": 42,
          "name": "F#2",
          "ticks": 20400,
          "time": 82.2581125,
          "velocity": 0.8346456692913385
        },
        {
          "duration": 0.0040322604166647125,
          "durationTicks": 1,
          "midi": 38,
          "name": "D2",
          "ticks": 20400,
          "time": 82.2581125,
          "velocity": 0.8346456692913385
        },
        {
          "duration": 0.0040322604166647125,
          "durationTicks": 1,
          "midi": 38,
          "name": "D2",
          "ticks": 20424,
          "time": 82.35488674999999,
          "velocity": 0.8346456692913385
        },
        {
          "duration": 0.0040322604166647125,
          "durationTicks": 1,
          "midi": 37,
          "name": "C#2",
          "ticks": 20448,
          "time": 82.45166099999999,
          "velocity": 0.8346456692913385
        },
        {
          "duration": 0.0040322604166647125,
          "durationTicks": 1,
          "midi": 46,
          "name": "A#2",
          "ticks": 20448,
          "time": 82.45166099999999,
          "velocity": 0.8346456692913385
        },
        {
          "duration": 0.0040322604166647125,
          "durationTicks": 1,
          "midi": 35,
          "name": "B1",
          "ticks": 20448,
          "time": 82.45166099999999,
          "velocity": 0.8346456692913385
        },
        {
          "duration": 0.0040322604166647125,
          "durationTicks": 1,
          "midi": 38,
          "name": "D2",
          "ticks": 20472,
          "time": 82.54843525,
          "velocity": 0.8346456692913385
        },
        {
          "duration": 0.0040322604166647125,
          "durationTicks": 1,
          "midi": 38,
          "name": "D2",
          "ticks": 20496,
          "time": 82.64520949999999,
          "velocity": 0.8346456692913385
        },
        {
          "duration": 0.0040322604166647125,
          "durationTicks": 1,
          "midi": 38,
          "name": "D2",
          "ticks": 20496,
          "time": 82.64520949999999,
          "velocity": 0.8346456692913385
        },
        {
          "duration": 0.0040322604166647125,
          "durationTicks": 1,
          "midi": 42,
          "name": "F#2",
          "ticks": 20496,
          "time": 82.64520949999999,
          "velocity": 0.8346456692913385
        },
        {
          "duration": 0.0040322604166647125,
          "durationTicks": 1,
          "midi": 42,
          "name": "F#2",
          "ticks": 20520,
          "time": 82.74198374999999,
          "velocity": 0.8346456692913385
        },
        {
          "duration": 0.0040322604166647125,
          "durationTicks": 1,
          "midi": 38,
          "name": "D2",
          "ticks": 20520,
          "time": 82.74198374999999,
          "velocity": 0.8346456692913385
        },
        {
          "duration": 0.0040322604166647125,
          "durationTicks": 1,
          "midi": 35,
          "name": "B1",
          "ticks": 20544,
          "time": 82.838758,
          "velocity": 0.8346456692913385
        },
        {
          "duration": 0.0040322604166647125,
          "durationTicks": 1,
          "midi": 42,
          "name": "F#2",
          "ticks": 20544,
          "time": 82.838758,
          "velocity": 0.8346456692913385
        },
        {
          "duration": 0.0040322604166647125,
          "durationTicks": 1,
          "midi": 37,
          "name": "C#2",
          "ticks": 20544,
          "time": 82.838758,
          "velocity": 0.8346456692913385
        },
        {
          "duration": 0.0040322604166647125,
          "durationTicks": 1,
          "midi": 38,
          "name": "D2",
          "ticks": 20568,
          "time": 82.93553225,
          "velocity": 0.8346456692913385
        },
        {
          "duration": 0.0040322604166647125,
          "durationTicks": 1,
          "midi": 46,
          "name": "A#2",
          "ticks": 20592,
          "time": 83.03230649999999,
          "velocity": 0.8346456692913385
        },
        {
          "duration": 0.0040322604166647125,
          "durationTicks": 1,
          "midi": 38,
          "name": "D2",
          "ticks": 20592,
          "time": 83.03230649999999,
          "velocity": 0.8346456692913385
        },
        {
          "duration": 0.0040322604166647125,
          "durationTicks": 1,
          "midi": 38,
          "name": "D2",
          "ticks": 20640,
          "time": 83.225855,
          "velocity": 0.8346456692913385
        },
        {
          "duration": 0.0040322604166647125,
          "durationTicks": 1,
          "midi": 37,
          "name": "C#2",
          "ticks": 20640,
          "time": 83.225855,
          "velocity": 0.8346456692913385
        },
        {
          "duration": 0.0040322604166647125,
          "durationTicks": 1,
          "midi": 42,
          "name": "F#2",
          "ticks": 20640,
          "time": 83.225855,
          "velocity": 0.8346456692913385
        },
        {
          "duration": 0.0040322604166647125,
          "durationTicks": 1,
          "midi": 35,
          "name": "B1",
          "ticks": 20640,
          "time": 83.225855,
          "velocity": 0.8346456692913385
        },
        {
          "duration": 0.0040322604166647125,
          "durationTicks": 1,
          "midi": 38,
          "name": "D2",
          "ticks": 20664,
          "time": 83.32262924999999,
          "velocity": 0.8346456692913385
        },
        {
          "duration": 0.0040322604166647125,
          "durationTicks": 1,
          "midi": 38,
          "name": "D2",
          "ticks": 20688,
          "time": 83.41940349999999,
          "velocity": 0.8346456692913385
        },
        {
          "duration": 0.0040322604166647125,
          "durationTicks": 1,
          "midi": 38,
          "name": "D2",
          "ticks": 20688,
          "time": 83.41940349999999,
          "velocity": 0.8346456692913385
        },
        {
          "duration": 0.0040322604166647125,
          "durationTicks": 1,
          "midi": 46,
          "name": "A#2",
          "ticks": 20688,
          "time": 83.41940349999999,
          "velocity": 0.8346456692913385
        },
        {
          "duration": 0.0040322604166647125,
          "durationTicks": 1,
          "midi": 42,
          "name": "F#2",
          "ticks": 20712,
          "time": 83.51617775,
          "velocity": 0.8346456692913385
        },
        {
          "duration": 0.0040322604166647125,
          "durationTicks": 1,
          "midi": 38,
          "name": "D2",
          "ticks": 20712,
          "time": 83.51617775,
          "velocity": 0.8346456692913385
        },
        {
          "duration": 0.0040322604166647125,
          "durationTicks": 1,
          "midi": 35,
          "name": "B1",
          "ticks": 20736,
          "time": 83.61295199999999,
          "velocity": 0.8346456692913385
        },
        {
          "duration": 0.0040322604166647125,
          "durationTicks": 1,
          "midi": 42,
          "name": "F#2",
          "ticks": 20736,
          "time": 83.61295199999999,
          "velocity": 0.8346456692913385
        },
        {
          "duration": 0.0040322604166647125,
          "durationTicks": 1,
          "midi": 51,
          "name": "D#3",
          "ticks": 20736,
          "time": 83.61295199999999,
          "velocity": 0.8346456692913385
        },
        {
          "duration": 0.0040322604166647125,
          "durationTicks": 1,
          "midi": 37,
          "name": "C#2",
          "ticks": 20736,
          "time": 83.61295199999999,
          "velocity": 0.8346456692913385
        },
        {
          "duration": 0.0040322604166647125,
          "durationTicks": 1,
          "midi": 57,
          "name": "A3",
          "ticks": 20736,
          "time": 83.61295199999999,
          "velocity": 0.9448818897637795
        },
        {
          "duration": 0.0040322604166647125,
          "durationTicks": 1,
          "midi": 45,
          "name": "A2",
          "ticks": 20784,
          "time": 83.8065005,
          "velocity": 0.7244094488188977
        },
        {
          "duration": 0.0040322604166647125,
          "durationTicks": 1,
          "midi": 42,
          "name": "F#2",
          "ticks": 20784,
          "time": 83.8065005,
          "velocity": 0.8346456692913385
        },
        {
          "duration": 0.0040322604166647125,
          "durationTicks": 1,
          "midi": 38,
          "name": "D2",
          "ticks": 20832,
          "time": 84.00004899999999,
          "velocity": 0.8346456692913385
        },
        {
          "duration": 0.0040322604166647125,
          "durationTicks": 1,
          "midi": 37,
          "name": "C#2",
          "ticks": 20832,
          "time": 84.00004899999999,
          "velocity": 0.8346456692913385
        },
        {
          "duration": 0.0040322604166647125,
          "durationTicks": 1,
          "midi": 46,
          "name": "A#2",
          "ticks": 20832,
          "time": 84.00004899999999,
          "velocity": 0.8346456692913385
        },
        {
          "duration": 0.0040322604166647125,
          "durationTicks": 1,
          "midi": 42,
          "name": "F#2",
          "ticks": 20880,
          "time": 84.1935975,
          "velocity": 0.8346456692913385
        },
        {
          "duration": 0.0040322604166647125,
          "durationTicks": 1,
          "midi": 42,
          "name": "F#2",
          "ticks": 20904,
          "time": 84.29037174999999,
          "velocity": 0.8346456692913385
        },
        {
          "duration": 0.0040322604166647125,
          "durationTicks": 1,
          "midi": 45,
          "name": "A2",
          "ticks": 20904,
          "time": 84.29037174999999,
          "velocity": 0.7244094488188977
        },
        {
          "duration": 0.0040322604166647125,
          "durationTicks": 1,
          "midi": 37,
          "name": "C#2",
          "ticks": 20928,
          "time": 84.38714599999999,
          "velocity": 0.8346456692913385
        },
        {
          "duration": 0.0040322604166647125,
          "durationTicks": 1,
          "midi": 42,
          "name": "F#2",
          "ticks": 20928,
          "time": 84.38714599999999,
          "velocity": 0.8346456692913385
        },
        {
          "duration": 0.0040322604166647125,
          "durationTicks": 1,
          "midi": 35,
          "name": "B1",
          "ticks": 20928,
          "time": 84.38714599999999,
          "velocity": 0.8346456692913385
        },
        {
          "duration": 0.0040322604166647125,
          "durationTicks": 1,
          "midi": 41,
          "name": "F2",
          "ticks": 20976,
          "time": 84.58069449999999,
          "velocity": 0.7244094488188977
        },
        {
          "duration": 0.0040322604166647125,
          "durationTicks": 1,
          "midi": 38,
          "name": "D2",
          "ticks": 20976,
          "time": 84.58069449999999,
          "velocity": 0.6141732283464567
        },
        {
          "duration": 0.0040322604166647125,
          "durationTicks": 1,
          "midi": 46,
          "name": "A#2",
          "ticks": 20976,
          "time": 84.58069449999999,
          "velocity": 0.8346456692913385
        },
        {
          "duration": 0.0040322604166647125,
          "durationTicks": 1,
          "midi": 41,
          "name": "F2",
          "ticks": 21000,
          "time": 84.67746874999999,
          "velocity": 0.7244094488188977
        },
        {
          "duration": 0.0040322604166647125,
          "durationTicks": 1,
          "midi": 42,
          "name": "F#2",
          "ticks": 21024,
          "time": 84.774243,
          "velocity": 0.8346456692913385
        },
        {
          "duration": 0.0040322604166647125,
          "durationTicks": 1,
          "midi": 37,
          "name": "C#2",
          "ticks": 21024,
          "time": 84.774243,
          "velocity": 0.8346456692913385
        },
        {
          "duration": 0.0040322604166647125,
          "durationTicks": 1,
          "midi": 38,
          "name": "D2",
          "ticks": 21024,
          "time": 84.774243,
          "velocity": 0.8346456692913385
        },
        {
          "duration": 0.0040322604166647125,
          "durationTicks": 1,
          "midi": 46,
          "name": "A#2",
          "ticks": 21072,
          "time": 84.96779149999999,
          "velocity": 0.8346456692913385
        },
        {
          "duration": 0.0040322604166647125,
          "durationTicks": 1,
          "midi": 38,
          "name": "D2",
          "ticks": 21072,
          "time": 84.96779149999999,
          "velocity": 0.7244094488188977
        },
        {
          "duration": 0.0040322604166647125,
          "durationTicks": 1,
          "midi": 41,
          "name": "F2",
          "ticks": 21072,
          "time": 84.96779149999999,
          "velocity": 0.7244094488188977
        },
        {
          "duration": 0.004032260416650502,
          "durationTicks": 1,
          "midi": 42,
          "name": "F#2",
          "ticks": 21096,
          "time": 85.06456575,
          "velocity": 0.8346456692913385
        },
        {
          "duration": 0.0040322604166647125,
          "durationTicks": 1,
          "midi": 35,
          "name": "B1",
          "ticks": 21120,
          "time": 85.16134,
          "velocity": 0.8346456692913385
        },
        {
          "duration": 0.0040322604166647125,
          "durationTicks": 1,
          "midi": 42,
          "name": "F#2",
          "ticks": 21120,
          "time": 85.16134,
          "velocity": 0.8346456692913385
        },
        {
          "duration": 0.0040322604166647125,
          "durationTicks": 1,
          "midi": 51,
          "name": "D#3",
          "ticks": 21120,
          "time": 85.16134,
          "velocity": 0.8346456692913385
        },
        {
          "duration": 0.0040322604166647125,
          "durationTicks": 1,
          "midi": 37,
          "name": "C#2",
          "ticks": 21120,
          "time": 85.16134,
          "velocity": 0.8346456692913385
        },
        {
          "duration": 0.0040322604166647125,
          "durationTicks": 1,
          "midi": 45,
          "name": "A2",
          "ticks": 21168,
          "time": 85.35488849999999,
          "velocity": 0.7244094488188977
        },
        {
          "duration": 0.0040322604166647125,
          "durationTicks": 1,
          "midi": 42,
          "name": "F#2",
          "ticks": 21168,
          "time": 85.35488849999999,
          "velocity": 0.8346456692913385
        },
        {
          "duration": 0.0040322604166647125,
          "durationTicks": 1,
          "midi": 38,
          "name": "D2",
          "ticks": 21216,
          "time": 85.54843699999999,
          "velocity": 0.9448818897637795
        },
        {
          "duration": 0.0040322604166647125,
          "durationTicks": 1,
          "midi": 38,
          "name": "D2",
          "ticks": 21216,
          "time": 85.54843699999999,
          "velocity": 0.8346456692913385
        },
        {
          "duration": 0.0040322604166647125,
          "durationTicks": 1,
          "midi": 37,
          "name": "C#2",
          "ticks": 21216,
          "time": 85.54843699999999,
          "velocity": 0.8346456692913385
        },
        {
          "duration": 0.0040322604166647125,
          "durationTicks": 1,
          "midi": 46,
          "name": "A#2",
          "ticks": 21216,
          "time": 85.54843699999999,
          "velocity": 0.8346456692913385
        },
        {
          "duration": 0.0040322604166647125,
          "durationTicks": 1,
          "midi": 42,
          "name": "F#2",
          "ticks": 21264,
          "time": 85.7419855,
          "velocity": 0.8346456692913385
        },
        {
          "duration": 0.0040322604166647125,
          "durationTicks": 1,
          "midi": 38,
          "name": "D2",
          "ticks": 21264,
          "time": 85.7419855,
          "velocity": 0.8346456692913385
        },
        {
          "duration": 0.0040322604166647125,
          "durationTicks": 1,
          "midi": 42,
          "name": "F#2",
          "ticks": 21288,
          "time": 85.83875975,
          "velocity": 0.8346456692913385
        },
        {
          "duration": 0.0040322604166647125,
          "durationTicks": 1,
          "midi": 45,
          "name": "A2",
          "ticks": 21288,
          "time": 85.83875975,
          "velocity": 0.7244094488188977
        },
        {
          "duration": 0.0040322604166647125,
          "durationTicks": 1,
          "midi": 37,
          "name": "C#2",
          "ticks": 21312,
          "time": 85.93553399999999,
          "velocity": 0.8346456692913385
        },
        {
          "duration": 0.0040322604166647125,
          "durationTicks": 1,
          "midi": 42,
          "name": "F#2",
          "ticks": 21312,
          "time": 85.93553399999999,
          "velocity": 0.8346456692913385
        },
        {
          "duration": 0.0040322604166647125,
          "durationTicks": 1,
          "midi": 35,
          "name": "B1",
          "ticks": 21312,
          "time": 85.93553399999999,
          "velocity": 0.8346456692913385
        },
        {
          "duration": 0.0040322604166647125,
          "durationTicks": 1,
          "midi": 41,
          "name": "F2",
          "ticks": 21360,
          "time": 86.1290825,
          "velocity": 0.7244094488188977
        },
        {
          "duration": 0.0040322604166647125,
          "durationTicks": 1,
          "midi": 46,
          "name": "A#2",
          "ticks": 21360,
          "time": 86.1290825,
          "velocity": 0.8346456692913385
        },
        {
          "duration": 0.0040322604166647125,
          "durationTicks": 1,
          "midi": 42,
          "name": "F#2",
          "ticks": 21408,
          "time": 86.32263099999999,
          "velocity": 0.8346456692913385
        },
        {
          "duration": 0.0040322604166647125,
          "durationTicks": 1,
          "midi": 37,
          "name": "C#2",
          "ticks": 21408,
          "time": 86.32263099999999,
          "velocity": 0.8346456692913385
        },
        {
          "duration": 0.0040322604166647125,
          "durationTicks": 1,
          "midi": 38,
          "name": "D2",
          "ticks": 21408,
          "time": 86.32263099999999,
          "velocity": 0.8346456692913385
        },
        {
          "duration": 0.0040322604166647125,
          "durationTicks": 1,
          "midi": 46,
          "name": "A#2",
          "ticks": 21456,
          "time": 86.51617949999999,
          "velocity": 0.8346456692913385
        },
        {
          "duration": 0.0040322604166647125,
          "durationTicks": 1,
          "midi": 38,
          "name": "D2",
          "ticks": 21456,
          "time": 86.51617949999999,
          "velocity": 0.8346456692913385
        },
        {
          "duration": 0.0040322604166647125,
          "durationTicks": 1,
          "midi": 45,
          "name": "A2",
          "ticks": 21456,
          "time": 86.51617949999999,
          "velocity": 0.7244094488188977
        },
        {
          "duration": 0.0040322604166647125,
          "durationTicks": 1,
          "midi": 42,
          "name": "F#2",
          "ticks": 21480,
          "time": 86.61295374999999,
          "velocity": 0.8346456692913385
        },
        {
          "duration": 0.0040322604166647125,
          "durationTicks": 1,
          "midi": 37,
          "name": "C#2",
          "ticks": 21504,
          "time": 86.709728,
          "velocity": 0.8346456692913385
        },
        {
          "duration": 0.0040322604166647125,
          "durationTicks": 1,
          "midi": 51,
          "name": "D#3",
          "ticks": 21504,
          "time": 86.709728,
          "velocity": 0.8346456692913385
        },
        {
          "duration": 0.0040322604166647125,
          "durationTicks": 1,
          "midi": 42,
          "name": "F#2",
          "ticks": 21504,
          "time": 86.709728,
          "velocity": 0.8346456692913385
        },
        {
          "duration": 0.0040322604166647125,
          "durationTicks": 1,
          "midi": 35,
          "name": "B1",
          "ticks": 21504,
          "time": 86.709728,
          "velocity": 0.8346456692913385
        },
        {
          "duration": 0.0040322604166647125,
          "durationTicks": 1,
          "midi": 42,
          "name": "F#2",
          "ticks": 21552,
          "time": 86.90327649999999,
          "velocity": 0.8346456692913385
        },
        {
          "duration": 0.0040322604166647125,
          "durationTicks": 1,
          "midi": 45,
          "name": "A2",
          "ticks": 21552,
          "time": 86.90327649999999,
          "velocity": 0.7244094488188977
        },
        {
          "duration": 0.0040322604166647125,
          "durationTicks": 1,
          "midi": 46,
          "name": "A#2",
          "ticks": 21600,
          "time": 87.096825,
          "velocity": 0.8346456692913385
        },
        {
          "duration": 0.0040322604166647125,
          "durationTicks": 1,
          "midi": 37,
          "name": "C#2",
          "ticks": 21600,
          "time": 87.096825,
          "velocity": 0.8346456692913385
        },
        {
          "duration": 0.0040322604166647125,
          "durationTicks": 1,
          "midi": 38,
          "name": "D2",
          "ticks": 21600,
          "time": 87.096825,
          "velocity": 0.8346456692913385
        },
        {
          "duration": 0.0040322604166647125,
          "durationTicks": 1,
          "midi": 41,
          "name": "F2",
          "ticks": 21624,
          "time": 87.19359924999999,
          "velocity": 0.7244094488188977
        },
        {
          "duration": 0.0040322604166647125,
          "durationTicks": 1,
          "midi": 42,
          "name": "F#2",
          "ticks": 21648,
          "time": 87.29037349999999,
          "velocity": 0.8346456692913385
        },
        {
          "duration": 0.0040322604166647125,
          "durationTicks": 1,
          "midi": 42,
          "name": "F#2",
          "ticks": 21672,
          "time": 87.38714775,
          "velocity": 0.8346456692913385
        },
        {
          "duration": 0.0040322604166647125,
          "durationTicks": 1,
          "midi": 48,
          "name": "C3",
          "ticks": 21672,
          "time": 87.38714775,
          "velocity": 0.7244094488188977
        },
        {
          "duration": 0.0040322604166647125,
          "durationTicks": 1,
          "midi": 35,
          "name": "B1",
          "ticks": 21696,
          "time": 87.48392199999999,
          "velocity": 0.8346456692913385
        },
        {
          "duration": 0.0040322604166647125,
          "durationTicks": 1,
          "midi": 42,
          "name": "F#2",
          "ticks": 21696,
          "time": 87.48392199999999,
          "velocity": 0.8346456692913385
        },
        {
          "duration": 0.0040322604166647125,
          "durationTicks": 1,
          "midi": 37,
          "name": "C#2",
          "ticks": 21696,
          "time": 87.48392199999999,
          "velocity": 0.8346456692913385
        },
        {
          "duration": 0.0040322604166647125,
          "durationTicks": 1,
          "midi": 46,
          "name": "A#2",
          "ticks": 21744,
          "time": 87.6774705,
          "velocity": 0.8346456692913385
        },
        {
          "duration": 0.0040322604166647125,
          "durationTicks": 1,
          "midi": 38,
          "name": "D2",
          "ticks": 21744,
          "time": 87.6774705,
          "velocity": 0.6141732283464567
        },
        {
          "duration": 0.0040322604166647125,
          "durationTicks": 1,
          "midi": 38,
          "name": "D2",
          "ticks": 21768,
          "time": 87.77424475,
          "velocity": 0.6141732283464567
        },
        {
          "duration": 0.0040322604166647125,
          "durationTicks": 1,
          "midi": 48,
          "name": "C3",
          "ticks": 21792,
          "time": 87.87101899999999,
          "velocity": 0.7244094488188977
        },
        {
          "duration": 0.0040322604166647125,
          "durationTicks": 1,
          "midi": 38,
          "name": "D2",
          "ticks": 21792,
          "time": 87.87101899999999,
          "velocity": 0.8346456692913385
        },
        {
          "duration": 0.0040322604166647125,
          "durationTicks": 1,
          "midi": 37,
          "name": "C#2",
          "ticks": 21792,
          "time": 87.87101899999999,
          "velocity": 0.8346456692913385
        },
        {
          "duration": 0.0040322604166647125,
          "durationTicks": 1,
          "midi": 42,
          "name": "F#2",
          "ticks": 21792,
          "time": 87.87101899999999,
          "velocity": 0.8346456692913385
        },
        {
          "duration": 0.0040322604166647125,
          "durationTicks": 1,
          "midi": 46,
          "name": "A#2",
          "ticks": 21840,
          "time": 88.0645675,
          "velocity": 0.8346456692913385
        },
        {
          "duration": 0.0040322604166647125,
          "durationTicks": 1,
          "midi": 38,
          "name": "D2",
          "ticks": 21840,
          "time": 88.0645675,
          "velocity": 0.7244094488188977
        },
        {
          "duration": 0.0040322604166647125,
          "durationTicks": 1,
          "midi": 41,
          "name": "F2",
          "ticks": 21840,
          "time": 88.0645675,
          "velocity": 0.7244094488188977
        },
        {
          "duration": 0.0040322604166647125,
          "durationTicks": 1,
          "midi": 42,
          "name": "F#2",
          "ticks": 21864,
          "time": 88.16134174999999,
          "velocity": 0.8346456692913385
        },
        {
          "duration": 0.0040322604166647125,
          "durationTicks": 1,
          "midi": 37,
          "name": "C#2",
          "ticks": 21888,
          "time": 88.25811599999999,
          "velocity": 0.8346456692913385
        },
        {
          "duration": 0.0040322604166647125,
          "durationTicks": 1,
          "midi": 51,
          "name": "D#3",
          "ticks": 21888,
          "time": 88.25811599999999,
          "velocity": 0.8346456692913385
        },
        {
          "duration": 0.0040322604166647125,
          "durationTicks": 1,
          "midi": 42,
          "name": "F#2",
          "ticks": 21888,
          "time": 88.25811599999999,
          "velocity": 0.8346456692913385
        },
        {
          "duration": 0.0040322604166647125,
          "durationTicks": 1,
          "midi": 35,
          "name": "B1",
          "ticks": 21888,
          "time": 88.25811599999999,
          "velocity": 0.8346456692913385
        },
        {
          "duration": 0.0040322604166647125,
          "durationTicks": 1,
          "midi": 42,
          "name": "F#2",
          "ticks": 21936,
          "time": 88.45166449999999,
          "velocity": 0.8346456692913385
        },
        {
          "duration": 0.0040322604166647125,
          "durationTicks": 1,
          "midi": 45,
          "name": "A2",
          "ticks": 21936,
          "time": 88.45166449999999,
          "velocity": 0.7244094488188977
        },
        {
          "duration": 0.0040322604166647125,
          "durationTicks": 1,
          "midi": 38,
          "name": "D2",
          "ticks": 21984,
          "time": 88.645213,
          "velocity": 0.9448818897637795
        },
        {
          "duration": 0.0040322604166647125,
          "durationTicks": 1,
          "midi": 38,
          "name": "D2",
          "ticks": 21984,
          "time": 88.645213,
          "velocity": 0.8346456692913385
        },
        {
          "duration": 0.0040322604166647125,
          "durationTicks": 1,
          "midi": 37,
          "name": "C#2",
          "ticks": 21984,
          "time": 88.645213,
          "velocity": 0.8346456692913385
        },
        {
          "duration": 0.0040322604166647125,
          "durationTicks": 1,
          "midi": 46,
          "name": "A#2",
          "ticks": 21984,
          "time": 88.645213,
          "velocity": 0.8346456692913385
        },
        {
          "duration": 0.0040322604166647125,
          "durationTicks": 1,
          "midi": 38,
          "name": "D2",
          "ticks": 22032,
          "time": 88.83876149999999,
          "velocity": 0.8346456692913385
        },
        {
          "duration": 0.0040322604166647125,
          "durationTicks": 1,
          "midi": 42,
          "name": "F#2",
          "ticks": 22032,
          "time": 88.83876149999999,
          "velocity": 0.8346456692913385
        },
        {
          "duration": 0.004032260416650502,
          "durationTicks": 1,
          "midi": 45,
          "name": "A2",
          "ticks": 22056,
          "time": 88.93553575,
          "velocity": 0.7244094488188977
        },
        {
          "duration": 0.004032260416650502,
          "durationTicks": 1,
          "midi": 42,
          "name": "F#2",
          "ticks": 22056,
          "time": 88.93553575,
          "velocity": 0.8346456692913385
        },
        {
          "duration": 0.0040322604166647125,
          "durationTicks": 1,
          "midi": 35,
          "name": "B1",
          "ticks": 22080,
          "time": 89.03231,
          "velocity": 0.8346456692913385
        },
        {
          "duration": 0.0040322604166647125,
          "durationTicks": 1,
          "midi": 42,
          "name": "F#2",
          "ticks": 22080,
          "time": 89.03231,
          "velocity": 0.8346456692913385
        },
        {
          "duration": 0.0040322604166647125,
          "durationTicks": 1,
          "midi": 37,
          "name": "C#2",
          "ticks": 22080,
          "time": 89.03231,
          "velocity": 0.8346456692913385
        },
        {
          "duration": 0.0040322604166647125,
          "durationTicks": 1,
          "midi": 41,
          "name": "F2",
          "ticks": 22128,
          "time": 89.22585849999999,
          "velocity": 0.7244094488188977
        },
        {
          "duration": 0.0040322604166647125,
          "durationTicks": 1,
          "midi": 46,
          "name": "A#2",
          "ticks": 22128,
          "time": 89.22585849999999,
          "velocity": 0.8346456692913385
        },
        {
          "duration": 0.0040322604166647125,
          "durationTicks": 1,
          "midi": 42,
          "name": "F#2",
          "ticks": 22176,
          "time": 89.41940699999999,
          "velocity": 0.8346456692913385
        },
        {
          "duration": 0.0040322604166647125,
          "durationTicks": 1,
          "midi": 37,
          "name": "C#2",
          "ticks": 22176,
          "time": 89.41940699999999,
          "velocity": 0.8346456692913385
        },
        {
          "duration": 0.0040322604166647125,
          "durationTicks": 1,
          "midi": 38,
          "name": "D2",
          "ticks": 22176,
          "time": 89.41940699999999,
          "velocity": 0.8346456692913385
        },
        {
          "duration": 0.004032260416650502,
          "durationTicks": 1,
          "midi": 46,
          "name": "A#2",
          "ticks": 22224,
          "time": 89.6129555,
          "velocity": 0.8346456692913385
        },
        {
          "duration": 0.004032260416650502,
          "durationTicks": 1,
          "midi": 38,
          "name": "D2",
          "ticks": 22224,
          "time": 89.6129555,
          "velocity": 0.8346456692913385
        },
        {
          "duration": 0.004032260416650502,
          "durationTicks": 1,
          "midi": 45,
          "name": "A2",
          "ticks": 22224,
          "time": 89.6129555,
          "velocity": 0.7244094488188977
        },
        {
          "duration": 0.0040322604166647125,
          "durationTicks": 1,
          "midi": 42,
          "name": "F#2",
          "ticks": 22248,
          "time": 89.70972975,
          "velocity": 0.8346456692913385
        },
        {
          "duration": 0.0040322604166647125,
          "durationTicks": 1,
          "midi": 37,
          "name": "C#2",
          "ticks": 22272,
          "time": 89.80650399999999,
          "velocity": 0.8346456692913385
        },
        {
          "duration": 0.0040322604166647125,
          "durationTicks": 1,
          "midi": 51,
          "name": "D#3",
          "ticks": 22272,
          "time": 89.80650399999999,
          "velocity": 0.8346456692913385
        },
        {
          "duration": 0.0040322604166647125,
          "durationTicks": 1,
          "midi": 42,
          "name": "F#2",
          "ticks": 22272,
          "time": 89.80650399999999,
          "velocity": 0.8346456692913385
        },
        {
          "duration": 0.0040322604166647125,
          "durationTicks": 1,
          "midi": 35,
          "name": "B1",
          "ticks": 22272,
          "time": 89.80650399999999,
          "velocity": 0.8346456692913385
        },
        {
          "duration": 0.0040322604166647125,
          "durationTicks": 1,
          "midi": 45,
          "name": "A2",
          "ticks": 22320,
          "time": 90.0000525,
          "velocity": 0.7244094488188977
        },
        {
          "duration": 0.0040322604166647125,
          "durationTicks": 1,
          "midi": 42,
          "name": "F#2",
          "ticks": 22320,
          "time": 90.0000525,
          "velocity": 0.8346456692913385
        },
        {
          "duration": 0.0040322604166647125,
          "durationTicks": 1,
          "midi": 46,
          "name": "A#2",
          "ticks": 22368,
          "time": 90.19360099999999,
          "velocity": 0.8346456692913385
        },
        {
          "duration": 0.0040322604166647125,
          "durationTicks": 1,
          "midi": 37,
          "name": "C#2",
          "ticks": 22368,
          "time": 90.19360099999999,
          "velocity": 0.8346456692913385
        },
        {
          "duration": 0.0040322604166647125,
          "durationTicks": 1,
          "midi": 38,
          "name": "D2",
          "ticks": 22368,
          "time": 90.19360099999999,
          "velocity": 0.8346456692913385
        },
        {
          "duration": 0.0040322604166647125,
          "durationTicks": 1,
          "midi": 41,
          "name": "F2",
          "ticks": 22392,
          "time": 90.29037525,
          "velocity": 0.7244094488188977
        },
        {
          "duration": 0.0040322604166647125,
          "durationTicks": 1,
          "midi": 42,
          "name": "F#2",
          "ticks": 22416,
          "time": 90.38714949999999,
          "velocity": 0.8346456692913385
        },
        {
          "duration": 0.0040322604166647125,
          "durationTicks": 1,
          "midi": 42,
          "name": "F#2",
          "ticks": 22440,
          "time": 90.48392374999999,
          "velocity": 0.8346456692913385
        },
        {
          "duration": 0.0040322604166647125,
          "durationTicks": 1,
          "midi": 48,
          "name": "C3",
          "ticks": 22440,
          "time": 90.48392374999999,
          "velocity": 0.7244094488188977
        },
        {
          "duration": 0.004032260416650502,
          "durationTicks": 1,
          "midi": 37,
          "name": "C#2",
          "ticks": 22464,
          "time": 90.580698,
          "velocity": 0.8346456692913385
        },
        {
          "duration": 0.004032260416650502,
          "durationTicks": 1,
          "midi": 42,
          "name": "F#2",
          "ticks": 22464,
          "time": 90.580698,
          "velocity": 0.8346456692913385
        },
        {
          "duration": 0.004032260416650502,
          "durationTicks": 1,
          "midi": 35,
          "name": "B1",
          "ticks": 22464,
          "time": 90.580698,
          "velocity": 0.8346456692913385
        },
        {
          "duration": 0.0040322604166647125,
          "durationTicks": 1,
          "midi": 38,
          "name": "D2",
          "ticks": 22512,
          "time": 90.77424649999999,
          "velocity": 0.6141732283464567
        },
        {
          "duration": 0.0040322604166647125,
          "durationTicks": 1,
          "midi": 46,
          "name": "A#2",
          "ticks": 22512,
          "time": 90.77424649999999,
          "velocity": 0.8346456692913385
        },
        {
          "duration": 0.004032260416650502,
          "durationTicks": 1,
          "midi": 38,
          "name": "D2",
          "ticks": 22536,
          "time": 90.87102075,
          "velocity": 0.6141732283464567
        },
        {
          "duration": 0.0040322604166647125,
          "durationTicks": 1,
          "midi": 42,
          "name": "F#2",
          "ticks": 22560,
          "time": 90.967795,
          "velocity": 0.8346456692913385
        },
        {
          "duration": 0.0040322604166647125,
          "durationTicks": 1,
          "midi": 37,
          "name": "C#2",
          "ticks": 22560,
          "time": 90.967795,
          "velocity": 0.8346456692913385
        },
        {
          "duration": 0.0040322604166647125,
          "durationTicks": 1,
          "midi": 38,
          "name": "D2",
          "ticks": 22560,
          "time": 90.967795,
          "velocity": 0.8346456692913385
        },
        {
          "duration": 0.0040322604166647125,
          "durationTicks": 1,
          "midi": 48,
          "name": "C3",
          "ticks": 22560,
          "time": 90.967795,
          "velocity": 0.7244094488188977
        },
        {
          "duration": 0.0040322604166647125,
          "durationTicks": 1,
          "midi": 46,
          "name": "A#2",
          "ticks": 22608,
          "time": 91.16134349999999,
          "velocity": 0.8346456692913385
        },
        {
          "duration": 0.0040322604166647125,
          "durationTicks": 1,
          "midi": 38,
          "name": "D2",
          "ticks": 22608,
          "time": 91.16134349999999,
          "velocity": 0.7244094488188977
        },
        {
          "duration": 0.0040322604166647125,
          "durationTicks": 1,
          "midi": 41,
          "name": "F2",
          "ticks": 22608,
          "time": 91.16134349999999,
          "velocity": 0.7244094488188977
        },
        {
          "duration": 0.0040322604166647125,
          "durationTicks": 1,
          "midi": 42,
          "name": "F#2",
          "ticks": 22632,
          "time": 91.25811775,
          "velocity": 0.8346456692913385
        },
        {
          "duration": 0.0040322604166647125,
          "durationTicks": 1,
          "midi": 37,
          "name": "C#2",
          "ticks": 22656,
          "time": 91.35489199999999,
          "velocity": 0.8346456692913385
        },
        {
          "duration": 0.0040322604166647125,
          "durationTicks": 1,
          "midi": 51,
          "name": "D#3",
          "ticks": 22656,
          "time": 91.35489199999999,
          "velocity": 0.8346456692913385
        },
        {
          "duration": 0.0040322604166647125,
          "durationTicks": 1,
          "midi": 42,
          "name": "F#2",
          "ticks": 22656,
          "time": 91.35489199999999,
          "velocity": 0.8346456692913385
        },
        {
          "duration": 0.0040322604166647125,
          "durationTicks": 1,
          "midi": 35,
          "name": "B1",
          "ticks": 22656,
          "time": 91.35489199999999,
          "velocity": 0.8346456692913385
        },
        {
          "duration": 0.004032260416650502,
          "durationTicks": 1,
          "midi": 45,
          "name": "A2",
          "ticks": 22704,
          "time": 91.5484405,
          "velocity": 0.7244094488188977
        },
        {
          "duration": 0.004032260416650502,
          "durationTicks": 1,
          "midi": 42,
          "name": "F#2",
          "ticks": 22704,
          "time": 91.5484405,
          "velocity": 0.8346456692913385
        },
        {
          "duration": 0.0040322604166647125,
          "durationTicks": 1,
          "midi": 46,
          "name": "A#2",
          "ticks": 22752,
          "time": 91.74198899999999,
          "velocity": 0.8346456692913385
        },
        {
          "duration": 0.0040322604166647125,
          "durationTicks": 1,
          "midi": 37,
          "name": "C#2",
          "ticks": 22752,
          "time": 91.74198899999999,
          "velocity": 0.8346456692913385
        },
        {
          "duration": 0.0040322604166647125,
          "durationTicks": 1,
          "midi": 38,
          "name": "D2",
          "ticks": 22752,
          "time": 91.74198899999999,
          "velocity": 0.8346456692913385
        },
        {
          "duration": 0.0040322604166647125,
          "durationTicks": 1,
          "midi": 38,
          "name": "D2",
          "ticks": 22752,
          "time": 91.74198899999999,
          "velocity": 0.9448818897637795
        },
        {
          "duration": 0.0040322604166647125,
          "durationTicks": 1,
          "midi": 42,
          "name": "F#2",
          "ticks": 22800,
          "time": 91.9355375,
          "velocity": 0.8346456692913385
        },
        {
          "duration": 0.0040322604166647125,
          "durationTicks": 1,
          "midi": 38,
          "name": "D2",
          "ticks": 22800,
          "time": 91.9355375,
          "velocity": 0.8346456692913385
        },
        {
          "duration": 0.0040322604166647125,
          "durationTicks": 1,
          "midi": 42,
          "name": "F#2",
          "ticks": 22824,
          "time": 92.03231174999999,
          "velocity": 0.8346456692913385
        },
        {
          "duration": 0.0040322604166647125,
          "durationTicks": 1,
          "midi": 45,
          "name": "A2",
          "ticks": 22824,
          "time": 92.03231174999999,
          "velocity": 0.7244094488188977
        },
        {
          "duration": 0.0040322604166647125,
          "durationTicks": 1,
          "midi": 37,
          "name": "C#2",
          "ticks": 22848,
          "time": 92.12908599999999,
          "velocity": 0.8346456692913385
        },
        {
          "duration": 0.0040322604166647125,
          "durationTicks": 1,
          "midi": 42,
          "name": "F#2",
          "ticks": 22848,
          "time": 92.12908599999999,
          "velocity": 0.8346456692913385
        },
        {
          "duration": 0.0040322604166647125,
          "durationTicks": 1,
          "midi": 35,
          "name": "B1",
          "ticks": 22848,
          "time": 92.12908599999999,
          "velocity": 0.8346456692913385
        },
        {
          "duration": 0.0040322604166647125,
          "durationTicks": 1,
          "midi": 41,
          "name": "F2",
          "ticks": 22896,
          "time": 92.32263449999999,
          "velocity": 0.7244094488188977
        },
        {
          "duration": 0.0040322604166647125,
          "durationTicks": 1,
          "midi": 46,
          "name": "A#2",
          "ticks": 22896,
          "time": 92.32263449999999,
          "velocity": 0.8346456692913385
        },
        {
          "duration": 0.004032260416650502,
          "durationTicks": 1,
          "midi": 42,
          "name": "F#2",
          "ticks": 22944,
          "time": 92.516183,
          "velocity": 0.8346456692913385
        },
        {
          "duration": 0.004032260416650502,
          "durationTicks": 1,
          "midi": 37,
          "name": "C#2",
          "ticks": 22944,
          "time": 92.516183,
          "velocity": 0.8346456692913385
        },
        {
          "duration": 0.004032260416650502,
          "durationTicks": 1,
          "midi": 38,
          "name": "D2",
          "ticks": 22944,
          "time": 92.516183,
          "velocity": 0.8346456692913385
        },
        {
          "duration": 0.0040322604166647125,
          "durationTicks": 1,
          "midi": 45,
          "name": "A2",
          "ticks": 22992,
          "time": 92.70973149999999,
          "velocity": 0.7244094488188977
        },
        {
          "duration": 0.0040322604166647125,
          "durationTicks": 1,
          "midi": 38,
          "name": "D2",
          "ticks": 22992,
          "time": 92.70973149999999,
          "velocity": 0.8346456692913385
        },
        {
          "duration": 0.0040322604166647125,
          "durationTicks": 1,
          "midi": 46,
          "name": "A#2",
          "ticks": 22992,
          "time": 92.70973149999999,
          "velocity": 0.8346456692913385
        },
        {
          "duration": 0.004032260416650502,
          "durationTicks": 1,
          "midi": 42,
          "name": "F#2",
          "ticks": 23016,
          "time": 92.80650575,
          "velocity": 0.8346456692913385
        },
        {
          "duration": 0.0040322604166647125,
          "durationTicks": 1,
          "midi": 37,
          "name": "C#2",
          "ticks": 23040,
          "time": 92.90328,
          "velocity": 0.8346456692913385
        },
        {
          "duration": 0.0040322604166647125,
          "durationTicks": 1,
          "midi": 51,
          "name": "D#3",
          "ticks": 23040,
          "time": 92.90328,
          "velocity": 0.8346456692913385
        },
        {
          "duration": 0.0040322604166647125,
          "durationTicks": 1,
          "midi": 42,
          "name": "F#2",
          "ticks": 23040,
          "time": 92.90328,
          "velocity": 0.8346456692913385
        },
        {
          "duration": 0.0040322604166647125,
          "durationTicks": 1,
          "midi": 35,
          "name": "B1",
          "ticks": 23040,
          "time": 92.90328,
          "velocity": 0.8346456692913385
        },
        {
          "duration": 0.0040322604166647125,
          "durationTicks": 1,
          "midi": 42,
          "name": "F#2",
          "ticks": 23088,
          "time": 93.09682849999999,
          "velocity": 0.8346456692913385
        },
        {
          "duration": 0.0040322604166647125,
          "durationTicks": 1,
          "midi": 45,
          "name": "A2",
          "ticks": 23088,
          "time": 93.09682849999999,
          "velocity": 0.7244094488188977
        },
        {
          "duration": 0.0040322604166647125,
          "durationTicks": 1,
          "midi": 46,
          "name": "A#2",
          "ticks": 23136,
          "time": 93.29037699999999,
          "velocity": 0.8346456692913385
        },
        {
          "duration": 0.0040322604166647125,
          "durationTicks": 1,
          "midi": 37,
          "name": "C#2",
          "ticks": 23136,
          "time": 93.29037699999999,
          "velocity": 0.8346456692913385
        },
        {
          "duration": 0.0040322604166647125,
          "durationTicks": 1,
          "midi": 38,
          "name": "D2",
          "ticks": 23136,
          "time": 93.29037699999999,
          "velocity": 0.8346456692913385
        },
        {
          "duration": 0.0040322604166647125,
          "durationTicks": 1,
          "midi": 41,
          "name": "F2",
          "ticks": 23160,
          "time": 93.38715124999999,
          "velocity": 0.7244094488188977
        },
        {
          "duration": 0.004032260416650502,
          "durationTicks": 1,
          "midi": 42,
          "name": "F#2",
          "ticks": 23184,
          "time": 93.4839255,
          "velocity": 0.8346456692913385
        },
        {
          "duration": 0.0040322604166647125,
          "durationTicks": 1,
          "midi": 42,
          "name": "F#2",
          "ticks": 23208,
          "time": 93.58069975,
          "velocity": 0.8346456692913385
        },
        {
          "duration": 0.0040322604166647125,
          "durationTicks": 1,
          "midi": 48,
          "name": "C3",
          "ticks": 23208,
          "time": 93.58069975,
          "velocity": 0.7244094488188977
        },
        {
          "duration": 0.0040322604166647125,
          "durationTicks": 1,
          "midi": 35,
          "name": "B1",
          "ticks": 23232,
          "time": 93.67747399999999,
          "velocity": 0.8346456692913385
        },
        {
          "duration": 0.0040322604166647125,
          "durationTicks": 1,
          "midi": 42,
          "name": "F#2",
          "ticks": 23232,
          "time": 93.67747399999999,
          "velocity": 0.8346456692913385
        },
        {
          "duration": 0.0040322604166647125,
          "durationTicks": 1,
          "midi": 37,
          "name": "C#2",
          "ticks": 23232,
          "time": 93.67747399999999,
          "velocity": 0.8346456692913385
        },
        {
          "duration": 0.0040322604166647125,
          "durationTicks": 1,
          "midi": 38,
          "name": "D2",
          "ticks": 23280,
          "time": 93.8710225,
          "velocity": 0.6141732283464567
        },
        {
          "duration": 0.0040322604166647125,
          "durationTicks": 1,
          "midi": 46,
          "name": "A#2",
          "ticks": 23280,
          "time": 93.8710225,
          "velocity": 0.8346456692913385
        },
        {
          "duration": 0.0040322604166647125,
          "durationTicks": 1,
          "midi": 38,
          "name": "D2",
          "ticks": 23304,
          "time": 93.96779674999999,
          "velocity": 0.6141732283464567
        },
        {
          "duration": 0.0040322604166647125,
          "durationTicks": 1,
          "midi": 42,
          "name": "F#2",
          "ticks": 23328,
          "time": 94.06457099999999,
          "velocity": 0.8346456692913385
        },
        {
          "duration": 0.0040322604166647125,
          "durationTicks": 1,
          "midi": 37,
          "name": "C#2",
          "ticks": 23328,
          "time": 94.06457099999999,
          "velocity": 0.8346456692913385
        },
        {
          "duration": 0.0040322604166647125,
          "durationTicks": 1,
          "midi": 38,
          "name": "D2",
          "ticks": 23328,
          "time": 94.06457099999999,
          "velocity": 0.8346456692913385
        },
        {
          "duration": 0.0040322604166647125,
          "durationTicks": 1,
          "midi": 48,
          "name": "C3",
          "ticks": 23328,
          "time": 94.06457099999999,
          "velocity": 0.7244094488188977
        },
        {
          "duration": 0.0040322604166647125,
          "durationTicks": 1,
          "midi": 41,
          "name": "F2",
          "ticks": 23376,
          "time": 94.25811949999999,
          "velocity": 0.7244094488188977
        },
        {
          "duration": 0.0040322604166647125,
          "durationTicks": 1,
          "midi": 38,
          "name": "D2",
          "ticks": 23376,
          "time": 94.25811949999999,
          "velocity": 0.7244094488188977
        },
        {
          "duration": 0.0040322604166647125,
          "durationTicks": 1,
          "midi": 46,
          "name": "A#2",
          "ticks": 23376,
          "time": 94.25811949999999,
          "velocity": 0.8346456692913385
        },
        {
          "duration": 0.0040322604166647125,
          "durationTicks": 1,
          "midi": 42,
          "name": "F#2",
          "ticks": 23400,
          "time": 94.35489374999999,
          "velocity": 0.8346456692913385
        },
        {
          "duration": 0.004032260416650502,
          "durationTicks": 1,
          "midi": 35,
          "name": "B1",
          "ticks": 23424,
          "time": 94.451668,
          "velocity": 0.8346456692913385
        },
        {
          "duration": 0.004032260416650502,
          "durationTicks": 1,
          "midi": 42,
          "name": "F#2",
          "ticks": 23424,
          "time": 94.451668,
          "velocity": 0.8346456692913385
        },
        {
          "duration": 0.004032260416650502,
          "durationTicks": 1,
          "midi": 51,
          "name": "D#3",
          "ticks": 23424,
          "time": 94.451668,
          "velocity": 0.8346456692913385
        },
        {
          "duration": 0.004032260416650502,
          "durationTicks": 1,
          "midi": 37,
          "name": "C#2",
          "ticks": 23424,
          "time": 94.451668,
          "velocity": 0.8346456692913385
        },
        {
          "duration": 0.0040322604166647125,
          "durationTicks": 1,
          "midi": 45,
          "name": "A2",
          "ticks": 23472,
          "time": 94.64521649999999,
          "velocity": 0.7244094488188977
        },
        {
          "duration": 0.0040322604166647125,
          "durationTicks": 1,
          "midi": 42,
          "name": "F#2",
          "ticks": 23472,
          "time": 94.64521649999999,
          "velocity": 0.8346456692913385
        },
        {
          "duration": 0.0040322604166647125,
          "durationTicks": 1,
          "midi": 38,
          "name": "D2",
          "ticks": 23520,
          "time": 94.838765,
          "velocity": 0.9448818897637795
        },
        {
          "duration": 0.0040322604166647125,
          "durationTicks": 1,
          "midi": 38,
          "name": "D2",
          "ticks": 23520,
          "time": 94.838765,
          "velocity": 0.8346456692913385
        },
        {
          "duration": 0.0040322604166647125,
          "durationTicks": 1,
          "midi": 37,
          "name": "C#2",
          "ticks": 23520,
          "time": 94.838765,
          "velocity": 0.8346456692913385
        },
        {
          "duration": 0.0040322604166647125,
          "durationTicks": 1,
          "midi": 46,
          "name": "A#2",
          "ticks": 23520,
          "time": 94.838765,
          "velocity": 0.8346456692913385
        },
        {
          "duration": 0.0040322604166647125,
          "durationTicks": 1,
          "midi": 38,
          "name": "D2",
          "ticks": 23568,
          "time": 95.03231349999999,
          "velocity": 0.8346456692913385
        },
        {
          "duration": 0.0040322604166647125,
          "durationTicks": 1,
          "midi": 42,
          "name": "F#2",
          "ticks": 23568,
          "time": 95.03231349999999,
          "velocity": 0.8346456692913385
        },
        {
          "duration": 0.0040322604166647125,
          "durationTicks": 1,
          "midi": 45,
          "name": "A2",
          "ticks": 23592,
          "time": 95.12908775,
          "velocity": 0.7244094488188977
        },
        {
          "duration": 0.0040322604166647125,
          "durationTicks": 1,
          "midi": 42,
          "name": "F#2",
          "ticks": 23592,
          "time": 95.12908775,
          "velocity": 0.8346456692913385
        },
        {
          "duration": 0.0040322604166647125,
          "durationTicks": 1,
          "midi": 37,
          "name": "C#2",
          "ticks": 23616,
          "time": 95.22586199999999,
          "velocity": 0.8346456692913385
        },
        {
          "duration": 0.0040322604166647125,
          "durationTicks": 1,
          "midi": 42,
          "name": "F#2",
          "ticks": 23616,
          "time": 95.22586199999999,
          "velocity": 0.8346456692913385
        },
        {
          "duration": 0.0040322604166647125,
          "durationTicks": 1,
          "midi": 35,
          "name": "B1",
          "ticks": 23616,
          "time": 95.22586199999999,
          "velocity": 0.8346456692913385
        },
        {
          "duration": 0.004032260416650502,
          "durationTicks": 1,
          "midi": 46,
          "name": "A#2",
          "ticks": 23664,
          "time": 95.4194105,
          "velocity": 0.8346456692913385
        },
        {
          "duration": 0.004032260416650502,
          "durationTicks": 1,
          "midi": 41,
          "name": "F2",
          "ticks": 23664,
          "time": 95.4194105,
          "velocity": 0.7244094488188977
        },
        {
          "duration": 0.0040322604166647125,
          "durationTicks": 1,
          "midi": 38,
          "name": "D2",
          "ticks": 23712,
          "time": 95.61295899999999,
          "velocity": 0.8346456692913385
        },
        {
          "duration": 0.0040322604166647125,
          "durationTicks": 1,
          "midi": 37,
          "name": "C#2",
          "ticks": 23712,
          "time": 95.61295899999999,
          "velocity": 0.8346456692913385
        },
        {
          "duration": 0.0040322604166647125,
          "durationTicks": 1,
          "midi": 42,
          "name": "F#2",
          "ticks": 23712,
          "time": 95.61295899999999,
          "velocity": 0.8346456692913385
        },
        {
          "duration": 0.0040322604166647125,
          "durationTicks": 1,
          "midi": 46,
          "name": "A#2",
          "ticks": 23760,
          "time": 95.8065075,
          "velocity": 0.8346456692913385
        },
        {
          "duration": 0.0040322604166647125,
          "durationTicks": 1,
          "midi": 38,
          "name": "D2",
          "ticks": 23760,
          "time": 95.8065075,
          "velocity": 0.8346456692913385
        },
        {
          "duration": 0.0040322604166647125,
          "durationTicks": 1,
          "midi": 45,
          "name": "A2",
          "ticks": 23760,
          "time": 95.8065075,
          "velocity": 0.7244094488188977
        },
        {
          "duration": 0.0040322604166647125,
          "durationTicks": 1,
          "midi": 42,
          "name": "F#2",
          "ticks": 23784,
          "time": 95.90328174999999,
          "velocity": 0.8346456692913385
        },
        {
          "duration": 0.0040322604166647125,
          "durationTicks": 1,
          "midi": 35,
          "name": "B1",
          "ticks": 24000,
          "time": 96.77425,
          "velocity": 0.8346456692913385
        },
        {
          "duration": 0.0040322604166647125,
          "durationTicks": 1,
          "midi": 42,
          "name": "F#2",
          "ticks": 24000,
          "time": 96.77425,
          "velocity": 0.8346456692913385
        },
        {
          "duration": 0.0040322604166647125,
          "durationTicks": 1,
          "midi": 51,
          "name": "D#3",
          "ticks": 24000,
          "time": 96.77425,
          "velocity": 0.9448818897637795
        },
        {
          "duration": 0.0040322604166647125,
          "durationTicks": 1,
          "midi": 35,
          "name": "B1",
          "ticks": 24192,
          "time": 97.54844399999999,
          "velocity": 0.8346456692913385
        },
        {
          "duration": 0.0040322604166647125,
          "durationTicks": 1,
          "midi": 42,
          "name": "F#2",
          "ticks": 24192,
          "time": 97.54844399999999,
          "velocity": 0.8346456692913385
        },
        {
          "duration": 0.0040322604166647125,
          "durationTicks": 1,
          "midi": 51,
          "name": "D#3",
          "ticks": 24192,
          "time": 97.54844399999999,
          "velocity": 0.9448818897637795
        },
        {
          "duration": 0.0040322604166647125,
          "durationTicks": 1,
          "midi": 46,
          "name": "A#2",
          "ticks": 24336,
          "time": 98.12908949999999,
          "velocity": 0.8346456692913385
        },
        {
          "duration": 0.004032260416650502,
          "durationTicks": 1,
          "midi": 51,
          "name": "D#3",
          "ticks": 24384,
          "time": 98.322638,
          "velocity": 0.9448818897637795
        },
        {
          "duration": 0.004032260416650502,
          "durationTicks": 1,
          "midi": 42,
          "name": "F#2",
          "ticks": 24384,
          "time": 98.322638,
          "velocity": 0.8346456692913385
        },
        {
          "duration": 0.004032260416650502,
          "durationTicks": 1,
          "midi": 35,
          "name": "B1",
          "ticks": 24384,
          "time": 98.322638,
          "velocity": 0.8346456692913385
        },
        {
          "duration": 0.0040322604166647125,
          "durationTicks": 1,
          "midi": 42,
          "name": "F#2",
          "ticks": 24480,
          "time": 98.709735,
          "velocity": 0.7244094488188977
        },
        {
          "duration": 0.0040322604166647125,
          "durationTicks": 1,
          "midi": 35,
          "name": "B1",
          "ticks": 24480,
          "time": 98.709735,
          "velocity": 0.8346456692913385
        },
        {
          "duration": 0.0040322604166647125,
          "durationTicks": 1,
          "midi": 42,
          "name": "F#2",
          "ticks": 24504,
          "time": 98.80650924999999,
          "velocity": 0.7244094488188977
        },
        {
          "duration": 0.0040322604166647125,
          "durationTicks": 1,
          "midi": 42,
          "name": "F#2",
          "ticks": 24528,
          "time": 98.90328349999999,
          "velocity": 0.7244094488188977
        },
        {
          "duration": 0.0040322604166647125,
          "durationTicks": 1,
          "midi": 46,
          "name": "A#2",
          "ticks": 24528,
          "time": 98.90328349999999,
          "velocity": 0.8346456692913385
        },
        {
          "duration": 0.004032260416678923,
          "durationTicks": 1,
          "midi": 35,
          "name": "B1",
          "ticks": 24576,
          "time": 99.09683199999999,
          "velocity": 0.8346456692913385
        },
        {
          "duration": 0.004032260416678923,
          "durationTicks": 1,
          "midi": 42,
          "name": "F#2",
          "ticks": 24576,
          "time": 99.09683199999999,
          "velocity": 0.8346456692913385
        },
        {
          "duration": 0.0040322604166647125,
          "durationTicks": 1,
          "midi": 38,
          "name": "D2",
          "ticks": 24624,
          "time": 99.2903805,
          "velocity": 0.6141732283464567
        },
        {
          "duration": 0.0040322604166647125,
          "durationTicks": 1,
          "midi": 46,
          "name": "A#2",
          "ticks": 24624,
          "time": 99.2903805,
          "velocity": 0.8346456692913385
        },
        {
          "duration": 0.004032260416678923,
          "durationTicks": 1,
          "midi": 38,
          "name": "D2",
          "ticks": 24648,
          "time": 99.38715475,
          "velocity": 0.8346456692913385
        },
        {
          "duration": 0.004032260416678923,
          "durationTicks": 1,
          "midi": 42,
          "name": "F#2",
          "ticks": 24672,
          "time": 99.48392899999999,
          "velocity": 0.8346456692913385
        },
        {
          "duration": 0.004032260416678923,
          "durationTicks": 1,
          "midi": 35,
          "name": "B1",
          "ticks": 24672,
          "time": 99.48392899999999,
          "velocity": 0.8346456692913385
        },
        {
          "duration": 0.004032260416678923,
          "durationTicks": 1,
          "midi": 38,
          "name": "D2",
          "ticks": 24696,
          "time": 99.58070324999998,
          "velocity": 0.9448818897637795
        },
        {
          "duration": 0.0040322604166647125,
          "durationTicks": 1,
          "midi": 46,
          "name": "A#2",
          "ticks": 24720,
          "time": 99.6774775,
          "velocity": 0.8346456692913385
        },
        {
          "duration": 0.004032260416678923,
          "durationTicks": 1,
          "midi": 38,
          "name": "D2",
          "ticks": 24744,
          "time": 99.77425174999999,
          "velocity": 0.8346456692913385
        },
        {
          "duration": 0.004032260416678923,
          "durationTicks": 1,
          "midi": 51,
          "name": "D#3",
          "ticks": 24768,
          "time": 99.87102599999999,
          "velocity": 0.9448818897637795
        },
        {
          "duration": 0.004032260416678923,
          "durationTicks": 1,
          "midi": 42,
          "name": "F#2",
          "ticks": 24768,
          "time": 99.87102599999999,
          "velocity": 0.8346456692913385
        },
        {
          "duration": 0.004032260416678923,
          "durationTicks": 1,
          "midi": 35,
          "name": "B1",
          "ticks": 24768,
          "time": 99.87102599999999,
          "velocity": 0.8346456692913385
        },
        {
          "duration": 0.004032260416678923,
          "durationTicks": 1,
          "midi": 46,
          "name": "A#2",
          "ticks": 24816,
          "time": 100.06457449999999,
          "velocity": 0.8346456692913385
        },
        {
          "duration": 0.0040322604166647125,
          "durationTicks": 1,
          "midi": 42,
          "name": "F#2",
          "ticks": 24864,
          "time": 100.258123,
          "velocity": 0.8346456692913385
        },
        {
          "duration": 0.0040322604166647125,
          "durationTicks": 1,
          "midi": 35,
          "name": "B1",
          "ticks": 24864,
          "time": 100.258123,
          "velocity": 0.8346456692913385
        },
        {
          "duration": 0.004032260416678923,
          "durationTicks": 1,
          "midi": 46,
          "name": "A#2",
          "ticks": 24912,
          "time": 100.45167149999999,
          "velocity": 0.8346456692913385
        },
        {
          "duration": 0.0040322604166647125,
          "durationTicks": 1,
          "midi": 35,
          "name": "B1",
          "ticks": 24960,
          "time": 100.64522,
          "velocity": 0.8346456692913385
        },
        {
          "duration": 0.0040322604166647125,
          "durationTicks": 1,
          "midi": 42,
          "name": "F#2",
          "ticks": 24960,
          "time": 100.64522,
          "velocity": 0.8346456692913385
        },
        {
          "duration": 0.004032260416678923,
          "durationTicks": 1,
          "midi": 46,
          "name": "A#2",
          "ticks": 25008,
          "time": 100.83876849999999,
          "velocity": 0.8346456692913385
        },
        {
          "duration": 0.004032260416678923,
          "durationTicks": 1,
          "midi": 42,
          "name": "F#2",
          "ticks": 25056,
          "time": 101.03231699999999,
          "velocity": 0.8346456692913385
        },
        {
          "duration": 0.004032260416678923,
          "durationTicks": 1,
          "midi": 35,
          "name": "B1",
          "ticks": 25056,
          "time": 101.03231699999999,
          "velocity": 0.8346456692913385
        },
        {
          "duration": 0.0040322604166647125,
          "durationTicks": 1,
          "midi": 46,
          "name": "A#2",
          "ticks": 25104,
          "time": 101.2258655,
          "velocity": 0.8346456692913385
        },
        {
          "duration": 0.004032260416678923,
          "durationTicks": 1,
          "midi": 35,
          "name": "B1",
          "ticks": 25152,
          "time": 101.41941399999999,
          "velocity": 0.8346456692913385
        },
        {
          "duration": 0.004032260416678923,
          "durationTicks": 1,
          "midi": 42,
          "name": "F#2",
          "ticks": 25152,
          "time": 101.41941399999999,
          "velocity": 0.8346456692913385
        },
        {
          "duration": 0.0040322604166647125,
          "durationTicks": 1,
          "midi": 46,
          "name": "A#2",
          "ticks": 25200,
          "time": 101.6129625,
          "velocity": 0.8346456692913385
        },
        {
          "duration": 0.004032260416678923,
          "durationTicks": 1,
          "midi": 35,
          "name": "B1",
          "ticks": 25248,
          "time": 101.80651099999999,
          "velocity": 0.8346456692913385
        },
        {
          "duration": 0.004032260416678923,
          "durationTicks": 1,
          "midi": 42,
          "name": "F#2",
          "ticks": 25248,
          "time": 101.80651099999999,
          "velocity": 0.8346456692913385
        },
        {
          "duration": 0.004032260416678923,
          "durationTicks": 1,
          "midi": 46,
          "name": "A#2",
          "ticks": 25296,
          "time": 102.00005949999999,
          "velocity": 0.8346456692913385
        },
        {
          "duration": 0.0040322604166647125,
          "durationTicks": 1,
          "midi": 35,
          "name": "B1",
          "ticks": 25344,
          "time": 102.193608,
          "velocity": 0.8346456692913385
        },
        {
          "duration": 0.0040322604166647125,
          "durationTicks": 1,
          "midi": 42,
          "name": "F#2",
          "ticks": 25344,
          "time": 102.193608,
          "velocity": 0.8346456692913385
        },
        {
          "duration": 0.004032260416678923,
          "durationTicks": 1,
          "midi": 38,
          "name": "D2",
          "ticks": 25392,
          "time": 102.38715649999999,
          "velocity": 0.6141732283464567
        },
        {
          "duration": 0.004032260416678923,
          "durationTicks": 1,
          "midi": 46,
          "name": "A#2",
          "ticks": 25392,
          "time": 102.38715649999999,
          "velocity": 0.8346456692913385
        },
        {
          "duration": 0.0040322604166647125,
          "durationTicks": 1,
          "midi": 42,
          "name": "F#2",
          "ticks": 25440,
          "time": 102.580705,
          "velocity": 0.8346456692913385
        },
        {
          "duration": 0.0040322604166647125,
          "durationTicks": 1,
          "midi": 35,
          "name": "B1",
          "ticks": 25440,
          "time": 102.580705,
          "velocity": 0.8346456692913385
        },
        {
          "duration": 0.004032260416678923,
          "durationTicks": 1,
          "midi": 38,
          "name": "D2",
          "ticks": 25464,
          "time": 102.67747924999999,
          "velocity": 0.6141732283464567
        },
        {
          "duration": 0.004032260416678923,
          "durationTicks": 1,
          "midi": 46,
          "name": "A#2",
          "ticks": 25488,
          "time": 102.77425349999999,
          "velocity": 0.8346456692913385
        },
        {
          "duration": 0.0040322604166647125,
          "durationTicks": 1,
          "midi": 38,
          "name": "D2",
          "ticks": 25512,
          "time": 102.87102775,
          "velocity": 0.6141732283464567
        },
        {
          "duration": 0.004032260416678923,
          "durationTicks": 1,
          "midi": 35,
          "name": "B1",
          "ticks": 25536,
          "time": 102.96780199999999,
          "velocity": 0.8346456692913385
        },
        {
          "duration": 0.004032260416678923,
          "durationTicks": 1,
          "midi": 42,
          "name": "F#2",
          "ticks": 25536,
          "time": 102.96780199999999,
          "velocity": 0.8346456692913385
        },
        {
          "duration": 0.004032260416678923,
          "durationTicks": 1,
          "midi": 51,
          "name": "D#3",
          "ticks": 25536,
          "time": 102.96780199999999,
          "velocity": 0.9448818897637795
        },
        {
          "duration": 0.0040322604166647125,
          "durationTicks": 1,
          "midi": 46,
          "name": "A#2",
          "ticks": 25584,
          "time": 103.1613505,
          "velocity": 0.8346456692913385
        },
        {
          "duration": 0.004032260416678923,
          "durationTicks": 1,
          "midi": 42,
          "name": "F#2",
          "ticks": 25632,
          "time": 103.35489899999999,
          "velocity": 0.8346456692913385
        },
        {
          "duration": 0.004032260416678923,
          "durationTicks": 1,
          "midi": 35,
          "name": "B1",
          "ticks": 25632,
          "time": 103.35489899999999,
          "velocity": 0.8346456692913385
        },
        {
          "duration": 0.0040322604166647125,
          "durationTicks": 1,
          "midi": 46,
          "name": "A#2",
          "ticks": 25680,
          "time": 103.5484475,
          "velocity": 0.8346456692913385
        },
        {
          "duration": 0.004032260416678923,
          "durationTicks": 1,
          "midi": 35,
          "name": "B1",
          "ticks": 25728,
          "time": 103.74199599999999,
          "velocity": 0.8346456692913385
        },
        {
          "duration": 0.004032260416678923,
          "durationTicks": 1,
          "midi": 42,
          "name": "F#2",
          "ticks": 25728,
          "time": 103.74199599999999,
          "velocity": 0.8346456692913385
        },
        {
          "duration": 0.004032260416678923,
          "durationTicks": 1,
          "midi": 46,
          "name": "A#2",
          "ticks": 25776,
          "time": 103.93554449999999,
          "velocity": 0.8346456692913385
        },
        {
          "duration": 0.0040322604166647125,
          "durationTicks": 1,
          "midi": 42,
          "name": "F#2",
          "ticks": 25824,
          "time": 104.129093,
          "velocity": 0.8346456692913385
        },
        {
          "duration": 0.0040322604166647125,
          "durationTicks": 1,
          "midi": 35,
          "name": "B1",
          "ticks": 25824,
          "time": 104.129093,
          "velocity": 0.8346456692913385
        },
        {
          "duration": 0.004032260416678923,
          "durationTicks": 1,
          "midi": 46,
          "name": "A#2",
          "ticks": 25872,
          "time": 104.32264149999999,
          "velocity": 0.8346456692913385
        },
        {
          "duration": 0.0040322604166647125,
          "durationTicks": 1,
          "midi": 42,
          "name": "F#2",
          "ticks": 25920,
          "time": 104.51619,
          "velocity": 0.8346456692913385
        },
        {
          "duration": 0.0040322604166647125,
          "durationTicks": 1,
          "midi": 35,
          "name": "B1",
          "ticks": 25920,
          "time": 104.51619,
          "velocity": 0.8346456692913385
        },
        {
          "duration": 0.004032260416678923,
          "durationTicks": 1,
          "midi": 46,
          "name": "A#2",
          "ticks": 25968,
          "time": 104.70973849999999,
          "velocity": 0.8346456692913385
        },
        {
          "duration": 0.004032260416678923,
          "durationTicks": 1,
          "midi": 42,
          "name": "F#2",
          "ticks": 26016,
          "time": 104.90328699999999,
          "velocity": 0.8346456692913385
        },
        {
          "duration": 0.004032260416678923,
          "durationTicks": 1,
          "midi": 35,
          "name": "B1",
          "ticks": 26016,
          "time": 104.90328699999999,
          "velocity": 0.8346456692913385
        },
        {
          "duration": 0.0040322604166647125,
          "durationTicks": 1,
          "midi": 46,
          "name": "A#2",
          "ticks": 26064,
          "time": 105.0968355,
          "velocity": 0.8346456692913385
        },
        {
          "duration": 0.004032260416678923,
          "durationTicks": 1,
          "midi": 35,
          "name": "B1",
          "ticks": 26112,
          "time": 105.29038399999999,
          "velocity": 0.8346456692913385
        },
        {
          "duration": 0.004032260416678923,
          "durationTicks": 1,
          "midi": 42,
          "name": "F#2",
          "ticks": 26112,
          "time": 105.29038399999999,
          "velocity": 0.8346456692913385
        },
        {
          "duration": 0.0040322604166647125,
          "durationTicks": 1,
          "midi": 38,
          "name": "D2",
          "ticks": 26160,
          "time": 105.4839325,
          "velocity": 0.6141732283464567
        },
        {
          "duration": 0.0040322604166647125,
          "durationTicks": 1,
          "midi": 46,
          "name": "A#2",
          "ticks": 26160,
          "time": 105.4839325,
          "velocity": 0.8346456692913385
        },
        {
          "duration": 0.004032260416678923,
          "durationTicks": 1,
          "midi": 42,
          "name": "F#2",
          "ticks": 26208,
          "time": 105.67748099999999,
          "velocity": 0.8346456692913385
        },
        {
          "duration": 0.004032260416678923,
          "durationTicks": 1,
          "midi": 35,
          "name": "B1",
          "ticks": 26208,
          "time": 105.67748099999999,
          "velocity": 0.8346456692913385
        },
        {
          "duration": 0.0040322604166647125,
          "durationTicks": 1,
          "midi": 38,
          "name": "D2",
          "ticks": 26232,
          "time": 105.77425525,
          "velocity": 0.6141732283464567
        },
        {
          "duration": 0.004032260416678923,
          "durationTicks": 1,
          "midi": 46,
          "name": "A#2",
          "ticks": 26256,
          "time": 105.87102949999999,
          "velocity": 0.8346456692913385
        },
        {
          "duration": 0.004032260416678923,
          "durationTicks": 1,
          "midi": 38,
          "name": "D2",
          "ticks": 26280,
          "time": 105.96780374999999,
          "velocity": 0.6141732283464567
        },
        {
          "duration": 0.0040322604166647125,
          "durationTicks": 1,
          "midi": 51,
          "name": "D#3",
          "ticks": 26304,
          "time": 106.064578,
          "velocity": 0.9448818897637795
        },
        {
          "duration": 0.0040322604166647125,
          "durationTicks": 1,
          "midi": 42,
          "name": "F#2",
          "ticks": 26304,
          "time": 106.064578,
          "velocity": 0.8346456692913385
        },
        {
          "duration": 0.0040322604166647125,
          "durationTicks": 1,
          "midi": 35,
          "name": "B1",
          "ticks": 26304,
          "time": 106.064578,
          "velocity": 0.8346456692913385
        },
        {
          "duration": 0.004032260416678923,
          "durationTicks": 1,
          "midi": 46,
          "name": "A#2",
          "ticks": 26352,
          "time": 106.25812649999999,
          "velocity": 0.8346456692913385
        },
        {
          "duration": 0.0040322604166647125,
          "durationTicks": 1,
          "midi": 42,
          "name": "F#2",
          "ticks": 26400,
          "time": 106.451675,
          "velocity": 0.8346456692913385
        },
        {
          "duration": 0.0040322604166647125,
          "durationTicks": 1,
          "midi": 35,
          "name": "B1",
          "ticks": 26400,
          "time": 106.451675,
          "velocity": 0.8346456692913385
        },
        {
          "duration": 0.004032260416678923,
          "durationTicks": 1,
          "midi": 46,
          "name": "A#2",
          "ticks": 26448,
          "time": 106.64522349999999,
          "velocity": 0.8346456692913385
        },
        {
          "duration": 0.004032260416678923,
          "durationTicks": 1,
          "midi": 35,
          "name": "B1",
          "ticks": 26496,
          "time": 106.83877199999999,
          "velocity": 0.8346456692913385
        },
        {
          "duration": 0.004032260416678923,
          "durationTicks": 1,
          "midi": 42,
          "name": "F#2",
          "ticks": 26496,
          "time": 106.83877199999999,
          "velocity": 0.8346456692913385
        },
        {
          "duration": 0.0040322604166647125,
          "durationTicks": 1,
          "midi": 46,
          "name": "A#2",
          "ticks": 26544,
          "time": 107.0323205,
          "velocity": 0.8346456692913385
        },
        {
          "duration": 0.004032260416678923,
          "durationTicks": 1,
          "midi": 42,
          "name": "F#2",
          "ticks": 26592,
          "time": 107.22586899999999,
          "velocity": 0.8346456692913385
        },
        {
          "duration": 0.004032260416678923,
          "durationTicks": 1,
          "midi": 35,
          "name": "B1",
          "ticks": 26592,
          "time": 107.22586899999999,
          "velocity": 0.8346456692913385
        },
        {
          "duration": 0.0040322604166647125,
          "durationTicks": 1,
          "midi": 46,
          "name": "A#2",
          "ticks": 26640,
          "time": 107.4194175,
          "velocity": 0.8346456692913385
        },
        {
          "duration": 0.004032260416678923,
          "durationTicks": 1,
          "midi": 35,
          "name": "B1",
          "ticks": 26688,
          "time": 107.61296599999999,
          "velocity": 0.8346456692913385
        },
        {
          "duration": 0.004032260416678923,
          "durationTicks": 1,
          "midi": 42,
          "name": "F#2",
          "ticks": 26688,
          "time": 107.61296599999999,
          "velocity": 0.8346456692913385
        },
        {
          "duration": 0.004032260416678923,
          "durationTicks": 1,
          "midi": 46,
          "name": "A#2",
          "ticks": 26736,
          "time": 107.80651449999999,
          "velocity": 0.8346456692913385
        },
        {
          "duration": 0.0040322604166647125,
          "durationTicks": 1,
          "midi": 35,
          "name": "B1",
          "ticks": 26784,
          "time": 108.000063,
          "velocity": 0.8346456692913385
        },
        {
          "duration": 0.0040322604166647125,
          "durationTicks": 1,
          "midi": 42,
          "name": "F#2",
          "ticks": 26784,
          "time": 108.000063,
          "velocity": 0.8346456692913385
        },
        {
          "duration": 0.004032260416678923,
          "durationTicks": 1,
          "midi": 46,
          "name": "A#2",
          "ticks": 26832,
          "time": 108.19361149999999,
          "velocity": 0.8346456692913385
        },
        {
          "duration": 0.0040322604166647125,
          "durationTicks": 1,
          "midi": 35,
          "name": "B1",
          "ticks": 26880,
          "time": 108.38716,
          "velocity": 0.8346456692913385
        },
        {
          "duration": 0.0040322604166647125,
          "durationTicks": 1,
          "midi": 42,
          "name": "F#2",
          "ticks": 26880,
          "time": 108.38716,
          "velocity": 0.8346456692913385
        },
        {
          "duration": 0.004032260416678923,
          "durationTicks": 1,
          "midi": 38,
          "name": "D2",
          "ticks": 26928,
          "time": 108.58070849999999,
          "velocity": 0.6141732283464567
        },
        {
          "duration": 0.004032260416678923,
          "durationTicks": 1,
          "midi": 46,
          "name": "A#2",
          "ticks": 26928,
          "time": 108.58070849999999,
          "velocity": 0.8346456692913385
        },
        {
          "duration": 0.004032260416678923,
          "durationTicks": 1,
          "midi": 42,
          "name": "F#2",
          "ticks": 26976,
          "time": 108.77425699999999,
          "velocity": 0.8346456692913385
        },
        {
          "duration": 0.004032260416678923,
          "durationTicks": 1,
          "midi": 35,
          "name": "B1",
          "ticks": 26976,
          "time": 108.77425699999999,
          "velocity": 0.8346456692913385
        },
        {
          "duration": 0.004032260416678923,
          "durationTicks": 1,
          "midi": 38,
          "name": "D2",
          "ticks": 27000,
          "time": 108.87103124999999,
          "velocity": 0.6141732283464567
        },
        {
          "duration": 0.0040322604166647125,
          "durationTicks": 1,
          "midi": 46,
          "name": "A#2",
          "ticks": 27024,
          "time": 108.9678055,
          "velocity": 0.8346456692913385
        },
        {
          "duration": 0.004032260416678923,
          "durationTicks": 1,
          "midi": 38,
          "name": "D2",
          "ticks": 27048,
          "time": 109.06457975,
          "velocity": 0.6141732283464567
        },
        {
          "duration": 0.004032260416678923,
          "durationTicks": 1,
          "midi": 35,
          "name": "B1",
          "ticks": 27072,
          "time": 109.16135399999999,
          "velocity": 0.8346456692913385
        },
        {
          "duration": 0.004032260416678923,
          "durationTicks": 1,
          "midi": 42,
          "name": "F#2",
          "ticks": 27072,
          "time": 109.16135399999999,
          "velocity": 0.8346456692913385
        },
        {
          "duration": 0.004032260416678923,
          "durationTicks": 1,
          "midi": 51,
          "name": "D#3",
          "ticks": 27072,
          "time": 109.16135399999999,
          "velocity": 0.9448818897637795
        },
        {
          "duration": 0.0040322604166647125,
          "durationTicks": 1,
          "midi": 46,
          "name": "A#2",
          "ticks": 27120,
          "time": 109.3549025,
          "velocity": 0.8346456692913385
        },
        {
          "duration": 0.004032260416678923,
          "durationTicks": 1,
          "midi": 42,
          "name": "F#2",
          "ticks": 27168,
          "time": 109.54845099999999,
          "velocity": 0.8346456692913385
        },
        {
          "duration": 0.004032260416678923,
          "durationTicks": 1,
          "midi": 35,
          "name": "B1",
          "ticks": 27168,
          "time": 109.54845099999999,
          "velocity": 0.8346456692913385
        },
        {
          "duration": 0.004032260416678923,
          "durationTicks": 1,
          "midi": 46,
          "name": "A#2",
          "ticks": 27216,
          "time": 109.74199949999999,
          "velocity": 0.8346456692913385
        },
        {
          "duration": 0.0040322604166647125,
          "durationTicks": 1,
          "midi": 35,
          "name": "B1",
          "ticks": 27264,
          "time": 109.935548,
          "velocity": 0.8346456692913385
        },
        {
          "duration": 0.0040322604166647125,
          "durationTicks": 1,
          "midi": 42,
          "name": "F#2",
          "ticks": 27264,
          "time": 109.935548,
          "velocity": 0.8346456692913385
        },
        {
          "duration": 0.004032260416678923,
          "durationTicks": 1,
          "midi": 46,
          "name": "A#2",
          "ticks": 27312,
          "time": 110.12909649999999,
          "velocity": 0.8346456692913385
        },
        {
          "duration": 0.0040322604166647125,
          "durationTicks": 1,
          "midi": 42,
          "name": "F#2",
          "ticks": 27360,
          "time": 110.322645,
          "velocity": 0.8346456692913385
        },
        {
          "duration": 0.0040322604166647125,
          "durationTicks": 1,
          "midi": 35,
          "name": "B1",
          "ticks": 27360,
          "time": 110.322645,
          "velocity": 0.8346456692913385
        },
        {
          "duration": 0.004032260416678923,
          "durationTicks": 1,
          "midi": 46,
          "name": "A#2",
          "ticks": 27408,
          "time": 110.51619349999999,
          "velocity": 0.8346456692913385
        },
        {
          "duration": 0.004032260416678923,
          "durationTicks": 1,
          "midi": 42,
          "name": "F#2",
          "ticks": 27456,
          "time": 110.70974199999999,
          "velocity": 0.8346456692913385
        },
        {
          "duration": 0.004032260416678923,
          "durationTicks": 1,
          "midi": 35,
          "name": "B1",
          "ticks": 27456,
          "time": 110.70974199999999,
          "velocity": 0.8346456692913385
        },
        {
          "duration": 0.0040322604166647125,
          "durationTicks": 1,
          "midi": 46,
          "name": "A#2",
          "ticks": 27504,
          "time": 110.9032905,
          "velocity": 0.8346456692913385
        },
        {
          "duration": 0.004032260416678923,
          "durationTicks": 1,
          "midi": 42,
          "name": "F#2",
          "ticks": 27552,
          "time": 111.09683899999999,
          "velocity": 0.8346456692913385
        },
        {
          "duration": 0.004032260416678923,
          "durationTicks": 1,
          "midi": 35,
          "name": "B1",
          "ticks": 27552,
          "time": 111.09683899999999,
          "velocity": 0.8346456692913385
        },
        {
          "duration": 0.0040322604166647125,
          "durationTicks": 1,
          "midi": 46,
          "name": "A#2",
          "ticks": 27600,
          "time": 111.2903875,
          "velocity": 0.8346456692913385
        },
        {
          "duration": 0.004032260416678923,
          "durationTicks": 1,
          "midi": 35,
          "name": "B1",
          "ticks": 27648,
          "time": 111.48393599999999,
          "velocity": 0.8346456692913385
        },
        {
          "duration": 0.004032260416678923,
          "durationTicks": 1,
          "midi": 42,
          "name": "F#2",
          "ticks": 27648,
          "time": 111.48393599999999,
          "velocity": 0.8346456692913385
        },
        {
          "duration": 0.004032260416678923,
          "durationTicks": 1,
          "midi": 38,
          "name": "D2",
          "ticks": 27696,
          "time": 111.67748449999999,
          "velocity": 0.6141732283464567
        },
        {
          "duration": 0.004032260416678923,
          "durationTicks": 1,
          "midi": 46,
          "name": "A#2",
          "ticks": 27696,
          "time": 111.67748449999999,
          "velocity": 0.8346456692913385
        },
        {
          "duration": 0.0040322604166647125,
          "durationTicks": 1,
          "midi": 42,
          "name": "F#2",
          "ticks": 27744,
          "time": 111.871033,
          "velocity": 0.8346456692913385
        },
        {
          "duration": 0.0040322604166647125,
          "durationTicks": 1,
          "midi": 35,
          "name": "B1",
          "ticks": 27744,
          "time": 111.871033,
          "velocity": 0.8346456692913385
        },
        {
          "duration": 0.004032260416678923,
          "durationTicks": 1,
          "midi": 38,
          "name": "D2",
          "ticks": 27768,
          "time": 111.96780724999999,
          "velocity": 0.6141732283464567
        },
        {
          "duration": 0.004032260416678923,
          "durationTicks": 1,
          "midi": 46,
          "name": "A#2",
          "ticks": 27792,
          "time": 112.06458149999999,
          "velocity": 0.8346456692913385
        },
        {
          "duration": 0.004032260416678923,
          "durationTicks": 1,
          "midi": 38,
          "name": "D2",
          "ticks": 27816,
          "time": 112.16135574999998,
          "velocity": 0.6141732283464567
        },
        {
          "duration": 0.0040322604166647125,
          "durationTicks": 1,
          "midi": 51,
          "name": "D#3",
          "ticks": 27840,
          "time": 112.25813,
          "velocity": 0.9448818897637795
        },
        {
          "duration": 0.0040322604166647125,
          "durationTicks": 1,
          "midi": 42,
          "name": "F#2",
          "ticks": 27840,
          "time": 112.25813,
          "velocity": 0.8346456692913385
        },
        {
          "duration": 0.0040322604166647125,
          "durationTicks": 1,
          "midi": 35,
          "name": "B1",
          "ticks": 27840,
          "time": 112.25813,
          "velocity": 0.8346456692913385
        },
        {
          "duration": 0.004032260416678923,
          "durationTicks": 1,
          "midi": 46,
          "name": "A#2",
          "ticks": 27888,
          "time": 112.45167849999999,
          "velocity": 0.8346456692913385
        },
        {
          "duration": 0.004032260416678923,
          "durationTicks": 1,
          "midi": 42,
          "name": "F#2",
          "ticks": 27936,
          "time": 112.64522699999999,
          "velocity": 0.8346456692913385
        },
        {
          "duration": 0.004032260416678923,
          "durationTicks": 1,
          "midi": 35,
          "name": "B1",
          "ticks": 27936,
          "time": 112.64522699999999,
          "velocity": 0.8346456692913385
        },
        {
          "duration": 0.0040322604166647125,
          "durationTicks": 1,
          "midi": 46,
          "name": "A#2",
          "ticks": 27984,
          "time": 112.8387755,
          "velocity": 0.8346456692913385
        },
        {
          "duration": 0.004032260416678923,
          "durationTicks": 1,
          "midi": 35,
          "name": "B1",
          "ticks": 28032,
          "time": 113.03232399999999,
          "velocity": 0.8346456692913385
        },
        {
          "duration": 0.004032260416678923,
          "durationTicks": 1,
          "midi": 42,
          "name": "F#2",
          "ticks": 28032,
          "time": 113.03232399999999,
          "velocity": 0.8346456692913385
        },
        {
          "duration": 0.0040322604166647125,
          "durationTicks": 1,
          "midi": 46,
          "name": "A#2",
          "ticks": 28080,
          "time": 113.2258725,
          "velocity": 0.8346456692913385
        },
        {
          "duration": 0.004032260416678923,
          "durationTicks": 1,
          "midi": 42,
          "name": "F#2",
          "ticks": 28128,
          "time": 113.41942099999999,
          "velocity": 0.8346456692913385
        },
        {
          "duration": 0.004032260416678923,
          "durationTicks": 1,
          "midi": 35,
          "name": "B1",
          "ticks": 28128,
          "time": 113.41942099999999,
          "velocity": 0.8346456692913385
        },
        {
          "duration": 0.004032260416678923,
          "durationTicks": 1,
          "midi": 46,
          "name": "A#2",
          "ticks": 28176,
          "time": 113.61296949999999,
          "velocity": 0.8346456692913385
        },
        {
          "duration": 0.0040322604166647125,
          "durationTicks": 1,
          "midi": 35,
          "name": "B1",
          "ticks": 28224,
          "time": 113.806518,
          "velocity": 0.8346456692913385
        },
        {
          "duration": 0.0040322604166647125,
          "durationTicks": 1,
          "midi": 42,
          "name": "F#2",
          "ticks": 28224,
          "time": 113.806518,
          "velocity": 0.8346456692913385
        },
        {
          "duration": 0.004032260416678923,
          "durationTicks": 1,
          "midi": 46,
          "name": "A#2",
          "ticks": 28272,
          "time": 114.00006649999999,
          "velocity": 0.8346456692913385
        },
        {
          "duration": 0.0040322604166647125,
          "durationTicks": 1,
          "midi": 35,
          "name": "B1",
          "ticks": 28320,
          "time": 114.193615,
          "velocity": 0.8346456692913385
        },
        {
          "duration": 0.0040322604166647125,
          "durationTicks": 1,
          "midi": 42,
          "name": "F#2",
          "ticks": 28320,
          "time": 114.193615,
          "velocity": 0.8346456692913385
        },
        {
          "duration": 0.004032260416678923,
          "durationTicks": 1,
          "midi": 46,
          "name": "A#2",
          "ticks": 28368,
          "time": 114.38716349999999,
          "velocity": 0.8346456692913385
        },
        {
          "duration": 0.004032260416678923,
          "durationTicks": 1,
          "midi": 35,
          "name": "B1",
          "ticks": 28416,
          "time": 114.58071199999999,
          "velocity": 0.8346456692913385
        },
        {
          "duration": 0.004032260416678923,
          "durationTicks": 1,
          "midi": 42,
          "name": "F#2",
          "ticks": 28416,
          "time": 114.58071199999999,
          "velocity": 0.8346456692913385
        },
        {
          "duration": 0.0040322604166647125,
          "durationTicks": 1,
          "midi": 38,
          "name": "D2",
          "ticks": 28464,
          "time": 114.7742605,
          "velocity": 0.6141732283464567
        },
        {
          "duration": 0.0040322604166647125,
          "durationTicks": 1,
          "midi": 46,
          "name": "A#2",
          "ticks": 28464,
          "time": 114.7742605,
          "velocity": 0.8346456692913385
        },
        {
          "duration": 0.004032260416678923,
          "durationTicks": 1,
          "midi": 42,
          "name": "F#2",
          "ticks": 28512,
          "time": 114.96780899999999,
          "velocity": 0.8346456692913385
        },
        {
          "duration": 0.004032260416678923,
          "durationTicks": 1,
          "midi": 35,
          "name": "B1",
          "ticks": 28512,
          "time": 114.96780899999999,
          "velocity": 0.8346456692913385
        },
        {
          "duration": 0.004032260416678923,
          "durationTicks": 1,
          "midi": 38,
          "name": "D2",
          "ticks": 28536,
          "time": 115.06458324999998,
          "velocity": 0.6141732283464567
        },
        {
          "duration": 0.0040322604166647125,
          "durationTicks": 1,
          "midi": 46,
          "name": "A#2",
          "ticks": 28560,
          "time": 115.1613575,
          "velocity": 0.8346456692913385
        },
        {
          "duration": 0.004032260416678923,
          "durationTicks": 1,
          "midi": 38,
          "name": "D2",
          "ticks": 28584,
          "time": 115.25813174999999,
          "velocity": 0.6141732283464567
        },
        {
          "duration": 0.004032260416678923,
          "durationTicks": 1,
          "midi": 35,
          "name": "B1",
          "ticks": 28608,
          "time": 115.35490599999999,
          "velocity": 0.8346456692913385
        },
        {
          "duration": 0.004032260416678923,
          "durationTicks": 1,
          "midi": 42,
          "name": "F#2",
          "ticks": 28608,
          "time": 115.35490599999999,
          "velocity": 0.8346456692913385
        },
        {
          "duration": 0.004032260416678923,
          "durationTicks": 1,
          "midi": 51,
          "name": "D#3",
          "ticks": 28608,
          "time": 115.35490599999999,
          "velocity": 0.9448818897637795
        },
        {
          "duration": 0.004032260416678923,
          "durationTicks": 1,
          "midi": 46,
          "name": "A#2",
          "ticks": 28656,
          "time": 115.54845449999999,
          "velocity": 0.8346456692913385
        },
        {
          "duration": 0.0040322604166647125,
          "durationTicks": 1,
          "midi": 42,
          "name": "F#2",
          "ticks": 28704,
          "time": 115.742003,
          "velocity": 0.8346456692913385
        },
        {
          "duration": 0.0040322604166647125,
          "durationTicks": 1,
          "midi": 35,
          "name": "B1",
          "ticks": 28704,
          "time": 115.742003,
          "velocity": 0.8346456692913385
        },
        {
          "duration": 0.004032260416678923,
          "durationTicks": 1,
          "midi": 46,
          "name": "A#2",
          "ticks": 28752,
          "time": 115.93555149999999,
          "velocity": 0.8346456692913385
        },
        {
          "duration": 0.0040322604166647125,
          "durationTicks": 1,
          "midi": 35,
          "name": "B1",
          "ticks": 28800,
          "time": 116.1291,
          "velocity": 0.8346456692913385
        },
        {
          "duration": 0.0040322604166647125,
          "durationTicks": 1,
          "midi": 42,
          "name": "F#2",
          "ticks": 28800,
          "time": 116.1291,
          "velocity": 0.8346456692913385
        },
        {
          "duration": 0.004032260416678923,
          "durationTicks": 1,
          "midi": 46,
          "name": "A#2",
          "ticks": 28848,
          "time": 116.32264849999999,
          "velocity": 0.8346456692913385
        },
        {
          "duration": 0.004032260416678923,
          "durationTicks": 1,
          "midi": 42,
          "name": "F#2",
          "ticks": 28896,
          "time": 116.51619699999999,
          "velocity": 0.8346456692913385
        },
        {
          "duration": 0.004032260416678923,
          "durationTicks": 1,
          "midi": 35,
          "name": "B1",
          "ticks": 28896,
          "time": 116.51619699999999,
          "velocity": 0.8346456692913385
        },
        {
          "duration": 0.0040322604166647125,
          "durationTicks": 1,
          "midi": 46,
          "name": "A#2",
          "ticks": 28944,
          "time": 116.7097455,
          "velocity": 0.8346456692913385
        },
        {
          "duration": 0.004032260416678923,
          "durationTicks": 1,
          "midi": 42,
          "name": "F#2",
          "ticks": 28992,
          "time": 116.90329399999999,
          "velocity": 0.8346456692913385
        },
        {
          "duration": 0.004032260416678923,
          "durationTicks": 1,
          "midi": 35,
          "name": "B1",
          "ticks": 28992,
          "time": 116.90329399999999,
          "velocity": 0.8346456692913385
        },
        {
          "duration": 0.0040322604166647125,
          "durationTicks": 1,
          "midi": 46,
          "name": "A#2",
          "ticks": 29040,
          "time": 117.0968425,
          "velocity": 0.8346456692913385
        },
        {
          "duration": 0.004032260416678923,
          "durationTicks": 1,
          "midi": 42,
          "name": "F#2",
          "ticks": 29088,
          "time": 117.29039099999999,
          "velocity": 0.8346456692913385
        },
        {
          "duration": 0.004032260416678923,
          "durationTicks": 1,
          "midi": 35,
          "name": "B1",
          "ticks": 29088,
          "time": 117.29039099999999,
          "velocity": 0.8346456692913385
        },
        {
          "duration": 0.004032260416678923,
          "durationTicks": 1,
          "midi": 46,
          "name": "A#2",
          "ticks": 29136,
          "time": 117.48393949999999,
          "velocity": 0.8346456692913385
        },
        {
          "duration": 0.0040322604166647125,
          "durationTicks": 1,
          "midi": 42,
          "name": "F#2",
          "ticks": 29184,
          "time": 117.677488,
          "velocity": 0.8346456692913385
        },
        {
          "duration": 0.0040322604166647125,
          "durationTicks": 1,
          "midi": 35,
          "name": "B1",
          "ticks": 29184,
          "time": 117.677488,
          "velocity": 0.8346456692913385
        },
        {
          "duration": 0.004032260416678923,
          "durationTicks": 1,
          "midi": 38,
          "name": "D2",
          "ticks": 29232,
          "time": 117.87103649999999,
          "velocity": 0.6141732283464567
        },
        {
          "duration": 0.004032260416678923,
          "durationTicks": 1,
          "midi": 46,
          "name": "A#2",
          "ticks": 29232,
          "time": 117.87103649999999,
          "velocity": 0.8346456692913385
        },
        {
          "duration": 0.0040322604166647125,
          "durationTicks": 1,
          "midi": 42,
          "name": "F#2",
          "ticks": 29280,
          "time": 118.064585,
          "velocity": 0.8346456692913385
        },
        {
          "duration": 0.0040322604166647125,
          "durationTicks": 1,
          "midi": 35,
          "name": "B1",
          "ticks": 29280,
          "time": 118.064585,
          "velocity": 0.8346456692913385
        },
        {
          "duration": 0.004032260416678923,
          "durationTicks": 1,
          "midi": 38,
          "name": "D2",
          "ticks": 29304,
          "time": 118.16135924999999,
          "velocity": 0.6141732283464567
        },
        {
          "duration": 0.004032260416678923,
          "durationTicks": 1,
          "midi": 46,
          "name": "A#2",
          "ticks": 29328,
          "time": 118.25813349999999,
          "velocity": 0.8346456692913385
        },
        {
          "duration": 0.0040322604166647125,
          "durationTicks": 1,
          "midi": 38,
          "name": "D2",
          "ticks": 29352,
          "time": 118.35490775,
          "velocity": 0.6141732283464567
        },
        {
          "duration": 0.004032260416678923,
          "durationTicks": 1,
          "midi": 35,
          "name": "B1",
          "ticks": 29376,
          "time": 118.45168199999999,
          "velocity": 0.8346456692913385
        },
        {
          "duration": 0.004032260416678923,
          "durationTicks": 1,
          "midi": 42,
          "name": "F#2",
          "ticks": 29376,
          "time": 118.45168199999999,
          "velocity": 0.8346456692913385
        },
        {
          "duration": 0.004032260416678923,
          "durationTicks": 1,
          "midi": 51,
          "name": "D#3",
          "ticks": 29376,
          "time": 118.45168199999999,
          "velocity": 0.9448818897637795
        },
        {
          "duration": 0.0040322604166647125,
          "durationTicks": 1,
          "midi": 46,
          "name": "A#2",
          "ticks": 29424,
          "time": 118.6452305,
          "velocity": 0.8346456692913385
        },
        {
          "duration": 0.004032260416678923,
          "durationTicks": 1,
          "midi": 42,
          "name": "F#2",
          "ticks": 29472,
          "time": 118.83877899999999,
          "velocity": 0.8346456692913385
        },
        {
          "duration": 0.004032260416678923,
          "durationTicks": 1,
          "midi": 35,
          "name": "B1",
          "ticks": 29472,
          "time": 118.83877899999999,
          "velocity": 0.8346456692913385
        },
        {
          "duration": 0.0040322604166647125,
          "durationTicks": 1,
          "midi": 46,
          "name": "A#2",
          "ticks": 29520,
          "time": 119.0323275,
          "velocity": 0.8346456692913385
        },
        {
          "duration": 0.004032260416678923,
          "durationTicks": 1,
          "midi": 35,
          "name": "B1",
          "ticks": 29568,
          "time": 119.22587599999999,
          "velocity": 0.8346456692913385
        },
        {
          "duration": 0.004032260416678923,
          "durationTicks": 1,
          "midi": 42,
          "name": "F#2",
          "ticks": 29568,
          "time": 119.22587599999999,
          "velocity": 0.8346456692913385
        },
        {
          "duration": 0.004032260416678923,
          "durationTicks": 1,
          "midi": 38,
          "name": "D2",
          "ticks": 29568,
          "time": 119.22587599999999,
          "velocity": 0.06299212598425197
        },
        {
          "duration": 0.004032260416678923,
          "durationTicks": 1,
          "midi": 38,
          "name": "D2",
          "ticks": 29580,
          "time": 119.27426312499999,
          "velocity": 0.06299212598425197
        },
        {
          "duration": 0.0040322604166647125,
          "durationTicks": 1,
          "midi": 38,
          "name": "D2",
          "ticks": 29592,
          "time": 119.32265025,
          "velocity": 0.06299212598425197
        },
        {
          "duration": 0.004032260416678923,
          "durationTicks": 1,
          "midi": 38,
          "name": "D2",
          "ticks": 29604,
          "time": 119.37103737499999,
          "velocity": 0.06299212598425197
        },
        {
          "duration": 0.004032260416678923,
          "durationTicks": 1,
          "midi": 38,
          "name": "D2",
          "ticks": 29616,
          "time": 119.41942449999999,
          "velocity": 0.1732283464566929
        },
        {
          "duration": 0.004032260416678923,
          "durationTicks": 1,
          "midi": 46,
          "name": "A#2",
          "ticks": 29616,
          "time": 119.41942449999999,
          "velocity": 0.8346456692913385
        },
        {
          "duration": 0.0040322604166647125,
          "durationTicks": 1,
          "midi": 38,
          "name": "D2",
          "ticks": 29628,
          "time": 119.467811625,
          "velocity": 0.1732283464566929
        },
        {
          "duration": 0.004032260416678923,
          "durationTicks": 1,
          "midi": 38,
          "name": "D2",
          "ticks": 29640,
          "time": 119.51619874999999,
          "velocity": 0.1732283464566929
        },
        {
          "duration": 0.004032260416678923,
          "durationTicks": 1,
          "midi": 38,
          "name": "D2",
          "ticks": 29652,
          "time": 119.56458587499999,
          "velocity": 0.1732283464566929
        },
        {
          "duration": 0.0040322604166647125,
          "durationTicks": 1,
          "midi": 38,
          "name": "D2",
          "ticks": 29664,
          "time": 119.612973,
          "velocity": 0.28346456692913385
        },
        {
          "duration": 0.0040322604166647125,
          "durationTicks": 1,
          "midi": 42,
          "name": "F#2",
          "ticks": 29664,
          "time": 119.612973,
          "velocity": 0.8346456692913385
        },
        {
          "duration": 0.0040322604166647125,
          "durationTicks": 1,
          "midi": 35,
          "name": "B1",
          "ticks": 29664,
          "time": 119.612973,
          "velocity": 0.8346456692913385
        },
        {
          "duration": 0.004032260416678923,
          "durationTicks": 1,
          "midi": 38,
          "name": "D2",
          "ticks": 29676,
          "time": 119.66136012499999,
          "velocity": 0.28346456692913385
        },
        {
          "duration": 0.004032260416678923,
          "durationTicks": 1,
          "midi": 38,
          "name": "D2",
          "ticks": 29688,
          "time": 119.70974724999999,
          "velocity": 0.28346456692913385
        },
        {
          "duration": 0.0040322604166647125,
          "durationTicks": 1,
          "midi": 38,
          "name": "D2",
          "ticks": 29700,
          "time": 119.758134375,
          "velocity": 0.28346456692913385
        },
        {
          "duration": 0.004032260416678923,
          "durationTicks": 1,
          "midi": 38,
          "name": "D2",
          "ticks": 29712,
          "time": 119.80652149999999,
          "velocity": 0.28346456692913385
        },
        {
          "duration": 0.004032260416678923,
          "durationTicks": 1,
          "midi": 46,
          "name": "A#2",
          "ticks": 29712,
          "time": 119.80652149999999,
          "velocity": 0.8346456692913385
        },
        {
          "duration": 0.0040322604166647125,
          "durationTicks": 1,
          "midi": 38,
          "name": "D2",
          "ticks": 29724,
          "time": 119.854908625,
          "velocity": 0.28346456692913385
        },
        {
          "duration": 0.004032260416678923,
          "durationTicks": 1,
          "midi": 38,
          "name": "D2",
          "ticks": 29736,
          "time": 119.90329574999998,
          "velocity": 0.28346456692913385
        },
        {
          "duration": 0.004032260416678923,
          "durationTicks": 1,
          "midi": 38,
          "name": "D2",
          "ticks": 29748,
          "time": 119.95168287499999,
          "velocity": 0.28346456692913385
        },
        {
          "duration": 0.0040322604166647125,
          "durationTicks": 1,
          "midi": 35,
          "name": "B1",
          "ticks": 29760,
          "time": 120.00007,
          "velocity": 0.8346456692913385
        },
        {
          "duration": 0.0040322604166647125,
          "durationTicks": 1,
          "midi": 42,
          "name": "F#2",
          "ticks": 29760,
          "time": 120.00007,
          "velocity": 0.8346456692913385
        },
        {
          "duration": 0.0040322604166647125,
          "durationTicks": 1,
          "midi": 38,
          "name": "D2",
          "ticks": 29760,
          "time": 120.00007,
          "velocity": 0.28346456692913385
        },
        {
          "duration": 0.004032260416678923,
          "durationTicks": 1,
          "midi": 38,
          "name": "D2",
          "ticks": 29772,
          "time": 120.04845712499998,
          "velocity": 0.28346456692913385
        },
        {
          "duration": 0.004032260416678923,
          "durationTicks": 1,
          "midi": 38,
          "name": "D2",
          "ticks": 29784,
          "time": 120.09684424999999,
          "velocity": 0.28346456692913385
        },
        {
          "duration": 0.0040322604166647125,
          "durationTicks": 1,
          "midi": 38,
          "name": "D2",
          "ticks": 29796,
          "time": 120.145231375,
          "velocity": 0.28346456692913385
        },
        {
          "duration": 0.004032260416678923,
          "durationTicks": 1,
          "midi": 46,
          "name": "A#2",
          "ticks": 29808,
          "time": 120.19361849999999,
          "velocity": 0.8346456692913385
        },
        {
          "duration": 0.004032260416678923,
          "durationTicks": 1,
          "midi": 38,
          "name": "D2",
          "ticks": 29808,
          "time": 120.19361849999999,
          "velocity": 0.3937007874015748
        },
        {
          "duration": 0.004032260416678923,
          "durationTicks": 1,
          "midi": 38,
          "name": "D2",
          "ticks": 29820,
          "time": 120.24200562499999,
          "velocity": 0.3937007874015748
        },
        {
          "duration": 0.0040322604166647125,
          "durationTicks": 1,
          "midi": 38,
          "name": "D2",
          "ticks": 29832,
          "time": 120.29039275,
          "velocity": 0.5039370078740157
        },
        {
          "duration": 0.004032260416678923,
          "durationTicks": 1,
          "midi": 38,
          "name": "D2",
          "ticks": 29844,
          "time": 120.33877987499999,
          "velocity": 0.5039370078740157
        },
        {
          "duration": 0.004032260416678923,
          "durationTicks": 1,
          "midi": 35,
          "name": "B1",
          "ticks": 29856,
          "time": 120.38716699999999,
          "velocity": 0.8346456692913385
        },
        {
          "duration": 0.004032260416678923,
          "durationTicks": 1,
          "midi": 42,
          "name": "F#2",
          "ticks": 29856,
          "time": 120.38716699999999,
          "velocity": 0.8346456692913385
        },
        {
          "duration": 0.004032260416678923,
          "durationTicks": 1,
          "midi": 38,
          "name": "D2",
          "ticks": 29856,
          "time": 120.38716699999999,
          "velocity": 0.6141732283464567
        },
        {
          "duration": 0.0040322604166647125,
          "durationTicks": 1,
          "midi": 38,
          "name": "D2",
          "ticks": 29868,
          "time": 120.435554125,
          "velocity": 0.7244094488188977
        },
        {
          "duration": 0.004032260416678923,
          "durationTicks": 1,
          "midi": 38,
          "name": "D2",
          "ticks": 29880,
          "time": 120.48394124999999,
          "velocity": 0.8346456692913385
        },
        {
          "duration": 0.004032260416678923,
          "durationTicks": 1,
          "midi": 38,
          "name": "D2",
          "ticks": 29892,
          "time": 120.53232837499999,
          "velocity": 0.9448818897637795
        },
        {
          "duration": 0.0040322604166647125,
          "durationTicks": 1,
          "midi": 46,
          "name": "A#2",
          "ticks": 29904,
          "time": 120.5807155,
          "velocity": 0.8346456692913385
        },
        {
          "duration": 0.0040322604166647125,
          "durationTicks": 1,
          "midi": 38,
          "name": "D2",
          "ticks": 29904,
          "time": 120.5807155,
          "velocity": 0.9448818897637795
        },
        {
          "duration": 0.004032260416678923,
          "durationTicks": 1,
          "midi": 38,
          "name": "D2",
          "ticks": 29916,
          "time": 120.62910262499999,
          "velocity": 0.9448818897637795
        },
        {
          "duration": 0.004032260416678923,
          "durationTicks": 1,
          "midi": 38,
          "name": "D2",
          "ticks": 29928,
          "time": 120.67748974999999,
          "velocity": 0.9448818897637795
        },
        {
          "duration": 0.0040322604166647125,
          "durationTicks": 1,
          "midi": 38,
          "name": "D2",
          "ticks": 29940,
          "time": 120.725876875,
          "velocity": 0.9448818897637795
        },
        {
          "duration": 0.004032260416678923,
          "durationTicks": 1,
          "midi": 35,
          "name": "B1",
          "ticks": 29952,
          "time": 120.77426399999999,
          "velocity": 0.8346456692913385
        },
        {
          "duration": 0.004032260416678923,
          "durationTicks": 1,
          "midi": 42,
          "name": "F#2",
          "ticks": 29952,
          "time": 120.77426399999999,
          "velocity": 0.8346456692913385
        },
        {
          "duration": 0.004032260416678923,
          "durationTicks": 1,
          "midi": 38,
          "name": "D2",
          "ticks": 29952,
          "time": 120.77426399999999,
          "velocity": 0.9448818897637795
        },
        {
          "duration": 0.0040322604166647125,
          "durationTicks": 1,
          "midi": 38,
          "name": "D2",
          "ticks": 29964,
          "time": 120.822651125,
          "velocity": 0.9448818897637795
        },
        {
          "duration": 0.004032260416678923,
          "durationTicks": 1,
          "midi": 38,
          "name": "D2",
          "ticks": 29976,
          "time": 120.87103824999998,
          "velocity": 0.9448818897637795
        },
        {
          "duration": 0.004032260416678923,
          "durationTicks": 1,
          "midi": 38,
          "name": "D2",
          "ticks": 29988,
          "time": 120.91942537499999,
          "velocity": 0.9448818897637795
        },
        {
          "duration": 0.0040322604166647125,
          "durationTicks": 1,
          "midi": 38,
          "name": "D2",
          "ticks": 30000,
          "time": 120.9678125,
          "velocity": 0.9448818897637795
        },
        {
          "duration": 0.0040322604166647125,
          "durationTicks": 1,
          "midi": 38,
          "name": "D2",
          "ticks": 30000,
          "time": 120.9678125,
          "velocity": 0.6141732283464567
        },
        {
          "duration": 0.0040322604166647125,
          "durationTicks": 1,
          "midi": 46,
          "name": "A#2",
          "ticks": 30000,
          "time": 120.9678125,
          "velocity": 0.8346456692913385
        },
        {
          "duration": 0.004032260416678923,
          "durationTicks": 1,
          "midi": 38,
          "name": "D2",
          "ticks": 30012,
          "time": 121.01619962499998,
          "velocity": 0.9448818897637795
        },
        {
          "duration": 0.004032260416678923,
          "durationTicks": 1,
          "midi": 38,
          "name": "D2",
          "ticks": 30024,
          "time": 121.06458674999999,
          "velocity": 0.9448818897637795
        },
        {
          "duration": 0.0040322604166647125,
          "durationTicks": 1,
          "midi": 38,
          "name": "D2",
          "ticks": 30036,
          "time": 121.112973875,
          "velocity": 0.9448818897637795
        },
        {
          "duration": 0.004032260416678923,
          "durationTicks": 1,
          "midi": 35,
          "name": "B1",
          "ticks": 30048,
          "time": 121.16136099999999,
          "velocity": 0.8346456692913385
        },
        {
          "duration": 0.004032260416678923,
          "durationTicks": 1,
          "midi": 42,
          "name": "F#2",
          "ticks": 30048,
          "time": 121.16136099999999,
          "velocity": 0.8346456692913385
        },
        {
          "duration": 0.004032260416678923,
          "durationTicks": 1,
          "midi": 38,
          "name": "D2",
          "ticks": 30048,
          "time": 121.16136099999999,
          "velocity": 0.9448818897637795
        },
        {
          "duration": 0.004032260416678923,
          "durationTicks": 1,
          "midi": 38,
          "name": "D2",
          "ticks": 30060,
          "time": 121.20974812499999,
          "velocity": 0.9448818897637795
        },
        {
          "duration": 0.0040322604166647125,
          "durationTicks": 1,
          "midi": 38,
          "name": "D2",
          "ticks": 30072,
          "time": 121.25813525,
          "velocity": 0.9448818897637795
        },
        {
          "duration": 0.0040322604166647125,
          "durationTicks": 1,
          "midi": 38,
          "name": "D2",
          "ticks": 30072,
          "time": 121.25813525,
          "velocity": 0.6141732283464567
        },
        {
          "duration": 0.004032260416678923,
          "durationTicks": 1,
          "midi": 38,
          "name": "D2",
          "ticks": 30084,
          "time": 121.30652237499999,
          "velocity": 0.9448818897637795
        },
        {
          "duration": 0.004032260416678923,
          "durationTicks": 1,
          "midi": 38,
          "name": "D2",
          "ticks": 30096,
          "time": 121.35490949999999,
          "velocity": 0.9448818897637795
        },
        {
          "duration": 0.004032260416678923,
          "durationTicks": 1,
          "midi": 46,
          "name": "A#2",
          "ticks": 30096,
          "time": 121.35490949999999,
          "velocity": 0.8346456692913385
        },
        {
          "duration": 0.0040322604166647125,
          "durationTicks": 1,
          "midi": 38,
          "name": "D2",
          "ticks": 30108,
          "time": 121.403296625,
          "velocity": 0.9448818897637795
        },
        {
          "duration": 0.004032260416678923,
          "durationTicks": 1,
          "midi": 38,
          "name": "D2",
          "ticks": 30120,
          "time": 121.45168374999999,
          "velocity": 0.6141732283464567
        },
        {
          "duration": 0.004032260416678923,
          "durationTicks": 1,
          "midi": 38,
          "name": "D2",
          "ticks": 30120,
          "time": 121.45168374999999,
          "velocity": 0.9448818897637795
        },
        {
          "duration": 0.004032260416678923,
          "durationTicks": 1,
          "midi": 38,
          "name": "D2",
          "ticks": 30132,
          "time": 121.50007087499999,
          "velocity": 0.9448818897637795
        }
      ]
    },
    {
      "channel": 0,
      "controlChanges": {
        "6": [
          {
            "number": 6,
            "ticks": 0,
            "time": 0,
            "value": 0.09448818897637795
          },
          {
            "number": 6,
            "ticks": 0,
            "time": 0,
            "value": 0.09448818897637795
          },
          {
            "number": 6,
            "ticks": 0,
            "time": 0,
            "value": 0.09448818897637795
          },
          {
            "number": 6,
            "ticks": 30336,
            "time": 122.32265199999999,
            "value": 0.09448818897637795
          },
          {
            "number": 6,
            "ticks": 30336,
            "time": 122.32265199999999,
            "value": 0.09448818897637795
          },
          {
            "number": 6,
            "ticks": 30336,
            "time": 122.32265199999999,
            "value": 0.09448818897637795
          }
        ],
        "7": [
          {
            "number": 7,
            "ticks": 0,
            "time": 0,
            "value": 0.7874015748031497
          },
          {
            "number": 7,
            "ticks": 0,
            "time": 0,
            "value": 0.7874015748031497
          },
          {
            "number": 7,
            "ticks": 0,
            "time": 0,
            "value": 0.7874015748031497
          },
          {
            "number": 7,
            "ticks": 0,
            "time": 0,
            "value": 0.7874015748031497
          },
          {
            "number": 7,
            "ticks": 30336,
            "time": 122.32265199999999,
            "value": 0.7874015748031497
          },
          {
            "number": 7,
            "ticks": 30336,
            "time": 122.32265199999999,
            "value": 0.7874015748031497
          },
          {
            "number": 7,
            "ticks": 30336,
            "time": 122.32265199999999,
            "value": 0.7874015748031497
          }
        ],
        "10": [
          {
            "number": 10,
            "ticks": 0,
            "time": 0,
            "value": 0.5039370078740157
          },
          {
            "number": 10,
            "ticks": 0,
            "time": 0,
            "value": 0.5039370078740157
          },
          {
            "number": 10,
            "ticks": 0,
            "time": 0,
            "value": 0.5039370078740157
          },
          {
            "number": 10,
            "ticks": 0,
            "time": 0,
            "value": 0.5039370078740157
          },
          {
            "number": 10,
            "ticks": 30336,
            "time": 122.32265199999999,
            "value": 0.5039370078740157
          },
          {
            "number": 10,
            "ticks": 30336,
            "time": 122.32265199999999,
            "value": 0.5039370078740157
          },
          {
            "number": 10,
            "ticks": 30336,
            "time": 122.32265199999999,
            "value": 0.5039370078740157
          }
        ],
        "100": [
          {
            "number": 100,
            "ticks": 0,
            "time": 0,
            "value": 0
          },
          {
            "number": 100,
            "ticks": 0,
            "time": 0,
            "value": 0
          },
          {
            "number": 100,
            "ticks": 0,
            "time": 0,
            "value": 0
          },
          {
            "number": 100,
            "ticks": 30336,
            "time": 122.32265199999999,
            "value": 0
          },
          {
            "number": 100,
            "ticks": 30336,
            "time": 122.32265199999999,
            "value": 0
          },
          {
            "number": 100,
            "ticks": 30336,
            "time": 122.32265199999999,
            "value": 0
          }
        ],
        "101": [
          {
            "number": 101,
            "ticks": 0,
            "time": 0,
            "value": 0
          },
          {
            "number": 101,
            "ticks": 0,
            "time": 0,
            "value": 0
          },
          {
            "number": 101,
            "ticks": 0,
            "time": 0,
            "value": 0
          },
          {
            "number": 101,
            "ticks": 30336,
            "time": 122.32265199999999,
            "value": 0
          },
          {
            "number": 101,
            "ticks": 30336,
            "time": 122.32265199999999,
            "value": 0
          },
          {
            "number": 101,
            "ticks": 30336,
            "time": 122.32265199999999,
            "value": 0
          }
        ]
      },
      "pitchBends": [
        {
          "ticks": 0,
          "time": 0,
          "value": 0
        },
        {
          "ticks": 0,
          "time": 0,
          "value": 0
        },
        {
          "ticks": 0,
          "time": 0,
          "value": 0
        },
        {
          "ticks": 0,
          "time": 0,
          "value": 0
        },
        {
          "ticks": 30336,
          "time": 122.32265199999999,
          "value": 0
        },
        {
          "ticks": 30336,
          "time": 122.32265199999999,
          "value": 0
        },
        {
          "ticks": 30336,
          "time": 122.32265199999999,
          "value": 0
        }
      ],
      "instrument": {
        "family": "piano",
        "name": "acoustic grand piano",
        "number": 0
      },
      "name": "Touhou 6: Enbodiment of Scarlet Devil - U.N. Owen was Her? - Sequenced by Lu9 - Drums by original ZUN - Enjoy :3",
      "notes": []
    }
  ]
}
